%TF.GenerationSoftware,KiCad,Pcbnew,6.0.4-6f826c9f35~116~ubuntu21.10.1*%
%TF.CreationDate,2022-04-05T23:43:51+08:00*%
%TF.ProjectId,ST_Link_V2.1,53545f4c-696e-46b5-9f56-322e312e6b69,rev?*%
%TF.SameCoordinates,Original*%
%TF.FileFunction,Legend,Bot*%
%TF.FilePolarity,Positive*%
%FSLAX46Y46*%
G04 Gerber Fmt 4.6, Leading zero omitted, Abs format (unit mm)*
G04 Created by KiCad (PCBNEW 6.0.4-6f826c9f35~116~ubuntu21.10.1) date 2022-04-05 23:43:51*
%MOMM*%
%LPD*%
G01*
G04 APERTURE LIST*
G04 Aperture macros list*
%AMRoundRect*
0 Rectangle with rounded corners*
0 $1 Rounding radius*
0 $2 $3 $4 $5 $6 $7 $8 $9 X,Y pos of 4 corners*
0 Add a 4 corners polygon primitive as box body*
4,1,4,$2,$3,$4,$5,$6,$7,$8,$9,$2,$3,0*
0 Add four circle primitives for the rounded corners*
1,1,$1+$1,$2,$3*
1,1,$1+$1,$4,$5*
1,1,$1+$1,$6,$7*
1,1,$1+$1,$8,$9*
0 Add four rect primitives between the rounded corners*
20,1,$1+$1,$2,$3,$4,$5,0*
20,1,$1+$1,$4,$5,$6,$7,0*
20,1,$1+$1,$6,$7,$8,$9,0*
20,1,$1+$1,$8,$9,$2,$3,0*%
G04 Aperture macros list end*
%ADD10C,0.125000*%
%ADD11C,0.100000*%
%ADD12C,0.120000*%
%ADD13C,0.254000*%
%ADD14C,0.250000*%
%ADD15C,0.600000*%
%ADD16O,2.000000X0.900000*%
%ADD17O,1.700000X0.900000*%
%ADD18R,1.700000X1.700000*%
%ADD19O,1.700000X1.700000*%
%ADD20RoundRect,0.140000X-0.140000X-0.170000X0.140000X-0.170000X0.140000X0.170000X-0.140000X0.170000X0*%
%ADD21RoundRect,0.243750X0.243750X0.456250X-0.243750X0.456250X-0.243750X-0.456250X0.243750X-0.456250X0*%
%ADD22R,0.900000X0.800000*%
%ADD23RoundRect,0.135000X-0.135000X-0.185000X0.135000X-0.185000X0.135000X0.185000X-0.135000X0.185000X0*%
%ADD24RoundRect,0.135000X-0.185000X0.135000X-0.185000X-0.135000X0.185000X-0.135000X0.185000X0.135000X0*%
%ADD25R,1.100000X0.600000*%
%ADD26R,2.200000X1.000000*%
%ADD27R,2.200000X3.500000*%
%ADD28R,1.900000X2.400000*%
G04 APERTURE END LIST*
D10*
%TO.C,J2*%
X89828666Y-79228190D02*
X89828666Y-79585333D01*
X89852476Y-79656761D01*
X89900095Y-79704380D01*
X89971523Y-79728190D01*
X90019142Y-79728190D01*
X89614380Y-79275809D02*
X89590571Y-79252000D01*
X89542952Y-79228190D01*
X89423904Y-79228190D01*
X89376285Y-79252000D01*
X89352476Y-79275809D01*
X89328666Y-79323428D01*
X89328666Y-79371047D01*
X89352476Y-79442476D01*
X89638190Y-79728190D01*
X89328666Y-79728190D01*
D11*
%TO.C,C9*%
X68483333Y-86578571D02*
X68507142Y-86602380D01*
X68578571Y-86626190D01*
X68626190Y-86626190D01*
X68697619Y-86602380D01*
X68745238Y-86554761D01*
X68769047Y-86507142D01*
X68792857Y-86411904D01*
X68792857Y-86340476D01*
X68769047Y-86245238D01*
X68745238Y-86197619D01*
X68697619Y-86150000D01*
X68626190Y-86126190D01*
X68578571Y-86126190D01*
X68507142Y-86150000D01*
X68483333Y-86173809D01*
X68245238Y-86626190D02*
X68150000Y-86626190D01*
X68102380Y-86602380D01*
X68078571Y-86578571D01*
X68030952Y-86507142D01*
X68007142Y-86411904D01*
X68007142Y-86221428D01*
X68030952Y-86173809D01*
X68054761Y-86150000D01*
X68102380Y-86126190D01*
X68197619Y-86126190D01*
X68245238Y-86150000D01*
X68269047Y-86173809D01*
X68292857Y-86221428D01*
X68292857Y-86340476D01*
X68269047Y-86388095D01*
X68245238Y-86411904D01*
X68197619Y-86435714D01*
X68102380Y-86435714D01*
X68054761Y-86411904D01*
X68030952Y-86388095D01*
X68007142Y-86340476D01*
%TO.C,F1*%
X61507666Y-90642285D02*
X61674333Y-90642285D01*
X61674333Y-90904190D02*
X61674333Y-90404190D01*
X61436238Y-90404190D01*
X60983857Y-90904190D02*
X61269571Y-90904190D01*
X61126714Y-90904190D02*
X61126714Y-90404190D01*
X61174333Y-90475619D01*
X61221952Y-90523238D01*
X61269571Y-90547047D01*
%TO.C,Q1*%
X64847619Y-88673809D02*
X64895238Y-88650000D01*
X64942857Y-88602380D01*
X65014285Y-88530952D01*
X65061904Y-88507142D01*
X65109523Y-88507142D01*
X65085714Y-88626190D02*
X65133333Y-88602380D01*
X65180952Y-88554761D01*
X65204761Y-88459523D01*
X65204761Y-88292857D01*
X65180952Y-88197619D01*
X65133333Y-88150000D01*
X65085714Y-88126190D01*
X64990476Y-88126190D01*
X64942857Y-88150000D01*
X64895238Y-88197619D01*
X64871428Y-88292857D01*
X64871428Y-88459523D01*
X64895238Y-88554761D01*
X64942857Y-88602380D01*
X64990476Y-88626190D01*
X65085714Y-88626190D01*
X64395238Y-88626190D02*
X64680952Y-88626190D01*
X64538095Y-88626190D02*
X64538095Y-88126190D01*
X64585714Y-88197619D01*
X64633333Y-88245238D01*
X64680952Y-88269047D01*
%TO.C,R9*%
X64091333Y-90015190D02*
X64258000Y-89777095D01*
X64377047Y-90015190D02*
X64377047Y-89515190D01*
X64186571Y-89515190D01*
X64138952Y-89539000D01*
X64115142Y-89562809D01*
X64091333Y-89610428D01*
X64091333Y-89681857D01*
X64115142Y-89729476D01*
X64138952Y-89753285D01*
X64186571Y-89777095D01*
X64377047Y-89777095D01*
X63853238Y-90015190D02*
X63758000Y-90015190D01*
X63710380Y-89991380D01*
X63686571Y-89967571D01*
X63638952Y-89896142D01*
X63615142Y-89800904D01*
X63615142Y-89610428D01*
X63638952Y-89562809D01*
X63662761Y-89539000D01*
X63710380Y-89515190D01*
X63805619Y-89515190D01*
X63853238Y-89539000D01*
X63877047Y-89562809D01*
X63900857Y-89610428D01*
X63900857Y-89729476D01*
X63877047Y-89777095D01*
X63853238Y-89800904D01*
X63805619Y-89824714D01*
X63710380Y-89824714D01*
X63662761Y-89800904D01*
X63638952Y-89777095D01*
X63615142Y-89729476D01*
%TO.C,R14*%
X73886190Y-79434571D02*
X73648095Y-79267904D01*
X73886190Y-79148857D02*
X73386190Y-79148857D01*
X73386190Y-79339333D01*
X73410000Y-79386952D01*
X73433809Y-79410761D01*
X73481428Y-79434571D01*
X73552857Y-79434571D01*
X73600476Y-79410761D01*
X73624285Y-79386952D01*
X73648095Y-79339333D01*
X73648095Y-79148857D01*
X73886190Y-79910761D02*
X73886190Y-79625047D01*
X73886190Y-79767904D02*
X73386190Y-79767904D01*
X73457619Y-79720285D01*
X73505238Y-79672666D01*
X73529047Y-79625047D01*
X73552857Y-80339333D02*
X73886190Y-80339333D01*
X73362380Y-80220285D02*
X73719523Y-80101238D01*
X73719523Y-80410761D01*
%TO.C,R16*%
X72870190Y-79434571D02*
X72632095Y-79267904D01*
X72870190Y-79148857D02*
X72370190Y-79148857D01*
X72370190Y-79339333D01*
X72394000Y-79386952D01*
X72417809Y-79410761D01*
X72465428Y-79434571D01*
X72536857Y-79434571D01*
X72584476Y-79410761D01*
X72608285Y-79386952D01*
X72632095Y-79339333D01*
X72632095Y-79148857D01*
X72870190Y-79910761D02*
X72870190Y-79625047D01*
X72870190Y-79767904D02*
X72370190Y-79767904D01*
X72441619Y-79720285D01*
X72489238Y-79672666D01*
X72513047Y-79625047D01*
X72370190Y-80339333D02*
X72370190Y-80244095D01*
X72394000Y-80196476D01*
X72417809Y-80172666D01*
X72489238Y-80125047D01*
X72584476Y-80101238D01*
X72774952Y-80101238D01*
X72822571Y-80125047D01*
X72846380Y-80148857D01*
X72870190Y-80196476D01*
X72870190Y-80291714D01*
X72846380Y-80339333D01*
X72822571Y-80363142D01*
X72774952Y-80386952D01*
X72655904Y-80386952D01*
X72608285Y-80363142D01*
X72584476Y-80339333D01*
X72560666Y-80291714D01*
X72560666Y-80196476D01*
X72584476Y-80148857D01*
X72608285Y-80125047D01*
X72655904Y-80101238D01*
%TO.C,R17*%
X76934190Y-79434571D02*
X76696095Y-79267904D01*
X76934190Y-79148857D02*
X76434190Y-79148857D01*
X76434190Y-79339333D01*
X76458000Y-79386952D01*
X76481809Y-79410761D01*
X76529428Y-79434571D01*
X76600857Y-79434571D01*
X76648476Y-79410761D01*
X76672285Y-79386952D01*
X76696095Y-79339333D01*
X76696095Y-79148857D01*
X76934190Y-79910761D02*
X76934190Y-79625047D01*
X76934190Y-79767904D02*
X76434190Y-79767904D01*
X76505619Y-79720285D01*
X76553238Y-79672666D01*
X76577047Y-79625047D01*
X76434190Y-80077428D02*
X76434190Y-80410761D01*
X76934190Y-80196476D01*
%TO.C,R18*%
X75918190Y-79434571D02*
X75680095Y-79267904D01*
X75918190Y-79148857D02*
X75418190Y-79148857D01*
X75418190Y-79339333D01*
X75442000Y-79386952D01*
X75465809Y-79410761D01*
X75513428Y-79434571D01*
X75584857Y-79434571D01*
X75632476Y-79410761D01*
X75656285Y-79386952D01*
X75680095Y-79339333D01*
X75680095Y-79148857D01*
X75918190Y-79910761D02*
X75918190Y-79625047D01*
X75918190Y-79767904D02*
X75418190Y-79767904D01*
X75489619Y-79720285D01*
X75537238Y-79672666D01*
X75561047Y-79625047D01*
X75632476Y-80196476D02*
X75608666Y-80148857D01*
X75584857Y-80125047D01*
X75537238Y-80101238D01*
X75513428Y-80101238D01*
X75465809Y-80125047D01*
X75442000Y-80148857D01*
X75418190Y-80196476D01*
X75418190Y-80291714D01*
X75442000Y-80339333D01*
X75465809Y-80363142D01*
X75513428Y-80386952D01*
X75537238Y-80386952D01*
X75584857Y-80363142D01*
X75608666Y-80339333D01*
X75632476Y-80291714D01*
X75632476Y-80196476D01*
X75656285Y-80148857D01*
X75680095Y-80125047D01*
X75727714Y-80101238D01*
X75822952Y-80101238D01*
X75870571Y-80125047D01*
X75894380Y-80148857D01*
X75918190Y-80196476D01*
X75918190Y-80291714D01*
X75894380Y-80339333D01*
X75870571Y-80363142D01*
X75822952Y-80386952D01*
X75727714Y-80386952D01*
X75680095Y-80363142D01*
X75656285Y-80339333D01*
X75632476Y-80291714D01*
%TO.C,U2*%
X67563952Y-80361466D02*
X67563952Y-80766228D01*
X67540142Y-80813847D01*
X67516333Y-80837656D01*
X67468714Y-80861466D01*
X67373476Y-80861466D01*
X67325857Y-80837656D01*
X67302047Y-80813847D01*
X67278238Y-80766228D01*
X67278238Y-80361466D01*
X67063952Y-80409085D02*
X67040142Y-80385276D01*
X66992523Y-80361466D01*
X66873476Y-80361466D01*
X66825857Y-80385276D01*
X66802047Y-80409085D01*
X66778238Y-80456704D01*
X66778238Y-80504323D01*
X66802047Y-80575752D01*
X67087761Y-80861466D01*
X66778238Y-80861466D01*
%TO.C,U3*%
X58673952Y-81133190D02*
X58673952Y-81537952D01*
X58650142Y-81585571D01*
X58626333Y-81609380D01*
X58578714Y-81633190D01*
X58483476Y-81633190D01*
X58435857Y-81609380D01*
X58412047Y-81585571D01*
X58388238Y-81537952D01*
X58388238Y-81133190D01*
X58197761Y-81133190D02*
X57888238Y-81133190D01*
X58054904Y-81323666D01*
X57983476Y-81323666D01*
X57935857Y-81347476D01*
X57912047Y-81371285D01*
X57888238Y-81418904D01*
X57888238Y-81537952D01*
X57912047Y-81585571D01*
X57935857Y-81609380D01*
X57983476Y-81633190D01*
X58126333Y-81633190D01*
X58173952Y-81609380D01*
X58197761Y-81585571D01*
%TO.C,Y1*%
X77338095Y-87388095D02*
X77338095Y-87626190D01*
X77504761Y-87126190D02*
X77338095Y-87388095D01*
X77171428Y-87126190D01*
X76742857Y-87626190D02*
X77028571Y-87626190D01*
X76885714Y-87626190D02*
X76885714Y-87126190D01*
X76933333Y-87197619D01*
X76980952Y-87245238D01*
X77028571Y-87269047D01*
%TO.C,R15*%
X74902190Y-79434571D02*
X74664095Y-79267904D01*
X74902190Y-79148857D02*
X74402190Y-79148857D01*
X74402190Y-79339333D01*
X74426000Y-79386952D01*
X74449809Y-79410761D01*
X74497428Y-79434571D01*
X74568857Y-79434571D01*
X74616476Y-79410761D01*
X74640285Y-79386952D01*
X74664095Y-79339333D01*
X74664095Y-79148857D01*
X74902190Y-79910761D02*
X74902190Y-79625047D01*
X74902190Y-79767904D02*
X74402190Y-79767904D01*
X74473619Y-79720285D01*
X74521238Y-79672666D01*
X74545047Y-79625047D01*
X74402190Y-80363142D02*
X74402190Y-80125047D01*
X74640285Y-80101238D01*
X74616476Y-80125047D01*
X74592666Y-80172666D01*
X74592666Y-80291714D01*
X74616476Y-80339333D01*
X74640285Y-80363142D01*
X74687904Y-80386952D01*
X74806952Y-80386952D01*
X74854571Y-80363142D01*
X74878380Y-80339333D01*
X74902190Y-80291714D01*
X74902190Y-80172666D01*
X74878380Y-80125047D01*
X74854571Y-80101238D01*
D12*
%TO.C,J2*%
X88332000Y-82804000D02*
X88332000Y-87944000D01*
X90992000Y-82804000D02*
X90992000Y-87944000D01*
X90992000Y-80204000D02*
X89662000Y-80204000D01*
X90992000Y-87944000D02*
X88332000Y-87944000D01*
X90992000Y-82804000D02*
X88332000Y-82804000D01*
X90992000Y-81534000D02*
X90992000Y-80204000D01*
%TO.C,C9*%
X66694164Y-86720000D02*
X66909836Y-86720000D01*
X66694164Y-86000000D02*
X66909836Y-86000000D01*
%TO.C,F1*%
X59440578Y-91388000D02*
X58923422Y-91388000D01*
X59440578Y-89968000D02*
X58923422Y-89968000D01*
%TO.C,Q1*%
X68070000Y-91242000D02*
X68070000Y-90312000D01*
X68070000Y-88082000D02*
X66610000Y-88082000D01*
X68070000Y-88082000D02*
X68070000Y-89012000D01*
X68070000Y-91242000D02*
X65910000Y-91242000D01*
%TO.C,R9*%
X63854359Y-90298000D02*
X64161641Y-90298000D01*
X63854359Y-91058000D02*
X64161641Y-91058000D01*
%TO.C,R14*%
X74040000Y-77824359D02*
X74040000Y-78131641D01*
X73280000Y-77824359D02*
X73280000Y-78131641D01*
%TO.C,R16*%
X73024000Y-77824359D02*
X73024000Y-78131641D01*
X72264000Y-77824359D02*
X72264000Y-78131641D01*
%TO.C,R17*%
X76328000Y-77824359D02*
X76328000Y-78131641D01*
X77088000Y-77824359D02*
X77088000Y-78131641D01*
%TO.C,R18*%
X76072000Y-77824359D02*
X76072000Y-78131641D01*
X75312000Y-77824359D02*
X75312000Y-78131641D01*
D13*
%TO.C,U2*%
X67556000Y-77086000D02*
X67556000Y-79886000D01*
X66556000Y-79886000D02*
X67556000Y-79886000D01*
X66556000Y-77086000D02*
X66556000Y-79886000D01*
X66556000Y-77086000D02*
X67556000Y-77086000D01*
D14*
X68681000Y-76736000D02*
G75*
G03*
X68681000Y-76736000I-125000J0D01*
G01*
D13*
%TO.C,U3*%
X62614000Y-81074000D02*
X62614000Y-87074000D01*
X59814000Y-81074000D02*
X59814000Y-87074000D01*
X59814000Y-87074000D02*
X62614000Y-87074000D01*
X59814000Y-81074000D02*
X62614000Y-81074000D01*
%TO.C,Y1*%
X69827000Y-88076000D02*
X69827000Y-88976000D01*
X69827000Y-85776000D02*
X69827000Y-86676000D01*
X69827000Y-85776000D02*
X76477000Y-85776000D01*
X76477000Y-88076000D02*
X76477000Y-88976000D01*
X69827000Y-88976000D02*
X76477000Y-88976000D01*
X76477000Y-85776000D02*
X76477000Y-86676000D01*
D12*
%TO.C,R15*%
X74296000Y-77824359D02*
X74296000Y-78131641D01*
X75056000Y-77824359D02*
X75056000Y-78131641D01*
%TD*%
%LPC*%
D15*
%TO.C,J1*%
X62410000Y-81184000D03*
X62410000Y-86964000D03*
D16*
X62890000Y-79754000D03*
X62890000Y-88394000D03*
D17*
X58720000Y-79754000D03*
X58720000Y-88394000D03*
%TD*%
D18*
%TO.C,J3*%
X82042000Y-78994000D03*
D19*
X82042000Y-81534000D03*
X82042000Y-84074000D03*
X82042000Y-86614000D03*
X82042000Y-89154000D03*
X84582000Y-78994000D03*
X84582000Y-81534000D03*
X84582000Y-84074000D03*
X84582000Y-86614000D03*
X84582000Y-89154000D03*
X87122000Y-78994000D03*
X87122000Y-81534000D03*
X87122000Y-84074000D03*
X87122000Y-86614000D03*
X87122000Y-89154000D03*
%TD*%
D18*
%TO.C,J2*%
X89662000Y-81534000D03*
D19*
X89662000Y-84074000D03*
X89662000Y-86614000D03*
%TD*%
D20*
%TO.C,C9*%
X66322000Y-86360000D03*
X67282000Y-86360000D03*
%TD*%
D21*
%TO.C,F1*%
X60119500Y-90678000D03*
X58244500Y-90678000D03*
%TD*%
D22*
%TO.C,Q1*%
X66310000Y-90612000D03*
X66310000Y-88712000D03*
X68310000Y-89662000D03*
%TD*%
D23*
%TO.C,R9*%
X63498000Y-90678000D03*
X64518000Y-90678000D03*
%TD*%
D24*
%TO.C,R14*%
X73660000Y-77468000D03*
X73660000Y-78488000D03*
%TD*%
%TO.C,R16*%
X72644000Y-77468000D03*
X72644000Y-78488000D03*
%TD*%
%TO.C,R17*%
X76708000Y-77468000D03*
X76708000Y-78488000D03*
%TD*%
%TO.C,R18*%
X75692000Y-77468000D03*
X75692000Y-78488000D03*
%TD*%
D25*
%TO.C,U2*%
X68456000Y-77536000D03*
X68456000Y-78486000D03*
X68456000Y-79436000D03*
X65656000Y-79436000D03*
X65656000Y-77536000D03*
%TD*%
D26*
%TO.C,U3*%
X64214000Y-81774000D03*
X64214000Y-84074000D03*
D27*
X58214000Y-84074000D03*
D26*
X64214000Y-86374000D03*
%TD*%
D28*
%TO.C,Y1*%
X71102000Y-87376000D03*
X75202000Y-87376000D03*
%TD*%
D24*
%TO.C,R15*%
X74676000Y-77468000D03*
X74676000Y-78488000D03*
%TD*%
M02*
