%TF.GenerationSoftware,KiCad,Pcbnew,5.1.10-88a1d61d58~89~ubuntu21.04.1*%
%TF.CreationDate,2021-07-10T21:48:55+08:00*%
%TF.ProjectId,ST_Link_V2.1,53545f4c-696e-46b5-9f56-322e312e6b69,rev?*%
%TF.SameCoordinates,Original*%
%TF.FileFunction,Legend,Top*%
%TF.FilePolarity,Positive*%
%FSLAX46Y46*%
G04 Gerber Fmt 4.6, Leading zero omitted, Abs format (unit mm)*
G04 Created by KiCad (PCBNEW 5.1.10-88a1d61d58~89~ubuntu21.04.1) date 2021-07-10 21:48:55*
%MOMM*%
%LPD*%
G01*
G04 APERTURE LIST*
%ADD10C,0.120000*%
%ADD11C,0.300000*%
%ADD12C,0.400000*%
%ADD13C,0.200000*%
%ADD14C,0.100000*%
G04 APERTURE END LIST*
D10*
%TO.C,R7*%
X75845641Y-78866000D02*
X75538359Y-78866000D01*
X75845641Y-78106000D02*
X75538359Y-78106000D01*
%TO.C,J3*%
X80772000Y-77724000D02*
X82042000Y-77724000D01*
X80772000Y-78994000D02*
X80772000Y-77724000D01*
X85624929Y-89534000D02*
X86079071Y-89534000D01*
X85624929Y-88774000D02*
X86079071Y-88774000D01*
X88164929Y-89534000D02*
X88562000Y-89534000D01*
X88164929Y-88774000D02*
X88562000Y-88774000D01*
X97222000Y-89534000D02*
X91222000Y-89534000D01*
X97222000Y-88774000D02*
X97222000Y-89534000D01*
X91222000Y-88774000D02*
X97222000Y-88774000D01*
X88562000Y-87884000D02*
X91222000Y-87884000D01*
X85624929Y-86994000D02*
X86079071Y-86994000D01*
X85624929Y-86234000D02*
X86079071Y-86234000D01*
X88164929Y-86994000D02*
X88562000Y-86994000D01*
X88164929Y-86234000D02*
X88562000Y-86234000D01*
X97222000Y-86994000D02*
X91222000Y-86994000D01*
X97222000Y-86234000D02*
X97222000Y-86994000D01*
X91222000Y-86234000D02*
X97222000Y-86234000D01*
X88562000Y-85344000D02*
X91222000Y-85344000D01*
X85624929Y-84454000D02*
X86079071Y-84454000D01*
X85624929Y-83694000D02*
X86079071Y-83694000D01*
X88164929Y-84454000D02*
X88562000Y-84454000D01*
X88164929Y-83694000D02*
X88562000Y-83694000D01*
X97222000Y-84454000D02*
X91222000Y-84454000D01*
X97222000Y-83694000D02*
X97222000Y-84454000D01*
X91222000Y-83694000D02*
X97222000Y-83694000D01*
X88562000Y-82804000D02*
X91222000Y-82804000D01*
X85624929Y-81914000D02*
X86079071Y-81914000D01*
X85624929Y-81154000D02*
X86079071Y-81154000D01*
X88164929Y-81914000D02*
X88562000Y-81914000D01*
X88164929Y-81154000D02*
X88562000Y-81154000D01*
X97222000Y-81914000D02*
X91222000Y-81914000D01*
X97222000Y-81154000D02*
X97222000Y-81914000D01*
X91222000Y-81154000D02*
X97222000Y-81154000D01*
X88562000Y-80264000D02*
X91222000Y-80264000D01*
X85692000Y-79374000D02*
X86079071Y-79374000D01*
X85692000Y-78614000D02*
X86079071Y-78614000D01*
X88164929Y-79374000D02*
X88562000Y-79374000D01*
X88164929Y-78614000D02*
X88562000Y-78614000D01*
X91222000Y-79274000D02*
X97222000Y-79274000D01*
X91222000Y-79154000D02*
X97222000Y-79154000D01*
X91222000Y-79034000D02*
X97222000Y-79034000D01*
X91222000Y-78914000D02*
X97222000Y-78914000D01*
X91222000Y-78794000D02*
X97222000Y-78794000D01*
X91222000Y-78674000D02*
X97222000Y-78674000D01*
X97222000Y-79374000D02*
X91222000Y-79374000D01*
X97222000Y-78614000D02*
X97222000Y-79374000D01*
X91222000Y-78614000D02*
X97222000Y-78614000D01*
X91222000Y-77664000D02*
X88562000Y-77664000D01*
X91222000Y-90484000D02*
X91222000Y-77664000D01*
X88562000Y-90484000D02*
X91222000Y-90484000D01*
X88562000Y-77664000D02*
X88562000Y-90484000D01*
X83152000Y-78614000D02*
X83539071Y-78614000D01*
X83152000Y-79374000D02*
X83539071Y-79374000D01*
X83152000Y-81154000D02*
X83539071Y-81154000D01*
X83152000Y-81914000D02*
X83539071Y-81914000D01*
X83152000Y-83694000D02*
X83539071Y-83694000D01*
X83152000Y-84454000D02*
X83539071Y-84454000D01*
X83152000Y-86234000D02*
X83539071Y-86234000D01*
X83152000Y-86994000D02*
X83539071Y-86994000D01*
X83152000Y-88774000D02*
X83539071Y-88774000D01*
X83152000Y-89534000D02*
X83539071Y-89534000D01*
D11*
%TO.C,U1*%
X70106000Y-88349000D02*
G75*
G03*
X70106000Y-88349000I-150000J0D01*
G01*
D12*
X71581000Y-86099000D02*
G75*
G03*
X71581000Y-86099000I-200000J0D01*
G01*
D13*
X70656000Y-86824000D02*
X76156000Y-86824000D01*
X70656000Y-81324000D02*
X76156000Y-81324000D01*
X70656000Y-86824000D02*
X70656000Y-81324000D01*
X76156000Y-86824000D02*
X76156000Y-81324000D01*
D10*
%TO.C,R21*%
X77852000Y-90831641D02*
X77852000Y-90524359D01*
X78612000Y-90831641D02*
X78612000Y-90524359D01*
%TO.C,R20*%
X68707001Y-90831641D02*
X68707001Y-90524359D01*
X69467001Y-90831641D02*
X69467001Y-90524359D01*
%TO.C,R19*%
X75564000Y-90524359D02*
X75564000Y-90831641D01*
X74804000Y-90524359D02*
X74804000Y-90831641D01*
%TO.C,R13*%
X77596000Y-90524359D02*
X77596000Y-90831641D01*
X76836000Y-90524359D02*
X76836000Y-90831641D01*
%TO.C,R12*%
X75820000Y-90831641D02*
X75820000Y-90524359D01*
X76580000Y-90831641D02*
X76580000Y-90524359D01*
%TO.C,R11*%
X65685641Y-83694000D02*
X65378359Y-83694000D01*
X65685641Y-84454000D02*
X65378359Y-84454000D01*
%TO.C,R10*%
X64161641Y-91058000D02*
X63854359Y-91058000D01*
X64161641Y-90298000D02*
X63854359Y-90298000D01*
%TO.C,R8*%
X65886359Y-90298000D02*
X66193641Y-90298000D01*
X65886359Y-91058000D02*
X66193641Y-91058000D01*
%TO.C,R6*%
X65685641Y-85470000D02*
X65378359Y-85470000D01*
X65685641Y-84710000D02*
X65378359Y-84710000D01*
%TO.C,R5*%
X65685641Y-83438000D02*
X65378359Y-83438000D01*
X65685641Y-82678000D02*
X65378359Y-82678000D01*
%TO.C,R4*%
X65685641Y-86486000D02*
X65378359Y-86486000D01*
X65685641Y-85726000D02*
X65378359Y-85726000D01*
%TO.C,R3*%
X65685641Y-82422000D02*
X65378359Y-82422000D01*
X65685641Y-81662000D02*
X65378359Y-81662000D01*
%TO.C,R2*%
X71500000Y-90524359D02*
X71500000Y-90831641D01*
X70740000Y-90524359D02*
X70740000Y-90831641D01*
%TO.C,R1*%
X70484000Y-90524359D02*
X70484000Y-90831641D01*
X69724000Y-90524359D02*
X69724000Y-90831641D01*
%TO.C,JP1*%
X80502000Y-80521000D02*
X78502000Y-80521000D01*
X80502000Y-77721000D02*
X80502000Y-80521000D01*
X78502000Y-77721000D02*
X80502000Y-77721000D01*
X78502000Y-80521000D02*
X78502000Y-77721000D01*
%TO.C,J1*%
X56120000Y-88544000D02*
X56120000Y-79604000D01*
X61630000Y-88544000D02*
X59830000Y-88544000D01*
X56120000Y-88544000D02*
X57580000Y-88544000D01*
X56120000Y-79604000D02*
X57580000Y-79604000D01*
X61630000Y-79604000D02*
X59830000Y-79604000D01*
D14*
%TO.C,D5*%
X75742000Y-77822000D02*
G75*
G03*
X75742000Y-77822000I-50000J0D01*
G01*
%TO.C,D4*%
X76758000Y-77822000D02*
G75*
G03*
X76758000Y-77822000I-50000J0D01*
G01*
%TO.C,D3*%
X72694000Y-76102000D02*
G75*
G03*
X72694000Y-76102000I-50000J0D01*
G01*
%TO.C,D2*%
X74726000Y-77822000D02*
G75*
G03*
X74726000Y-77822000I-50000J0D01*
G01*
%TO.C,D1*%
X73710000Y-76102000D02*
G75*
G03*
X73710000Y-76102000I-50000J0D01*
G01*
D10*
%TO.C,C15*%
X66696000Y-77831836D02*
X66696000Y-77616164D01*
X67416000Y-77831836D02*
X67416000Y-77616164D01*
%TO.C,C14*%
X58273836Y-77830000D02*
X58058164Y-77830000D01*
X58273836Y-77110000D02*
X58058164Y-77110000D01*
%TO.C,C13*%
X67712000Y-77831836D02*
X67712000Y-77616164D01*
X68432000Y-77831836D02*
X68432000Y-77616164D01*
%TO.C,C12*%
X61010748Y-76560000D02*
X62433252Y-76560000D01*
X61010748Y-78380000D02*
X62433252Y-78380000D01*
%TO.C,C11*%
X65680000Y-77831836D02*
X65680000Y-77616164D01*
X66400000Y-77831836D02*
X66400000Y-77616164D01*
%TO.C,C10*%
X74528000Y-90570164D02*
X74528000Y-90785836D01*
X73808000Y-90570164D02*
X73808000Y-90785836D01*
%TO.C,C8*%
X61362000Y-90785836D02*
X61362000Y-90570164D01*
X62082000Y-90785836D02*
X62082000Y-90570164D01*
%TO.C,C7*%
X77110000Y-79609836D02*
X77110000Y-79394164D01*
X77830000Y-79609836D02*
X77830000Y-79394164D01*
%TO.C,C6*%
X59443252Y-91413000D02*
X58920748Y-91413000D01*
X59443252Y-89943000D02*
X58920748Y-89943000D01*
%TO.C,C5*%
X68432000Y-90570164D02*
X68432000Y-90785836D01*
X67712000Y-90570164D02*
X67712000Y-90785836D01*
%TO.C,C4*%
X65639836Y-87482000D02*
X65424164Y-87482000D01*
X65639836Y-86762000D02*
X65424164Y-86762000D01*
%TO.C,C3*%
X68728000Y-77831836D02*
X68728000Y-77616164D01*
X69448000Y-77831836D02*
X69448000Y-77616164D01*
%TO.C,C2*%
X73512000Y-90570164D02*
X73512000Y-90785836D01*
X72792000Y-90570164D02*
X72792000Y-90785836D01*
%TO.C,C1*%
X72496000Y-90570164D02*
X72496000Y-90785836D01*
X71776000Y-90570164D02*
X71776000Y-90785836D01*
%TO.C,R7*%
D14*
X79037666Y-81379190D02*
X78871000Y-81141095D01*
X78751952Y-81379190D02*
X78751952Y-80879190D01*
X78942428Y-80879190D01*
X78990047Y-80903000D01*
X79013857Y-80926809D01*
X79037666Y-80974428D01*
X79037666Y-81045857D01*
X79013857Y-81093476D01*
X78990047Y-81117285D01*
X78942428Y-81141095D01*
X78751952Y-81141095D01*
X79204333Y-80879190D02*
X79537666Y-80879190D01*
X79323380Y-81379190D01*
%TO.C,J3*%
X89876333Y-76815190D02*
X89876333Y-77172333D01*
X89852523Y-77243761D01*
X89804904Y-77291380D01*
X89733476Y-77315190D01*
X89685857Y-77315190D01*
X90066809Y-76815190D02*
X90376333Y-76815190D01*
X90209666Y-77005666D01*
X90281095Y-77005666D01*
X90328714Y-77029476D01*
X90352523Y-77053285D01*
X90376333Y-77100904D01*
X90376333Y-77219952D01*
X90352523Y-77267571D01*
X90328714Y-77291380D01*
X90281095Y-77315190D01*
X90138238Y-77315190D01*
X90090619Y-77291380D01*
X90066809Y-77267571D01*
%TO.C,U1*%
X68961047Y-79736190D02*
X68961047Y-80140952D01*
X68984857Y-80188571D01*
X69008666Y-80212380D01*
X69056285Y-80236190D01*
X69151523Y-80236190D01*
X69199142Y-80212380D01*
X69222952Y-80188571D01*
X69246761Y-80140952D01*
X69246761Y-79736190D01*
X69746761Y-80236190D02*
X69461047Y-80236190D01*
X69603904Y-80236190D02*
X69603904Y-79736190D01*
X69556285Y-79807619D01*
X69508666Y-79855238D01*
X69461047Y-79879047D01*
%TO.C,R21*%
X87475190Y-91507428D02*
X87237095Y-91674095D01*
X87475190Y-91793142D02*
X86975190Y-91793142D01*
X86975190Y-91602666D01*
X86999000Y-91555047D01*
X87022809Y-91531238D01*
X87070428Y-91507428D01*
X87141857Y-91507428D01*
X87189476Y-91531238D01*
X87213285Y-91555047D01*
X87237095Y-91602666D01*
X87237095Y-91793142D01*
X87022809Y-91316952D02*
X86999000Y-91293142D01*
X86975190Y-91245523D01*
X86975190Y-91126476D01*
X86999000Y-91078857D01*
X87022809Y-91055047D01*
X87070428Y-91031238D01*
X87118047Y-91031238D01*
X87189476Y-91055047D01*
X87475190Y-91340761D01*
X87475190Y-91031238D01*
X87475190Y-90555047D02*
X87475190Y-90840761D01*
X87475190Y-90697904D02*
X86975190Y-90697904D01*
X87046619Y-90745523D01*
X87094238Y-90793142D01*
X87118047Y-90840761D01*
%TO.C,R20*%
X80617190Y-91507428D02*
X80379095Y-91674095D01*
X80617190Y-91793142D02*
X80117190Y-91793142D01*
X80117190Y-91602666D01*
X80141000Y-91555047D01*
X80164809Y-91531238D01*
X80212428Y-91507428D01*
X80283857Y-91507428D01*
X80331476Y-91531238D01*
X80355285Y-91555047D01*
X80379095Y-91602666D01*
X80379095Y-91793142D01*
X80164809Y-91316952D02*
X80141000Y-91293142D01*
X80117190Y-91245523D01*
X80117190Y-91126476D01*
X80141000Y-91078857D01*
X80164809Y-91055047D01*
X80212428Y-91031238D01*
X80260047Y-91031238D01*
X80331476Y-91055047D01*
X80617190Y-91340761D01*
X80617190Y-91031238D01*
X80117190Y-90721714D02*
X80117190Y-90674095D01*
X80141000Y-90626476D01*
X80164809Y-90602666D01*
X80212428Y-90578857D01*
X80307666Y-90555047D01*
X80426714Y-90555047D01*
X80521952Y-90578857D01*
X80569571Y-90602666D01*
X80593380Y-90626476D01*
X80617190Y-90674095D01*
X80617190Y-90721714D01*
X80593380Y-90769333D01*
X80569571Y-90793142D01*
X80521952Y-90816952D01*
X80426714Y-90840761D01*
X80307666Y-90840761D01*
X80212428Y-90816952D01*
X80164809Y-90793142D01*
X80141000Y-90769333D01*
X80117190Y-90721714D01*
%TO.C,R19*%
X85189190Y-91507428D02*
X84951095Y-91674095D01*
X85189190Y-91793142D02*
X84689190Y-91793142D01*
X84689190Y-91602666D01*
X84713000Y-91555047D01*
X84736809Y-91531238D01*
X84784428Y-91507428D01*
X84855857Y-91507428D01*
X84903476Y-91531238D01*
X84927285Y-91555047D01*
X84951095Y-91602666D01*
X84951095Y-91793142D01*
X85189190Y-91031238D02*
X85189190Y-91316952D01*
X85189190Y-91174095D02*
X84689190Y-91174095D01*
X84760619Y-91221714D01*
X84808238Y-91269333D01*
X84832047Y-91316952D01*
X85189190Y-90793142D02*
X85189190Y-90697904D01*
X85165380Y-90650285D01*
X85141571Y-90626476D01*
X85070142Y-90578857D01*
X84974904Y-90555047D01*
X84784428Y-90555047D01*
X84736809Y-90578857D01*
X84713000Y-90602666D01*
X84689190Y-90650285D01*
X84689190Y-90745523D01*
X84713000Y-90793142D01*
X84736809Y-90816952D01*
X84784428Y-90840761D01*
X84903476Y-90840761D01*
X84951095Y-90816952D01*
X84974904Y-90793142D01*
X84998714Y-90745523D01*
X84998714Y-90650285D01*
X84974904Y-90602666D01*
X84951095Y-90578857D01*
X84903476Y-90555047D01*
%TO.C,R13*%
X86713190Y-91507428D02*
X86475095Y-91674095D01*
X86713190Y-91793142D02*
X86213190Y-91793142D01*
X86213190Y-91602666D01*
X86237000Y-91555047D01*
X86260809Y-91531238D01*
X86308428Y-91507428D01*
X86379857Y-91507428D01*
X86427476Y-91531238D01*
X86451285Y-91555047D01*
X86475095Y-91602666D01*
X86475095Y-91793142D01*
X86713190Y-91031238D02*
X86713190Y-91316952D01*
X86713190Y-91174095D02*
X86213190Y-91174095D01*
X86284619Y-91221714D01*
X86332238Y-91269333D01*
X86356047Y-91316952D01*
X86213190Y-90864571D02*
X86213190Y-90555047D01*
X86403666Y-90721714D01*
X86403666Y-90650285D01*
X86427476Y-90602666D01*
X86451285Y-90578857D01*
X86498904Y-90555047D01*
X86617952Y-90555047D01*
X86665571Y-90578857D01*
X86689380Y-90602666D01*
X86713190Y-90650285D01*
X86713190Y-90793142D01*
X86689380Y-90840761D01*
X86665571Y-90864571D01*
%TO.C,R12*%
X85951190Y-91507428D02*
X85713095Y-91674095D01*
X85951190Y-91793142D02*
X85451190Y-91793142D01*
X85451190Y-91602666D01*
X85475000Y-91555047D01*
X85498809Y-91531238D01*
X85546428Y-91507428D01*
X85617857Y-91507428D01*
X85665476Y-91531238D01*
X85689285Y-91555047D01*
X85713095Y-91602666D01*
X85713095Y-91793142D01*
X85951190Y-91031238D02*
X85951190Y-91316952D01*
X85951190Y-91174095D02*
X85451190Y-91174095D01*
X85522619Y-91221714D01*
X85570238Y-91269333D01*
X85594047Y-91316952D01*
X85498809Y-90840761D02*
X85475000Y-90816952D01*
X85451190Y-90769333D01*
X85451190Y-90650285D01*
X85475000Y-90602666D01*
X85498809Y-90578857D01*
X85546428Y-90555047D01*
X85594047Y-90555047D01*
X85665476Y-90578857D01*
X85951190Y-90864571D01*
X85951190Y-90555047D01*
%TO.C,R11*%
X66988571Y-84300190D02*
X66821904Y-84062095D01*
X66702857Y-84300190D02*
X66702857Y-83800190D01*
X66893333Y-83800190D01*
X66940952Y-83824000D01*
X66964761Y-83847809D01*
X66988571Y-83895428D01*
X66988571Y-83966857D01*
X66964761Y-84014476D01*
X66940952Y-84038285D01*
X66893333Y-84062095D01*
X66702857Y-84062095D01*
X67464761Y-84300190D02*
X67179047Y-84300190D01*
X67321904Y-84300190D02*
X67321904Y-83800190D01*
X67274285Y-83871619D01*
X67226666Y-83919238D01*
X67179047Y-83943047D01*
X67940952Y-84300190D02*
X67655238Y-84300190D01*
X67798095Y-84300190D02*
X67798095Y-83800190D01*
X67750476Y-83871619D01*
X67702857Y-83919238D01*
X67655238Y-83943047D01*
%TO.C,R10*%
X63686571Y-90015190D02*
X63519904Y-89777095D01*
X63400857Y-90015190D02*
X63400857Y-89515190D01*
X63591333Y-89515190D01*
X63638952Y-89539000D01*
X63662761Y-89562809D01*
X63686571Y-89610428D01*
X63686571Y-89681857D01*
X63662761Y-89729476D01*
X63638952Y-89753285D01*
X63591333Y-89777095D01*
X63400857Y-89777095D01*
X64162761Y-90015190D02*
X63877047Y-90015190D01*
X64019904Y-90015190D02*
X64019904Y-89515190D01*
X63972285Y-89586619D01*
X63924666Y-89634238D01*
X63877047Y-89658047D01*
X64472285Y-89515190D02*
X64519904Y-89515190D01*
X64567523Y-89539000D01*
X64591333Y-89562809D01*
X64615142Y-89610428D01*
X64638952Y-89705666D01*
X64638952Y-89824714D01*
X64615142Y-89919952D01*
X64591333Y-89967571D01*
X64567523Y-89991380D01*
X64519904Y-90015190D01*
X64472285Y-90015190D01*
X64424666Y-89991380D01*
X64400857Y-89967571D01*
X64377047Y-89919952D01*
X64353238Y-89824714D01*
X64353238Y-89705666D01*
X64377047Y-89610428D01*
X64400857Y-89562809D01*
X64424666Y-89539000D01*
X64472285Y-89515190D01*
%TO.C,R8*%
X65956666Y-90015190D02*
X65790000Y-89777095D01*
X65670952Y-90015190D02*
X65670952Y-89515190D01*
X65861428Y-89515190D01*
X65909047Y-89539000D01*
X65932857Y-89562809D01*
X65956666Y-89610428D01*
X65956666Y-89681857D01*
X65932857Y-89729476D01*
X65909047Y-89753285D01*
X65861428Y-89777095D01*
X65670952Y-89777095D01*
X66242380Y-89729476D02*
X66194761Y-89705666D01*
X66170952Y-89681857D01*
X66147142Y-89634238D01*
X66147142Y-89610428D01*
X66170952Y-89562809D01*
X66194761Y-89539000D01*
X66242380Y-89515190D01*
X66337619Y-89515190D01*
X66385238Y-89539000D01*
X66409047Y-89562809D01*
X66432857Y-89610428D01*
X66432857Y-89634238D01*
X66409047Y-89681857D01*
X66385238Y-89705666D01*
X66337619Y-89729476D01*
X66242380Y-89729476D01*
X66194761Y-89753285D01*
X66170952Y-89777095D01*
X66147142Y-89824714D01*
X66147142Y-89919952D01*
X66170952Y-89967571D01*
X66194761Y-89991380D01*
X66242380Y-90015190D01*
X66337619Y-90015190D01*
X66385238Y-89991380D01*
X66409047Y-89967571D01*
X66432857Y-89919952D01*
X66432857Y-89824714D01*
X66409047Y-89777095D01*
X66385238Y-89753285D01*
X66337619Y-89729476D01*
%TO.C,R6*%
X66972666Y-85316190D02*
X66806000Y-85078095D01*
X66686952Y-85316190D02*
X66686952Y-84816190D01*
X66877428Y-84816190D01*
X66925047Y-84840000D01*
X66948857Y-84863809D01*
X66972666Y-84911428D01*
X66972666Y-84982857D01*
X66948857Y-85030476D01*
X66925047Y-85054285D01*
X66877428Y-85078095D01*
X66686952Y-85078095D01*
X67401238Y-84816190D02*
X67306000Y-84816190D01*
X67258380Y-84840000D01*
X67234571Y-84863809D01*
X67186952Y-84935238D01*
X67163142Y-85030476D01*
X67163142Y-85220952D01*
X67186952Y-85268571D01*
X67210761Y-85292380D01*
X67258380Y-85316190D01*
X67353619Y-85316190D01*
X67401238Y-85292380D01*
X67425047Y-85268571D01*
X67448857Y-85220952D01*
X67448857Y-85101904D01*
X67425047Y-85054285D01*
X67401238Y-85030476D01*
X67353619Y-85006666D01*
X67258380Y-85006666D01*
X67210761Y-85030476D01*
X67186952Y-85054285D01*
X67163142Y-85101904D01*
%TO.C,R5*%
X66972666Y-83284190D02*
X66806000Y-83046095D01*
X66686952Y-83284190D02*
X66686952Y-82784190D01*
X66877428Y-82784190D01*
X66925047Y-82808000D01*
X66948857Y-82831809D01*
X66972666Y-82879428D01*
X66972666Y-82950857D01*
X66948857Y-82998476D01*
X66925047Y-83022285D01*
X66877428Y-83046095D01*
X66686952Y-83046095D01*
X67425047Y-82784190D02*
X67186952Y-82784190D01*
X67163142Y-83022285D01*
X67186952Y-82998476D01*
X67234571Y-82974666D01*
X67353619Y-82974666D01*
X67401238Y-82998476D01*
X67425047Y-83022285D01*
X67448857Y-83069904D01*
X67448857Y-83188952D01*
X67425047Y-83236571D01*
X67401238Y-83260380D01*
X67353619Y-83284190D01*
X67234571Y-83284190D01*
X67186952Y-83260380D01*
X67163142Y-83236571D01*
%TO.C,R4*%
X66972666Y-86332190D02*
X66806000Y-86094095D01*
X66686952Y-86332190D02*
X66686952Y-85832190D01*
X66877428Y-85832190D01*
X66925047Y-85856000D01*
X66948857Y-85879809D01*
X66972666Y-85927428D01*
X66972666Y-85998857D01*
X66948857Y-86046476D01*
X66925047Y-86070285D01*
X66877428Y-86094095D01*
X66686952Y-86094095D01*
X67401238Y-85998857D02*
X67401238Y-86332190D01*
X67282190Y-85808380D02*
X67163142Y-86165523D01*
X67472666Y-86165523D01*
%TO.C,R3*%
X66972666Y-82268190D02*
X66806000Y-82030095D01*
X66686952Y-82268190D02*
X66686952Y-81768190D01*
X66877428Y-81768190D01*
X66925047Y-81792000D01*
X66948857Y-81815809D01*
X66972666Y-81863428D01*
X66972666Y-81934857D01*
X66948857Y-81982476D01*
X66925047Y-82006285D01*
X66877428Y-82030095D01*
X66686952Y-82030095D01*
X67139333Y-81768190D02*
X67448857Y-81768190D01*
X67282190Y-81958666D01*
X67353619Y-81958666D01*
X67401238Y-81982476D01*
X67425047Y-82006285D01*
X67448857Y-82053904D01*
X67448857Y-82172952D01*
X67425047Y-82220571D01*
X67401238Y-82244380D01*
X67353619Y-82268190D01*
X67210761Y-82268190D01*
X67163142Y-82244380D01*
X67139333Y-82220571D01*
%TO.C,R2*%
X82141190Y-91523333D02*
X81903095Y-91690000D01*
X82141190Y-91809047D02*
X81641190Y-91809047D01*
X81641190Y-91618571D01*
X81665000Y-91570952D01*
X81688809Y-91547142D01*
X81736428Y-91523333D01*
X81807857Y-91523333D01*
X81855476Y-91547142D01*
X81879285Y-91570952D01*
X81903095Y-91618571D01*
X81903095Y-91809047D01*
X81688809Y-91332857D02*
X81665000Y-91309047D01*
X81641190Y-91261428D01*
X81641190Y-91142380D01*
X81665000Y-91094761D01*
X81688809Y-91070952D01*
X81736428Y-91047142D01*
X81784047Y-91047142D01*
X81855476Y-91070952D01*
X82141190Y-91356666D01*
X82141190Y-91047142D01*
%TO.C,R1*%
X81379190Y-91523333D02*
X81141095Y-91690000D01*
X81379190Y-91809047D02*
X80879190Y-91809047D01*
X80879190Y-91618571D01*
X80903000Y-91570952D01*
X80926809Y-91547142D01*
X80974428Y-91523333D01*
X81045857Y-91523333D01*
X81093476Y-91547142D01*
X81117285Y-91570952D01*
X81141095Y-91618571D01*
X81141095Y-91809047D01*
X81379190Y-91047142D02*
X81379190Y-91332857D01*
X81379190Y-91190000D02*
X80879190Y-91190000D01*
X80950619Y-91237619D01*
X80998238Y-91285238D01*
X81022047Y-91332857D01*
%TO.C,JP1*%
X79847333Y-80879190D02*
X79847333Y-81236333D01*
X79823523Y-81307761D01*
X79775904Y-81355380D01*
X79704476Y-81379190D01*
X79656857Y-81379190D01*
X80085428Y-81379190D02*
X80085428Y-80879190D01*
X80275904Y-80879190D01*
X80323523Y-80903000D01*
X80347333Y-80926809D01*
X80371142Y-80974428D01*
X80371142Y-81045857D01*
X80347333Y-81093476D01*
X80323523Y-81117285D01*
X80275904Y-81141095D01*
X80085428Y-81141095D01*
X80847333Y-81379190D02*
X80561619Y-81379190D01*
X80704476Y-81379190D02*
X80704476Y-80879190D01*
X80656857Y-80950619D01*
X80609238Y-80998238D01*
X80561619Y-81022047D01*
%TO.C,J1*%
X57130190Y-83986666D02*
X57487333Y-83986666D01*
X57558761Y-84010476D01*
X57606380Y-84058095D01*
X57630190Y-84129523D01*
X57630190Y-84177142D01*
X57630190Y-83486666D02*
X57630190Y-83772380D01*
X57630190Y-83629523D02*
X57130190Y-83629523D01*
X57201619Y-83677142D01*
X57249238Y-83724761D01*
X57273047Y-83772380D01*
%TO.C,D5*%
X72274952Y-78585190D02*
X72274952Y-78085190D01*
X72394000Y-78085190D01*
X72465428Y-78109000D01*
X72513047Y-78156619D01*
X72536857Y-78204238D01*
X72560666Y-78299476D01*
X72560666Y-78370904D01*
X72536857Y-78466142D01*
X72513047Y-78513761D01*
X72465428Y-78561380D01*
X72394000Y-78585190D01*
X72274952Y-78585190D01*
X73013047Y-78085190D02*
X72774952Y-78085190D01*
X72751142Y-78323285D01*
X72774952Y-78299476D01*
X72822571Y-78275666D01*
X72941619Y-78275666D01*
X72989238Y-78299476D01*
X73013047Y-78323285D01*
X73036857Y-78370904D01*
X73036857Y-78489952D01*
X73013047Y-78537571D01*
X72989238Y-78561380D01*
X72941619Y-78585190D01*
X72822571Y-78585190D01*
X72774952Y-78561380D01*
X72751142Y-78537571D01*
%TO.C,D4*%
X73290952Y-78585190D02*
X73290952Y-78085190D01*
X73410000Y-78085190D01*
X73481428Y-78109000D01*
X73529047Y-78156619D01*
X73552857Y-78204238D01*
X73576666Y-78299476D01*
X73576666Y-78370904D01*
X73552857Y-78466142D01*
X73529047Y-78513761D01*
X73481428Y-78561380D01*
X73410000Y-78585190D01*
X73290952Y-78585190D01*
X74005238Y-78251857D02*
X74005238Y-78585190D01*
X73886190Y-78061380D02*
X73767142Y-78418523D01*
X74076666Y-78418523D01*
%TO.C,D3*%
X71258952Y-76807190D02*
X71258952Y-76307190D01*
X71378000Y-76307190D01*
X71449428Y-76331000D01*
X71497047Y-76378619D01*
X71520857Y-76426238D01*
X71544666Y-76521476D01*
X71544666Y-76592904D01*
X71520857Y-76688142D01*
X71497047Y-76735761D01*
X71449428Y-76783380D01*
X71378000Y-76807190D01*
X71258952Y-76807190D01*
X71711333Y-76307190D02*
X72020857Y-76307190D01*
X71854190Y-76497666D01*
X71925619Y-76497666D01*
X71973238Y-76521476D01*
X71997047Y-76545285D01*
X72020857Y-76592904D01*
X72020857Y-76711952D01*
X71997047Y-76759571D01*
X71973238Y-76783380D01*
X71925619Y-76807190D01*
X71782761Y-76807190D01*
X71735142Y-76783380D01*
X71711333Y-76759571D01*
%TO.C,D2*%
X71258952Y-78585190D02*
X71258952Y-78085190D01*
X71378000Y-78085190D01*
X71449428Y-78109000D01*
X71497047Y-78156619D01*
X71520857Y-78204238D01*
X71544666Y-78299476D01*
X71544666Y-78370904D01*
X71520857Y-78466142D01*
X71497047Y-78513761D01*
X71449428Y-78561380D01*
X71378000Y-78585190D01*
X71258952Y-78585190D01*
X71735142Y-78132809D02*
X71758952Y-78109000D01*
X71806571Y-78085190D01*
X71925619Y-78085190D01*
X71973238Y-78109000D01*
X71997047Y-78132809D01*
X72020857Y-78180428D01*
X72020857Y-78228047D01*
X71997047Y-78299476D01*
X71711333Y-78585190D01*
X72020857Y-78585190D01*
%TO.C,D1*%
X71258952Y-77696190D02*
X71258952Y-77196190D01*
X71378000Y-77196190D01*
X71449428Y-77220000D01*
X71497047Y-77267619D01*
X71520857Y-77315238D01*
X71544666Y-77410476D01*
X71544666Y-77481904D01*
X71520857Y-77577142D01*
X71497047Y-77624761D01*
X71449428Y-77672380D01*
X71378000Y-77696190D01*
X71258952Y-77696190D01*
X72020857Y-77696190D02*
X71735142Y-77696190D01*
X71878000Y-77696190D02*
X71878000Y-77196190D01*
X71830380Y-77267619D01*
X71782761Y-77315238D01*
X71735142Y-77339047D01*
%TO.C,C15*%
X67234571Y-79823428D02*
X67258380Y-79847238D01*
X67282190Y-79918666D01*
X67282190Y-79966285D01*
X67258380Y-80037714D01*
X67210761Y-80085333D01*
X67163142Y-80109142D01*
X67067904Y-80132952D01*
X66996476Y-80132952D01*
X66901238Y-80109142D01*
X66853619Y-80085333D01*
X66806000Y-80037714D01*
X66782190Y-79966285D01*
X66782190Y-79918666D01*
X66806000Y-79847238D01*
X66829809Y-79823428D01*
X67282190Y-79347238D02*
X67282190Y-79632952D01*
X67282190Y-79490095D02*
X66782190Y-79490095D01*
X66853619Y-79537714D01*
X66901238Y-79585333D01*
X66925047Y-79632952D01*
X66782190Y-78894857D02*
X66782190Y-79132952D01*
X67020285Y-79156761D01*
X66996476Y-79132952D01*
X66972666Y-79085333D01*
X66972666Y-78966285D01*
X66996476Y-78918666D01*
X67020285Y-78894857D01*
X67067904Y-78871047D01*
X67186952Y-78871047D01*
X67234571Y-78894857D01*
X67258380Y-78918666D01*
X67282190Y-78966285D01*
X67282190Y-79085333D01*
X67258380Y-79132952D01*
X67234571Y-79156761D01*
%TO.C,C14*%
X57844571Y-76632571D02*
X57820761Y-76656380D01*
X57749333Y-76680190D01*
X57701714Y-76680190D01*
X57630285Y-76656380D01*
X57582666Y-76608761D01*
X57558857Y-76561142D01*
X57535047Y-76465904D01*
X57535047Y-76394476D01*
X57558857Y-76299238D01*
X57582666Y-76251619D01*
X57630285Y-76204000D01*
X57701714Y-76180190D01*
X57749333Y-76180190D01*
X57820761Y-76204000D01*
X57844571Y-76227809D01*
X58320761Y-76680190D02*
X58035047Y-76680190D01*
X58177904Y-76680190D02*
X58177904Y-76180190D01*
X58130285Y-76251619D01*
X58082666Y-76299238D01*
X58035047Y-76323047D01*
X58749333Y-76346857D02*
X58749333Y-76680190D01*
X58630285Y-76156380D02*
X58511238Y-76513523D01*
X58820761Y-76513523D01*
%TO.C,C13*%
X68250571Y-79823428D02*
X68274380Y-79847238D01*
X68298190Y-79918666D01*
X68298190Y-79966285D01*
X68274380Y-80037714D01*
X68226761Y-80085333D01*
X68179142Y-80109142D01*
X68083904Y-80132952D01*
X68012476Y-80132952D01*
X67917238Y-80109142D01*
X67869619Y-80085333D01*
X67822000Y-80037714D01*
X67798190Y-79966285D01*
X67798190Y-79918666D01*
X67822000Y-79847238D01*
X67845809Y-79823428D01*
X68298190Y-79347238D02*
X68298190Y-79632952D01*
X68298190Y-79490095D02*
X67798190Y-79490095D01*
X67869619Y-79537714D01*
X67917238Y-79585333D01*
X67941047Y-79632952D01*
X67798190Y-79180571D02*
X67798190Y-78871047D01*
X67988666Y-79037714D01*
X67988666Y-78966285D01*
X68012476Y-78918666D01*
X68036285Y-78894857D01*
X68083904Y-78871047D01*
X68202952Y-78871047D01*
X68250571Y-78894857D01*
X68274380Y-78918666D01*
X68298190Y-78966285D01*
X68298190Y-79109142D01*
X68274380Y-79156761D01*
X68250571Y-79180571D01*
%TO.C,C12*%
X61400571Y-77648571D02*
X61376761Y-77672380D01*
X61305333Y-77696190D01*
X61257714Y-77696190D01*
X61186285Y-77672380D01*
X61138666Y-77624761D01*
X61114857Y-77577142D01*
X61091047Y-77481904D01*
X61091047Y-77410476D01*
X61114857Y-77315238D01*
X61138666Y-77267619D01*
X61186285Y-77220000D01*
X61257714Y-77196190D01*
X61305333Y-77196190D01*
X61376761Y-77220000D01*
X61400571Y-77243809D01*
X61876761Y-77696190D02*
X61591047Y-77696190D01*
X61733904Y-77696190D02*
X61733904Y-77196190D01*
X61686285Y-77267619D01*
X61638666Y-77315238D01*
X61591047Y-77339047D01*
X62067238Y-77243809D02*
X62091047Y-77220000D01*
X62138666Y-77196190D01*
X62257714Y-77196190D01*
X62305333Y-77220000D01*
X62329142Y-77243809D01*
X62352952Y-77291428D01*
X62352952Y-77339047D01*
X62329142Y-77410476D01*
X62043428Y-77696190D01*
X62352952Y-77696190D01*
%TO.C,C11*%
X66218571Y-79823428D02*
X66242380Y-79847238D01*
X66266190Y-79918666D01*
X66266190Y-79966285D01*
X66242380Y-80037714D01*
X66194761Y-80085333D01*
X66147142Y-80109142D01*
X66051904Y-80132952D01*
X65980476Y-80132952D01*
X65885238Y-80109142D01*
X65837619Y-80085333D01*
X65790000Y-80037714D01*
X65766190Y-79966285D01*
X65766190Y-79918666D01*
X65790000Y-79847238D01*
X65813809Y-79823428D01*
X66266190Y-79347238D02*
X66266190Y-79632952D01*
X66266190Y-79490095D02*
X65766190Y-79490095D01*
X65837619Y-79537714D01*
X65885238Y-79585333D01*
X65909047Y-79632952D01*
X66266190Y-78871047D02*
X66266190Y-79156761D01*
X66266190Y-79013904D02*
X65766190Y-79013904D01*
X65837619Y-79061523D01*
X65885238Y-79109142D01*
X65909047Y-79156761D01*
%TO.C,C10*%
X84379571Y-91507428D02*
X84403380Y-91531238D01*
X84427190Y-91602666D01*
X84427190Y-91650285D01*
X84403380Y-91721714D01*
X84355761Y-91769333D01*
X84308142Y-91793142D01*
X84212904Y-91816952D01*
X84141476Y-91816952D01*
X84046238Y-91793142D01*
X83998619Y-91769333D01*
X83951000Y-91721714D01*
X83927190Y-91650285D01*
X83927190Y-91602666D01*
X83951000Y-91531238D01*
X83974809Y-91507428D01*
X84427190Y-91031238D02*
X84427190Y-91316952D01*
X84427190Y-91174095D02*
X83927190Y-91174095D01*
X83998619Y-91221714D01*
X84046238Y-91269333D01*
X84070047Y-91316952D01*
X83927190Y-90721714D02*
X83927190Y-90674095D01*
X83951000Y-90626476D01*
X83974809Y-90602666D01*
X84022428Y-90578857D01*
X84117666Y-90555047D01*
X84236714Y-90555047D01*
X84331952Y-90578857D01*
X84379571Y-90602666D01*
X84403380Y-90626476D01*
X84427190Y-90674095D01*
X84427190Y-90721714D01*
X84403380Y-90769333D01*
X84379571Y-90793142D01*
X84331952Y-90816952D01*
X84236714Y-90840761D01*
X84117666Y-90840761D01*
X84022428Y-90816952D01*
X83974809Y-90793142D01*
X83951000Y-90769333D01*
X83927190Y-90721714D01*
%TO.C,C8*%
X62789571Y-90761333D02*
X62813380Y-90785142D01*
X62837190Y-90856571D01*
X62837190Y-90904190D01*
X62813380Y-90975619D01*
X62765761Y-91023238D01*
X62718142Y-91047047D01*
X62622904Y-91070857D01*
X62551476Y-91070857D01*
X62456238Y-91047047D01*
X62408619Y-91023238D01*
X62361000Y-90975619D01*
X62337190Y-90904190D01*
X62337190Y-90856571D01*
X62361000Y-90785142D01*
X62384809Y-90761333D01*
X62551476Y-90475619D02*
X62527666Y-90523238D01*
X62503857Y-90547047D01*
X62456238Y-90570857D01*
X62432428Y-90570857D01*
X62384809Y-90547047D01*
X62361000Y-90523238D01*
X62337190Y-90475619D01*
X62337190Y-90380380D01*
X62361000Y-90332761D01*
X62384809Y-90308952D01*
X62432428Y-90285142D01*
X62456238Y-90285142D01*
X62503857Y-90308952D01*
X62527666Y-90332761D01*
X62551476Y-90380380D01*
X62551476Y-90475619D01*
X62575285Y-90523238D01*
X62599095Y-90547047D01*
X62646714Y-90570857D01*
X62741952Y-90570857D01*
X62789571Y-90547047D01*
X62813380Y-90523238D01*
X62837190Y-90475619D01*
X62837190Y-90380380D01*
X62813380Y-90332761D01*
X62789571Y-90308952D01*
X62741952Y-90285142D01*
X62646714Y-90285142D01*
X62599095Y-90308952D01*
X62575285Y-90332761D01*
X62551476Y-90380380D01*
%TO.C,C7*%
X79037666Y-82220571D02*
X79013857Y-82244380D01*
X78942428Y-82268190D01*
X78894809Y-82268190D01*
X78823380Y-82244380D01*
X78775761Y-82196761D01*
X78751952Y-82149142D01*
X78728142Y-82053904D01*
X78728142Y-81982476D01*
X78751952Y-81887238D01*
X78775761Y-81839619D01*
X78823380Y-81792000D01*
X78894809Y-81768190D01*
X78942428Y-81768190D01*
X79013857Y-81792000D01*
X79037666Y-81815809D01*
X79204333Y-81768190D02*
X79537666Y-81768190D01*
X79323380Y-82268190D01*
%TO.C,C6*%
X57328571Y-90761333D02*
X57352380Y-90785142D01*
X57376190Y-90856571D01*
X57376190Y-90904190D01*
X57352380Y-90975619D01*
X57304761Y-91023238D01*
X57257142Y-91047047D01*
X57161904Y-91070857D01*
X57090476Y-91070857D01*
X56995238Y-91047047D01*
X56947619Y-91023238D01*
X56900000Y-90975619D01*
X56876190Y-90904190D01*
X56876190Y-90856571D01*
X56900000Y-90785142D01*
X56923809Y-90761333D01*
X56876190Y-90332761D02*
X56876190Y-90428000D01*
X56900000Y-90475619D01*
X56923809Y-90499428D01*
X56995238Y-90547047D01*
X57090476Y-90570857D01*
X57280952Y-90570857D01*
X57328571Y-90547047D01*
X57352380Y-90523238D01*
X57376190Y-90475619D01*
X57376190Y-90380380D01*
X57352380Y-90332761D01*
X57328571Y-90308952D01*
X57280952Y-90285142D01*
X57161904Y-90285142D01*
X57114285Y-90308952D01*
X57090476Y-90332761D01*
X57066666Y-90380380D01*
X57066666Y-90475619D01*
X57090476Y-90523238D01*
X57114285Y-90547047D01*
X57161904Y-90570857D01*
%TO.C,C5*%
X79807571Y-91523333D02*
X79831380Y-91547142D01*
X79855190Y-91618571D01*
X79855190Y-91666190D01*
X79831380Y-91737619D01*
X79783761Y-91785238D01*
X79736142Y-91809047D01*
X79640904Y-91832857D01*
X79569476Y-91832857D01*
X79474238Y-91809047D01*
X79426619Y-91785238D01*
X79379000Y-91737619D01*
X79355190Y-91666190D01*
X79355190Y-91618571D01*
X79379000Y-91547142D01*
X79402809Y-91523333D01*
X79355190Y-91070952D02*
X79355190Y-91309047D01*
X79593285Y-91332857D01*
X79569476Y-91309047D01*
X79545666Y-91261428D01*
X79545666Y-91142380D01*
X79569476Y-91094761D01*
X79593285Y-91070952D01*
X79640904Y-91047142D01*
X79759952Y-91047142D01*
X79807571Y-91070952D01*
X79831380Y-91094761D01*
X79855190Y-91142380D01*
X79855190Y-91261428D01*
X79831380Y-91309047D01*
X79807571Y-91332857D01*
%TO.C,C4*%
X66972666Y-87300571D02*
X66948857Y-87324380D01*
X66877428Y-87348190D01*
X66829809Y-87348190D01*
X66758380Y-87324380D01*
X66710761Y-87276761D01*
X66686952Y-87229142D01*
X66663142Y-87133904D01*
X66663142Y-87062476D01*
X66686952Y-86967238D01*
X66710761Y-86919619D01*
X66758380Y-86872000D01*
X66829809Y-86848190D01*
X66877428Y-86848190D01*
X66948857Y-86872000D01*
X66972666Y-86895809D01*
X67401238Y-87014857D02*
X67401238Y-87348190D01*
X67282190Y-86824380D02*
X67163142Y-87181523D01*
X67472666Y-87181523D01*
%TO.C,C3*%
X69004666Y-76632571D02*
X68980857Y-76656380D01*
X68909428Y-76680190D01*
X68861809Y-76680190D01*
X68790380Y-76656380D01*
X68742761Y-76608761D01*
X68718952Y-76561142D01*
X68695142Y-76465904D01*
X68695142Y-76394476D01*
X68718952Y-76299238D01*
X68742761Y-76251619D01*
X68790380Y-76204000D01*
X68861809Y-76180190D01*
X68909428Y-76180190D01*
X68980857Y-76204000D01*
X69004666Y-76227809D01*
X69171333Y-76180190D02*
X69480857Y-76180190D01*
X69314190Y-76370666D01*
X69385619Y-76370666D01*
X69433238Y-76394476D01*
X69457047Y-76418285D01*
X69480857Y-76465904D01*
X69480857Y-76584952D01*
X69457047Y-76632571D01*
X69433238Y-76656380D01*
X69385619Y-76680190D01*
X69242761Y-76680190D01*
X69195142Y-76656380D01*
X69171333Y-76632571D01*
%TO.C,C2*%
X83617571Y-91523333D02*
X83641380Y-91547142D01*
X83665190Y-91618571D01*
X83665190Y-91666190D01*
X83641380Y-91737619D01*
X83593761Y-91785238D01*
X83546142Y-91809047D01*
X83450904Y-91832857D01*
X83379476Y-91832857D01*
X83284238Y-91809047D01*
X83236619Y-91785238D01*
X83189000Y-91737619D01*
X83165190Y-91666190D01*
X83165190Y-91618571D01*
X83189000Y-91547142D01*
X83212809Y-91523333D01*
X83212809Y-91332857D02*
X83189000Y-91309047D01*
X83165190Y-91261428D01*
X83165190Y-91142380D01*
X83189000Y-91094761D01*
X83212809Y-91070952D01*
X83260428Y-91047142D01*
X83308047Y-91047142D01*
X83379476Y-91070952D01*
X83665190Y-91356666D01*
X83665190Y-91047142D01*
%TO.C,C1*%
X82855571Y-91523333D02*
X82879380Y-91547142D01*
X82903190Y-91618571D01*
X82903190Y-91666190D01*
X82879380Y-91737619D01*
X82831761Y-91785238D01*
X82784142Y-91809047D01*
X82688904Y-91832857D01*
X82617476Y-91832857D01*
X82522238Y-91809047D01*
X82474619Y-91785238D01*
X82427000Y-91737619D01*
X82403190Y-91666190D01*
X82403190Y-91618571D01*
X82427000Y-91547142D01*
X82450809Y-91523333D01*
X82903190Y-91047142D02*
X82903190Y-91332857D01*
X82903190Y-91190000D02*
X82403190Y-91190000D01*
X82474619Y-91237619D01*
X82522238Y-91285238D01*
X82546047Y-91332857D01*
%TD*%
M02*
