%TF.GenerationSoftware,KiCad,Pcbnew,6.0.4-6f826c9f35~116~ubuntu21.10.1*%
%TF.CreationDate,2022-04-05T23:43:51+08:00*%
%TF.ProjectId,ST_Link_V2.1,53545f4c-696e-46b5-9f56-322e312e6b69,rev?*%
%TF.SameCoordinates,Original*%
%TF.FileFunction,Copper,L1,Top*%
%TF.FilePolarity,Positive*%
%FSLAX46Y46*%
G04 Gerber Fmt 4.6, Leading zero omitted, Abs format (unit mm)*
G04 Created by KiCad (PCBNEW 6.0.4-6f826c9f35~116~ubuntu21.10.1) date 2022-04-05 23:43:51*
%MOMM*%
%LPD*%
G01*
G04 APERTURE LIST*
G04 Aperture macros list*
%AMRoundRect*
0 Rectangle with rounded corners*
0 $1 Rounding radius*
0 $2 $3 $4 $5 $6 $7 $8 $9 X,Y pos of 4 corners*
0 Add a 4 corners polygon primitive as box body*
4,1,4,$2,$3,$4,$5,$6,$7,$8,$9,$2,$3,0*
0 Add four circle primitives for the rounded corners*
1,1,$1+$1,$2,$3*
1,1,$1+$1,$4,$5*
1,1,$1+$1,$6,$7*
1,1,$1+$1,$8,$9*
0 Add four rect primitives between the rounded corners*
20,1,$1+$1,$2,$3,$4,$5,0*
20,1,$1+$1,$4,$5,$6,$7,0*
20,1,$1+$1,$6,$7,$8,$9,0*
20,1,$1+$1,$8,$9,$2,$3,0*%
G04 Aperture macros list end*
%TA.AperFunction,SMDPad,CuDef*%
%ADD10RoundRect,0.140000X-0.170000X0.140000X-0.170000X-0.140000X0.170000X-0.140000X0.170000X0.140000X0*%
%TD*%
%TA.AperFunction,SMDPad,CuDef*%
%ADD11RoundRect,0.140000X0.170000X-0.140000X0.170000X0.140000X-0.170000X0.140000X-0.170000X-0.140000X0*%
%TD*%
%TA.AperFunction,SMDPad,CuDef*%
%ADD12RoundRect,0.140000X0.140000X0.170000X-0.140000X0.170000X-0.140000X-0.170000X0.140000X-0.170000X0*%
%TD*%
%TA.AperFunction,SMDPad,CuDef*%
%ADD13RoundRect,0.250000X0.250000X0.475000X-0.250000X0.475000X-0.250000X-0.475000X0.250000X-0.475000X0*%
%TD*%
%TA.AperFunction,SMDPad,CuDef*%
%ADD14RoundRect,0.249999X-0.325001X-0.650001X0.325001X-0.650001X0.325001X0.650001X-0.325001X0.650001X0*%
%TD*%
%TA.AperFunction,SMDPad,CuDef*%
%ADD15RoundRect,0.147500X-0.172500X0.147500X-0.172500X-0.147500X0.172500X-0.147500X0.172500X0.147500X0*%
%TD*%
%TA.AperFunction,SMDPad,CuDef*%
%ADD16RoundRect,0.147500X0.172500X-0.147500X0.172500X0.147500X-0.172500X0.147500X-0.172500X-0.147500X0*%
%TD*%
%TA.AperFunction,SMDPad,CuDef*%
%ADD17R,1.160000X0.600000*%
%TD*%
%TA.AperFunction,SMDPad,CuDef*%
%ADD18R,1.160000X0.300000*%
%TD*%
%TA.AperFunction,ComponentPad*%
%ADD19O,2.000000X0.900000*%
%TD*%
%TA.AperFunction,ComponentPad*%
%ADD20O,1.700000X0.900000*%
%TD*%
%TA.AperFunction,SMDPad,CuDef*%
%ADD21RoundRect,0.135000X-0.185000X0.135000X-0.185000X-0.135000X0.185000X-0.135000X0.185000X0.135000X0*%
%TD*%
%TA.AperFunction,SMDPad,CuDef*%
%ADD22RoundRect,0.135000X0.135000X0.185000X-0.135000X0.185000X-0.135000X-0.185000X0.135000X-0.185000X0*%
%TD*%
%TA.AperFunction,SMDPad,CuDef*%
%ADD23RoundRect,0.135000X-0.135000X-0.185000X0.135000X-0.185000X0.135000X0.185000X-0.135000X0.185000X0*%
%TD*%
%TA.AperFunction,SMDPad,CuDef*%
%ADD24RoundRect,0.135000X0.185000X-0.135000X0.185000X0.135000X-0.185000X0.135000X-0.185000X-0.135000X0*%
%TD*%
%TA.AperFunction,SMDPad,CuDef*%
%ADD25O,0.280000X1.800000*%
%TD*%
%TA.AperFunction,SMDPad,CuDef*%
%ADD26O,1.800000X0.280000*%
%TD*%
%TA.AperFunction,ComponentPad*%
%ADD27R,1.700000X1.700000*%
%TD*%
%TA.AperFunction,ComponentPad*%
%ADD28O,1.700000X1.700000*%
%TD*%
%TA.AperFunction,ViaPad*%
%ADD29C,0.600000*%
%TD*%
%TA.AperFunction,Conductor*%
%ADD30C,0.254000*%
%TD*%
%TA.AperFunction,Conductor*%
%ADD31C,0.400000*%
%TD*%
%TA.AperFunction,Conductor*%
%ADD32C,0.250000*%
%TD*%
G04 APERTURE END LIST*
D10*
%TO.P,C1,1*%
%TO.N,/OSC_IN*%
X72136000Y-90198000D03*
%TO.P,C1,2*%
%TO.N,GND*%
X72136000Y-91158000D03*
%TD*%
%TO.P,C2,1*%
%TO.N,/OSC_OUT*%
X73152000Y-90198000D03*
%TO.P,C2,2*%
%TO.N,GND*%
X73152000Y-91158000D03*
%TD*%
D11*
%TO.P,C3,1*%
%TO.N,+3V3*%
X69088000Y-78204000D03*
%TO.P,C3,2*%
%TO.N,GND*%
X69088000Y-77244000D03*
%TD*%
D12*
%TO.P,C4,1*%
%TO.N,+3V3*%
X66012000Y-87122000D03*
%TO.P,C4,2*%
%TO.N,GND*%
X65052000Y-87122000D03*
%TD*%
D10*
%TO.P,C5,1*%
%TO.N,+3V3*%
X68072000Y-90198000D03*
%TO.P,C5,2*%
%TO.N,GND*%
X68072000Y-91158000D03*
%TD*%
D13*
%TO.P,C6,1*%
%TO.N,+5V*%
X60132000Y-90678000D03*
%TO.P,C6,2*%
%TO.N,GND*%
X58232000Y-90678000D03*
%TD*%
D11*
%TO.P,C7,1*%
%TO.N,+3V3*%
X77470000Y-79982000D03*
%TO.P,C7,2*%
%TO.N,GND*%
X77470000Y-79022000D03*
%TD*%
%TO.P,C8,1*%
%TO.N,+5V*%
X61722000Y-91158000D03*
%TO.P,C8,2*%
%TO.N,GND*%
X61722000Y-90198000D03*
%TD*%
D10*
%TO.P,C10,1*%
%TO.N,/RST*%
X74168000Y-90198000D03*
%TO.P,C10,2*%
%TO.N,GND*%
X74168000Y-91158000D03*
%TD*%
D11*
%TO.P,C11,1*%
%TO.N,Net-(C11-Pad1)*%
X66040000Y-78204000D03*
%TO.P,C11,2*%
%TO.N,GND*%
X66040000Y-77244000D03*
%TD*%
D14*
%TO.P,C12,1*%
%TO.N,+3.3VA*%
X60247000Y-77470000D03*
%TO.P,C12,2*%
%TO.N,GND*%
X63197000Y-77470000D03*
%TD*%
D11*
%TO.P,C13,1*%
%TO.N,+3V3*%
X68072000Y-78204000D03*
%TO.P,C13,2*%
%TO.N,GND*%
X68072000Y-77244000D03*
%TD*%
D12*
%TO.P,C14,1*%
%TO.N,+3.3VA*%
X58646000Y-77470000D03*
%TO.P,C14,2*%
%TO.N,GND*%
X57686000Y-77470000D03*
%TD*%
D11*
%TO.P,C15,1*%
%TO.N,+3V3*%
X67056000Y-78204000D03*
%TO.P,C15,2*%
%TO.N,GND*%
X67056000Y-77244000D03*
%TD*%
D15*
%TO.P,D1,1,K*%
%TO.N,GND*%
X73660000Y-76477000D03*
%TO.P,D1,2,A*%
%TO.N,Net-(D1-Pad2)*%
X73660000Y-77447000D03*
%TD*%
D16*
%TO.P,D2,1,K*%
%TO.N,Net-(D2-Pad1)*%
X74676000Y-77447000D03*
%TO.P,D2,2,A*%
%TO.N,+3V3*%
X74676000Y-76477000D03*
%TD*%
D15*
%TO.P,D3,1,K*%
%TO.N,GND*%
X72644000Y-76477000D03*
%TO.P,D3,2,A*%
%TO.N,Net-(D3-Pad2)*%
X72644000Y-77447000D03*
%TD*%
D16*
%TO.P,D4,1,K*%
%TO.N,Net-(D4-Pad1)*%
X76708000Y-77447000D03*
%TO.P,D4,2,A*%
%TO.N,+3V3*%
X76708000Y-76477000D03*
%TD*%
%TO.P,D5,1,K*%
%TO.N,Net-(D5-Pad1)*%
X75692000Y-77447000D03*
%TO.P,D5,2,A*%
%TO.N,+3V3*%
X75692000Y-76477000D03*
%TD*%
D17*
%TO.P,J1,A1,GND*%
%TO.N,GND*%
X63470000Y-80874000D03*
%TO.P,J1,A4,VBUS*%
%TO.N,Net-(F1-Pad2)*%
X63470000Y-81674000D03*
D18*
%TO.P,J1,A5,CC1*%
%TO.N,Net-(J1-PadA5)*%
X63470000Y-82824000D03*
%TO.P,J1,A6,D+*%
%TO.N,/USB_RENUM*%
X63470000Y-83824000D03*
%TO.P,J1,A7,D-*%
%TO.N,Net-(J1-PadA7)*%
X63470000Y-84324000D03*
%TO.P,J1,A8,SBU1*%
%TO.N,unconnected-(J1-PadA8)*%
X63470000Y-85324000D03*
D17*
%TO.P,J1,A9,VBUS*%
%TO.N,Net-(F1-Pad2)*%
X63470000Y-86474000D03*
%TO.P,J1,A12,GND*%
%TO.N,GND*%
X63470000Y-87274000D03*
%TO.P,J1,B1,GND*%
X63470000Y-87274000D03*
%TO.P,J1,B4,VBUS*%
%TO.N,Net-(F1-Pad2)*%
X63470000Y-86474000D03*
D18*
%TO.P,J1,B5,CC2*%
%TO.N,Net-(J1-PadB5)*%
X63470000Y-85824000D03*
%TO.P,J1,B6,D+*%
%TO.N,/USB_RENUM*%
X63470000Y-84824000D03*
%TO.P,J1,B7,D-*%
%TO.N,Net-(J1-PadA7)*%
X63470000Y-83324000D03*
%TO.P,J1,B8,SBU2*%
%TO.N,unconnected-(J1-PadB8)*%
X63470000Y-82324000D03*
D17*
%TO.P,J1,B9,VBUS*%
%TO.N,Net-(F1-Pad2)*%
X63470000Y-81674000D03*
%TO.P,J1,B12,GND*%
%TO.N,GND*%
X63470000Y-80874000D03*
D19*
%TO.P,J1,S1,SHIELD*%
X62890000Y-79754000D03*
X62890000Y-88394000D03*
D20*
X58720000Y-79754000D03*
X58720000Y-88394000D03*
%TD*%
D21*
%TO.P,R1,1*%
%TO.N,Net-(R1-Pad1)*%
X70104000Y-90168000D03*
%TO.P,R1,2*%
%TO.N,GND*%
X70104000Y-91188000D03*
%TD*%
%TO.P,R2,1*%
%TO.N,Net-(R2-Pad1)*%
X71120000Y-90168000D03*
%TO.P,R2,2*%
%TO.N,GND*%
X71120000Y-91188000D03*
%TD*%
D22*
%TO.P,R3,1*%
%TO.N,GND*%
X66042000Y-82042000D03*
%TO.P,R3,2*%
%TO.N,Net-(J1-PadA5)*%
X65022000Y-82042000D03*
%TD*%
%TO.P,R4,1*%
%TO.N,GND*%
X66042000Y-86106000D03*
%TO.P,R4,2*%
%TO.N,Net-(J1-PadB5)*%
X65022000Y-86106000D03*
%TD*%
%TO.P,R5,1*%
%TO.N,/MCU_USB_D-*%
X66042000Y-83058000D03*
%TO.P,R5,2*%
%TO.N,Net-(J1-PadA7)*%
X65022000Y-83058000D03*
%TD*%
%TO.P,R6,1*%
%TO.N,/MCU_USB_D+*%
X66042000Y-85090000D03*
%TO.P,R6,2*%
%TO.N,/USB_RENUM*%
X65022000Y-85090000D03*
%TD*%
%TO.P,R7,1*%
%TO.N,/SWDIO*%
X76202000Y-78486000D03*
%TO.P,R7,2*%
%TO.N,Net-(R7-Pad2)*%
X75182000Y-78486000D03*
%TD*%
D23*
%TO.P,R8,1*%
%TO.N,Net-(Q1-Pad1)*%
X65530000Y-90678000D03*
%TO.P,R8,2*%
%TO.N,/MCU_USB_RENUM*%
X66550000Y-90678000D03*
%TD*%
D22*
%TO.P,R10,1*%
%TO.N,Net-(Q1-Pad1)*%
X64518000Y-90678000D03*
%TO.P,R10,2*%
%TO.N,GND*%
X63498000Y-90678000D03*
%TD*%
%TO.P,R11,1*%
%TO.N,Net-(Q1-Pad2)*%
X66042000Y-84074000D03*
%TO.P,R11,2*%
%TO.N,/USB_RENUM*%
X65022000Y-84074000D03*
%TD*%
D24*
%TO.P,R12,1*%
%TO.N,+3V3*%
X76200000Y-91188000D03*
%TO.P,R12,2*%
%TO.N,/PA0*%
X76200000Y-90168000D03*
%TD*%
D21*
%TO.P,R13,1*%
%TO.N,/PA0*%
X77216000Y-90168000D03*
%TO.P,R13,2*%
%TO.N,GND*%
X77216000Y-91188000D03*
%TD*%
%TO.P,R19,1*%
%TO.N,/RST*%
X75184000Y-90168000D03*
%TO.P,R19,2*%
%TO.N,+3V3*%
X75184000Y-91188000D03*
%TD*%
D24*
%TO.P,R20,1*%
%TO.N,GND*%
X69087001Y-91188000D03*
%TO.P,R20,2*%
%TO.N,/BOOT0*%
X69087001Y-90168000D03*
%TD*%
%TO.P,R21,1*%
%TO.N,GND*%
X78232000Y-91188000D03*
%TO.P,R21,2*%
%TO.N,/BOOT1*%
X78232000Y-90168000D03*
%TD*%
D25*
%TO.P,U1,1,VBAT*%
%TO.N,+3V3*%
X70656000Y-88124000D03*
%TO.P,U1,2,PC13-TAMPER-RTC*%
%TO.N,Net-(R1-Pad1)*%
X71156000Y-88124000D03*
%TO.P,U1,3,PC14-OSC32_IN*%
%TO.N,Net-(R2-Pad1)*%
X71656000Y-88124000D03*
%TO.P,U1,4,PC15-OSC32_OUT*%
%TO.N,unconnected-(U1-Pad4)*%
X72156000Y-88124000D03*
%TO.P,U1,5,PD0-OSC_IN*%
%TO.N,/OSC_IN*%
X72656000Y-88124000D03*
%TO.P,U1,6,PD1*%
%TO.N,/OSC_OUT*%
X73156000Y-88124000D03*
%TO.P,U1,7,NRST*%
%TO.N,/RST*%
X73656000Y-88124000D03*
%TO.P,U1,8,VSSA*%
%TO.N,GND*%
X74156000Y-88124000D03*
%TO.P,U1,9,VDDA*%
%TO.N,+3V3*%
X74656000Y-88124000D03*
%TO.P,U1,10,PA0-WKUP*%
%TO.N,/PA0*%
X75156000Y-88124000D03*
%TO.P,U1,11,PA1*%
%TO.N,unconnected-(U1-Pad11)*%
X75656000Y-88124000D03*
%TO.P,U1,12,PA2*%
%TO.N,/TX*%
X76156000Y-88124000D03*
D26*
%TO.P,U1,13,PA3*%
%TO.N,/RX*%
X77456000Y-86824000D03*
%TO.P,U1,14,PA4*%
%TO.N,unconnected-(U1-Pad14)*%
X77456000Y-86324000D03*
%TO.P,U1,15,PA5*%
%TO.N,/SWCLK*%
X77456000Y-85824000D03*
%TO.P,U1,16,PA6*%
%TO.N,unconnected-(U1-Pad16)*%
X77456000Y-85324000D03*
%TO.P,U1,17,PA7*%
%TO.N,unconnected-(U1-Pad17)*%
X77456000Y-84824000D03*
%TO.P,U1,18,PB0*%
%TO.N,/RESET*%
X77456000Y-84324000D03*
%TO.P,U1,19,PB1*%
%TO.N,unconnected-(U1-Pad19)*%
X77456000Y-83824000D03*
%TO.P,U1,20,PB2*%
%TO.N,/BOOT1*%
X77456000Y-83324000D03*
%TO.P,U1,21,PB10*%
%TO.N,GND*%
X77456000Y-82824000D03*
%TO.P,U1,22,PB11*%
%TO.N,unconnected-(U1-Pad22)*%
X77456000Y-82324000D03*
%TO.P,U1,23,VSS_1*%
%TO.N,GND*%
X77456000Y-81824000D03*
%TO.P,U1,24,VDD_1*%
%TO.N,+3V3*%
X77456000Y-81324000D03*
D25*
%TO.P,U1,25,PB12*%
%TO.N,/SWDIO*%
X76156000Y-80024000D03*
%TO.P,U1,26,PB13*%
%TO.N,/SWCLK*%
X75656000Y-80024000D03*
%TO.P,U1,27,PB14*%
%TO.N,Net-(R7-Pad2)*%
X75156000Y-80024000D03*
%TO.P,U1,28,PB15*%
%TO.N,unconnected-(U1-Pad28)*%
X74656000Y-80024000D03*
%TO.P,U1,29,PA8*%
%TO.N,unconnected-(U1-Pad29)*%
X74156000Y-80024000D03*
%TO.P,U1,30,PA9*%
%TO.N,/LED_LINK*%
X73656000Y-80024000D03*
%TO.P,U1,31,PA10*%
%TO.N,/SWIN*%
X73156000Y-80024000D03*
%TO.P,U1,32,PA11*%
%TO.N,/MCU_USB_D-*%
X72656000Y-80024000D03*
%TO.P,U1,33,PA12*%
%TO.N,/MCU_USB_D+*%
X72156000Y-80024000D03*
%TO.P,U1,34,PA13*%
%TO.N,/MCU_SWDIO*%
X71656000Y-80024000D03*
%TO.P,U1,35,VSS_2*%
%TO.N,GND*%
X71156000Y-80024000D03*
%TO.P,U1,36,VDD_2*%
%TO.N,+3V3*%
X70656000Y-80024000D03*
D26*
%TO.P,U1,37,PA14*%
%TO.N,/MCU_SWCLK*%
X69356000Y-81324000D03*
%TO.P,U1,38,PA15*%
%TO.N,/MCU_USB_RENUM*%
X69356000Y-81824000D03*
%TO.P,U1,39,PB3*%
%TO.N,unconnected-(U1-Pad39)*%
X69356000Y-82324000D03*
%TO.P,U1,40,PB4*%
%TO.N,unconnected-(U1-Pad40)*%
X69356000Y-82824000D03*
%TO.P,U1,41,PB5*%
%TO.N,unconnected-(U1-Pad41)*%
X69356000Y-83324000D03*
%TO.P,U1,42,PB6*%
%TO.N,unconnected-(U1-Pad42)*%
X69356000Y-83824000D03*
%TO.P,U1,43,PB7*%
%TO.N,unconnected-(U1-Pad43)*%
X69356000Y-84324000D03*
%TO.P,U1,44,BOOT0*%
%TO.N,/BOOT0*%
X69356000Y-84824000D03*
%TO.P,U1,45,PB8*%
%TO.N,unconnected-(U1-Pad45)*%
X69356000Y-85324000D03*
%TO.P,U1,46,PB9*%
%TO.N,unconnected-(U1-Pad46)*%
X69356000Y-85824000D03*
%TO.P,U1,47,VSS_3*%
%TO.N,GND*%
X69356000Y-86324000D03*
%TO.P,U1,48,VDD_3*%
%TO.N,+3V3*%
X69356000Y-86824000D03*
%TD*%
D27*
%TO.P,J3,1,Pin_1*%
%TO.N,+5V*%
X82042000Y-78994000D03*
D28*
%TO.P,J3,2,Pin_2*%
%TO.N,+3.3VA*%
X82042000Y-81534000D03*
%TO.P,J3,3,Pin_3*%
%TO.N,/TX*%
X82042000Y-84074000D03*
%TO.P,J3,4,Pin_4*%
%TO.N,/RX*%
X82042000Y-86614000D03*
%TO.P,J3,5,Pin_5*%
%TO.N,GND*%
X82042000Y-89154000D03*
%TO.P,J3,6,Pin_6*%
%TO.N,+5V*%
X84582000Y-78994000D03*
%TO.P,J3,7,Pin_7*%
%TO.N,+3.3VA*%
X84582000Y-81534000D03*
%TO.P,J3,8,Pin_8*%
%TO.N,/SWIN*%
X84582000Y-84074000D03*
%TO.P,J3,9,Pin_9*%
%TO.N,/RESET*%
X84582000Y-86614000D03*
%TO.P,J3,10,Pin_10*%
%TO.N,GND*%
X84582000Y-89154000D03*
%TO.P,J3,11,Pin_11*%
%TO.N,+5V*%
X87122000Y-78994000D03*
%TO.P,J3,12,Pin_12*%
%TO.N,+3.3VA*%
X87122000Y-81534000D03*
%TO.P,J3,13,Pin_13*%
%TO.N,/SWDIO*%
X87122000Y-84074000D03*
%TO.P,J3,14,Pin_14*%
%TO.N,/SWCLK*%
X87122000Y-86614000D03*
%TO.P,J3,15,Pin_15*%
%TO.N,GND*%
X87122000Y-89154000D03*
%TD*%
D27*
%TO.P,J2,1,Pin_1*%
%TO.N,/MCU_SWDIO*%
X89662000Y-81534000D03*
D28*
%TO.P,J2,2,Pin_2*%
%TO.N,/MCU_SWCLK*%
X89662000Y-84074000D03*
%TO.P,J2,3,Pin_3*%
%TO.N,GND*%
X89662000Y-86614000D03*
%TD*%
D29*
%TO.N,GND*%
X79850000Y-84190000D03*
X73660000Y-83058000D03*
X74041000Y-84709000D03*
X61976000Y-84963000D03*
X70866000Y-78232000D03*
X70866000Y-83439000D03*
X73533000Y-86487000D03*
%TO.N,/OSC_IN*%
X72136000Y-90198000D03*
%TO.N,/OSC_OUT*%
X73152000Y-90198000D03*
%TO.N,+3V3*%
X72644000Y-78486000D03*
X78994000Y-77343000D03*
X68326000Y-89662000D03*
X66738500Y-79184500D03*
X75690000Y-91188000D03*
%TO.N,+5V*%
X60119500Y-90678000D03*
%TO.N,Net-(C11-Pad1)*%
X65659000Y-79438500D03*
%TO.N,Net-(D1-Pad2)*%
X73660000Y-77470000D03*
%TO.N,Net-(D2-Pad1)*%
X74676000Y-77470000D03*
%TO.N,Net-(D3-Pad2)*%
X72644000Y-77470000D03*
%TO.N,Net-(D4-Pad1)*%
X76708000Y-77470000D03*
%TO.N,Net-(D5-Pad1)*%
X75692000Y-77470000D03*
%TO.N,Net-(F1-Pad2)*%
X59360000Y-89610000D03*
%TO.N,/MCU_SWCLK*%
X69342000Y-80391000D03*
%TO.N,/MCU_SWDIO*%
X71755000Y-78486000D03*
%TO.N,/RX*%
X79121000Y-86824820D03*
%TO.N,/RESET*%
X75819000Y-84328000D03*
%TO.N,/SWIN*%
X73914000Y-81788000D03*
%TO.N,/SWCLK*%
X75057000Y-81534000D03*
X75819000Y-85598000D03*
%TO.N,/SWDIO*%
X74422000Y-82677000D03*
%TO.N,Net-(Q1-Pad2)*%
X67056000Y-84074000D03*
%TO.N,Net-(Q1-Pad1)*%
X65020000Y-89880000D03*
%TO.N,/MCU_USB_D-*%
X67056000Y-83058000D03*
X73025000Y-82423000D03*
%TO.N,/MCU_USB_D+*%
X72390000Y-81788000D03*
X67056000Y-85090000D03*
%TO.N,/MCU_USB_RENUM*%
X67056000Y-89662000D03*
X67818000Y-81788000D03*
%TO.N,/LED_LINK*%
X73660000Y-78486000D03*
%TO.N,/BOOT0*%
X71374000Y-84074000D03*
X69850000Y-89154000D03*
%TO.N,/BOOT1*%
X78232000Y-90170000D03*
X76022200Y-83324700D03*
%TO.N,+3.3VA*%
X59436000Y-77470000D03*
%TD*%
D30*
%TO.N,Net-(F1-Pad2)*%
X63470000Y-81674000D02*
X63296511Y-81847489D01*
X63296511Y-81847489D02*
X62563489Y-81847489D01*
X62563489Y-81847489D02*
X60960000Y-83450978D01*
X60960000Y-83450978D02*
X60960000Y-88011000D01*
X60960000Y-88011000D02*
X59351000Y-89620000D01*
X63470000Y-86474000D02*
X62927489Y-86474000D01*
X62927489Y-86474000D02*
X62563489Y-86110000D01*
X62563489Y-86110000D02*
X60970000Y-86110000D01*
%TO.N,+3V3*%
X78994000Y-77343000D02*
X78994000Y-77806000D01*
X78994000Y-77806000D02*
X78700000Y-78100000D01*
X78700000Y-78100000D02*
X77300000Y-78100000D01*
X77300000Y-78100000D02*
X76800000Y-78600000D01*
X76800000Y-78600000D02*
X76800000Y-79321758D01*
X76800000Y-79321758D02*
X77460242Y-79982000D01*
X77460242Y-79982000D02*
X77470000Y-79982000D01*
X76708000Y-76642000D02*
X78293000Y-76642000D01*
X78293000Y-76642000D02*
X78994000Y-77343000D01*
%TO.N,/TX*%
X76156000Y-88124000D02*
X78944500Y-88124000D01*
X78944500Y-88124000D02*
X80200500Y-86868000D01*
X80200500Y-86868000D02*
X80200500Y-85915500D01*
X80200500Y-85915500D02*
X82042000Y-84074000D01*
D31*
%TO.N,Net-(Q1-Pad1)*%
X64518000Y-90678000D02*
X64962000Y-90678000D01*
X64962000Y-90678000D02*
X65530000Y-90678000D01*
D32*
X65020000Y-89880000D02*
X65020000Y-90620000D01*
X65020000Y-90620000D02*
X64962000Y-90678000D01*
D30*
%TO.N,Net-(J1-PadA7)*%
X63470000Y-83324000D02*
X62636000Y-83324000D01*
X62380000Y-83580000D02*
X62380000Y-84052602D01*
X62636000Y-83324000D02*
X62380000Y-83580000D01*
X62651398Y-84324000D02*
X63470000Y-84324000D01*
X62380000Y-84052602D02*
X62651398Y-84324000D01*
%TO.N,+3V3*%
X70656000Y-80024000D02*
X70104000Y-80024000D01*
X69088000Y-79008000D02*
X69088000Y-78204000D01*
X70104000Y-80024000D02*
X69088000Y-79008000D01*
X69088000Y-78204000D02*
X69097758Y-78204000D01*
X69097758Y-78204000D02*
X69711758Y-77590000D01*
X69711758Y-77590000D02*
X71748000Y-77590000D01*
X71748000Y-77590000D02*
X72644000Y-78486000D01*
%TO.N,Net-(J1-PadA5)*%
X65020000Y-82040000D02*
X64610000Y-82040000D01*
X65022000Y-82042000D02*
X65020000Y-82040000D01*
X64502000Y-82562000D02*
X64262999Y-82801001D01*
X64610000Y-82040000D02*
X64502000Y-82148000D01*
X64502000Y-82148000D02*
X64502000Y-82562000D01*
%TO.N,Net-(J1-PadA7)*%
X65022000Y-83058000D02*
X64992313Y-83087687D01*
X64992313Y-83087687D02*
X64617687Y-83087687D01*
%TO.N,/USB_RENUM*%
X64294000Y-83824000D02*
X64505000Y-84035000D01*
X65022000Y-84074000D02*
X64983000Y-84035000D01*
X64983000Y-84035000D02*
X64505000Y-84035000D01*
%TO.N,Net-(J1-PadA7)*%
X64381374Y-83324000D02*
X64617687Y-83087687D01*
X63470000Y-83324000D02*
X64381374Y-83324000D01*
%TO.N,/USB_RENUM*%
X63470000Y-83824000D02*
X64294000Y-83824000D01*
X64224000Y-84824000D02*
X64510000Y-85110000D01*
X63470000Y-84824000D02*
X64224000Y-84824000D01*
X64510000Y-85110000D02*
X65002000Y-85110000D01*
X65002000Y-85110000D02*
X65022000Y-85090000D01*
%TO.N,+3V3*%
X69356000Y-86824000D02*
X67596000Y-86824000D01*
X66012000Y-87122000D02*
X67298000Y-87122000D01*
X67298000Y-87122000D02*
X67596000Y-86824000D01*
%TO.N,GND*%
X66260000Y-86324000D02*
X66042000Y-86106000D01*
D32*
X70866000Y-78584000D02*
X71156000Y-78874000D01*
D30*
X74676000Y-84074000D02*
X74676000Y-83683549D01*
X74156000Y-87110000D02*
X74156000Y-88124000D01*
X77456000Y-82815400D02*
X77456000Y-82824000D01*
X74041000Y-84709000D02*
X74676000Y-84074000D01*
X76535549Y-81824000D02*
X74676000Y-83683549D01*
D32*
X70866000Y-78232000D02*
X70866000Y-78584000D01*
D30*
X77456000Y-81824000D02*
X76535549Y-81824000D01*
X73533000Y-86487000D02*
X74156000Y-87110000D01*
D32*
X71156000Y-78874000D02*
X71156000Y-80024000D01*
D30*
X69356000Y-86324000D02*
X66260000Y-86324000D01*
D31*
%TO.N,/OSC_IN*%
X72136000Y-90198000D02*
X72136000Y-90170000D01*
D30*
X72656000Y-88124000D02*
X72656000Y-89678000D01*
X72656000Y-89678000D02*
X72136000Y-90198000D01*
D31*
X72136000Y-90198000D02*
X72136000Y-90198000D01*
%TO.N,/OSC_OUT*%
X73152000Y-90198000D02*
X73152000Y-90198000D01*
D30*
X73152000Y-88128000D02*
X73156000Y-88124000D01*
X73152000Y-90198000D02*
X73152000Y-88128000D01*
D31*
%TO.N,+3V3*%
X75690000Y-91188000D02*
X76200000Y-91188000D01*
D30*
X70146000Y-88124000D02*
X70656000Y-88124000D01*
X70656000Y-88124000D02*
X70656000Y-86887500D01*
D31*
X67056000Y-78867000D02*
X66738500Y-79184500D01*
D30*
X70719500Y-86824000D02*
X71457000Y-86824000D01*
X69864000Y-88124000D02*
X70146000Y-88124000D01*
D32*
X74656000Y-87038500D02*
X74656000Y-86340000D01*
D30*
X69356000Y-86824000D02*
X70568000Y-86824000D01*
X70656000Y-82086000D02*
X72001001Y-83431001D01*
X68072000Y-90198000D02*
X68072000Y-89916000D01*
D31*
X67056000Y-78204000D02*
X67056000Y-78867000D01*
D30*
X68072000Y-89916000D02*
X68326000Y-89662000D01*
X72001001Y-83431001D02*
X72001001Y-85624999D01*
D32*
X72001001Y-85717001D02*
X72001001Y-86279999D01*
D30*
X77456000Y-81324000D02*
X77456000Y-79996000D01*
X68326000Y-89662000D02*
X69864000Y-88124000D01*
D32*
X72001001Y-86279999D02*
X71928999Y-86352001D01*
D31*
X67056000Y-78204000D02*
X69088000Y-78204000D01*
D30*
X70656000Y-80024000D02*
X70656000Y-82086000D01*
D32*
X74033001Y-85717001D02*
X72001001Y-85717001D01*
D30*
X70656000Y-86887500D02*
X70719500Y-86824000D01*
D32*
X74656000Y-86340000D02*
X74033001Y-85717001D01*
D31*
X75184000Y-91188000D02*
X75690000Y-91188000D01*
X74676000Y-76477000D02*
X76708000Y-76477000D01*
D30*
X70568000Y-86824000D02*
X70719500Y-86824000D01*
D32*
X71928999Y-86352001D02*
X71457000Y-86824000D01*
D30*
X74656000Y-87038500D02*
X74656000Y-88124000D01*
X72001001Y-85624999D02*
X72001001Y-85717001D01*
X77456000Y-79996000D02*
X77470000Y-79982000D01*
D31*
%TO.N,+5V*%
X60612000Y-91158000D02*
X61722000Y-91158000D01*
X60132000Y-90678000D02*
X60612000Y-91158000D01*
D30*
%TO.N,/RST*%
X74168000Y-90198000D02*
X75154000Y-90198000D01*
X73656000Y-89686000D02*
X73656000Y-88124000D01*
X75154000Y-90198000D02*
X75184000Y-90168000D01*
D31*
X75154000Y-90168000D02*
X75184000Y-90198000D01*
D30*
X74168000Y-90198000D02*
X73656000Y-89686000D01*
D31*
%TO.N,Net-(C11-Pad1)*%
X65659000Y-78585000D02*
X66040000Y-78204000D01*
X65659000Y-79438500D02*
X65659000Y-78585000D01*
D30*
%TO.N,Net-(J1-PadB5)*%
X64740000Y-85824000D02*
X63470000Y-85824000D01*
X65022000Y-86106000D02*
X64740000Y-85824000D01*
%TO.N,/USB_RENUM*%
X65022000Y-85090000D02*
X65022000Y-84074000D01*
%TO.N,Net-(J1-PadA5)*%
X64262999Y-82801001D02*
X63692305Y-82801001D01*
%TO.N,/MCU_SWCLK*%
X69342000Y-80391000D02*
X69342000Y-81310000D01*
X69342000Y-81310000D02*
X69356000Y-81324000D01*
%TO.N,/MCU_SWDIO*%
X71656000Y-78585000D02*
X71755000Y-78486000D01*
X71656000Y-80024000D02*
X71656000Y-78585000D01*
%TO.N,/RX*%
X77456000Y-86824000D02*
X79120180Y-86824000D01*
D31*
X81832000Y-86824000D02*
X82042000Y-86614000D01*
D30*
X79120180Y-86824000D02*
X79121000Y-86824820D01*
%TO.N,/RESET*%
X77456000Y-84324000D02*
X75823000Y-84324000D01*
X75823000Y-84324000D02*
X75819000Y-84328000D01*
%TO.N,/SWIN*%
X73156000Y-80944451D02*
X73914000Y-81702451D01*
X73914000Y-81702451D02*
X73914000Y-81788000D01*
X73156000Y-80024000D02*
X73156000Y-80944451D01*
%TO.N,/SWCLK*%
X75656000Y-80944451D02*
X75066451Y-81534000D01*
X76045000Y-85824000D02*
X75819000Y-85598000D01*
X75656000Y-80024000D02*
X75656000Y-80944451D01*
X77456000Y-85824000D02*
X76045000Y-85824000D01*
X75066451Y-81534000D02*
X75057000Y-81534000D01*
%TO.N,/SWDIO*%
X76156000Y-80024000D02*
X76156000Y-78532000D01*
X75774981Y-81743981D02*
X75095962Y-82423000D01*
X74422000Y-82677000D02*
X74841962Y-82677000D01*
X76156000Y-80024000D02*
X76156000Y-81362962D01*
X74841962Y-82677000D02*
X75774981Y-81743981D01*
X76156000Y-78532000D02*
X76202000Y-78486000D01*
X76156000Y-81362962D02*
X75774981Y-81743981D01*
%TO.N,Net-(Q1-Pad2)*%
X67056000Y-84074000D02*
X67056000Y-84074000D01*
X66042000Y-84074000D02*
X67056000Y-84074000D01*
D31*
%TO.N,Net-(Q1-Pad1)*%
X65530000Y-90678000D02*
X65530000Y-90678000D01*
X64518000Y-90678000D02*
X64518000Y-90678000D01*
D30*
%TO.N,Net-(R1-Pad1)*%
X70104000Y-90168000D02*
X71156000Y-89116000D01*
X71156000Y-89116000D02*
X71156000Y-88124000D01*
%TO.N,Net-(R2-Pad1)*%
X71656000Y-89632000D02*
X71656000Y-88124000D01*
X71120000Y-90168000D02*
X71656000Y-89632000D01*
%TO.N,/MCU_USB_D-*%
X67056000Y-83058000D02*
X67056000Y-83058000D01*
X72656000Y-81160999D02*
X73152000Y-81656999D01*
X66042000Y-83058000D02*
X67056000Y-83058000D01*
X73152000Y-82296000D02*
X73025000Y-82423000D01*
X73152000Y-81656999D02*
X73152000Y-82296000D01*
X72656000Y-80024000D02*
X72656000Y-81160999D01*
%TO.N,/MCU_USB_D+*%
X67056000Y-85090000D02*
X67056000Y-85090000D01*
X72156000Y-80024000D02*
X72156000Y-81554000D01*
X72156000Y-81554000D02*
X72390000Y-81788000D01*
X66042000Y-85090000D02*
X67056000Y-85090000D01*
%TO.N,Net-(R7-Pad2)*%
X75156000Y-78512000D02*
X75182000Y-78486000D01*
X75156000Y-80024000D02*
X75156000Y-78512000D01*
%TO.N,/MCU_USB_RENUM*%
X69356000Y-81824000D02*
X67854000Y-81824000D01*
X66550000Y-90168000D02*
X67056000Y-89662000D01*
X66550000Y-90678000D02*
X66550000Y-90168000D01*
X67854000Y-81824000D02*
X67818000Y-81788000D01*
D31*
%TO.N,/PA0*%
X76200000Y-90168000D02*
X77216000Y-90168000D01*
D30*
X76200000Y-90168000D02*
X75156000Y-89124000D01*
X75156000Y-89124000D02*
X75156000Y-88124000D01*
%TO.N,/LED_LINK*%
X73660000Y-78486000D02*
X73660000Y-80020000D01*
D31*
X73656000Y-78490000D02*
X73660000Y-78486000D01*
D30*
X73660000Y-80020000D02*
X73656000Y-80024000D01*
%TO.N,/BOOT0*%
X69087001Y-89916999D02*
X69850000Y-89154000D01*
X70624000Y-84824000D02*
X71374000Y-84074000D01*
X69356000Y-84824000D02*
X70624000Y-84824000D01*
X69087001Y-90168000D02*
X69087001Y-89916999D01*
%TO.N,/BOOT1*%
X77456000Y-83324000D02*
X76022900Y-83324000D01*
X76022900Y-83324000D02*
X76022200Y-83324700D01*
D31*
%TO.N,+3.3VA*%
X59436000Y-77470000D02*
X60247000Y-77470000D01*
X58646000Y-77470000D02*
X59436000Y-77470000D01*
%TD*%
%TA.AperFunction,Conductor*%
%TO.N,GND*%
G36*
X64513012Y-86435330D02*
G01*
X64542767Y-86473352D01*
X64563458Y-86513962D01*
X64563461Y-86513966D01*
X64567960Y-86522796D01*
X64655204Y-86610040D01*
X64765138Y-86666054D01*
X64774927Y-86667604D01*
X64774929Y-86667605D01*
X64801421Y-86671801D01*
X64856347Y-86680500D01*
X65021966Y-86680500D01*
X65187652Y-86680499D01*
X65192546Y-86679724D01*
X65269064Y-86667606D01*
X65269066Y-86667605D01*
X65278862Y-86666054D01*
X65287699Y-86661551D01*
X65287703Y-86661550D01*
X65333238Y-86638349D01*
X65403015Y-86625245D01*
X65468799Y-86651946D01*
X65509705Y-86709973D01*
X65512745Y-86780905D01*
X65502706Y-86807820D01*
X65496633Y-86819738D01*
X65496632Y-86819742D01*
X65492132Y-86828573D01*
X65490581Y-86838363D01*
X65490581Y-86838364D01*
X65486976Y-86861128D01*
X65477500Y-86920955D01*
X65477501Y-87323044D01*
X65478276Y-87327937D01*
X65489656Y-87399790D01*
X65492132Y-87415427D01*
X65496635Y-87424264D01*
X65496635Y-87424265D01*
X65500103Y-87431071D01*
X65548865Y-87526771D01*
X65637229Y-87615135D01*
X65748573Y-87671868D01*
X65758363Y-87673419D01*
X65758364Y-87673419D01*
X65784101Y-87677495D01*
X65840955Y-87686500D01*
X66011965Y-87686500D01*
X66183044Y-87686499D01*
X66206208Y-87682830D01*
X66265629Y-87673420D01*
X66265631Y-87673419D01*
X66275427Y-87671868D01*
X66285645Y-87666662D01*
X66307227Y-87655665D01*
X66386771Y-87615135D01*
X66461501Y-87540405D01*
X66523813Y-87506379D01*
X66550596Y-87503500D01*
X67243865Y-87503500D01*
X67268164Y-87506086D01*
X67269602Y-87506154D01*
X67279780Y-87508345D01*
X67313341Y-87504373D01*
X67319320Y-87504021D01*
X67319312Y-87503928D01*
X67324490Y-87503500D01*
X67329692Y-87503500D01*
X67348846Y-87500312D01*
X67354704Y-87499478D01*
X67371318Y-87497512D01*
X67395567Y-87494642D01*
X67395568Y-87494642D01*
X67405907Y-87493418D01*
X67414206Y-87489433D01*
X67423283Y-87487922D01*
X67468651Y-87463442D01*
X67473914Y-87460761D01*
X67513250Y-87441873D01*
X67513254Y-87441870D01*
X67520398Y-87438440D01*
X67524692Y-87434830D01*
X67526624Y-87432898D01*
X67528573Y-87431111D01*
X67528626Y-87431082D01*
X67528745Y-87431212D01*
X67529313Y-87430711D01*
X67535057Y-87427612D01*
X67571868Y-87387790D01*
X67575297Y-87384225D01*
X67717117Y-87242405D01*
X67779429Y-87208379D01*
X67806212Y-87205500D01*
X68472959Y-87205500D01*
X68492669Y-87207051D01*
X68564955Y-87218500D01*
X70135500Y-87218500D01*
X70203621Y-87238502D01*
X70250114Y-87292158D01*
X70261500Y-87344500D01*
X70261500Y-87616500D01*
X70241498Y-87684621D01*
X70187842Y-87731114D01*
X70135500Y-87742500D01*
X69918136Y-87742500D01*
X69893847Y-87739915D01*
X69892400Y-87739847D01*
X69882220Y-87737655D01*
X69849356Y-87741545D01*
X69848660Y-87741627D01*
X69842679Y-87741980D01*
X69842687Y-87742072D01*
X69837508Y-87742500D01*
X69832308Y-87742500D01*
X69827181Y-87743353D01*
X69827173Y-87743354D01*
X69813151Y-87745688D01*
X69807275Y-87746525D01*
X69766431Y-87751359D01*
X69766429Y-87751360D01*
X69756092Y-87752583D01*
X69747795Y-87756567D01*
X69738717Y-87758078D01*
X69729555Y-87763022D01*
X69729551Y-87763023D01*
X69693356Y-87782553D01*
X69688072Y-87785246D01*
X69641602Y-87807560D01*
X69637308Y-87811170D01*
X69635376Y-87813102D01*
X69633427Y-87814889D01*
X69633374Y-87814918D01*
X69633255Y-87814788D01*
X69632687Y-87815289D01*
X69626943Y-87818388D01*
X69619876Y-87826033D01*
X69590134Y-87858208D01*
X69586704Y-87861774D01*
X68379003Y-89069474D01*
X68316691Y-89103500D01*
X68306355Y-89105301D01*
X68271135Y-89109938D01*
X68181246Y-89121772D01*
X68159760Y-89130672D01*
X68053986Y-89174485D01*
X68053984Y-89174486D01*
X68046358Y-89177645D01*
X67930526Y-89266526D01*
X67841645Y-89382358D01*
X67838486Y-89389984D01*
X67838485Y-89389986D01*
X67807409Y-89465010D01*
X67762860Y-89520290D01*
X67695497Y-89542711D01*
X67626706Y-89525153D01*
X67578327Y-89473190D01*
X67574591Y-89465010D01*
X67543515Y-89389986D01*
X67543514Y-89389984D01*
X67540355Y-89382358D01*
X67482529Y-89306998D01*
X67456501Y-89273077D01*
X67456500Y-89273076D01*
X67451474Y-89266526D01*
X67444924Y-89261500D01*
X67444921Y-89261497D01*
X67342196Y-89182673D01*
X67342194Y-89182672D01*
X67335643Y-89177645D01*
X67200754Y-89121772D01*
X67056000Y-89102715D01*
X67047812Y-89103793D01*
X66919432Y-89120694D01*
X66919430Y-89120695D01*
X66911246Y-89121772D01*
X66889760Y-89130672D01*
X66783986Y-89174485D01*
X66783984Y-89174486D01*
X66776358Y-89177645D01*
X66660526Y-89266526D01*
X66571645Y-89382358D01*
X66568486Y-89389984D01*
X66568485Y-89389986D01*
X66549985Y-89434649D01*
X66515772Y-89517246D01*
X66505744Y-89593420D01*
X66499301Y-89642355D01*
X66470578Y-89707282D01*
X66463474Y-89715003D01*
X66318520Y-89859957D01*
X66299504Y-89875316D01*
X66298444Y-89876280D01*
X66289696Y-89881929D01*
X66283252Y-89890104D01*
X66283249Y-89890106D01*
X66268771Y-89908472D01*
X66264794Y-89912947D01*
X66264865Y-89913008D01*
X66261512Y-89916965D01*
X66257829Y-89920648D01*
X66254803Y-89924883D01*
X66254801Y-89924885D01*
X66246547Y-89936436D01*
X66242982Y-89941185D01*
X66226957Y-89961513D01*
X66211066Y-89981670D01*
X66208015Y-89990357D01*
X66202666Y-89997843D01*
X66199683Y-90007819D01*
X66199682Y-90007820D01*
X66187902Y-90047211D01*
X66186072Y-90052843D01*
X66168984Y-90101502D01*
X66168500Y-90107091D01*
X66168500Y-90109802D01*
X66168385Y-90112469D01*
X66168366Y-90112532D01*
X66168192Y-90112525D01*
X66168145Y-90113271D01*
X66166275Y-90119524D01*
X66166684Y-90129930D01*
X66166809Y-90133123D01*
X66165746Y-90137350D01*
X66165378Y-90140264D01*
X66165025Y-90140219D01*
X66149496Y-90201977D01*
X66130001Y-90227163D01*
X66129095Y-90228069D01*
X66066783Y-90262095D01*
X65995968Y-90257030D01*
X65950905Y-90228069D01*
X65896796Y-90173960D01*
X65786862Y-90117946D01*
X65777073Y-90116396D01*
X65777071Y-90116395D01*
X65743741Y-90111116D01*
X65695653Y-90103500D01*
X65690698Y-90103500D01*
X65685768Y-90103112D01*
X65685914Y-90101262D01*
X65625415Y-90083498D01*
X65578922Y-90029842D01*
X65568614Y-89961054D01*
X65577955Y-89890106D01*
X65579285Y-89880000D01*
X65569935Y-89808976D01*
X65561306Y-89743432D01*
X65561305Y-89743430D01*
X65560228Y-89735246D01*
X65522225Y-89643500D01*
X65507515Y-89607986D01*
X65507514Y-89607984D01*
X65504355Y-89600358D01*
X65415474Y-89484526D01*
X65408924Y-89479500D01*
X65408921Y-89479497D01*
X65306196Y-89400673D01*
X65306194Y-89400672D01*
X65299643Y-89395645D01*
X65164754Y-89339772D01*
X65020000Y-89320715D01*
X65011812Y-89321793D01*
X64883432Y-89338694D01*
X64883430Y-89338695D01*
X64875246Y-89339772D01*
X64859250Y-89346398D01*
X64747986Y-89392485D01*
X64747984Y-89392486D01*
X64740358Y-89395645D01*
X64624526Y-89484526D01*
X64535645Y-89600358D01*
X64532486Y-89607984D01*
X64532485Y-89607986D01*
X64517775Y-89643500D01*
X64479772Y-89735246D01*
X64478695Y-89743430D01*
X64478694Y-89743432D01*
X64470065Y-89808976D01*
X64460715Y-89880000D01*
X64461793Y-89888188D01*
X64461793Y-89888189D01*
X64471446Y-89961513D01*
X64460506Y-90031662D01*
X64413378Y-90084760D01*
X64356621Y-90103501D01*
X64352348Y-90103501D01*
X64347469Y-90104274D01*
X64347465Y-90104274D01*
X64270936Y-90116394D01*
X64270934Y-90116395D01*
X64261138Y-90117946D01*
X64252301Y-90122449D01*
X64252300Y-90122449D01*
X64237618Y-90129930D01*
X64151204Y-90173960D01*
X64063960Y-90261204D01*
X64007946Y-90371138D01*
X63993500Y-90462347D01*
X63993501Y-90893652D01*
X63994276Y-90898543D01*
X63994276Y-90898546D01*
X63995199Y-90904371D01*
X64007946Y-90984862D01*
X64012447Y-90993695D01*
X64012449Y-90993700D01*
X64027046Y-91022348D01*
X64063960Y-91094796D01*
X64151204Y-91182040D01*
X64261138Y-91238054D01*
X64270927Y-91239604D01*
X64270929Y-91239605D01*
X64297421Y-91243801D01*
X64352347Y-91252500D01*
X64517966Y-91252500D01*
X64683652Y-91252499D01*
X64688546Y-91251724D01*
X64765064Y-91239606D01*
X64765066Y-91239605D01*
X64774862Y-91238054D01*
X64884796Y-91182040D01*
X64897431Y-91169405D01*
X64959743Y-91135379D01*
X64986526Y-91132500D01*
X65061474Y-91132500D01*
X65129595Y-91152502D01*
X65150569Y-91169405D01*
X65163204Y-91182040D01*
X65273138Y-91238054D01*
X65282927Y-91239604D01*
X65282929Y-91239605D01*
X65309421Y-91243801D01*
X65364347Y-91252500D01*
X65529966Y-91252500D01*
X65695652Y-91252499D01*
X65700546Y-91251724D01*
X65777064Y-91239606D01*
X65777066Y-91239605D01*
X65786862Y-91238054D01*
X65896796Y-91182040D01*
X65950905Y-91127931D01*
X66013217Y-91093905D01*
X66084032Y-91098970D01*
X66129095Y-91127931D01*
X66183204Y-91182040D01*
X66293138Y-91238054D01*
X66302927Y-91239604D01*
X66302929Y-91239605D01*
X66329421Y-91243801D01*
X66384347Y-91252500D01*
X66549966Y-91252500D01*
X66715652Y-91252499D01*
X66720546Y-91251724D01*
X66797064Y-91239606D01*
X66797066Y-91239605D01*
X66806862Y-91238054D01*
X66916796Y-91182040D01*
X67004040Y-91094796D01*
X67060054Y-90984862D01*
X67074500Y-90893653D01*
X67074499Y-90462348D01*
X67073724Y-90457454D01*
X67061606Y-90380935D01*
X67061605Y-90380932D01*
X67060054Y-90371138D01*
X67058348Y-90367790D01*
X67056418Y-90300243D01*
X67093080Y-90239445D01*
X67161833Y-90207352D01*
X67192566Y-90203306D01*
X67200754Y-90202228D01*
X67208381Y-90199069D01*
X67208384Y-90199068D01*
X67333283Y-90147333D01*
X67403873Y-90139744D01*
X67467360Y-90171523D01*
X67503587Y-90232582D01*
X67507501Y-90263740D01*
X67507501Y-90369044D01*
X67522132Y-90461427D01*
X67578865Y-90572771D01*
X67667229Y-90661135D01*
X67778573Y-90717868D01*
X67788363Y-90719419D01*
X67788364Y-90719419D01*
X67814101Y-90723495D01*
X67870955Y-90732500D01*
X68071959Y-90732500D01*
X68273044Y-90732499D01*
X68300145Y-90728207D01*
X68355629Y-90719420D01*
X68355631Y-90719419D01*
X68365427Y-90717868D01*
X68380422Y-90710228D01*
X68407026Y-90696672D01*
X68476771Y-90661135D01*
X68505829Y-90632077D01*
X68568141Y-90598051D01*
X68638956Y-90603116D01*
X68665565Y-90617400D01*
X68670205Y-90622040D01*
X68679039Y-90626541D01*
X68679042Y-90626543D01*
X68719194Y-90647001D01*
X68780139Y-90678054D01*
X68789928Y-90679604D01*
X68789930Y-90679605D01*
X68814511Y-90683498D01*
X68871348Y-90692500D01*
X69086957Y-90692500D01*
X69302653Y-90692499D01*
X69319904Y-90689767D01*
X69384065Y-90679606D01*
X69384067Y-90679605D01*
X69393863Y-90678054D01*
X69423872Y-90662764D01*
X69463381Y-90642633D01*
X69503797Y-90622040D01*
X69510809Y-90615028D01*
X69518829Y-90609201D01*
X69520620Y-90611666D01*
X69568741Y-90585401D01*
X69639556Y-90590480D01*
X69671060Y-90610731D01*
X69672172Y-90609201D01*
X69680192Y-90615028D01*
X69687204Y-90622040D01*
X69797138Y-90678054D01*
X69806927Y-90679604D01*
X69806929Y-90679605D01*
X69831510Y-90683498D01*
X69888347Y-90692500D01*
X70103956Y-90692500D01*
X70319652Y-90692499D01*
X70336903Y-90689767D01*
X70401064Y-90679606D01*
X70401066Y-90679605D01*
X70410862Y-90678054D01*
X70440871Y-90662764D01*
X70480380Y-90642633D01*
X70520796Y-90622040D01*
X70527808Y-90615028D01*
X70535828Y-90609201D01*
X70537739Y-90611831D01*
X70585217Y-90585905D01*
X70656032Y-90590970D01*
X70686971Y-90610854D01*
X70688172Y-90609201D01*
X70696192Y-90615028D01*
X70703204Y-90622040D01*
X70813138Y-90678054D01*
X70822927Y-90679604D01*
X70822929Y-90679605D01*
X70847510Y-90683498D01*
X70904347Y-90692500D01*
X71119956Y-90692500D01*
X71335652Y-90692499D01*
X71352903Y-90689767D01*
X71417064Y-90679606D01*
X71417066Y-90679605D01*
X71426862Y-90678054D01*
X71451236Y-90665635D01*
X71527963Y-90626541D01*
X71527965Y-90626540D01*
X71536796Y-90622040D01*
X71540811Y-90618025D01*
X71605463Y-90594957D01*
X71674615Y-90611038D01*
X71701751Y-90631657D01*
X71731229Y-90661135D01*
X71842573Y-90717868D01*
X71852363Y-90719419D01*
X71852364Y-90719419D01*
X71878101Y-90723495D01*
X71934955Y-90732500D01*
X71957446Y-90732500D01*
X71986721Y-90736354D01*
X71991246Y-90738228D01*
X72136000Y-90757285D01*
X72280754Y-90738228D01*
X72285280Y-90736353D01*
X72314558Y-90732499D01*
X72337044Y-90732499D01*
X72364145Y-90728207D01*
X72419629Y-90719420D01*
X72419631Y-90719419D01*
X72429427Y-90717868D01*
X72444422Y-90710228D01*
X72471026Y-90696672D01*
X72540771Y-90661135D01*
X72554905Y-90647001D01*
X72617217Y-90612975D01*
X72688032Y-90618040D01*
X72733095Y-90647001D01*
X72747229Y-90661135D01*
X72858573Y-90717868D01*
X72868363Y-90719419D01*
X72868364Y-90719419D01*
X72894101Y-90723495D01*
X72950955Y-90732500D01*
X72973446Y-90732500D01*
X73002721Y-90736354D01*
X73007246Y-90738228D01*
X73152000Y-90757285D01*
X73296754Y-90738228D01*
X73301280Y-90736353D01*
X73330558Y-90732499D01*
X73353044Y-90732499D01*
X73380145Y-90728207D01*
X73435629Y-90719420D01*
X73435631Y-90719419D01*
X73445427Y-90717868D01*
X73460422Y-90710228D01*
X73487026Y-90696672D01*
X73556771Y-90661135D01*
X73570905Y-90647001D01*
X73633217Y-90612975D01*
X73704032Y-90618040D01*
X73749095Y-90647001D01*
X73763229Y-90661135D01*
X73874573Y-90717868D01*
X73884363Y-90719419D01*
X73884364Y-90719419D01*
X73910101Y-90723495D01*
X73966955Y-90732500D01*
X74167959Y-90732500D01*
X74369044Y-90732499D01*
X74396145Y-90728207D01*
X74451629Y-90719420D01*
X74451631Y-90719419D01*
X74461427Y-90717868D01*
X74474306Y-90711306D01*
X74482180Y-90707294D01*
X74551956Y-90694189D01*
X74617741Y-90720888D01*
X74658648Y-90778915D01*
X74661690Y-90849847D01*
X74651651Y-90876762D01*
X74640552Y-90898546D01*
X74623946Y-90931138D01*
X74609500Y-91022347D01*
X74609501Y-91353652D01*
X74610276Y-91358543D01*
X74610276Y-91358546D01*
X74620235Y-91421427D01*
X74623946Y-91444862D01*
X74628447Y-91453695D01*
X74628449Y-91453700D01*
X74657287Y-91510297D01*
X74670391Y-91580074D01*
X74643691Y-91645858D01*
X74585664Y-91686765D01*
X74545020Y-91693500D01*
X62338853Y-91693500D01*
X62270732Y-91673498D01*
X62224239Y-91619842D01*
X62214135Y-91549568D01*
X62226586Y-91510297D01*
X62255424Y-91453700D01*
X62271868Y-91421427D01*
X62274479Y-91404946D01*
X62282602Y-91353653D01*
X62286500Y-91329045D01*
X62286499Y-90986956D01*
X62271868Y-90894573D01*
X62215135Y-90783229D01*
X62126771Y-90694865D01*
X62015427Y-90638132D01*
X62005637Y-90636581D01*
X62005636Y-90636581D01*
X61979899Y-90632505D01*
X61923045Y-90623500D01*
X61722041Y-90623500D01*
X61520956Y-90623501D01*
X61501767Y-90626540D01*
X61438371Y-90636580D01*
X61438369Y-90636581D01*
X61428573Y-90638132D01*
X61419736Y-90642635D01*
X61419735Y-90642635D01*
X61327234Y-90689767D01*
X61270031Y-90703500D01*
X61012500Y-90703500D01*
X60944379Y-90683498D01*
X60897886Y-90629842D01*
X60886500Y-90577500D01*
X60886500Y-90155244D01*
X60882280Y-90116395D01*
X60880651Y-90101403D01*
X60880651Y-90101402D01*
X60879798Y-90093552D01*
X60829071Y-89958236D01*
X60823691Y-89951057D01*
X60823689Y-89951054D01*
X60747785Y-89849776D01*
X60742404Y-89842596D01*
X60677820Y-89794193D01*
X60633946Y-89761311D01*
X60633943Y-89761309D01*
X60626764Y-89755929D01*
X60517593Y-89715003D01*
X60498843Y-89707974D01*
X60498841Y-89707974D01*
X60491448Y-89705202D01*
X60483598Y-89704349D01*
X60483597Y-89704349D01*
X60433153Y-89698869D01*
X60433152Y-89698869D01*
X60429756Y-89698500D01*
X60116212Y-89698500D01*
X60048091Y-89678498D01*
X60001598Y-89624842D01*
X59991494Y-89554568D01*
X60020988Y-89489988D01*
X60027117Y-89483405D01*
X61191476Y-88319046D01*
X61210499Y-88303682D01*
X61211558Y-88302718D01*
X61220304Y-88297071D01*
X61226752Y-88288892D01*
X61226754Y-88288890D01*
X61241234Y-88270523D01*
X61245209Y-88266050D01*
X61245137Y-88265989D01*
X61248490Y-88262032D01*
X61252171Y-88258351D01*
X61263455Y-88242560D01*
X61267019Y-88237814D01*
X61292487Y-88205508D01*
X61298934Y-88197330D01*
X61301984Y-88188645D01*
X61307335Y-88181157D01*
X61322110Y-88131750D01*
X61323926Y-88126163D01*
X61341016Y-88077498D01*
X61341500Y-88071909D01*
X61341500Y-88069198D01*
X61341615Y-88066529D01*
X61341634Y-88066468D01*
X61341808Y-88066475D01*
X61341855Y-88065728D01*
X61343725Y-88059475D01*
X61341597Y-88005311D01*
X61341500Y-88000365D01*
X61341500Y-86617500D01*
X61361502Y-86549379D01*
X61415158Y-86502886D01*
X61467500Y-86491500D01*
X61821363Y-86491500D01*
X61889484Y-86511502D01*
X61935977Y-86565158D01*
X61946081Y-86635432D01*
X61924070Y-86690488D01*
X61918958Y-86697682D01*
X61913980Y-86704687D01*
X61862518Y-86847629D01*
X61861889Y-86856189D01*
X61861889Y-86856191D01*
X61858226Y-86906072D01*
X61851391Y-86999145D01*
X61881420Y-87148071D01*
X61885320Y-87155725D01*
X61946492Y-87275783D01*
X61946494Y-87275786D01*
X61950392Y-87283436D01*
X61956205Y-87289757D01*
X61956206Y-87289759D01*
X62009630Y-87347856D01*
X62053226Y-87395266D01*
X62060521Y-87399789D01*
X62060522Y-87399790D01*
X62157256Y-87459768D01*
X62182344Y-87475323D01*
X62328235Y-87517709D01*
X62339007Y-87518500D01*
X62448057Y-87518500D01*
X62452303Y-87517918D01*
X62452309Y-87517918D01*
X62538683Y-87506086D01*
X62560518Y-87503095D01*
X62580052Y-87494642D01*
X62692064Y-87446169D01*
X62692065Y-87446169D01*
X62699946Y-87442758D01*
X62750240Y-87402031D01*
X62811339Y-87352555D01*
X62811341Y-87352553D01*
X62818013Y-87347150D01*
X62824215Y-87338424D01*
X62901044Y-87230315D01*
X62901044Y-87230314D01*
X62906020Y-87223313D01*
X62946160Y-87111819D01*
X62988054Y-87054501D01*
X63054287Y-87028932D01*
X63064711Y-87028500D01*
X64012177Y-87028499D01*
X64075066Y-87028499D01*
X64110818Y-87021388D01*
X64137126Y-87016156D01*
X64137128Y-87016155D01*
X64149301Y-87013734D01*
X64159621Y-87006839D01*
X64159622Y-87006838D01*
X64223168Y-86964377D01*
X64233484Y-86957484D01*
X64289734Y-86873301D01*
X64304500Y-86799067D01*
X64304500Y-86530554D01*
X64324502Y-86462433D01*
X64378158Y-86415940D01*
X64448432Y-86405836D01*
X64513012Y-86435330D01*
G37*
%TD.AperFunction*%
%TA.AperFunction,Conductor*%
G36*
X59597210Y-76220502D02*
G01*
X59643703Y-76274158D01*
X59653807Y-76344432D01*
X59624313Y-76409012D01*
X59604656Y-76427324D01*
X59561596Y-76459596D01*
X59556214Y-76466777D01*
X59480311Y-76568053D01*
X59480309Y-76568056D01*
X59474929Y-76575235D01*
X59424202Y-76710551D01*
X59417500Y-76772243D01*
X59417500Y-76802651D01*
X59397498Y-76870772D01*
X59343842Y-76917265D01*
X59307949Y-76927573D01*
X59306662Y-76927743D01*
X59291246Y-76929772D01*
X59156358Y-76985645D01*
X59154963Y-76986715D01*
X59088891Y-77002744D01*
X59023758Y-76979852D01*
X59020771Y-76976865D01*
X58909427Y-76920132D01*
X58899637Y-76918581D01*
X58899636Y-76918581D01*
X58865351Y-76913151D01*
X58817045Y-76905500D01*
X58646035Y-76905500D01*
X58474956Y-76905501D01*
X58451792Y-76909170D01*
X58392371Y-76918580D01*
X58392369Y-76918581D01*
X58382573Y-76920132D01*
X58373736Y-76924635D01*
X58373735Y-76924635D01*
X58360262Y-76931500D01*
X58271229Y-76976865D01*
X58182865Y-77065229D01*
X58126132Y-77176573D01*
X58111500Y-77268955D01*
X58111501Y-77671044D01*
X58112276Y-77675937D01*
X58121686Y-77735351D01*
X58126132Y-77763427D01*
X58182865Y-77874771D01*
X58271229Y-77963135D01*
X58382573Y-78019868D01*
X58392363Y-78021419D01*
X58392364Y-78021419D01*
X58418101Y-78025495D01*
X58474955Y-78034500D01*
X58645965Y-78034500D01*
X58817044Y-78034499D01*
X58857670Y-78028065D01*
X58899629Y-78021420D01*
X58899631Y-78021419D01*
X58909427Y-78019868D01*
X58918285Y-78015355D01*
X58996739Y-77975380D01*
X59020771Y-77963135D01*
X59023782Y-77960124D01*
X59087689Y-77937319D01*
X59154990Y-77953306D01*
X59156357Y-77954355D01*
X59163983Y-77957514D01*
X59163985Y-77957515D01*
X59249229Y-77992824D01*
X59291246Y-78010228D01*
X59303775Y-78011878D01*
X59307948Y-78012427D01*
X59372875Y-78041150D01*
X59411966Y-78100416D01*
X59417501Y-78137349D01*
X59417501Y-78167756D01*
X59417870Y-78171150D01*
X59417870Y-78171156D01*
X59421694Y-78206358D01*
X59424202Y-78229449D01*
X59474929Y-78364765D01*
X59480309Y-78371944D01*
X59480311Y-78371947D01*
X59533583Y-78443027D01*
X59561596Y-78480404D01*
X59568777Y-78485786D01*
X59670053Y-78561689D01*
X59670056Y-78561691D01*
X59677235Y-78567071D01*
X59755703Y-78596487D01*
X59805156Y-78615026D01*
X59805158Y-78615026D01*
X59812551Y-78617798D01*
X59820401Y-78618651D01*
X59820402Y-78618651D01*
X59870837Y-78624130D01*
X59874243Y-78624500D01*
X60246945Y-78624500D01*
X60619756Y-78624499D01*
X60623150Y-78624130D01*
X60623156Y-78624130D01*
X60673591Y-78618652D01*
X60673595Y-78618651D01*
X60681449Y-78617798D01*
X60816765Y-78567071D01*
X60823944Y-78561691D01*
X60823947Y-78561689D01*
X60925223Y-78485786D01*
X60932404Y-78480404D01*
X60960417Y-78443027D01*
X61013689Y-78371947D01*
X61013691Y-78371944D01*
X61019071Y-78364765D01*
X61065478Y-78240973D01*
X61067026Y-78236844D01*
X61067026Y-78236842D01*
X61069798Y-78229449D01*
X61075947Y-78172852D01*
X61076131Y-78171154D01*
X61076131Y-78171153D01*
X61076500Y-78167757D01*
X61076499Y-76772244D01*
X61074759Y-76756224D01*
X61070652Y-76718409D01*
X61070651Y-76718405D01*
X61069798Y-76710551D01*
X61019071Y-76575235D01*
X61013691Y-76568056D01*
X61013689Y-76568053D01*
X60937786Y-76466777D01*
X60932404Y-76459596D01*
X60889345Y-76427325D01*
X60846831Y-76370467D01*
X60841805Y-76299649D01*
X60875865Y-76237355D01*
X60938196Y-76203365D01*
X60964911Y-76200500D01*
X73975500Y-76200500D01*
X74043621Y-76220502D01*
X74090114Y-76274158D01*
X74101500Y-76326500D01*
X74101501Y-76656136D01*
X74116410Y-76750273D01*
X74120007Y-76757332D01*
X74122003Y-76827192D01*
X74085341Y-76887990D01*
X74021629Y-76919315D01*
X73963692Y-76915171D01*
X73958273Y-76912410D01*
X73948485Y-76910860D01*
X73948483Y-76910859D01*
X73913366Y-76905297D01*
X73864137Y-76897500D01*
X73660021Y-76897500D01*
X73455864Y-76897501D01*
X73361727Y-76912410D01*
X73248265Y-76970221D01*
X73241095Y-76977391D01*
X73240863Y-76977518D01*
X73233232Y-76983062D01*
X73232516Y-76982076D01*
X73178783Y-77011417D01*
X73107968Y-77006352D01*
X73071074Y-76982641D01*
X73070768Y-76983062D01*
X73063405Y-76977712D01*
X73062905Y-76977391D01*
X73055735Y-76970221D01*
X72997566Y-76940583D01*
X72951110Y-76916912D01*
X72951107Y-76916911D01*
X72942273Y-76912410D01*
X72848137Y-76897500D01*
X72644021Y-76897500D01*
X72439864Y-76897501D01*
X72345727Y-76912410D01*
X72232265Y-76970221D01*
X72142221Y-77060265D01*
X72084410Y-77173727D01*
X72084015Y-77173526D01*
X72047927Y-77226304D01*
X71982530Y-77253941D01*
X71918494Y-77242907D01*
X71918157Y-77242666D01*
X71908181Y-77239683D01*
X71908180Y-77239682D01*
X71876798Y-77230297D01*
X71868786Y-77227901D01*
X71863157Y-77226072D01*
X71814498Y-77208984D01*
X71808909Y-77208500D01*
X71806198Y-77208500D01*
X71803531Y-77208385D01*
X71803468Y-77208366D01*
X71803475Y-77208192D01*
X71802729Y-77208145D01*
X71796476Y-77206275D01*
X71750746Y-77208072D01*
X71742322Y-77208403D01*
X71737375Y-77208500D01*
X69765893Y-77208500D01*
X69741594Y-77205914D01*
X69740156Y-77205846D01*
X69729978Y-77203655D01*
X69700274Y-77207170D01*
X69696416Y-77207627D01*
X69690438Y-77207979D01*
X69690446Y-77208072D01*
X69685268Y-77208500D01*
X69680066Y-77208500D01*
X69660912Y-77211688D01*
X69655054Y-77212522D01*
X69638440Y-77214488D01*
X69614191Y-77217358D01*
X69614190Y-77217358D01*
X69603851Y-77218582D01*
X69595552Y-77222567D01*
X69586475Y-77224078D01*
X69541107Y-77248558D01*
X69535844Y-77251239D01*
X69496508Y-77270127D01*
X69496504Y-77270130D01*
X69489360Y-77273560D01*
X69485066Y-77277170D01*
X69483134Y-77279102D01*
X69481185Y-77280889D01*
X69481132Y-77280918D01*
X69481013Y-77280788D01*
X69480445Y-77281289D01*
X69474701Y-77284388D01*
X69467634Y-77292033D01*
X69437904Y-77324195D01*
X69434474Y-77327762D01*
X69129639Y-77632596D01*
X69067327Y-77666621D01*
X69040545Y-77669500D01*
X68904799Y-77669501D01*
X68886956Y-77669501D01*
X68882063Y-77670276D01*
X68882062Y-77670276D01*
X68804371Y-77682580D01*
X68804369Y-77682581D01*
X68794573Y-77684132D01*
X68785736Y-77688635D01*
X68785735Y-77688635D01*
X68693234Y-77735767D01*
X68636031Y-77749500D01*
X68523969Y-77749500D01*
X68466766Y-77735767D01*
X68433025Y-77718575D01*
X68365427Y-77684132D01*
X68355637Y-77682581D01*
X68355636Y-77682581D01*
X68328978Y-77678359D01*
X68273045Y-77669500D01*
X68072041Y-77669500D01*
X67870956Y-77669501D01*
X67847792Y-77673170D01*
X67788371Y-77682580D01*
X67788369Y-77682581D01*
X67778573Y-77684132D01*
X67769736Y-77688635D01*
X67769735Y-77688635D01*
X67677234Y-77735767D01*
X67620031Y-77749500D01*
X67507969Y-77749500D01*
X67450766Y-77735767D01*
X67417025Y-77718575D01*
X67349427Y-77684132D01*
X67339637Y-77682581D01*
X67339636Y-77682581D01*
X67312978Y-77678359D01*
X67257045Y-77669500D01*
X67056041Y-77669500D01*
X66854956Y-77669501D01*
X66831792Y-77673170D01*
X66772371Y-77682580D01*
X66772369Y-77682581D01*
X66762573Y-77684132D01*
X66651229Y-77740865D01*
X66637095Y-77754999D01*
X66574783Y-77789025D01*
X66503968Y-77783960D01*
X66458905Y-77754999D01*
X66444771Y-77740865D01*
X66333427Y-77684132D01*
X66323637Y-77682581D01*
X66323636Y-77682581D01*
X66296978Y-77678359D01*
X66241045Y-77669500D01*
X66040041Y-77669500D01*
X65838956Y-77669501D01*
X65815792Y-77673170D01*
X65756371Y-77682580D01*
X65756369Y-77682581D01*
X65746573Y-77684132D01*
X65635229Y-77740865D01*
X65546865Y-77829229D01*
X65490132Y-77940573D01*
X65488581Y-77950363D01*
X65488581Y-77950364D01*
X65486973Y-77960516D01*
X65475500Y-78032955D01*
X65475500Y-78073550D01*
X65455498Y-78141671D01*
X65438595Y-78162645D01*
X65361989Y-78239251D01*
X65350900Y-78249106D01*
X65323941Y-78270359D01*
X65318587Y-78278106D01*
X65290258Y-78319094D01*
X65287976Y-78322287D01*
X65252791Y-78369924D01*
X65250377Y-78376797D01*
X65246236Y-78382789D01*
X65236986Y-78412039D01*
X65228374Y-78439270D01*
X65227129Y-78442999D01*
X65207507Y-78498874D01*
X65207224Y-78506078D01*
X65207191Y-78506249D01*
X65205025Y-78513097D01*
X65204500Y-78519768D01*
X65204500Y-78572938D01*
X65204403Y-78577884D01*
X65202142Y-78635437D01*
X65204039Y-78642592D01*
X65204500Y-78650967D01*
X65204500Y-79077178D01*
X65184498Y-79145299D01*
X65180137Y-79151501D01*
X65179671Y-79152308D01*
X65174645Y-79158858D01*
X65171486Y-79166484D01*
X65171485Y-79166486D01*
X65154501Y-79207490D01*
X65118772Y-79293746D01*
X65117695Y-79301930D01*
X65117694Y-79301932D01*
X65108797Y-79369512D01*
X65099715Y-79438500D01*
X65100793Y-79446688D01*
X65117478Y-79573423D01*
X65118772Y-79583254D01*
X65121931Y-79590880D01*
X65171163Y-79709735D01*
X65174645Y-79718142D01*
X65263526Y-79833974D01*
X65270076Y-79839000D01*
X65270079Y-79839003D01*
X65364783Y-79911672D01*
X65379357Y-79922855D01*
X65514246Y-79978728D01*
X65659000Y-79997785D01*
X65667188Y-79996707D01*
X65795566Y-79979806D01*
X65803754Y-79978728D01*
X65938643Y-79922855D01*
X65953217Y-79911672D01*
X66047921Y-79839003D01*
X66047924Y-79839000D01*
X66054474Y-79833974D01*
X66143355Y-79718142D01*
X66172101Y-79648744D01*
X66216649Y-79593463D01*
X66284013Y-79571042D01*
X66352804Y-79588600D01*
X66365214Y-79597000D01*
X66369408Y-79600218D01*
X66458857Y-79668855D01*
X66593746Y-79724728D01*
X66601934Y-79725806D01*
X66666123Y-79734257D01*
X66738500Y-79743785D01*
X66746688Y-79742707D01*
X66875066Y-79725806D01*
X66883254Y-79724728D01*
X67018143Y-79668855D01*
X67024697Y-79663826D01*
X67127421Y-79585003D01*
X67127424Y-79585000D01*
X67133974Y-79579974D01*
X67162061Y-79543371D01*
X67217828Y-79470693D01*
X67222855Y-79464142D01*
X67226015Y-79456514D01*
X67275570Y-79336879D01*
X67275571Y-79336876D01*
X67278728Y-79329254D01*
X67279805Y-79321070D01*
X67281943Y-79313091D01*
X67283732Y-79313570D01*
X67308274Y-79258102D01*
X67315374Y-79250386D01*
X67353011Y-79212749D01*
X67364100Y-79202894D01*
X67368904Y-79199107D01*
X67391059Y-79181641D01*
X67412676Y-79150364D01*
X67424742Y-79132906D01*
X67427024Y-79129713D01*
X67462209Y-79082076D01*
X67464623Y-79075203D01*
X67468764Y-79069211D01*
X67486629Y-79012722D01*
X67487880Y-79008973D01*
X67507493Y-78953126D01*
X67507776Y-78945922D01*
X67507809Y-78945751D01*
X67509975Y-78938903D01*
X67510500Y-78932232D01*
X67510500Y-78879062D01*
X67510597Y-78874116D01*
X67510968Y-78864667D01*
X67512858Y-78816563D01*
X67510961Y-78809408D01*
X67510500Y-78801030D01*
X67510500Y-78792891D01*
X67530502Y-78724770D01*
X67584158Y-78678277D01*
X67654432Y-78668173D01*
X67693702Y-78680624D01*
X67778573Y-78723868D01*
X67788363Y-78725419D01*
X67788364Y-78725419D01*
X67814101Y-78729495D01*
X67870955Y-78738500D01*
X68071959Y-78738500D01*
X68273044Y-78738499D01*
X68296208Y-78734830D01*
X68355629Y-78725420D01*
X68355631Y-78725419D01*
X68365427Y-78723868D01*
X68394419Y-78709096D01*
X68466766Y-78672233D01*
X68523969Y-78658500D01*
X68580500Y-78658500D01*
X68648621Y-78678502D01*
X68695114Y-78732158D01*
X68706500Y-78784500D01*
X68706500Y-78953865D01*
X68703914Y-78978164D01*
X68703846Y-78979602D01*
X68701655Y-78989780D01*
X68704151Y-79010868D01*
X68705627Y-79023342D01*
X68705979Y-79029320D01*
X68706072Y-79029312D01*
X68706500Y-79034490D01*
X68706500Y-79039692D01*
X68708558Y-79052053D01*
X68709686Y-79058832D01*
X68710522Y-79064704D01*
X68716582Y-79115907D01*
X68720567Y-79124206D01*
X68722078Y-79133283D01*
X68746558Y-79178651D01*
X68749239Y-79183914D01*
X68768127Y-79223250D01*
X68768130Y-79223254D01*
X68771560Y-79230398D01*
X68775170Y-79234692D01*
X68777102Y-79236624D01*
X68778889Y-79238573D01*
X68778918Y-79238626D01*
X68778788Y-79238745D01*
X68779289Y-79239313D01*
X68782388Y-79245057D01*
X68790033Y-79252124D01*
X68822208Y-79281866D01*
X68825774Y-79285296D01*
X69201087Y-79660609D01*
X69235113Y-79722921D01*
X69230048Y-79793736D01*
X69187501Y-79850572D01*
X69160210Y-79866113D01*
X69062358Y-79906645D01*
X68946526Y-79995526D01*
X68941503Y-80002072D01*
X68928536Y-80018971D01*
X68857645Y-80111358D01*
X68854486Y-80118984D01*
X68854485Y-80118986D01*
X68838352Y-80157935D01*
X68801772Y-80246246D01*
X68782715Y-80391000D01*
X68784755Y-80406494D01*
X68792008Y-80461585D01*
X68801772Y-80535754D01*
X68817772Y-80574380D01*
X68852372Y-80657911D01*
X68857645Y-80670642D01*
X68862671Y-80677193D01*
X68862674Y-80677197D01*
X68900733Y-80726797D01*
X68926333Y-80793017D01*
X68912068Y-80862566D01*
X68862466Y-80913361D01*
X68800770Y-80929500D01*
X68564955Y-80929500D01*
X68508101Y-80938505D01*
X68482364Y-80942581D01*
X68482363Y-80942581D01*
X68472573Y-80944132D01*
X68361229Y-81000865D01*
X68272865Y-81089229D01*
X68237128Y-81159367D01*
X68224557Y-81184039D01*
X68216132Y-81200573D01*
X68215092Y-81207138D01*
X68176042Y-81264244D01*
X68110645Y-81291880D01*
X68048068Y-81283110D01*
X67962754Y-81247772D01*
X67818000Y-81228715D01*
X67809812Y-81229793D01*
X67681432Y-81246694D01*
X67681430Y-81246695D01*
X67673246Y-81247772D01*
X67633156Y-81264378D01*
X67545986Y-81300485D01*
X67545984Y-81300486D01*
X67538358Y-81303645D01*
X67422526Y-81392526D01*
X67417503Y-81399072D01*
X67401078Y-81420478D01*
X67333645Y-81508358D01*
X67330486Y-81515984D01*
X67330485Y-81515986D01*
X67322286Y-81535780D01*
X67277772Y-81643246D01*
X67276695Y-81651430D01*
X67276694Y-81651432D01*
X67267059Y-81724622D01*
X67258715Y-81788000D01*
X67259793Y-81796188D01*
X67276651Y-81924237D01*
X67277772Y-81932754D01*
X67287726Y-81956784D01*
X67324521Y-82045614D01*
X67333645Y-82067642D01*
X67366376Y-82110298D01*
X67409669Y-82166718D01*
X67422526Y-82183474D01*
X67429076Y-82188500D01*
X67429079Y-82188503D01*
X67531804Y-82267327D01*
X67538357Y-82272355D01*
X67673246Y-82328228D01*
X67818000Y-82347285D01*
X67826188Y-82346207D01*
X67954566Y-82329306D01*
X67962754Y-82328228D01*
X67970381Y-82325069D01*
X67970384Y-82325068D01*
X68035152Y-82298240D01*
X68105742Y-82290651D01*
X68169229Y-82322431D01*
X68205456Y-82383489D01*
X68207818Y-82394932D01*
X68216132Y-82447427D01*
X68239670Y-82493622D01*
X68251478Y-82516797D01*
X68264582Y-82586574D01*
X68251478Y-82631203D01*
X68216132Y-82700573D01*
X68214581Y-82710362D01*
X68214581Y-82710364D01*
X68203812Y-82778358D01*
X68196583Y-82824000D01*
X68198134Y-82833793D01*
X68213293Y-82929500D01*
X68216132Y-82947427D01*
X68246772Y-83007560D01*
X68251478Y-83016797D01*
X68264582Y-83086574D01*
X68251478Y-83131203D01*
X68216132Y-83200573D01*
X68214581Y-83210362D01*
X68214581Y-83210364D01*
X68203298Y-83281604D01*
X68196583Y-83324000D01*
X68198134Y-83333793D01*
X68210155Y-83409687D01*
X68216132Y-83447427D01*
X68237723Y-83489801D01*
X68251478Y-83516797D01*
X68264582Y-83586574D01*
X68251478Y-83631203D01*
X68216132Y-83700573D01*
X68214581Y-83710362D01*
X68214581Y-83710364D01*
X68212246Y-83725106D01*
X68196583Y-83824000D01*
X68198134Y-83833793D01*
X68212045Y-83921620D01*
X68216132Y-83947427D01*
X68220633Y-83956260D01*
X68251478Y-84016797D01*
X68264582Y-84086574D01*
X68251478Y-84131203D01*
X68216132Y-84200573D01*
X68214581Y-84210362D01*
X68214581Y-84210364D01*
X68211706Y-84228516D01*
X68196583Y-84324000D01*
X68198134Y-84333793D01*
X68211234Y-84416500D01*
X68216132Y-84447427D01*
X68224028Y-84462923D01*
X68251478Y-84516797D01*
X68264582Y-84586574D01*
X68251478Y-84631203D01*
X68216132Y-84700573D01*
X68214581Y-84710362D01*
X68214581Y-84710364D01*
X68199781Y-84803807D01*
X68196583Y-84824000D01*
X68198134Y-84833793D01*
X68214579Y-84937620D01*
X68216132Y-84947427D01*
X68239290Y-84992877D01*
X68251478Y-85016797D01*
X68264582Y-85086574D01*
X68251478Y-85131203D01*
X68216132Y-85200573D01*
X68214581Y-85210362D01*
X68214581Y-85210364D01*
X68198514Y-85311807D01*
X68196583Y-85324000D01*
X68198134Y-85333793D01*
X68214524Y-85437272D01*
X68216132Y-85447427D01*
X68239290Y-85492877D01*
X68251478Y-85516797D01*
X68264582Y-85586574D01*
X68251478Y-85631203D01*
X68216132Y-85700573D01*
X68214581Y-85710362D01*
X68214581Y-85710364D01*
X68201222Y-85794711D01*
X68196583Y-85824000D01*
X68198134Y-85833793D01*
X68211975Y-85921178D01*
X68216132Y-85947427D01*
X68272865Y-86058771D01*
X68361229Y-86147135D01*
X68466106Y-86200573D01*
X68472573Y-86203868D01*
X68470865Y-86207220D01*
X68514042Y-86236749D01*
X68541673Y-86302149D01*
X68529560Y-86372104D01*
X68481549Y-86424406D01*
X68416493Y-86442500D01*
X67650140Y-86442500D01*
X67625824Y-86439913D01*
X67624401Y-86439846D01*
X67614220Y-86437654D01*
X67580681Y-86441624D01*
X67580652Y-86441627D01*
X67574678Y-86441979D01*
X67574686Y-86442072D01*
X67569508Y-86442500D01*
X67564308Y-86442500D01*
X67559179Y-86443354D01*
X67559176Y-86443354D01*
X67545165Y-86445686D01*
X67539286Y-86446523D01*
X67498433Y-86451358D01*
X67498432Y-86451358D01*
X67488093Y-86452582D01*
X67479794Y-86456567D01*
X67470717Y-86458078D01*
X67425349Y-86482558D01*
X67420086Y-86485239D01*
X67383336Y-86502886D01*
X67373602Y-86507560D01*
X67369308Y-86511169D01*
X67367382Y-86513095D01*
X67365424Y-86514891D01*
X67365367Y-86514921D01*
X67365249Y-86514792D01*
X67364684Y-86515290D01*
X67358943Y-86518388D01*
X67351874Y-86526035D01*
X67351873Y-86526036D01*
X67349018Y-86529125D01*
X67322788Y-86557501D01*
X67322146Y-86558195D01*
X67318716Y-86561761D01*
X67176882Y-86703595D01*
X67114570Y-86737621D01*
X67087787Y-86740500D01*
X66550596Y-86740500D01*
X66482475Y-86720498D01*
X66461501Y-86703595D01*
X66386771Y-86628865D01*
X66275427Y-86572132D01*
X66265637Y-86570581D01*
X66265636Y-86570581D01*
X66231395Y-86565158D01*
X66183045Y-86557500D01*
X66012035Y-86557500D01*
X65840956Y-86557501D01*
X65832937Y-86558771D01*
X65758371Y-86570580D01*
X65758369Y-86570581D01*
X65748573Y-86572132D01*
X65739736Y-86576635D01*
X65739735Y-86576635D01*
X65692046Y-86600934D01*
X65622269Y-86614038D01*
X65556484Y-86587338D01*
X65515578Y-86529310D01*
X65512538Y-86458379D01*
X65522576Y-86431465D01*
X65527552Y-86421698D01*
X65527552Y-86421697D01*
X65532054Y-86412862D01*
X65546500Y-86321653D01*
X65546499Y-85890348D01*
X65544453Y-85877428D01*
X65533606Y-85808936D01*
X65533605Y-85808934D01*
X65532054Y-85799138D01*
X65516764Y-85769129D01*
X65503660Y-85699354D01*
X65530360Y-85633569D01*
X65588387Y-85592662D01*
X65659319Y-85589621D01*
X65686234Y-85599660D01*
X65785138Y-85650054D01*
X65794927Y-85651604D01*
X65794929Y-85651605D01*
X65815368Y-85654842D01*
X65876347Y-85664500D01*
X66041966Y-85664500D01*
X66207652Y-85664499D01*
X66224682Y-85661802D01*
X66289064Y-85651606D01*
X66289066Y-85651605D01*
X66298862Y-85650054D01*
X66408796Y-85594040D01*
X66494431Y-85508405D01*
X66556743Y-85474379D01*
X66583526Y-85471500D01*
X66599544Y-85471500D01*
X66667665Y-85491502D01*
X66676248Y-85497538D01*
X66759508Y-85561426D01*
X66776357Y-85574355D01*
X66911246Y-85630228D01*
X66919434Y-85631306D01*
X66967288Y-85637606D01*
X67056000Y-85649285D01*
X67064188Y-85648207D01*
X67084348Y-85645553D01*
X67144712Y-85637606D01*
X67192566Y-85631306D01*
X67200754Y-85630228D01*
X67335643Y-85574355D01*
X67342196Y-85569327D01*
X67444921Y-85490503D01*
X67444924Y-85490500D01*
X67451474Y-85485474D01*
X67457746Y-85477301D01*
X67527577Y-85386294D01*
X67540355Y-85369642D01*
X67545675Y-85356800D01*
X67576422Y-85282570D01*
X67596228Y-85234754D01*
X67599290Y-85211501D01*
X67614207Y-85098188D01*
X67615285Y-85090000D01*
X67610163Y-85051092D01*
X67597306Y-84953432D01*
X67597305Y-84953430D01*
X67596228Y-84945246D01*
X67556911Y-84850328D01*
X67543515Y-84817986D01*
X67543514Y-84817984D01*
X67540355Y-84810358D01*
X67482260Y-84734647D01*
X67456501Y-84701077D01*
X67456500Y-84701076D01*
X67451474Y-84694526D01*
X67435100Y-84681962D01*
X67393233Y-84624626D01*
X67389011Y-84553755D01*
X67423774Y-84491851D01*
X67435095Y-84482042D01*
X67451474Y-84469474D01*
X67457937Y-84461052D01*
X67535328Y-84360193D01*
X67540355Y-84353642D01*
X67550977Y-84328000D01*
X67584375Y-84247370D01*
X67596228Y-84218754D01*
X67599785Y-84191740D01*
X67614207Y-84082188D01*
X67615285Y-84074000D01*
X67607754Y-84016797D01*
X67597306Y-83937432D01*
X67597305Y-83937430D01*
X67596228Y-83929246D01*
X67540355Y-83794358D01*
X67461864Y-83692066D01*
X67456501Y-83685077D01*
X67456500Y-83685076D01*
X67451474Y-83678526D01*
X67435100Y-83665962D01*
X67393233Y-83608626D01*
X67389011Y-83537755D01*
X67423774Y-83475851D01*
X67435095Y-83466042D01*
X67451474Y-83453474D01*
X67459988Y-83442379D01*
X67528428Y-83353185D01*
X67540355Y-83337642D01*
X67545053Y-83326302D01*
X67589786Y-83218306D01*
X67596228Y-83202754D01*
X67602082Y-83158293D01*
X67614207Y-83066188D01*
X67615285Y-83058000D01*
X67609120Y-83011169D01*
X67597306Y-82921432D01*
X67597305Y-82921430D01*
X67596228Y-82913246D01*
X67559055Y-82823503D01*
X67543515Y-82785986D01*
X67543514Y-82785984D01*
X67540355Y-82778358D01*
X67482256Y-82702642D01*
X67456501Y-82669077D01*
X67456500Y-82669076D01*
X67451474Y-82662526D01*
X67444924Y-82657500D01*
X67444921Y-82657497D01*
X67342196Y-82578673D01*
X67342194Y-82578672D01*
X67335643Y-82573645D01*
X67200754Y-82517772D01*
X67056000Y-82498715D01*
X67047812Y-82499793D01*
X66919432Y-82516694D01*
X66919430Y-82516695D01*
X66911246Y-82517772D01*
X66894731Y-82524613D01*
X66783986Y-82570485D01*
X66783984Y-82570486D01*
X66776358Y-82573645D01*
X66769805Y-82578673D01*
X66769802Y-82578675D01*
X66676247Y-82650462D01*
X66610027Y-82676063D01*
X66599543Y-82676500D01*
X66583526Y-82676500D01*
X66515405Y-82656498D01*
X66494431Y-82639595D01*
X66408796Y-82553960D01*
X66298862Y-82497946D01*
X66289073Y-82496396D01*
X66289071Y-82496395D01*
X66259836Y-82491765D01*
X66207653Y-82483500D01*
X66042034Y-82483500D01*
X65876348Y-82483501D01*
X65871455Y-82484276D01*
X65871454Y-82484276D01*
X65794936Y-82496394D01*
X65794934Y-82496395D01*
X65785138Y-82497946D01*
X65776301Y-82502449D01*
X65776300Y-82502449D01*
X65686234Y-82548340D01*
X65616457Y-82561444D01*
X65550672Y-82534744D01*
X65509766Y-82476716D01*
X65506726Y-82405785D01*
X65516764Y-82378870D01*
X65526320Y-82360115D01*
X65532054Y-82348862D01*
X65533744Y-82338196D01*
X65540072Y-82298240D01*
X65546500Y-82257653D01*
X65546499Y-81826348D01*
X65544487Y-81813642D01*
X65533606Y-81744936D01*
X65533605Y-81744934D01*
X65532054Y-81735138D01*
X65476040Y-81625204D01*
X65388796Y-81537960D01*
X65278862Y-81481946D01*
X65269073Y-81480396D01*
X65269071Y-81480395D01*
X65242579Y-81476199D01*
X65187653Y-81467500D01*
X65022034Y-81467500D01*
X64856348Y-81467501D01*
X64851455Y-81468276D01*
X64851454Y-81468276D01*
X64774936Y-81480394D01*
X64774934Y-81480395D01*
X64765138Y-81481946D01*
X64655204Y-81537960D01*
X64567960Y-81625204D01*
X64567686Y-81625742D01*
X64515560Y-81665936D01*
X64510797Y-81667552D01*
X64502093Y-81668582D01*
X64493794Y-81672567D01*
X64484717Y-81674078D01*
X64475550Y-81679024D01*
X64471313Y-81680475D01*
X64400386Y-81683617D01*
X64339020Y-81647914D01*
X64306697Y-81584702D01*
X64304499Y-81561268D01*
X64304499Y-81348934D01*
X64294341Y-81297861D01*
X64292156Y-81286874D01*
X64292155Y-81286872D01*
X64289734Y-81274699D01*
X64280769Y-81261281D01*
X64240377Y-81200832D01*
X64233484Y-81190516D01*
X64149301Y-81134266D01*
X64075067Y-81119500D01*
X64012110Y-81119500D01*
X63065820Y-81119501D01*
X62997699Y-81099499D01*
X62951206Y-81045843D01*
X62942306Y-81018408D01*
X62940278Y-81008349D01*
X62940277Y-81008347D01*
X62938580Y-80999929D01*
X62915396Y-80954428D01*
X62873508Y-80872217D01*
X62873506Y-80872214D01*
X62869608Y-80864564D01*
X62845907Y-80838789D01*
X62772584Y-80759052D01*
X62772583Y-80759051D01*
X62766774Y-80752734D01*
X62724943Y-80726797D01*
X62644956Y-80677203D01*
X62644955Y-80677202D01*
X62637656Y-80672677D01*
X62491765Y-80630291D01*
X62480993Y-80629500D01*
X62371943Y-80629500D01*
X62367697Y-80630082D01*
X62367691Y-80630082D01*
X62288946Y-80640869D01*
X62259482Y-80644905D01*
X62251598Y-80648317D01*
X62251597Y-80648317D01*
X62200008Y-80670642D01*
X62120054Y-80705242D01*
X62113381Y-80710646D01*
X62008661Y-80795445D01*
X62008659Y-80795447D01*
X62001987Y-80800850D01*
X61997013Y-80807849D01*
X61997012Y-80807850D01*
X61951692Y-80871621D01*
X61913980Y-80924687D01*
X61862518Y-81067629D01*
X61861889Y-81076189D01*
X61861889Y-81076191D01*
X61858709Y-81119500D01*
X61851391Y-81219145D01*
X61881420Y-81368071D01*
X61885320Y-81375725D01*
X61946492Y-81495783D01*
X61946494Y-81495786D01*
X61950392Y-81503436D01*
X61956205Y-81509757D01*
X61956206Y-81509759D01*
X62046335Y-81607772D01*
X62053226Y-81615266D01*
X62058938Y-81618808D01*
X62098173Y-81676896D01*
X62099794Y-81747874D01*
X62067214Y-81804242D01*
X61394739Y-82476716D01*
X60728521Y-83142934D01*
X60709505Y-83158293D01*
X60708444Y-83159259D01*
X60699696Y-83164907D01*
X60681387Y-83188132D01*
X60678771Y-83191450D01*
X60674794Y-83195925D01*
X60674865Y-83195986D01*
X60671512Y-83199943D01*
X60667829Y-83203626D01*
X60664803Y-83207861D01*
X60664801Y-83207863D01*
X60656547Y-83219414D01*
X60652984Y-83224160D01*
X60621066Y-83264648D01*
X60618015Y-83273335D01*
X60612666Y-83280821D01*
X60609683Y-83290797D01*
X60609682Y-83290798D01*
X60602506Y-83314795D01*
X60599544Y-83324700D01*
X60597902Y-83330189D01*
X60596072Y-83335821D01*
X60578984Y-83384480D01*
X60578500Y-83390069D01*
X60578500Y-83392780D01*
X60578385Y-83395447D01*
X60578366Y-83395510D01*
X60578192Y-83395503D01*
X60578145Y-83396249D01*
X60576275Y-83402502D01*
X60576684Y-83412906D01*
X60578403Y-83456656D01*
X60578500Y-83461603D01*
X60578500Y-87800787D01*
X60558498Y-87868908D01*
X60541595Y-87889882D01*
X59414154Y-89017323D01*
X59351842Y-89051349D01*
X59341508Y-89053150D01*
X59309027Y-89057426D01*
X59223432Y-89068694D01*
X59223430Y-89068695D01*
X59215246Y-89069772D01*
X59207619Y-89072931D01*
X59207620Y-89072931D01*
X59087986Y-89122485D01*
X59087984Y-89122486D01*
X59080358Y-89125645D01*
X58964526Y-89214526D01*
X58875645Y-89330358D01*
X58872486Y-89337984D01*
X58872485Y-89337986D01*
X58857980Y-89373005D01*
X58819772Y-89465246D01*
X58818695Y-89473430D01*
X58818694Y-89473432D01*
X58811513Y-89527977D01*
X58800715Y-89610000D01*
X58801793Y-89618188D01*
X58818586Y-89745743D01*
X58819772Y-89754754D01*
X58875645Y-89889642D01*
X58894567Y-89914302D01*
X58958671Y-89997843D01*
X58964526Y-90005474D01*
X58971076Y-90010500D01*
X58971079Y-90010503D01*
X59069673Y-90086157D01*
X59080357Y-90094355D01*
X59215246Y-90150228D01*
X59223434Y-90151306D01*
X59267946Y-90157166D01*
X59332873Y-90185888D01*
X59371965Y-90245153D01*
X59377500Y-90282088D01*
X59377500Y-91200756D01*
X59377869Y-91204152D01*
X59377869Y-91204153D01*
X59381721Y-91239606D01*
X59384202Y-91262448D01*
X59434929Y-91397764D01*
X59440309Y-91404943D01*
X59440311Y-91404946D01*
X59505506Y-91491935D01*
X59530354Y-91558442D01*
X59515301Y-91627824D01*
X59465127Y-91678054D01*
X59404680Y-91693500D01*
X57022500Y-91693500D01*
X56954379Y-91673498D01*
X56907886Y-91619842D01*
X56896500Y-91567500D01*
X56896500Y-76326500D01*
X56916502Y-76258379D01*
X56970158Y-76211886D01*
X57022500Y-76200500D01*
X59529089Y-76200500D01*
X59597210Y-76220502D01*
G37*
%TD.AperFunction*%
%TA.AperFunction,Conductor*%
G36*
X90873621Y-76220502D02*
G01*
X90920114Y-76274158D01*
X90931500Y-76326500D01*
X90931500Y-80438373D01*
X90911498Y-80506494D01*
X90857842Y-80552987D01*
X90787568Y-80563091D01*
X90722988Y-80533597D01*
X90706842Y-80515297D01*
X90702377Y-80510832D01*
X90695484Y-80500516D01*
X90611301Y-80444266D01*
X90537067Y-80429500D01*
X89662142Y-80429500D01*
X88786934Y-80429501D01*
X88751182Y-80436612D01*
X88724874Y-80441844D01*
X88724872Y-80441845D01*
X88712699Y-80444266D01*
X88702379Y-80451161D01*
X88702378Y-80451162D01*
X88660480Y-80479158D01*
X88628516Y-80500516D01*
X88572266Y-80584699D01*
X88557500Y-80658933D01*
X88557501Y-82409066D01*
X88564539Y-82444453D01*
X88567498Y-82459327D01*
X88572266Y-82483301D01*
X88579161Y-82493621D01*
X88579162Y-82493622D01*
X88616473Y-82549460D01*
X88628516Y-82567484D01*
X88712699Y-82623734D01*
X88786933Y-82638500D01*
X89661858Y-82638500D01*
X90537066Y-82638499D01*
X90573749Y-82631203D01*
X90599126Y-82626156D01*
X90599128Y-82626155D01*
X90611301Y-82623734D01*
X90621621Y-82616839D01*
X90621622Y-82616838D01*
X90685168Y-82574377D01*
X90695484Y-82567484D01*
X90702377Y-82557168D01*
X90711154Y-82548391D01*
X90712530Y-82549767D01*
X90755210Y-82514098D01*
X90825653Y-82505249D01*
X90889697Y-82535889D01*
X90927010Y-82596290D01*
X90931500Y-82629627D01*
X90931500Y-83610492D01*
X90911498Y-83678613D01*
X90857842Y-83725106D01*
X90787568Y-83735210D01*
X90722988Y-83705716D01*
X90692494Y-83666220D01*
X90610331Y-83499609D01*
X90607776Y-83494428D01*
X90581696Y-83459502D01*
X90548952Y-83415653D01*
X90486320Y-83331779D01*
X90354992Y-83210380D01*
X90341503Y-83197911D01*
X90337258Y-83193987D01*
X90332375Y-83190906D01*
X90332371Y-83190903D01*
X90170464Y-83088748D01*
X90165581Y-83085667D01*
X89977039Y-83010446D01*
X89971379Y-83009320D01*
X89971375Y-83009319D01*
X89783613Y-82971971D01*
X89783610Y-82971971D01*
X89777946Y-82970844D01*
X89772171Y-82970768D01*
X89772167Y-82970768D01*
X89670793Y-82969441D01*
X89574971Y-82968187D01*
X89569274Y-82969166D01*
X89569273Y-82969166D01*
X89380607Y-83001585D01*
X89374910Y-83002564D01*
X89184463Y-83072824D01*
X89010010Y-83176612D01*
X89005670Y-83180418D01*
X89005666Y-83180421D01*
X88908702Y-83265457D01*
X88857392Y-83310455D01*
X88731720Y-83469869D01*
X88729031Y-83474980D01*
X88729029Y-83474983D01*
X88698666Y-83532694D01*
X88637203Y-83649515D01*
X88577007Y-83843378D01*
X88553148Y-84044964D01*
X88566424Y-84247522D01*
X88567845Y-84253118D01*
X88567846Y-84253123D01*
X88614971Y-84438674D01*
X88616392Y-84444269D01*
X88618809Y-84449512D01*
X88672032Y-84564962D01*
X88701377Y-84628616D01*
X88704710Y-84633332D01*
X88810507Y-84783032D01*
X88818533Y-84794389D01*
X88822675Y-84798424D01*
X88879637Y-84853913D01*
X88963938Y-84936035D01*
X89132720Y-85048812D01*
X89138023Y-85051090D01*
X89138026Y-85051092D01*
X89247646Y-85098188D01*
X89319228Y-85128942D01*
X89370042Y-85140440D01*
X89511579Y-85172467D01*
X89511584Y-85172468D01*
X89517216Y-85173742D01*
X89522987Y-85173969D01*
X89522989Y-85173969D01*
X89582756Y-85176317D01*
X89720053Y-85181712D01*
X89841921Y-85164042D01*
X89915231Y-85153413D01*
X89915236Y-85153412D01*
X89920945Y-85152584D01*
X89926409Y-85150729D01*
X89926414Y-85150728D01*
X90107693Y-85089192D01*
X90107698Y-85089190D01*
X90113165Y-85087334D01*
X90123026Y-85081812D01*
X90220374Y-85027294D01*
X90290276Y-84988147D01*
X90352934Y-84936035D01*
X90441913Y-84862031D01*
X90446345Y-84858345D01*
X90486256Y-84810358D01*
X90572453Y-84706718D01*
X90572455Y-84706715D01*
X90576147Y-84702276D01*
X90675334Y-84525165D01*
X90677190Y-84519698D01*
X90677192Y-84519693D01*
X90686187Y-84493193D01*
X90727024Y-84435117D01*
X90792777Y-84408338D01*
X90862569Y-84421359D01*
X90914242Y-84470046D01*
X90931500Y-84533694D01*
X90931500Y-91567500D01*
X90911498Y-91635621D01*
X90857842Y-91682114D01*
X90805500Y-91693500D01*
X76838980Y-91693500D01*
X76770859Y-91673498D01*
X76724366Y-91619842D01*
X76714262Y-91549568D01*
X76726713Y-91510297D01*
X76736069Y-91491935D01*
X76760054Y-91444862D01*
X76774500Y-91353653D01*
X76774499Y-91022348D01*
X76760054Y-90931138D01*
X76740955Y-90893653D01*
X76709660Y-90832234D01*
X76696556Y-90762457D01*
X76723256Y-90696672D01*
X76781284Y-90655766D01*
X76852215Y-90652726D01*
X76879129Y-90662764D01*
X76909138Y-90678054D01*
X76918927Y-90679604D01*
X76918929Y-90679605D01*
X76943510Y-90683498D01*
X77000347Y-90692500D01*
X77215956Y-90692500D01*
X77431652Y-90692499D01*
X77448903Y-90689767D01*
X77513064Y-90679606D01*
X77513066Y-90679605D01*
X77522862Y-90678054D01*
X77552871Y-90662764D01*
X77592380Y-90642633D01*
X77632796Y-90622040D01*
X77639808Y-90615028D01*
X77647828Y-90609201D01*
X77649739Y-90611831D01*
X77697217Y-90585905D01*
X77768032Y-90590970D01*
X77798971Y-90610854D01*
X77800172Y-90609201D01*
X77808192Y-90615028D01*
X77815204Y-90622040D01*
X77925138Y-90678054D01*
X77934927Y-90679604D01*
X77934929Y-90679605D01*
X77959510Y-90683498D01*
X78016347Y-90692500D01*
X78021302Y-90692500D01*
X78026231Y-90692888D01*
X78026156Y-90693847D01*
X78067603Y-90702092D01*
X78079613Y-90707067D01*
X78079618Y-90707068D01*
X78087246Y-90710228D01*
X78095434Y-90711306D01*
X78111074Y-90713365D01*
X78232000Y-90729285D01*
X78240188Y-90728207D01*
X78368568Y-90711306D01*
X78368570Y-90711305D01*
X78376754Y-90710228D01*
X78384385Y-90707067D01*
X78396402Y-90702090D01*
X78437843Y-90693847D01*
X78437767Y-90692887D01*
X78442698Y-90692499D01*
X78447652Y-90692499D01*
X78464903Y-90689767D01*
X78529064Y-90679606D01*
X78529066Y-90679605D01*
X78538862Y-90678054D01*
X78568871Y-90662764D01*
X78608380Y-90642633D01*
X78648796Y-90622040D01*
X78736040Y-90534796D01*
X78792054Y-90424862D01*
X78806500Y-90333653D01*
X78806499Y-90002348D01*
X78805724Y-89997454D01*
X78793606Y-89920936D01*
X78793605Y-89920934D01*
X78792054Y-89911138D01*
X78780361Y-89888188D01*
X78740540Y-89810036D01*
X78736040Y-89801204D01*
X78648796Y-89713960D01*
X78538862Y-89657946D01*
X78529073Y-89656396D01*
X78529071Y-89656395D01*
X78502579Y-89652199D01*
X78447653Y-89643500D01*
X78434961Y-89643500D01*
X78392375Y-89635030D01*
X78392364Y-89635070D01*
X78391750Y-89634905D01*
X78386745Y-89633910D01*
X78384383Y-89632932D01*
X78376754Y-89629772D01*
X78368570Y-89628695D01*
X78368568Y-89628694D01*
X78240188Y-89611793D01*
X78232000Y-89610715D01*
X78223812Y-89611793D01*
X78124694Y-89624842D01*
X78087246Y-89629772D01*
X78077256Y-89633910D01*
X78072261Y-89634904D01*
X78071640Y-89635070D01*
X78071629Y-89635029D01*
X78029040Y-89643501D01*
X78016348Y-89643501D01*
X78011455Y-89644276D01*
X78011454Y-89644276D01*
X77934936Y-89656394D01*
X77934934Y-89656395D01*
X77925138Y-89657946D01*
X77916301Y-89662449D01*
X77916300Y-89662449D01*
X77884802Y-89678498D01*
X77815204Y-89713960D01*
X77808193Y-89720971D01*
X77800172Y-89726799D01*
X77798261Y-89724169D01*
X77750783Y-89750095D01*
X77679968Y-89745030D01*
X77649029Y-89725146D01*
X77647828Y-89726799D01*
X77639807Y-89720971D01*
X77632796Y-89713960D01*
X77522862Y-89657946D01*
X77513073Y-89656396D01*
X77513071Y-89656395D01*
X77486579Y-89652199D01*
X77431653Y-89643500D01*
X77216044Y-89643500D01*
X77000348Y-89643501D01*
X76995455Y-89644276D01*
X76995454Y-89644276D01*
X76918936Y-89656394D01*
X76918934Y-89656395D01*
X76909138Y-89657946D01*
X76900301Y-89662449D01*
X76900300Y-89662449D01*
X76872565Y-89676581D01*
X76829547Y-89698500D01*
X76827060Y-89699767D01*
X76769857Y-89713500D01*
X76646143Y-89713500D01*
X76588940Y-89699767D01*
X76587178Y-89698869D01*
X76506862Y-89657946D01*
X76497073Y-89656396D01*
X76497071Y-89656395D01*
X76470579Y-89652199D01*
X76415653Y-89643500D01*
X76267213Y-89643500D01*
X76199092Y-89623498D01*
X76178118Y-89606595D01*
X76068484Y-89496961D01*
X76034458Y-89434649D01*
X76039523Y-89363834D01*
X76082070Y-89306998D01*
X76148484Y-89282227D01*
X76156000Y-89283417D01*
X76165793Y-89281866D01*
X76269636Y-89265419D01*
X76269638Y-89265419D01*
X76279427Y-89263868D01*
X76390771Y-89207135D01*
X76479135Y-89118771D01*
X76535868Y-89007427D01*
X76550500Y-88915045D01*
X76550500Y-88631500D01*
X76570502Y-88563379D01*
X76624158Y-88516886D01*
X76676500Y-88505500D01*
X78890365Y-88505500D01*
X78914664Y-88508086D01*
X78916102Y-88508154D01*
X78926280Y-88510345D01*
X78959841Y-88506373D01*
X78965820Y-88506021D01*
X78965812Y-88505928D01*
X78970990Y-88505500D01*
X78976192Y-88505500D01*
X78995346Y-88502312D01*
X79001204Y-88501478D01*
X79017818Y-88499512D01*
X79042067Y-88496642D01*
X79042068Y-88496642D01*
X79052407Y-88495418D01*
X79060706Y-88491433D01*
X79069783Y-88489922D01*
X79115151Y-88465442D01*
X79120414Y-88462761D01*
X79159750Y-88443873D01*
X79159754Y-88443870D01*
X79166898Y-88440440D01*
X79171192Y-88436830D01*
X79173124Y-88434898D01*
X79175073Y-88433111D01*
X79175126Y-88433082D01*
X79175245Y-88433212D01*
X79175813Y-88432711D01*
X79181557Y-88429612D01*
X79218367Y-88389791D01*
X79221796Y-88386226D01*
X80431980Y-87176042D01*
X80450989Y-87160689D01*
X80452052Y-87159722D01*
X80460804Y-87154071D01*
X80481729Y-87127528D01*
X80485708Y-87123050D01*
X80485637Y-87122990D01*
X80488990Y-87119033D01*
X80492671Y-87115352D01*
X80503969Y-87099543D01*
X80507532Y-87094798D01*
X80532985Y-87062510D01*
X80539434Y-87054330D01*
X80542484Y-87045645D01*
X80547834Y-87038158D01*
X80562609Y-86988753D01*
X80564430Y-86983150D01*
X80565430Y-86980304D01*
X80581516Y-86934498D01*
X80582000Y-86928909D01*
X80582000Y-86926196D01*
X80582115Y-86923531D01*
X80582134Y-86923468D01*
X80582308Y-86923475D01*
X80582355Y-86922729D01*
X80584225Y-86916476D01*
X80582097Y-86862322D01*
X80582000Y-86857375D01*
X80582000Y-86584964D01*
X80933148Y-86584964D01*
X80946424Y-86787522D01*
X80947845Y-86793118D01*
X80947846Y-86793123D01*
X80994009Y-86974886D01*
X80996392Y-86984269D01*
X80998809Y-86989512D01*
X81036010Y-87070208D01*
X81081377Y-87168616D01*
X81107444Y-87205500D01*
X81180714Y-87309175D01*
X81198533Y-87334389D01*
X81202675Y-87338424D01*
X81304230Y-87437354D01*
X81343938Y-87476035D01*
X81512720Y-87588812D01*
X81518023Y-87591090D01*
X81518026Y-87591092D01*
X81606707Y-87629192D01*
X81699228Y-87668942D01*
X81768519Y-87684621D01*
X81891579Y-87712467D01*
X81891584Y-87712468D01*
X81897216Y-87713742D01*
X81902987Y-87713969D01*
X81902989Y-87713969D01*
X81962756Y-87716317D01*
X82100053Y-87721712D01*
X82211203Y-87705596D01*
X82295231Y-87693413D01*
X82295236Y-87693412D01*
X82300945Y-87692584D01*
X82306409Y-87690729D01*
X82306414Y-87690728D01*
X82487693Y-87629192D01*
X82487698Y-87629190D01*
X82493165Y-87627334D01*
X82512511Y-87616500D01*
X82625253Y-87553361D01*
X82670276Y-87528147D01*
X82681876Y-87518500D01*
X82821913Y-87402031D01*
X82826345Y-87398345D01*
X82897880Y-87312334D01*
X82952453Y-87246718D01*
X82952455Y-87246715D01*
X82956147Y-87242276D01*
X83027228Y-87115352D01*
X83052510Y-87070208D01*
X83052511Y-87070206D01*
X83055334Y-87065165D01*
X83057190Y-87059698D01*
X83057192Y-87059693D01*
X83118728Y-86878414D01*
X83118729Y-86878409D01*
X83120584Y-86872945D01*
X83121412Y-86867236D01*
X83121413Y-86867231D01*
X83144980Y-86704687D01*
X83149712Y-86672053D01*
X83151232Y-86614000D01*
X83148564Y-86584964D01*
X83473148Y-86584964D01*
X83486424Y-86787522D01*
X83487845Y-86793118D01*
X83487846Y-86793123D01*
X83534009Y-86974886D01*
X83536392Y-86984269D01*
X83538809Y-86989512D01*
X83576010Y-87070208D01*
X83621377Y-87168616D01*
X83647444Y-87205500D01*
X83720714Y-87309175D01*
X83738533Y-87334389D01*
X83742675Y-87338424D01*
X83844230Y-87437354D01*
X83883938Y-87476035D01*
X84052720Y-87588812D01*
X84058023Y-87591090D01*
X84058026Y-87591092D01*
X84146707Y-87629192D01*
X84239228Y-87668942D01*
X84308519Y-87684621D01*
X84431579Y-87712467D01*
X84431584Y-87712468D01*
X84437216Y-87713742D01*
X84442987Y-87713969D01*
X84442989Y-87713969D01*
X84502756Y-87716317D01*
X84640053Y-87721712D01*
X84751203Y-87705596D01*
X84835231Y-87693413D01*
X84835236Y-87693412D01*
X84840945Y-87692584D01*
X84846409Y-87690729D01*
X84846414Y-87690728D01*
X85027693Y-87629192D01*
X85027698Y-87629190D01*
X85033165Y-87627334D01*
X85052511Y-87616500D01*
X85165253Y-87553361D01*
X85210276Y-87528147D01*
X85221876Y-87518500D01*
X85361913Y-87402031D01*
X85366345Y-87398345D01*
X85437880Y-87312334D01*
X85492453Y-87246718D01*
X85492455Y-87246715D01*
X85496147Y-87242276D01*
X85567228Y-87115352D01*
X85592510Y-87070208D01*
X85592511Y-87070206D01*
X85595334Y-87065165D01*
X85597190Y-87059698D01*
X85597192Y-87059693D01*
X85658728Y-86878414D01*
X85658729Y-86878409D01*
X85660584Y-86872945D01*
X85661412Y-86867236D01*
X85661413Y-86867231D01*
X85684980Y-86704687D01*
X85689712Y-86672053D01*
X85691232Y-86614000D01*
X85688564Y-86584964D01*
X86013148Y-86584964D01*
X86026424Y-86787522D01*
X86027845Y-86793118D01*
X86027846Y-86793123D01*
X86074009Y-86974886D01*
X86076392Y-86984269D01*
X86078809Y-86989512D01*
X86116010Y-87070208D01*
X86161377Y-87168616D01*
X86187444Y-87205500D01*
X86260714Y-87309175D01*
X86278533Y-87334389D01*
X86282675Y-87338424D01*
X86384230Y-87437354D01*
X86423938Y-87476035D01*
X86592720Y-87588812D01*
X86598023Y-87591090D01*
X86598026Y-87591092D01*
X86686707Y-87629192D01*
X86779228Y-87668942D01*
X86848519Y-87684621D01*
X86971579Y-87712467D01*
X86971584Y-87712468D01*
X86977216Y-87713742D01*
X86982987Y-87713969D01*
X86982989Y-87713969D01*
X87042756Y-87716317D01*
X87180053Y-87721712D01*
X87291203Y-87705596D01*
X87375231Y-87693413D01*
X87375236Y-87693412D01*
X87380945Y-87692584D01*
X87386409Y-87690729D01*
X87386414Y-87690728D01*
X87567693Y-87629192D01*
X87567698Y-87629190D01*
X87573165Y-87627334D01*
X87592511Y-87616500D01*
X87705253Y-87553361D01*
X87750276Y-87528147D01*
X87761876Y-87518500D01*
X87901913Y-87402031D01*
X87906345Y-87398345D01*
X87977880Y-87312334D01*
X88032453Y-87246718D01*
X88032455Y-87246715D01*
X88036147Y-87242276D01*
X88107228Y-87115352D01*
X88132510Y-87070208D01*
X88132511Y-87070206D01*
X88135334Y-87065165D01*
X88137190Y-87059698D01*
X88137192Y-87059693D01*
X88198728Y-86878414D01*
X88198729Y-86878409D01*
X88200584Y-86872945D01*
X88201412Y-86867236D01*
X88201413Y-86867231D01*
X88224980Y-86704687D01*
X88229712Y-86672053D01*
X88231232Y-86614000D01*
X88217305Y-86462433D01*
X88213187Y-86417613D01*
X88213186Y-86417610D01*
X88212658Y-86411859D01*
X88206475Y-86389937D01*
X88159125Y-86222046D01*
X88159124Y-86222044D01*
X88157557Y-86216487D01*
X88154538Y-86210364D01*
X88070331Y-86039609D01*
X88067776Y-86034428D01*
X88040950Y-85998503D01*
X87960186Y-85890348D01*
X87946320Y-85871779D01*
X87797258Y-85733987D01*
X87792375Y-85730906D01*
X87792371Y-85730903D01*
X87630464Y-85628748D01*
X87625581Y-85625667D01*
X87437039Y-85550446D01*
X87431379Y-85549320D01*
X87431375Y-85549319D01*
X87243613Y-85511971D01*
X87243610Y-85511971D01*
X87237946Y-85510844D01*
X87232171Y-85510768D01*
X87232167Y-85510768D01*
X87130793Y-85509441D01*
X87034971Y-85508187D01*
X87029274Y-85509166D01*
X87029273Y-85509166D01*
X86984864Y-85516797D01*
X86834910Y-85542564D01*
X86644463Y-85612824D01*
X86470010Y-85716612D01*
X86465670Y-85720418D01*
X86465666Y-85720421D01*
X86321733Y-85846648D01*
X86317392Y-85850455D01*
X86191720Y-86009869D01*
X86189031Y-86014980D01*
X86189029Y-86014983D01*
X86162229Y-86065921D01*
X86097203Y-86189515D01*
X86055022Y-86325361D01*
X86041521Y-86368842D01*
X86037007Y-86383378D01*
X86013148Y-86584964D01*
X85688564Y-86584964D01*
X85677305Y-86462433D01*
X85673187Y-86417613D01*
X85673186Y-86417610D01*
X85672658Y-86411859D01*
X85666475Y-86389937D01*
X85619125Y-86222046D01*
X85619124Y-86222044D01*
X85617557Y-86216487D01*
X85614538Y-86210364D01*
X85530331Y-86039609D01*
X85527776Y-86034428D01*
X85500950Y-85998503D01*
X85420186Y-85890348D01*
X85406320Y-85871779D01*
X85257258Y-85733987D01*
X85252375Y-85730906D01*
X85252371Y-85730903D01*
X85090464Y-85628748D01*
X85085581Y-85625667D01*
X84897039Y-85550446D01*
X84891379Y-85549320D01*
X84891375Y-85549319D01*
X84703613Y-85511971D01*
X84703610Y-85511971D01*
X84697946Y-85510844D01*
X84692171Y-85510768D01*
X84692167Y-85510768D01*
X84590793Y-85509441D01*
X84494971Y-85508187D01*
X84489274Y-85509166D01*
X84489273Y-85509166D01*
X84444864Y-85516797D01*
X84294910Y-85542564D01*
X84104463Y-85612824D01*
X83930010Y-85716612D01*
X83925670Y-85720418D01*
X83925666Y-85720421D01*
X83781733Y-85846648D01*
X83777392Y-85850455D01*
X83651720Y-86009869D01*
X83649031Y-86014980D01*
X83649029Y-86014983D01*
X83622229Y-86065921D01*
X83557203Y-86189515D01*
X83515022Y-86325361D01*
X83501521Y-86368842D01*
X83497007Y-86383378D01*
X83473148Y-86584964D01*
X83148564Y-86584964D01*
X83137305Y-86462433D01*
X83133187Y-86417613D01*
X83133186Y-86417610D01*
X83132658Y-86411859D01*
X83126475Y-86389937D01*
X83079125Y-86222046D01*
X83079124Y-86222044D01*
X83077557Y-86216487D01*
X83074538Y-86210364D01*
X82990331Y-86039609D01*
X82987776Y-86034428D01*
X82960950Y-85998503D01*
X82880186Y-85890348D01*
X82866320Y-85871779D01*
X82717258Y-85733987D01*
X82712375Y-85730906D01*
X82712371Y-85730903D01*
X82550464Y-85628748D01*
X82545581Y-85625667D01*
X82357039Y-85550446D01*
X82351379Y-85549320D01*
X82351375Y-85549319D01*
X82163613Y-85511971D01*
X82163610Y-85511971D01*
X82157946Y-85510844D01*
X82152171Y-85510768D01*
X82152167Y-85510768D01*
X82050793Y-85509441D01*
X81954971Y-85508187D01*
X81949274Y-85509166D01*
X81949273Y-85509166D01*
X81904864Y-85516797D01*
X81754910Y-85542564D01*
X81564463Y-85612824D01*
X81390010Y-85716612D01*
X81385670Y-85720418D01*
X81385666Y-85720421D01*
X81241733Y-85846648D01*
X81237392Y-85850455D01*
X81111720Y-86009869D01*
X81109031Y-86014980D01*
X81109029Y-86014983D01*
X81082229Y-86065921D01*
X81017203Y-86189515D01*
X80975022Y-86325361D01*
X80961521Y-86368842D01*
X80957007Y-86383378D01*
X80933148Y-86584964D01*
X80582000Y-86584964D01*
X80582000Y-86125712D01*
X80602002Y-86057591D01*
X80618901Y-86036621D01*
X81518088Y-85137435D01*
X81580398Y-85103411D01*
X81656920Y-85110765D01*
X81693917Y-85126661D01*
X81693925Y-85126663D01*
X81699228Y-85128942D01*
X81750042Y-85140440D01*
X81891579Y-85172467D01*
X81891584Y-85172468D01*
X81897216Y-85173742D01*
X81902987Y-85173969D01*
X81902989Y-85173969D01*
X81962756Y-85176317D01*
X82100053Y-85181712D01*
X82221921Y-85164042D01*
X82295231Y-85153413D01*
X82295236Y-85153412D01*
X82300945Y-85152584D01*
X82306409Y-85150729D01*
X82306414Y-85150728D01*
X82487693Y-85089192D01*
X82487698Y-85089190D01*
X82493165Y-85087334D01*
X82503026Y-85081812D01*
X82600374Y-85027294D01*
X82670276Y-84988147D01*
X82732934Y-84936035D01*
X82821913Y-84862031D01*
X82826345Y-84858345D01*
X82866256Y-84810358D01*
X82952453Y-84706718D01*
X82952455Y-84706715D01*
X82956147Y-84702276D01*
X83055334Y-84525165D01*
X83057190Y-84519698D01*
X83057192Y-84519693D01*
X83118728Y-84338414D01*
X83118729Y-84338409D01*
X83120584Y-84332945D01*
X83121412Y-84327236D01*
X83121413Y-84327231D01*
X83144383Y-84168808D01*
X83149712Y-84132053D01*
X83151232Y-84074000D01*
X83148564Y-84044964D01*
X83473148Y-84044964D01*
X83486424Y-84247522D01*
X83487845Y-84253118D01*
X83487846Y-84253123D01*
X83534971Y-84438674D01*
X83536392Y-84444269D01*
X83538809Y-84449512D01*
X83592032Y-84564962D01*
X83621377Y-84628616D01*
X83624710Y-84633332D01*
X83730507Y-84783032D01*
X83738533Y-84794389D01*
X83742675Y-84798424D01*
X83799637Y-84853913D01*
X83883938Y-84936035D01*
X84052720Y-85048812D01*
X84058023Y-85051090D01*
X84058026Y-85051092D01*
X84167646Y-85098188D01*
X84239228Y-85128942D01*
X84290042Y-85140440D01*
X84431579Y-85172467D01*
X84431584Y-85172468D01*
X84437216Y-85173742D01*
X84442987Y-85173969D01*
X84442989Y-85173969D01*
X84502756Y-85176317D01*
X84640053Y-85181712D01*
X84761921Y-85164042D01*
X84835231Y-85153413D01*
X84835236Y-85153412D01*
X84840945Y-85152584D01*
X84846409Y-85150729D01*
X84846414Y-85150728D01*
X85027693Y-85089192D01*
X85027698Y-85089190D01*
X85033165Y-85087334D01*
X85043026Y-85081812D01*
X85140374Y-85027294D01*
X85210276Y-84988147D01*
X85272934Y-84936035D01*
X85361913Y-84862031D01*
X85366345Y-84858345D01*
X85406256Y-84810358D01*
X85492453Y-84706718D01*
X85492455Y-84706715D01*
X85496147Y-84702276D01*
X85595334Y-84525165D01*
X85597190Y-84519698D01*
X85597192Y-84519693D01*
X85658728Y-84338414D01*
X85658729Y-84338409D01*
X85660584Y-84332945D01*
X85661412Y-84327236D01*
X85661413Y-84327231D01*
X85684383Y-84168808D01*
X85689712Y-84132053D01*
X85691232Y-84074000D01*
X85688564Y-84044964D01*
X86013148Y-84044964D01*
X86026424Y-84247522D01*
X86027845Y-84253118D01*
X86027846Y-84253123D01*
X86074971Y-84438674D01*
X86076392Y-84444269D01*
X86078809Y-84449512D01*
X86132032Y-84564962D01*
X86161377Y-84628616D01*
X86164710Y-84633332D01*
X86270507Y-84783032D01*
X86278533Y-84794389D01*
X86282675Y-84798424D01*
X86339637Y-84853913D01*
X86423938Y-84936035D01*
X86592720Y-85048812D01*
X86598023Y-85051090D01*
X86598026Y-85051092D01*
X86707646Y-85098188D01*
X86779228Y-85128942D01*
X86830042Y-85140440D01*
X86971579Y-85172467D01*
X86971584Y-85172468D01*
X86977216Y-85173742D01*
X86982987Y-85173969D01*
X86982989Y-85173969D01*
X87042756Y-85176317D01*
X87180053Y-85181712D01*
X87301921Y-85164042D01*
X87375231Y-85153413D01*
X87375236Y-85153412D01*
X87380945Y-85152584D01*
X87386409Y-85150729D01*
X87386414Y-85150728D01*
X87567693Y-85089192D01*
X87567698Y-85089190D01*
X87573165Y-85087334D01*
X87583026Y-85081812D01*
X87680374Y-85027294D01*
X87750276Y-84988147D01*
X87812934Y-84936035D01*
X87901913Y-84862031D01*
X87906345Y-84858345D01*
X87946256Y-84810358D01*
X88032453Y-84706718D01*
X88032455Y-84706715D01*
X88036147Y-84702276D01*
X88135334Y-84525165D01*
X88137190Y-84519698D01*
X88137192Y-84519693D01*
X88198728Y-84338414D01*
X88198729Y-84338409D01*
X88200584Y-84332945D01*
X88201412Y-84327236D01*
X88201413Y-84327231D01*
X88224383Y-84168808D01*
X88229712Y-84132053D01*
X88231232Y-84074000D01*
X88218683Y-83937431D01*
X88213187Y-83877613D01*
X88213186Y-83877610D01*
X88212658Y-83871859D01*
X88210703Y-83864928D01*
X88159125Y-83682046D01*
X88159124Y-83682044D01*
X88157557Y-83676487D01*
X88152368Y-83665963D01*
X88070331Y-83499609D01*
X88067776Y-83494428D01*
X88041696Y-83459502D01*
X88008952Y-83415653D01*
X87946320Y-83331779D01*
X87814992Y-83210380D01*
X87801503Y-83197911D01*
X87797258Y-83193987D01*
X87792375Y-83190906D01*
X87792371Y-83190903D01*
X87630464Y-83088748D01*
X87625581Y-83085667D01*
X87437039Y-83010446D01*
X87431379Y-83009320D01*
X87431375Y-83009319D01*
X87243613Y-82971971D01*
X87243610Y-82971971D01*
X87237946Y-82970844D01*
X87232171Y-82970768D01*
X87232167Y-82970768D01*
X87130793Y-82969441D01*
X87034971Y-82968187D01*
X87029274Y-82969166D01*
X87029273Y-82969166D01*
X86840607Y-83001585D01*
X86834910Y-83002564D01*
X86644463Y-83072824D01*
X86470010Y-83176612D01*
X86465670Y-83180418D01*
X86465666Y-83180421D01*
X86368702Y-83265457D01*
X86317392Y-83310455D01*
X86191720Y-83469869D01*
X86189031Y-83474980D01*
X86189029Y-83474983D01*
X86158666Y-83532694D01*
X86097203Y-83649515D01*
X86037007Y-83843378D01*
X86013148Y-84044964D01*
X85688564Y-84044964D01*
X85678683Y-83937431D01*
X85673187Y-83877613D01*
X85673186Y-83877610D01*
X85672658Y-83871859D01*
X85670703Y-83864928D01*
X85619125Y-83682046D01*
X85619124Y-83682044D01*
X85617557Y-83676487D01*
X85612368Y-83665963D01*
X85530331Y-83499609D01*
X85527776Y-83494428D01*
X85501696Y-83459502D01*
X85468952Y-83415653D01*
X85406320Y-83331779D01*
X85274992Y-83210380D01*
X85261503Y-83197911D01*
X85257258Y-83193987D01*
X85252375Y-83190906D01*
X85252371Y-83190903D01*
X85090464Y-83088748D01*
X85085581Y-83085667D01*
X84897039Y-83010446D01*
X84891379Y-83009320D01*
X84891375Y-83009319D01*
X84703613Y-82971971D01*
X84703610Y-82971971D01*
X84697946Y-82970844D01*
X84692171Y-82970768D01*
X84692167Y-82970768D01*
X84590793Y-82969441D01*
X84494971Y-82968187D01*
X84489274Y-82969166D01*
X84489273Y-82969166D01*
X84300607Y-83001585D01*
X84294910Y-83002564D01*
X84104463Y-83072824D01*
X83930010Y-83176612D01*
X83925670Y-83180418D01*
X83925666Y-83180421D01*
X83828702Y-83265457D01*
X83777392Y-83310455D01*
X83651720Y-83469869D01*
X83649031Y-83474980D01*
X83649029Y-83474983D01*
X83618666Y-83532694D01*
X83557203Y-83649515D01*
X83497007Y-83843378D01*
X83473148Y-84044964D01*
X83148564Y-84044964D01*
X83138683Y-83937431D01*
X83133187Y-83877613D01*
X83133186Y-83877610D01*
X83132658Y-83871859D01*
X83130703Y-83864928D01*
X83079125Y-83682046D01*
X83079124Y-83682044D01*
X83077557Y-83676487D01*
X83072368Y-83665963D01*
X82990331Y-83499609D01*
X82987776Y-83494428D01*
X82961696Y-83459502D01*
X82928952Y-83415653D01*
X82866320Y-83331779D01*
X82734992Y-83210380D01*
X82721503Y-83197911D01*
X82717258Y-83193987D01*
X82712375Y-83190906D01*
X82712371Y-83190903D01*
X82550464Y-83088748D01*
X82545581Y-83085667D01*
X82357039Y-83010446D01*
X82351379Y-83009320D01*
X82351375Y-83009319D01*
X82163613Y-82971971D01*
X82163610Y-82971971D01*
X82157946Y-82970844D01*
X82152171Y-82970768D01*
X82152167Y-82970768D01*
X82050793Y-82969441D01*
X81954971Y-82968187D01*
X81949274Y-82969166D01*
X81949273Y-82969166D01*
X81760607Y-83001585D01*
X81754910Y-83002564D01*
X81564463Y-83072824D01*
X81390010Y-83176612D01*
X81385670Y-83180418D01*
X81385666Y-83180421D01*
X81288702Y-83265457D01*
X81237392Y-83310455D01*
X81111720Y-83469869D01*
X81109031Y-83474980D01*
X81109029Y-83474983D01*
X81078666Y-83532694D01*
X81017203Y-83649515D01*
X80957007Y-83843378D01*
X80933148Y-84044964D01*
X80946424Y-84247522D01*
X80947845Y-84253118D01*
X80947846Y-84253123D01*
X80967345Y-84329899D01*
X80996392Y-84444269D01*
X80998809Y-84449512D01*
X80998811Y-84449517D01*
X81002483Y-84457483D01*
X81012836Y-84527721D01*
X80983573Y-84592406D01*
X80977152Y-84599326D01*
X80473066Y-85103411D01*
X79969021Y-85607456D01*
X79950005Y-85622815D01*
X79948944Y-85623781D01*
X79940196Y-85629429D01*
X79922714Y-85651605D01*
X79919271Y-85655972D01*
X79915294Y-85660447D01*
X79915365Y-85660508D01*
X79912012Y-85664465D01*
X79908329Y-85668148D01*
X79905303Y-85672383D01*
X79905301Y-85672385D01*
X79897047Y-85683936D01*
X79893482Y-85688685D01*
X79873796Y-85713657D01*
X79861566Y-85729170D01*
X79858515Y-85737857D01*
X79853166Y-85745343D01*
X79850183Y-85755319D01*
X79850182Y-85755320D01*
X79838402Y-85794711D01*
X79836572Y-85800343D01*
X79819484Y-85849002D01*
X79819000Y-85854591D01*
X79819000Y-85857302D01*
X79818885Y-85859969D01*
X79818866Y-85860032D01*
X79818692Y-85860025D01*
X79818645Y-85860771D01*
X79816775Y-85867024D01*
X79817184Y-85877428D01*
X79818903Y-85921178D01*
X79819000Y-85926125D01*
X79819000Y-86452421D01*
X79798998Y-86520542D01*
X79745342Y-86567035D01*
X79675068Y-86577139D01*
X79610488Y-86547645D01*
X79593037Y-86529125D01*
X79579515Y-86511502D01*
X79558379Y-86483958D01*
X79521501Y-86435897D01*
X79521500Y-86435896D01*
X79516474Y-86429346D01*
X79509924Y-86424320D01*
X79509921Y-86424317D01*
X79407196Y-86345493D01*
X79407194Y-86345492D01*
X79400643Y-86340465D01*
X79265754Y-86284592D01*
X79121000Y-86265535D01*
X79112812Y-86266613D01*
X78984432Y-86283514D01*
X78984430Y-86283515D01*
X78976246Y-86284592D01*
X78942505Y-86298568D01*
X78848986Y-86337305D01*
X78848984Y-86337306D01*
X78841358Y-86340465D01*
X78834809Y-86345490D01*
X78834806Y-86345492D01*
X78810249Y-86364336D01*
X78744029Y-86389937D01*
X78674480Y-86375673D01*
X78623683Y-86326072D01*
X78609095Y-86284085D01*
X78597419Y-86210364D01*
X78597419Y-86210362D01*
X78595868Y-86200573D01*
X78560522Y-86131203D01*
X78547418Y-86061426D01*
X78560522Y-86016797D01*
X78572406Y-85993474D01*
X78595868Y-85947427D01*
X78600026Y-85921178D01*
X78613866Y-85833793D01*
X78615417Y-85824000D01*
X78610778Y-85794711D01*
X78597419Y-85710364D01*
X78597419Y-85710362D01*
X78595868Y-85700573D01*
X78560522Y-85631203D01*
X78547418Y-85561426D01*
X78560522Y-85516797D01*
X78572710Y-85492877D01*
X78595868Y-85447427D01*
X78597477Y-85437272D01*
X78613866Y-85333793D01*
X78615417Y-85324000D01*
X78613486Y-85311807D01*
X78597419Y-85210364D01*
X78597419Y-85210362D01*
X78595868Y-85200573D01*
X78560522Y-85131203D01*
X78547418Y-85061426D01*
X78560522Y-85016797D01*
X78572710Y-84992877D01*
X78595868Y-84947427D01*
X78597422Y-84937620D01*
X78613866Y-84833793D01*
X78615417Y-84824000D01*
X78612219Y-84803807D01*
X78597419Y-84710364D01*
X78597419Y-84710362D01*
X78595868Y-84700573D01*
X78560522Y-84631203D01*
X78547418Y-84561426D01*
X78560522Y-84516797D01*
X78587972Y-84462923D01*
X78595868Y-84447427D01*
X78600767Y-84416500D01*
X78613866Y-84333793D01*
X78615417Y-84324000D01*
X78600294Y-84228516D01*
X78597419Y-84210364D01*
X78597419Y-84210362D01*
X78595868Y-84200573D01*
X78560522Y-84131203D01*
X78547418Y-84061426D01*
X78560522Y-84016797D01*
X78591367Y-83956260D01*
X78595868Y-83947427D01*
X78599956Y-83921620D01*
X78613866Y-83833793D01*
X78615417Y-83824000D01*
X78599754Y-83725106D01*
X78597419Y-83710364D01*
X78597419Y-83710362D01*
X78595868Y-83700573D01*
X78560522Y-83631203D01*
X78547418Y-83561426D01*
X78560522Y-83516797D01*
X78574277Y-83489801D01*
X78595868Y-83447427D01*
X78601846Y-83409687D01*
X78613866Y-83333793D01*
X78615417Y-83324000D01*
X78608702Y-83281604D01*
X78597419Y-83210364D01*
X78597419Y-83210362D01*
X78595868Y-83200573D01*
X78539135Y-83089229D01*
X78450771Y-83000865D01*
X78339427Y-82944132D01*
X78332267Y-82942998D01*
X78274882Y-82903760D01*
X78247245Y-82838363D01*
X78259352Y-82768406D01*
X78307358Y-82716100D01*
X78331337Y-82705149D01*
X78339427Y-82703868D01*
X78450771Y-82647135D01*
X78539135Y-82558771D01*
X78595868Y-82447427D01*
X78602464Y-82405785D01*
X78613866Y-82333793D01*
X78615417Y-82324000D01*
X78595868Y-82200573D01*
X78539135Y-82089229D01*
X78450771Y-82000865D01*
X78339427Y-81944132D01*
X78332267Y-81942998D01*
X78274882Y-81903760D01*
X78247245Y-81838363D01*
X78259352Y-81768406D01*
X78307358Y-81716100D01*
X78331337Y-81705149D01*
X78339427Y-81703868D01*
X78450771Y-81647135D01*
X78539135Y-81558771D01*
X78566551Y-81504964D01*
X80933148Y-81504964D01*
X80936096Y-81549938D01*
X80945890Y-81699367D01*
X80946424Y-81707522D01*
X80947845Y-81713118D01*
X80947846Y-81713123D01*
X80969508Y-81798414D01*
X80996392Y-81904269D01*
X80998809Y-81909512D01*
X81036010Y-81990208D01*
X81081377Y-82088616D01*
X81084710Y-82093332D01*
X81148416Y-82183474D01*
X81198533Y-82254389D01*
X81343938Y-82396035D01*
X81512720Y-82508812D01*
X81518023Y-82511090D01*
X81518026Y-82511092D01*
X81675326Y-82578673D01*
X81699228Y-82588942D01*
X81731702Y-82596290D01*
X81891579Y-82632467D01*
X81891584Y-82632468D01*
X81897216Y-82633742D01*
X81902987Y-82633969D01*
X81902989Y-82633969D01*
X81962756Y-82636317D01*
X82100053Y-82641712D01*
X82207348Y-82626155D01*
X82295231Y-82613413D01*
X82295236Y-82613412D01*
X82300945Y-82612584D01*
X82306409Y-82610729D01*
X82306414Y-82610728D01*
X82487693Y-82549192D01*
X82487698Y-82549190D01*
X82493165Y-82547334D01*
X82505490Y-82540432D01*
X82573316Y-82502447D01*
X82670276Y-82448147D01*
X82682916Y-82437635D01*
X82814462Y-82328228D01*
X82826345Y-82318345D01*
X82864595Y-82272355D01*
X82952453Y-82166718D01*
X82952455Y-82166715D01*
X82956147Y-82162276D01*
X83051880Y-81991333D01*
X83052510Y-81990208D01*
X83052511Y-81990206D01*
X83055334Y-81985165D01*
X83057190Y-81979698D01*
X83057192Y-81979693D01*
X83118728Y-81798414D01*
X83118729Y-81798409D01*
X83120584Y-81792945D01*
X83121412Y-81787236D01*
X83121413Y-81787231D01*
X83141450Y-81649033D01*
X83149712Y-81592053D01*
X83151232Y-81534000D01*
X83148564Y-81504964D01*
X83473148Y-81504964D01*
X83476096Y-81549938D01*
X83485890Y-81699367D01*
X83486424Y-81707522D01*
X83487845Y-81713118D01*
X83487846Y-81713123D01*
X83509508Y-81798414D01*
X83536392Y-81904269D01*
X83538809Y-81909512D01*
X83576010Y-81990208D01*
X83621377Y-82088616D01*
X83624710Y-82093332D01*
X83688416Y-82183474D01*
X83738533Y-82254389D01*
X83883938Y-82396035D01*
X84052720Y-82508812D01*
X84058023Y-82511090D01*
X84058026Y-82511092D01*
X84215326Y-82578673D01*
X84239228Y-82588942D01*
X84271702Y-82596290D01*
X84431579Y-82632467D01*
X84431584Y-82632468D01*
X84437216Y-82633742D01*
X84442987Y-82633969D01*
X84442989Y-82633969D01*
X84502756Y-82636317D01*
X84640053Y-82641712D01*
X84747348Y-82626155D01*
X84835231Y-82613413D01*
X84835236Y-82613412D01*
X84840945Y-82612584D01*
X84846409Y-82610729D01*
X84846414Y-82610728D01*
X85027693Y-82549192D01*
X85027698Y-82549190D01*
X85033165Y-82547334D01*
X85045490Y-82540432D01*
X85113316Y-82502447D01*
X85210276Y-82448147D01*
X85222916Y-82437635D01*
X85354462Y-82328228D01*
X85366345Y-82318345D01*
X85404595Y-82272355D01*
X85492453Y-82166718D01*
X85492455Y-82166715D01*
X85496147Y-82162276D01*
X85591880Y-81991333D01*
X85592510Y-81990208D01*
X85592511Y-81990206D01*
X85595334Y-81985165D01*
X85597190Y-81979698D01*
X85597192Y-81979693D01*
X85658728Y-81798414D01*
X85658729Y-81798409D01*
X85660584Y-81792945D01*
X85661412Y-81787236D01*
X85661413Y-81787231D01*
X85681450Y-81649033D01*
X85689712Y-81592053D01*
X85691232Y-81534000D01*
X85688564Y-81504964D01*
X86013148Y-81504964D01*
X86016096Y-81549938D01*
X86025890Y-81699367D01*
X86026424Y-81707522D01*
X86027845Y-81713118D01*
X86027846Y-81713123D01*
X86049508Y-81798414D01*
X86076392Y-81904269D01*
X86078809Y-81909512D01*
X86116010Y-81990208D01*
X86161377Y-82088616D01*
X86164710Y-82093332D01*
X86228416Y-82183474D01*
X86278533Y-82254389D01*
X86423938Y-82396035D01*
X86592720Y-82508812D01*
X86598023Y-82511090D01*
X86598026Y-82511092D01*
X86755326Y-82578673D01*
X86779228Y-82588942D01*
X86811702Y-82596290D01*
X86971579Y-82632467D01*
X86971584Y-82632468D01*
X86977216Y-82633742D01*
X86982987Y-82633969D01*
X86982989Y-82633969D01*
X87042756Y-82636317D01*
X87180053Y-82641712D01*
X87287348Y-82626155D01*
X87375231Y-82613413D01*
X87375236Y-82613412D01*
X87380945Y-82612584D01*
X87386409Y-82610729D01*
X87386414Y-82610728D01*
X87567693Y-82549192D01*
X87567698Y-82549190D01*
X87573165Y-82547334D01*
X87585490Y-82540432D01*
X87653316Y-82502447D01*
X87750276Y-82448147D01*
X87762916Y-82437635D01*
X87894462Y-82328228D01*
X87906345Y-82318345D01*
X87944595Y-82272355D01*
X88032453Y-82166718D01*
X88032455Y-82166715D01*
X88036147Y-82162276D01*
X88131880Y-81991333D01*
X88132510Y-81990208D01*
X88132511Y-81990206D01*
X88135334Y-81985165D01*
X88137190Y-81979698D01*
X88137192Y-81979693D01*
X88198728Y-81798414D01*
X88198729Y-81798409D01*
X88200584Y-81792945D01*
X88201412Y-81787236D01*
X88201413Y-81787231D01*
X88221450Y-81649033D01*
X88229712Y-81592053D01*
X88231232Y-81534000D01*
X88218834Y-81399072D01*
X88213187Y-81337613D01*
X88213186Y-81337610D01*
X88212658Y-81331859D01*
X88207680Y-81314207D01*
X88159125Y-81142046D01*
X88159124Y-81142044D01*
X88157557Y-81136487D01*
X88153630Y-81128522D01*
X88070331Y-80959609D01*
X88067776Y-80954428D01*
X88058930Y-80942581D01*
X87999179Y-80862566D01*
X87946320Y-80791779D01*
X87797258Y-80653987D01*
X87792375Y-80650906D01*
X87792371Y-80650903D01*
X87646728Y-80559010D01*
X87625581Y-80545667D01*
X87437039Y-80470446D01*
X87431379Y-80469320D01*
X87431375Y-80469319D01*
X87243613Y-80431971D01*
X87243610Y-80431971D01*
X87237946Y-80430844D01*
X87232171Y-80430768D01*
X87232167Y-80430768D01*
X87130793Y-80429441D01*
X87034971Y-80428187D01*
X87029274Y-80429166D01*
X87029273Y-80429166D01*
X86908848Y-80449859D01*
X86834910Y-80462564D01*
X86644463Y-80532824D01*
X86470010Y-80636612D01*
X86465670Y-80640418D01*
X86465666Y-80640421D01*
X86321733Y-80766648D01*
X86317392Y-80770455D01*
X86313817Y-80774990D01*
X86313816Y-80774991D01*
X86297691Y-80795445D01*
X86191720Y-80929869D01*
X86189031Y-80934980D01*
X86189029Y-80934983D01*
X86154859Y-80999929D01*
X86097203Y-81109515D01*
X86037007Y-81303378D01*
X86013148Y-81504964D01*
X85688564Y-81504964D01*
X85678834Y-81399072D01*
X85673187Y-81337613D01*
X85673186Y-81337610D01*
X85672658Y-81331859D01*
X85667680Y-81314207D01*
X85619125Y-81142046D01*
X85619124Y-81142044D01*
X85617557Y-81136487D01*
X85613630Y-81128522D01*
X85530331Y-80959609D01*
X85527776Y-80954428D01*
X85518930Y-80942581D01*
X85459179Y-80862566D01*
X85406320Y-80791779D01*
X85257258Y-80653987D01*
X85252375Y-80650906D01*
X85252371Y-80650903D01*
X85106728Y-80559010D01*
X85085581Y-80545667D01*
X84897039Y-80470446D01*
X84891379Y-80469320D01*
X84891375Y-80469319D01*
X84703613Y-80431971D01*
X84703610Y-80431971D01*
X84697946Y-80430844D01*
X84692171Y-80430768D01*
X84692167Y-80430768D01*
X84590793Y-80429441D01*
X84494971Y-80428187D01*
X84489274Y-80429166D01*
X84489273Y-80429166D01*
X84368848Y-80449859D01*
X84294910Y-80462564D01*
X84104463Y-80532824D01*
X83930010Y-80636612D01*
X83925670Y-80640418D01*
X83925666Y-80640421D01*
X83781733Y-80766648D01*
X83777392Y-80770455D01*
X83773817Y-80774990D01*
X83773816Y-80774991D01*
X83757691Y-80795445D01*
X83651720Y-80929869D01*
X83649031Y-80934980D01*
X83649029Y-80934983D01*
X83614859Y-80999929D01*
X83557203Y-81109515D01*
X83497007Y-81303378D01*
X83473148Y-81504964D01*
X83148564Y-81504964D01*
X83138834Y-81399072D01*
X83133187Y-81337613D01*
X83133186Y-81337610D01*
X83132658Y-81331859D01*
X83127680Y-81314207D01*
X83079125Y-81142046D01*
X83079124Y-81142044D01*
X83077557Y-81136487D01*
X83073630Y-81128522D01*
X82990331Y-80959609D01*
X82987776Y-80954428D01*
X82978930Y-80942581D01*
X82919179Y-80862566D01*
X82866320Y-80791779D01*
X82717258Y-80653987D01*
X82712375Y-80650906D01*
X82712371Y-80650903D01*
X82566728Y-80559010D01*
X82545581Y-80545667D01*
X82357039Y-80470446D01*
X82351379Y-80469320D01*
X82351375Y-80469319D01*
X82163613Y-80431971D01*
X82163610Y-80431971D01*
X82157946Y-80430844D01*
X82152171Y-80430768D01*
X82152167Y-80430768D01*
X82050793Y-80429441D01*
X81954971Y-80428187D01*
X81949274Y-80429166D01*
X81949273Y-80429166D01*
X81828848Y-80449859D01*
X81754910Y-80462564D01*
X81564463Y-80532824D01*
X81390010Y-80636612D01*
X81385670Y-80640418D01*
X81385666Y-80640421D01*
X81241733Y-80766648D01*
X81237392Y-80770455D01*
X81233817Y-80774990D01*
X81233816Y-80774991D01*
X81217691Y-80795445D01*
X81111720Y-80929869D01*
X81109031Y-80934980D01*
X81109029Y-80934983D01*
X81074859Y-80999929D01*
X81017203Y-81109515D01*
X80957007Y-81303378D01*
X80933148Y-81504964D01*
X78566551Y-81504964D01*
X78595868Y-81447427D01*
X78599367Y-81425339D01*
X78613866Y-81333793D01*
X78615417Y-81324000D01*
X78613222Y-81310143D01*
X78597419Y-81210364D01*
X78597419Y-81210362D01*
X78595868Y-81200573D01*
X78539135Y-81089229D01*
X78450771Y-81000865D01*
X78339427Y-80944132D01*
X78329637Y-80942581D01*
X78329636Y-80942581D01*
X78303899Y-80938505D01*
X78247045Y-80929500D01*
X77963500Y-80929500D01*
X77895379Y-80909498D01*
X77848886Y-80855842D01*
X77837500Y-80803500D01*
X77837500Y-80534496D01*
X77857502Y-80466375D01*
X77876205Y-80446569D01*
X77874771Y-80445135D01*
X77963135Y-80356771D01*
X78019868Y-80245427D01*
X78034500Y-80153045D01*
X78034499Y-79810956D01*
X78019868Y-79718573D01*
X77963135Y-79607229D01*
X77874771Y-79518865D01*
X77763427Y-79462132D01*
X77753637Y-79460581D01*
X77753636Y-79460581D01*
X77727899Y-79456505D01*
X77671045Y-79447500D01*
X77653209Y-79447500D01*
X77517456Y-79447501D01*
X77449336Y-79427499D01*
X77428360Y-79410596D01*
X77218404Y-79200639D01*
X77184379Y-79138327D01*
X77181500Y-79111544D01*
X77181500Y-78810212D01*
X77201502Y-78742091D01*
X77218405Y-78721117D01*
X77421117Y-78518405D01*
X77483429Y-78484379D01*
X77510212Y-78481500D01*
X78645865Y-78481500D01*
X78670164Y-78484086D01*
X78671602Y-78484154D01*
X78681780Y-78486345D01*
X78715341Y-78482373D01*
X78721320Y-78482021D01*
X78721312Y-78481928D01*
X78726490Y-78481500D01*
X78731692Y-78481500D01*
X78750846Y-78478312D01*
X78756704Y-78477478D01*
X78773318Y-78475512D01*
X78797567Y-78472642D01*
X78797568Y-78472642D01*
X78807907Y-78471418D01*
X78816206Y-78467433D01*
X78825283Y-78465922D01*
X78870651Y-78441442D01*
X78875914Y-78438761D01*
X78915250Y-78419873D01*
X78915254Y-78419870D01*
X78922398Y-78416440D01*
X78926692Y-78412830D01*
X78928624Y-78410898D01*
X78930573Y-78409111D01*
X78930626Y-78409082D01*
X78930745Y-78409212D01*
X78931313Y-78408711D01*
X78937057Y-78405612D01*
X78960793Y-78379935D01*
X78973867Y-78365791D01*
X78977297Y-78362225D01*
X79220589Y-78118933D01*
X80937500Y-78118933D01*
X80937501Y-79869066D01*
X80952266Y-79943301D01*
X80959161Y-79953620D01*
X80959162Y-79953622D01*
X80999516Y-80014015D01*
X81008516Y-80027484D01*
X81092699Y-80083734D01*
X81166933Y-80098500D01*
X82041858Y-80098500D01*
X82917066Y-80098499D01*
X82952818Y-80091388D01*
X82979126Y-80086156D01*
X82979128Y-80086155D01*
X82991301Y-80083734D01*
X83001621Y-80076839D01*
X83001622Y-80076838D01*
X83065168Y-80034377D01*
X83075484Y-80027484D01*
X83131734Y-79943301D01*
X83146500Y-79869067D01*
X83146499Y-78964964D01*
X83473148Y-78964964D01*
X83486424Y-79167522D01*
X83487845Y-79173118D01*
X83487846Y-79173123D01*
X83509508Y-79258414D01*
X83536392Y-79364269D01*
X83538809Y-79369512D01*
X83574388Y-79446688D01*
X83621377Y-79548616D01*
X83645857Y-79583254D01*
X83702800Y-79663827D01*
X83738533Y-79714389D01*
X83742675Y-79718424D01*
X83768709Y-79743785D01*
X83883938Y-79856035D01*
X84052720Y-79968812D01*
X84058023Y-79971090D01*
X84058026Y-79971092D01*
X84169468Y-80018971D01*
X84239228Y-80048942D01*
X84312244Y-80065464D01*
X84431579Y-80092467D01*
X84431584Y-80092468D01*
X84437216Y-80093742D01*
X84442987Y-80093969D01*
X84442989Y-80093969D01*
X84502756Y-80096317D01*
X84640053Y-80101712D01*
X84747348Y-80086155D01*
X84835231Y-80073413D01*
X84835236Y-80073412D01*
X84840945Y-80072584D01*
X84846409Y-80070729D01*
X84846414Y-80070728D01*
X85027693Y-80009192D01*
X85027698Y-80009190D01*
X85033165Y-80007334D01*
X85060209Y-79992189D01*
X85107683Y-79965602D01*
X85210276Y-79908147D01*
X85249969Y-79875135D01*
X85361913Y-79782031D01*
X85366345Y-79778345D01*
X85407908Y-79728371D01*
X85492453Y-79626718D01*
X85492455Y-79626715D01*
X85496147Y-79622276D01*
X85583311Y-79466633D01*
X85592510Y-79450208D01*
X85592511Y-79450206D01*
X85595334Y-79445165D01*
X85597190Y-79439698D01*
X85597192Y-79439693D01*
X85658728Y-79258414D01*
X85658729Y-79258409D01*
X85660584Y-79252945D01*
X85661412Y-79247236D01*
X85661413Y-79247231D01*
X85687693Y-79065978D01*
X85689712Y-79052053D01*
X85691232Y-78994000D01*
X85688564Y-78964964D01*
X86013148Y-78964964D01*
X86026424Y-79167522D01*
X86027845Y-79173118D01*
X86027846Y-79173123D01*
X86049508Y-79258414D01*
X86076392Y-79364269D01*
X86078809Y-79369512D01*
X86114388Y-79446688D01*
X86161377Y-79548616D01*
X86185857Y-79583254D01*
X86242800Y-79663827D01*
X86278533Y-79714389D01*
X86282675Y-79718424D01*
X86308709Y-79743785D01*
X86423938Y-79856035D01*
X86592720Y-79968812D01*
X86598023Y-79971090D01*
X86598026Y-79971092D01*
X86709468Y-80018971D01*
X86779228Y-80048942D01*
X86852244Y-80065464D01*
X86971579Y-80092467D01*
X86971584Y-80092468D01*
X86977216Y-80093742D01*
X86982987Y-80093969D01*
X86982989Y-80093969D01*
X87042756Y-80096317D01*
X87180053Y-80101712D01*
X87287348Y-80086155D01*
X87375231Y-80073413D01*
X87375236Y-80073412D01*
X87380945Y-80072584D01*
X87386409Y-80070729D01*
X87386414Y-80070728D01*
X87567693Y-80009192D01*
X87567698Y-80009190D01*
X87573165Y-80007334D01*
X87600209Y-79992189D01*
X87647683Y-79965602D01*
X87750276Y-79908147D01*
X87789969Y-79875135D01*
X87901913Y-79782031D01*
X87906345Y-79778345D01*
X87947908Y-79728371D01*
X88032453Y-79626718D01*
X88032455Y-79626715D01*
X88036147Y-79622276D01*
X88123311Y-79466633D01*
X88132510Y-79450208D01*
X88132511Y-79450206D01*
X88135334Y-79445165D01*
X88137190Y-79439698D01*
X88137192Y-79439693D01*
X88198728Y-79258414D01*
X88198729Y-79258409D01*
X88200584Y-79252945D01*
X88201412Y-79247236D01*
X88201413Y-79247231D01*
X88227693Y-79065978D01*
X88229712Y-79052053D01*
X88231232Y-78994000D01*
X88214771Y-78814857D01*
X88213187Y-78797613D01*
X88213186Y-78797610D01*
X88212658Y-78791859D01*
X88206681Y-78770666D01*
X88159125Y-78602046D01*
X88159124Y-78602044D01*
X88157557Y-78596487D01*
X88148821Y-78578771D01*
X88070331Y-78419609D01*
X88067776Y-78414428D01*
X88050857Y-78391770D01*
X87997787Y-78320702D01*
X87946320Y-78251779D01*
X87797258Y-78113987D01*
X87792375Y-78110906D01*
X87792371Y-78110903D01*
X87630464Y-78008748D01*
X87625581Y-78005667D01*
X87437039Y-77930446D01*
X87431379Y-77929320D01*
X87431375Y-77929319D01*
X87243613Y-77891971D01*
X87243610Y-77891971D01*
X87237946Y-77890844D01*
X87232171Y-77890768D01*
X87232167Y-77890768D01*
X87130793Y-77889441D01*
X87034971Y-77888187D01*
X87029274Y-77889166D01*
X87029273Y-77889166D01*
X86868675Y-77916762D01*
X86834910Y-77922564D01*
X86644463Y-77992824D01*
X86470010Y-78096612D01*
X86465670Y-78100418D01*
X86465666Y-78100421D01*
X86364912Y-78188781D01*
X86317392Y-78230455D01*
X86313817Y-78234990D01*
X86313816Y-78234991D01*
X86310458Y-78239251D01*
X86191720Y-78389869D01*
X86189031Y-78394980D01*
X86189029Y-78394983D01*
X86144087Y-78480404D01*
X86097203Y-78569515D01*
X86037007Y-78763378D01*
X86013148Y-78964964D01*
X85688564Y-78964964D01*
X85674771Y-78814857D01*
X85673187Y-78797613D01*
X85673186Y-78797610D01*
X85672658Y-78791859D01*
X85666681Y-78770666D01*
X85619125Y-78602046D01*
X85619124Y-78602044D01*
X85617557Y-78596487D01*
X85608821Y-78578771D01*
X85530331Y-78419609D01*
X85527776Y-78414428D01*
X85510857Y-78391770D01*
X85457787Y-78320702D01*
X85406320Y-78251779D01*
X85257258Y-78113987D01*
X85252375Y-78110906D01*
X85252371Y-78110903D01*
X85090464Y-78008748D01*
X85085581Y-78005667D01*
X84897039Y-77930446D01*
X84891379Y-77929320D01*
X84891375Y-77929319D01*
X84703613Y-77891971D01*
X84703610Y-77891971D01*
X84697946Y-77890844D01*
X84692171Y-77890768D01*
X84692167Y-77890768D01*
X84590793Y-77889441D01*
X84494971Y-77888187D01*
X84489274Y-77889166D01*
X84489273Y-77889166D01*
X84328675Y-77916762D01*
X84294910Y-77922564D01*
X84104463Y-77992824D01*
X83930010Y-78096612D01*
X83925670Y-78100418D01*
X83925666Y-78100421D01*
X83824912Y-78188781D01*
X83777392Y-78230455D01*
X83773817Y-78234990D01*
X83773816Y-78234991D01*
X83770458Y-78239251D01*
X83651720Y-78389869D01*
X83649031Y-78394980D01*
X83649029Y-78394983D01*
X83604087Y-78480404D01*
X83557203Y-78569515D01*
X83497007Y-78763378D01*
X83473148Y-78964964D01*
X83146499Y-78964964D01*
X83146499Y-78118934D01*
X83135876Y-78065523D01*
X83134156Y-78056874D01*
X83134155Y-78056872D01*
X83131734Y-78044699D01*
X83124402Y-78033725D01*
X83082377Y-77970832D01*
X83075484Y-77960516D01*
X82991301Y-77904266D01*
X82917067Y-77889500D01*
X82042142Y-77889500D01*
X81166934Y-77889501D01*
X81131182Y-77896612D01*
X81104874Y-77901844D01*
X81104872Y-77901845D01*
X81092699Y-77904266D01*
X81082379Y-77911161D01*
X81082378Y-77911162D01*
X81043232Y-77937319D01*
X81008516Y-77960516D01*
X80952266Y-78044699D01*
X80937500Y-78118933D01*
X79220589Y-78118933D01*
X79225476Y-78114046D01*
X79244499Y-78098682D01*
X79245558Y-78097718D01*
X79254304Y-78092071D01*
X79260752Y-78083892D01*
X79260754Y-78083890D01*
X79275234Y-78065523D01*
X79279209Y-78061050D01*
X79279137Y-78060989D01*
X79282490Y-78057032D01*
X79286171Y-78053351D01*
X79297455Y-78037560D01*
X79301019Y-78032814D01*
X79304763Y-78028065D01*
X79332934Y-77992330D01*
X79335984Y-77983645D01*
X79341335Y-77976157D01*
X79356115Y-77926734D01*
X79357927Y-77921160D01*
X79375016Y-77872498D01*
X79375500Y-77866909D01*
X79375500Y-77864198D01*
X79375615Y-77861531D01*
X79375634Y-77861468D01*
X79375808Y-77861475D01*
X79375855Y-77860729D01*
X79377725Y-77854476D01*
X79375750Y-77804204D01*
X79393063Y-77735351D01*
X79401690Y-77722554D01*
X79473328Y-77629193D01*
X79478355Y-77622642D01*
X79481574Y-77614872D01*
X79531069Y-77495380D01*
X79534228Y-77487754D01*
X79553285Y-77343000D01*
X79544723Y-77277961D01*
X79535306Y-77206432D01*
X79535305Y-77206430D01*
X79534228Y-77198246D01*
X79482789Y-77074062D01*
X79481515Y-77070986D01*
X79481514Y-77070984D01*
X79478355Y-77063358D01*
X79408532Y-76972363D01*
X79394501Y-76954077D01*
X79394500Y-76954076D01*
X79389474Y-76947526D01*
X79382924Y-76942500D01*
X79382921Y-76942497D01*
X79280196Y-76863673D01*
X79280194Y-76863672D01*
X79273643Y-76858645D01*
X79138754Y-76802772D01*
X79130566Y-76801694D01*
X79013645Y-76786301D01*
X78948718Y-76757578D01*
X78940997Y-76750474D01*
X78606118Y-76415595D01*
X78572092Y-76353283D01*
X78577157Y-76282468D01*
X78619704Y-76225632D01*
X78686224Y-76200821D01*
X78695213Y-76200500D01*
X90805500Y-76200500D01*
X90873621Y-76220502D01*
G37*
%TD.AperFunction*%
%TA.AperFunction,Conductor*%
G36*
X74246012Y-88968283D02*
G01*
X74273020Y-89009013D01*
X74276132Y-89007427D01*
X74332865Y-89118771D01*
X74421229Y-89207135D01*
X74532573Y-89263868D01*
X74542362Y-89265419D01*
X74542364Y-89265419D01*
X74646207Y-89281866D01*
X74656000Y-89283417D01*
X74705803Y-89275529D01*
X74776214Y-89284629D01*
X74830528Y-89330351D01*
X74831806Y-89332599D01*
X74831825Y-89332587D01*
X74836127Y-89339249D01*
X74839560Y-89346398D01*
X74843170Y-89350692D01*
X74845102Y-89352624D01*
X74846889Y-89354573D01*
X74846918Y-89354626D01*
X74846788Y-89354745D01*
X74847289Y-89355313D01*
X74850388Y-89361057D01*
X74858033Y-89368124D01*
X74890195Y-89397854D01*
X74893761Y-89401284D01*
X74939244Y-89446767D01*
X74973270Y-89509079D01*
X74968205Y-89579894D01*
X74925658Y-89636730D01*
X74889085Y-89655695D01*
X74886930Y-89656395D01*
X74877138Y-89657946D01*
X74868305Y-89662447D01*
X74868304Y-89662447D01*
X74840565Y-89676581D01*
X74767204Y-89713960D01*
X74748261Y-89732903D01*
X74685949Y-89766929D01*
X74615134Y-89761864D01*
X74585103Y-89745743D01*
X74579785Y-89741879D01*
X74572771Y-89734865D01*
X74563935Y-89730363D01*
X74563934Y-89730362D01*
X74470549Y-89682780D01*
X74461427Y-89678132D01*
X74451637Y-89676581D01*
X74451636Y-89676581D01*
X74425899Y-89672505D01*
X74369045Y-89663500D01*
X74225213Y-89663500D01*
X74157092Y-89643498D01*
X74136118Y-89626595D01*
X74074405Y-89564882D01*
X74040379Y-89502570D01*
X74037500Y-89475787D01*
X74037500Y-89063507D01*
X74057502Y-88995386D01*
X74111158Y-88948893D01*
X74181432Y-88938789D01*
X74246012Y-88968283D01*
G37*
%TD.AperFunction*%
%TA.AperFunction,Conductor*%
G36*
X73891738Y-86116503D02*
G01*
X73912712Y-86133406D01*
X74239595Y-86460289D01*
X74273621Y-86522601D01*
X74276500Y-86549384D01*
X74276500Y-86956272D01*
X74274827Y-86971988D01*
X74274984Y-86972002D01*
X74274500Y-86977591D01*
X74274500Y-87184493D01*
X74254498Y-87252614D01*
X74200842Y-87299107D01*
X74130568Y-87309211D01*
X74065988Y-87279717D01*
X74038980Y-87238987D01*
X74035868Y-87240573D01*
X73979135Y-87129229D01*
X73890771Y-87040865D01*
X73779427Y-86984132D01*
X73769638Y-86982581D01*
X73769636Y-86982581D01*
X73665793Y-86966134D01*
X73656000Y-86964583D01*
X73646207Y-86966134D01*
X73542364Y-86982581D01*
X73542362Y-86982581D01*
X73532573Y-86984132D01*
X73474476Y-87013734D01*
X73463203Y-87019478D01*
X73393426Y-87032582D01*
X73348797Y-87019478D01*
X73337524Y-87013734D01*
X73279427Y-86984132D01*
X73269638Y-86982581D01*
X73269636Y-86982581D01*
X73165793Y-86966134D01*
X73156000Y-86964583D01*
X73146207Y-86966134D01*
X73042364Y-86982581D01*
X73042362Y-86982581D01*
X73032573Y-86984132D01*
X72974476Y-87013734D01*
X72963203Y-87019478D01*
X72893426Y-87032582D01*
X72848797Y-87019478D01*
X72837524Y-87013734D01*
X72779427Y-86984132D01*
X72769638Y-86982581D01*
X72769636Y-86982581D01*
X72665793Y-86966134D01*
X72656000Y-86964583D01*
X72646207Y-86966134D01*
X72542364Y-86982581D01*
X72542362Y-86982581D01*
X72532573Y-86984132D01*
X72474476Y-87013734D01*
X72463203Y-87019478D01*
X72393426Y-87032582D01*
X72348797Y-87019478D01*
X72337524Y-87013734D01*
X72279427Y-86984132D01*
X72269638Y-86982581D01*
X72269636Y-86982581D01*
X72165793Y-86966134D01*
X72156000Y-86964583D01*
X72152406Y-86965152D01*
X72087629Y-86946132D01*
X72041136Y-86892476D01*
X72031032Y-86822202D01*
X72060526Y-86757622D01*
X72066655Y-86751039D01*
X72231217Y-86586477D01*
X72249965Y-86571335D01*
X72251190Y-86570220D01*
X72259941Y-86564570D01*
X72266388Y-86556392D01*
X72266390Y-86556390D01*
X72280730Y-86538199D01*
X72284679Y-86533755D01*
X72284605Y-86533693D01*
X72287958Y-86529736D01*
X72291639Y-86526055D01*
X72302866Y-86510345D01*
X72306422Y-86505608D01*
X72307587Y-86504131D01*
X72338157Y-86465352D01*
X72341190Y-86456715D01*
X72346514Y-86449265D01*
X72349621Y-86438878D01*
X72361200Y-86400159D01*
X72363035Y-86394513D01*
X72377391Y-86353632D01*
X72377391Y-86353631D01*
X72380019Y-86346148D01*
X72380501Y-86340583D01*
X72380501Y-86337875D01*
X72380615Y-86335241D01*
X72380644Y-86335143D01*
X72380808Y-86335150D01*
X72380852Y-86334446D01*
X72382714Y-86328221D01*
X72380598Y-86274364D01*
X72380501Y-86269417D01*
X72380501Y-86222501D01*
X72400503Y-86154380D01*
X72454159Y-86107887D01*
X72506501Y-86096501D01*
X73823617Y-86096501D01*
X73891738Y-86116503D01*
G37*
%TD.AperFunction*%
%TA.AperFunction,Conductor*%
G36*
X71246012Y-80868283D02*
G01*
X71273020Y-80909013D01*
X71276132Y-80907427D01*
X71332865Y-81018771D01*
X71421229Y-81107135D01*
X71532573Y-81163868D01*
X71542362Y-81165419D01*
X71542364Y-81165419D01*
X71646207Y-81181866D01*
X71656000Y-81183417D01*
X71655901Y-81184039D01*
X71716621Y-81201868D01*
X71763114Y-81255524D01*
X71774500Y-81307866D01*
X71774500Y-81499865D01*
X71771914Y-81524164D01*
X71771846Y-81525602D01*
X71769655Y-81535780D01*
X71773170Y-81565484D01*
X71773627Y-81569342D01*
X71773979Y-81575320D01*
X71774072Y-81575312D01*
X71774500Y-81580490D01*
X71774500Y-81585692D01*
X71775354Y-81590822D01*
X71777686Y-81604832D01*
X71778522Y-81610704D01*
X71784582Y-81661907D01*
X71788567Y-81670206D01*
X71790078Y-81679283D01*
X71814558Y-81724651D01*
X71817237Y-81729909D01*
X71819375Y-81734361D01*
X71831034Y-81785575D01*
X71830715Y-81788000D01*
X71831793Y-81796188D01*
X71848651Y-81924237D01*
X71849772Y-81932754D01*
X71859726Y-81956784D01*
X71896521Y-82045614D01*
X71905645Y-82067642D01*
X71938376Y-82110298D01*
X71981669Y-82166718D01*
X71994526Y-82183474D01*
X72001076Y-82188500D01*
X72001079Y-82188503D01*
X72103804Y-82267327D01*
X72110357Y-82272355D01*
X72245246Y-82328228D01*
X72269287Y-82331393D01*
X72361050Y-82343474D01*
X72425978Y-82372197D01*
X72465069Y-82431462D01*
X72469526Y-82451950D01*
X72482435Y-82550000D01*
X72484772Y-82567754D01*
X72493667Y-82589229D01*
X72531026Y-82679419D01*
X72540645Y-82702642D01*
X72629526Y-82818474D01*
X72636076Y-82823500D01*
X72636079Y-82823503D01*
X72670457Y-82849882D01*
X72745357Y-82907355D01*
X72854544Y-82952582D01*
X72871746Y-82959707D01*
X72880246Y-82963228D01*
X73025000Y-82982285D01*
X73033188Y-82981207D01*
X73161566Y-82964306D01*
X73169754Y-82963228D01*
X73178255Y-82959707D01*
X73195456Y-82952582D01*
X73304643Y-82907355D01*
X73379543Y-82849882D01*
X73413921Y-82823503D01*
X73413924Y-82823500D01*
X73420474Y-82818474D01*
X73509355Y-82702642D01*
X73518975Y-82679419D01*
X73556333Y-82589229D01*
X73565228Y-82567754D01*
X73567566Y-82550000D01*
X73577949Y-82471126D01*
X73584248Y-82423278D01*
X73612970Y-82358352D01*
X73672235Y-82319260D01*
X73743227Y-82318415D01*
X73757390Y-82323317D01*
X73761616Y-82325068D01*
X73761619Y-82325069D01*
X73769246Y-82328228D01*
X73793287Y-82331393D01*
X73858215Y-82360115D01*
X73897307Y-82419380D01*
X73898152Y-82490371D01*
X73893250Y-82504534D01*
X73884933Y-82524613D01*
X73884932Y-82524618D01*
X73881772Y-82532246D01*
X73880695Y-82540430D01*
X73880694Y-82540432D01*
X73869409Y-82626155D01*
X73862715Y-82677000D01*
X73863793Y-82685188D01*
X73880478Y-82811923D01*
X73881772Y-82821754D01*
X73892573Y-82847829D01*
X73934328Y-82948633D01*
X73937645Y-82956642D01*
X73972131Y-83001585D01*
X74018306Y-83061761D01*
X74026526Y-83072474D01*
X74033076Y-83077500D01*
X74033079Y-83077503D01*
X74135804Y-83156327D01*
X74142357Y-83161355D01*
X74237530Y-83200777D01*
X74260714Y-83210380D01*
X74277246Y-83217228D01*
X74285434Y-83218306D01*
X74312270Y-83221839D01*
X74422000Y-83236285D01*
X74430188Y-83235207D01*
X74558566Y-83218306D01*
X74566754Y-83217228D01*
X74583287Y-83210380D01*
X74606470Y-83200777D01*
X74701643Y-83161355D01*
X74709295Y-83155484D01*
X74802332Y-83084093D01*
X74868613Y-83058500D01*
X74873654Y-83058500D01*
X74892808Y-83055312D01*
X74898666Y-83054478D01*
X74915280Y-83052512D01*
X74939529Y-83049642D01*
X74939530Y-83049642D01*
X74949869Y-83048418D01*
X74958168Y-83044433D01*
X74967245Y-83042922D01*
X75012613Y-83018442D01*
X75017876Y-83015761D01*
X75057212Y-82996873D01*
X75057216Y-82996870D01*
X75064360Y-82993440D01*
X75068654Y-82989830D01*
X75070586Y-82987898D01*
X75072535Y-82986111D01*
X75072588Y-82986082D01*
X75072707Y-82986212D01*
X75073275Y-82985711D01*
X75079019Y-82982612D01*
X75115816Y-82942805D01*
X75119246Y-82939238D01*
X76067152Y-81991333D01*
X76067154Y-81991330D01*
X76363455Y-81695030D01*
X76425767Y-81661005D01*
X76496583Y-81666070D01*
X76509754Y-81671860D01*
X76555228Y-81695030D01*
X76572573Y-81703868D01*
X76579733Y-81705002D01*
X76637118Y-81744240D01*
X76664755Y-81809637D01*
X76652648Y-81879594D01*
X76604642Y-81931900D01*
X76580663Y-81942851D01*
X76572573Y-81944132D01*
X76461229Y-82000865D01*
X76372865Y-82089229D01*
X76316132Y-82200573D01*
X76296583Y-82324000D01*
X76298134Y-82333793D01*
X76309537Y-82405785D01*
X76316132Y-82447427D01*
X76372865Y-82558771D01*
X76461229Y-82647135D01*
X76535912Y-82685188D01*
X76572573Y-82703868D01*
X76570865Y-82707220D01*
X76614042Y-82736749D01*
X76641673Y-82802149D01*
X76629560Y-82872104D01*
X76581549Y-82924406D01*
X76516493Y-82942500D01*
X76477744Y-82942500D01*
X76409623Y-82922498D01*
X76401040Y-82916462D01*
X76314272Y-82849882D01*
X76312773Y-82847829D01*
X76312150Y-82847541D01*
X76308394Y-82845372D01*
X76301843Y-82840345D01*
X76294216Y-82837186D01*
X76294213Y-82837184D01*
X76174583Y-82787632D01*
X76166954Y-82784472D01*
X76022200Y-82765415D01*
X76014012Y-82766493D01*
X75885632Y-82783394D01*
X75885630Y-82783395D01*
X75877446Y-82784472D01*
X75834770Y-82802149D01*
X75750186Y-82837185D01*
X75750184Y-82837186D01*
X75742558Y-82840345D01*
X75626726Y-82929226D01*
X75621703Y-82935772D01*
X75606861Y-82955114D01*
X75537845Y-83045058D01*
X75534686Y-83052684D01*
X75534685Y-83052686D01*
X75515890Y-83098062D01*
X75481972Y-83179946D01*
X75480895Y-83188130D01*
X75480894Y-83188132D01*
X75471897Y-83256471D01*
X75462915Y-83324700D01*
X75463993Y-83332888D01*
X75478408Y-83442379D01*
X75481972Y-83469454D01*
X75485131Y-83477080D01*
X75533840Y-83594672D01*
X75537845Y-83604342D01*
X75542873Y-83610895D01*
X75542875Y-83610898D01*
X75578756Y-83657659D01*
X75604357Y-83723879D01*
X75590093Y-83793428D01*
X75543157Y-83842071D01*
X75539358Y-83843645D01*
X75423526Y-83932526D01*
X75334645Y-84048358D01*
X75331486Y-84055984D01*
X75331485Y-84055986D01*
X75310614Y-84106374D01*
X75278772Y-84183246D01*
X75277695Y-84191430D01*
X75277694Y-84191432D01*
X75266692Y-84275000D01*
X75259715Y-84328000D01*
X75260793Y-84336188D01*
X75277478Y-84462923D01*
X75278772Y-84472754D01*
X75281931Y-84480380D01*
X75331201Y-84599327D01*
X75334645Y-84607642D01*
X75354322Y-84633285D01*
X75410669Y-84706718D01*
X75423526Y-84723474D01*
X75430076Y-84728500D01*
X75430079Y-84728503D01*
X75532804Y-84807327D01*
X75539357Y-84812355D01*
X75591113Y-84833793D01*
X75622010Y-84846591D01*
X75677290Y-84891140D01*
X75699711Y-84958503D01*
X75682153Y-85027294D01*
X75630190Y-85075673D01*
X75622010Y-85079409D01*
X75546986Y-85110485D01*
X75546984Y-85110486D01*
X75539358Y-85113645D01*
X75475349Y-85162761D01*
X75440067Y-85189834D01*
X75423526Y-85202526D01*
X75334645Y-85318358D01*
X75331486Y-85325984D01*
X75331485Y-85325986D01*
X75316562Y-85362014D01*
X75278772Y-85453246D01*
X75277695Y-85461430D01*
X75277694Y-85461432D01*
X75264530Y-85561426D01*
X75259715Y-85598000D01*
X75260793Y-85606188D01*
X75277541Y-85733401D01*
X75278772Y-85742754D01*
X75293766Y-85778953D01*
X75327348Y-85860025D01*
X75334645Y-85877642D01*
X75423526Y-85993474D01*
X75430076Y-85998500D01*
X75430079Y-85998503D01*
X75532804Y-86077327D01*
X75539357Y-86082355D01*
X75674246Y-86138228D01*
X75682434Y-86139306D01*
X75741902Y-86147135D01*
X75819000Y-86157285D01*
X75822022Y-86156887D01*
X75859787Y-86163326D01*
X75861957Y-86164088D01*
X75868591Y-86166867D01*
X75874842Y-86171334D01*
X75924247Y-86186109D01*
X75929842Y-86187927D01*
X75978502Y-86205016D01*
X75984091Y-86205500D01*
X75986804Y-86205500D01*
X75989469Y-86205615D01*
X75989532Y-86205634D01*
X75989525Y-86205808D01*
X75990271Y-86205855D01*
X75996524Y-86207725D01*
X76046383Y-86205766D01*
X76050678Y-86205597D01*
X76055625Y-86205500D01*
X76172134Y-86205500D01*
X76240255Y-86225502D01*
X76286748Y-86279158D01*
X76296505Y-86324012D01*
X76296583Y-86324000D01*
X76298134Y-86333793D01*
X76313293Y-86429500D01*
X76316132Y-86447427D01*
X76341490Y-86497194D01*
X76351478Y-86516797D01*
X76364582Y-86586574D01*
X76351478Y-86631203D01*
X76316132Y-86700573D01*
X76314581Y-86710362D01*
X76314581Y-86710364D01*
X76301512Y-86792880D01*
X76296583Y-86824000D01*
X76298134Y-86833793D01*
X76298134Y-86840134D01*
X76278132Y-86908255D01*
X76224476Y-86954748D01*
X76172134Y-86966134D01*
X76165793Y-86966134D01*
X76156000Y-86964583D01*
X76146207Y-86966134D01*
X76042364Y-86982581D01*
X76042362Y-86982581D01*
X76032573Y-86984132D01*
X75974476Y-87013734D01*
X75963203Y-87019478D01*
X75893426Y-87032582D01*
X75848797Y-87019478D01*
X75837524Y-87013734D01*
X75779427Y-86984132D01*
X75769638Y-86982581D01*
X75769636Y-86982581D01*
X75665793Y-86966134D01*
X75656000Y-86964583D01*
X75646207Y-86966134D01*
X75542364Y-86982581D01*
X75542362Y-86982581D01*
X75532573Y-86984132D01*
X75474476Y-87013734D01*
X75463203Y-87019478D01*
X75393426Y-87032582D01*
X75348797Y-87019478D01*
X75337524Y-87013734D01*
X75279427Y-86984132D01*
X75269638Y-86982581D01*
X75269636Y-86982581D01*
X75165793Y-86966134D01*
X75156000Y-86964583D01*
X75156010Y-86964522D01*
X75093379Y-86946132D01*
X75046886Y-86892476D01*
X75035500Y-86840134D01*
X75035500Y-86393925D01*
X75038050Y-86369967D01*
X75038128Y-86368308D01*
X75040321Y-86358124D01*
X75039097Y-86347782D01*
X75039097Y-86347779D01*
X75036374Y-86324779D01*
X75036024Y-86318848D01*
X75035928Y-86318856D01*
X75035500Y-86313680D01*
X75035500Y-86308476D01*
X75032327Y-86289412D01*
X75031496Y-86283566D01*
X75026694Y-86243001D01*
X75025470Y-86232659D01*
X75021507Y-86224407D01*
X75020004Y-86215374D01*
X75014843Y-86205808D01*
X74995666Y-86170268D01*
X74992969Y-86164975D01*
X74974215Y-86125919D01*
X74974214Y-86125918D01*
X74970781Y-86118768D01*
X74967187Y-86114493D01*
X74965262Y-86112568D01*
X74963491Y-86110638D01*
X74963445Y-86110553D01*
X74963568Y-86110441D01*
X74963096Y-86109906D01*
X74960010Y-86104186D01*
X74920413Y-86067583D01*
X74916848Y-86064154D01*
X74339479Y-85486785D01*
X74324337Y-85468037D01*
X74323222Y-85466812D01*
X74317572Y-85458061D01*
X74309394Y-85451614D01*
X74309392Y-85451612D01*
X74291201Y-85437272D01*
X74286760Y-85433326D01*
X74286698Y-85433399D01*
X74282734Y-85430040D01*
X74279057Y-85426363D01*
X74263309Y-85415109D01*
X74258639Y-85411603D01*
X74218354Y-85379845D01*
X74209720Y-85376813D01*
X74202267Y-85371487D01*
X74153151Y-85356798D01*
X74147509Y-85354965D01*
X74106634Y-85340611D01*
X74106633Y-85340611D01*
X74099150Y-85337983D01*
X74093585Y-85337501D01*
X74090877Y-85337501D01*
X74088243Y-85337387D01*
X74088145Y-85337358D01*
X74088152Y-85337194D01*
X74087448Y-85337150D01*
X74081223Y-85335288D01*
X74027366Y-85337404D01*
X74022419Y-85337501D01*
X72508501Y-85337501D01*
X72440380Y-85317499D01*
X72393887Y-85263843D01*
X72382501Y-85211501D01*
X72382501Y-83485141D01*
X72385088Y-83460825D01*
X72385155Y-83459402D01*
X72387347Y-83449221D01*
X72383374Y-83415653D01*
X72383022Y-83409679D01*
X72382929Y-83409687D01*
X72382501Y-83404509D01*
X72382501Y-83399309D01*
X72381647Y-83394177D01*
X72379315Y-83380166D01*
X72378478Y-83374287D01*
X72373643Y-83333434D01*
X72373643Y-83333433D01*
X72372419Y-83323094D01*
X72368434Y-83314795D01*
X72366923Y-83305718D01*
X72342443Y-83260350D01*
X72339762Y-83255087D01*
X72320870Y-83215744D01*
X72317441Y-83208603D01*
X72313832Y-83204309D01*
X72311906Y-83202383D01*
X72310110Y-83200425D01*
X72310080Y-83200368D01*
X72310209Y-83200250D01*
X72309711Y-83199685D01*
X72306613Y-83193944D01*
X72266805Y-83157146D01*
X72263240Y-83153717D01*
X71074405Y-81964882D01*
X71040379Y-81902570D01*
X71037500Y-81875787D01*
X71037500Y-80963507D01*
X71057502Y-80895386D01*
X71111158Y-80848893D01*
X71181432Y-80838789D01*
X71246012Y-80868283D01*
G37*
%TD.AperFunction*%
%TA.AperFunction,Conductor*%
G36*
X71547204Y-84630658D02*
G01*
X71600303Y-84677786D01*
X71619501Y-84744640D01*
X71619501Y-85717946D01*
X71619031Y-85728819D01*
X71617440Y-85747188D01*
X71619951Y-85757296D01*
X71620768Y-85767679D01*
X71620128Y-85767729D01*
X71621501Y-85778953D01*
X71621501Y-86070615D01*
X71601499Y-86138736D01*
X71584596Y-86159710D01*
X71338711Y-86405595D01*
X71276399Y-86439621D01*
X71249616Y-86442500D01*
X70773640Y-86442500D01*
X70749324Y-86439913D01*
X70747901Y-86439846D01*
X70737720Y-86437654D01*
X70704181Y-86441624D01*
X70704152Y-86441627D01*
X70689342Y-86442500D01*
X70295507Y-86442500D01*
X70227386Y-86422498D01*
X70180893Y-86368842D01*
X70170789Y-86298568D01*
X70200283Y-86233988D01*
X70241013Y-86206980D01*
X70239427Y-86203868D01*
X70245894Y-86200573D01*
X70350771Y-86147135D01*
X70439135Y-86058771D01*
X70495868Y-85947427D01*
X70500026Y-85921178D01*
X70513866Y-85833793D01*
X70515417Y-85824000D01*
X70510778Y-85794711D01*
X70497419Y-85710364D01*
X70497419Y-85710362D01*
X70495868Y-85700573D01*
X70460522Y-85631203D01*
X70447418Y-85561426D01*
X70460522Y-85516797D01*
X70472710Y-85492877D01*
X70495868Y-85447427D01*
X70497477Y-85437272D01*
X70513866Y-85333793D01*
X70515417Y-85324000D01*
X70516514Y-85324174D01*
X70533868Y-85265070D01*
X70587524Y-85218577D01*
X70625054Y-85208065D01*
X70639339Y-85206374D01*
X70645320Y-85206021D01*
X70645312Y-85205928D01*
X70650490Y-85205500D01*
X70655692Y-85205500D01*
X70674846Y-85202312D01*
X70680704Y-85201478D01*
X70697318Y-85199512D01*
X70721567Y-85196642D01*
X70721568Y-85196642D01*
X70731907Y-85195418D01*
X70740206Y-85191433D01*
X70749283Y-85189922D01*
X70794651Y-85165442D01*
X70799914Y-85162761D01*
X70839250Y-85143873D01*
X70839254Y-85143870D01*
X70846398Y-85140440D01*
X70850692Y-85136830D01*
X70852624Y-85134898D01*
X70854573Y-85133111D01*
X70854626Y-85133082D01*
X70854745Y-85133212D01*
X70855313Y-85132711D01*
X70861057Y-85129612D01*
X70897854Y-85089805D01*
X70901284Y-85086238D01*
X71320999Y-84666524D01*
X71383311Y-84632499D01*
X71393645Y-84630699D01*
X71419731Y-84627265D01*
X71477056Y-84619718D01*
X71547204Y-84630658D01*
G37*
%TD.AperFunction*%
%TA.AperFunction,Conductor*%
G36*
X62557836Y-82496830D02*
G01*
X62614672Y-82539377D01*
X62639483Y-82605897D01*
X62637383Y-82639465D01*
X62635500Y-82648933D01*
X62635501Y-82787632D01*
X62635501Y-82828553D01*
X62615499Y-82896674D01*
X62561844Y-82943167D01*
X62544657Y-82949550D01*
X62538434Y-82951358D01*
X62528093Y-82952582D01*
X62519794Y-82956567D01*
X62510717Y-82958078D01*
X62465349Y-82982558D01*
X62460086Y-82985239D01*
X62450525Y-82989830D01*
X62413602Y-83007560D01*
X62409308Y-83011169D01*
X62407382Y-83013095D01*
X62405424Y-83014891D01*
X62405367Y-83014921D01*
X62405249Y-83014792D01*
X62404684Y-83015290D01*
X62398943Y-83018388D01*
X62391874Y-83026035D01*
X62391873Y-83026036D01*
X62362146Y-83058195D01*
X62358716Y-83061761D01*
X62148521Y-83271956D01*
X62129505Y-83287315D01*
X62128444Y-83288281D01*
X62119696Y-83293929D01*
X62103092Y-83314991D01*
X62098771Y-83320472D01*
X62094794Y-83324947D01*
X62094865Y-83325008D01*
X62091512Y-83328965D01*
X62087829Y-83332648D01*
X62084803Y-83336883D01*
X62084801Y-83336885D01*
X62076547Y-83348436D01*
X62072984Y-83353182D01*
X62041066Y-83393670D01*
X62038015Y-83402357D01*
X62032666Y-83409843D01*
X62029683Y-83419819D01*
X62029682Y-83419820D01*
X62023797Y-83439500D01*
X62018785Y-83456260D01*
X62017902Y-83459211D01*
X62016072Y-83464843D01*
X61998984Y-83513502D01*
X61998500Y-83519091D01*
X61998500Y-83521802D01*
X61998385Y-83524469D01*
X61998366Y-83524532D01*
X61998192Y-83524525D01*
X61998145Y-83525271D01*
X61996275Y-83531524D01*
X61996684Y-83541928D01*
X61998403Y-83585678D01*
X61998500Y-83590625D01*
X61998500Y-83998467D01*
X61995914Y-84022766D01*
X61995846Y-84024204D01*
X61993655Y-84034382D01*
X61996856Y-84061426D01*
X61997627Y-84067944D01*
X61997979Y-84073922D01*
X61998072Y-84073914D01*
X61998500Y-84079092D01*
X61998500Y-84084294D01*
X61999694Y-84091464D01*
X62001686Y-84103434D01*
X62002522Y-84109306D01*
X62008582Y-84160509D01*
X62012567Y-84168808D01*
X62014078Y-84177885D01*
X62038558Y-84223253D01*
X62041239Y-84228516D01*
X62060127Y-84267852D01*
X62060130Y-84267856D01*
X62063560Y-84275000D01*
X62067170Y-84279294D01*
X62069102Y-84281226D01*
X62070889Y-84283175D01*
X62070918Y-84283228D01*
X62070788Y-84283347D01*
X62071289Y-84283915D01*
X62074388Y-84289659D01*
X62082033Y-84296726D01*
X62114209Y-84326469D01*
X62117775Y-84329899D01*
X62343352Y-84555476D01*
X62358716Y-84574499D01*
X62359680Y-84575558D01*
X62365327Y-84584304D01*
X62373506Y-84590752D01*
X62373508Y-84590754D01*
X62391875Y-84605234D01*
X62396348Y-84609209D01*
X62396409Y-84609137D01*
X62400366Y-84612490D01*
X62404047Y-84616171D01*
X62414122Y-84623371D01*
X62419837Y-84627455D01*
X62424583Y-84631018D01*
X62465068Y-84662934D01*
X62473753Y-84665984D01*
X62481241Y-84671335D01*
X62530664Y-84686115D01*
X62536252Y-84687932D01*
X62540715Y-84689499D01*
X62551255Y-84693201D01*
X62608898Y-84734647D01*
X62634983Y-84800678D01*
X62635500Y-84812080D01*
X62635501Y-84932002D01*
X62635501Y-84999066D01*
X62643387Y-85038715D01*
X62645516Y-85049419D01*
X62645516Y-85098579D01*
X62635500Y-85148933D01*
X62635501Y-85499066D01*
X62637844Y-85510844D01*
X62645516Y-85549419D01*
X62645516Y-85598578D01*
X62639847Y-85627080D01*
X62606941Y-85689990D01*
X62545246Y-85725122D01*
X62516268Y-85728500D01*
X61467500Y-85728500D01*
X61399379Y-85708498D01*
X61352886Y-85654842D01*
X61341500Y-85602500D01*
X61341500Y-83661190D01*
X61361502Y-83593069D01*
X61378405Y-83572095D01*
X62424709Y-82525791D01*
X62487021Y-82491765D01*
X62557836Y-82496830D01*
G37*
%TD.AperFunction*%
%TA.AperFunction,Conductor*%
G36*
X70703321Y-82677473D02*
G01*
X70725816Y-82695338D01*
X71344610Y-83314132D01*
X71378636Y-83376444D01*
X71373571Y-83447259D01*
X71331024Y-83504095D01*
X71271961Y-83528149D01*
X71253817Y-83530537D01*
X71237432Y-83532694D01*
X71237430Y-83532695D01*
X71229246Y-83533772D01*
X71209556Y-83541928D01*
X71101986Y-83586485D01*
X71101984Y-83586486D01*
X71094358Y-83589645D01*
X70978526Y-83678526D01*
X70973503Y-83685072D01*
X70968136Y-83692066D01*
X70889645Y-83794358D01*
X70833772Y-83929246D01*
X70830216Y-83956260D01*
X70817301Y-84054354D01*
X70788578Y-84119281D01*
X70781475Y-84127002D01*
X70690069Y-84218409D01*
X70627757Y-84252434D01*
X70556941Y-84247370D01*
X70500105Y-84204824D01*
X70488706Y-84186517D01*
X70460522Y-84131203D01*
X70447418Y-84061426D01*
X70460522Y-84016797D01*
X70491367Y-83956260D01*
X70495868Y-83947427D01*
X70499956Y-83921620D01*
X70513866Y-83833793D01*
X70515417Y-83824000D01*
X70499754Y-83725106D01*
X70497419Y-83710364D01*
X70497419Y-83710362D01*
X70495868Y-83700573D01*
X70460522Y-83631203D01*
X70447418Y-83561426D01*
X70460522Y-83516797D01*
X70474277Y-83489801D01*
X70495868Y-83447427D01*
X70501846Y-83409687D01*
X70513866Y-83333793D01*
X70515417Y-83324000D01*
X70508702Y-83281604D01*
X70497419Y-83210364D01*
X70497419Y-83210362D01*
X70495868Y-83200573D01*
X70460522Y-83131203D01*
X70447418Y-83061426D01*
X70460522Y-83016797D01*
X70465228Y-83007560D01*
X70495868Y-82947427D01*
X70498708Y-82929500D01*
X70513866Y-82833793D01*
X70515417Y-82824000D01*
X70512272Y-82804144D01*
X70521371Y-82733733D01*
X70567093Y-82679419D01*
X70634921Y-82658446D01*
X70703321Y-82677473D01*
G37*
%TD.AperFunction*%
%TA.AperFunction,Conductor*%
G36*
X71263476Y-77991502D02*
G01*
X71309969Y-78045158D01*
X71320073Y-78115432D01*
X71295317Y-78174205D01*
X71275672Y-78199806D01*
X71275670Y-78199809D01*
X71270645Y-78206358D01*
X71267486Y-78213984D01*
X71267485Y-78213986D01*
X71246165Y-78265457D01*
X71214772Y-78341246D01*
X71213695Y-78349430D01*
X71213694Y-78349432D01*
X71204873Y-78416440D01*
X71195715Y-78486000D01*
X71196793Y-78494188D01*
X71213179Y-78618652D01*
X71214772Y-78630754D01*
X71253715Y-78724770D01*
X71264909Y-78751794D01*
X71274500Y-78800013D01*
X71274500Y-79084493D01*
X71254498Y-79152614D01*
X71200842Y-79199107D01*
X71130568Y-79209211D01*
X71065988Y-79179717D01*
X71038980Y-79138987D01*
X71035868Y-79140573D01*
X70979135Y-79029229D01*
X70890771Y-78940865D01*
X70779427Y-78884132D01*
X70769638Y-78882581D01*
X70769636Y-78882581D01*
X70665793Y-78866134D01*
X70656000Y-78864583D01*
X70646207Y-78866134D01*
X70542364Y-78882581D01*
X70542362Y-78882581D01*
X70532573Y-78884132D01*
X70421229Y-78940865D01*
X70332865Y-79029229D01*
X70276132Y-79140573D01*
X70261500Y-79232955D01*
X70261500Y-79337787D01*
X70241498Y-79405908D01*
X70187842Y-79452401D01*
X70117568Y-79462505D01*
X70052988Y-79433011D01*
X70046404Y-79426882D01*
X69864580Y-79245057D01*
X69506404Y-78886881D01*
X69472379Y-78824569D01*
X69469500Y-78797786D01*
X69469500Y-78742596D01*
X69489502Y-78674475D01*
X69506405Y-78653501D01*
X69581135Y-78578771D01*
X69637868Y-78467427D01*
X69652500Y-78375045D01*
X69652499Y-78240972D01*
X69672501Y-78172852D01*
X69689404Y-78151876D01*
X69832877Y-78008404D01*
X69895189Y-77974379D01*
X69921972Y-77971500D01*
X71195355Y-77971500D01*
X71263476Y-77991502D01*
G37*
%TD.AperFunction*%
%TD*%
M02*
