%TF.GenerationSoftware,KiCad,Pcbnew,5.1.10-88a1d61d58~89~ubuntu21.04.1*%
%TF.CreationDate,2021-07-10T21:48:55+08:00*%
%TF.ProjectId,ST_Link_V2.1,53545f4c-696e-46b5-9f56-322e312e6b69,rev?*%
%TF.SameCoordinates,Original*%
%TF.FileFunction,Copper,L1,Top*%
%TF.FilePolarity,Positive*%
%FSLAX46Y46*%
G04 Gerber Fmt 4.6, Leading zero omitted, Abs format (unit mm)*
G04 Created by KiCad (PCBNEW 5.1.10-88a1d61d58~89~ubuntu21.04.1) date 2021-07-10 21:48:55*
%MOMM*%
%LPD*%
G01*
G04 APERTURE LIST*
%TA.AperFunction,EtchedComponent*%
%ADD10C,0.100000*%
%TD*%
%TA.AperFunction,ComponentPad*%
%ADD11O,1.700000X1.700000*%
%TD*%
%TA.AperFunction,ComponentPad*%
%ADD12R,1.700000X1.700000*%
%TD*%
%TA.AperFunction,SMDPad,CuDef*%
%ADD13O,1.800000X0.280000*%
%TD*%
%TA.AperFunction,SMDPad,CuDef*%
%ADD14O,0.280000X1.800000*%
%TD*%
%TA.AperFunction,SMDPad,CuDef*%
%ADD15R,1.500000X1.000000*%
%TD*%
%TA.AperFunction,SMDPad,CuDef*%
%ADD16R,1.160000X0.600000*%
%TD*%
%TA.AperFunction,SMDPad,CuDef*%
%ADD17R,1.160000X0.300000*%
%TD*%
%TA.AperFunction,ComponentPad*%
%ADD18O,1.700000X0.900000*%
%TD*%
%TA.AperFunction,ComponentPad*%
%ADD19O,2.000000X0.900000*%
%TD*%
%TA.AperFunction,ViaPad*%
%ADD20C,0.600000*%
%TD*%
%TA.AperFunction,Conductor*%
%ADD21C,0.254000*%
%TD*%
%TA.AperFunction,Conductor*%
%ADD22C,0.250000*%
%TD*%
%TA.AperFunction,Conductor*%
%ADD23C,0.400000*%
%TD*%
%TA.AperFunction,Conductor*%
%ADD24C,0.100000*%
%TD*%
G04 APERTURE END LIST*
D10*
%TO.C,JP1*%
G36*
X79702000Y-79371000D02*
G01*
X79702000Y-78871000D01*
X80102000Y-78871000D01*
X80102000Y-79371000D01*
X79702000Y-79371000D01*
G37*
G36*
X78902000Y-79371000D02*
G01*
X78902000Y-78871000D01*
X79302000Y-78871000D01*
X79302000Y-79371000D01*
X78902000Y-79371000D01*
G37*
%TD*%
D11*
%TO.P,J2,3*%
%TO.N,GND*%
X89662000Y-86614000D03*
%TO.P,J2,2*%
%TO.N,/MCU_SWCLK*%
X89662000Y-84074000D03*
D12*
%TO.P,J2,1*%
%TO.N,/MCU_SWDIO*%
X89662000Y-81534000D03*
%TD*%
%TO.P,R7,2*%
%TO.N,Net-(R7-Pad2)*%
%TA.AperFunction,SMDPad,CuDef*%
G36*
G01*
X75452000Y-78301000D02*
X75452000Y-78671000D01*
G75*
G02*
X75317000Y-78806000I-135000J0D01*
G01*
X75047000Y-78806000D01*
G75*
G02*
X74912000Y-78671000I0J135000D01*
G01*
X74912000Y-78301000D01*
G75*
G02*
X75047000Y-78166000I135000J0D01*
G01*
X75317000Y-78166000D01*
G75*
G02*
X75452000Y-78301000I0J-135000D01*
G01*
G37*
%TD.AperFunction*%
%TO.P,R7,1*%
%TO.N,/SWDIO*%
%TA.AperFunction,SMDPad,CuDef*%
G36*
G01*
X76472000Y-78301000D02*
X76472000Y-78671000D01*
G75*
G02*
X76337000Y-78806000I-135000J0D01*
G01*
X76067000Y-78806000D01*
G75*
G02*
X75932000Y-78671000I0J135000D01*
G01*
X75932000Y-78301000D01*
G75*
G02*
X76067000Y-78166000I135000J0D01*
G01*
X76337000Y-78166000D01*
G75*
G02*
X76472000Y-78301000I0J-135000D01*
G01*
G37*
%TD.AperFunction*%
%TD*%
D11*
%TO.P,J3,12*%
%TO.N,+3.3VA*%
X87122000Y-81534000D03*
%TO.P,J3,11*%
%TO.N,+5V*%
X87122000Y-78994000D03*
%TO.P,J3,13*%
%TO.N,/SWDIO*%
X87122000Y-84074000D03*
%TO.P,J3,15*%
%TO.N,GND*%
X87122000Y-89154000D03*
%TO.P,J3,14*%
%TO.N,/SWCLK*%
X87122000Y-86614000D03*
D12*
%TO.P,J3,1*%
%TO.N,+5V*%
X82042000Y-78994000D03*
D11*
%TO.P,J3,2*%
%TO.N,+3.3VA*%
X82042000Y-81534000D03*
%TO.P,J3,3*%
%TO.N,/TX*%
X82042000Y-84074000D03*
%TO.P,J3,4*%
%TO.N,/RX*%
X82042000Y-86614000D03*
%TO.P,J3,5*%
%TO.N,GND*%
X82042000Y-89154000D03*
%TO.P,J3,6*%
%TO.N,+5V*%
X84582000Y-78994000D03*
%TO.P,J3,7*%
%TO.N,+3.3VA*%
X84582000Y-81534000D03*
%TO.P,J3,8*%
%TO.N,/SWIN*%
X84582000Y-84074000D03*
%TO.P,J3,9*%
%TO.N,/RESET*%
X84582000Y-86614000D03*
%TO.P,J3,10*%
%TO.N,GND*%
X84582000Y-89154000D03*
%TD*%
D13*
%TO.P,U1,48*%
%TO.N,+3V3*%
X69356000Y-86824000D03*
%TO.P,U1,47*%
%TO.N,GND*%
X69356000Y-86324000D03*
%TO.P,U1,46*%
%TO.N,Net-(U1-Pad46)*%
X69356000Y-85824000D03*
%TO.P,U1,45*%
%TO.N,Net-(U1-Pad45)*%
X69356000Y-85324000D03*
%TO.P,U1,44*%
%TO.N,/BOOT0*%
X69356000Y-84824000D03*
%TO.P,U1,43*%
%TO.N,Net-(U1-Pad43)*%
X69356000Y-84324000D03*
%TO.P,U1,42*%
%TO.N,Net-(U1-Pad42)*%
X69356000Y-83824000D03*
%TO.P,U1,41*%
%TO.N,Net-(U1-Pad41)*%
X69356000Y-83324000D03*
%TO.P,U1,40*%
%TO.N,Net-(U1-Pad40)*%
X69356000Y-82824000D03*
%TO.P,U1,39*%
%TO.N,Net-(U1-Pad39)*%
X69356000Y-82324000D03*
%TO.P,U1,38*%
%TO.N,/MCU_USB_RENUM*%
X69356000Y-81824000D03*
%TO.P,U1,37*%
%TO.N,/MCU_SWCLK*%
X69356000Y-81324000D03*
D14*
%TO.P,U1,36*%
%TO.N,+3V3*%
X70656000Y-80024000D03*
%TO.P,U1,35*%
%TO.N,GND*%
X71156000Y-80024000D03*
%TO.P,U1,34*%
%TO.N,/MCU_SWDIO*%
X71656000Y-80024000D03*
%TO.P,U1,33*%
%TO.N,/MCU_USB_D+*%
X72156000Y-80024000D03*
%TO.P,U1,32*%
%TO.N,/MCU_USB_D-*%
X72656000Y-80024000D03*
%TO.P,U1,31*%
%TO.N,/SWIN*%
X73156000Y-80024000D03*
%TO.P,U1,30*%
%TO.N,/LED_LINK*%
X73656000Y-80024000D03*
%TO.P,U1,29*%
%TO.N,Net-(U1-Pad29)*%
X74156000Y-80024000D03*
%TO.P,U1,28*%
%TO.N,Net-(U1-Pad28)*%
X74656000Y-80024000D03*
%TO.P,U1,27*%
%TO.N,Net-(R7-Pad2)*%
X75156000Y-80024000D03*
%TO.P,U1,26*%
%TO.N,/SWCLK*%
X75656000Y-80024000D03*
%TO.P,U1,25*%
%TO.N,/SWDIO*%
X76156000Y-80024000D03*
D13*
%TO.P,U1,24*%
%TO.N,+3V3*%
X77456000Y-81324000D03*
%TO.P,U1,23*%
%TO.N,GND*%
X77456000Y-81824000D03*
%TO.P,U1,22*%
%TO.N,Net-(U1-Pad22)*%
X77456000Y-82324000D03*
%TO.P,U1,21*%
%TO.N,Net-(JP1-Pad1)*%
X77456000Y-82824000D03*
%TO.P,U1,20*%
%TO.N,/BOOT1*%
X77456000Y-83324000D03*
%TO.P,U1,19*%
%TO.N,Net-(U1-Pad19)*%
X77456000Y-83824000D03*
%TO.P,U1,18*%
%TO.N,/RESET*%
X77456000Y-84324000D03*
%TO.P,U1,17*%
%TO.N,Net-(U1-Pad17)*%
X77456000Y-84824000D03*
%TO.P,U1,16*%
%TO.N,Net-(U1-Pad16)*%
X77456000Y-85324000D03*
%TO.P,U1,15*%
%TO.N,/SWCLK*%
X77456000Y-85824000D03*
%TO.P,U1,14*%
%TO.N,Net-(U1-Pad14)*%
X77456000Y-86324000D03*
%TO.P,U1,13*%
%TO.N,/RX*%
X77456000Y-86824000D03*
D14*
%TO.P,U1,12*%
%TO.N,/TX*%
X76156000Y-88124000D03*
%TO.P,U1,11*%
%TO.N,Net-(U1-Pad11)*%
X75656000Y-88124000D03*
%TO.P,U1,10*%
%TO.N,/PA0*%
X75156000Y-88124000D03*
%TO.P,U1,9*%
%TO.N,+3V3*%
X74656000Y-88124000D03*
%TO.P,U1,8*%
%TO.N,GND*%
X74156000Y-88124000D03*
%TO.P,U1,7*%
%TO.N,/RST*%
X73656000Y-88124000D03*
%TO.P,U1,6*%
%TO.N,/OSC_OUT*%
X73156000Y-88124000D03*
%TO.P,U1,5*%
%TO.N,/OSC_IN*%
X72656000Y-88124000D03*
%TO.P,U1,4*%
%TO.N,Net-(U1-Pad4)*%
X72156000Y-88124000D03*
%TO.P,U1,3*%
%TO.N,Net-(R2-Pad1)*%
X71656000Y-88124000D03*
%TO.P,U1,2*%
%TO.N,Net-(R1-Pad1)*%
X71156000Y-88124000D03*
%TO.P,U1,1*%
%TO.N,+3V3*%
X70656000Y-88124000D03*
%TD*%
%TO.P,R21,2*%
%TO.N,/BOOT1*%
%TA.AperFunction,SMDPad,CuDef*%
G36*
G01*
X78417000Y-90438000D02*
X78047000Y-90438000D01*
G75*
G02*
X77912000Y-90303000I0J135000D01*
G01*
X77912000Y-90033000D01*
G75*
G02*
X78047000Y-89898000I135000J0D01*
G01*
X78417000Y-89898000D01*
G75*
G02*
X78552000Y-90033000I0J-135000D01*
G01*
X78552000Y-90303000D01*
G75*
G02*
X78417000Y-90438000I-135000J0D01*
G01*
G37*
%TD.AperFunction*%
%TO.P,R21,1*%
%TO.N,GND*%
%TA.AperFunction,SMDPad,CuDef*%
G36*
G01*
X78417000Y-91458000D02*
X78047000Y-91458000D01*
G75*
G02*
X77912000Y-91323000I0J135000D01*
G01*
X77912000Y-91053000D01*
G75*
G02*
X78047000Y-90918000I135000J0D01*
G01*
X78417000Y-90918000D01*
G75*
G02*
X78552000Y-91053000I0J-135000D01*
G01*
X78552000Y-91323000D01*
G75*
G02*
X78417000Y-91458000I-135000J0D01*
G01*
G37*
%TD.AperFunction*%
%TD*%
%TO.P,R20,2*%
%TO.N,/BOOT0*%
%TA.AperFunction,SMDPad,CuDef*%
G36*
G01*
X69272001Y-90438000D02*
X68902001Y-90438000D01*
G75*
G02*
X68767001Y-90303000I0J135000D01*
G01*
X68767001Y-90033000D01*
G75*
G02*
X68902001Y-89898000I135000J0D01*
G01*
X69272001Y-89898000D01*
G75*
G02*
X69407001Y-90033000I0J-135000D01*
G01*
X69407001Y-90303000D01*
G75*
G02*
X69272001Y-90438000I-135000J0D01*
G01*
G37*
%TD.AperFunction*%
%TO.P,R20,1*%
%TO.N,GND*%
%TA.AperFunction,SMDPad,CuDef*%
G36*
G01*
X69272001Y-91458000D02*
X68902001Y-91458000D01*
G75*
G02*
X68767001Y-91323000I0J135000D01*
G01*
X68767001Y-91053000D01*
G75*
G02*
X68902001Y-90918000I135000J0D01*
G01*
X69272001Y-90918000D01*
G75*
G02*
X69407001Y-91053000I0J-135000D01*
G01*
X69407001Y-91323000D01*
G75*
G02*
X69272001Y-91458000I-135000J0D01*
G01*
G37*
%TD.AperFunction*%
%TD*%
%TO.P,R19,2*%
%TO.N,+3V3*%
%TA.AperFunction,SMDPad,CuDef*%
G36*
G01*
X74999000Y-90918000D02*
X75369000Y-90918000D01*
G75*
G02*
X75504000Y-91053000I0J-135000D01*
G01*
X75504000Y-91323000D01*
G75*
G02*
X75369000Y-91458000I-135000J0D01*
G01*
X74999000Y-91458000D01*
G75*
G02*
X74864000Y-91323000I0J135000D01*
G01*
X74864000Y-91053000D01*
G75*
G02*
X74999000Y-90918000I135000J0D01*
G01*
G37*
%TD.AperFunction*%
%TO.P,R19,1*%
%TO.N,/RST*%
%TA.AperFunction,SMDPad,CuDef*%
G36*
G01*
X74999000Y-89898000D02*
X75369000Y-89898000D01*
G75*
G02*
X75504000Y-90033000I0J-135000D01*
G01*
X75504000Y-90303000D01*
G75*
G02*
X75369000Y-90438000I-135000J0D01*
G01*
X74999000Y-90438000D01*
G75*
G02*
X74864000Y-90303000I0J135000D01*
G01*
X74864000Y-90033000D01*
G75*
G02*
X74999000Y-89898000I135000J0D01*
G01*
G37*
%TD.AperFunction*%
%TD*%
%TO.P,R13,2*%
%TO.N,GND*%
%TA.AperFunction,SMDPad,CuDef*%
G36*
G01*
X77031000Y-90918000D02*
X77401000Y-90918000D01*
G75*
G02*
X77536000Y-91053000I0J-135000D01*
G01*
X77536000Y-91323000D01*
G75*
G02*
X77401000Y-91458000I-135000J0D01*
G01*
X77031000Y-91458000D01*
G75*
G02*
X76896000Y-91323000I0J135000D01*
G01*
X76896000Y-91053000D01*
G75*
G02*
X77031000Y-90918000I135000J0D01*
G01*
G37*
%TD.AperFunction*%
%TO.P,R13,1*%
%TO.N,/PA0*%
%TA.AperFunction,SMDPad,CuDef*%
G36*
G01*
X77031000Y-89898000D02*
X77401000Y-89898000D01*
G75*
G02*
X77536000Y-90033000I0J-135000D01*
G01*
X77536000Y-90303000D01*
G75*
G02*
X77401000Y-90438000I-135000J0D01*
G01*
X77031000Y-90438000D01*
G75*
G02*
X76896000Y-90303000I0J135000D01*
G01*
X76896000Y-90033000D01*
G75*
G02*
X77031000Y-89898000I135000J0D01*
G01*
G37*
%TD.AperFunction*%
%TD*%
%TO.P,R12,2*%
%TO.N,/PA0*%
%TA.AperFunction,SMDPad,CuDef*%
G36*
G01*
X76385000Y-90438000D02*
X76015000Y-90438000D01*
G75*
G02*
X75880000Y-90303000I0J135000D01*
G01*
X75880000Y-90033000D01*
G75*
G02*
X76015000Y-89898000I135000J0D01*
G01*
X76385000Y-89898000D01*
G75*
G02*
X76520000Y-90033000I0J-135000D01*
G01*
X76520000Y-90303000D01*
G75*
G02*
X76385000Y-90438000I-135000J0D01*
G01*
G37*
%TD.AperFunction*%
%TO.P,R12,1*%
%TO.N,+3V3*%
%TA.AperFunction,SMDPad,CuDef*%
G36*
G01*
X76385000Y-91458000D02*
X76015000Y-91458000D01*
G75*
G02*
X75880000Y-91323000I0J135000D01*
G01*
X75880000Y-91053000D01*
G75*
G02*
X76015000Y-90918000I135000J0D01*
G01*
X76385000Y-90918000D01*
G75*
G02*
X76520000Y-91053000I0J-135000D01*
G01*
X76520000Y-91323000D01*
G75*
G02*
X76385000Y-91458000I-135000J0D01*
G01*
G37*
%TD.AperFunction*%
%TD*%
%TO.P,R11,1*%
%TO.N,Net-(Q1-Pad2)*%
%TA.AperFunction,SMDPad,CuDef*%
G36*
G01*
X66312000Y-83889000D02*
X66312000Y-84259000D01*
G75*
G02*
X66177000Y-84394000I-135000J0D01*
G01*
X65907000Y-84394000D01*
G75*
G02*
X65772000Y-84259000I0J135000D01*
G01*
X65772000Y-83889000D01*
G75*
G02*
X65907000Y-83754000I135000J0D01*
G01*
X66177000Y-83754000D01*
G75*
G02*
X66312000Y-83889000I0J-135000D01*
G01*
G37*
%TD.AperFunction*%
%TO.P,R11,2*%
%TO.N,/USB_RENUM*%
%TA.AperFunction,SMDPad,CuDef*%
G36*
G01*
X65292000Y-83889000D02*
X65292000Y-84259000D01*
G75*
G02*
X65157000Y-84394000I-135000J0D01*
G01*
X64887000Y-84394000D01*
G75*
G02*
X64752000Y-84259000I0J135000D01*
G01*
X64752000Y-83889000D01*
G75*
G02*
X64887000Y-83754000I135000J0D01*
G01*
X65157000Y-83754000D01*
G75*
G02*
X65292000Y-83889000I0J-135000D01*
G01*
G37*
%TD.AperFunction*%
%TD*%
%TO.P,R10,2*%
%TO.N,GND*%
%TA.AperFunction,SMDPad,CuDef*%
G36*
G01*
X63768000Y-90493000D02*
X63768000Y-90863000D01*
G75*
G02*
X63633000Y-90998000I-135000J0D01*
G01*
X63363000Y-90998000D01*
G75*
G02*
X63228000Y-90863000I0J135000D01*
G01*
X63228000Y-90493000D01*
G75*
G02*
X63363000Y-90358000I135000J0D01*
G01*
X63633000Y-90358000D01*
G75*
G02*
X63768000Y-90493000I0J-135000D01*
G01*
G37*
%TD.AperFunction*%
%TO.P,R10,1*%
%TO.N,Net-(Q1-Pad1)*%
%TA.AperFunction,SMDPad,CuDef*%
G36*
G01*
X64788000Y-90493000D02*
X64788000Y-90863000D01*
G75*
G02*
X64653000Y-90998000I-135000J0D01*
G01*
X64383000Y-90998000D01*
G75*
G02*
X64248000Y-90863000I0J135000D01*
G01*
X64248000Y-90493000D01*
G75*
G02*
X64383000Y-90358000I135000J0D01*
G01*
X64653000Y-90358000D01*
G75*
G02*
X64788000Y-90493000I0J-135000D01*
G01*
G37*
%TD.AperFunction*%
%TD*%
%TO.P,R8,2*%
%TO.N,/MCU_USB_RENUM*%
%TA.AperFunction,SMDPad,CuDef*%
G36*
G01*
X66280000Y-90863000D02*
X66280000Y-90493000D01*
G75*
G02*
X66415000Y-90358000I135000J0D01*
G01*
X66685000Y-90358000D01*
G75*
G02*
X66820000Y-90493000I0J-135000D01*
G01*
X66820000Y-90863000D01*
G75*
G02*
X66685000Y-90998000I-135000J0D01*
G01*
X66415000Y-90998000D01*
G75*
G02*
X66280000Y-90863000I0J135000D01*
G01*
G37*
%TD.AperFunction*%
%TO.P,R8,1*%
%TO.N,Net-(Q1-Pad1)*%
%TA.AperFunction,SMDPad,CuDef*%
G36*
G01*
X65260000Y-90863000D02*
X65260000Y-90493000D01*
G75*
G02*
X65395000Y-90358000I135000J0D01*
G01*
X65665000Y-90358000D01*
G75*
G02*
X65800000Y-90493000I0J-135000D01*
G01*
X65800000Y-90863000D01*
G75*
G02*
X65665000Y-90998000I-135000J0D01*
G01*
X65395000Y-90998000D01*
G75*
G02*
X65260000Y-90863000I0J135000D01*
G01*
G37*
%TD.AperFunction*%
%TD*%
%TO.P,R6,2*%
%TO.N,/USB_RENUM*%
%TA.AperFunction,SMDPad,CuDef*%
G36*
G01*
X65292000Y-84905000D02*
X65292000Y-85275000D01*
G75*
G02*
X65157000Y-85410000I-135000J0D01*
G01*
X64887000Y-85410000D01*
G75*
G02*
X64752000Y-85275000I0J135000D01*
G01*
X64752000Y-84905000D01*
G75*
G02*
X64887000Y-84770000I135000J0D01*
G01*
X65157000Y-84770000D01*
G75*
G02*
X65292000Y-84905000I0J-135000D01*
G01*
G37*
%TD.AperFunction*%
%TO.P,R6,1*%
%TO.N,/MCU_USB_D+*%
%TA.AperFunction,SMDPad,CuDef*%
G36*
G01*
X66312000Y-84905000D02*
X66312000Y-85275000D01*
G75*
G02*
X66177000Y-85410000I-135000J0D01*
G01*
X65907000Y-85410000D01*
G75*
G02*
X65772000Y-85275000I0J135000D01*
G01*
X65772000Y-84905000D01*
G75*
G02*
X65907000Y-84770000I135000J0D01*
G01*
X66177000Y-84770000D01*
G75*
G02*
X66312000Y-84905000I0J-135000D01*
G01*
G37*
%TD.AperFunction*%
%TD*%
%TO.P,R5,2*%
%TO.N,Net-(J1-PadA7)*%
%TA.AperFunction,SMDPad,CuDef*%
G36*
G01*
X65292000Y-82873000D02*
X65292000Y-83243000D01*
G75*
G02*
X65157000Y-83378000I-135000J0D01*
G01*
X64887000Y-83378000D01*
G75*
G02*
X64752000Y-83243000I0J135000D01*
G01*
X64752000Y-82873000D01*
G75*
G02*
X64887000Y-82738000I135000J0D01*
G01*
X65157000Y-82738000D01*
G75*
G02*
X65292000Y-82873000I0J-135000D01*
G01*
G37*
%TD.AperFunction*%
%TO.P,R5,1*%
%TO.N,/MCU_USB_D-*%
%TA.AperFunction,SMDPad,CuDef*%
G36*
G01*
X66312000Y-82873000D02*
X66312000Y-83243000D01*
G75*
G02*
X66177000Y-83378000I-135000J0D01*
G01*
X65907000Y-83378000D01*
G75*
G02*
X65772000Y-83243000I0J135000D01*
G01*
X65772000Y-82873000D01*
G75*
G02*
X65907000Y-82738000I135000J0D01*
G01*
X66177000Y-82738000D01*
G75*
G02*
X66312000Y-82873000I0J-135000D01*
G01*
G37*
%TD.AperFunction*%
%TD*%
%TO.P,R4,2*%
%TO.N,Net-(J1-PadB5)*%
%TA.AperFunction,SMDPad,CuDef*%
G36*
G01*
X65292000Y-85921000D02*
X65292000Y-86291000D01*
G75*
G02*
X65157000Y-86426000I-135000J0D01*
G01*
X64887000Y-86426000D01*
G75*
G02*
X64752000Y-86291000I0J135000D01*
G01*
X64752000Y-85921000D01*
G75*
G02*
X64887000Y-85786000I135000J0D01*
G01*
X65157000Y-85786000D01*
G75*
G02*
X65292000Y-85921000I0J-135000D01*
G01*
G37*
%TD.AperFunction*%
%TO.P,R4,1*%
%TO.N,GND*%
%TA.AperFunction,SMDPad,CuDef*%
G36*
G01*
X66312000Y-85921000D02*
X66312000Y-86291000D01*
G75*
G02*
X66177000Y-86426000I-135000J0D01*
G01*
X65907000Y-86426000D01*
G75*
G02*
X65772000Y-86291000I0J135000D01*
G01*
X65772000Y-85921000D01*
G75*
G02*
X65907000Y-85786000I135000J0D01*
G01*
X66177000Y-85786000D01*
G75*
G02*
X66312000Y-85921000I0J-135000D01*
G01*
G37*
%TD.AperFunction*%
%TD*%
%TO.P,R3,2*%
%TO.N,Net-(J1-PadA5)*%
%TA.AperFunction,SMDPad,CuDef*%
G36*
G01*
X65292000Y-81857000D02*
X65292000Y-82227000D01*
G75*
G02*
X65157000Y-82362000I-135000J0D01*
G01*
X64887000Y-82362000D01*
G75*
G02*
X64752000Y-82227000I0J135000D01*
G01*
X64752000Y-81857000D01*
G75*
G02*
X64887000Y-81722000I135000J0D01*
G01*
X65157000Y-81722000D01*
G75*
G02*
X65292000Y-81857000I0J-135000D01*
G01*
G37*
%TD.AperFunction*%
%TO.P,R3,1*%
%TO.N,GND*%
%TA.AperFunction,SMDPad,CuDef*%
G36*
G01*
X66312000Y-81857000D02*
X66312000Y-82227000D01*
G75*
G02*
X66177000Y-82362000I-135000J0D01*
G01*
X65907000Y-82362000D01*
G75*
G02*
X65772000Y-82227000I0J135000D01*
G01*
X65772000Y-81857000D01*
G75*
G02*
X65907000Y-81722000I135000J0D01*
G01*
X66177000Y-81722000D01*
G75*
G02*
X66312000Y-81857000I0J-135000D01*
G01*
G37*
%TD.AperFunction*%
%TD*%
%TO.P,R2,2*%
%TO.N,GND*%
%TA.AperFunction,SMDPad,CuDef*%
G36*
G01*
X70935000Y-90918000D02*
X71305000Y-90918000D01*
G75*
G02*
X71440000Y-91053000I0J-135000D01*
G01*
X71440000Y-91323000D01*
G75*
G02*
X71305000Y-91458000I-135000J0D01*
G01*
X70935000Y-91458000D01*
G75*
G02*
X70800000Y-91323000I0J135000D01*
G01*
X70800000Y-91053000D01*
G75*
G02*
X70935000Y-90918000I135000J0D01*
G01*
G37*
%TD.AperFunction*%
%TO.P,R2,1*%
%TO.N,Net-(R2-Pad1)*%
%TA.AperFunction,SMDPad,CuDef*%
G36*
G01*
X70935000Y-89898000D02*
X71305000Y-89898000D01*
G75*
G02*
X71440000Y-90033000I0J-135000D01*
G01*
X71440000Y-90303000D01*
G75*
G02*
X71305000Y-90438000I-135000J0D01*
G01*
X70935000Y-90438000D01*
G75*
G02*
X70800000Y-90303000I0J135000D01*
G01*
X70800000Y-90033000D01*
G75*
G02*
X70935000Y-89898000I135000J0D01*
G01*
G37*
%TD.AperFunction*%
%TD*%
%TO.P,R1,2*%
%TO.N,GND*%
%TA.AperFunction,SMDPad,CuDef*%
G36*
G01*
X69919000Y-90918000D02*
X70289000Y-90918000D01*
G75*
G02*
X70424000Y-91053000I0J-135000D01*
G01*
X70424000Y-91323000D01*
G75*
G02*
X70289000Y-91458000I-135000J0D01*
G01*
X69919000Y-91458000D01*
G75*
G02*
X69784000Y-91323000I0J135000D01*
G01*
X69784000Y-91053000D01*
G75*
G02*
X69919000Y-90918000I135000J0D01*
G01*
G37*
%TD.AperFunction*%
%TO.P,R1,1*%
%TO.N,Net-(R1-Pad1)*%
%TA.AperFunction,SMDPad,CuDef*%
G36*
G01*
X69919000Y-89898000D02*
X70289000Y-89898000D01*
G75*
G02*
X70424000Y-90033000I0J-135000D01*
G01*
X70424000Y-90303000D01*
G75*
G02*
X70289000Y-90438000I-135000J0D01*
G01*
X69919000Y-90438000D01*
G75*
G02*
X69784000Y-90303000I0J135000D01*
G01*
X69784000Y-90033000D01*
G75*
G02*
X69919000Y-89898000I135000J0D01*
G01*
G37*
%TD.AperFunction*%
%TD*%
D15*
%TO.P,JP1,2*%
%TO.N,GND*%
X79502000Y-78471000D03*
%TO.P,JP1,1*%
%TO.N,Net-(JP1-Pad1)*%
X79502000Y-79771000D03*
%TD*%
D16*
%TO.P,J1,A12*%
%TO.N,GND*%
X63470000Y-87274000D03*
%TO.P,J1,A9*%
%TO.N,Net-(F1-Pad2)*%
X63470000Y-86474000D03*
%TO.P,J1,B1*%
%TO.N,GND*%
X63470000Y-87274000D03*
%TO.P,J1,B4*%
%TO.N,Net-(F1-Pad2)*%
X63470000Y-86474000D03*
%TO.P,J1,B12*%
%TO.N,GND*%
X63470000Y-80874000D03*
%TO.P,J1,A1*%
X63470000Y-80874000D03*
%TO.P,J1,B9*%
%TO.N,Net-(F1-Pad2)*%
X63470000Y-81674000D03*
%TO.P,J1,A4*%
X63470000Y-81674000D03*
D17*
%TO.P,J1,B5*%
%TO.N,Net-(J1-PadB5)*%
X63470000Y-85824000D03*
%TO.P,J1,B6*%
%TO.N,/USB_RENUM*%
X63470000Y-84824000D03*
%TO.P,J1,A8*%
%TO.N,Net-(J1-PadA8)*%
X63470000Y-85324000D03*
%TO.P,J1,A5*%
%TO.N,Net-(J1-PadA5)*%
X63470000Y-82824000D03*
%TO.P,J1,B8*%
%TO.N,Net-(J1-PadB8)*%
X63470000Y-82324000D03*
%TO.P,J1,A7*%
%TO.N,Net-(J1-PadA7)*%
X63470000Y-84324000D03*
%TO.P,J1,A6*%
%TO.N,/USB_RENUM*%
X63470000Y-83824000D03*
%TO.P,J1,B7*%
%TO.N,Net-(J1-PadA7)*%
X63470000Y-83324000D03*
D18*
%TO.P,J1,S1*%
%TO.N,GND*%
X58720000Y-88394000D03*
X58720000Y-79754000D03*
D19*
X62890000Y-88394000D03*
X62890000Y-79754000D03*
%TD*%
%TO.P,D5,2*%
%TO.N,+3V3*%
%TA.AperFunction,SMDPad,CuDef*%
G36*
G01*
X75792000Y-76872000D02*
X75592000Y-76872000D01*
G75*
G02*
X75492000Y-76772000I0J100000D01*
G01*
X75492000Y-76512000D01*
G75*
G02*
X75592000Y-76412000I100000J0D01*
G01*
X75792000Y-76412000D01*
G75*
G02*
X75892000Y-76512000I0J-100000D01*
G01*
X75892000Y-76772000D01*
G75*
G02*
X75792000Y-76872000I-100000J0D01*
G01*
G37*
%TD.AperFunction*%
%TO.P,D5,1*%
%TO.N,Net-(D5-Pad1)*%
%TA.AperFunction,SMDPad,CuDef*%
G36*
G01*
X75792000Y-77512000D02*
X75592000Y-77512000D01*
G75*
G02*
X75492000Y-77412000I0J100000D01*
G01*
X75492000Y-77152000D01*
G75*
G02*
X75592000Y-77052000I100000J0D01*
G01*
X75792000Y-77052000D01*
G75*
G02*
X75892000Y-77152000I0J-100000D01*
G01*
X75892000Y-77412000D01*
G75*
G02*
X75792000Y-77512000I-100000J0D01*
G01*
G37*
%TD.AperFunction*%
%TD*%
%TO.P,D4,2*%
%TO.N,+3V3*%
%TA.AperFunction,SMDPad,CuDef*%
G36*
G01*
X76808000Y-76872000D02*
X76608000Y-76872000D01*
G75*
G02*
X76508000Y-76772000I0J100000D01*
G01*
X76508000Y-76512000D01*
G75*
G02*
X76608000Y-76412000I100000J0D01*
G01*
X76808000Y-76412000D01*
G75*
G02*
X76908000Y-76512000I0J-100000D01*
G01*
X76908000Y-76772000D01*
G75*
G02*
X76808000Y-76872000I-100000J0D01*
G01*
G37*
%TD.AperFunction*%
%TO.P,D4,1*%
%TO.N,Net-(D4-Pad1)*%
%TA.AperFunction,SMDPad,CuDef*%
G36*
G01*
X76808000Y-77512000D02*
X76608000Y-77512000D01*
G75*
G02*
X76508000Y-77412000I0J100000D01*
G01*
X76508000Y-77152000D01*
G75*
G02*
X76608000Y-77052000I100000J0D01*
G01*
X76808000Y-77052000D01*
G75*
G02*
X76908000Y-77152000I0J-100000D01*
G01*
X76908000Y-77412000D01*
G75*
G02*
X76808000Y-77512000I-100000J0D01*
G01*
G37*
%TD.AperFunction*%
%TD*%
%TO.P,D3,2*%
%TO.N,Net-(D3-Pad2)*%
%TA.AperFunction,SMDPad,CuDef*%
G36*
G01*
X72544000Y-77052000D02*
X72744000Y-77052000D01*
G75*
G02*
X72844000Y-77152000I0J-100000D01*
G01*
X72844000Y-77412000D01*
G75*
G02*
X72744000Y-77512000I-100000J0D01*
G01*
X72544000Y-77512000D01*
G75*
G02*
X72444000Y-77412000I0J100000D01*
G01*
X72444000Y-77152000D01*
G75*
G02*
X72544000Y-77052000I100000J0D01*
G01*
G37*
%TD.AperFunction*%
%TO.P,D3,1*%
%TO.N,GND*%
%TA.AperFunction,SMDPad,CuDef*%
G36*
G01*
X72544000Y-76412000D02*
X72744000Y-76412000D01*
G75*
G02*
X72844000Y-76512000I0J-100000D01*
G01*
X72844000Y-76772000D01*
G75*
G02*
X72744000Y-76872000I-100000J0D01*
G01*
X72544000Y-76872000D01*
G75*
G02*
X72444000Y-76772000I0J100000D01*
G01*
X72444000Y-76512000D01*
G75*
G02*
X72544000Y-76412000I100000J0D01*
G01*
G37*
%TD.AperFunction*%
%TD*%
%TO.P,D2,2*%
%TO.N,+3V3*%
%TA.AperFunction,SMDPad,CuDef*%
G36*
G01*
X74776000Y-76872000D02*
X74576000Y-76872000D01*
G75*
G02*
X74476000Y-76772000I0J100000D01*
G01*
X74476000Y-76512000D01*
G75*
G02*
X74576000Y-76412000I100000J0D01*
G01*
X74776000Y-76412000D01*
G75*
G02*
X74876000Y-76512000I0J-100000D01*
G01*
X74876000Y-76772000D01*
G75*
G02*
X74776000Y-76872000I-100000J0D01*
G01*
G37*
%TD.AperFunction*%
%TO.P,D2,1*%
%TO.N,Net-(D2-Pad1)*%
%TA.AperFunction,SMDPad,CuDef*%
G36*
G01*
X74776000Y-77512000D02*
X74576000Y-77512000D01*
G75*
G02*
X74476000Y-77412000I0J100000D01*
G01*
X74476000Y-77152000D01*
G75*
G02*
X74576000Y-77052000I100000J0D01*
G01*
X74776000Y-77052000D01*
G75*
G02*
X74876000Y-77152000I0J-100000D01*
G01*
X74876000Y-77412000D01*
G75*
G02*
X74776000Y-77512000I-100000J0D01*
G01*
G37*
%TD.AperFunction*%
%TD*%
%TO.P,D1,2*%
%TO.N,Net-(D1-Pad2)*%
%TA.AperFunction,SMDPad,CuDef*%
G36*
G01*
X73560000Y-77052000D02*
X73760000Y-77052000D01*
G75*
G02*
X73860000Y-77152000I0J-100000D01*
G01*
X73860000Y-77412000D01*
G75*
G02*
X73760000Y-77512000I-100000J0D01*
G01*
X73560000Y-77512000D01*
G75*
G02*
X73460000Y-77412000I0J100000D01*
G01*
X73460000Y-77152000D01*
G75*
G02*
X73560000Y-77052000I100000J0D01*
G01*
G37*
%TD.AperFunction*%
%TO.P,D1,1*%
%TO.N,GND*%
%TA.AperFunction,SMDPad,CuDef*%
G36*
G01*
X73560000Y-76412000D02*
X73760000Y-76412000D01*
G75*
G02*
X73860000Y-76512000I0J-100000D01*
G01*
X73860000Y-76772000D01*
G75*
G02*
X73760000Y-76872000I-100000J0D01*
G01*
X73560000Y-76872000D01*
G75*
G02*
X73460000Y-76772000I0J100000D01*
G01*
X73460000Y-76512000D01*
G75*
G02*
X73560000Y-76412000I100000J0D01*
G01*
G37*
%TD.AperFunction*%
%TD*%
%TO.P,C15,2*%
%TO.N,GND*%
%TA.AperFunction,SMDPad,CuDef*%
G36*
G01*
X67226000Y-77524000D02*
X66886000Y-77524000D01*
G75*
G02*
X66746000Y-77384000I0J140000D01*
G01*
X66746000Y-77104000D01*
G75*
G02*
X66886000Y-76964000I140000J0D01*
G01*
X67226000Y-76964000D01*
G75*
G02*
X67366000Y-77104000I0J-140000D01*
G01*
X67366000Y-77384000D01*
G75*
G02*
X67226000Y-77524000I-140000J0D01*
G01*
G37*
%TD.AperFunction*%
%TO.P,C15,1*%
%TO.N,+3V3*%
%TA.AperFunction,SMDPad,CuDef*%
G36*
G01*
X67226000Y-78484000D02*
X66886000Y-78484000D01*
G75*
G02*
X66746000Y-78344000I0J140000D01*
G01*
X66746000Y-78064000D01*
G75*
G02*
X66886000Y-77924000I140000J0D01*
G01*
X67226000Y-77924000D01*
G75*
G02*
X67366000Y-78064000I0J-140000D01*
G01*
X67366000Y-78344000D01*
G75*
G02*
X67226000Y-78484000I-140000J0D01*
G01*
G37*
%TD.AperFunction*%
%TD*%
%TO.P,C14,2*%
%TO.N,GND*%
%TA.AperFunction,SMDPad,CuDef*%
G36*
G01*
X57966000Y-77300000D02*
X57966000Y-77640000D01*
G75*
G02*
X57826000Y-77780000I-140000J0D01*
G01*
X57546000Y-77780000D01*
G75*
G02*
X57406000Y-77640000I0J140000D01*
G01*
X57406000Y-77300000D01*
G75*
G02*
X57546000Y-77160000I140000J0D01*
G01*
X57826000Y-77160000D01*
G75*
G02*
X57966000Y-77300000I0J-140000D01*
G01*
G37*
%TD.AperFunction*%
%TO.P,C14,1*%
%TO.N,+3.3VA*%
%TA.AperFunction,SMDPad,CuDef*%
G36*
G01*
X58926000Y-77300000D02*
X58926000Y-77640000D01*
G75*
G02*
X58786000Y-77780000I-140000J0D01*
G01*
X58506000Y-77780000D01*
G75*
G02*
X58366000Y-77640000I0J140000D01*
G01*
X58366000Y-77300000D01*
G75*
G02*
X58506000Y-77160000I140000J0D01*
G01*
X58786000Y-77160000D01*
G75*
G02*
X58926000Y-77300000I0J-140000D01*
G01*
G37*
%TD.AperFunction*%
%TD*%
%TO.P,C13,2*%
%TO.N,GND*%
%TA.AperFunction,SMDPad,CuDef*%
G36*
G01*
X68242000Y-77524000D02*
X67902000Y-77524000D01*
G75*
G02*
X67762000Y-77384000I0J140000D01*
G01*
X67762000Y-77104000D01*
G75*
G02*
X67902000Y-76964000I140000J0D01*
G01*
X68242000Y-76964000D01*
G75*
G02*
X68382000Y-77104000I0J-140000D01*
G01*
X68382000Y-77384000D01*
G75*
G02*
X68242000Y-77524000I-140000J0D01*
G01*
G37*
%TD.AperFunction*%
%TO.P,C13,1*%
%TO.N,+3V3*%
%TA.AperFunction,SMDPad,CuDef*%
G36*
G01*
X68242000Y-78484000D02*
X67902000Y-78484000D01*
G75*
G02*
X67762000Y-78344000I0J140000D01*
G01*
X67762000Y-78064000D01*
G75*
G02*
X67902000Y-77924000I140000J0D01*
G01*
X68242000Y-77924000D01*
G75*
G02*
X68382000Y-78064000I0J-140000D01*
G01*
X68382000Y-78344000D01*
G75*
G02*
X68242000Y-78484000I-140000J0D01*
G01*
G37*
%TD.AperFunction*%
%TD*%
%TO.P,C12,2*%
%TO.N,GND*%
%TA.AperFunction,SMDPad,CuDef*%
G36*
G01*
X62622000Y-78120001D02*
X62622000Y-76819999D01*
G75*
G02*
X62871999Y-76570000I249999J0D01*
G01*
X63522001Y-76570000D01*
G75*
G02*
X63772000Y-76819999I0J-249999D01*
G01*
X63772000Y-78120001D01*
G75*
G02*
X63522001Y-78370000I-249999J0D01*
G01*
X62871999Y-78370000D01*
G75*
G02*
X62622000Y-78120001I0J249999D01*
G01*
G37*
%TD.AperFunction*%
%TO.P,C12,1*%
%TO.N,+3.3VA*%
%TA.AperFunction,SMDPad,CuDef*%
G36*
G01*
X59672000Y-78120001D02*
X59672000Y-76819999D01*
G75*
G02*
X59921999Y-76570000I249999J0D01*
G01*
X60572001Y-76570000D01*
G75*
G02*
X60822000Y-76819999I0J-249999D01*
G01*
X60822000Y-78120001D01*
G75*
G02*
X60572001Y-78370000I-249999J0D01*
G01*
X59921999Y-78370000D01*
G75*
G02*
X59672000Y-78120001I0J249999D01*
G01*
G37*
%TD.AperFunction*%
%TD*%
%TO.P,C11,2*%
%TO.N,GND*%
%TA.AperFunction,SMDPad,CuDef*%
G36*
G01*
X66210000Y-77524000D02*
X65870000Y-77524000D01*
G75*
G02*
X65730000Y-77384000I0J140000D01*
G01*
X65730000Y-77104000D01*
G75*
G02*
X65870000Y-76964000I140000J0D01*
G01*
X66210000Y-76964000D01*
G75*
G02*
X66350000Y-77104000I0J-140000D01*
G01*
X66350000Y-77384000D01*
G75*
G02*
X66210000Y-77524000I-140000J0D01*
G01*
G37*
%TD.AperFunction*%
%TO.P,C11,1*%
%TO.N,Net-(C11-Pad1)*%
%TA.AperFunction,SMDPad,CuDef*%
G36*
G01*
X66210000Y-78484000D02*
X65870000Y-78484000D01*
G75*
G02*
X65730000Y-78344000I0J140000D01*
G01*
X65730000Y-78064000D01*
G75*
G02*
X65870000Y-77924000I140000J0D01*
G01*
X66210000Y-77924000D01*
G75*
G02*
X66350000Y-78064000I0J-140000D01*
G01*
X66350000Y-78344000D01*
G75*
G02*
X66210000Y-78484000I-140000J0D01*
G01*
G37*
%TD.AperFunction*%
%TD*%
%TO.P,C10,2*%
%TO.N,GND*%
%TA.AperFunction,SMDPad,CuDef*%
G36*
G01*
X73998000Y-90878000D02*
X74338000Y-90878000D01*
G75*
G02*
X74478000Y-91018000I0J-140000D01*
G01*
X74478000Y-91298000D01*
G75*
G02*
X74338000Y-91438000I-140000J0D01*
G01*
X73998000Y-91438000D01*
G75*
G02*
X73858000Y-91298000I0J140000D01*
G01*
X73858000Y-91018000D01*
G75*
G02*
X73998000Y-90878000I140000J0D01*
G01*
G37*
%TD.AperFunction*%
%TO.P,C10,1*%
%TO.N,/RST*%
%TA.AperFunction,SMDPad,CuDef*%
G36*
G01*
X73998000Y-89918000D02*
X74338000Y-89918000D01*
G75*
G02*
X74478000Y-90058000I0J-140000D01*
G01*
X74478000Y-90338000D01*
G75*
G02*
X74338000Y-90478000I-140000J0D01*
G01*
X73998000Y-90478000D01*
G75*
G02*
X73858000Y-90338000I0J140000D01*
G01*
X73858000Y-90058000D01*
G75*
G02*
X73998000Y-89918000I140000J0D01*
G01*
G37*
%TD.AperFunction*%
%TD*%
%TO.P,C8,2*%
%TO.N,GND*%
%TA.AperFunction,SMDPad,CuDef*%
G36*
G01*
X61892000Y-90478000D02*
X61552000Y-90478000D01*
G75*
G02*
X61412000Y-90338000I0J140000D01*
G01*
X61412000Y-90058000D01*
G75*
G02*
X61552000Y-89918000I140000J0D01*
G01*
X61892000Y-89918000D01*
G75*
G02*
X62032000Y-90058000I0J-140000D01*
G01*
X62032000Y-90338000D01*
G75*
G02*
X61892000Y-90478000I-140000J0D01*
G01*
G37*
%TD.AperFunction*%
%TO.P,C8,1*%
%TO.N,+5V*%
%TA.AperFunction,SMDPad,CuDef*%
G36*
G01*
X61892000Y-91438000D02*
X61552000Y-91438000D01*
G75*
G02*
X61412000Y-91298000I0J140000D01*
G01*
X61412000Y-91018000D01*
G75*
G02*
X61552000Y-90878000I140000J0D01*
G01*
X61892000Y-90878000D01*
G75*
G02*
X62032000Y-91018000I0J-140000D01*
G01*
X62032000Y-91298000D01*
G75*
G02*
X61892000Y-91438000I-140000J0D01*
G01*
G37*
%TD.AperFunction*%
%TD*%
%TO.P,C7,2*%
%TO.N,GND*%
%TA.AperFunction,SMDPad,CuDef*%
G36*
G01*
X77640000Y-79302000D02*
X77300000Y-79302000D01*
G75*
G02*
X77160000Y-79162000I0J140000D01*
G01*
X77160000Y-78882000D01*
G75*
G02*
X77300000Y-78742000I140000J0D01*
G01*
X77640000Y-78742000D01*
G75*
G02*
X77780000Y-78882000I0J-140000D01*
G01*
X77780000Y-79162000D01*
G75*
G02*
X77640000Y-79302000I-140000J0D01*
G01*
G37*
%TD.AperFunction*%
%TO.P,C7,1*%
%TO.N,+3V3*%
%TA.AperFunction,SMDPad,CuDef*%
G36*
G01*
X77640000Y-80262000D02*
X77300000Y-80262000D01*
G75*
G02*
X77160000Y-80122000I0J140000D01*
G01*
X77160000Y-79842000D01*
G75*
G02*
X77300000Y-79702000I140000J0D01*
G01*
X77640000Y-79702000D01*
G75*
G02*
X77780000Y-79842000I0J-140000D01*
G01*
X77780000Y-80122000D01*
G75*
G02*
X77640000Y-80262000I-140000J0D01*
G01*
G37*
%TD.AperFunction*%
%TD*%
%TO.P,C6,2*%
%TO.N,Net-(F1-Pad2)*%
%TA.AperFunction,SMDPad,CuDef*%
G36*
G01*
X58732000Y-90203000D02*
X58732000Y-91153000D01*
G75*
G02*
X58482000Y-91403000I-250000J0D01*
G01*
X57982000Y-91403000D01*
G75*
G02*
X57732000Y-91153000I0J250000D01*
G01*
X57732000Y-90203000D01*
G75*
G02*
X57982000Y-89953000I250000J0D01*
G01*
X58482000Y-89953000D01*
G75*
G02*
X58732000Y-90203000I0J-250000D01*
G01*
G37*
%TD.AperFunction*%
%TO.P,C6,1*%
%TO.N,+5V*%
%TA.AperFunction,SMDPad,CuDef*%
G36*
G01*
X60632000Y-90203000D02*
X60632000Y-91153000D01*
G75*
G02*
X60382000Y-91403000I-250000J0D01*
G01*
X59882000Y-91403000D01*
G75*
G02*
X59632000Y-91153000I0J250000D01*
G01*
X59632000Y-90203000D01*
G75*
G02*
X59882000Y-89953000I250000J0D01*
G01*
X60382000Y-89953000D01*
G75*
G02*
X60632000Y-90203000I0J-250000D01*
G01*
G37*
%TD.AperFunction*%
%TD*%
%TO.P,C5,2*%
%TO.N,GND*%
%TA.AperFunction,SMDPad,CuDef*%
G36*
G01*
X67902000Y-90878000D02*
X68242000Y-90878000D01*
G75*
G02*
X68382000Y-91018000I0J-140000D01*
G01*
X68382000Y-91298000D01*
G75*
G02*
X68242000Y-91438000I-140000J0D01*
G01*
X67902000Y-91438000D01*
G75*
G02*
X67762000Y-91298000I0J140000D01*
G01*
X67762000Y-91018000D01*
G75*
G02*
X67902000Y-90878000I140000J0D01*
G01*
G37*
%TD.AperFunction*%
%TO.P,C5,1*%
%TO.N,+3V3*%
%TA.AperFunction,SMDPad,CuDef*%
G36*
G01*
X67902000Y-89918000D02*
X68242000Y-89918000D01*
G75*
G02*
X68382000Y-90058000I0J-140000D01*
G01*
X68382000Y-90338000D01*
G75*
G02*
X68242000Y-90478000I-140000J0D01*
G01*
X67902000Y-90478000D01*
G75*
G02*
X67762000Y-90338000I0J140000D01*
G01*
X67762000Y-90058000D01*
G75*
G02*
X67902000Y-89918000I140000J0D01*
G01*
G37*
%TD.AperFunction*%
%TD*%
%TO.P,C4,2*%
%TO.N,GND*%
%TA.AperFunction,SMDPad,CuDef*%
G36*
G01*
X65332000Y-86952000D02*
X65332000Y-87292000D01*
G75*
G02*
X65192000Y-87432000I-140000J0D01*
G01*
X64912000Y-87432000D01*
G75*
G02*
X64772000Y-87292000I0J140000D01*
G01*
X64772000Y-86952000D01*
G75*
G02*
X64912000Y-86812000I140000J0D01*
G01*
X65192000Y-86812000D01*
G75*
G02*
X65332000Y-86952000I0J-140000D01*
G01*
G37*
%TD.AperFunction*%
%TO.P,C4,1*%
%TO.N,+3V3*%
%TA.AperFunction,SMDPad,CuDef*%
G36*
G01*
X66292000Y-86952000D02*
X66292000Y-87292000D01*
G75*
G02*
X66152000Y-87432000I-140000J0D01*
G01*
X65872000Y-87432000D01*
G75*
G02*
X65732000Y-87292000I0J140000D01*
G01*
X65732000Y-86952000D01*
G75*
G02*
X65872000Y-86812000I140000J0D01*
G01*
X66152000Y-86812000D01*
G75*
G02*
X66292000Y-86952000I0J-140000D01*
G01*
G37*
%TD.AperFunction*%
%TD*%
%TO.P,C3,2*%
%TO.N,GND*%
%TA.AperFunction,SMDPad,CuDef*%
G36*
G01*
X69258000Y-77524000D02*
X68918000Y-77524000D01*
G75*
G02*
X68778000Y-77384000I0J140000D01*
G01*
X68778000Y-77104000D01*
G75*
G02*
X68918000Y-76964000I140000J0D01*
G01*
X69258000Y-76964000D01*
G75*
G02*
X69398000Y-77104000I0J-140000D01*
G01*
X69398000Y-77384000D01*
G75*
G02*
X69258000Y-77524000I-140000J0D01*
G01*
G37*
%TD.AperFunction*%
%TO.P,C3,1*%
%TO.N,+3V3*%
%TA.AperFunction,SMDPad,CuDef*%
G36*
G01*
X69258000Y-78484000D02*
X68918000Y-78484000D01*
G75*
G02*
X68778000Y-78344000I0J140000D01*
G01*
X68778000Y-78064000D01*
G75*
G02*
X68918000Y-77924000I140000J0D01*
G01*
X69258000Y-77924000D01*
G75*
G02*
X69398000Y-78064000I0J-140000D01*
G01*
X69398000Y-78344000D01*
G75*
G02*
X69258000Y-78484000I-140000J0D01*
G01*
G37*
%TD.AperFunction*%
%TD*%
%TO.P,C2,2*%
%TO.N,GND*%
%TA.AperFunction,SMDPad,CuDef*%
G36*
G01*
X72982000Y-90878000D02*
X73322000Y-90878000D01*
G75*
G02*
X73462000Y-91018000I0J-140000D01*
G01*
X73462000Y-91298000D01*
G75*
G02*
X73322000Y-91438000I-140000J0D01*
G01*
X72982000Y-91438000D01*
G75*
G02*
X72842000Y-91298000I0J140000D01*
G01*
X72842000Y-91018000D01*
G75*
G02*
X72982000Y-90878000I140000J0D01*
G01*
G37*
%TD.AperFunction*%
%TO.P,C2,1*%
%TO.N,/OSC_OUT*%
%TA.AperFunction,SMDPad,CuDef*%
G36*
G01*
X72982000Y-89918000D02*
X73322000Y-89918000D01*
G75*
G02*
X73462000Y-90058000I0J-140000D01*
G01*
X73462000Y-90338000D01*
G75*
G02*
X73322000Y-90478000I-140000J0D01*
G01*
X72982000Y-90478000D01*
G75*
G02*
X72842000Y-90338000I0J140000D01*
G01*
X72842000Y-90058000D01*
G75*
G02*
X72982000Y-89918000I140000J0D01*
G01*
G37*
%TD.AperFunction*%
%TD*%
%TO.P,C1,2*%
%TO.N,GND*%
%TA.AperFunction,SMDPad,CuDef*%
G36*
G01*
X71966000Y-90878000D02*
X72306000Y-90878000D01*
G75*
G02*
X72446000Y-91018000I0J-140000D01*
G01*
X72446000Y-91298000D01*
G75*
G02*
X72306000Y-91438000I-140000J0D01*
G01*
X71966000Y-91438000D01*
G75*
G02*
X71826000Y-91298000I0J140000D01*
G01*
X71826000Y-91018000D01*
G75*
G02*
X71966000Y-90878000I140000J0D01*
G01*
G37*
%TD.AperFunction*%
%TO.P,C1,1*%
%TO.N,/OSC_IN*%
%TA.AperFunction,SMDPad,CuDef*%
G36*
G01*
X71966000Y-89918000D02*
X72306000Y-89918000D01*
G75*
G02*
X72446000Y-90058000I0J-140000D01*
G01*
X72446000Y-90338000D01*
G75*
G02*
X72306000Y-90478000I-140000J0D01*
G01*
X71966000Y-90478000D01*
G75*
G02*
X71826000Y-90338000I0J140000D01*
G01*
X71826000Y-90058000D01*
G75*
G02*
X71966000Y-89918000I140000J0D01*
G01*
G37*
%TD.AperFunction*%
%TD*%
D20*
%TO.N,GND*%
X73533000Y-86487000D03*
X74041000Y-84709000D03*
X73660000Y-83058000D03*
X70866000Y-83439000D03*
X70866000Y-78232000D03*
X61976000Y-84963000D03*
%TO.N,/OSC_IN*%
X72136000Y-90198000D03*
%TO.N,/OSC_OUT*%
X73152000Y-90198000D03*
%TO.N,+3V3*%
X68326000Y-89662000D03*
X72644000Y-78486000D03*
X78994000Y-77343000D03*
X66738500Y-79184500D03*
X75690000Y-91188000D03*
%TO.N,+5V*%
X60119500Y-90678000D03*
%TO.N,Net-(C11-Pad1)*%
X65659000Y-79438500D03*
%TO.N,Net-(D1-Pad2)*%
X73660000Y-77470000D03*
%TO.N,Net-(D2-Pad1)*%
X74676000Y-77470000D03*
%TO.N,Net-(D3-Pad2)*%
X72644000Y-77470000D03*
%TO.N,Net-(D4-Pad1)*%
X76708000Y-77470000D03*
%TO.N,Net-(D5-Pad1)*%
X75692000Y-77470000D03*
%TO.N,Net-(F1-Pad2)*%
X58293000Y-90678000D03*
%TO.N,/MCU_SWCLK*%
X69342000Y-80391000D03*
%TO.N,/MCU_SWDIO*%
X71755000Y-78486000D03*
%TO.N,/RX*%
X79121000Y-86824820D03*
%TO.N,/RESET*%
X75819000Y-84328000D03*
%TO.N,/SWIN*%
X73914000Y-81788000D03*
%TO.N,/SWCLK*%
X75819000Y-85598000D03*
X75057000Y-81534000D03*
%TO.N,/SWDIO*%
X74422000Y-82677000D03*
%TO.N,Net-(Q1-Pad2)*%
X67056000Y-84074000D03*
%TO.N,Net-(Q1-Pad1)*%
X65278000Y-90678000D03*
%TO.N,/MCU_USB_D-*%
X73025000Y-82423000D03*
X67056000Y-83058000D03*
%TO.N,/MCU_USB_D+*%
X72390000Y-81788000D03*
X67056000Y-85090000D03*
%TO.N,/MCU_USB_RENUM*%
X67056000Y-89662000D03*
X67818000Y-81788000D03*
%TO.N,/LED_LINK*%
X73660000Y-78486000D03*
%TO.N,/BOOT0*%
X71374000Y-84074000D03*
X69850000Y-89154000D03*
%TO.N,/BOOT1*%
X78232000Y-90170000D03*
X76022200Y-83324700D03*
%TO.N,+3.3VA*%
X59436000Y-77470000D03*
%TD*%
D21*
%TO.N,GND*%
X71156000Y-78014000D02*
X71120000Y-77978000D01*
X66260000Y-86324000D02*
X66042000Y-86106000D01*
X69356000Y-86324000D02*
X66260000Y-86324000D01*
X76535549Y-81824000D02*
X74676000Y-83683549D01*
X77456000Y-81824000D02*
X76535549Y-81824000D01*
X71120000Y-77978000D02*
X71120000Y-77978000D01*
X74676000Y-84074000D02*
X74676000Y-83683549D01*
X74041000Y-84709000D02*
X74676000Y-84074000D01*
X69356000Y-86324000D02*
X70521000Y-86324000D01*
X70521000Y-86324000D02*
X71120000Y-85725000D01*
D22*
X74190990Y-87144990D02*
X74190990Y-89076613D01*
X73533000Y-86487000D02*
X74190990Y-87144990D01*
X74190990Y-89076613D02*
X74649377Y-89535000D01*
X71156000Y-78874000D02*
X71156000Y-80024000D01*
X70866000Y-78584000D02*
X71156000Y-78874000D01*
X70866000Y-78232000D02*
X70866000Y-78584000D01*
D23*
%TO.N,/OSC_IN*%
X72136000Y-90198000D02*
X72136000Y-90198000D01*
X72136000Y-90198000D02*
X72136000Y-90170000D01*
D21*
X72656000Y-89678000D02*
X72136000Y-90198000D01*
X72656000Y-88124000D02*
X72656000Y-89678000D01*
D23*
%TO.N,/OSC_OUT*%
X73152000Y-90198000D02*
X73152000Y-90198000D01*
D21*
X73152000Y-88128000D02*
X73156000Y-88124000D01*
X73152000Y-90198000D02*
X73152000Y-88128000D01*
D23*
%TO.N,+3V3*%
X76708000Y-76642000D02*
X74676000Y-76642000D01*
X67056000Y-78204000D02*
X69088000Y-78204000D01*
X75184000Y-91188000D02*
X75690000Y-91188000D01*
X75690000Y-91188000D02*
X76200000Y-91188000D01*
X67056000Y-78867000D02*
X66738500Y-79184500D01*
X67056000Y-78204000D02*
X67056000Y-78867000D01*
D21*
X74656000Y-87038500D02*
X74656000Y-88124000D01*
X70656000Y-86887500D02*
X70719500Y-86824000D01*
X70656000Y-88124000D02*
X70656000Y-86887500D01*
X70146000Y-88124000D02*
X70656000Y-88124000D01*
X66310000Y-86824000D02*
X66012000Y-87122000D01*
X69356000Y-86824000D02*
X66310000Y-86824000D01*
X70568000Y-86824000D02*
X70719500Y-86824000D01*
X69356000Y-86824000D02*
X70568000Y-86824000D01*
X70656000Y-80024000D02*
X70656000Y-79038000D01*
X69822000Y-78204000D02*
X69088000Y-78204000D01*
X70656000Y-79038000D02*
X69822000Y-78204000D01*
X69818038Y-78204000D02*
X70806038Y-77216000D01*
X69088000Y-78204000D02*
X69818038Y-78204000D01*
X72016999Y-77858999D02*
X72644000Y-78486000D01*
X70806038Y-77216000D02*
X71628000Y-77216000D01*
X72016999Y-77604999D02*
X72016999Y-77858999D01*
X71628000Y-77216000D02*
X72016999Y-77604999D01*
X77456000Y-79996000D02*
X77470000Y-79982000D01*
X77456000Y-81324000D02*
X77456000Y-79996000D01*
X68072000Y-89916000D02*
X68326000Y-89662000D01*
X68072000Y-90198000D02*
X68072000Y-89916000D01*
X69864000Y-88124000D02*
X70146000Y-88124000D01*
X68326000Y-89662000D02*
X69864000Y-88124000D01*
X77188000Y-79982000D02*
X77470000Y-79982000D01*
X76832990Y-79626990D02*
X77188000Y-79982000D01*
X76832990Y-78615010D02*
X76832990Y-79626990D01*
X76908000Y-76642000D02*
X77335001Y-77069001D01*
X77335001Y-78112999D02*
X76832990Y-78615010D01*
X76708000Y-76642000D02*
X76908000Y-76642000D01*
X70656000Y-82086000D02*
X72001001Y-83431001D01*
X72001001Y-83431001D02*
X72001001Y-85624999D01*
X70656000Y-80024000D02*
X70656000Y-82086000D01*
X77343000Y-77343000D02*
X77335001Y-77350999D01*
X78994000Y-77343000D02*
X77343000Y-77343000D01*
X77335001Y-77350999D02*
X77335001Y-78112999D01*
X77335001Y-77069001D02*
X77335001Y-77350999D01*
D22*
X74656000Y-87038500D02*
X74656000Y-86340000D01*
X74033001Y-85717001D02*
X72001001Y-85717001D01*
X74656000Y-86340000D02*
X74033001Y-85717001D01*
D21*
X72001001Y-85624999D02*
X72001001Y-85717001D01*
D22*
X71928999Y-86352001D02*
X71457000Y-86824000D01*
D21*
X70719500Y-86824000D02*
X71457000Y-86824000D01*
D22*
X72001001Y-86279999D02*
X71928999Y-86352001D01*
X72001001Y-85717001D02*
X72001001Y-86279999D01*
D23*
%TO.N,+5V*%
X60612000Y-91158000D02*
X61722000Y-91158000D01*
X60132000Y-90678000D02*
X60612000Y-91158000D01*
%TO.N,/RST*%
X75154000Y-90168000D02*
X75184000Y-90198000D01*
D21*
X73656000Y-89686000D02*
X73656000Y-88124000D01*
X74168000Y-90198000D02*
X73656000Y-89686000D01*
X75154000Y-90198000D02*
X75184000Y-90168000D01*
X74168000Y-90198000D02*
X75154000Y-90198000D01*
D23*
%TO.N,Net-(C11-Pad1)*%
X65659000Y-78585000D02*
X66040000Y-78204000D01*
X65659000Y-79438500D02*
X65659000Y-78585000D01*
D21*
%TO.N,Net-(F1-Pad2)*%
X62710961Y-86336999D02*
X62109039Y-86336999D01*
X62847962Y-86474000D02*
X62710961Y-86336999D01*
X63470000Y-86474000D02*
X62847962Y-86474000D01*
X62801398Y-81674000D02*
X60960000Y-83515398D01*
X63470000Y-81674000D02*
X62801398Y-81674000D01*
X60983001Y-86336999D02*
X60960000Y-86360000D01*
X62109039Y-86336999D02*
X60983001Y-86336999D01*
X60960000Y-83515398D02*
X60960000Y-86360000D01*
X60960000Y-86360000D02*
X60960000Y-87884000D01*
X60960000Y-88011000D02*
X60960000Y-87884000D01*
X58293000Y-90678000D02*
X60960000Y-88011000D01*
%TO.N,Net-(J1-PadB5)*%
X64740000Y-85824000D02*
X63470000Y-85824000D01*
X65022000Y-86106000D02*
X64740000Y-85824000D01*
%TO.N,/USB_RENUM*%
X64772000Y-83824000D02*
X65022000Y-84074000D01*
X63470000Y-83824000D02*
X64772000Y-83824000D01*
X64756000Y-84824000D02*
X65022000Y-85090000D01*
X63470000Y-84824000D02*
X64756000Y-84824000D01*
X65022000Y-85090000D02*
X65022000Y-84074000D01*
%TO.N,Net-(J1-PadA5)*%
X64262999Y-82801001D02*
X63692305Y-82801001D01*
X65022000Y-82042000D02*
X64262999Y-82801001D01*
%TO.N,Net-(J1-PadA7)*%
X64756000Y-83324000D02*
X65022000Y-83058000D01*
X63470000Y-83324000D02*
X64756000Y-83324000D01*
X62651398Y-84324000D02*
X63470000Y-84324000D01*
X62562999Y-84235601D02*
X62651398Y-84324000D01*
X62562999Y-83397001D02*
X62562999Y-84235601D01*
X62636000Y-83324000D02*
X62562999Y-83397001D01*
X63470000Y-83324000D02*
X62636000Y-83324000D01*
%TO.N,/MCU_SWCLK*%
X69342000Y-81310000D02*
X69356000Y-81324000D01*
X69342000Y-80391000D02*
X69342000Y-81310000D01*
%TO.N,/MCU_SWDIO*%
X71656000Y-78585000D02*
X71755000Y-78486000D01*
X71656000Y-80024000D02*
X71656000Y-78585000D01*
D23*
%TO.N,/RX*%
X81832000Y-86824000D02*
X82042000Y-86614000D01*
D21*
X79120180Y-86824000D02*
X79121000Y-86824820D01*
X77456000Y-86824000D02*
X79120180Y-86824000D01*
%TO.N,/TX*%
X76156000Y-88124000D02*
X78944500Y-88124000D01*
X78944500Y-88124000D02*
X80200500Y-86868000D01*
X80200500Y-86868000D02*
X80200500Y-84455000D01*
X80581500Y-84074000D02*
X82042000Y-84074000D01*
X80200500Y-84455000D02*
X80581500Y-84074000D01*
%TO.N,/RESET*%
X75823000Y-84324000D02*
X75819000Y-84328000D01*
X77456000Y-84324000D02*
X75823000Y-84324000D01*
%TO.N,/SWIN*%
X73914000Y-81702451D02*
X73914000Y-81788000D01*
X73156000Y-80944451D02*
X73914000Y-81702451D01*
X73156000Y-80024000D02*
X73156000Y-80944451D01*
%TO.N,/SWCLK*%
X75066451Y-81534000D02*
X75057000Y-81534000D01*
X75656000Y-80944451D02*
X75066451Y-81534000D01*
X75656000Y-80024000D02*
X75656000Y-80944451D01*
X76045000Y-85824000D02*
X75819000Y-85598000D01*
X77456000Y-85824000D02*
X76045000Y-85824000D01*
%TO.N,/SWDIO*%
X76156000Y-78532000D02*
X76202000Y-78486000D01*
X76156000Y-80024000D02*
X76156000Y-78532000D01*
X76156000Y-80024000D02*
X76156000Y-81362962D01*
X74841962Y-82677000D02*
X75774981Y-81743981D01*
X74422000Y-82677000D02*
X74841962Y-82677000D01*
X75774981Y-81743981D02*
X75095962Y-82423000D01*
X76156000Y-81362962D02*
X75774981Y-81743981D01*
%TO.N,Net-(JP1-Pad1)*%
X77480390Y-82791010D02*
X77456000Y-82815400D01*
X78409441Y-82791010D02*
X77480390Y-82791010D01*
X77456000Y-82815400D02*
X77456000Y-82824000D01*
X79502000Y-81698451D02*
X78409441Y-82791010D01*
X79502000Y-79771000D02*
X79502000Y-81698451D01*
%TO.N,Net-(Q1-Pad2)*%
X66042000Y-84074000D02*
X67056000Y-84074000D01*
X67056000Y-84074000D02*
X67056000Y-84074000D01*
D23*
%TO.N,Net-(Q1-Pad1)*%
X64518000Y-90678000D02*
X64518000Y-90678000D01*
X65530000Y-90678000D02*
X65530000Y-90678000D01*
X64518000Y-90678000D02*
X65530000Y-90678000D01*
D21*
%TO.N,Net-(R1-Pad1)*%
X71156000Y-89116000D02*
X71156000Y-88124000D01*
X70104000Y-90168000D02*
X71156000Y-89116000D01*
D23*
%TO.N,Net-(R2-Pad1)*%
X71120000Y-90168000D02*
X71120000Y-90043000D01*
D21*
X71656000Y-89632000D02*
X71656000Y-88124000D01*
X71120000Y-90168000D02*
X71656000Y-89632000D01*
%TO.N,/MCU_USB_D-*%
X66042000Y-83058000D02*
X67056000Y-83058000D01*
X67056000Y-83058000D02*
X67056000Y-83058000D01*
X73152000Y-81656999D02*
X73152000Y-82296000D01*
X72656000Y-81160999D02*
X73152000Y-81656999D01*
X73152000Y-82296000D02*
X73025000Y-82423000D01*
X72656000Y-80024000D02*
X72656000Y-81160999D01*
%TO.N,/MCU_USB_D+*%
X66042000Y-85090000D02*
X67056000Y-85090000D01*
X67056000Y-85090000D02*
X67056000Y-85090000D01*
X72156000Y-81554000D02*
X72390000Y-81788000D01*
X72156000Y-80024000D02*
X72156000Y-81554000D01*
%TO.N,Net-(R7-Pad2)*%
X75156000Y-78512000D02*
X75182000Y-78486000D01*
X75156000Y-80024000D02*
X75156000Y-78512000D01*
%TO.N,/MCU_USB_RENUM*%
X66550000Y-90168000D02*
X67056000Y-89662000D01*
X66550000Y-90678000D02*
X66550000Y-90168000D01*
X67854000Y-81824000D02*
X67818000Y-81788000D01*
X69356000Y-81824000D02*
X67854000Y-81824000D01*
D23*
%TO.N,/PA0*%
X76200000Y-90168000D02*
X77216000Y-90168000D01*
D21*
X75156000Y-89124000D02*
X75156000Y-88124000D01*
X76200000Y-90168000D02*
X75156000Y-89124000D01*
D23*
%TO.N,/LED_LINK*%
X73656000Y-78490000D02*
X73660000Y-78486000D01*
D21*
X73660000Y-80020000D02*
X73656000Y-80024000D01*
X73660000Y-78486000D02*
X73660000Y-80020000D01*
%TO.N,/BOOT0*%
X69087001Y-89916999D02*
X69850000Y-89154000D01*
X69087001Y-90168000D02*
X69087001Y-89916999D01*
X70624000Y-84824000D02*
X71374000Y-84074000D01*
X69356000Y-84824000D02*
X70624000Y-84824000D01*
%TO.N,/BOOT1*%
X76022900Y-83324000D02*
X76022200Y-83324700D01*
X77456000Y-83324000D02*
X76022900Y-83324000D01*
D23*
%TO.N,+3.3VA*%
X58646000Y-77470000D02*
X59436000Y-77470000D01*
X59436000Y-77470000D02*
X60247000Y-77470000D01*
%TD*%
D21*
%TO.N,GND*%
X64456429Y-86578698D02*
X64520830Y-86657170D01*
X64599302Y-86721571D01*
X64688830Y-86769425D01*
X64785974Y-86798893D01*
X64887000Y-86808843D01*
X65157000Y-86808843D01*
X65258026Y-86798893D01*
X65355170Y-86769425D01*
X65389368Y-86751145D01*
X65388956Y-86751917D01*
X65359203Y-86849998D01*
X65349157Y-86952000D01*
X65349157Y-87292000D01*
X65359203Y-87394002D01*
X65388956Y-87492083D01*
X65437272Y-87582476D01*
X65502294Y-87661706D01*
X65581524Y-87726728D01*
X65671917Y-87775044D01*
X65769998Y-87804797D01*
X65872000Y-87814843D01*
X66152000Y-87814843D01*
X66254002Y-87804797D01*
X66352083Y-87775044D01*
X66442476Y-87726728D01*
X66521706Y-87661706D01*
X66586728Y-87582476D01*
X66635044Y-87492083D01*
X66664797Y-87394002D01*
X66670903Y-87332000D01*
X68475864Y-87332000D01*
X68493866Y-87337461D01*
X68570413Y-87345000D01*
X70135001Y-87345000D01*
X70135001Y-87616000D01*
X69888943Y-87616000D01*
X69863999Y-87613543D01*
X69839055Y-87616000D01*
X69839053Y-87616000D01*
X69764415Y-87623351D01*
X69668657Y-87652399D01*
X69668655Y-87652400D01*
X69580404Y-87699571D01*
X69525810Y-87744376D01*
X69503052Y-87763052D01*
X69487150Y-87782429D01*
X68288580Y-88981000D01*
X68258927Y-88981000D01*
X68127360Y-89007171D01*
X68003426Y-89058506D01*
X67891888Y-89133033D01*
X67797033Y-89227888D01*
X67722506Y-89339426D01*
X67691000Y-89415488D01*
X67659494Y-89339426D01*
X67584967Y-89227888D01*
X67490112Y-89133033D01*
X67378574Y-89058506D01*
X67254640Y-89007171D01*
X67123073Y-88981000D01*
X66988927Y-88981000D01*
X66857360Y-89007171D01*
X66733426Y-89058506D01*
X66621888Y-89133033D01*
X66527033Y-89227888D01*
X66452506Y-89339426D01*
X66401171Y-89463360D01*
X66375000Y-89594927D01*
X66375000Y-89624580D01*
X66208430Y-89791150D01*
X66189053Y-89807052D01*
X66173151Y-89826429D01*
X66173150Y-89826430D01*
X66125571Y-89884405D01*
X66084313Y-89961595D01*
X66078400Y-89972657D01*
X66052512Y-90058000D01*
X66049352Y-90068416D01*
X66042885Y-90134074D01*
X66040000Y-90137589D01*
X66031170Y-90126830D01*
X65952698Y-90062429D01*
X65863170Y-90014575D01*
X65766026Y-89985107D01*
X65665000Y-89975157D01*
X65395000Y-89975157D01*
X65293974Y-89985107D01*
X65254768Y-89997000D01*
X65210927Y-89997000D01*
X65079360Y-90023171D01*
X64955426Y-90074506D01*
X64955419Y-90074511D01*
X64940698Y-90062429D01*
X64851170Y-90014575D01*
X64754026Y-89985107D01*
X64653000Y-89975157D01*
X64383000Y-89975157D01*
X64281974Y-89985107D01*
X64184830Y-90014575D01*
X64095302Y-90062429D01*
X64016830Y-90126830D01*
X63952429Y-90205302D01*
X63904575Y-90294830D01*
X63875107Y-90391974D01*
X63865157Y-90493000D01*
X63865157Y-90863000D01*
X63875107Y-90964026D01*
X63904575Y-91061170D01*
X63952429Y-91150698D01*
X64016830Y-91229170D01*
X64095302Y-91293571D01*
X64184830Y-91341425D01*
X64281974Y-91370893D01*
X64383000Y-91380843D01*
X64653000Y-91380843D01*
X64754026Y-91370893D01*
X64851170Y-91341425D01*
X64940698Y-91293571D01*
X64955419Y-91281489D01*
X64955426Y-91281494D01*
X65079360Y-91332829D01*
X65210927Y-91359000D01*
X65254768Y-91359000D01*
X65293974Y-91370893D01*
X65395000Y-91380843D01*
X65665000Y-91380843D01*
X65766026Y-91370893D01*
X65863170Y-91341425D01*
X65952698Y-91293571D01*
X66031170Y-91229170D01*
X66040000Y-91218411D01*
X66048830Y-91229170D01*
X66127302Y-91293571D01*
X66216830Y-91341425D01*
X66313974Y-91370893D01*
X66415000Y-91380843D01*
X66685000Y-91380843D01*
X66786026Y-91370893D01*
X66883170Y-91341425D01*
X66972698Y-91293571D01*
X67051170Y-91229170D01*
X67115571Y-91150698D01*
X67163425Y-91061170D01*
X67192893Y-90964026D01*
X67202843Y-90863000D01*
X67202843Y-90493000D01*
X67192893Y-90391974D01*
X67174909Y-90332689D01*
X67254640Y-90316829D01*
X67378574Y-90265494D01*
X67379157Y-90265104D01*
X67379157Y-90338000D01*
X67389203Y-90440002D01*
X67418956Y-90538083D01*
X67467272Y-90628476D01*
X67532294Y-90707706D01*
X67611524Y-90772728D01*
X67701917Y-90821044D01*
X67799998Y-90850797D01*
X67902000Y-90860843D01*
X68242000Y-90860843D01*
X68344002Y-90850797D01*
X68442083Y-90821044D01*
X68532476Y-90772728D01*
X68597246Y-90719573D01*
X68614303Y-90733571D01*
X68703831Y-90781425D01*
X68800975Y-90810893D01*
X68902001Y-90820843D01*
X69272001Y-90820843D01*
X69373027Y-90810893D01*
X69470171Y-90781425D01*
X69559699Y-90733571D01*
X69595501Y-90704189D01*
X69631302Y-90733571D01*
X69720830Y-90781425D01*
X69817974Y-90810893D01*
X69919000Y-90820843D01*
X70289000Y-90820843D01*
X70390026Y-90810893D01*
X70487170Y-90781425D01*
X70576698Y-90733571D01*
X70612000Y-90704599D01*
X70647302Y-90733571D01*
X70736830Y-90781425D01*
X70833974Y-90810893D01*
X70935000Y-90820843D01*
X71305000Y-90820843D01*
X71406026Y-90810893D01*
X71503170Y-90781425D01*
X71592698Y-90733571D01*
X71610254Y-90719163D01*
X71675524Y-90772728D01*
X71765917Y-90821044D01*
X71863998Y-90850797D01*
X71966000Y-90860843D01*
X71977648Y-90860843D01*
X72068927Y-90879000D01*
X72203073Y-90879000D01*
X72294352Y-90860843D01*
X72306000Y-90860843D01*
X72408002Y-90850797D01*
X72506083Y-90821044D01*
X72596476Y-90772728D01*
X72644000Y-90733726D01*
X72691524Y-90772728D01*
X72781917Y-90821044D01*
X72879998Y-90850797D01*
X72982000Y-90860843D01*
X72993648Y-90860843D01*
X73084927Y-90879000D01*
X73219073Y-90879000D01*
X73310352Y-90860843D01*
X73322000Y-90860843D01*
X73424002Y-90850797D01*
X73522083Y-90821044D01*
X73612476Y-90772728D01*
X73660000Y-90733726D01*
X73707524Y-90772728D01*
X73797917Y-90821044D01*
X73895998Y-90850797D01*
X73998000Y-90860843D01*
X74338000Y-90860843D01*
X74440002Y-90850797D01*
X74538083Y-90821044D01*
X74538855Y-90820632D01*
X74520575Y-90854830D01*
X74491107Y-90951974D01*
X74481157Y-91053000D01*
X74481157Y-91323000D01*
X74491107Y-91424026D01*
X74520575Y-91521170D01*
X74531709Y-91542000D01*
X62351570Y-91542000D01*
X62375044Y-91498083D01*
X62404797Y-91400002D01*
X62414843Y-91298000D01*
X62414843Y-91018000D01*
X62404797Y-90915998D01*
X62375044Y-90817917D01*
X62326728Y-90727524D01*
X62261706Y-90648294D01*
X62182476Y-90583272D01*
X62092083Y-90534956D01*
X61994002Y-90505203D01*
X61892000Y-90495157D01*
X61552000Y-90495157D01*
X61449998Y-90505203D01*
X61351917Y-90534956D01*
X61273258Y-90577000D01*
X61014843Y-90577000D01*
X61014843Y-90203000D01*
X61002683Y-90079538D01*
X60966671Y-89960821D01*
X60908190Y-89851411D01*
X60829488Y-89755512D01*
X60733589Y-89676810D01*
X60624179Y-89618329D01*
X60505462Y-89582317D01*
X60382000Y-89570157D01*
X60119263Y-89570157D01*
X61301565Y-88387855D01*
X61320948Y-88371948D01*
X61384429Y-88294595D01*
X61431601Y-88206343D01*
X61460649Y-88110585D01*
X61468000Y-88035947D01*
X61468000Y-88035944D01*
X61470457Y-88011000D01*
X61468000Y-87986056D01*
X61468000Y-86844999D01*
X61739329Y-86844999D01*
X61729000Y-86896927D01*
X61729000Y-87031073D01*
X61755171Y-87162640D01*
X61806506Y-87286574D01*
X61881033Y-87398112D01*
X61975888Y-87492967D01*
X62087426Y-87567494D01*
X62211360Y-87618829D01*
X62342927Y-87645000D01*
X62477073Y-87645000D01*
X62608640Y-87618829D01*
X62732574Y-87567494D01*
X62844112Y-87492967D01*
X62938967Y-87398112D01*
X63013494Y-87286574D01*
X63064829Y-87162640D01*
X63065982Y-87156843D01*
X64050000Y-87156843D01*
X64124689Y-87149487D01*
X64196508Y-87127701D01*
X64262696Y-87092322D01*
X64320711Y-87044711D01*
X64368322Y-86986696D01*
X64403701Y-86920508D01*
X64425487Y-86848689D01*
X64432843Y-86774000D01*
X64432843Y-86534572D01*
X64456429Y-86578698D01*
%TA.AperFunction,Conductor*%
D24*
G36*
X64456429Y-86578698D02*
G01*
X64520830Y-86657170D01*
X64599302Y-86721571D01*
X64688830Y-86769425D01*
X64785974Y-86798893D01*
X64887000Y-86808843D01*
X65157000Y-86808843D01*
X65258026Y-86798893D01*
X65355170Y-86769425D01*
X65389368Y-86751145D01*
X65388956Y-86751917D01*
X65359203Y-86849998D01*
X65349157Y-86952000D01*
X65349157Y-87292000D01*
X65359203Y-87394002D01*
X65388956Y-87492083D01*
X65437272Y-87582476D01*
X65502294Y-87661706D01*
X65581524Y-87726728D01*
X65671917Y-87775044D01*
X65769998Y-87804797D01*
X65872000Y-87814843D01*
X66152000Y-87814843D01*
X66254002Y-87804797D01*
X66352083Y-87775044D01*
X66442476Y-87726728D01*
X66521706Y-87661706D01*
X66586728Y-87582476D01*
X66635044Y-87492083D01*
X66664797Y-87394002D01*
X66670903Y-87332000D01*
X68475864Y-87332000D01*
X68493866Y-87337461D01*
X68570413Y-87345000D01*
X70135001Y-87345000D01*
X70135001Y-87616000D01*
X69888943Y-87616000D01*
X69863999Y-87613543D01*
X69839055Y-87616000D01*
X69839053Y-87616000D01*
X69764415Y-87623351D01*
X69668657Y-87652399D01*
X69668655Y-87652400D01*
X69580404Y-87699571D01*
X69525810Y-87744376D01*
X69503052Y-87763052D01*
X69487150Y-87782429D01*
X68288580Y-88981000D01*
X68258927Y-88981000D01*
X68127360Y-89007171D01*
X68003426Y-89058506D01*
X67891888Y-89133033D01*
X67797033Y-89227888D01*
X67722506Y-89339426D01*
X67691000Y-89415488D01*
X67659494Y-89339426D01*
X67584967Y-89227888D01*
X67490112Y-89133033D01*
X67378574Y-89058506D01*
X67254640Y-89007171D01*
X67123073Y-88981000D01*
X66988927Y-88981000D01*
X66857360Y-89007171D01*
X66733426Y-89058506D01*
X66621888Y-89133033D01*
X66527033Y-89227888D01*
X66452506Y-89339426D01*
X66401171Y-89463360D01*
X66375000Y-89594927D01*
X66375000Y-89624580D01*
X66208430Y-89791150D01*
X66189053Y-89807052D01*
X66173151Y-89826429D01*
X66173150Y-89826430D01*
X66125571Y-89884405D01*
X66084313Y-89961595D01*
X66078400Y-89972657D01*
X66052512Y-90058000D01*
X66049352Y-90068416D01*
X66042885Y-90134074D01*
X66040000Y-90137589D01*
X66031170Y-90126830D01*
X65952698Y-90062429D01*
X65863170Y-90014575D01*
X65766026Y-89985107D01*
X65665000Y-89975157D01*
X65395000Y-89975157D01*
X65293974Y-89985107D01*
X65254768Y-89997000D01*
X65210927Y-89997000D01*
X65079360Y-90023171D01*
X64955426Y-90074506D01*
X64955419Y-90074511D01*
X64940698Y-90062429D01*
X64851170Y-90014575D01*
X64754026Y-89985107D01*
X64653000Y-89975157D01*
X64383000Y-89975157D01*
X64281974Y-89985107D01*
X64184830Y-90014575D01*
X64095302Y-90062429D01*
X64016830Y-90126830D01*
X63952429Y-90205302D01*
X63904575Y-90294830D01*
X63875107Y-90391974D01*
X63865157Y-90493000D01*
X63865157Y-90863000D01*
X63875107Y-90964026D01*
X63904575Y-91061170D01*
X63952429Y-91150698D01*
X64016830Y-91229170D01*
X64095302Y-91293571D01*
X64184830Y-91341425D01*
X64281974Y-91370893D01*
X64383000Y-91380843D01*
X64653000Y-91380843D01*
X64754026Y-91370893D01*
X64851170Y-91341425D01*
X64940698Y-91293571D01*
X64955419Y-91281489D01*
X64955426Y-91281494D01*
X65079360Y-91332829D01*
X65210927Y-91359000D01*
X65254768Y-91359000D01*
X65293974Y-91370893D01*
X65395000Y-91380843D01*
X65665000Y-91380843D01*
X65766026Y-91370893D01*
X65863170Y-91341425D01*
X65952698Y-91293571D01*
X66031170Y-91229170D01*
X66040000Y-91218411D01*
X66048830Y-91229170D01*
X66127302Y-91293571D01*
X66216830Y-91341425D01*
X66313974Y-91370893D01*
X66415000Y-91380843D01*
X66685000Y-91380843D01*
X66786026Y-91370893D01*
X66883170Y-91341425D01*
X66972698Y-91293571D01*
X67051170Y-91229170D01*
X67115571Y-91150698D01*
X67163425Y-91061170D01*
X67192893Y-90964026D01*
X67202843Y-90863000D01*
X67202843Y-90493000D01*
X67192893Y-90391974D01*
X67174909Y-90332689D01*
X67254640Y-90316829D01*
X67378574Y-90265494D01*
X67379157Y-90265104D01*
X67379157Y-90338000D01*
X67389203Y-90440002D01*
X67418956Y-90538083D01*
X67467272Y-90628476D01*
X67532294Y-90707706D01*
X67611524Y-90772728D01*
X67701917Y-90821044D01*
X67799998Y-90850797D01*
X67902000Y-90860843D01*
X68242000Y-90860843D01*
X68344002Y-90850797D01*
X68442083Y-90821044D01*
X68532476Y-90772728D01*
X68597246Y-90719573D01*
X68614303Y-90733571D01*
X68703831Y-90781425D01*
X68800975Y-90810893D01*
X68902001Y-90820843D01*
X69272001Y-90820843D01*
X69373027Y-90810893D01*
X69470171Y-90781425D01*
X69559699Y-90733571D01*
X69595501Y-90704189D01*
X69631302Y-90733571D01*
X69720830Y-90781425D01*
X69817974Y-90810893D01*
X69919000Y-90820843D01*
X70289000Y-90820843D01*
X70390026Y-90810893D01*
X70487170Y-90781425D01*
X70576698Y-90733571D01*
X70612000Y-90704599D01*
X70647302Y-90733571D01*
X70736830Y-90781425D01*
X70833974Y-90810893D01*
X70935000Y-90820843D01*
X71305000Y-90820843D01*
X71406026Y-90810893D01*
X71503170Y-90781425D01*
X71592698Y-90733571D01*
X71610254Y-90719163D01*
X71675524Y-90772728D01*
X71765917Y-90821044D01*
X71863998Y-90850797D01*
X71966000Y-90860843D01*
X71977648Y-90860843D01*
X72068927Y-90879000D01*
X72203073Y-90879000D01*
X72294352Y-90860843D01*
X72306000Y-90860843D01*
X72408002Y-90850797D01*
X72506083Y-90821044D01*
X72596476Y-90772728D01*
X72644000Y-90733726D01*
X72691524Y-90772728D01*
X72781917Y-90821044D01*
X72879998Y-90850797D01*
X72982000Y-90860843D01*
X72993648Y-90860843D01*
X73084927Y-90879000D01*
X73219073Y-90879000D01*
X73310352Y-90860843D01*
X73322000Y-90860843D01*
X73424002Y-90850797D01*
X73522083Y-90821044D01*
X73612476Y-90772728D01*
X73660000Y-90733726D01*
X73707524Y-90772728D01*
X73797917Y-90821044D01*
X73895998Y-90850797D01*
X73998000Y-90860843D01*
X74338000Y-90860843D01*
X74440002Y-90850797D01*
X74538083Y-90821044D01*
X74538855Y-90820632D01*
X74520575Y-90854830D01*
X74491107Y-90951974D01*
X74481157Y-91053000D01*
X74481157Y-91323000D01*
X74491107Y-91424026D01*
X74520575Y-91521170D01*
X74531709Y-91542000D01*
X62351570Y-91542000D01*
X62375044Y-91498083D01*
X62404797Y-91400002D01*
X62414843Y-91298000D01*
X62414843Y-91018000D01*
X62404797Y-90915998D01*
X62375044Y-90817917D01*
X62326728Y-90727524D01*
X62261706Y-90648294D01*
X62182476Y-90583272D01*
X62092083Y-90534956D01*
X61994002Y-90505203D01*
X61892000Y-90495157D01*
X61552000Y-90495157D01*
X61449998Y-90505203D01*
X61351917Y-90534956D01*
X61273258Y-90577000D01*
X61014843Y-90577000D01*
X61014843Y-90203000D01*
X61002683Y-90079538D01*
X60966671Y-89960821D01*
X60908190Y-89851411D01*
X60829488Y-89755512D01*
X60733589Y-89676810D01*
X60624179Y-89618329D01*
X60505462Y-89582317D01*
X60382000Y-89570157D01*
X60119263Y-89570157D01*
X61301565Y-88387855D01*
X61320948Y-88371948D01*
X61384429Y-88294595D01*
X61431601Y-88206343D01*
X61460649Y-88110585D01*
X61468000Y-88035947D01*
X61468000Y-88035944D01*
X61470457Y-88011000D01*
X61468000Y-87986056D01*
X61468000Y-86844999D01*
X61739329Y-86844999D01*
X61729000Y-86896927D01*
X61729000Y-87031073D01*
X61755171Y-87162640D01*
X61806506Y-87286574D01*
X61881033Y-87398112D01*
X61975888Y-87492967D01*
X62087426Y-87567494D01*
X62211360Y-87618829D01*
X62342927Y-87645000D01*
X62477073Y-87645000D01*
X62608640Y-87618829D01*
X62732574Y-87567494D01*
X62844112Y-87492967D01*
X62938967Y-87398112D01*
X63013494Y-87286574D01*
X63064829Y-87162640D01*
X63065982Y-87156843D01*
X64050000Y-87156843D01*
X64124689Y-87149487D01*
X64196508Y-87127701D01*
X64262696Y-87092322D01*
X64320711Y-87044711D01*
X64368322Y-86986696D01*
X64403701Y-86920508D01*
X64425487Y-86848689D01*
X64432843Y-86774000D01*
X64432843Y-86534572D01*
X64456429Y-86578698D01*
G37*
%TD.AperFunction*%
D21*
X90780000Y-80411064D02*
X90724696Y-80365678D01*
X90658508Y-80330299D01*
X90586689Y-80308513D01*
X90512000Y-80301157D01*
X88812000Y-80301157D01*
X88737311Y-80308513D01*
X88665492Y-80330299D01*
X88599304Y-80365678D01*
X88541289Y-80413289D01*
X88493678Y-80471304D01*
X88458299Y-80537492D01*
X88436513Y-80609311D01*
X88429157Y-80684000D01*
X88429157Y-82384000D01*
X88436513Y-82458689D01*
X88458299Y-82530508D01*
X88493678Y-82596696D01*
X88541289Y-82654711D01*
X88599304Y-82702322D01*
X88665492Y-82737701D01*
X88737311Y-82759487D01*
X88812000Y-82766843D01*
X90512000Y-82766843D01*
X90586689Y-82759487D01*
X90658508Y-82737701D01*
X90724696Y-82702322D01*
X90780000Y-82656935D01*
X90780000Y-83556334D01*
X90752898Y-83490903D01*
X90618180Y-83289283D01*
X90446717Y-83117820D01*
X90245097Y-82983102D01*
X90021069Y-82890307D01*
X89783243Y-82843000D01*
X89540757Y-82843000D01*
X89302931Y-82890307D01*
X89078903Y-82983102D01*
X88877283Y-83117820D01*
X88705820Y-83289283D01*
X88571102Y-83490903D01*
X88478307Y-83714931D01*
X88431000Y-83952757D01*
X88431000Y-84195243D01*
X88478307Y-84433069D01*
X88571102Y-84657097D01*
X88705820Y-84858717D01*
X88877283Y-85030180D01*
X89078903Y-85164898D01*
X89302931Y-85257693D01*
X89540757Y-85305000D01*
X89783243Y-85305000D01*
X90021069Y-85257693D01*
X90245097Y-85164898D01*
X90446717Y-85030180D01*
X90618180Y-84858717D01*
X90752898Y-84657097D01*
X90780001Y-84591665D01*
X90780001Y-91542000D01*
X76852291Y-91542000D01*
X76863425Y-91521170D01*
X76892893Y-91424026D01*
X76902843Y-91323000D01*
X76902843Y-91053000D01*
X76892893Y-90951974D01*
X76863425Y-90854830D01*
X76820733Y-90774959D01*
X76832830Y-90781425D01*
X76929974Y-90810893D01*
X77031000Y-90820843D01*
X77401000Y-90820843D01*
X77502026Y-90810893D01*
X77599170Y-90781425D01*
X77688698Y-90733571D01*
X77724000Y-90704599D01*
X77759302Y-90733571D01*
X77848830Y-90781425D01*
X77945974Y-90810893D01*
X78016480Y-90817837D01*
X78033360Y-90824829D01*
X78164927Y-90851000D01*
X78299073Y-90851000D01*
X78430640Y-90824829D01*
X78447520Y-90817837D01*
X78518026Y-90810893D01*
X78615170Y-90781425D01*
X78704698Y-90733571D01*
X78783170Y-90669170D01*
X78847571Y-90590698D01*
X78895425Y-90501170D01*
X78924893Y-90404026D01*
X78934843Y-90303000D01*
X78934843Y-90033000D01*
X78924893Y-89931974D01*
X78895425Y-89834830D01*
X78847571Y-89745302D01*
X78783170Y-89666830D01*
X78704698Y-89602429D01*
X78615170Y-89554575D01*
X78518026Y-89525107D01*
X78434851Y-89516915D01*
X78430640Y-89515171D01*
X78299073Y-89489000D01*
X78164927Y-89489000D01*
X78033360Y-89515171D01*
X78029149Y-89516915D01*
X77945974Y-89525107D01*
X77848830Y-89554575D01*
X77759302Y-89602429D01*
X77724000Y-89631401D01*
X77688698Y-89602429D01*
X77599170Y-89554575D01*
X77502026Y-89525107D01*
X77401000Y-89515157D01*
X77031000Y-89515157D01*
X76929974Y-89525107D01*
X76832830Y-89554575D01*
X76772167Y-89587000D01*
X76643833Y-89587000D01*
X76583170Y-89554575D01*
X76486026Y-89525107D01*
X76385000Y-89515157D01*
X76265578Y-89515157D01*
X76157767Y-89407346D01*
X76258133Y-89397461D01*
X76356341Y-89367669D01*
X76446852Y-89319291D01*
X76526185Y-89254185D01*
X76591291Y-89174852D01*
X76639669Y-89084342D01*
X76669461Y-88986134D01*
X76677000Y-88909587D01*
X76677000Y-88632000D01*
X78919556Y-88632000D01*
X78944500Y-88634457D01*
X78969444Y-88632000D01*
X78969447Y-88632000D01*
X79044085Y-88624649D01*
X79139843Y-88595601D01*
X79228095Y-88548429D01*
X79305448Y-88484948D01*
X79321355Y-88465565D01*
X80542071Y-87244850D01*
X80561448Y-87228948D01*
X80596885Y-87185767D01*
X80624929Y-87151596D01*
X80672100Y-87063345D01*
X80676933Y-87047414D01*
X80701149Y-86967585D01*
X80708500Y-86892947D01*
X80708500Y-86892945D01*
X80710957Y-86868001D01*
X80708500Y-86843057D01*
X80708500Y-86492757D01*
X80811000Y-86492757D01*
X80811000Y-86735243D01*
X80858307Y-86973069D01*
X80951102Y-87197097D01*
X81085820Y-87398717D01*
X81257283Y-87570180D01*
X81458903Y-87704898D01*
X81682931Y-87797693D01*
X81920757Y-87845000D01*
X82163243Y-87845000D01*
X82401069Y-87797693D01*
X82625097Y-87704898D01*
X82826717Y-87570180D01*
X82998180Y-87398717D01*
X83132898Y-87197097D01*
X83225693Y-86973069D01*
X83273000Y-86735243D01*
X83273000Y-86492757D01*
X83351000Y-86492757D01*
X83351000Y-86735243D01*
X83398307Y-86973069D01*
X83491102Y-87197097D01*
X83625820Y-87398717D01*
X83797283Y-87570180D01*
X83998903Y-87704898D01*
X84222931Y-87797693D01*
X84460757Y-87845000D01*
X84703243Y-87845000D01*
X84941069Y-87797693D01*
X85165097Y-87704898D01*
X85366717Y-87570180D01*
X85538180Y-87398717D01*
X85672898Y-87197097D01*
X85765693Y-86973069D01*
X85813000Y-86735243D01*
X85813000Y-86492757D01*
X85891000Y-86492757D01*
X85891000Y-86735243D01*
X85938307Y-86973069D01*
X86031102Y-87197097D01*
X86165820Y-87398717D01*
X86337283Y-87570180D01*
X86538903Y-87704898D01*
X86762931Y-87797693D01*
X87000757Y-87845000D01*
X87243243Y-87845000D01*
X87481069Y-87797693D01*
X87705097Y-87704898D01*
X87906717Y-87570180D01*
X88078180Y-87398717D01*
X88212898Y-87197097D01*
X88305693Y-86973069D01*
X88353000Y-86735243D01*
X88353000Y-86492757D01*
X88305693Y-86254931D01*
X88212898Y-86030903D01*
X88078180Y-85829283D01*
X87906717Y-85657820D01*
X87705097Y-85523102D01*
X87481069Y-85430307D01*
X87243243Y-85383000D01*
X87000757Y-85383000D01*
X86762931Y-85430307D01*
X86538903Y-85523102D01*
X86337283Y-85657820D01*
X86165820Y-85829283D01*
X86031102Y-86030903D01*
X85938307Y-86254931D01*
X85891000Y-86492757D01*
X85813000Y-86492757D01*
X85765693Y-86254931D01*
X85672898Y-86030903D01*
X85538180Y-85829283D01*
X85366717Y-85657820D01*
X85165097Y-85523102D01*
X84941069Y-85430307D01*
X84703243Y-85383000D01*
X84460757Y-85383000D01*
X84222931Y-85430307D01*
X83998903Y-85523102D01*
X83797283Y-85657820D01*
X83625820Y-85829283D01*
X83491102Y-86030903D01*
X83398307Y-86254931D01*
X83351000Y-86492757D01*
X83273000Y-86492757D01*
X83225693Y-86254931D01*
X83132898Y-86030903D01*
X82998180Y-85829283D01*
X82826717Y-85657820D01*
X82625097Y-85523102D01*
X82401069Y-85430307D01*
X82163243Y-85383000D01*
X81920757Y-85383000D01*
X81682931Y-85430307D01*
X81458903Y-85523102D01*
X81257283Y-85657820D01*
X81085820Y-85829283D01*
X80951102Y-86030903D01*
X80858307Y-86254931D01*
X80811000Y-86492757D01*
X80708500Y-86492757D01*
X80708500Y-84665420D01*
X80791921Y-84582000D01*
X80919996Y-84582000D01*
X80951102Y-84657097D01*
X81085820Y-84858717D01*
X81257283Y-85030180D01*
X81458903Y-85164898D01*
X81682931Y-85257693D01*
X81920757Y-85305000D01*
X82163243Y-85305000D01*
X82401069Y-85257693D01*
X82625097Y-85164898D01*
X82826717Y-85030180D01*
X82998180Y-84858717D01*
X83132898Y-84657097D01*
X83225693Y-84433069D01*
X83273000Y-84195243D01*
X83273000Y-83952757D01*
X83351000Y-83952757D01*
X83351000Y-84195243D01*
X83398307Y-84433069D01*
X83491102Y-84657097D01*
X83625820Y-84858717D01*
X83797283Y-85030180D01*
X83998903Y-85164898D01*
X84222931Y-85257693D01*
X84460757Y-85305000D01*
X84703243Y-85305000D01*
X84941069Y-85257693D01*
X85165097Y-85164898D01*
X85366717Y-85030180D01*
X85538180Y-84858717D01*
X85672898Y-84657097D01*
X85765693Y-84433069D01*
X85813000Y-84195243D01*
X85813000Y-83952757D01*
X85891000Y-83952757D01*
X85891000Y-84195243D01*
X85938307Y-84433069D01*
X86031102Y-84657097D01*
X86165820Y-84858717D01*
X86337283Y-85030180D01*
X86538903Y-85164898D01*
X86762931Y-85257693D01*
X87000757Y-85305000D01*
X87243243Y-85305000D01*
X87481069Y-85257693D01*
X87705097Y-85164898D01*
X87906717Y-85030180D01*
X88078180Y-84858717D01*
X88212898Y-84657097D01*
X88305693Y-84433069D01*
X88353000Y-84195243D01*
X88353000Y-83952757D01*
X88305693Y-83714931D01*
X88212898Y-83490903D01*
X88078180Y-83289283D01*
X87906717Y-83117820D01*
X87705097Y-82983102D01*
X87481069Y-82890307D01*
X87243243Y-82843000D01*
X87000757Y-82843000D01*
X86762931Y-82890307D01*
X86538903Y-82983102D01*
X86337283Y-83117820D01*
X86165820Y-83289283D01*
X86031102Y-83490903D01*
X85938307Y-83714931D01*
X85891000Y-83952757D01*
X85813000Y-83952757D01*
X85765693Y-83714931D01*
X85672898Y-83490903D01*
X85538180Y-83289283D01*
X85366717Y-83117820D01*
X85165097Y-82983102D01*
X84941069Y-82890307D01*
X84703243Y-82843000D01*
X84460757Y-82843000D01*
X84222931Y-82890307D01*
X83998903Y-82983102D01*
X83797283Y-83117820D01*
X83625820Y-83289283D01*
X83491102Y-83490903D01*
X83398307Y-83714931D01*
X83351000Y-83952757D01*
X83273000Y-83952757D01*
X83225693Y-83714931D01*
X83132898Y-83490903D01*
X82998180Y-83289283D01*
X82826717Y-83117820D01*
X82625097Y-82983102D01*
X82401069Y-82890307D01*
X82163243Y-82843000D01*
X81920757Y-82843000D01*
X81682931Y-82890307D01*
X81458903Y-82983102D01*
X81257283Y-83117820D01*
X81085820Y-83289283D01*
X80951102Y-83490903D01*
X80919996Y-83566000D01*
X80606443Y-83566000D01*
X80581499Y-83563543D01*
X80556555Y-83566000D01*
X80556553Y-83566000D01*
X80481915Y-83573351D01*
X80386157Y-83602399D01*
X80386155Y-83602400D01*
X80297904Y-83649571D01*
X80252667Y-83686696D01*
X80220552Y-83713052D01*
X80204649Y-83732430D01*
X79858930Y-84078150D01*
X79839553Y-84094052D01*
X79823651Y-84113429D01*
X79823650Y-84113430D01*
X79776071Y-84171405D01*
X79729251Y-84259000D01*
X79728900Y-84259657D01*
X79701651Y-84349487D01*
X79699852Y-84355416D01*
X79690043Y-84455000D01*
X79692501Y-84479954D01*
X79692500Y-86454364D01*
X79649967Y-86390708D01*
X79555112Y-86295853D01*
X79443574Y-86221326D01*
X79319640Y-86169991D01*
X79188073Y-86143820D01*
X79053927Y-86143820D01*
X78922360Y-86169991D01*
X78798426Y-86221326D01*
X78733669Y-86264595D01*
X78729461Y-86221866D01*
X78699669Y-86123658D01*
X78673127Y-86074000D01*
X78699669Y-86024342D01*
X78729461Y-85926134D01*
X78739520Y-85824000D01*
X78729461Y-85721866D01*
X78699669Y-85623658D01*
X78673127Y-85574000D01*
X78699669Y-85524342D01*
X78729461Y-85426134D01*
X78739520Y-85324000D01*
X78729461Y-85221866D01*
X78699669Y-85123658D01*
X78673127Y-85074000D01*
X78699669Y-85024342D01*
X78729461Y-84926134D01*
X78739520Y-84824000D01*
X78729461Y-84721866D01*
X78699669Y-84623658D01*
X78673127Y-84574000D01*
X78699669Y-84524342D01*
X78729461Y-84426134D01*
X78739520Y-84324000D01*
X78729461Y-84221866D01*
X78699669Y-84123658D01*
X78673127Y-84074000D01*
X78699669Y-84024342D01*
X78729461Y-83926134D01*
X78739520Y-83824000D01*
X78729461Y-83721866D01*
X78699669Y-83623658D01*
X78673127Y-83574000D01*
X78699669Y-83524342D01*
X78729461Y-83426134D01*
X78739520Y-83324000D01*
X78729461Y-83221866D01*
X78720639Y-83192786D01*
X78770389Y-83151958D01*
X78786296Y-83132575D01*
X79843565Y-82075306D01*
X79862948Y-82059399D01*
X79926429Y-81982046D01*
X79973601Y-81893794D01*
X80002649Y-81798036D01*
X80010000Y-81723398D01*
X80010000Y-81723395D01*
X80012457Y-81698451D01*
X80010000Y-81673507D01*
X80010000Y-81412757D01*
X80811000Y-81412757D01*
X80811000Y-81655243D01*
X80858307Y-81893069D01*
X80951102Y-82117097D01*
X81085820Y-82318717D01*
X81257283Y-82490180D01*
X81458903Y-82624898D01*
X81682931Y-82717693D01*
X81920757Y-82765000D01*
X82163243Y-82765000D01*
X82401069Y-82717693D01*
X82625097Y-82624898D01*
X82826717Y-82490180D01*
X82998180Y-82318717D01*
X83132898Y-82117097D01*
X83225693Y-81893069D01*
X83273000Y-81655243D01*
X83273000Y-81412757D01*
X83351000Y-81412757D01*
X83351000Y-81655243D01*
X83398307Y-81893069D01*
X83491102Y-82117097D01*
X83625820Y-82318717D01*
X83797283Y-82490180D01*
X83998903Y-82624898D01*
X84222931Y-82717693D01*
X84460757Y-82765000D01*
X84703243Y-82765000D01*
X84941069Y-82717693D01*
X85165097Y-82624898D01*
X85366717Y-82490180D01*
X85538180Y-82318717D01*
X85672898Y-82117097D01*
X85765693Y-81893069D01*
X85813000Y-81655243D01*
X85813000Y-81412757D01*
X85891000Y-81412757D01*
X85891000Y-81655243D01*
X85938307Y-81893069D01*
X86031102Y-82117097D01*
X86165820Y-82318717D01*
X86337283Y-82490180D01*
X86538903Y-82624898D01*
X86762931Y-82717693D01*
X87000757Y-82765000D01*
X87243243Y-82765000D01*
X87481069Y-82717693D01*
X87705097Y-82624898D01*
X87906717Y-82490180D01*
X88078180Y-82318717D01*
X88212898Y-82117097D01*
X88305693Y-81893069D01*
X88353000Y-81655243D01*
X88353000Y-81412757D01*
X88305693Y-81174931D01*
X88212898Y-80950903D01*
X88078180Y-80749283D01*
X87906717Y-80577820D01*
X87705097Y-80443102D01*
X87481069Y-80350307D01*
X87243243Y-80303000D01*
X87000757Y-80303000D01*
X86762931Y-80350307D01*
X86538903Y-80443102D01*
X86337283Y-80577820D01*
X86165820Y-80749283D01*
X86031102Y-80950903D01*
X85938307Y-81174931D01*
X85891000Y-81412757D01*
X85813000Y-81412757D01*
X85765693Y-81174931D01*
X85672898Y-80950903D01*
X85538180Y-80749283D01*
X85366717Y-80577820D01*
X85165097Y-80443102D01*
X84941069Y-80350307D01*
X84703243Y-80303000D01*
X84460757Y-80303000D01*
X84222931Y-80350307D01*
X83998903Y-80443102D01*
X83797283Y-80577820D01*
X83625820Y-80749283D01*
X83491102Y-80950903D01*
X83398307Y-81174931D01*
X83351000Y-81412757D01*
X83273000Y-81412757D01*
X83225693Y-81174931D01*
X83132898Y-80950903D01*
X82998180Y-80749283D01*
X82826717Y-80577820D01*
X82625097Y-80443102D01*
X82401069Y-80350307D01*
X82163243Y-80303000D01*
X81920757Y-80303000D01*
X81682931Y-80350307D01*
X81458903Y-80443102D01*
X81257283Y-80577820D01*
X81085820Y-80749283D01*
X80951102Y-80950903D01*
X80858307Y-81174931D01*
X80811000Y-81412757D01*
X80010000Y-81412757D01*
X80010000Y-80653843D01*
X80252000Y-80653843D01*
X80326689Y-80646487D01*
X80398508Y-80624701D01*
X80464696Y-80589322D01*
X80522711Y-80541711D01*
X80570322Y-80483696D01*
X80605701Y-80417508D01*
X80627487Y-80345689D01*
X80634843Y-80271000D01*
X80634843Y-79271000D01*
X80627487Y-79196311D01*
X80605701Y-79124492D01*
X80570322Y-79058304D01*
X80522711Y-79000289D01*
X80483000Y-78967699D01*
X80483000Y-78871000D01*
X80479499Y-78835296D01*
X80476251Y-78799608D01*
X80475875Y-78798329D01*
X80475744Y-78796997D01*
X80465369Y-78762632D01*
X80455257Y-78728275D01*
X80454638Y-78727092D01*
X80454252Y-78725812D01*
X80437417Y-78694150D01*
X80420807Y-78662378D01*
X80419970Y-78661337D01*
X80419343Y-78660158D01*
X80396700Y-78632395D01*
X80374214Y-78604428D01*
X80373190Y-78603569D01*
X80372346Y-78602534D01*
X80344731Y-78579689D01*
X80317252Y-78556632D01*
X80316081Y-78555988D01*
X80315052Y-78555137D01*
X80283554Y-78538106D01*
X80252092Y-78520809D01*
X80250816Y-78520404D01*
X80249643Y-78519770D01*
X80215402Y-78509171D01*
X80181214Y-78498326D01*
X80179888Y-78498177D01*
X80178611Y-78497782D01*
X80142936Y-78494032D01*
X80107320Y-78490037D01*
X80104757Y-78490019D01*
X80104660Y-78490009D01*
X80104563Y-78490018D01*
X80102000Y-78490000D01*
X79702000Y-78490000D01*
X79666296Y-78493501D01*
X79630608Y-78496749D01*
X79629329Y-78497125D01*
X79627997Y-78497256D01*
X79593632Y-78507631D01*
X79559275Y-78517743D01*
X79558092Y-78518362D01*
X79556812Y-78518748D01*
X79525150Y-78535583D01*
X79501629Y-78547879D01*
X79483554Y-78538106D01*
X79452092Y-78520809D01*
X79450816Y-78520404D01*
X79449643Y-78519770D01*
X79415402Y-78509171D01*
X79381214Y-78498326D01*
X79379888Y-78498177D01*
X79378611Y-78497782D01*
X79342936Y-78494032D01*
X79307320Y-78490037D01*
X79304757Y-78490019D01*
X79304660Y-78490009D01*
X79304563Y-78490018D01*
X79302000Y-78490000D01*
X78902000Y-78490000D01*
X78866296Y-78493501D01*
X78830608Y-78496749D01*
X78829329Y-78497125D01*
X78827997Y-78497256D01*
X78793632Y-78507631D01*
X78759275Y-78517743D01*
X78758092Y-78518362D01*
X78756812Y-78518748D01*
X78725150Y-78535583D01*
X78693378Y-78552193D01*
X78692337Y-78553030D01*
X78691158Y-78553657D01*
X78663395Y-78576300D01*
X78635428Y-78598786D01*
X78634569Y-78599810D01*
X78633534Y-78600654D01*
X78610689Y-78628269D01*
X78587632Y-78655748D01*
X78586988Y-78656919D01*
X78586137Y-78657948D01*
X78569106Y-78689446D01*
X78551809Y-78720908D01*
X78551404Y-78722184D01*
X78550770Y-78723357D01*
X78540171Y-78757598D01*
X78529326Y-78791786D01*
X78529177Y-78793112D01*
X78528782Y-78794389D01*
X78525032Y-78830064D01*
X78521037Y-78865680D01*
X78521019Y-78868243D01*
X78521009Y-78868340D01*
X78521018Y-78868437D01*
X78521000Y-78871000D01*
X78521000Y-78967699D01*
X78481289Y-79000289D01*
X78433678Y-79058304D01*
X78398299Y-79124492D01*
X78376513Y-79196311D01*
X78369157Y-79271000D01*
X78369157Y-80271000D01*
X78376513Y-80345689D01*
X78398299Y-80417508D01*
X78433678Y-80483696D01*
X78481289Y-80541711D01*
X78539304Y-80589322D01*
X78605492Y-80624701D01*
X78677311Y-80646487D01*
X78752000Y-80653843D01*
X78994000Y-80653843D01*
X78994001Y-81488030D01*
X78554346Y-81927685D01*
X78506852Y-81888709D01*
X78416342Y-81840331D01*
X78362508Y-81824000D01*
X78416342Y-81807669D01*
X78506852Y-81759291D01*
X78586185Y-81694185D01*
X78651291Y-81614852D01*
X78699669Y-81524342D01*
X78729461Y-81426134D01*
X78739520Y-81324000D01*
X78729461Y-81221866D01*
X78699669Y-81123658D01*
X78651291Y-81033148D01*
X78586185Y-80953815D01*
X78506852Y-80888709D01*
X78416342Y-80840331D01*
X78318134Y-80810539D01*
X78241587Y-80803000D01*
X77964000Y-80803000D01*
X77964000Y-80529216D01*
X78009706Y-80491706D01*
X78074728Y-80412476D01*
X78123044Y-80322083D01*
X78152797Y-80224002D01*
X78162843Y-80122000D01*
X78162843Y-79842000D01*
X78152797Y-79739998D01*
X78123044Y-79641917D01*
X78074728Y-79551524D01*
X78009706Y-79472294D01*
X77930476Y-79407272D01*
X77840083Y-79358956D01*
X77742002Y-79329203D01*
X77640000Y-79319157D01*
X77340990Y-79319157D01*
X77340990Y-78825430D01*
X77676566Y-78489854D01*
X77695949Y-78473947D01*
X77759430Y-78396594D01*
X77806602Y-78308342D01*
X77835650Y-78212584D01*
X77842404Y-78144000D01*
X80809157Y-78144000D01*
X80809157Y-79844000D01*
X80816513Y-79918689D01*
X80838299Y-79990508D01*
X80873678Y-80056696D01*
X80921289Y-80114711D01*
X80979304Y-80162322D01*
X81045492Y-80197701D01*
X81117311Y-80219487D01*
X81192000Y-80226843D01*
X82892000Y-80226843D01*
X82966689Y-80219487D01*
X83038508Y-80197701D01*
X83104696Y-80162322D01*
X83162711Y-80114711D01*
X83210322Y-80056696D01*
X83245701Y-79990508D01*
X83267487Y-79918689D01*
X83274843Y-79844000D01*
X83274843Y-78872757D01*
X83351000Y-78872757D01*
X83351000Y-79115243D01*
X83398307Y-79353069D01*
X83491102Y-79577097D01*
X83625820Y-79778717D01*
X83797283Y-79950180D01*
X83998903Y-80084898D01*
X84222931Y-80177693D01*
X84460757Y-80225000D01*
X84703243Y-80225000D01*
X84941069Y-80177693D01*
X85165097Y-80084898D01*
X85366717Y-79950180D01*
X85538180Y-79778717D01*
X85672898Y-79577097D01*
X85765693Y-79353069D01*
X85813000Y-79115243D01*
X85813000Y-78872757D01*
X85891000Y-78872757D01*
X85891000Y-79115243D01*
X85938307Y-79353069D01*
X86031102Y-79577097D01*
X86165820Y-79778717D01*
X86337283Y-79950180D01*
X86538903Y-80084898D01*
X86762931Y-80177693D01*
X87000757Y-80225000D01*
X87243243Y-80225000D01*
X87481069Y-80177693D01*
X87705097Y-80084898D01*
X87906717Y-79950180D01*
X88078180Y-79778717D01*
X88212898Y-79577097D01*
X88305693Y-79353069D01*
X88353000Y-79115243D01*
X88353000Y-78872757D01*
X88305693Y-78634931D01*
X88212898Y-78410903D01*
X88078180Y-78209283D01*
X87906717Y-78037820D01*
X87705097Y-77903102D01*
X87481069Y-77810307D01*
X87243243Y-77763000D01*
X87000757Y-77763000D01*
X86762931Y-77810307D01*
X86538903Y-77903102D01*
X86337283Y-78037820D01*
X86165820Y-78209283D01*
X86031102Y-78410903D01*
X85938307Y-78634931D01*
X85891000Y-78872757D01*
X85813000Y-78872757D01*
X85765693Y-78634931D01*
X85672898Y-78410903D01*
X85538180Y-78209283D01*
X85366717Y-78037820D01*
X85165097Y-77903102D01*
X84941069Y-77810307D01*
X84703243Y-77763000D01*
X84460757Y-77763000D01*
X84222931Y-77810307D01*
X83998903Y-77903102D01*
X83797283Y-78037820D01*
X83625820Y-78209283D01*
X83491102Y-78410903D01*
X83398307Y-78634931D01*
X83351000Y-78872757D01*
X83274843Y-78872757D01*
X83274843Y-78144000D01*
X83267487Y-78069311D01*
X83245701Y-77997492D01*
X83210322Y-77931304D01*
X83162711Y-77873289D01*
X83104696Y-77825678D01*
X83038508Y-77790299D01*
X82966689Y-77768513D01*
X82892000Y-77761157D01*
X81192000Y-77761157D01*
X81117311Y-77768513D01*
X81045492Y-77790299D01*
X80979304Y-77825678D01*
X80921289Y-77873289D01*
X80873678Y-77931304D01*
X80838299Y-77997492D01*
X80816513Y-78069311D01*
X80809157Y-78144000D01*
X77842404Y-78144000D01*
X77843001Y-78137946D01*
X77843001Y-78137943D01*
X77845458Y-78112999D01*
X77843001Y-78088055D01*
X77843001Y-77851000D01*
X78538921Y-77851000D01*
X78559888Y-77871967D01*
X78671426Y-77946494D01*
X78795360Y-77997829D01*
X78926927Y-78024000D01*
X79061073Y-78024000D01*
X79192640Y-77997829D01*
X79316574Y-77946494D01*
X79428112Y-77871967D01*
X79522967Y-77777112D01*
X79597494Y-77665574D01*
X79648829Y-77541640D01*
X79675000Y-77410073D01*
X79675000Y-77275927D01*
X79648829Y-77144360D01*
X79597494Y-77020426D01*
X79522967Y-76908888D01*
X79428112Y-76814033D01*
X79316574Y-76739506D01*
X79192640Y-76688171D01*
X79061073Y-76662000D01*
X78926927Y-76662000D01*
X78795360Y-76688171D01*
X78671426Y-76739506D01*
X78559888Y-76814033D01*
X78538921Y-76835000D01*
X77785939Y-76835000D01*
X77759430Y-76785406D01*
X77695949Y-76708053D01*
X77676566Y-76692146D01*
X77336420Y-76352000D01*
X90780000Y-76352000D01*
X90780000Y-80411064D01*
%TA.AperFunction,Conductor*%
D24*
G36*
X90780000Y-80411064D02*
G01*
X90724696Y-80365678D01*
X90658508Y-80330299D01*
X90586689Y-80308513D01*
X90512000Y-80301157D01*
X88812000Y-80301157D01*
X88737311Y-80308513D01*
X88665492Y-80330299D01*
X88599304Y-80365678D01*
X88541289Y-80413289D01*
X88493678Y-80471304D01*
X88458299Y-80537492D01*
X88436513Y-80609311D01*
X88429157Y-80684000D01*
X88429157Y-82384000D01*
X88436513Y-82458689D01*
X88458299Y-82530508D01*
X88493678Y-82596696D01*
X88541289Y-82654711D01*
X88599304Y-82702322D01*
X88665492Y-82737701D01*
X88737311Y-82759487D01*
X88812000Y-82766843D01*
X90512000Y-82766843D01*
X90586689Y-82759487D01*
X90658508Y-82737701D01*
X90724696Y-82702322D01*
X90780000Y-82656935D01*
X90780000Y-83556334D01*
X90752898Y-83490903D01*
X90618180Y-83289283D01*
X90446717Y-83117820D01*
X90245097Y-82983102D01*
X90021069Y-82890307D01*
X89783243Y-82843000D01*
X89540757Y-82843000D01*
X89302931Y-82890307D01*
X89078903Y-82983102D01*
X88877283Y-83117820D01*
X88705820Y-83289283D01*
X88571102Y-83490903D01*
X88478307Y-83714931D01*
X88431000Y-83952757D01*
X88431000Y-84195243D01*
X88478307Y-84433069D01*
X88571102Y-84657097D01*
X88705820Y-84858717D01*
X88877283Y-85030180D01*
X89078903Y-85164898D01*
X89302931Y-85257693D01*
X89540757Y-85305000D01*
X89783243Y-85305000D01*
X90021069Y-85257693D01*
X90245097Y-85164898D01*
X90446717Y-85030180D01*
X90618180Y-84858717D01*
X90752898Y-84657097D01*
X90780001Y-84591665D01*
X90780001Y-91542000D01*
X76852291Y-91542000D01*
X76863425Y-91521170D01*
X76892893Y-91424026D01*
X76902843Y-91323000D01*
X76902843Y-91053000D01*
X76892893Y-90951974D01*
X76863425Y-90854830D01*
X76820733Y-90774959D01*
X76832830Y-90781425D01*
X76929974Y-90810893D01*
X77031000Y-90820843D01*
X77401000Y-90820843D01*
X77502026Y-90810893D01*
X77599170Y-90781425D01*
X77688698Y-90733571D01*
X77724000Y-90704599D01*
X77759302Y-90733571D01*
X77848830Y-90781425D01*
X77945974Y-90810893D01*
X78016480Y-90817837D01*
X78033360Y-90824829D01*
X78164927Y-90851000D01*
X78299073Y-90851000D01*
X78430640Y-90824829D01*
X78447520Y-90817837D01*
X78518026Y-90810893D01*
X78615170Y-90781425D01*
X78704698Y-90733571D01*
X78783170Y-90669170D01*
X78847571Y-90590698D01*
X78895425Y-90501170D01*
X78924893Y-90404026D01*
X78934843Y-90303000D01*
X78934843Y-90033000D01*
X78924893Y-89931974D01*
X78895425Y-89834830D01*
X78847571Y-89745302D01*
X78783170Y-89666830D01*
X78704698Y-89602429D01*
X78615170Y-89554575D01*
X78518026Y-89525107D01*
X78434851Y-89516915D01*
X78430640Y-89515171D01*
X78299073Y-89489000D01*
X78164927Y-89489000D01*
X78033360Y-89515171D01*
X78029149Y-89516915D01*
X77945974Y-89525107D01*
X77848830Y-89554575D01*
X77759302Y-89602429D01*
X77724000Y-89631401D01*
X77688698Y-89602429D01*
X77599170Y-89554575D01*
X77502026Y-89525107D01*
X77401000Y-89515157D01*
X77031000Y-89515157D01*
X76929974Y-89525107D01*
X76832830Y-89554575D01*
X76772167Y-89587000D01*
X76643833Y-89587000D01*
X76583170Y-89554575D01*
X76486026Y-89525107D01*
X76385000Y-89515157D01*
X76265578Y-89515157D01*
X76157767Y-89407346D01*
X76258133Y-89397461D01*
X76356341Y-89367669D01*
X76446852Y-89319291D01*
X76526185Y-89254185D01*
X76591291Y-89174852D01*
X76639669Y-89084342D01*
X76669461Y-88986134D01*
X76677000Y-88909587D01*
X76677000Y-88632000D01*
X78919556Y-88632000D01*
X78944500Y-88634457D01*
X78969444Y-88632000D01*
X78969447Y-88632000D01*
X79044085Y-88624649D01*
X79139843Y-88595601D01*
X79228095Y-88548429D01*
X79305448Y-88484948D01*
X79321355Y-88465565D01*
X80542071Y-87244850D01*
X80561448Y-87228948D01*
X80596885Y-87185767D01*
X80624929Y-87151596D01*
X80672100Y-87063345D01*
X80676933Y-87047414D01*
X80701149Y-86967585D01*
X80708500Y-86892947D01*
X80708500Y-86892945D01*
X80710957Y-86868001D01*
X80708500Y-86843057D01*
X80708500Y-86492757D01*
X80811000Y-86492757D01*
X80811000Y-86735243D01*
X80858307Y-86973069D01*
X80951102Y-87197097D01*
X81085820Y-87398717D01*
X81257283Y-87570180D01*
X81458903Y-87704898D01*
X81682931Y-87797693D01*
X81920757Y-87845000D01*
X82163243Y-87845000D01*
X82401069Y-87797693D01*
X82625097Y-87704898D01*
X82826717Y-87570180D01*
X82998180Y-87398717D01*
X83132898Y-87197097D01*
X83225693Y-86973069D01*
X83273000Y-86735243D01*
X83273000Y-86492757D01*
X83351000Y-86492757D01*
X83351000Y-86735243D01*
X83398307Y-86973069D01*
X83491102Y-87197097D01*
X83625820Y-87398717D01*
X83797283Y-87570180D01*
X83998903Y-87704898D01*
X84222931Y-87797693D01*
X84460757Y-87845000D01*
X84703243Y-87845000D01*
X84941069Y-87797693D01*
X85165097Y-87704898D01*
X85366717Y-87570180D01*
X85538180Y-87398717D01*
X85672898Y-87197097D01*
X85765693Y-86973069D01*
X85813000Y-86735243D01*
X85813000Y-86492757D01*
X85891000Y-86492757D01*
X85891000Y-86735243D01*
X85938307Y-86973069D01*
X86031102Y-87197097D01*
X86165820Y-87398717D01*
X86337283Y-87570180D01*
X86538903Y-87704898D01*
X86762931Y-87797693D01*
X87000757Y-87845000D01*
X87243243Y-87845000D01*
X87481069Y-87797693D01*
X87705097Y-87704898D01*
X87906717Y-87570180D01*
X88078180Y-87398717D01*
X88212898Y-87197097D01*
X88305693Y-86973069D01*
X88353000Y-86735243D01*
X88353000Y-86492757D01*
X88305693Y-86254931D01*
X88212898Y-86030903D01*
X88078180Y-85829283D01*
X87906717Y-85657820D01*
X87705097Y-85523102D01*
X87481069Y-85430307D01*
X87243243Y-85383000D01*
X87000757Y-85383000D01*
X86762931Y-85430307D01*
X86538903Y-85523102D01*
X86337283Y-85657820D01*
X86165820Y-85829283D01*
X86031102Y-86030903D01*
X85938307Y-86254931D01*
X85891000Y-86492757D01*
X85813000Y-86492757D01*
X85765693Y-86254931D01*
X85672898Y-86030903D01*
X85538180Y-85829283D01*
X85366717Y-85657820D01*
X85165097Y-85523102D01*
X84941069Y-85430307D01*
X84703243Y-85383000D01*
X84460757Y-85383000D01*
X84222931Y-85430307D01*
X83998903Y-85523102D01*
X83797283Y-85657820D01*
X83625820Y-85829283D01*
X83491102Y-86030903D01*
X83398307Y-86254931D01*
X83351000Y-86492757D01*
X83273000Y-86492757D01*
X83225693Y-86254931D01*
X83132898Y-86030903D01*
X82998180Y-85829283D01*
X82826717Y-85657820D01*
X82625097Y-85523102D01*
X82401069Y-85430307D01*
X82163243Y-85383000D01*
X81920757Y-85383000D01*
X81682931Y-85430307D01*
X81458903Y-85523102D01*
X81257283Y-85657820D01*
X81085820Y-85829283D01*
X80951102Y-86030903D01*
X80858307Y-86254931D01*
X80811000Y-86492757D01*
X80708500Y-86492757D01*
X80708500Y-84665420D01*
X80791921Y-84582000D01*
X80919996Y-84582000D01*
X80951102Y-84657097D01*
X81085820Y-84858717D01*
X81257283Y-85030180D01*
X81458903Y-85164898D01*
X81682931Y-85257693D01*
X81920757Y-85305000D01*
X82163243Y-85305000D01*
X82401069Y-85257693D01*
X82625097Y-85164898D01*
X82826717Y-85030180D01*
X82998180Y-84858717D01*
X83132898Y-84657097D01*
X83225693Y-84433069D01*
X83273000Y-84195243D01*
X83273000Y-83952757D01*
X83351000Y-83952757D01*
X83351000Y-84195243D01*
X83398307Y-84433069D01*
X83491102Y-84657097D01*
X83625820Y-84858717D01*
X83797283Y-85030180D01*
X83998903Y-85164898D01*
X84222931Y-85257693D01*
X84460757Y-85305000D01*
X84703243Y-85305000D01*
X84941069Y-85257693D01*
X85165097Y-85164898D01*
X85366717Y-85030180D01*
X85538180Y-84858717D01*
X85672898Y-84657097D01*
X85765693Y-84433069D01*
X85813000Y-84195243D01*
X85813000Y-83952757D01*
X85891000Y-83952757D01*
X85891000Y-84195243D01*
X85938307Y-84433069D01*
X86031102Y-84657097D01*
X86165820Y-84858717D01*
X86337283Y-85030180D01*
X86538903Y-85164898D01*
X86762931Y-85257693D01*
X87000757Y-85305000D01*
X87243243Y-85305000D01*
X87481069Y-85257693D01*
X87705097Y-85164898D01*
X87906717Y-85030180D01*
X88078180Y-84858717D01*
X88212898Y-84657097D01*
X88305693Y-84433069D01*
X88353000Y-84195243D01*
X88353000Y-83952757D01*
X88305693Y-83714931D01*
X88212898Y-83490903D01*
X88078180Y-83289283D01*
X87906717Y-83117820D01*
X87705097Y-82983102D01*
X87481069Y-82890307D01*
X87243243Y-82843000D01*
X87000757Y-82843000D01*
X86762931Y-82890307D01*
X86538903Y-82983102D01*
X86337283Y-83117820D01*
X86165820Y-83289283D01*
X86031102Y-83490903D01*
X85938307Y-83714931D01*
X85891000Y-83952757D01*
X85813000Y-83952757D01*
X85765693Y-83714931D01*
X85672898Y-83490903D01*
X85538180Y-83289283D01*
X85366717Y-83117820D01*
X85165097Y-82983102D01*
X84941069Y-82890307D01*
X84703243Y-82843000D01*
X84460757Y-82843000D01*
X84222931Y-82890307D01*
X83998903Y-82983102D01*
X83797283Y-83117820D01*
X83625820Y-83289283D01*
X83491102Y-83490903D01*
X83398307Y-83714931D01*
X83351000Y-83952757D01*
X83273000Y-83952757D01*
X83225693Y-83714931D01*
X83132898Y-83490903D01*
X82998180Y-83289283D01*
X82826717Y-83117820D01*
X82625097Y-82983102D01*
X82401069Y-82890307D01*
X82163243Y-82843000D01*
X81920757Y-82843000D01*
X81682931Y-82890307D01*
X81458903Y-82983102D01*
X81257283Y-83117820D01*
X81085820Y-83289283D01*
X80951102Y-83490903D01*
X80919996Y-83566000D01*
X80606443Y-83566000D01*
X80581499Y-83563543D01*
X80556555Y-83566000D01*
X80556553Y-83566000D01*
X80481915Y-83573351D01*
X80386157Y-83602399D01*
X80386155Y-83602400D01*
X80297904Y-83649571D01*
X80252667Y-83686696D01*
X80220552Y-83713052D01*
X80204649Y-83732430D01*
X79858930Y-84078150D01*
X79839553Y-84094052D01*
X79823651Y-84113429D01*
X79823650Y-84113430D01*
X79776071Y-84171405D01*
X79729251Y-84259000D01*
X79728900Y-84259657D01*
X79701651Y-84349487D01*
X79699852Y-84355416D01*
X79690043Y-84455000D01*
X79692501Y-84479954D01*
X79692500Y-86454364D01*
X79649967Y-86390708D01*
X79555112Y-86295853D01*
X79443574Y-86221326D01*
X79319640Y-86169991D01*
X79188073Y-86143820D01*
X79053927Y-86143820D01*
X78922360Y-86169991D01*
X78798426Y-86221326D01*
X78733669Y-86264595D01*
X78729461Y-86221866D01*
X78699669Y-86123658D01*
X78673127Y-86074000D01*
X78699669Y-86024342D01*
X78729461Y-85926134D01*
X78739520Y-85824000D01*
X78729461Y-85721866D01*
X78699669Y-85623658D01*
X78673127Y-85574000D01*
X78699669Y-85524342D01*
X78729461Y-85426134D01*
X78739520Y-85324000D01*
X78729461Y-85221866D01*
X78699669Y-85123658D01*
X78673127Y-85074000D01*
X78699669Y-85024342D01*
X78729461Y-84926134D01*
X78739520Y-84824000D01*
X78729461Y-84721866D01*
X78699669Y-84623658D01*
X78673127Y-84574000D01*
X78699669Y-84524342D01*
X78729461Y-84426134D01*
X78739520Y-84324000D01*
X78729461Y-84221866D01*
X78699669Y-84123658D01*
X78673127Y-84074000D01*
X78699669Y-84024342D01*
X78729461Y-83926134D01*
X78739520Y-83824000D01*
X78729461Y-83721866D01*
X78699669Y-83623658D01*
X78673127Y-83574000D01*
X78699669Y-83524342D01*
X78729461Y-83426134D01*
X78739520Y-83324000D01*
X78729461Y-83221866D01*
X78720639Y-83192786D01*
X78770389Y-83151958D01*
X78786296Y-83132575D01*
X79843565Y-82075306D01*
X79862948Y-82059399D01*
X79926429Y-81982046D01*
X79973601Y-81893794D01*
X80002649Y-81798036D01*
X80010000Y-81723398D01*
X80010000Y-81723395D01*
X80012457Y-81698451D01*
X80010000Y-81673507D01*
X80010000Y-81412757D01*
X80811000Y-81412757D01*
X80811000Y-81655243D01*
X80858307Y-81893069D01*
X80951102Y-82117097D01*
X81085820Y-82318717D01*
X81257283Y-82490180D01*
X81458903Y-82624898D01*
X81682931Y-82717693D01*
X81920757Y-82765000D01*
X82163243Y-82765000D01*
X82401069Y-82717693D01*
X82625097Y-82624898D01*
X82826717Y-82490180D01*
X82998180Y-82318717D01*
X83132898Y-82117097D01*
X83225693Y-81893069D01*
X83273000Y-81655243D01*
X83273000Y-81412757D01*
X83351000Y-81412757D01*
X83351000Y-81655243D01*
X83398307Y-81893069D01*
X83491102Y-82117097D01*
X83625820Y-82318717D01*
X83797283Y-82490180D01*
X83998903Y-82624898D01*
X84222931Y-82717693D01*
X84460757Y-82765000D01*
X84703243Y-82765000D01*
X84941069Y-82717693D01*
X85165097Y-82624898D01*
X85366717Y-82490180D01*
X85538180Y-82318717D01*
X85672898Y-82117097D01*
X85765693Y-81893069D01*
X85813000Y-81655243D01*
X85813000Y-81412757D01*
X85891000Y-81412757D01*
X85891000Y-81655243D01*
X85938307Y-81893069D01*
X86031102Y-82117097D01*
X86165820Y-82318717D01*
X86337283Y-82490180D01*
X86538903Y-82624898D01*
X86762931Y-82717693D01*
X87000757Y-82765000D01*
X87243243Y-82765000D01*
X87481069Y-82717693D01*
X87705097Y-82624898D01*
X87906717Y-82490180D01*
X88078180Y-82318717D01*
X88212898Y-82117097D01*
X88305693Y-81893069D01*
X88353000Y-81655243D01*
X88353000Y-81412757D01*
X88305693Y-81174931D01*
X88212898Y-80950903D01*
X88078180Y-80749283D01*
X87906717Y-80577820D01*
X87705097Y-80443102D01*
X87481069Y-80350307D01*
X87243243Y-80303000D01*
X87000757Y-80303000D01*
X86762931Y-80350307D01*
X86538903Y-80443102D01*
X86337283Y-80577820D01*
X86165820Y-80749283D01*
X86031102Y-80950903D01*
X85938307Y-81174931D01*
X85891000Y-81412757D01*
X85813000Y-81412757D01*
X85765693Y-81174931D01*
X85672898Y-80950903D01*
X85538180Y-80749283D01*
X85366717Y-80577820D01*
X85165097Y-80443102D01*
X84941069Y-80350307D01*
X84703243Y-80303000D01*
X84460757Y-80303000D01*
X84222931Y-80350307D01*
X83998903Y-80443102D01*
X83797283Y-80577820D01*
X83625820Y-80749283D01*
X83491102Y-80950903D01*
X83398307Y-81174931D01*
X83351000Y-81412757D01*
X83273000Y-81412757D01*
X83225693Y-81174931D01*
X83132898Y-80950903D01*
X82998180Y-80749283D01*
X82826717Y-80577820D01*
X82625097Y-80443102D01*
X82401069Y-80350307D01*
X82163243Y-80303000D01*
X81920757Y-80303000D01*
X81682931Y-80350307D01*
X81458903Y-80443102D01*
X81257283Y-80577820D01*
X81085820Y-80749283D01*
X80951102Y-80950903D01*
X80858307Y-81174931D01*
X80811000Y-81412757D01*
X80010000Y-81412757D01*
X80010000Y-80653843D01*
X80252000Y-80653843D01*
X80326689Y-80646487D01*
X80398508Y-80624701D01*
X80464696Y-80589322D01*
X80522711Y-80541711D01*
X80570322Y-80483696D01*
X80605701Y-80417508D01*
X80627487Y-80345689D01*
X80634843Y-80271000D01*
X80634843Y-79271000D01*
X80627487Y-79196311D01*
X80605701Y-79124492D01*
X80570322Y-79058304D01*
X80522711Y-79000289D01*
X80483000Y-78967699D01*
X80483000Y-78871000D01*
X80479499Y-78835296D01*
X80476251Y-78799608D01*
X80475875Y-78798329D01*
X80475744Y-78796997D01*
X80465369Y-78762632D01*
X80455257Y-78728275D01*
X80454638Y-78727092D01*
X80454252Y-78725812D01*
X80437417Y-78694150D01*
X80420807Y-78662378D01*
X80419970Y-78661337D01*
X80419343Y-78660158D01*
X80396700Y-78632395D01*
X80374214Y-78604428D01*
X80373190Y-78603569D01*
X80372346Y-78602534D01*
X80344731Y-78579689D01*
X80317252Y-78556632D01*
X80316081Y-78555988D01*
X80315052Y-78555137D01*
X80283554Y-78538106D01*
X80252092Y-78520809D01*
X80250816Y-78520404D01*
X80249643Y-78519770D01*
X80215402Y-78509171D01*
X80181214Y-78498326D01*
X80179888Y-78498177D01*
X80178611Y-78497782D01*
X80142936Y-78494032D01*
X80107320Y-78490037D01*
X80104757Y-78490019D01*
X80104660Y-78490009D01*
X80104563Y-78490018D01*
X80102000Y-78490000D01*
X79702000Y-78490000D01*
X79666296Y-78493501D01*
X79630608Y-78496749D01*
X79629329Y-78497125D01*
X79627997Y-78497256D01*
X79593632Y-78507631D01*
X79559275Y-78517743D01*
X79558092Y-78518362D01*
X79556812Y-78518748D01*
X79525150Y-78535583D01*
X79501629Y-78547879D01*
X79483554Y-78538106D01*
X79452092Y-78520809D01*
X79450816Y-78520404D01*
X79449643Y-78519770D01*
X79415402Y-78509171D01*
X79381214Y-78498326D01*
X79379888Y-78498177D01*
X79378611Y-78497782D01*
X79342936Y-78494032D01*
X79307320Y-78490037D01*
X79304757Y-78490019D01*
X79304660Y-78490009D01*
X79304563Y-78490018D01*
X79302000Y-78490000D01*
X78902000Y-78490000D01*
X78866296Y-78493501D01*
X78830608Y-78496749D01*
X78829329Y-78497125D01*
X78827997Y-78497256D01*
X78793632Y-78507631D01*
X78759275Y-78517743D01*
X78758092Y-78518362D01*
X78756812Y-78518748D01*
X78725150Y-78535583D01*
X78693378Y-78552193D01*
X78692337Y-78553030D01*
X78691158Y-78553657D01*
X78663395Y-78576300D01*
X78635428Y-78598786D01*
X78634569Y-78599810D01*
X78633534Y-78600654D01*
X78610689Y-78628269D01*
X78587632Y-78655748D01*
X78586988Y-78656919D01*
X78586137Y-78657948D01*
X78569106Y-78689446D01*
X78551809Y-78720908D01*
X78551404Y-78722184D01*
X78550770Y-78723357D01*
X78540171Y-78757598D01*
X78529326Y-78791786D01*
X78529177Y-78793112D01*
X78528782Y-78794389D01*
X78525032Y-78830064D01*
X78521037Y-78865680D01*
X78521019Y-78868243D01*
X78521009Y-78868340D01*
X78521018Y-78868437D01*
X78521000Y-78871000D01*
X78521000Y-78967699D01*
X78481289Y-79000289D01*
X78433678Y-79058304D01*
X78398299Y-79124492D01*
X78376513Y-79196311D01*
X78369157Y-79271000D01*
X78369157Y-80271000D01*
X78376513Y-80345689D01*
X78398299Y-80417508D01*
X78433678Y-80483696D01*
X78481289Y-80541711D01*
X78539304Y-80589322D01*
X78605492Y-80624701D01*
X78677311Y-80646487D01*
X78752000Y-80653843D01*
X78994000Y-80653843D01*
X78994001Y-81488030D01*
X78554346Y-81927685D01*
X78506852Y-81888709D01*
X78416342Y-81840331D01*
X78362508Y-81824000D01*
X78416342Y-81807669D01*
X78506852Y-81759291D01*
X78586185Y-81694185D01*
X78651291Y-81614852D01*
X78699669Y-81524342D01*
X78729461Y-81426134D01*
X78739520Y-81324000D01*
X78729461Y-81221866D01*
X78699669Y-81123658D01*
X78651291Y-81033148D01*
X78586185Y-80953815D01*
X78506852Y-80888709D01*
X78416342Y-80840331D01*
X78318134Y-80810539D01*
X78241587Y-80803000D01*
X77964000Y-80803000D01*
X77964000Y-80529216D01*
X78009706Y-80491706D01*
X78074728Y-80412476D01*
X78123044Y-80322083D01*
X78152797Y-80224002D01*
X78162843Y-80122000D01*
X78162843Y-79842000D01*
X78152797Y-79739998D01*
X78123044Y-79641917D01*
X78074728Y-79551524D01*
X78009706Y-79472294D01*
X77930476Y-79407272D01*
X77840083Y-79358956D01*
X77742002Y-79329203D01*
X77640000Y-79319157D01*
X77340990Y-79319157D01*
X77340990Y-78825430D01*
X77676566Y-78489854D01*
X77695949Y-78473947D01*
X77759430Y-78396594D01*
X77806602Y-78308342D01*
X77835650Y-78212584D01*
X77842404Y-78144000D01*
X80809157Y-78144000D01*
X80809157Y-79844000D01*
X80816513Y-79918689D01*
X80838299Y-79990508D01*
X80873678Y-80056696D01*
X80921289Y-80114711D01*
X80979304Y-80162322D01*
X81045492Y-80197701D01*
X81117311Y-80219487D01*
X81192000Y-80226843D01*
X82892000Y-80226843D01*
X82966689Y-80219487D01*
X83038508Y-80197701D01*
X83104696Y-80162322D01*
X83162711Y-80114711D01*
X83210322Y-80056696D01*
X83245701Y-79990508D01*
X83267487Y-79918689D01*
X83274843Y-79844000D01*
X83274843Y-78872757D01*
X83351000Y-78872757D01*
X83351000Y-79115243D01*
X83398307Y-79353069D01*
X83491102Y-79577097D01*
X83625820Y-79778717D01*
X83797283Y-79950180D01*
X83998903Y-80084898D01*
X84222931Y-80177693D01*
X84460757Y-80225000D01*
X84703243Y-80225000D01*
X84941069Y-80177693D01*
X85165097Y-80084898D01*
X85366717Y-79950180D01*
X85538180Y-79778717D01*
X85672898Y-79577097D01*
X85765693Y-79353069D01*
X85813000Y-79115243D01*
X85813000Y-78872757D01*
X85891000Y-78872757D01*
X85891000Y-79115243D01*
X85938307Y-79353069D01*
X86031102Y-79577097D01*
X86165820Y-79778717D01*
X86337283Y-79950180D01*
X86538903Y-80084898D01*
X86762931Y-80177693D01*
X87000757Y-80225000D01*
X87243243Y-80225000D01*
X87481069Y-80177693D01*
X87705097Y-80084898D01*
X87906717Y-79950180D01*
X88078180Y-79778717D01*
X88212898Y-79577097D01*
X88305693Y-79353069D01*
X88353000Y-79115243D01*
X88353000Y-78872757D01*
X88305693Y-78634931D01*
X88212898Y-78410903D01*
X88078180Y-78209283D01*
X87906717Y-78037820D01*
X87705097Y-77903102D01*
X87481069Y-77810307D01*
X87243243Y-77763000D01*
X87000757Y-77763000D01*
X86762931Y-77810307D01*
X86538903Y-77903102D01*
X86337283Y-78037820D01*
X86165820Y-78209283D01*
X86031102Y-78410903D01*
X85938307Y-78634931D01*
X85891000Y-78872757D01*
X85813000Y-78872757D01*
X85765693Y-78634931D01*
X85672898Y-78410903D01*
X85538180Y-78209283D01*
X85366717Y-78037820D01*
X85165097Y-77903102D01*
X84941069Y-77810307D01*
X84703243Y-77763000D01*
X84460757Y-77763000D01*
X84222931Y-77810307D01*
X83998903Y-77903102D01*
X83797283Y-78037820D01*
X83625820Y-78209283D01*
X83491102Y-78410903D01*
X83398307Y-78634931D01*
X83351000Y-78872757D01*
X83274843Y-78872757D01*
X83274843Y-78144000D01*
X83267487Y-78069311D01*
X83245701Y-77997492D01*
X83210322Y-77931304D01*
X83162711Y-77873289D01*
X83104696Y-77825678D01*
X83038508Y-77790299D01*
X82966689Y-77768513D01*
X82892000Y-77761157D01*
X81192000Y-77761157D01*
X81117311Y-77768513D01*
X81045492Y-77790299D01*
X80979304Y-77825678D01*
X80921289Y-77873289D01*
X80873678Y-77931304D01*
X80838299Y-77997492D01*
X80816513Y-78069311D01*
X80809157Y-78144000D01*
X77842404Y-78144000D01*
X77843001Y-78137946D01*
X77843001Y-78137943D01*
X77845458Y-78112999D01*
X77843001Y-78088055D01*
X77843001Y-77851000D01*
X78538921Y-77851000D01*
X78559888Y-77871967D01*
X78671426Y-77946494D01*
X78795360Y-77997829D01*
X78926927Y-78024000D01*
X79061073Y-78024000D01*
X79192640Y-77997829D01*
X79316574Y-77946494D01*
X79428112Y-77871967D01*
X79522967Y-77777112D01*
X79597494Y-77665574D01*
X79648829Y-77541640D01*
X79675000Y-77410073D01*
X79675000Y-77275927D01*
X79648829Y-77144360D01*
X79597494Y-77020426D01*
X79522967Y-76908888D01*
X79428112Y-76814033D01*
X79316574Y-76739506D01*
X79192640Y-76688171D01*
X79061073Y-76662000D01*
X78926927Y-76662000D01*
X78795360Y-76688171D01*
X78671426Y-76739506D01*
X78559888Y-76814033D01*
X78538921Y-76835000D01*
X77785939Y-76835000D01*
X77759430Y-76785406D01*
X77695949Y-76708053D01*
X77676566Y-76692146D01*
X77336420Y-76352000D01*
X90780000Y-76352000D01*
X90780000Y-80411064D01*
G37*
%TD.AperFunction*%
D21*
X59474512Y-76372512D02*
X59395810Y-76468411D01*
X59337329Y-76577821D01*
X59301317Y-76696538D01*
X59290677Y-76804565D01*
X59237360Y-76815171D01*
X59113426Y-76866506D01*
X59093887Y-76879561D01*
X59076476Y-76865272D01*
X58986083Y-76816956D01*
X58888002Y-76787203D01*
X58786000Y-76777157D01*
X58506000Y-76777157D01*
X58403998Y-76787203D01*
X58305917Y-76816956D01*
X58215524Y-76865272D01*
X58136294Y-76930294D01*
X58071272Y-77009524D01*
X58022956Y-77099917D01*
X57993203Y-77197998D01*
X57983157Y-77300000D01*
X57983157Y-77640000D01*
X57993203Y-77742002D01*
X58022956Y-77840083D01*
X58071272Y-77930476D01*
X58136294Y-78009706D01*
X58215524Y-78074728D01*
X58305917Y-78123044D01*
X58403998Y-78152797D01*
X58506000Y-78162843D01*
X58786000Y-78162843D01*
X58888002Y-78152797D01*
X58986083Y-78123044D01*
X59076476Y-78074728D01*
X59093887Y-78060439D01*
X59113426Y-78073494D01*
X59237360Y-78124829D01*
X59290677Y-78135435D01*
X59301317Y-78243462D01*
X59337329Y-78362179D01*
X59395810Y-78471589D01*
X59474512Y-78567488D01*
X59570411Y-78646190D01*
X59679821Y-78704671D01*
X59798538Y-78740683D01*
X59921999Y-78752843D01*
X60572001Y-78752843D01*
X60695462Y-78740683D01*
X60814179Y-78704671D01*
X60923589Y-78646190D01*
X61019488Y-78567488D01*
X61098190Y-78471589D01*
X61156671Y-78362179D01*
X61192683Y-78243462D01*
X61204843Y-78120001D01*
X61204843Y-76819999D01*
X61192683Y-76696538D01*
X61156671Y-76577821D01*
X61098190Y-76468411D01*
X61019488Y-76372512D01*
X60994494Y-76352000D01*
X74122395Y-76352000D01*
X74102435Y-76417802D01*
X74093157Y-76512000D01*
X74093157Y-76632172D01*
X74092189Y-76642000D01*
X74093157Y-76651828D01*
X74093157Y-76772000D01*
X74096564Y-76806591D01*
X74028253Y-76750531D01*
X73944776Y-76705911D01*
X73854198Y-76678435D01*
X73760000Y-76669157D01*
X73560000Y-76669157D01*
X73465802Y-76678435D01*
X73375224Y-76705911D01*
X73291747Y-76750531D01*
X73218578Y-76810578D01*
X73158531Y-76883747D01*
X73152000Y-76895965D01*
X73145469Y-76883747D01*
X73085422Y-76810578D01*
X73012253Y-76750531D01*
X72928776Y-76705911D01*
X72838198Y-76678435D01*
X72744000Y-76669157D01*
X72544000Y-76669157D01*
X72449802Y-76678435D01*
X72359224Y-76705911D01*
X72275747Y-76750531D01*
X72202578Y-76810578D01*
X72142531Y-76883747D01*
X72097911Y-76967224D01*
X72097849Y-76967429D01*
X72004855Y-76874435D01*
X71988948Y-76855052D01*
X71911595Y-76791571D01*
X71823343Y-76744399D01*
X71727585Y-76715351D01*
X71652947Y-76708000D01*
X71652944Y-76708000D01*
X71628000Y-76705543D01*
X71603056Y-76708000D01*
X70830982Y-76708000D01*
X70806038Y-76705543D01*
X70781094Y-76708000D01*
X70781091Y-76708000D01*
X70706453Y-76715351D01*
X70610695Y-76744399D01*
X70589186Y-76755896D01*
X70522442Y-76791571D01*
X70472518Y-76832543D01*
X70445090Y-76855052D01*
X70429188Y-76874429D01*
X69617610Y-77686008D01*
X69548476Y-77629272D01*
X69458083Y-77580956D01*
X69360002Y-77551203D01*
X69258000Y-77541157D01*
X68918000Y-77541157D01*
X68815998Y-77551203D01*
X68717917Y-77580956D01*
X68639258Y-77623000D01*
X68520742Y-77623000D01*
X68442083Y-77580956D01*
X68344002Y-77551203D01*
X68242000Y-77541157D01*
X67902000Y-77541157D01*
X67799998Y-77551203D01*
X67701917Y-77580956D01*
X67623258Y-77623000D01*
X67504742Y-77623000D01*
X67426083Y-77580956D01*
X67328002Y-77551203D01*
X67226000Y-77541157D01*
X66886000Y-77541157D01*
X66783998Y-77551203D01*
X66685917Y-77580956D01*
X66595524Y-77629272D01*
X66548000Y-77668274D01*
X66500476Y-77629272D01*
X66410083Y-77580956D01*
X66312002Y-77551203D01*
X66210000Y-77541157D01*
X65870000Y-77541157D01*
X65767998Y-77551203D01*
X65669917Y-77580956D01*
X65579524Y-77629272D01*
X65500294Y-77694294D01*
X65435272Y-77773524D01*
X65386956Y-77863917D01*
X65357203Y-77961998D01*
X65347157Y-78064000D01*
X65347157Y-78075186D01*
X65268356Y-78153987D01*
X65246184Y-78172183D01*
X65203617Y-78224052D01*
X65173579Y-78260653D01*
X65119629Y-78361586D01*
X65086407Y-78471105D01*
X65075189Y-78585000D01*
X65078000Y-78613540D01*
X65078000Y-79082261D01*
X65055506Y-79115926D01*
X65004171Y-79239860D01*
X64978000Y-79371427D01*
X64978000Y-79505573D01*
X65004171Y-79637140D01*
X65055506Y-79761074D01*
X65130033Y-79872612D01*
X65224888Y-79967467D01*
X65336426Y-80041994D01*
X65460360Y-80093329D01*
X65591927Y-80119500D01*
X65726073Y-80119500D01*
X65857640Y-80093329D01*
X65981574Y-80041994D01*
X66093112Y-79967467D01*
X66187967Y-79872612D01*
X66262494Y-79761074D01*
X66288708Y-79697787D01*
X66304388Y-79713467D01*
X66415926Y-79787994D01*
X66539860Y-79839329D01*
X66671427Y-79865500D01*
X66805573Y-79865500D01*
X66937140Y-79839329D01*
X67061074Y-79787994D01*
X67172612Y-79713467D01*
X67267467Y-79618612D01*
X67341994Y-79507074D01*
X67393329Y-79383140D01*
X67401228Y-79343430D01*
X67446645Y-79298013D01*
X67468817Y-79279817D01*
X67541421Y-79191348D01*
X67595371Y-79090415D01*
X67628593Y-78980896D01*
X67637000Y-78895540D01*
X67639811Y-78867000D01*
X67637000Y-78838460D01*
X67637000Y-78792345D01*
X67701917Y-78827044D01*
X67799998Y-78856797D01*
X67902000Y-78866843D01*
X68242000Y-78866843D01*
X68344002Y-78856797D01*
X68442083Y-78827044D01*
X68520742Y-78785000D01*
X68639258Y-78785000D01*
X68717917Y-78827044D01*
X68815998Y-78856797D01*
X68918000Y-78866843D01*
X69258000Y-78866843D01*
X69360002Y-78856797D01*
X69458083Y-78827044D01*
X69548476Y-78778728D01*
X69619786Y-78720206D01*
X70135269Y-79235690D01*
X70135001Y-79238413D01*
X70135000Y-80803000D01*
X69885742Y-80803000D01*
X69945494Y-80713574D01*
X69996829Y-80589640D01*
X70023000Y-80458073D01*
X70023000Y-80323927D01*
X69996829Y-80192360D01*
X69945494Y-80068426D01*
X69870967Y-79956888D01*
X69776112Y-79862033D01*
X69664574Y-79787506D01*
X69540640Y-79736171D01*
X69409073Y-79710000D01*
X69274927Y-79710000D01*
X69143360Y-79736171D01*
X69019426Y-79787506D01*
X68907888Y-79862033D01*
X68813033Y-79956888D01*
X68738506Y-80068426D01*
X68687171Y-80192360D01*
X68661000Y-80323927D01*
X68661000Y-80458073D01*
X68687171Y-80589640D01*
X68738506Y-80713574D01*
X68798258Y-80803000D01*
X68570413Y-80803000D01*
X68493866Y-80810539D01*
X68395658Y-80840331D01*
X68305148Y-80888709D01*
X68225815Y-80953815D01*
X68160709Y-81033148D01*
X68112331Y-81123658D01*
X68099086Y-81167321D01*
X68016640Y-81133171D01*
X67885073Y-81107000D01*
X67750927Y-81107000D01*
X67619360Y-81133171D01*
X67495426Y-81184506D01*
X67383888Y-81259033D01*
X67289033Y-81353888D01*
X67214506Y-81465426D01*
X67163171Y-81589360D01*
X67137000Y-81720927D01*
X67137000Y-81855073D01*
X67163171Y-81986640D01*
X67214506Y-82110574D01*
X67289033Y-82222112D01*
X67383888Y-82316967D01*
X67495426Y-82391494D01*
X67619360Y-82442829D01*
X67750927Y-82469000D01*
X67885073Y-82469000D01*
X68016640Y-82442829D01*
X68081536Y-82415948D01*
X68082539Y-82426134D01*
X68112331Y-82524342D01*
X68138873Y-82574000D01*
X68112331Y-82623658D01*
X68082539Y-82721866D01*
X68072480Y-82824000D01*
X68082539Y-82926134D01*
X68112331Y-83024342D01*
X68138873Y-83074000D01*
X68112331Y-83123658D01*
X68082539Y-83221866D01*
X68072480Y-83324000D01*
X68082539Y-83426134D01*
X68112331Y-83524342D01*
X68138873Y-83574000D01*
X68112331Y-83623658D01*
X68082539Y-83721866D01*
X68072480Y-83824000D01*
X68082539Y-83926134D01*
X68112331Y-84024342D01*
X68138873Y-84074000D01*
X68112331Y-84123658D01*
X68082539Y-84221866D01*
X68072480Y-84324000D01*
X68082539Y-84426134D01*
X68112331Y-84524342D01*
X68138873Y-84574000D01*
X68112331Y-84623658D01*
X68082539Y-84721866D01*
X68072480Y-84824000D01*
X68082539Y-84926134D01*
X68112331Y-85024342D01*
X68138873Y-85074000D01*
X68112331Y-85123658D01*
X68082539Y-85221866D01*
X68072480Y-85324000D01*
X68082539Y-85426134D01*
X68112331Y-85524342D01*
X68138873Y-85574000D01*
X68112331Y-85623658D01*
X68082539Y-85721866D01*
X68072480Y-85824000D01*
X68082539Y-85926134D01*
X68112331Y-86024342D01*
X68160709Y-86114852D01*
X68225815Y-86194185D01*
X68305148Y-86259291D01*
X68395658Y-86307669D01*
X68423121Y-86316000D01*
X66334944Y-86316000D01*
X66310000Y-86313543D01*
X66285056Y-86316000D01*
X66285053Y-86316000D01*
X66210415Y-86323351D01*
X66114657Y-86352399D01*
X66026405Y-86399571D01*
X65990354Y-86429157D01*
X65872000Y-86429157D01*
X65769998Y-86439203D01*
X65671917Y-86468956D01*
X65635682Y-86488324D01*
X65664893Y-86392026D01*
X65674843Y-86291000D01*
X65674843Y-85921000D01*
X65664893Y-85819974D01*
X65635425Y-85722830D01*
X65628959Y-85710733D01*
X65708830Y-85753425D01*
X65805974Y-85782893D01*
X65907000Y-85792843D01*
X66177000Y-85792843D01*
X66278026Y-85782893D01*
X66375170Y-85753425D01*
X66464698Y-85705571D01*
X66543170Y-85641170D01*
X66578599Y-85598000D01*
X66600921Y-85598000D01*
X66621888Y-85618967D01*
X66733426Y-85693494D01*
X66857360Y-85744829D01*
X66988927Y-85771000D01*
X67123073Y-85771000D01*
X67254640Y-85744829D01*
X67378574Y-85693494D01*
X67490112Y-85618967D01*
X67584967Y-85524112D01*
X67659494Y-85412574D01*
X67710829Y-85288640D01*
X67737000Y-85157073D01*
X67737000Y-85022927D01*
X67710829Y-84891360D01*
X67659494Y-84767426D01*
X67584967Y-84655888D01*
X67511079Y-84582000D01*
X67584967Y-84508112D01*
X67659494Y-84396574D01*
X67710829Y-84272640D01*
X67737000Y-84141073D01*
X67737000Y-84006927D01*
X67710829Y-83875360D01*
X67659494Y-83751426D01*
X67584967Y-83639888D01*
X67511079Y-83566000D01*
X67584967Y-83492112D01*
X67659494Y-83380574D01*
X67710829Y-83256640D01*
X67737000Y-83125073D01*
X67737000Y-82990927D01*
X67710829Y-82859360D01*
X67659494Y-82735426D01*
X67584967Y-82623888D01*
X67490112Y-82529033D01*
X67378574Y-82454506D01*
X67254640Y-82403171D01*
X67123073Y-82377000D01*
X66988927Y-82377000D01*
X66857360Y-82403171D01*
X66733426Y-82454506D01*
X66621888Y-82529033D01*
X66600921Y-82550000D01*
X66578599Y-82550000D01*
X66543170Y-82506830D01*
X66464698Y-82442429D01*
X66375170Y-82394575D01*
X66278026Y-82365107D01*
X66177000Y-82355157D01*
X65907000Y-82355157D01*
X65805974Y-82365107D01*
X65708830Y-82394575D01*
X65628959Y-82437267D01*
X65635425Y-82425170D01*
X65664893Y-82328026D01*
X65674843Y-82227000D01*
X65674843Y-81857000D01*
X65664893Y-81755974D01*
X65635425Y-81658830D01*
X65587571Y-81569302D01*
X65523170Y-81490830D01*
X65444698Y-81426429D01*
X65355170Y-81378575D01*
X65258026Y-81349107D01*
X65157000Y-81339157D01*
X64887000Y-81339157D01*
X64785974Y-81349107D01*
X64688830Y-81378575D01*
X64599302Y-81426429D01*
X64520830Y-81490830D01*
X64456429Y-81569302D01*
X64432843Y-81613428D01*
X64432843Y-81374000D01*
X64425487Y-81299311D01*
X64403701Y-81227492D01*
X64368322Y-81161304D01*
X64320711Y-81103289D01*
X64262696Y-81055678D01*
X64196508Y-81020299D01*
X64124689Y-80998513D01*
X64050000Y-80991157D01*
X63065982Y-80991157D01*
X63064829Y-80985360D01*
X63013494Y-80861426D01*
X62938967Y-80749888D01*
X62844112Y-80655033D01*
X62732574Y-80580506D01*
X62608640Y-80529171D01*
X62477073Y-80503000D01*
X62342927Y-80503000D01*
X62211360Y-80529171D01*
X62087426Y-80580506D01*
X61975888Y-80655033D01*
X61881033Y-80749888D01*
X61806506Y-80861426D01*
X61755171Y-80985360D01*
X61729000Y-81116927D01*
X61729000Y-81251073D01*
X61755171Y-81382640D01*
X61806506Y-81506574D01*
X61881033Y-81618112D01*
X61975888Y-81712967D01*
X62016724Y-81740253D01*
X60618435Y-83138543D01*
X60599052Y-83154450D01*
X60535571Y-83231803D01*
X60488399Y-83320056D01*
X60459351Y-83415814D01*
X60452790Y-83482429D01*
X60449543Y-83515398D01*
X60452000Y-83540342D01*
X60452001Y-86335046D01*
X60449543Y-86360000D01*
X60452000Y-86384945D01*
X60452001Y-87800579D01*
X58655181Y-89597399D01*
X58605462Y-89582317D01*
X58482000Y-89570157D01*
X57982000Y-89570157D01*
X57858538Y-89582317D01*
X57739821Y-89618329D01*
X57630411Y-89676810D01*
X57534512Y-89755512D01*
X57455810Y-89851411D01*
X57397329Y-89960821D01*
X57361317Y-90079538D01*
X57349157Y-90203000D01*
X57349157Y-91153000D01*
X57361317Y-91276462D01*
X57397329Y-91395179D01*
X57455810Y-91504589D01*
X57486512Y-91542000D01*
X57048000Y-91542000D01*
X57048000Y-76352000D01*
X59499506Y-76352000D01*
X59474512Y-76372512D01*
%TA.AperFunction,Conductor*%
D24*
G36*
X59474512Y-76372512D02*
G01*
X59395810Y-76468411D01*
X59337329Y-76577821D01*
X59301317Y-76696538D01*
X59290677Y-76804565D01*
X59237360Y-76815171D01*
X59113426Y-76866506D01*
X59093887Y-76879561D01*
X59076476Y-76865272D01*
X58986083Y-76816956D01*
X58888002Y-76787203D01*
X58786000Y-76777157D01*
X58506000Y-76777157D01*
X58403998Y-76787203D01*
X58305917Y-76816956D01*
X58215524Y-76865272D01*
X58136294Y-76930294D01*
X58071272Y-77009524D01*
X58022956Y-77099917D01*
X57993203Y-77197998D01*
X57983157Y-77300000D01*
X57983157Y-77640000D01*
X57993203Y-77742002D01*
X58022956Y-77840083D01*
X58071272Y-77930476D01*
X58136294Y-78009706D01*
X58215524Y-78074728D01*
X58305917Y-78123044D01*
X58403998Y-78152797D01*
X58506000Y-78162843D01*
X58786000Y-78162843D01*
X58888002Y-78152797D01*
X58986083Y-78123044D01*
X59076476Y-78074728D01*
X59093887Y-78060439D01*
X59113426Y-78073494D01*
X59237360Y-78124829D01*
X59290677Y-78135435D01*
X59301317Y-78243462D01*
X59337329Y-78362179D01*
X59395810Y-78471589D01*
X59474512Y-78567488D01*
X59570411Y-78646190D01*
X59679821Y-78704671D01*
X59798538Y-78740683D01*
X59921999Y-78752843D01*
X60572001Y-78752843D01*
X60695462Y-78740683D01*
X60814179Y-78704671D01*
X60923589Y-78646190D01*
X61019488Y-78567488D01*
X61098190Y-78471589D01*
X61156671Y-78362179D01*
X61192683Y-78243462D01*
X61204843Y-78120001D01*
X61204843Y-76819999D01*
X61192683Y-76696538D01*
X61156671Y-76577821D01*
X61098190Y-76468411D01*
X61019488Y-76372512D01*
X60994494Y-76352000D01*
X74122395Y-76352000D01*
X74102435Y-76417802D01*
X74093157Y-76512000D01*
X74093157Y-76632172D01*
X74092189Y-76642000D01*
X74093157Y-76651828D01*
X74093157Y-76772000D01*
X74096564Y-76806591D01*
X74028253Y-76750531D01*
X73944776Y-76705911D01*
X73854198Y-76678435D01*
X73760000Y-76669157D01*
X73560000Y-76669157D01*
X73465802Y-76678435D01*
X73375224Y-76705911D01*
X73291747Y-76750531D01*
X73218578Y-76810578D01*
X73158531Y-76883747D01*
X73152000Y-76895965D01*
X73145469Y-76883747D01*
X73085422Y-76810578D01*
X73012253Y-76750531D01*
X72928776Y-76705911D01*
X72838198Y-76678435D01*
X72744000Y-76669157D01*
X72544000Y-76669157D01*
X72449802Y-76678435D01*
X72359224Y-76705911D01*
X72275747Y-76750531D01*
X72202578Y-76810578D01*
X72142531Y-76883747D01*
X72097911Y-76967224D01*
X72097849Y-76967429D01*
X72004855Y-76874435D01*
X71988948Y-76855052D01*
X71911595Y-76791571D01*
X71823343Y-76744399D01*
X71727585Y-76715351D01*
X71652947Y-76708000D01*
X71652944Y-76708000D01*
X71628000Y-76705543D01*
X71603056Y-76708000D01*
X70830982Y-76708000D01*
X70806038Y-76705543D01*
X70781094Y-76708000D01*
X70781091Y-76708000D01*
X70706453Y-76715351D01*
X70610695Y-76744399D01*
X70589186Y-76755896D01*
X70522442Y-76791571D01*
X70472518Y-76832543D01*
X70445090Y-76855052D01*
X70429188Y-76874429D01*
X69617610Y-77686008D01*
X69548476Y-77629272D01*
X69458083Y-77580956D01*
X69360002Y-77551203D01*
X69258000Y-77541157D01*
X68918000Y-77541157D01*
X68815998Y-77551203D01*
X68717917Y-77580956D01*
X68639258Y-77623000D01*
X68520742Y-77623000D01*
X68442083Y-77580956D01*
X68344002Y-77551203D01*
X68242000Y-77541157D01*
X67902000Y-77541157D01*
X67799998Y-77551203D01*
X67701917Y-77580956D01*
X67623258Y-77623000D01*
X67504742Y-77623000D01*
X67426083Y-77580956D01*
X67328002Y-77551203D01*
X67226000Y-77541157D01*
X66886000Y-77541157D01*
X66783998Y-77551203D01*
X66685917Y-77580956D01*
X66595524Y-77629272D01*
X66548000Y-77668274D01*
X66500476Y-77629272D01*
X66410083Y-77580956D01*
X66312002Y-77551203D01*
X66210000Y-77541157D01*
X65870000Y-77541157D01*
X65767998Y-77551203D01*
X65669917Y-77580956D01*
X65579524Y-77629272D01*
X65500294Y-77694294D01*
X65435272Y-77773524D01*
X65386956Y-77863917D01*
X65357203Y-77961998D01*
X65347157Y-78064000D01*
X65347157Y-78075186D01*
X65268356Y-78153987D01*
X65246184Y-78172183D01*
X65203617Y-78224052D01*
X65173579Y-78260653D01*
X65119629Y-78361586D01*
X65086407Y-78471105D01*
X65075189Y-78585000D01*
X65078000Y-78613540D01*
X65078000Y-79082261D01*
X65055506Y-79115926D01*
X65004171Y-79239860D01*
X64978000Y-79371427D01*
X64978000Y-79505573D01*
X65004171Y-79637140D01*
X65055506Y-79761074D01*
X65130033Y-79872612D01*
X65224888Y-79967467D01*
X65336426Y-80041994D01*
X65460360Y-80093329D01*
X65591927Y-80119500D01*
X65726073Y-80119500D01*
X65857640Y-80093329D01*
X65981574Y-80041994D01*
X66093112Y-79967467D01*
X66187967Y-79872612D01*
X66262494Y-79761074D01*
X66288708Y-79697787D01*
X66304388Y-79713467D01*
X66415926Y-79787994D01*
X66539860Y-79839329D01*
X66671427Y-79865500D01*
X66805573Y-79865500D01*
X66937140Y-79839329D01*
X67061074Y-79787994D01*
X67172612Y-79713467D01*
X67267467Y-79618612D01*
X67341994Y-79507074D01*
X67393329Y-79383140D01*
X67401228Y-79343430D01*
X67446645Y-79298013D01*
X67468817Y-79279817D01*
X67541421Y-79191348D01*
X67595371Y-79090415D01*
X67628593Y-78980896D01*
X67637000Y-78895540D01*
X67639811Y-78867000D01*
X67637000Y-78838460D01*
X67637000Y-78792345D01*
X67701917Y-78827044D01*
X67799998Y-78856797D01*
X67902000Y-78866843D01*
X68242000Y-78866843D01*
X68344002Y-78856797D01*
X68442083Y-78827044D01*
X68520742Y-78785000D01*
X68639258Y-78785000D01*
X68717917Y-78827044D01*
X68815998Y-78856797D01*
X68918000Y-78866843D01*
X69258000Y-78866843D01*
X69360002Y-78856797D01*
X69458083Y-78827044D01*
X69548476Y-78778728D01*
X69619786Y-78720206D01*
X70135269Y-79235690D01*
X70135001Y-79238413D01*
X70135000Y-80803000D01*
X69885742Y-80803000D01*
X69945494Y-80713574D01*
X69996829Y-80589640D01*
X70023000Y-80458073D01*
X70023000Y-80323927D01*
X69996829Y-80192360D01*
X69945494Y-80068426D01*
X69870967Y-79956888D01*
X69776112Y-79862033D01*
X69664574Y-79787506D01*
X69540640Y-79736171D01*
X69409073Y-79710000D01*
X69274927Y-79710000D01*
X69143360Y-79736171D01*
X69019426Y-79787506D01*
X68907888Y-79862033D01*
X68813033Y-79956888D01*
X68738506Y-80068426D01*
X68687171Y-80192360D01*
X68661000Y-80323927D01*
X68661000Y-80458073D01*
X68687171Y-80589640D01*
X68738506Y-80713574D01*
X68798258Y-80803000D01*
X68570413Y-80803000D01*
X68493866Y-80810539D01*
X68395658Y-80840331D01*
X68305148Y-80888709D01*
X68225815Y-80953815D01*
X68160709Y-81033148D01*
X68112331Y-81123658D01*
X68099086Y-81167321D01*
X68016640Y-81133171D01*
X67885073Y-81107000D01*
X67750927Y-81107000D01*
X67619360Y-81133171D01*
X67495426Y-81184506D01*
X67383888Y-81259033D01*
X67289033Y-81353888D01*
X67214506Y-81465426D01*
X67163171Y-81589360D01*
X67137000Y-81720927D01*
X67137000Y-81855073D01*
X67163171Y-81986640D01*
X67214506Y-82110574D01*
X67289033Y-82222112D01*
X67383888Y-82316967D01*
X67495426Y-82391494D01*
X67619360Y-82442829D01*
X67750927Y-82469000D01*
X67885073Y-82469000D01*
X68016640Y-82442829D01*
X68081536Y-82415948D01*
X68082539Y-82426134D01*
X68112331Y-82524342D01*
X68138873Y-82574000D01*
X68112331Y-82623658D01*
X68082539Y-82721866D01*
X68072480Y-82824000D01*
X68082539Y-82926134D01*
X68112331Y-83024342D01*
X68138873Y-83074000D01*
X68112331Y-83123658D01*
X68082539Y-83221866D01*
X68072480Y-83324000D01*
X68082539Y-83426134D01*
X68112331Y-83524342D01*
X68138873Y-83574000D01*
X68112331Y-83623658D01*
X68082539Y-83721866D01*
X68072480Y-83824000D01*
X68082539Y-83926134D01*
X68112331Y-84024342D01*
X68138873Y-84074000D01*
X68112331Y-84123658D01*
X68082539Y-84221866D01*
X68072480Y-84324000D01*
X68082539Y-84426134D01*
X68112331Y-84524342D01*
X68138873Y-84574000D01*
X68112331Y-84623658D01*
X68082539Y-84721866D01*
X68072480Y-84824000D01*
X68082539Y-84926134D01*
X68112331Y-85024342D01*
X68138873Y-85074000D01*
X68112331Y-85123658D01*
X68082539Y-85221866D01*
X68072480Y-85324000D01*
X68082539Y-85426134D01*
X68112331Y-85524342D01*
X68138873Y-85574000D01*
X68112331Y-85623658D01*
X68082539Y-85721866D01*
X68072480Y-85824000D01*
X68082539Y-85926134D01*
X68112331Y-86024342D01*
X68160709Y-86114852D01*
X68225815Y-86194185D01*
X68305148Y-86259291D01*
X68395658Y-86307669D01*
X68423121Y-86316000D01*
X66334944Y-86316000D01*
X66310000Y-86313543D01*
X66285056Y-86316000D01*
X66285053Y-86316000D01*
X66210415Y-86323351D01*
X66114657Y-86352399D01*
X66026405Y-86399571D01*
X65990354Y-86429157D01*
X65872000Y-86429157D01*
X65769998Y-86439203D01*
X65671917Y-86468956D01*
X65635682Y-86488324D01*
X65664893Y-86392026D01*
X65674843Y-86291000D01*
X65674843Y-85921000D01*
X65664893Y-85819974D01*
X65635425Y-85722830D01*
X65628959Y-85710733D01*
X65708830Y-85753425D01*
X65805974Y-85782893D01*
X65907000Y-85792843D01*
X66177000Y-85792843D01*
X66278026Y-85782893D01*
X66375170Y-85753425D01*
X66464698Y-85705571D01*
X66543170Y-85641170D01*
X66578599Y-85598000D01*
X66600921Y-85598000D01*
X66621888Y-85618967D01*
X66733426Y-85693494D01*
X66857360Y-85744829D01*
X66988927Y-85771000D01*
X67123073Y-85771000D01*
X67254640Y-85744829D01*
X67378574Y-85693494D01*
X67490112Y-85618967D01*
X67584967Y-85524112D01*
X67659494Y-85412574D01*
X67710829Y-85288640D01*
X67737000Y-85157073D01*
X67737000Y-85022927D01*
X67710829Y-84891360D01*
X67659494Y-84767426D01*
X67584967Y-84655888D01*
X67511079Y-84582000D01*
X67584967Y-84508112D01*
X67659494Y-84396574D01*
X67710829Y-84272640D01*
X67737000Y-84141073D01*
X67737000Y-84006927D01*
X67710829Y-83875360D01*
X67659494Y-83751426D01*
X67584967Y-83639888D01*
X67511079Y-83566000D01*
X67584967Y-83492112D01*
X67659494Y-83380574D01*
X67710829Y-83256640D01*
X67737000Y-83125073D01*
X67737000Y-82990927D01*
X67710829Y-82859360D01*
X67659494Y-82735426D01*
X67584967Y-82623888D01*
X67490112Y-82529033D01*
X67378574Y-82454506D01*
X67254640Y-82403171D01*
X67123073Y-82377000D01*
X66988927Y-82377000D01*
X66857360Y-82403171D01*
X66733426Y-82454506D01*
X66621888Y-82529033D01*
X66600921Y-82550000D01*
X66578599Y-82550000D01*
X66543170Y-82506830D01*
X66464698Y-82442429D01*
X66375170Y-82394575D01*
X66278026Y-82365107D01*
X66177000Y-82355157D01*
X65907000Y-82355157D01*
X65805974Y-82365107D01*
X65708830Y-82394575D01*
X65628959Y-82437267D01*
X65635425Y-82425170D01*
X65664893Y-82328026D01*
X65674843Y-82227000D01*
X65674843Y-81857000D01*
X65664893Y-81755974D01*
X65635425Y-81658830D01*
X65587571Y-81569302D01*
X65523170Y-81490830D01*
X65444698Y-81426429D01*
X65355170Y-81378575D01*
X65258026Y-81349107D01*
X65157000Y-81339157D01*
X64887000Y-81339157D01*
X64785974Y-81349107D01*
X64688830Y-81378575D01*
X64599302Y-81426429D01*
X64520830Y-81490830D01*
X64456429Y-81569302D01*
X64432843Y-81613428D01*
X64432843Y-81374000D01*
X64425487Y-81299311D01*
X64403701Y-81227492D01*
X64368322Y-81161304D01*
X64320711Y-81103289D01*
X64262696Y-81055678D01*
X64196508Y-81020299D01*
X64124689Y-80998513D01*
X64050000Y-80991157D01*
X63065982Y-80991157D01*
X63064829Y-80985360D01*
X63013494Y-80861426D01*
X62938967Y-80749888D01*
X62844112Y-80655033D01*
X62732574Y-80580506D01*
X62608640Y-80529171D01*
X62477073Y-80503000D01*
X62342927Y-80503000D01*
X62211360Y-80529171D01*
X62087426Y-80580506D01*
X61975888Y-80655033D01*
X61881033Y-80749888D01*
X61806506Y-80861426D01*
X61755171Y-80985360D01*
X61729000Y-81116927D01*
X61729000Y-81251073D01*
X61755171Y-81382640D01*
X61806506Y-81506574D01*
X61881033Y-81618112D01*
X61975888Y-81712967D01*
X62016724Y-81740253D01*
X60618435Y-83138543D01*
X60599052Y-83154450D01*
X60535571Y-83231803D01*
X60488399Y-83320056D01*
X60459351Y-83415814D01*
X60452790Y-83482429D01*
X60449543Y-83515398D01*
X60452000Y-83540342D01*
X60452001Y-86335046D01*
X60449543Y-86360000D01*
X60452000Y-86384945D01*
X60452001Y-87800579D01*
X58655181Y-89597399D01*
X58605462Y-89582317D01*
X58482000Y-89570157D01*
X57982000Y-89570157D01*
X57858538Y-89582317D01*
X57739821Y-89618329D01*
X57630411Y-89676810D01*
X57534512Y-89755512D01*
X57455810Y-89851411D01*
X57397329Y-89960821D01*
X57361317Y-90079538D01*
X57349157Y-90203000D01*
X57349157Y-91153000D01*
X57361317Y-91276462D01*
X57397329Y-91395179D01*
X57455810Y-91504589D01*
X57486512Y-91542000D01*
X57048000Y-91542000D01*
X57048000Y-76352000D01*
X59499506Y-76352000D01*
X59474512Y-76372512D01*
G37*
%TD.AperFunction*%
D21*
X74172331Y-89084341D02*
X74220709Y-89174852D01*
X74285815Y-89254185D01*
X74365148Y-89319291D01*
X74455658Y-89367669D01*
X74553866Y-89397461D01*
X74656000Y-89407520D01*
X74727754Y-89400453D01*
X74731571Y-89407595D01*
X74795052Y-89484948D01*
X74814435Y-89500855D01*
X74852486Y-89538906D01*
X74800830Y-89554575D01*
X74711302Y-89602429D01*
X74657191Y-89646837D01*
X74628476Y-89623272D01*
X74538083Y-89574956D01*
X74440002Y-89545203D01*
X74338000Y-89535157D01*
X74223577Y-89535157D01*
X74164000Y-89475580D01*
X74164000Y-89056878D01*
X74172331Y-89084341D01*
%TA.AperFunction,Conductor*%
D24*
G36*
X74172331Y-89084341D02*
G01*
X74220709Y-89174852D01*
X74285815Y-89254185D01*
X74365148Y-89319291D01*
X74455658Y-89367669D01*
X74553866Y-89397461D01*
X74656000Y-89407520D01*
X74727754Y-89400453D01*
X74731571Y-89407595D01*
X74795052Y-89484948D01*
X74814435Y-89500855D01*
X74852486Y-89538906D01*
X74800830Y-89554575D01*
X74711302Y-89602429D01*
X74657191Y-89646837D01*
X74628476Y-89623272D01*
X74538083Y-89574956D01*
X74440002Y-89545203D01*
X74338000Y-89535157D01*
X74223577Y-89535157D01*
X74164000Y-89475580D01*
X74164000Y-89056878D01*
X74172331Y-89084341D01*
G37*
%TD.AperFunction*%
D21*
X74150001Y-86549592D02*
X74150000Y-86993246D01*
X74148000Y-87013554D01*
X74148000Y-87191121D01*
X74139669Y-87163658D01*
X74091291Y-87073148D01*
X74026185Y-86993815D01*
X73946852Y-86928709D01*
X73856342Y-86880331D01*
X73758134Y-86850539D01*
X73656000Y-86840480D01*
X73553867Y-86850539D01*
X73455659Y-86880331D01*
X73406001Y-86906874D01*
X73356342Y-86880331D01*
X73258134Y-86850539D01*
X73156000Y-86840480D01*
X73053867Y-86850539D01*
X72955659Y-86880331D01*
X72906001Y-86906874D01*
X72856342Y-86880331D01*
X72758134Y-86850539D01*
X72656000Y-86840480D01*
X72553867Y-86850539D01*
X72455659Y-86880331D01*
X72406001Y-86906874D01*
X72356342Y-86880331D01*
X72258134Y-86850539D01*
X72156102Y-86840490D01*
X72304369Y-86692223D01*
X72304374Y-86692217D01*
X72341216Y-86655375D01*
X72360528Y-86639526D01*
X72423760Y-86562478D01*
X72470746Y-86474574D01*
X72499679Y-86379192D01*
X72507001Y-86304853D01*
X72507001Y-86304846D01*
X72509448Y-86280000D01*
X72507001Y-86255154D01*
X72507001Y-86223001D01*
X73823410Y-86223001D01*
X74150001Y-86549592D01*
%TA.AperFunction,Conductor*%
D24*
G36*
X74150001Y-86549592D02*
G01*
X74150000Y-86993246D01*
X74148000Y-87013554D01*
X74148000Y-87191121D01*
X74139669Y-87163658D01*
X74091291Y-87073148D01*
X74026185Y-86993815D01*
X73946852Y-86928709D01*
X73856342Y-86880331D01*
X73758134Y-86850539D01*
X73656000Y-86840480D01*
X73553867Y-86850539D01*
X73455659Y-86880331D01*
X73406001Y-86906874D01*
X73356342Y-86880331D01*
X73258134Y-86850539D01*
X73156000Y-86840480D01*
X73053867Y-86850539D01*
X72955659Y-86880331D01*
X72906001Y-86906874D01*
X72856342Y-86880331D01*
X72758134Y-86850539D01*
X72656000Y-86840480D01*
X72553867Y-86850539D01*
X72455659Y-86880331D01*
X72406001Y-86906874D01*
X72356342Y-86880331D01*
X72258134Y-86850539D01*
X72156102Y-86840490D01*
X72304369Y-86692223D01*
X72304374Y-86692217D01*
X72341216Y-86655375D01*
X72360528Y-86639526D01*
X72423760Y-86562478D01*
X72470746Y-86474574D01*
X72499679Y-86379192D01*
X72507001Y-86304853D01*
X72507001Y-86304846D01*
X72509448Y-86280000D01*
X72507001Y-86255154D01*
X72507001Y-86223001D01*
X73823410Y-86223001D01*
X74150001Y-86549592D01*
G37*
%TD.AperFunction*%
D21*
X71172331Y-80984341D02*
X71220709Y-81074852D01*
X71285815Y-81154185D01*
X71365148Y-81219291D01*
X71455658Y-81267669D01*
X71553866Y-81297461D01*
X71648001Y-81306732D01*
X71648001Y-81529046D01*
X71645543Y-81554000D01*
X71652897Y-81628657D01*
X71655352Y-81653585D01*
X71677032Y-81725053D01*
X71684400Y-81749343D01*
X71709000Y-81795367D01*
X71709000Y-81855073D01*
X71735171Y-81986640D01*
X71786506Y-82110574D01*
X71861033Y-82222112D01*
X71955888Y-82316967D01*
X72067426Y-82391494D01*
X72191360Y-82442829D01*
X72322927Y-82469000D01*
X72344000Y-82469000D01*
X72344000Y-82490073D01*
X72370171Y-82621640D01*
X72421506Y-82745574D01*
X72496033Y-82857112D01*
X72590888Y-82951967D01*
X72702426Y-83026494D01*
X72826360Y-83077829D01*
X72957927Y-83104000D01*
X73092073Y-83104000D01*
X73223640Y-83077829D01*
X73347574Y-83026494D01*
X73459112Y-82951967D01*
X73553967Y-82857112D01*
X73628494Y-82745574D01*
X73679829Y-82621640D01*
X73706000Y-82490073D01*
X73706000Y-82438952D01*
X73715360Y-82442829D01*
X73776824Y-82455055D01*
X73767171Y-82478360D01*
X73741000Y-82609927D01*
X73741000Y-82744073D01*
X73767171Y-82875640D01*
X73818506Y-82999574D01*
X73893033Y-83111112D01*
X73987888Y-83205967D01*
X74099426Y-83280494D01*
X74223360Y-83331829D01*
X74354927Y-83358000D01*
X74489073Y-83358000D01*
X74620640Y-83331829D01*
X74744574Y-83280494D01*
X74856112Y-83205967D01*
X74878190Y-83183889D01*
X74941547Y-83177649D01*
X75037305Y-83148601D01*
X75125557Y-83101429D01*
X75202910Y-83037948D01*
X75218817Y-83018565D01*
X76151831Y-82085552D01*
X76151835Y-82085547D01*
X76452684Y-81784699D01*
X76495658Y-81807669D01*
X76549492Y-81824000D01*
X76495658Y-81840331D01*
X76405148Y-81888709D01*
X76325815Y-81953815D01*
X76260709Y-82033148D01*
X76212331Y-82123658D01*
X76182539Y-82221866D01*
X76172480Y-82324000D01*
X76182539Y-82426134D01*
X76212331Y-82524342D01*
X76238873Y-82574000D01*
X76212331Y-82623658D01*
X76199594Y-82665645D01*
X76089273Y-82643700D01*
X75955127Y-82643700D01*
X75823560Y-82669871D01*
X75699626Y-82721206D01*
X75588088Y-82795733D01*
X75493233Y-82890588D01*
X75418706Y-83002126D01*
X75367371Y-83126060D01*
X75341200Y-83257627D01*
X75341200Y-83391773D01*
X75367371Y-83523340D01*
X75418706Y-83647274D01*
X75478371Y-83736570D01*
X75384888Y-83799033D01*
X75290033Y-83893888D01*
X75215506Y-84005426D01*
X75164171Y-84129360D01*
X75138000Y-84260927D01*
X75138000Y-84395073D01*
X75164171Y-84526640D01*
X75215506Y-84650574D01*
X75290033Y-84762112D01*
X75384888Y-84856967D01*
X75496426Y-84931494D01*
X75572488Y-84963000D01*
X75496426Y-84994506D01*
X75384888Y-85069033D01*
X75290033Y-85163888D01*
X75215506Y-85275426D01*
X75164171Y-85399360D01*
X75138000Y-85530927D01*
X75138000Y-85665073D01*
X75164171Y-85796640D01*
X75215506Y-85920574D01*
X75290033Y-86032112D01*
X75384888Y-86126967D01*
X75496426Y-86201494D01*
X75620360Y-86252829D01*
X75751927Y-86279000D01*
X75818599Y-86279000D01*
X75849657Y-86295601D01*
X75945415Y-86324649D01*
X76020053Y-86332000D01*
X76020055Y-86332000D01*
X76044999Y-86334457D01*
X76069943Y-86332000D01*
X76173268Y-86332000D01*
X76182539Y-86426134D01*
X76212331Y-86524342D01*
X76238873Y-86574000D01*
X76212331Y-86623658D01*
X76182539Y-86721866D01*
X76172480Y-86824000D01*
X76174280Y-86842280D01*
X76156000Y-86840480D01*
X76053867Y-86850539D01*
X75955659Y-86880331D01*
X75906001Y-86906874D01*
X75856342Y-86880331D01*
X75758134Y-86850539D01*
X75656000Y-86840480D01*
X75553867Y-86850539D01*
X75455659Y-86880331D01*
X75406001Y-86906874D01*
X75356342Y-86880331D01*
X75258134Y-86850539D01*
X75162000Y-86841071D01*
X75162000Y-86364854D01*
X75164448Y-86340000D01*
X75154678Y-86240807D01*
X75125745Y-86145425D01*
X75120416Y-86135456D01*
X75078759Y-86057521D01*
X75015527Y-85980473D01*
X74996220Y-85964628D01*
X74408377Y-85376786D01*
X74392528Y-85357474D01*
X74315480Y-85294242D01*
X74227576Y-85247256D01*
X74132194Y-85218323D01*
X74057855Y-85211001D01*
X74057847Y-85211001D01*
X74033001Y-85208554D01*
X74008155Y-85211001D01*
X72509001Y-85211001D01*
X72509001Y-83455945D01*
X72511458Y-83431001D01*
X72509001Y-83406054D01*
X72501650Y-83331416D01*
X72472602Y-83235658D01*
X72425430Y-83147406D01*
X72361949Y-83070053D01*
X72342566Y-83054146D01*
X71164000Y-81875580D01*
X71164000Y-80956878D01*
X71172331Y-80984341D01*
%TA.AperFunction,Conductor*%
D24*
G36*
X71172331Y-80984341D02*
G01*
X71220709Y-81074852D01*
X71285815Y-81154185D01*
X71365148Y-81219291D01*
X71455658Y-81267669D01*
X71553866Y-81297461D01*
X71648001Y-81306732D01*
X71648001Y-81529046D01*
X71645543Y-81554000D01*
X71652897Y-81628657D01*
X71655352Y-81653585D01*
X71677032Y-81725053D01*
X71684400Y-81749343D01*
X71709000Y-81795367D01*
X71709000Y-81855073D01*
X71735171Y-81986640D01*
X71786506Y-82110574D01*
X71861033Y-82222112D01*
X71955888Y-82316967D01*
X72067426Y-82391494D01*
X72191360Y-82442829D01*
X72322927Y-82469000D01*
X72344000Y-82469000D01*
X72344000Y-82490073D01*
X72370171Y-82621640D01*
X72421506Y-82745574D01*
X72496033Y-82857112D01*
X72590888Y-82951967D01*
X72702426Y-83026494D01*
X72826360Y-83077829D01*
X72957927Y-83104000D01*
X73092073Y-83104000D01*
X73223640Y-83077829D01*
X73347574Y-83026494D01*
X73459112Y-82951967D01*
X73553967Y-82857112D01*
X73628494Y-82745574D01*
X73679829Y-82621640D01*
X73706000Y-82490073D01*
X73706000Y-82438952D01*
X73715360Y-82442829D01*
X73776824Y-82455055D01*
X73767171Y-82478360D01*
X73741000Y-82609927D01*
X73741000Y-82744073D01*
X73767171Y-82875640D01*
X73818506Y-82999574D01*
X73893033Y-83111112D01*
X73987888Y-83205967D01*
X74099426Y-83280494D01*
X74223360Y-83331829D01*
X74354927Y-83358000D01*
X74489073Y-83358000D01*
X74620640Y-83331829D01*
X74744574Y-83280494D01*
X74856112Y-83205967D01*
X74878190Y-83183889D01*
X74941547Y-83177649D01*
X75037305Y-83148601D01*
X75125557Y-83101429D01*
X75202910Y-83037948D01*
X75218817Y-83018565D01*
X76151831Y-82085552D01*
X76151835Y-82085547D01*
X76452684Y-81784699D01*
X76495658Y-81807669D01*
X76549492Y-81824000D01*
X76495658Y-81840331D01*
X76405148Y-81888709D01*
X76325815Y-81953815D01*
X76260709Y-82033148D01*
X76212331Y-82123658D01*
X76182539Y-82221866D01*
X76172480Y-82324000D01*
X76182539Y-82426134D01*
X76212331Y-82524342D01*
X76238873Y-82574000D01*
X76212331Y-82623658D01*
X76199594Y-82665645D01*
X76089273Y-82643700D01*
X75955127Y-82643700D01*
X75823560Y-82669871D01*
X75699626Y-82721206D01*
X75588088Y-82795733D01*
X75493233Y-82890588D01*
X75418706Y-83002126D01*
X75367371Y-83126060D01*
X75341200Y-83257627D01*
X75341200Y-83391773D01*
X75367371Y-83523340D01*
X75418706Y-83647274D01*
X75478371Y-83736570D01*
X75384888Y-83799033D01*
X75290033Y-83893888D01*
X75215506Y-84005426D01*
X75164171Y-84129360D01*
X75138000Y-84260927D01*
X75138000Y-84395073D01*
X75164171Y-84526640D01*
X75215506Y-84650574D01*
X75290033Y-84762112D01*
X75384888Y-84856967D01*
X75496426Y-84931494D01*
X75572488Y-84963000D01*
X75496426Y-84994506D01*
X75384888Y-85069033D01*
X75290033Y-85163888D01*
X75215506Y-85275426D01*
X75164171Y-85399360D01*
X75138000Y-85530927D01*
X75138000Y-85665073D01*
X75164171Y-85796640D01*
X75215506Y-85920574D01*
X75290033Y-86032112D01*
X75384888Y-86126967D01*
X75496426Y-86201494D01*
X75620360Y-86252829D01*
X75751927Y-86279000D01*
X75818599Y-86279000D01*
X75849657Y-86295601D01*
X75945415Y-86324649D01*
X76020053Y-86332000D01*
X76020055Y-86332000D01*
X76044999Y-86334457D01*
X76069943Y-86332000D01*
X76173268Y-86332000D01*
X76182539Y-86426134D01*
X76212331Y-86524342D01*
X76238873Y-86574000D01*
X76212331Y-86623658D01*
X76182539Y-86721866D01*
X76172480Y-86824000D01*
X76174280Y-86842280D01*
X76156000Y-86840480D01*
X76053867Y-86850539D01*
X75955659Y-86880331D01*
X75906001Y-86906874D01*
X75856342Y-86880331D01*
X75758134Y-86850539D01*
X75656000Y-86840480D01*
X75553867Y-86850539D01*
X75455659Y-86880331D01*
X75406001Y-86906874D01*
X75356342Y-86880331D01*
X75258134Y-86850539D01*
X75162000Y-86841071D01*
X75162000Y-86364854D01*
X75164448Y-86340000D01*
X75154678Y-86240807D01*
X75125745Y-86145425D01*
X75120416Y-86135456D01*
X75078759Y-86057521D01*
X75015527Y-85980473D01*
X74996220Y-85964628D01*
X74408377Y-85376786D01*
X74392528Y-85357474D01*
X74315480Y-85294242D01*
X74227576Y-85247256D01*
X74132194Y-85218323D01*
X74057855Y-85211001D01*
X74057847Y-85211001D01*
X74033001Y-85208554D01*
X74008155Y-85211001D01*
X72509001Y-85211001D01*
X72509001Y-83455945D01*
X72511458Y-83431001D01*
X72509001Y-83406054D01*
X72501650Y-83331416D01*
X72472602Y-83235658D01*
X72425430Y-83147406D01*
X72361949Y-83070053D01*
X72342566Y-83054146D01*
X71164000Y-81875580D01*
X71164000Y-80956878D01*
X71172331Y-80984341D01*
G37*
%TD.AperFunction*%
D21*
X71493002Y-85600043D02*
X71493001Y-85600053D01*
X71493001Y-85712453D01*
X71492553Y-85717001D01*
X71493001Y-85721549D01*
X71493001Y-85741948D01*
X71495001Y-85762256D01*
X71495002Y-86070407D01*
X71249409Y-86316000D01*
X70744444Y-86316000D01*
X70719500Y-86313543D01*
X70694556Y-86316000D01*
X70288879Y-86316000D01*
X70316342Y-86307669D01*
X70406852Y-86259291D01*
X70486185Y-86194185D01*
X70551291Y-86114852D01*
X70599669Y-86024342D01*
X70629461Y-85926134D01*
X70639520Y-85824000D01*
X70629461Y-85721866D01*
X70599669Y-85623658D01*
X70573127Y-85574000D01*
X70599669Y-85524342D01*
X70629461Y-85426134D01*
X70638632Y-85333016D01*
X70648944Y-85332000D01*
X70648947Y-85332000D01*
X70723585Y-85324649D01*
X70819343Y-85295601D01*
X70907595Y-85248429D01*
X70984948Y-85184948D01*
X71000855Y-85165565D01*
X71411421Y-84755000D01*
X71441073Y-84755000D01*
X71493002Y-84744670D01*
X71493002Y-85600043D01*
%TA.AperFunction,Conductor*%
D24*
G36*
X71493002Y-85600043D02*
G01*
X71493001Y-85600053D01*
X71493001Y-85712453D01*
X71492553Y-85717001D01*
X71493001Y-85721549D01*
X71493001Y-85741948D01*
X71495001Y-85762256D01*
X71495002Y-86070407D01*
X71249409Y-86316000D01*
X70744444Y-86316000D01*
X70719500Y-86313543D01*
X70694556Y-86316000D01*
X70288879Y-86316000D01*
X70316342Y-86307669D01*
X70406852Y-86259291D01*
X70486185Y-86194185D01*
X70551291Y-86114852D01*
X70599669Y-86024342D01*
X70629461Y-85926134D01*
X70639520Y-85824000D01*
X70629461Y-85721866D01*
X70599669Y-85623658D01*
X70573127Y-85574000D01*
X70599669Y-85524342D01*
X70629461Y-85426134D01*
X70638632Y-85333016D01*
X70648944Y-85332000D01*
X70648947Y-85332000D01*
X70723585Y-85324649D01*
X70819343Y-85295601D01*
X70907595Y-85248429D01*
X70984948Y-85184948D01*
X71000855Y-85165565D01*
X71411421Y-84755000D01*
X71441073Y-84755000D01*
X71493002Y-84744670D01*
X71493002Y-85600043D01*
G37*
%TD.AperFunction*%
D21*
X62507157Y-82832226D02*
X62440657Y-82852399D01*
X62352405Y-82899571D01*
X62275052Y-82963052D01*
X62259145Y-82982435D01*
X62221434Y-83020146D01*
X62202051Y-83036053D01*
X62138570Y-83113406D01*
X62091398Y-83201659D01*
X62062350Y-83297417D01*
X62054999Y-83372054D01*
X62052542Y-83397001D01*
X62054999Y-83421946D01*
X62055000Y-84210647D01*
X62052542Y-84235601D01*
X62060219Y-84313543D01*
X62062351Y-84335186D01*
X62069149Y-84357595D01*
X62091399Y-84430944D01*
X62138570Y-84519196D01*
X62184079Y-84574649D01*
X62202052Y-84596549D01*
X62221429Y-84612451D01*
X62274543Y-84665565D01*
X62290450Y-84684948D01*
X62367803Y-84748429D01*
X62456055Y-84795601D01*
X62507157Y-84811103D01*
X62507157Y-84974000D01*
X62514513Y-85048689D01*
X62522191Y-85074000D01*
X62514513Y-85099311D01*
X62507157Y-85174000D01*
X62507157Y-85474000D01*
X62514513Y-85548689D01*
X62522191Y-85574000D01*
X62514513Y-85599311D01*
X62507157Y-85674000D01*
X62507157Y-85828999D01*
X61468000Y-85828999D01*
X61468000Y-83725818D01*
X62507157Y-82686662D01*
X62507157Y-82832226D01*
%TA.AperFunction,Conductor*%
D24*
G36*
X62507157Y-82832226D02*
G01*
X62440657Y-82852399D01*
X62352405Y-82899571D01*
X62275052Y-82963052D01*
X62259145Y-82982435D01*
X62221434Y-83020146D01*
X62202051Y-83036053D01*
X62138570Y-83113406D01*
X62091398Y-83201659D01*
X62062350Y-83297417D01*
X62054999Y-83372054D01*
X62052542Y-83397001D01*
X62054999Y-83421946D01*
X62055000Y-84210647D01*
X62052542Y-84235601D01*
X62060219Y-84313543D01*
X62062351Y-84335186D01*
X62069149Y-84357595D01*
X62091399Y-84430944D01*
X62138570Y-84519196D01*
X62184079Y-84574649D01*
X62202052Y-84596549D01*
X62221429Y-84612451D01*
X62274543Y-84665565D01*
X62290450Y-84684948D01*
X62367803Y-84748429D01*
X62456055Y-84795601D01*
X62507157Y-84811103D01*
X62507157Y-84974000D01*
X62514513Y-85048689D01*
X62522191Y-85074000D01*
X62514513Y-85099311D01*
X62507157Y-85174000D01*
X62507157Y-85474000D01*
X62514513Y-85548689D01*
X62522191Y-85574000D01*
X62514513Y-85599311D01*
X62507157Y-85674000D01*
X62507157Y-85828999D01*
X61468000Y-85828999D01*
X61468000Y-83725818D01*
X62507157Y-82686662D01*
X62507157Y-82832226D01*
G37*
%TD.AperFunction*%
D21*
X71254924Y-83403344D02*
X71175360Y-83419171D01*
X71051426Y-83470506D01*
X70939888Y-83545033D01*
X70845033Y-83639888D01*
X70770506Y-83751426D01*
X70719171Y-83875360D01*
X70693000Y-84006927D01*
X70693000Y-84036579D01*
X70601124Y-84128455D01*
X70599669Y-84123658D01*
X70573127Y-84074000D01*
X70599669Y-84024342D01*
X70629461Y-83926134D01*
X70639520Y-83824000D01*
X70629461Y-83721866D01*
X70599669Y-83623658D01*
X70573127Y-83574000D01*
X70599669Y-83524342D01*
X70629461Y-83426134D01*
X70639520Y-83324000D01*
X70629461Y-83221866D01*
X70599669Y-83123658D01*
X70573127Y-83074000D01*
X70599669Y-83024342D01*
X70629461Y-82926134D01*
X70639520Y-82824000D01*
X70635581Y-82784001D01*
X71254924Y-83403344D01*
%TA.AperFunction,Conductor*%
D24*
G36*
X71254924Y-83403344D02*
G01*
X71175360Y-83419171D01*
X71051426Y-83470506D01*
X70939888Y-83545033D01*
X70845033Y-83639888D01*
X70770506Y-83751426D01*
X70719171Y-83875360D01*
X70693000Y-84006927D01*
X70693000Y-84036579D01*
X70601124Y-84128455D01*
X70599669Y-84123658D01*
X70573127Y-84074000D01*
X70599669Y-84024342D01*
X70629461Y-83926134D01*
X70639520Y-83824000D01*
X70629461Y-83721866D01*
X70599669Y-83623658D01*
X70573127Y-83574000D01*
X70599669Y-83524342D01*
X70629461Y-83426134D01*
X70639520Y-83324000D01*
X70629461Y-83221866D01*
X70599669Y-83123658D01*
X70573127Y-83074000D01*
X70599669Y-83024342D01*
X70629461Y-82926134D01*
X70639520Y-82824000D01*
X70635581Y-82784001D01*
X71254924Y-83403344D01*
G37*
%TD.AperFunction*%
D21*
X71508999Y-77815419D02*
X71508999Y-77834055D01*
X71507281Y-77851500D01*
X71432426Y-77882506D01*
X71320888Y-77957033D01*
X71226033Y-78051888D01*
X71151506Y-78163426D01*
X71100171Y-78287360D01*
X71074000Y-78418927D01*
X71074000Y-78553073D01*
X71100171Y-78684640D01*
X71148001Y-78800112D01*
X71148001Y-78909906D01*
X71127601Y-78842657D01*
X71100410Y-78791786D01*
X71080429Y-78754404D01*
X71032850Y-78696429D01*
X71016948Y-78677052D01*
X70997570Y-78661150D01*
X70538439Y-78202019D01*
X71016459Y-77724000D01*
X71417580Y-77724000D01*
X71508999Y-77815419D01*
%TA.AperFunction,Conductor*%
D24*
G36*
X71508999Y-77815419D02*
G01*
X71508999Y-77834055D01*
X71507281Y-77851500D01*
X71432426Y-77882506D01*
X71320888Y-77957033D01*
X71226033Y-78051888D01*
X71151506Y-78163426D01*
X71100171Y-78287360D01*
X71074000Y-78418927D01*
X71074000Y-78553073D01*
X71100171Y-78684640D01*
X71148001Y-78800112D01*
X71148001Y-78909906D01*
X71127601Y-78842657D01*
X71100410Y-78791786D01*
X71080429Y-78754404D01*
X71032850Y-78696429D01*
X71016948Y-78677052D01*
X70997570Y-78661150D01*
X70538439Y-78202019D01*
X71016459Y-77724000D01*
X71417580Y-77724000D01*
X71508999Y-77815419D01*
G37*
%TD.AperFunction*%
%TD*%
M02*
