%TF.GenerationSoftware,KiCad,Pcbnew,6.0.4-6f826c9f35~116~ubuntu21.10.1*%
%TF.CreationDate,2022-04-05T23:43:51+08:00*%
%TF.ProjectId,ST_Link_V2.1,53545f4c-696e-46b5-9f56-322e312e6b69,rev?*%
%TF.SameCoordinates,Original*%
%TF.FileFunction,Soldermask,Bot*%
%TF.FilePolarity,Negative*%
%FSLAX46Y46*%
G04 Gerber Fmt 4.6, Leading zero omitted, Abs format (unit mm)*
G04 Created by KiCad (PCBNEW 6.0.4-6f826c9f35~116~ubuntu21.10.1) date 2022-04-05 23:43:51*
%MOMM*%
%LPD*%
G01*
G04 APERTURE LIST*
G04 Aperture macros list*
%AMRoundRect*
0 Rectangle with rounded corners*
0 $1 Rounding radius*
0 $2 $3 $4 $5 $6 $7 $8 $9 X,Y pos of 4 corners*
0 Add a 4 corners polygon primitive as box body*
4,1,4,$2,$3,$4,$5,$6,$7,$8,$9,$2,$3,0*
0 Add four circle primitives for the rounded corners*
1,1,$1+$1,$2,$3*
1,1,$1+$1,$4,$5*
1,1,$1+$1,$6,$7*
1,1,$1+$1,$8,$9*
0 Add four rect primitives between the rounded corners*
20,1,$1+$1,$2,$3,$4,$5,0*
20,1,$1+$1,$4,$5,$6,$7,0*
20,1,$1+$1,$6,$7,$8,$9,0*
20,1,$1+$1,$8,$9,$2,$3,0*%
G04 Aperture macros list end*
%ADD10C,0.600000*%
%ADD11O,2.000000X0.900000*%
%ADD12O,1.700000X0.900000*%
%ADD13R,1.700000X1.700000*%
%ADD14O,1.700000X1.700000*%
%ADD15RoundRect,0.140000X-0.140000X-0.170000X0.140000X-0.170000X0.140000X0.170000X-0.140000X0.170000X0*%
%ADD16RoundRect,0.243750X0.243750X0.456250X-0.243750X0.456250X-0.243750X-0.456250X0.243750X-0.456250X0*%
%ADD17R,0.900000X0.800000*%
%ADD18RoundRect,0.135000X-0.135000X-0.185000X0.135000X-0.185000X0.135000X0.185000X-0.135000X0.185000X0*%
%ADD19RoundRect,0.135000X-0.185000X0.135000X-0.185000X-0.135000X0.185000X-0.135000X0.185000X0.135000X0*%
%ADD20R,1.100000X0.600000*%
%ADD21R,2.200000X1.000000*%
%ADD22R,2.200000X3.500000*%
%ADD23R,1.900000X2.400000*%
G04 APERTURE END LIST*
D10*
%TO.C,J1*%
X62410000Y-81184000D03*
X62410000Y-86964000D03*
D11*
X62890000Y-79754000D03*
X62890000Y-88394000D03*
D12*
X58720000Y-79754000D03*
X58720000Y-88394000D03*
%TD*%
D13*
%TO.C,J3*%
X82042000Y-78994000D03*
D14*
X82042000Y-81534000D03*
X82042000Y-84074000D03*
X82042000Y-86614000D03*
X82042000Y-89154000D03*
X84582000Y-78994000D03*
X84582000Y-81534000D03*
X84582000Y-84074000D03*
X84582000Y-86614000D03*
X84582000Y-89154000D03*
X87122000Y-78994000D03*
X87122000Y-81534000D03*
X87122000Y-84074000D03*
X87122000Y-86614000D03*
X87122000Y-89154000D03*
%TD*%
D13*
%TO.C,J2*%
X89662000Y-81534000D03*
D14*
X89662000Y-84074000D03*
X89662000Y-86614000D03*
%TD*%
D15*
%TO.C,C9*%
X66322000Y-86360000D03*
X67282000Y-86360000D03*
%TD*%
D16*
%TO.C,F1*%
X60119500Y-90678000D03*
X58244500Y-90678000D03*
%TD*%
D17*
%TO.C,Q1*%
X66310000Y-90612000D03*
X66310000Y-88712000D03*
X68310000Y-89662000D03*
%TD*%
D18*
%TO.C,R9*%
X63498000Y-90678000D03*
X64518000Y-90678000D03*
%TD*%
D19*
%TO.C,R14*%
X73660000Y-77468000D03*
X73660000Y-78488000D03*
%TD*%
%TO.C,R16*%
X72644000Y-77468000D03*
X72644000Y-78488000D03*
%TD*%
%TO.C,R17*%
X76708000Y-77468000D03*
X76708000Y-78488000D03*
%TD*%
%TO.C,R18*%
X75692000Y-77468000D03*
X75692000Y-78488000D03*
%TD*%
D20*
%TO.C,U2*%
X68456000Y-77536000D03*
X68456000Y-78486000D03*
X68456000Y-79436000D03*
X65656000Y-79436000D03*
X65656000Y-77536000D03*
%TD*%
D21*
%TO.C,U3*%
X64214000Y-81774000D03*
X64214000Y-84074000D03*
D22*
X58214000Y-84074000D03*
D21*
X64214000Y-86374000D03*
%TD*%
D23*
%TO.C,Y1*%
X71102000Y-87376000D03*
X75202000Y-87376000D03*
%TD*%
D19*
%TO.C,R15*%
X74676000Y-77468000D03*
X74676000Y-78488000D03*
%TD*%
M02*
