%TF.GenerationSoftware,KiCad,Pcbnew,6.0.4-6f826c9f35~116~ubuntu21.10.1*%
%TF.CreationDate,2022-04-05T23:43:51+08:00*%
%TF.ProjectId,ST_Link_V2.1,53545f4c-696e-46b5-9f56-322e312e6b69,rev?*%
%TF.SameCoordinates,Original*%
%TF.FileFunction,Copper,L2,Inr*%
%TF.FilePolarity,Positive*%
%FSLAX46Y46*%
G04 Gerber Fmt 4.6, Leading zero omitted, Abs format (unit mm)*
G04 Created by KiCad (PCBNEW 6.0.4-6f826c9f35~116~ubuntu21.10.1) date 2022-04-05 23:43:51*
%MOMM*%
%LPD*%
G01*
G04 APERTURE LIST*
%TA.AperFunction,ComponentPad*%
%ADD10O,2.000000X0.900000*%
%TD*%
%TA.AperFunction,ComponentPad*%
%ADD11O,1.700000X0.900000*%
%TD*%
%TA.AperFunction,ComponentPad*%
%ADD12R,1.700000X1.700000*%
%TD*%
%TA.AperFunction,ComponentPad*%
%ADD13O,1.700000X1.700000*%
%TD*%
%TA.AperFunction,ViaPad*%
%ADD14C,0.600000*%
%TD*%
%TA.AperFunction,Conductor*%
%ADD15C,0.250000*%
%TD*%
%TA.AperFunction,Conductor*%
%ADD16C,0.254000*%
%TD*%
%TA.AperFunction,Conductor*%
%ADD17C,0.600000*%
%TD*%
G04 APERTURE END LIST*
D10*
%TO.N,GND*%
%TO.C,J1*%
X62890000Y-79754000D03*
X62890000Y-88394000D03*
D11*
X58720000Y-79754000D03*
X58720000Y-88394000D03*
%TD*%
D12*
%TO.N,+5V*%
%TO.C,J3*%
X82042000Y-78994000D03*
D13*
%TO.N,+3.3VA*%
X82042000Y-81534000D03*
%TO.N,/TX*%
X82042000Y-84074000D03*
%TO.N,/RX*%
X82042000Y-86614000D03*
%TO.N,GND*%
X82042000Y-89154000D03*
%TO.N,+5V*%
X84582000Y-78994000D03*
%TO.N,+3.3VA*%
X84582000Y-81534000D03*
%TO.N,/SWIN*%
X84582000Y-84074000D03*
%TO.N,/RESET*%
X84582000Y-86614000D03*
%TO.N,GND*%
X84582000Y-89154000D03*
%TO.N,+5V*%
X87122000Y-78994000D03*
%TO.N,+3.3VA*%
X87122000Y-81534000D03*
%TO.N,/SWDIO*%
X87122000Y-84074000D03*
%TO.N,/SWCLK*%
X87122000Y-86614000D03*
%TO.N,GND*%
X87122000Y-89154000D03*
%TD*%
D12*
%TO.N,/MCU_SWDIO*%
%TO.C,J2*%
X89662000Y-81534000D03*
D13*
%TO.N,/MCU_SWCLK*%
X89662000Y-84074000D03*
%TO.N,GND*%
X89662000Y-86614000D03*
%TD*%
D14*
%TO.N,GND*%
X79850000Y-84190000D03*
X73660000Y-83058000D03*
X74041000Y-84709000D03*
X61976000Y-84963000D03*
X70866000Y-78232000D03*
X70866000Y-83439000D03*
X73533000Y-86487000D03*
%TO.N,/OSC_IN*%
X72136000Y-90198000D03*
%TO.N,/OSC_OUT*%
X73152000Y-90198000D03*
%TO.N,+3V3*%
X72644000Y-78486000D03*
X78994000Y-77343000D03*
X68326000Y-89662000D03*
X66738500Y-79184500D03*
X75690000Y-91188000D03*
%TO.N,+5V*%
X60119500Y-90678000D03*
%TO.N,Net-(C11-Pad1)*%
X65659000Y-79438500D03*
%TO.N,Net-(D1-Pad2)*%
X73660000Y-77470000D03*
%TO.N,Net-(D2-Pad1)*%
X74676000Y-77470000D03*
%TO.N,Net-(D3-Pad2)*%
X72644000Y-77470000D03*
%TO.N,Net-(D4-Pad1)*%
X76708000Y-77470000D03*
%TO.N,Net-(D5-Pad1)*%
X75692000Y-77470000D03*
%TO.N,Net-(F1-Pad2)*%
X59360000Y-89610000D03*
%TO.N,/MCU_SWCLK*%
X69342000Y-80391000D03*
%TO.N,/MCU_SWDIO*%
X71755000Y-78486000D03*
%TO.N,/RX*%
X79121000Y-86824820D03*
%TO.N,/RESET*%
X75819000Y-84328000D03*
%TO.N,/SWIN*%
X73914000Y-81788000D03*
%TO.N,/SWCLK*%
X75057000Y-81534000D03*
X75819000Y-85598000D03*
%TO.N,/SWDIO*%
X74422000Y-82677000D03*
%TO.N,Net-(Q1-Pad2)*%
X67056000Y-84074000D03*
%TO.N,Net-(Q1-Pad1)*%
X65020000Y-89880000D03*
%TO.N,/MCU_USB_D-*%
X67056000Y-83058000D03*
X73025000Y-82423000D03*
%TO.N,/MCU_USB_D+*%
X72390000Y-81788000D03*
X67056000Y-85090000D03*
%TO.N,/MCU_USB_RENUM*%
X67056000Y-89662000D03*
X67818000Y-81788000D03*
%TO.N,/LED_LINK*%
X73660000Y-78486000D03*
%TO.N,/BOOT0*%
X71374000Y-84074000D03*
X69850000Y-89154000D03*
%TO.N,/BOOT1*%
X78232000Y-90170000D03*
X76022200Y-83324700D03*
%TO.N,+3.3VA*%
X59436000Y-77470000D03*
%TD*%
D15*
%TO.N,/SWCLK*%
X87122000Y-86614000D02*
X85848000Y-85340000D01*
X85848000Y-85340000D02*
X76077000Y-85340000D01*
X76077000Y-85340000D02*
X75819000Y-85598000D01*
%TO.N,/SWDIO*%
X75750000Y-82200000D02*
X75270000Y-82680000D01*
X78370000Y-82800000D02*
X77770000Y-82200000D01*
X87122000Y-84074000D02*
X85848000Y-82800000D01*
X74425000Y-82680000D02*
X74422000Y-82677000D01*
X85848000Y-82800000D02*
X78370000Y-82800000D01*
X75270000Y-82680000D02*
X74425000Y-82680000D01*
X77770000Y-82200000D02*
X75750000Y-82200000D01*
D16*
%TO.N,/MCU_USB_RENUM*%
X67818000Y-81788000D02*
X67818000Y-88900000D01*
X67818000Y-88900000D02*
X67056000Y-89662000D01*
%TO.N,/BOOT0*%
X71374000Y-87630000D02*
X69850000Y-89154000D01*
X71374000Y-84074000D02*
X71374000Y-87630000D01*
D17*
%TO.N,+3.3VA*%
X82042000Y-81534000D02*
X77177999Y-76669999D01*
X87122000Y-81534000D02*
X82042000Y-81534000D01*
X77177999Y-76669999D02*
X60236001Y-76669999D01*
X60236001Y-76669999D02*
X59436000Y-77470000D01*
%TD*%
%TA.AperFunction,Conductor*%
%TO.N,GND*%
G36*
X59685250Y-76220502D02*
G01*
X59731743Y-76274158D01*
X59741847Y-76344432D01*
X59712353Y-76409012D01*
X59706224Y-76415595D01*
X59075451Y-77046368D01*
X59063060Y-77057235D01*
X59040526Y-77074526D01*
X59018920Y-77102684D01*
X59017951Y-77103868D01*
X59016999Y-77104820D01*
X59014793Y-77107727D01*
X58991431Y-77138505D01*
X58991030Y-77139030D01*
X58954700Y-77186376D01*
X58954699Y-77186379D01*
X58951645Y-77190358D01*
X58951132Y-77191596D01*
X58948370Y-77195235D01*
X58928865Y-77244501D01*
X58921584Y-77262890D01*
X58920867Y-77264661D01*
X58895772Y-77325246D01*
X58895212Y-77329498D01*
X58892444Y-77336490D01*
X58891547Y-77345026D01*
X58885298Y-77404479D01*
X58884912Y-77407738D01*
X58876715Y-77470000D01*
X58877459Y-77475648D01*
X58877393Y-77476898D01*
X58877460Y-77479043D01*
X58876563Y-77487581D01*
X58877995Y-77496047D01*
X58877995Y-77496049D01*
X58887309Y-77551117D01*
X58887994Y-77555679D01*
X58895772Y-77614754D01*
X58898786Y-77622030D01*
X58899872Y-77627012D01*
X58900467Y-77628909D01*
X58901899Y-77637377D01*
X58905557Y-77645150D01*
X58927729Y-77692268D01*
X58930128Y-77697695D01*
X58951645Y-77749642D01*
X58956674Y-77756196D01*
X58960191Y-77762289D01*
X58961712Y-77765199D01*
X58962929Y-77767072D01*
X58966585Y-77774842D01*
X58972194Y-77781341D01*
X58972196Y-77781343D01*
X59003808Y-77817966D01*
X59008386Y-77823589D01*
X59040526Y-77865474D01*
X59047077Y-77870501D01*
X59052916Y-77876340D01*
X59052713Y-77876543D01*
X59055337Y-77879020D01*
X59060242Y-77883344D01*
X59065855Y-77889847D01*
X59073007Y-77894599D01*
X59110250Y-77919344D01*
X59117211Y-77924317D01*
X59156357Y-77954355D01*
X59163987Y-77957515D01*
X59167819Y-77959727D01*
X59184057Y-77968380D01*
X59192395Y-77973920D01*
X59230304Y-77986237D01*
X59239624Y-77989266D01*
X59248903Y-77992690D01*
X59282661Y-78006672D01*
X59291246Y-78010228D01*
X59301448Y-78011571D01*
X59323930Y-78016659D01*
X59328711Y-78018212D01*
X59336883Y-78020867D01*
X59345461Y-78021226D01*
X59345464Y-78021227D01*
X59371717Y-78022327D01*
X59382883Y-78022794D01*
X59394046Y-78023761D01*
X59436000Y-78029285D01*
X59449757Y-78027474D01*
X59471476Y-78026507D01*
X59488674Y-78027228D01*
X59503453Y-78023762D01*
X59529969Y-78017543D01*
X59542289Y-78015292D01*
X59580754Y-78010228D01*
X59588380Y-78007069D01*
X59588385Y-78007068D01*
X59596871Y-78003553D01*
X59616310Y-77997293D01*
X59628214Y-77994501D01*
X59628221Y-77994498D01*
X59636583Y-77992537D01*
X59670597Y-77973838D01*
X59683078Y-77967844D01*
X59715643Y-77954355D01*
X59722712Y-77948931D01*
X59732310Y-77941566D01*
X59748311Y-77931115D01*
X59760225Y-77924565D01*
X59769715Y-77919348D01*
X59775524Y-77914333D01*
X59776140Y-77913802D01*
X59776147Y-77913796D01*
X59777891Y-77912290D01*
X59796549Y-77893632D01*
X59808940Y-77882765D01*
X59824921Y-77870503D01*
X59824924Y-77870500D01*
X59831474Y-77865474D01*
X59836501Y-77858923D01*
X59836504Y-77858920D01*
X59848764Y-77842942D01*
X59859632Y-77830549D01*
X60428779Y-77261403D01*
X60491091Y-77227378D01*
X60517874Y-77224499D01*
X71973360Y-77224499D01*
X72041481Y-77244501D01*
X72087974Y-77298157D01*
X72098282Y-77366945D01*
X72087389Y-77449691D01*
X72084715Y-77470000D01*
X72103772Y-77614754D01*
X72159645Y-77749642D01*
X72178982Y-77774842D01*
X72226249Y-77836442D01*
X72251849Y-77902662D01*
X72237584Y-77972211D01*
X72187983Y-78023007D01*
X72118793Y-78038923D01*
X72049584Y-78013110D01*
X72034643Y-78001645D01*
X71899754Y-77945772D01*
X71755000Y-77926715D01*
X71731255Y-77929841D01*
X71618432Y-77944694D01*
X71618430Y-77944695D01*
X71610246Y-77945772D01*
X71589525Y-77954355D01*
X71482986Y-77998485D01*
X71482984Y-77998486D01*
X71475358Y-78001645D01*
X71359526Y-78090526D01*
X71270645Y-78206358D01*
X71267486Y-78213984D01*
X71267485Y-78213986D01*
X71253456Y-78247855D01*
X71214772Y-78341246D01*
X71213695Y-78349430D01*
X71213694Y-78349432D01*
X71204455Y-78419609D01*
X71195715Y-78486000D01*
X71196793Y-78494188D01*
X71210993Y-78602046D01*
X71214772Y-78630754D01*
X71270645Y-78765642D01*
X71275672Y-78772193D01*
X71354498Y-78874921D01*
X71359526Y-78881474D01*
X71366076Y-78886500D01*
X71366079Y-78886503D01*
X71460857Y-78959229D01*
X71475357Y-78970355D01*
X71610246Y-79026228D01*
X71618434Y-79027306D01*
X71655001Y-79032120D01*
X71755000Y-79045285D01*
X71763188Y-79044207D01*
X71891566Y-79027306D01*
X71899754Y-79026228D01*
X72034643Y-78970355D01*
X72122798Y-78902711D01*
X72189016Y-78877111D01*
X72258564Y-78891375D01*
X72276197Y-78902707D01*
X72364357Y-78970355D01*
X72499246Y-79026228D01*
X72507434Y-79027306D01*
X72544001Y-79032120D01*
X72644000Y-79045285D01*
X72652188Y-79044207D01*
X72780566Y-79027306D01*
X72788754Y-79026228D01*
X72923643Y-78970355D01*
X72938143Y-78959229D01*
X73032921Y-78886503D01*
X73032924Y-78886500D01*
X73039474Y-78881474D01*
X73047095Y-78871543D01*
X73052038Y-78865101D01*
X73109377Y-78823234D01*
X73180248Y-78819013D01*
X73242150Y-78853778D01*
X73251962Y-78865101D01*
X73256905Y-78871543D01*
X73264526Y-78881474D01*
X73271076Y-78886500D01*
X73271079Y-78886503D01*
X73365857Y-78959229D01*
X73380357Y-78970355D01*
X73515246Y-79026228D01*
X73523434Y-79027306D01*
X73560001Y-79032120D01*
X73660000Y-79045285D01*
X73668188Y-79044207D01*
X73796566Y-79027306D01*
X73804754Y-79026228D01*
X73939643Y-78970355D01*
X73954143Y-78959229D01*
X74048921Y-78886503D01*
X74048924Y-78886500D01*
X74055474Y-78881474D01*
X74060503Y-78874921D01*
X74139328Y-78772193D01*
X74144355Y-78765642D01*
X74200228Y-78630754D01*
X74204008Y-78602046D01*
X74218207Y-78494188D01*
X74219285Y-78486000D01*
X74210545Y-78419609D01*
X74201306Y-78349432D01*
X74201305Y-78349430D01*
X74200228Y-78341246D01*
X74161544Y-78247855D01*
X74147515Y-78213986D01*
X74147514Y-78213984D01*
X74144355Y-78206358D01*
X74077272Y-78118934D01*
X74060501Y-78097077D01*
X74060500Y-78097076D01*
X74055474Y-78090526D01*
X74039100Y-78077962D01*
X73997233Y-78020626D01*
X73993011Y-77949755D01*
X74027774Y-77887851D01*
X74039099Y-77878039D01*
X74055474Y-77865474D01*
X74063095Y-77855543D01*
X74068038Y-77849101D01*
X74125377Y-77807234D01*
X74196248Y-77803013D01*
X74258150Y-77837778D01*
X74267962Y-77849101D01*
X74272905Y-77855543D01*
X74280526Y-77865474D01*
X74287076Y-77870500D01*
X74287079Y-77870503D01*
X74389804Y-77949327D01*
X74396357Y-77954355D01*
X74531246Y-78010228D01*
X74539434Y-78011306D01*
X74569711Y-78015292D01*
X74676000Y-78029285D01*
X74684188Y-78028207D01*
X74691625Y-78027228D01*
X74782289Y-78015292D01*
X74812566Y-78011306D01*
X74820754Y-78010228D01*
X74955643Y-77954355D01*
X74962196Y-77949327D01*
X75064921Y-77870503D01*
X75064924Y-77870500D01*
X75071474Y-77865474D01*
X75079095Y-77855543D01*
X75084038Y-77849101D01*
X75141377Y-77807234D01*
X75212248Y-77803013D01*
X75274150Y-77837778D01*
X75283962Y-77849101D01*
X75288905Y-77855543D01*
X75296526Y-77865474D01*
X75303076Y-77870500D01*
X75303079Y-77870503D01*
X75405804Y-77949327D01*
X75412357Y-77954355D01*
X75547246Y-78010228D01*
X75555434Y-78011306D01*
X75585711Y-78015292D01*
X75692000Y-78029285D01*
X75700188Y-78028207D01*
X75707625Y-78027228D01*
X75798289Y-78015292D01*
X75828566Y-78011306D01*
X75836754Y-78010228D01*
X75971643Y-77954355D01*
X75978196Y-77949327D01*
X76080921Y-77870503D01*
X76080924Y-77870500D01*
X76087474Y-77865474D01*
X76095095Y-77855543D01*
X76100038Y-77849101D01*
X76157377Y-77807234D01*
X76228248Y-77803013D01*
X76290150Y-77837778D01*
X76299962Y-77849101D01*
X76304905Y-77855543D01*
X76312526Y-77865474D01*
X76319076Y-77870500D01*
X76319079Y-77870503D01*
X76421804Y-77949327D01*
X76428357Y-77954355D01*
X76563246Y-78010228D01*
X76571434Y-78011306D01*
X76601711Y-78015292D01*
X76708000Y-78029285D01*
X76716188Y-78028207D01*
X76723625Y-78027228D01*
X76814289Y-78015292D01*
X76844566Y-78011306D01*
X76852754Y-78010228D01*
X76987643Y-77954355D01*
X76994196Y-77949327D01*
X77096921Y-77870503D01*
X77096924Y-77870500D01*
X77103474Y-77865474D01*
X77108503Y-77858921D01*
X77173018Y-77774842D01*
X77192355Y-77749642D01*
X77202526Y-77725088D01*
X77247074Y-77669807D01*
X77314438Y-77647386D01*
X77383229Y-77664944D01*
X77408030Y-77684211D01*
X80921381Y-81197562D01*
X80955407Y-81259874D01*
X80955512Y-81303201D01*
X80957007Y-81303378D01*
X80933148Y-81504964D01*
X80946424Y-81707522D01*
X80947845Y-81713118D01*
X80947846Y-81713123D01*
X80987060Y-81867526D01*
X80996392Y-81904269D01*
X80998809Y-81909512D01*
X81036010Y-81990208D01*
X81081377Y-82088616D01*
X81084710Y-82093332D01*
X81175487Y-82221780D01*
X81198468Y-82288955D01*
X81181483Y-82357890D01*
X81129926Y-82406699D01*
X81072590Y-82420500D01*
X78579384Y-82420500D01*
X78511263Y-82400498D01*
X78490289Y-82383595D01*
X78076478Y-81969784D01*
X78061336Y-81951036D01*
X78060221Y-81949811D01*
X78054571Y-81941060D01*
X78046393Y-81934613D01*
X78046391Y-81934611D01*
X78028200Y-81920271D01*
X78023759Y-81916325D01*
X78023697Y-81916398D01*
X78019733Y-81913039D01*
X78016056Y-81909362D01*
X78000308Y-81898108D01*
X77995638Y-81894602D01*
X77955353Y-81862844D01*
X77946719Y-81859812D01*
X77939266Y-81854486D01*
X77890150Y-81839797D01*
X77884508Y-81837964D01*
X77843633Y-81823610D01*
X77843632Y-81823610D01*
X77836149Y-81820982D01*
X77830584Y-81820500D01*
X77827876Y-81820500D01*
X77825242Y-81820386D01*
X77825144Y-81820357D01*
X77825151Y-81820193D01*
X77824447Y-81820149D01*
X77818222Y-81818287D01*
X77764365Y-81820403D01*
X77759418Y-81820500D01*
X75803925Y-81820500D01*
X75779967Y-81817950D01*
X75778308Y-81817872D01*
X75768124Y-81815679D01*
X75737089Y-81819353D01*
X75667091Y-81807498D01*
X75614613Y-81759680D01*
X75596317Y-81691082D01*
X75597356Y-81677781D01*
X75615207Y-81542188D01*
X75616285Y-81534000D01*
X75604346Y-81443313D01*
X75598306Y-81397432D01*
X75598305Y-81397430D01*
X75597228Y-81389246D01*
X75560462Y-81300485D01*
X75544515Y-81261986D01*
X75544514Y-81261984D01*
X75541355Y-81254358D01*
X75496914Y-81196442D01*
X75457501Y-81145077D01*
X75457500Y-81145076D01*
X75452474Y-81138526D01*
X75445924Y-81133500D01*
X75445921Y-81133497D01*
X75343196Y-81054673D01*
X75343194Y-81054672D01*
X75336643Y-81049645D01*
X75201754Y-80993772D01*
X75057000Y-80974715D01*
X75048812Y-80975793D01*
X74920432Y-80992694D01*
X74920430Y-80992695D01*
X74912246Y-80993772D01*
X74897382Y-80999929D01*
X74784986Y-81046485D01*
X74784984Y-81046486D01*
X74777358Y-81049645D01*
X74661526Y-81138526D01*
X74572645Y-81254358D01*
X74569484Y-81261990D01*
X74569482Y-81261993D01*
X74526732Y-81365197D01*
X74482184Y-81420478D01*
X74414820Y-81442898D01*
X74346029Y-81425339D01*
X74321603Y-81403659D01*
X74320343Y-81404919D01*
X74314500Y-81399076D01*
X74309474Y-81392526D01*
X74302924Y-81387500D01*
X74302921Y-81387497D01*
X74200196Y-81308673D01*
X74200194Y-81308672D01*
X74193643Y-81303645D01*
X74058754Y-81247772D01*
X73914000Y-81228715D01*
X73905812Y-81229793D01*
X73777432Y-81246694D01*
X73777430Y-81246695D01*
X73769246Y-81247772D01*
X73734931Y-81261986D01*
X73641986Y-81300485D01*
X73641984Y-81300486D01*
X73634358Y-81303645D01*
X73518526Y-81392526D01*
X73513503Y-81399072D01*
X73497078Y-81420478D01*
X73429645Y-81508358D01*
X73426486Y-81515984D01*
X73426485Y-81515986D01*
X73417489Y-81537704D01*
X73373772Y-81643246D01*
X73372695Y-81651430D01*
X73372694Y-81651432D01*
X73366069Y-81701755D01*
X73354817Y-81787231D01*
X73354752Y-81787721D01*
X73326030Y-81852648D01*
X73266765Y-81891740D01*
X73195773Y-81892585D01*
X73181610Y-81887683D01*
X73177384Y-81885932D01*
X73177381Y-81885931D01*
X73169754Y-81882772D01*
X73112193Y-81875194D01*
X73053950Y-81867526D01*
X72989022Y-81838803D01*
X72949931Y-81779538D01*
X72945474Y-81759050D01*
X72931306Y-81651432D01*
X72931305Y-81651430D01*
X72930228Y-81643246D01*
X72886511Y-81537704D01*
X72877515Y-81515986D01*
X72877514Y-81515984D01*
X72874355Y-81508358D01*
X72806922Y-81420478D01*
X72790501Y-81399077D01*
X72790500Y-81399076D01*
X72785474Y-81392526D01*
X72778924Y-81387500D01*
X72778921Y-81387497D01*
X72676196Y-81308673D01*
X72676194Y-81308672D01*
X72669643Y-81303645D01*
X72534754Y-81247772D01*
X72390000Y-81228715D01*
X72381812Y-81229793D01*
X72253432Y-81246694D01*
X72253430Y-81246695D01*
X72245246Y-81247772D01*
X72210931Y-81261986D01*
X72117986Y-81300485D01*
X72117984Y-81300486D01*
X72110358Y-81303645D01*
X71994526Y-81392526D01*
X71989503Y-81399072D01*
X71973078Y-81420478D01*
X71905645Y-81508358D01*
X71902486Y-81515984D01*
X71902485Y-81515986D01*
X71893489Y-81537704D01*
X71849772Y-81643246D01*
X71848695Y-81651430D01*
X71848694Y-81651432D01*
X71839709Y-81719683D01*
X71830715Y-81788000D01*
X71831793Y-81796188D01*
X71848651Y-81924237D01*
X71849772Y-81932754D01*
X71867115Y-81974623D01*
X71896521Y-82045614D01*
X71905645Y-82067642D01*
X71936998Y-82108502D01*
X71981673Y-82166723D01*
X71994526Y-82183474D01*
X72001076Y-82188500D01*
X72001079Y-82188503D01*
X72103804Y-82267327D01*
X72110357Y-82272355D01*
X72245246Y-82328228D01*
X72269287Y-82331393D01*
X72361050Y-82343474D01*
X72425978Y-82372197D01*
X72465069Y-82431462D01*
X72469526Y-82451950D01*
X72482084Y-82547334D01*
X72484772Y-82567754D01*
X72494077Y-82590217D01*
X72530024Y-82677000D01*
X72540645Y-82702642D01*
X72629526Y-82818474D01*
X72636076Y-82823500D01*
X72636079Y-82823503D01*
X72738804Y-82902327D01*
X72745357Y-82907355D01*
X72880246Y-82963228D01*
X73025000Y-82982285D01*
X73033188Y-82981207D01*
X73161566Y-82964306D01*
X73169754Y-82963228D01*
X73304643Y-82907355D01*
X73311196Y-82902327D01*
X73413921Y-82823503D01*
X73413924Y-82823500D01*
X73420474Y-82818474D01*
X73509355Y-82702642D01*
X73519977Y-82677000D01*
X73555923Y-82590217D01*
X73565228Y-82567754D01*
X73567917Y-82547334D01*
X73579605Y-82458546D01*
X73584248Y-82423278D01*
X73612970Y-82358352D01*
X73672235Y-82319260D01*
X73743227Y-82318415D01*
X73757390Y-82323317D01*
X73761616Y-82325068D01*
X73761619Y-82325069D01*
X73769246Y-82328228D01*
X73793287Y-82331393D01*
X73858215Y-82360115D01*
X73897307Y-82419380D01*
X73898152Y-82490371D01*
X73893250Y-82504534D01*
X73884933Y-82524613D01*
X73884932Y-82524618D01*
X73881772Y-82532246D01*
X73880695Y-82540430D01*
X73880694Y-82540432D01*
X73869409Y-82626155D01*
X73862715Y-82677000D01*
X73863793Y-82685188D01*
X73880478Y-82811923D01*
X73881772Y-82821754D01*
X73901578Y-82869570D01*
X73931835Y-82942615D01*
X73937645Y-82956642D01*
X73957322Y-82982285D01*
X74021347Y-83065724D01*
X74026526Y-83072474D01*
X74033076Y-83077500D01*
X74033079Y-83077503D01*
X74119793Y-83144041D01*
X74142357Y-83161355D01*
X74224643Y-83195439D01*
X74260714Y-83210380D01*
X74277246Y-83217228D01*
X74422000Y-83236285D01*
X74430188Y-83235207D01*
X74558566Y-83218306D01*
X74566754Y-83217228D01*
X74583287Y-83210380D01*
X74619357Y-83195439D01*
X74701643Y-83161355D01*
X74783621Y-83098451D01*
X74800449Y-83085538D01*
X74866669Y-83059937D01*
X74877153Y-83059500D01*
X75216080Y-83059500D01*
X75240028Y-83062049D01*
X75241693Y-83062128D01*
X75251876Y-83064320D01*
X75262217Y-83063096D01*
X75285223Y-83060373D01*
X75291154Y-83060023D01*
X75291146Y-83059928D01*
X75296324Y-83059500D01*
X75301524Y-83059500D01*
X75306653Y-83058646D01*
X75306656Y-83058646D01*
X75320565Y-83056331D01*
X75326446Y-83055494D01*
X75340203Y-83053866D01*
X75410202Y-83065724D01*
X75462678Y-83113544D01*
X75480971Y-83182144D01*
X75479932Y-83195439D01*
X75465787Y-83302883D01*
X75462915Y-83324700D01*
X75481972Y-83469454D01*
X75485131Y-83477080D01*
X75533840Y-83594672D01*
X75537845Y-83604342D01*
X75542872Y-83610893D01*
X75542875Y-83610898D01*
X75578756Y-83657659D01*
X75604357Y-83723879D01*
X75590093Y-83793428D01*
X75543157Y-83842071D01*
X75539358Y-83843645D01*
X75423526Y-83932526D01*
X75334645Y-84048358D01*
X75331486Y-84055984D01*
X75331485Y-84055986D01*
X75322489Y-84077704D01*
X75278772Y-84183246D01*
X75277695Y-84191430D01*
X75277694Y-84191432D01*
X75262841Y-84304255D01*
X75259715Y-84328000D01*
X75260793Y-84336188D01*
X75277478Y-84462923D01*
X75278772Y-84472754D01*
X75281931Y-84480380D01*
X75324024Y-84582000D01*
X75334645Y-84607642D01*
X75339672Y-84614193D01*
X75410669Y-84706718D01*
X75423526Y-84723474D01*
X75430076Y-84728500D01*
X75430079Y-84728503D01*
X75528217Y-84803807D01*
X75539357Y-84812355D01*
X75579433Y-84828955D01*
X75622010Y-84846591D01*
X75677290Y-84891140D01*
X75699711Y-84958503D01*
X75682153Y-85027294D01*
X75630190Y-85075673D01*
X75622010Y-85079409D01*
X75546986Y-85110485D01*
X75546984Y-85110486D01*
X75539358Y-85113645D01*
X75423526Y-85202526D01*
X75334645Y-85318358D01*
X75278772Y-85453246D01*
X75277695Y-85461430D01*
X75277694Y-85461432D01*
X75265735Y-85552272D01*
X75259715Y-85598000D01*
X75260793Y-85606188D01*
X75275711Y-85719500D01*
X75278772Y-85742754D01*
X75296264Y-85784983D01*
X75323384Y-85850455D01*
X75334645Y-85877642D01*
X75423526Y-85993474D01*
X75430076Y-85998500D01*
X75430079Y-85998503D01*
X75532804Y-86077327D01*
X75539357Y-86082355D01*
X75674246Y-86138228D01*
X75819000Y-86157285D01*
X75827188Y-86156207D01*
X75955566Y-86139306D01*
X75963754Y-86138228D01*
X76098643Y-86082355D01*
X76105196Y-86077327D01*
X76207921Y-85998503D01*
X76207924Y-85998500D01*
X76214474Y-85993474D01*
X76303355Y-85877642D01*
X76314617Y-85850455D01*
X76336642Y-85797281D01*
X76381191Y-85742001D01*
X76453051Y-85719500D01*
X81080853Y-85719500D01*
X81148974Y-85739502D01*
X81195467Y-85793158D01*
X81205571Y-85863432D01*
X81179803Y-85923506D01*
X81111720Y-86009869D01*
X81109031Y-86014980D01*
X81109029Y-86014983D01*
X81096073Y-86039609D01*
X81017203Y-86189515D01*
X80957007Y-86383378D01*
X80933148Y-86584964D01*
X80946424Y-86787522D01*
X80947845Y-86793118D01*
X80947846Y-86793123D01*
X80968119Y-86872945D01*
X80996392Y-86984269D01*
X80998809Y-86989512D01*
X81036010Y-87070208D01*
X81081377Y-87168616D01*
X81084710Y-87173332D01*
X81180714Y-87309175D01*
X81198533Y-87334389D01*
X81343938Y-87476035D01*
X81512720Y-87588812D01*
X81518023Y-87591090D01*
X81518026Y-87591092D01*
X81606707Y-87629192D01*
X81699228Y-87668942D01*
X81772244Y-87685464D01*
X81891579Y-87712467D01*
X81891584Y-87712468D01*
X81897216Y-87713742D01*
X81902987Y-87713969D01*
X81902989Y-87713969D01*
X81962756Y-87716317D01*
X82100053Y-87721712D01*
X82200499Y-87707148D01*
X82295231Y-87693413D01*
X82295236Y-87693412D01*
X82300945Y-87692584D01*
X82306409Y-87690729D01*
X82306414Y-87690728D01*
X82487693Y-87629192D01*
X82487698Y-87629190D01*
X82493165Y-87627334D01*
X82498544Y-87624322D01*
X82567683Y-87585602D01*
X82670276Y-87528147D01*
X82681876Y-87518500D01*
X82821913Y-87402031D01*
X82826345Y-87398345D01*
X82897879Y-87312335D01*
X82952453Y-87246718D01*
X82952455Y-87246715D01*
X82956147Y-87242276D01*
X83033327Y-87104462D01*
X83052510Y-87070208D01*
X83052511Y-87070206D01*
X83055334Y-87065165D01*
X83057190Y-87059698D01*
X83057192Y-87059693D01*
X83118728Y-86878414D01*
X83118729Y-86878409D01*
X83120584Y-86872945D01*
X83121412Y-86867236D01*
X83121413Y-86867231D01*
X83144980Y-86704687D01*
X83149712Y-86672053D01*
X83151232Y-86614000D01*
X83139401Y-86485242D01*
X83133187Y-86417613D01*
X83133186Y-86417610D01*
X83132658Y-86411859D01*
X83131090Y-86406299D01*
X83079125Y-86222046D01*
X83079124Y-86222044D01*
X83077557Y-86216487D01*
X83066978Y-86195033D01*
X82990331Y-86039609D01*
X82987776Y-86034428D01*
X82960950Y-85998503D01*
X82902992Y-85920889D01*
X82878260Y-85854339D01*
X82893434Y-85784983D01*
X82943696Y-85734841D01*
X83003950Y-85719500D01*
X83620853Y-85719500D01*
X83688974Y-85739502D01*
X83735467Y-85793158D01*
X83745571Y-85863432D01*
X83719803Y-85923506D01*
X83651720Y-86009869D01*
X83649031Y-86014980D01*
X83649029Y-86014983D01*
X83636073Y-86039609D01*
X83557203Y-86189515D01*
X83497007Y-86383378D01*
X83473148Y-86584964D01*
X83486424Y-86787522D01*
X83487845Y-86793118D01*
X83487846Y-86793123D01*
X83508119Y-86872945D01*
X83536392Y-86984269D01*
X83538809Y-86989512D01*
X83576010Y-87070208D01*
X83621377Y-87168616D01*
X83624710Y-87173332D01*
X83720714Y-87309175D01*
X83738533Y-87334389D01*
X83883938Y-87476035D01*
X84052720Y-87588812D01*
X84058023Y-87591090D01*
X84058026Y-87591092D01*
X84146707Y-87629192D01*
X84239228Y-87668942D01*
X84312244Y-87685464D01*
X84431579Y-87712467D01*
X84431584Y-87712468D01*
X84437216Y-87713742D01*
X84442987Y-87713969D01*
X84442989Y-87713969D01*
X84502756Y-87716317D01*
X84640053Y-87721712D01*
X84740499Y-87707148D01*
X84835231Y-87693413D01*
X84835236Y-87693412D01*
X84840945Y-87692584D01*
X84846409Y-87690729D01*
X84846414Y-87690728D01*
X85027693Y-87629192D01*
X85027698Y-87629190D01*
X85033165Y-87627334D01*
X85038544Y-87624322D01*
X85107683Y-87585602D01*
X85210276Y-87528147D01*
X85221876Y-87518500D01*
X85361913Y-87402031D01*
X85366345Y-87398345D01*
X85437879Y-87312335D01*
X85492453Y-87246718D01*
X85492455Y-87246715D01*
X85496147Y-87242276D01*
X85573327Y-87104462D01*
X85592510Y-87070208D01*
X85592511Y-87070206D01*
X85595334Y-87065165D01*
X85597190Y-87059698D01*
X85597192Y-87059693D01*
X85658728Y-86878414D01*
X85658729Y-86878409D01*
X85660584Y-86872945D01*
X85661412Y-86867236D01*
X85661413Y-86867231D01*
X85684980Y-86704687D01*
X85689712Y-86672053D01*
X85691232Y-86614000D01*
X85679401Y-86485242D01*
X85673187Y-86417613D01*
X85673186Y-86417610D01*
X85672658Y-86411859D01*
X85671090Y-86406299D01*
X85619125Y-86222046D01*
X85619124Y-86222044D01*
X85617557Y-86216487D01*
X85606978Y-86195033D01*
X85530331Y-86039609D01*
X85527776Y-86034428D01*
X85500950Y-85998503D01*
X85442992Y-85920889D01*
X85418260Y-85854339D01*
X85433434Y-85784983D01*
X85483696Y-85734841D01*
X85543950Y-85719500D01*
X85638616Y-85719500D01*
X85706737Y-85739502D01*
X85727711Y-85756405D01*
X86058477Y-86087171D01*
X86092503Y-86149483D01*
X86089715Y-86213630D01*
X86067681Y-86284592D01*
X86037007Y-86383378D01*
X86013148Y-86584964D01*
X86026424Y-86787522D01*
X86027845Y-86793118D01*
X86027846Y-86793123D01*
X86048119Y-86872945D01*
X86076392Y-86984269D01*
X86078809Y-86989512D01*
X86116010Y-87070208D01*
X86161377Y-87168616D01*
X86164710Y-87173332D01*
X86260714Y-87309175D01*
X86278533Y-87334389D01*
X86423938Y-87476035D01*
X86592720Y-87588812D01*
X86598023Y-87591090D01*
X86598026Y-87591092D01*
X86686707Y-87629192D01*
X86779228Y-87668942D01*
X86852244Y-87685464D01*
X86971579Y-87712467D01*
X86971584Y-87712468D01*
X86977216Y-87713742D01*
X86982987Y-87713969D01*
X86982989Y-87713969D01*
X87042756Y-87716317D01*
X87180053Y-87721712D01*
X87280499Y-87707148D01*
X87375231Y-87693413D01*
X87375236Y-87693412D01*
X87380945Y-87692584D01*
X87386409Y-87690729D01*
X87386414Y-87690728D01*
X87567693Y-87629192D01*
X87567698Y-87629190D01*
X87573165Y-87627334D01*
X87578544Y-87624322D01*
X87647683Y-87585602D01*
X87750276Y-87528147D01*
X87761876Y-87518500D01*
X87901913Y-87402031D01*
X87906345Y-87398345D01*
X87977879Y-87312335D01*
X88032453Y-87246718D01*
X88032455Y-87246715D01*
X88036147Y-87242276D01*
X88113327Y-87104462D01*
X88132510Y-87070208D01*
X88132511Y-87070206D01*
X88135334Y-87065165D01*
X88137190Y-87059698D01*
X88137192Y-87059693D01*
X88198728Y-86878414D01*
X88198729Y-86878409D01*
X88200584Y-86872945D01*
X88201412Y-86867236D01*
X88201413Y-86867231D01*
X88224980Y-86704687D01*
X88229712Y-86672053D01*
X88231232Y-86614000D01*
X88219401Y-86485242D01*
X88213187Y-86417613D01*
X88213186Y-86417610D01*
X88212658Y-86411859D01*
X88211090Y-86406299D01*
X88159125Y-86222046D01*
X88159124Y-86222044D01*
X88157557Y-86216487D01*
X88146978Y-86195033D01*
X88070331Y-86039609D01*
X88067776Y-86034428D01*
X88040950Y-85998503D01*
X87949777Y-85876409D01*
X87946320Y-85871779D01*
X87806742Y-85742754D01*
X87801503Y-85737911D01*
X87797258Y-85733987D01*
X87792375Y-85730906D01*
X87792371Y-85730903D01*
X87630464Y-85628748D01*
X87625581Y-85625667D01*
X87437039Y-85550446D01*
X87431379Y-85549320D01*
X87431375Y-85549319D01*
X87243613Y-85511971D01*
X87243610Y-85511971D01*
X87237946Y-85510844D01*
X87232171Y-85510768D01*
X87232167Y-85510768D01*
X87130793Y-85509441D01*
X87034971Y-85508187D01*
X87029274Y-85509166D01*
X87029273Y-85509166D01*
X86840607Y-85541585D01*
X86834910Y-85542564D01*
X86729671Y-85581389D01*
X86658839Y-85586201D01*
X86596966Y-85552272D01*
X86154478Y-85109784D01*
X86139336Y-85091036D01*
X86138221Y-85089811D01*
X86132571Y-85081060D01*
X86124393Y-85074613D01*
X86124391Y-85074611D01*
X86106200Y-85060271D01*
X86101759Y-85056325D01*
X86101697Y-85056398D01*
X86097733Y-85053039D01*
X86094056Y-85049362D01*
X86078308Y-85038108D01*
X86073638Y-85034602D01*
X86033353Y-85002844D01*
X86024719Y-84999812D01*
X86017266Y-84994486D01*
X85968150Y-84979797D01*
X85962508Y-84977964D01*
X85921633Y-84963610D01*
X85921632Y-84963610D01*
X85914149Y-84960982D01*
X85908584Y-84960500D01*
X85905876Y-84960500D01*
X85903242Y-84960386D01*
X85903144Y-84960357D01*
X85903151Y-84960193D01*
X85902447Y-84960149D01*
X85896222Y-84958287D01*
X85842365Y-84960403D01*
X85837418Y-84960500D01*
X85550061Y-84960500D01*
X85481940Y-84940498D01*
X85435447Y-84886842D01*
X85425343Y-84816568D01*
X85453187Y-84753931D01*
X85492449Y-84706724D01*
X85492456Y-84706714D01*
X85496147Y-84702276D01*
X85576747Y-84558355D01*
X85592510Y-84530208D01*
X85592511Y-84530206D01*
X85595334Y-84525165D01*
X85597190Y-84519698D01*
X85597192Y-84519693D01*
X85658728Y-84338414D01*
X85658729Y-84338409D01*
X85660584Y-84332945D01*
X85661412Y-84327236D01*
X85661413Y-84327231D01*
X85689179Y-84135727D01*
X85689712Y-84132053D01*
X85691232Y-84074000D01*
X85678683Y-83937432D01*
X85673187Y-83877613D01*
X85673186Y-83877610D01*
X85672658Y-83871859D01*
X85669108Y-83859270D01*
X85619125Y-83682046D01*
X85619124Y-83682044D01*
X85617557Y-83676487D01*
X85612897Y-83667036D01*
X85530331Y-83499609D01*
X85527776Y-83494428D01*
X85442992Y-83380888D01*
X85418260Y-83314339D01*
X85433434Y-83244983D01*
X85483696Y-83194841D01*
X85543950Y-83179500D01*
X85638616Y-83179500D01*
X85706737Y-83199502D01*
X85727711Y-83216405D01*
X86058477Y-83547171D01*
X86092503Y-83609483D01*
X86089715Y-83673630D01*
X86047614Y-83809217D01*
X86037007Y-83843378D01*
X86013148Y-84044964D01*
X86026424Y-84247522D01*
X86027845Y-84253118D01*
X86027846Y-84253123D01*
X86074068Y-84435117D01*
X86076392Y-84444269D01*
X86078809Y-84449512D01*
X86116010Y-84530208D01*
X86161377Y-84628616D01*
X86164710Y-84633332D01*
X86228416Y-84723474D01*
X86278533Y-84794389D01*
X86423938Y-84936035D01*
X86592720Y-85048812D01*
X86598023Y-85051090D01*
X86598026Y-85051092D01*
X86734636Y-85109784D01*
X86779228Y-85128942D01*
X86852244Y-85145464D01*
X86971579Y-85172467D01*
X86971584Y-85172468D01*
X86977216Y-85173742D01*
X86982987Y-85173969D01*
X86982989Y-85173969D01*
X87042756Y-85176317D01*
X87180053Y-85181712D01*
X87280499Y-85167148D01*
X87375231Y-85153413D01*
X87375236Y-85153412D01*
X87380945Y-85152584D01*
X87386409Y-85150729D01*
X87386414Y-85150728D01*
X87567693Y-85089192D01*
X87567698Y-85089190D01*
X87573165Y-85087334D01*
X87583026Y-85081812D01*
X87659980Y-85038715D01*
X87750276Y-84988147D01*
X87760314Y-84979799D01*
X87901913Y-84862031D01*
X87906345Y-84858345D01*
X87946256Y-84810358D01*
X88032453Y-84706718D01*
X88032455Y-84706715D01*
X88036147Y-84702276D01*
X88116747Y-84558355D01*
X88132510Y-84530208D01*
X88132511Y-84530206D01*
X88135334Y-84525165D01*
X88137190Y-84519698D01*
X88137192Y-84519693D01*
X88198728Y-84338414D01*
X88198729Y-84338409D01*
X88200584Y-84332945D01*
X88201412Y-84327236D01*
X88201413Y-84327231D01*
X88229179Y-84135727D01*
X88229712Y-84132053D01*
X88231232Y-84074000D01*
X88218683Y-83937432D01*
X88213187Y-83877613D01*
X88213186Y-83877610D01*
X88212658Y-83871859D01*
X88209108Y-83859270D01*
X88159125Y-83682046D01*
X88159124Y-83682044D01*
X88157557Y-83676487D01*
X88152897Y-83667036D01*
X88070331Y-83499609D01*
X88067776Y-83494428D01*
X87946320Y-83331779D01*
X87797258Y-83193987D01*
X87792375Y-83190906D01*
X87792371Y-83190903D01*
X87638252Y-83093662D01*
X87625581Y-83085667D01*
X87437039Y-83010446D01*
X87431379Y-83009320D01*
X87431375Y-83009319D01*
X87243613Y-82971971D01*
X87243610Y-82971971D01*
X87237946Y-82970844D01*
X87232171Y-82970768D01*
X87232167Y-82970768D01*
X87130793Y-82969441D01*
X87034971Y-82968187D01*
X87029274Y-82969166D01*
X87029273Y-82969166D01*
X86880204Y-82994781D01*
X86834910Y-83002564D01*
X86729671Y-83041389D01*
X86658839Y-83046201D01*
X86596966Y-83012272D01*
X86154478Y-82569784D01*
X86139336Y-82551036D01*
X86138221Y-82549811D01*
X86132571Y-82541060D01*
X86124393Y-82534613D01*
X86124391Y-82534611D01*
X86106200Y-82520271D01*
X86101759Y-82516325D01*
X86101697Y-82516398D01*
X86097733Y-82513039D01*
X86094056Y-82509362D01*
X86078308Y-82498108D01*
X86073638Y-82494602D01*
X86033353Y-82462844D01*
X86024719Y-82459812D01*
X86017266Y-82454486D01*
X85968150Y-82439797D01*
X85962508Y-82437964D01*
X85921633Y-82423610D01*
X85921632Y-82423610D01*
X85914149Y-82420982D01*
X85908584Y-82420500D01*
X85905876Y-82420500D01*
X85903242Y-82420386D01*
X85903144Y-82420357D01*
X85903151Y-82420193D01*
X85902447Y-82420149D01*
X85896222Y-82418287D01*
X85842365Y-82420403D01*
X85837418Y-82420500D01*
X85550061Y-82420500D01*
X85481940Y-82400498D01*
X85435447Y-82346842D01*
X85425343Y-82276568D01*
X85453187Y-82213931D01*
X85492449Y-82166723D01*
X85492452Y-82166719D01*
X85496147Y-82162276D01*
X85498973Y-82157231D01*
X85501377Y-82152937D01*
X85552112Y-82103274D01*
X85611313Y-82088500D01*
X86096052Y-82088500D01*
X86164173Y-82108502D01*
X86198949Y-82141780D01*
X86249940Y-82213931D01*
X86278533Y-82254389D01*
X86423938Y-82396035D01*
X86592720Y-82508812D01*
X86598023Y-82511090D01*
X86598026Y-82511092D01*
X86755324Y-82578672D01*
X86779228Y-82588942D01*
X86811702Y-82596290D01*
X86971579Y-82632467D01*
X86971584Y-82632468D01*
X86977216Y-82633742D01*
X86982987Y-82633969D01*
X86982989Y-82633969D01*
X87042756Y-82636317D01*
X87180053Y-82641712D01*
X87287348Y-82626155D01*
X87375231Y-82613413D01*
X87375236Y-82613412D01*
X87380945Y-82612584D01*
X87386409Y-82610729D01*
X87386414Y-82610728D01*
X87567693Y-82549192D01*
X87567698Y-82549190D01*
X87573165Y-82547334D01*
X87580444Y-82543258D01*
X87649590Y-82504534D01*
X87750276Y-82448147D01*
X87760314Y-82439799D01*
X87894462Y-82328228D01*
X87906345Y-82318345D01*
X87944595Y-82272355D01*
X88032453Y-82166718D01*
X88032455Y-82166715D01*
X88036147Y-82162276D01*
X88135334Y-81985165D01*
X88137190Y-81979698D01*
X88137192Y-81979693D01*
X88198728Y-81798414D01*
X88198729Y-81798409D01*
X88200584Y-81792945D01*
X88201412Y-81787236D01*
X88201413Y-81787231D01*
X88229179Y-81595727D01*
X88229712Y-81592053D01*
X88231232Y-81534000D01*
X88218683Y-81397432D01*
X88213187Y-81337613D01*
X88213186Y-81337610D01*
X88212658Y-81331859D01*
X88204701Y-81303645D01*
X88159125Y-81142046D01*
X88159124Y-81142044D01*
X88157557Y-81136487D01*
X88127823Y-81076191D01*
X88070331Y-80959609D01*
X88067776Y-80954428D01*
X87946320Y-80791779D01*
X87797258Y-80653987D01*
X87792375Y-80650906D01*
X87792371Y-80650903D01*
X87646728Y-80559010D01*
X87625581Y-80545667D01*
X87437039Y-80470446D01*
X87431379Y-80469320D01*
X87431375Y-80469319D01*
X87243613Y-80431971D01*
X87243610Y-80431971D01*
X87237946Y-80430844D01*
X87232171Y-80430768D01*
X87232167Y-80430768D01*
X87130793Y-80429441D01*
X87034971Y-80428187D01*
X87029274Y-80429166D01*
X87029273Y-80429166D01*
X86946658Y-80443362D01*
X86834910Y-80462564D01*
X86644463Y-80532824D01*
X86470010Y-80636612D01*
X86465670Y-80640418D01*
X86465666Y-80640421D01*
X86321733Y-80766648D01*
X86317392Y-80770455D01*
X86191720Y-80929869D01*
X86189966Y-80928486D01*
X86143507Y-80968360D01*
X86091707Y-80979500D01*
X85609663Y-80979500D01*
X85541542Y-80959498D01*
X85508705Y-80928889D01*
X85466386Y-80872217D01*
X85406320Y-80791779D01*
X85257258Y-80653987D01*
X85252375Y-80650906D01*
X85252371Y-80650903D01*
X85106728Y-80559010D01*
X85085581Y-80545667D01*
X84897039Y-80470446D01*
X84891379Y-80469320D01*
X84891375Y-80469319D01*
X84703613Y-80431971D01*
X84703610Y-80431971D01*
X84697946Y-80430844D01*
X84692171Y-80430768D01*
X84692167Y-80430768D01*
X84590793Y-80429441D01*
X84494971Y-80428187D01*
X84489274Y-80429166D01*
X84489273Y-80429166D01*
X84406658Y-80443362D01*
X84294910Y-80462564D01*
X84104463Y-80532824D01*
X83930010Y-80636612D01*
X83925670Y-80640418D01*
X83925666Y-80640421D01*
X83781733Y-80766648D01*
X83777392Y-80770455D01*
X83651720Y-80929869D01*
X83649966Y-80928486D01*
X83603507Y-80968360D01*
X83551707Y-80979500D01*
X83069663Y-80979500D01*
X83001542Y-80959498D01*
X82968705Y-80928889D01*
X82926386Y-80872217D01*
X82866320Y-80791779D01*
X82717258Y-80653987D01*
X82712375Y-80650906D01*
X82712371Y-80650903D01*
X82566728Y-80559010D01*
X82545581Y-80545667D01*
X82357039Y-80470446D01*
X82351379Y-80469320D01*
X82351375Y-80469319D01*
X82163613Y-80431971D01*
X82163610Y-80431971D01*
X82157946Y-80430844D01*
X82152171Y-80430768D01*
X82152167Y-80430768D01*
X82050793Y-80429441D01*
X81954971Y-80428187D01*
X81949274Y-80429166D01*
X81949273Y-80429166D01*
X81819068Y-80451539D01*
X81748544Y-80443362D01*
X81708635Y-80416454D01*
X81605776Y-80313595D01*
X81571750Y-80251283D01*
X81576815Y-80180468D01*
X81619362Y-80123632D01*
X81685882Y-80098821D01*
X81694871Y-80098500D01*
X82886630Y-80098499D01*
X82917066Y-80098499D01*
X82952818Y-80091388D01*
X82979126Y-80086156D01*
X82979128Y-80086155D01*
X82991301Y-80083734D01*
X83001621Y-80076839D01*
X83001622Y-80076838D01*
X83065168Y-80034377D01*
X83075484Y-80027484D01*
X83131734Y-79943301D01*
X83146500Y-79869067D01*
X83146499Y-78964964D01*
X83473148Y-78964964D01*
X83486424Y-79167522D01*
X83487845Y-79173118D01*
X83487846Y-79173123D01*
X83508119Y-79252945D01*
X83536392Y-79364269D01*
X83538809Y-79369512D01*
X83574388Y-79446688D01*
X83621377Y-79548616D01*
X83645857Y-79583254D01*
X83702800Y-79663827D01*
X83738533Y-79714389D01*
X83742675Y-79718424D01*
X83768709Y-79743785D01*
X83883938Y-79856035D01*
X84052720Y-79968812D01*
X84058023Y-79971090D01*
X84058026Y-79971092D01*
X84189283Y-80027484D01*
X84239228Y-80048942D01*
X84312244Y-80065464D01*
X84431579Y-80092467D01*
X84431584Y-80092468D01*
X84437216Y-80093742D01*
X84442987Y-80093969D01*
X84442989Y-80093969D01*
X84502756Y-80096317D01*
X84640053Y-80101712D01*
X84747341Y-80086156D01*
X84835231Y-80073413D01*
X84835236Y-80073412D01*
X84840945Y-80072584D01*
X84846409Y-80070729D01*
X84846414Y-80070728D01*
X85027693Y-80009192D01*
X85027698Y-80009190D01*
X85033165Y-80007334D01*
X85210276Y-79908147D01*
X85215882Y-79903485D01*
X85361913Y-79782031D01*
X85366345Y-79778345D01*
X85395985Y-79742707D01*
X85492453Y-79626718D01*
X85492455Y-79626715D01*
X85496147Y-79622276D01*
X85583751Y-79465848D01*
X85592510Y-79450208D01*
X85592511Y-79450206D01*
X85595334Y-79445165D01*
X85597190Y-79439698D01*
X85597192Y-79439693D01*
X85658728Y-79258414D01*
X85658729Y-79258409D01*
X85660584Y-79252945D01*
X85661412Y-79247236D01*
X85661413Y-79247231D01*
X85689179Y-79055727D01*
X85689712Y-79052053D01*
X85691232Y-78994000D01*
X85688564Y-78964964D01*
X86013148Y-78964964D01*
X86026424Y-79167522D01*
X86027845Y-79173118D01*
X86027846Y-79173123D01*
X86048119Y-79252945D01*
X86076392Y-79364269D01*
X86078809Y-79369512D01*
X86114388Y-79446688D01*
X86161377Y-79548616D01*
X86185857Y-79583254D01*
X86242800Y-79663827D01*
X86278533Y-79714389D01*
X86282675Y-79718424D01*
X86308709Y-79743785D01*
X86423938Y-79856035D01*
X86592720Y-79968812D01*
X86598023Y-79971090D01*
X86598026Y-79971092D01*
X86729283Y-80027484D01*
X86779228Y-80048942D01*
X86852244Y-80065464D01*
X86971579Y-80092467D01*
X86971584Y-80092468D01*
X86977216Y-80093742D01*
X86982987Y-80093969D01*
X86982989Y-80093969D01*
X87042756Y-80096317D01*
X87180053Y-80101712D01*
X87287341Y-80086156D01*
X87375231Y-80073413D01*
X87375236Y-80073412D01*
X87380945Y-80072584D01*
X87386409Y-80070729D01*
X87386414Y-80070728D01*
X87567693Y-80009192D01*
X87567698Y-80009190D01*
X87573165Y-80007334D01*
X87750276Y-79908147D01*
X87755882Y-79903485D01*
X87901913Y-79782031D01*
X87906345Y-79778345D01*
X87935985Y-79742707D01*
X88032453Y-79626718D01*
X88032455Y-79626715D01*
X88036147Y-79622276D01*
X88123751Y-79465848D01*
X88132510Y-79450208D01*
X88132511Y-79450206D01*
X88135334Y-79445165D01*
X88137190Y-79439698D01*
X88137192Y-79439693D01*
X88198728Y-79258414D01*
X88198729Y-79258409D01*
X88200584Y-79252945D01*
X88201412Y-79247236D01*
X88201413Y-79247231D01*
X88229179Y-79055727D01*
X88229712Y-79052053D01*
X88231232Y-78994000D01*
X88212658Y-78791859D01*
X88207112Y-78772193D01*
X88159125Y-78602046D01*
X88159124Y-78602044D01*
X88157557Y-78596487D01*
X88146978Y-78575033D01*
X88070331Y-78419609D01*
X88067776Y-78414428D01*
X87946320Y-78251779D01*
X87797258Y-78113987D01*
X87792375Y-78110906D01*
X87792371Y-78110903D01*
X87630464Y-78008748D01*
X87625581Y-78005667D01*
X87437039Y-77930446D01*
X87431379Y-77929320D01*
X87431375Y-77929319D01*
X87243613Y-77891971D01*
X87243610Y-77891971D01*
X87237946Y-77890844D01*
X87232171Y-77890768D01*
X87232167Y-77890768D01*
X87130793Y-77889441D01*
X87034971Y-77888187D01*
X87029274Y-77889166D01*
X87029273Y-77889166D01*
X86840607Y-77921585D01*
X86834910Y-77922564D01*
X86644463Y-77992824D01*
X86470010Y-78096612D01*
X86465670Y-78100418D01*
X86465666Y-78100421D01*
X86410540Y-78148766D01*
X86317392Y-78230455D01*
X86191720Y-78389869D01*
X86189031Y-78394980D01*
X86189029Y-78394983D01*
X86176073Y-78419609D01*
X86097203Y-78569515D01*
X86037007Y-78763378D01*
X86013148Y-78964964D01*
X85688564Y-78964964D01*
X85672658Y-78791859D01*
X85667112Y-78772193D01*
X85619125Y-78602046D01*
X85619124Y-78602044D01*
X85617557Y-78596487D01*
X85606978Y-78575033D01*
X85530331Y-78419609D01*
X85527776Y-78414428D01*
X85406320Y-78251779D01*
X85257258Y-78113987D01*
X85252375Y-78110906D01*
X85252371Y-78110903D01*
X85090464Y-78008748D01*
X85085581Y-78005667D01*
X84897039Y-77930446D01*
X84891379Y-77929320D01*
X84891375Y-77929319D01*
X84703613Y-77891971D01*
X84703610Y-77891971D01*
X84697946Y-77890844D01*
X84692171Y-77890768D01*
X84692167Y-77890768D01*
X84590793Y-77889441D01*
X84494971Y-77888187D01*
X84489274Y-77889166D01*
X84489273Y-77889166D01*
X84300607Y-77921585D01*
X84294910Y-77922564D01*
X84104463Y-77992824D01*
X83930010Y-78096612D01*
X83925670Y-78100418D01*
X83925666Y-78100421D01*
X83870540Y-78148766D01*
X83777392Y-78230455D01*
X83651720Y-78389869D01*
X83649031Y-78394980D01*
X83649029Y-78394983D01*
X83636073Y-78419609D01*
X83557203Y-78569515D01*
X83497007Y-78763378D01*
X83473148Y-78964964D01*
X83146499Y-78964964D01*
X83146499Y-78118934D01*
X83138350Y-78077963D01*
X83134156Y-78056874D01*
X83134155Y-78056872D01*
X83131734Y-78044699D01*
X83120715Y-78028207D01*
X83082377Y-77970832D01*
X83075484Y-77960516D01*
X82991301Y-77904266D01*
X82917067Y-77889500D01*
X82042142Y-77889500D01*
X81166934Y-77889501D01*
X81131182Y-77896612D01*
X81104874Y-77901844D01*
X81104872Y-77901845D01*
X81092699Y-77904266D01*
X81082379Y-77911161D01*
X81082378Y-77911162D01*
X81048879Y-77933546D01*
X81008516Y-77960516D01*
X80952266Y-78044699D01*
X80937500Y-78118933D01*
X80937501Y-78881474D01*
X80937501Y-79341130D01*
X80917499Y-79409251D01*
X80863843Y-79455744D01*
X80793569Y-79465848D01*
X80728989Y-79436355D01*
X80722406Y-79430225D01*
X79288039Y-77995858D01*
X79254013Y-77933546D01*
X79259078Y-77862731D01*
X79300429Y-77806801D01*
X79305366Y-77803013D01*
X79389474Y-77738474D01*
X79399746Y-77725088D01*
X79442164Y-77669807D01*
X79478355Y-77622642D01*
X79481623Y-77614754D01*
X79531069Y-77495380D01*
X79534228Y-77487754D01*
X79535488Y-77478188D01*
X79552207Y-77351188D01*
X79553285Y-77343000D01*
X79542980Y-77264726D01*
X79535306Y-77206432D01*
X79535305Y-77206430D01*
X79534228Y-77198246D01*
X79509482Y-77138505D01*
X79481515Y-77070986D01*
X79481514Y-77070984D01*
X79478355Y-77063358D01*
X79389474Y-76947526D01*
X79382924Y-76942500D01*
X79382921Y-76942497D01*
X79280196Y-76863673D01*
X79280194Y-76863672D01*
X79273643Y-76858645D01*
X79138754Y-76802772D01*
X78994000Y-76783715D01*
X78985812Y-76784793D01*
X78857432Y-76801694D01*
X78857430Y-76801695D01*
X78849246Y-76802772D01*
X78801430Y-76822578D01*
X78721986Y-76855485D01*
X78721984Y-76855486D01*
X78714358Y-76858645D01*
X78598526Y-76947526D01*
X78593503Y-76954072D01*
X78593499Y-76954076D01*
X78530199Y-77036570D01*
X78472861Y-77078437D01*
X78401990Y-77082659D01*
X78341142Y-77048961D01*
X77707776Y-76415595D01*
X77673750Y-76353283D01*
X77678815Y-76282468D01*
X77721362Y-76225632D01*
X77787882Y-76200821D01*
X77796871Y-76200500D01*
X90805500Y-76200500D01*
X90873621Y-76220502D01*
X90920114Y-76274158D01*
X90931500Y-76326500D01*
X90931500Y-80438373D01*
X90911498Y-80506494D01*
X90857842Y-80552987D01*
X90787568Y-80563091D01*
X90722988Y-80533597D01*
X90706842Y-80515297D01*
X90702377Y-80510832D01*
X90695484Y-80500516D01*
X90611301Y-80444266D01*
X90537067Y-80429500D01*
X89662142Y-80429500D01*
X88786934Y-80429501D01*
X88751182Y-80436612D01*
X88724874Y-80441844D01*
X88724872Y-80441845D01*
X88712699Y-80444266D01*
X88702379Y-80451161D01*
X88702378Y-80451162D01*
X88641985Y-80491516D01*
X88628516Y-80500516D01*
X88572266Y-80584699D01*
X88557500Y-80658933D01*
X88557501Y-82409066D01*
X88563249Y-82437964D01*
X88569480Y-82469293D01*
X88572266Y-82483301D01*
X88579161Y-82493621D01*
X88579162Y-82493622D01*
X88616678Y-82549767D01*
X88628516Y-82567484D01*
X88638832Y-82574377D01*
X88701731Y-82616405D01*
X88712699Y-82623734D01*
X88786933Y-82638500D01*
X89661858Y-82638500D01*
X90537066Y-82638499D01*
X90572818Y-82631388D01*
X90599126Y-82626156D01*
X90599128Y-82626155D01*
X90611301Y-82623734D01*
X90621621Y-82616839D01*
X90621622Y-82616838D01*
X90685168Y-82574377D01*
X90695484Y-82567484D01*
X90702377Y-82557168D01*
X90711154Y-82548391D01*
X90712530Y-82549767D01*
X90755210Y-82514098D01*
X90825653Y-82505249D01*
X90889697Y-82535889D01*
X90927010Y-82596290D01*
X90931500Y-82629627D01*
X90931500Y-83610492D01*
X90911498Y-83678613D01*
X90857842Y-83725106D01*
X90787568Y-83735210D01*
X90722988Y-83705716D01*
X90692494Y-83666220D01*
X90610331Y-83499609D01*
X90607776Y-83494428D01*
X90486320Y-83331779D01*
X90337258Y-83193987D01*
X90332375Y-83190906D01*
X90332371Y-83190903D01*
X90178252Y-83093662D01*
X90165581Y-83085667D01*
X89977039Y-83010446D01*
X89971379Y-83009320D01*
X89971375Y-83009319D01*
X89783613Y-82971971D01*
X89783610Y-82971971D01*
X89777946Y-82970844D01*
X89772171Y-82970768D01*
X89772167Y-82970768D01*
X89670793Y-82969441D01*
X89574971Y-82968187D01*
X89569274Y-82969166D01*
X89569273Y-82969166D01*
X89420204Y-82994781D01*
X89374910Y-83002564D01*
X89184463Y-83072824D01*
X89010010Y-83176612D01*
X89005670Y-83180418D01*
X89005666Y-83180421D01*
X88941966Y-83236285D01*
X88857392Y-83310455D01*
X88731720Y-83469869D01*
X88729031Y-83474980D01*
X88729029Y-83474983D01*
X88716073Y-83499609D01*
X88637203Y-83649515D01*
X88577007Y-83843378D01*
X88553148Y-84044964D01*
X88566424Y-84247522D01*
X88567845Y-84253118D01*
X88567846Y-84253123D01*
X88614068Y-84435117D01*
X88616392Y-84444269D01*
X88618809Y-84449512D01*
X88656010Y-84530208D01*
X88701377Y-84628616D01*
X88704710Y-84633332D01*
X88768416Y-84723474D01*
X88818533Y-84794389D01*
X88963938Y-84936035D01*
X89132720Y-85048812D01*
X89138023Y-85051090D01*
X89138026Y-85051092D01*
X89274636Y-85109784D01*
X89319228Y-85128942D01*
X89392244Y-85145464D01*
X89511579Y-85172467D01*
X89511584Y-85172468D01*
X89517216Y-85173742D01*
X89522987Y-85173969D01*
X89522989Y-85173969D01*
X89582756Y-85176317D01*
X89720053Y-85181712D01*
X89820499Y-85167148D01*
X89915231Y-85153413D01*
X89915236Y-85153412D01*
X89920945Y-85152584D01*
X89926409Y-85150729D01*
X89926414Y-85150728D01*
X90107693Y-85089192D01*
X90107698Y-85089190D01*
X90113165Y-85087334D01*
X90123026Y-85081812D01*
X90199980Y-85038715D01*
X90290276Y-84988147D01*
X90300314Y-84979799D01*
X90441913Y-84862031D01*
X90446345Y-84858345D01*
X90486256Y-84810358D01*
X90572453Y-84706718D01*
X90572455Y-84706715D01*
X90576147Y-84702276D01*
X90656747Y-84558355D01*
X90672510Y-84530208D01*
X90672511Y-84530206D01*
X90675334Y-84525165D01*
X90677190Y-84519698D01*
X90677192Y-84519693D01*
X90686187Y-84493193D01*
X90727024Y-84435117D01*
X90792777Y-84408338D01*
X90862569Y-84421359D01*
X90914242Y-84470046D01*
X90931500Y-84533694D01*
X90931500Y-91567500D01*
X90911498Y-91635621D01*
X90857842Y-91682114D01*
X90805500Y-91693500D01*
X76256551Y-91693500D01*
X76188430Y-91673498D01*
X76141937Y-91619842D01*
X76131833Y-91549568D01*
X76156589Y-91490795D01*
X76169328Y-91474194D01*
X76169330Y-91474191D01*
X76174355Y-91467642D01*
X76230228Y-91332754D01*
X76249285Y-91188000D01*
X76230228Y-91043246D01*
X76174355Y-90908358D01*
X76108669Y-90822754D01*
X76090501Y-90799077D01*
X76090500Y-90799076D01*
X76085474Y-90792526D01*
X76078924Y-90787500D01*
X76078921Y-90787497D01*
X75976196Y-90708673D01*
X75976194Y-90708672D01*
X75969643Y-90703645D01*
X75834754Y-90647772D01*
X75690000Y-90628715D01*
X75681812Y-90629793D01*
X75553432Y-90646694D01*
X75553430Y-90646695D01*
X75545246Y-90647772D01*
X75521725Y-90657515D01*
X75417986Y-90700485D01*
X75417984Y-90700486D01*
X75410358Y-90703645D01*
X75294526Y-90792526D01*
X75205645Y-90908358D01*
X75149772Y-91043246D01*
X75130715Y-91188000D01*
X75149772Y-91332754D01*
X75205645Y-91467642D01*
X75210670Y-91474191D01*
X75210672Y-91474194D01*
X75223411Y-91490795D01*
X75249012Y-91557015D01*
X75234748Y-91626564D01*
X75185147Y-91677361D01*
X75123449Y-91693500D01*
X57022500Y-91693500D01*
X56954379Y-91673498D01*
X56907886Y-91619842D01*
X56896500Y-91567500D01*
X56896500Y-89610000D01*
X58800715Y-89610000D01*
X58801793Y-89618188D01*
X58817204Y-89735246D01*
X58819772Y-89754754D01*
X58875645Y-89889642D01*
X58880672Y-89896193D01*
X58957566Y-89996403D01*
X58964526Y-90005474D01*
X58971076Y-90010500D01*
X58971079Y-90010503D01*
X59045170Y-90067355D01*
X59080357Y-90094355D01*
X59215246Y-90150228D01*
X59360000Y-90169285D01*
X59368188Y-90168207D01*
X59496566Y-90151306D01*
X59504754Y-90150228D01*
X59540562Y-90135396D01*
X59611150Y-90127807D01*
X59674637Y-90159586D01*
X59710865Y-90220644D01*
X59708331Y-90291595D01*
X59688742Y-90328509D01*
X59635145Y-90398358D01*
X59631986Y-90405984D01*
X59631985Y-90405986D01*
X59618639Y-90438207D01*
X59579272Y-90533246D01*
X59578195Y-90541430D01*
X59578194Y-90541432D01*
X59572205Y-90586923D01*
X59560215Y-90678000D01*
X59579272Y-90822754D01*
X59635145Y-90957642D01*
X59640172Y-90964193D01*
X59707113Y-91051432D01*
X59724026Y-91073474D01*
X59730576Y-91078500D01*
X59730579Y-91078503D01*
X59833304Y-91157327D01*
X59839857Y-91162355D01*
X59974746Y-91218228D01*
X60119500Y-91237285D01*
X60127688Y-91236207D01*
X60256066Y-91219306D01*
X60264254Y-91218228D01*
X60399143Y-91162355D01*
X60405696Y-91157327D01*
X60508421Y-91078503D01*
X60508424Y-91078500D01*
X60514974Y-91073474D01*
X60531888Y-91051432D01*
X60598828Y-90964193D01*
X60603855Y-90957642D01*
X60659728Y-90822754D01*
X60678785Y-90678000D01*
X60666795Y-90586923D01*
X60660806Y-90541432D01*
X60660805Y-90541430D01*
X60659728Y-90533246D01*
X60620361Y-90438207D01*
X60607015Y-90405986D01*
X60607014Y-90405984D01*
X60603855Y-90398358D01*
X60545555Y-90322380D01*
X60520001Y-90289077D01*
X60520000Y-90289076D01*
X60514974Y-90282526D01*
X60508424Y-90277500D01*
X60508421Y-90277497D01*
X60405696Y-90198673D01*
X60405694Y-90198672D01*
X60399143Y-90193645D01*
X60264254Y-90137772D01*
X60246207Y-90135396D01*
X60127688Y-90119793D01*
X60119500Y-90118715D01*
X60111312Y-90119793D01*
X59982932Y-90136694D01*
X59982930Y-90136695D01*
X59974746Y-90137772D01*
X59967117Y-90140932D01*
X59938940Y-90152603D01*
X59868351Y-90160192D01*
X59804864Y-90128413D01*
X59768636Y-90067355D01*
X59771170Y-89996403D01*
X59790759Y-89959490D01*
X59839328Y-89896193D01*
X59844355Y-89889642D01*
X59848349Y-89880000D01*
X64460715Y-89880000D01*
X64461793Y-89888188D01*
X64477234Y-90005474D01*
X64479772Y-90024754D01*
X64482931Y-90032380D01*
X64531746Y-90150228D01*
X64535645Y-90159642D01*
X64624526Y-90275474D01*
X64631076Y-90280500D01*
X64631079Y-90280503D01*
X64733804Y-90359327D01*
X64740357Y-90364355D01*
X64875246Y-90420228D01*
X65020000Y-90439285D01*
X65028188Y-90438207D01*
X65156566Y-90421306D01*
X65164754Y-90420228D01*
X65299643Y-90364355D01*
X65306196Y-90359327D01*
X65408921Y-90280503D01*
X65408924Y-90280500D01*
X65415474Y-90275474D01*
X65504355Y-90159642D01*
X65508255Y-90150228D01*
X65557069Y-90032380D01*
X65560228Y-90024754D01*
X65562767Y-90005474D01*
X65578207Y-89888188D01*
X65579285Y-89880000D01*
X65569948Y-89809077D01*
X65561306Y-89743432D01*
X65561305Y-89743430D01*
X65560228Y-89735246D01*
X65529888Y-89662000D01*
X66496715Y-89662000D01*
X66497793Y-89670188D01*
X66512420Y-89781289D01*
X66515772Y-89806754D01*
X66571645Y-89941642D01*
X66576672Y-89948193D01*
X66635797Y-90025246D01*
X66660526Y-90057474D01*
X66667076Y-90062500D01*
X66667079Y-90062503D01*
X66769804Y-90141327D01*
X66776357Y-90146355D01*
X66911246Y-90202228D01*
X66919434Y-90203306D01*
X66983623Y-90211757D01*
X67056000Y-90221285D01*
X67064188Y-90220207D01*
X67192566Y-90203306D01*
X67200754Y-90202228D01*
X67335643Y-90146355D01*
X67342196Y-90141327D01*
X67444921Y-90062503D01*
X67444924Y-90062500D01*
X67451474Y-90057474D01*
X67476204Y-90025246D01*
X67535328Y-89948193D01*
X67540355Y-89941642D01*
X67561895Y-89889642D01*
X67574591Y-89858990D01*
X67619140Y-89803710D01*
X67686503Y-89781289D01*
X67755294Y-89798847D01*
X67803673Y-89850810D01*
X67807409Y-89858990D01*
X67820106Y-89889642D01*
X67841645Y-89941642D01*
X67846672Y-89948193D01*
X67905797Y-90025246D01*
X67930526Y-90057474D01*
X67937076Y-90062500D01*
X67937079Y-90062503D01*
X68039804Y-90141327D01*
X68046357Y-90146355D01*
X68181246Y-90202228D01*
X68189434Y-90203306D01*
X68253623Y-90211757D01*
X68326000Y-90221285D01*
X68334188Y-90220207D01*
X68462566Y-90203306D01*
X68470754Y-90202228D01*
X68480961Y-90198000D01*
X71576715Y-90198000D01*
X71577793Y-90206188D01*
X71593897Y-90328509D01*
X71595772Y-90342754D01*
X71615578Y-90390570D01*
X71628310Y-90421306D01*
X71651645Y-90477642D01*
X71656672Y-90484193D01*
X71735498Y-90586921D01*
X71740526Y-90593474D01*
X71747076Y-90598500D01*
X71747079Y-90598503D01*
X71849804Y-90677327D01*
X71856357Y-90682355D01*
X71991246Y-90738228D01*
X72136000Y-90757285D01*
X72144188Y-90756207D01*
X72272566Y-90739306D01*
X72280754Y-90738228D01*
X72415643Y-90682355D01*
X72422196Y-90677327D01*
X72524921Y-90598503D01*
X72524924Y-90598500D01*
X72531474Y-90593474D01*
X72539095Y-90583543D01*
X72544038Y-90577101D01*
X72601377Y-90535234D01*
X72672248Y-90531013D01*
X72734150Y-90565778D01*
X72743962Y-90577101D01*
X72748905Y-90583543D01*
X72756526Y-90593474D01*
X72763076Y-90598500D01*
X72763079Y-90598503D01*
X72865804Y-90677327D01*
X72872357Y-90682355D01*
X73007246Y-90738228D01*
X73152000Y-90757285D01*
X73160188Y-90756207D01*
X73288566Y-90739306D01*
X73296754Y-90738228D01*
X73431643Y-90682355D01*
X73438196Y-90677327D01*
X73540921Y-90598503D01*
X73540924Y-90598500D01*
X73547474Y-90593474D01*
X73552503Y-90586921D01*
X73631328Y-90484193D01*
X73636355Y-90477642D01*
X73659691Y-90421306D01*
X73672422Y-90390570D01*
X73692228Y-90342754D01*
X73694104Y-90328509D01*
X73710207Y-90206188D01*
X73711285Y-90198000D01*
X73707599Y-90170000D01*
X77672715Y-90170000D01*
X77673793Y-90178188D01*
X77688392Y-90289077D01*
X77691772Y-90314754D01*
X77694931Y-90322380D01*
X77735908Y-90421306D01*
X77747645Y-90449642D01*
X77752672Y-90456193D01*
X77811797Y-90533246D01*
X77836526Y-90565474D01*
X77843076Y-90570500D01*
X77843079Y-90570503D01*
X77945804Y-90649327D01*
X77952357Y-90654355D01*
X78087246Y-90710228D01*
X78232000Y-90729285D01*
X78240188Y-90728207D01*
X78368566Y-90711306D01*
X78376754Y-90710228D01*
X78511643Y-90654355D01*
X78518196Y-90649327D01*
X78620921Y-90570503D01*
X78620924Y-90570500D01*
X78627474Y-90565474D01*
X78652204Y-90533246D01*
X78711328Y-90456193D01*
X78716355Y-90449642D01*
X78728093Y-90421306D01*
X78769069Y-90322380D01*
X78772228Y-90314754D01*
X78775609Y-90289077D01*
X78790207Y-90178188D01*
X78791285Y-90170000D01*
X78775914Y-90053246D01*
X78773306Y-90033432D01*
X78773305Y-90033430D01*
X78772228Y-90025246D01*
X78716355Y-89890358D01*
X78658055Y-89814380D01*
X78632501Y-89781077D01*
X78632500Y-89781076D01*
X78627474Y-89774526D01*
X78620924Y-89769500D01*
X78620921Y-89769497D01*
X78518196Y-89690673D01*
X78518194Y-89690672D01*
X78511643Y-89685645D01*
X78376754Y-89629772D01*
X78232000Y-89610715D01*
X78223812Y-89611793D01*
X78095432Y-89628694D01*
X78095430Y-89628695D01*
X78087246Y-89629772D01*
X78058896Y-89641515D01*
X77959986Y-89682485D01*
X77959984Y-89682486D01*
X77952358Y-89685645D01*
X77836526Y-89774526D01*
X77831503Y-89781072D01*
X77818900Y-89797497D01*
X77747645Y-89890358D01*
X77691772Y-90025246D01*
X77690695Y-90033430D01*
X77690694Y-90033432D01*
X77688086Y-90053246D01*
X77672715Y-90170000D01*
X73707599Y-90170000D01*
X73706228Y-90159586D01*
X73693306Y-90061432D01*
X73693305Y-90061430D01*
X73692228Y-90053246D01*
X73636355Y-89918358D01*
X73568726Y-89830222D01*
X73552501Y-89809077D01*
X73552500Y-89809076D01*
X73547474Y-89802526D01*
X73540924Y-89797500D01*
X73540921Y-89797497D01*
X73438196Y-89718673D01*
X73438194Y-89718672D01*
X73431643Y-89713645D01*
X73296754Y-89657772D01*
X73266675Y-89653812D01*
X73160188Y-89639793D01*
X73152000Y-89638715D01*
X73143812Y-89639793D01*
X73015432Y-89656694D01*
X73015430Y-89656695D01*
X73007246Y-89657772D01*
X72959430Y-89677578D01*
X72879986Y-89710485D01*
X72879984Y-89710486D01*
X72872358Y-89713645D01*
X72756526Y-89802526D01*
X72751503Y-89809072D01*
X72751502Y-89809073D01*
X72743962Y-89818899D01*
X72686623Y-89860766D01*
X72615752Y-89864987D01*
X72553850Y-89830222D01*
X72544038Y-89818899D01*
X72536502Y-89809079D01*
X72531474Y-89802526D01*
X72524924Y-89797500D01*
X72524921Y-89797497D01*
X72422196Y-89718673D01*
X72422194Y-89718672D01*
X72415643Y-89713645D01*
X72280754Y-89657772D01*
X72250675Y-89653812D01*
X72144188Y-89639793D01*
X72136000Y-89638715D01*
X72127812Y-89639793D01*
X71999432Y-89656694D01*
X71999430Y-89656695D01*
X71991246Y-89657772D01*
X71943430Y-89677578D01*
X71863986Y-89710485D01*
X71863984Y-89710486D01*
X71856358Y-89713645D01*
X71740526Y-89802526D01*
X71651645Y-89918358D01*
X71595772Y-90053246D01*
X71594695Y-90061430D01*
X71594694Y-90061432D01*
X71581772Y-90159586D01*
X71576715Y-90198000D01*
X68480961Y-90198000D01*
X68605643Y-90146355D01*
X68612196Y-90141327D01*
X68714921Y-90062503D01*
X68714924Y-90062500D01*
X68721474Y-90057474D01*
X68746204Y-90025246D01*
X68805328Y-89948193D01*
X68810355Y-89941642D01*
X68866228Y-89806754D01*
X68869581Y-89781289D01*
X68884207Y-89670188D01*
X68885285Y-89662000D01*
X68870471Y-89549474D01*
X68867306Y-89525432D01*
X68867305Y-89525430D01*
X68866228Y-89517246D01*
X68828438Y-89426014D01*
X68813515Y-89389986D01*
X68813514Y-89389984D01*
X68810355Y-89382358D01*
X68752055Y-89306380D01*
X68726501Y-89273077D01*
X68726500Y-89273076D01*
X68721474Y-89266526D01*
X68714924Y-89261500D01*
X68714921Y-89261497D01*
X68612196Y-89182673D01*
X68612194Y-89182672D01*
X68605643Y-89177645D01*
X68548559Y-89154000D01*
X69290715Y-89154000D01*
X69291793Y-89162188D01*
X69306392Y-89273077D01*
X69309772Y-89298754D01*
X69312931Y-89306380D01*
X69351989Y-89400673D01*
X69365645Y-89433642D01*
X69370672Y-89440193D01*
X69429797Y-89517246D01*
X69454526Y-89549474D01*
X69461076Y-89554500D01*
X69461079Y-89554503D01*
X69563804Y-89633327D01*
X69570357Y-89638355D01*
X69705246Y-89694228D01*
X69850000Y-89713285D01*
X69858188Y-89712207D01*
X69986566Y-89695306D01*
X69994754Y-89694228D01*
X70129643Y-89638355D01*
X70136196Y-89633327D01*
X70238921Y-89554503D01*
X70238924Y-89554500D01*
X70245474Y-89549474D01*
X70270204Y-89517246D01*
X70329328Y-89440193D01*
X70334355Y-89433642D01*
X70348012Y-89400673D01*
X70387069Y-89306380D01*
X70390228Y-89298754D01*
X70393609Y-89273077D01*
X70406699Y-89173645D01*
X70435421Y-89108717D01*
X70442526Y-89100996D01*
X71605480Y-87938042D01*
X71624489Y-87922689D01*
X71625552Y-87921722D01*
X71634304Y-87916071D01*
X71655229Y-87889528D01*
X71659208Y-87885050D01*
X71659137Y-87884990D01*
X71662490Y-87881033D01*
X71666171Y-87877352D01*
X71677469Y-87861543D01*
X71681032Y-87856798D01*
X71706485Y-87824510D01*
X71712934Y-87816330D01*
X71715984Y-87807645D01*
X71721334Y-87800158D01*
X71736109Y-87750753D01*
X71737930Y-87745150D01*
X71752388Y-87703981D01*
X71755016Y-87696498D01*
X71755500Y-87690909D01*
X71755500Y-87688196D01*
X71755615Y-87685531D01*
X71755634Y-87685468D01*
X71755808Y-87685475D01*
X71755855Y-87684729D01*
X71757725Y-87678476D01*
X71755597Y-87624322D01*
X71755500Y-87619375D01*
X71755500Y-86824820D01*
X78561715Y-86824820D01*
X78562793Y-86833008D01*
X78576539Y-86937418D01*
X78580772Y-86969574D01*
X78586859Y-86984269D01*
X78630013Y-87088450D01*
X78636645Y-87104462D01*
X78725526Y-87220294D01*
X78732076Y-87225320D01*
X78732079Y-87225323D01*
X78834804Y-87304147D01*
X78841357Y-87309175D01*
X78976246Y-87365048D01*
X79121000Y-87384105D01*
X79129188Y-87383027D01*
X79257566Y-87366126D01*
X79265754Y-87365048D01*
X79400643Y-87309175D01*
X79407196Y-87304147D01*
X79509921Y-87225323D01*
X79509924Y-87225320D01*
X79516474Y-87220294D01*
X79605355Y-87104462D01*
X79611988Y-87088450D01*
X79655141Y-86984269D01*
X79661228Y-86969574D01*
X79665462Y-86937418D01*
X79679207Y-86833008D01*
X79680285Y-86824820D01*
X79675375Y-86787522D01*
X79662306Y-86688252D01*
X79662305Y-86688250D01*
X79661228Y-86680066D01*
X79632332Y-86610305D01*
X79608515Y-86552806D01*
X79608514Y-86552804D01*
X79605355Y-86545178D01*
X79560914Y-86487262D01*
X79521501Y-86435897D01*
X79521500Y-86435896D01*
X79516474Y-86429346D01*
X79509924Y-86424320D01*
X79509921Y-86424317D01*
X79407196Y-86345493D01*
X79407194Y-86345492D01*
X79400643Y-86340465D01*
X79265754Y-86284592D01*
X79121000Y-86265535D01*
X79112812Y-86266613D01*
X78984432Y-86283514D01*
X78984430Y-86283515D01*
X78976246Y-86284592D01*
X78928430Y-86304398D01*
X78848986Y-86337305D01*
X78848984Y-86337306D01*
X78841358Y-86340465D01*
X78792623Y-86377861D01*
X78748316Y-86411859D01*
X78725526Y-86429346D01*
X78636645Y-86545178D01*
X78633486Y-86552804D01*
X78633485Y-86552806D01*
X78609668Y-86610305D01*
X78580772Y-86680066D01*
X78579695Y-86688250D01*
X78579694Y-86688252D01*
X78566625Y-86787522D01*
X78561715Y-86824820D01*
X71755500Y-86824820D01*
X71755500Y-84530457D01*
X71775502Y-84462336D01*
X71781538Y-84453753D01*
X71853325Y-84360198D01*
X71853328Y-84360193D01*
X71858355Y-84353642D01*
X71868977Y-84328000D01*
X71902312Y-84247522D01*
X71914228Y-84218754D01*
X71933285Y-84074000D01*
X71914228Y-83929246D01*
X71858355Y-83794358D01*
X71769474Y-83678526D01*
X71762924Y-83673500D01*
X71762921Y-83673497D01*
X71660196Y-83594673D01*
X71660194Y-83594672D01*
X71653643Y-83589645D01*
X71518754Y-83533772D01*
X71374000Y-83514715D01*
X71365812Y-83515793D01*
X71237432Y-83532694D01*
X71237430Y-83532695D01*
X71229246Y-83533772D01*
X71208525Y-83542355D01*
X71101986Y-83586485D01*
X71101984Y-83586486D01*
X71094358Y-83589645D01*
X70978526Y-83678526D01*
X70889645Y-83794358D01*
X70833772Y-83929246D01*
X70814715Y-84074000D01*
X70833772Y-84218754D01*
X70845688Y-84247522D01*
X70879024Y-84328000D01*
X70889645Y-84353642D01*
X70894672Y-84360193D01*
X70894675Y-84360198D01*
X70966462Y-84453753D01*
X70992063Y-84519973D01*
X70992500Y-84530457D01*
X70992500Y-87419788D01*
X70972498Y-87487909D01*
X70955595Y-87508883D01*
X69903003Y-88561474D01*
X69840691Y-88595500D01*
X69830355Y-88597301D01*
X69791267Y-88602447D01*
X69705246Y-88613772D01*
X69697619Y-88616931D01*
X69697620Y-88616931D01*
X69577986Y-88666485D01*
X69577984Y-88666486D01*
X69570358Y-88669645D01*
X69454526Y-88758526D01*
X69365645Y-88874358D01*
X69362486Y-88881984D01*
X69362485Y-88881986D01*
X69339254Y-88938071D01*
X69309772Y-89009246D01*
X69308695Y-89017430D01*
X69308694Y-89017432D01*
X69295100Y-89120694D01*
X69290715Y-89154000D01*
X68548559Y-89154000D01*
X68470754Y-89121772D01*
X68326000Y-89102715D01*
X68322398Y-89103189D01*
X68256334Y-89083791D01*
X68209841Y-89030135D01*
X68200712Y-88966645D01*
X68199016Y-88966498D01*
X68199266Y-88963614D01*
X68199266Y-88963608D01*
X68199500Y-88960909D01*
X68199500Y-88958198D01*
X68199615Y-88955531D01*
X68199634Y-88955468D01*
X68199808Y-88955475D01*
X68199855Y-88954729D01*
X68201725Y-88948476D01*
X68199597Y-88894312D01*
X68199500Y-88889366D01*
X68199500Y-82244457D01*
X68219502Y-82176336D01*
X68225538Y-82167753D01*
X68297325Y-82074198D01*
X68297328Y-82074193D01*
X68302355Y-82067642D01*
X68311480Y-82045614D01*
X68340885Y-81974623D01*
X68358228Y-81932754D01*
X68359350Y-81924237D01*
X68376207Y-81796188D01*
X68377285Y-81788000D01*
X68368291Y-81719683D01*
X68359306Y-81651432D01*
X68359305Y-81651430D01*
X68358228Y-81643246D01*
X68314511Y-81537704D01*
X68305515Y-81515986D01*
X68305514Y-81515984D01*
X68302355Y-81508358D01*
X68234922Y-81420478D01*
X68218501Y-81399077D01*
X68218500Y-81399076D01*
X68213474Y-81392526D01*
X68206924Y-81387500D01*
X68206921Y-81387497D01*
X68104196Y-81308673D01*
X68104194Y-81308672D01*
X68097643Y-81303645D01*
X67962754Y-81247772D01*
X67818000Y-81228715D01*
X67809812Y-81229793D01*
X67681432Y-81246694D01*
X67681430Y-81246695D01*
X67673246Y-81247772D01*
X67638931Y-81261986D01*
X67545986Y-81300485D01*
X67545984Y-81300486D01*
X67538358Y-81303645D01*
X67422526Y-81392526D01*
X67417503Y-81399072D01*
X67401078Y-81420478D01*
X67333645Y-81508358D01*
X67330486Y-81515984D01*
X67330485Y-81515986D01*
X67321489Y-81537704D01*
X67277772Y-81643246D01*
X67276695Y-81651430D01*
X67276694Y-81651432D01*
X67267709Y-81719683D01*
X67258715Y-81788000D01*
X67259793Y-81796188D01*
X67276651Y-81924237D01*
X67277772Y-81932754D01*
X67295115Y-81974623D01*
X67324521Y-82045614D01*
X67333645Y-82067642D01*
X67338672Y-82074193D01*
X67338675Y-82074198D01*
X67410462Y-82167753D01*
X67436063Y-82233973D01*
X67436500Y-82244457D01*
X67436500Y-82426849D01*
X67416498Y-82494970D01*
X67362842Y-82541463D01*
X67292568Y-82551567D01*
X67262285Y-82543259D01*
X67200754Y-82517772D01*
X67190318Y-82516398D01*
X67113949Y-82506344D01*
X67056000Y-82498715D01*
X67047812Y-82499793D01*
X66919432Y-82516694D01*
X66919430Y-82516695D01*
X66911246Y-82517772D01*
X66867508Y-82535889D01*
X66783986Y-82570485D01*
X66783984Y-82570486D01*
X66776358Y-82573645D01*
X66660526Y-82662526D01*
X66571645Y-82778358D01*
X66568486Y-82785984D01*
X66568485Y-82785986D01*
X66553605Y-82821909D01*
X66515772Y-82913246D01*
X66514695Y-82921430D01*
X66514694Y-82921432D01*
X66502735Y-83012272D01*
X66496715Y-83058000D01*
X66497793Y-83066188D01*
X66513059Y-83182144D01*
X66515772Y-83202754D01*
X66522214Y-83218306D01*
X66562893Y-83316512D01*
X66571645Y-83337642D01*
X66660526Y-83453474D01*
X66675500Y-83464964D01*
X66676901Y-83466039D01*
X66718767Y-83523378D01*
X66722987Y-83594249D01*
X66688222Y-83656151D01*
X66676897Y-83665964D01*
X66660526Y-83678526D01*
X66571645Y-83794358D01*
X66515772Y-83929246D01*
X66496715Y-84074000D01*
X66515772Y-84218754D01*
X66527688Y-84247522D01*
X66561024Y-84328000D01*
X66571645Y-84353642D01*
X66576672Y-84360193D01*
X66645209Y-84449512D01*
X66660526Y-84469474D01*
X66674739Y-84480380D01*
X66676901Y-84482039D01*
X66718767Y-84539378D01*
X66722987Y-84610249D01*
X66688222Y-84672151D01*
X66676897Y-84681964D01*
X66660526Y-84694526D01*
X66571645Y-84810358D01*
X66568486Y-84817984D01*
X66568485Y-84817986D01*
X66553604Y-84853913D01*
X66515772Y-84945246D01*
X66514695Y-84953430D01*
X66514694Y-84953432D01*
X66509095Y-84995963D01*
X66496715Y-85090000D01*
X66497793Y-85098188D01*
X66507770Y-85173969D01*
X66515772Y-85234754D01*
X66571645Y-85369642D01*
X66576672Y-85376193D01*
X66635797Y-85453246D01*
X66660526Y-85485474D01*
X66667076Y-85490500D01*
X66667079Y-85490503D01*
X66745198Y-85550446D01*
X66776357Y-85574355D01*
X66911246Y-85630228D01*
X67056000Y-85649285D01*
X67064188Y-85648207D01*
X67192566Y-85631306D01*
X67200754Y-85630228D01*
X67262283Y-85604742D01*
X67332871Y-85597153D01*
X67396358Y-85628932D01*
X67432586Y-85689990D01*
X67436500Y-85721151D01*
X67436500Y-88689787D01*
X67416498Y-88757908D01*
X67399595Y-88778882D01*
X67109003Y-89069474D01*
X67046691Y-89103500D01*
X67036355Y-89105301D01*
X66997267Y-89110447D01*
X66911246Y-89121772D01*
X66875603Y-89136536D01*
X66783986Y-89174485D01*
X66783984Y-89174486D01*
X66776358Y-89177645D01*
X66660526Y-89266526D01*
X66571645Y-89382358D01*
X66568486Y-89389984D01*
X66568485Y-89389986D01*
X66553562Y-89426014D01*
X66515772Y-89517246D01*
X66514695Y-89525430D01*
X66514694Y-89525432D01*
X66511529Y-89549474D01*
X66496715Y-89662000D01*
X65529888Y-89662000D01*
X65529446Y-89660932D01*
X65507515Y-89607986D01*
X65507514Y-89607984D01*
X65504355Y-89600358D01*
X65415474Y-89484526D01*
X65408924Y-89479500D01*
X65408921Y-89479497D01*
X65306196Y-89400673D01*
X65306194Y-89400672D01*
X65299643Y-89395645D01*
X65164754Y-89339772D01*
X65020000Y-89320715D01*
X65011812Y-89321793D01*
X64883432Y-89338694D01*
X64883430Y-89338695D01*
X64875246Y-89339772D01*
X64827430Y-89359578D01*
X64747986Y-89392485D01*
X64747984Y-89392486D01*
X64740358Y-89395645D01*
X64624526Y-89484526D01*
X64535645Y-89600358D01*
X64532486Y-89607984D01*
X64532485Y-89607986D01*
X64510554Y-89660932D01*
X64479772Y-89735246D01*
X64478695Y-89743430D01*
X64478694Y-89743432D01*
X64470052Y-89809077D01*
X64460715Y-89880000D01*
X59848349Y-89880000D01*
X59900228Y-89754754D01*
X59902797Y-89735246D01*
X59918207Y-89618188D01*
X59919285Y-89610000D01*
X59903628Y-89491072D01*
X59901306Y-89473432D01*
X59901305Y-89473430D01*
X59900228Y-89465246D01*
X59863181Y-89375807D01*
X59847515Y-89337986D01*
X59847514Y-89337984D01*
X59844355Y-89330358D01*
X59755474Y-89214526D01*
X59748924Y-89209500D01*
X59748921Y-89209497D01*
X59646196Y-89130673D01*
X59646194Y-89130672D01*
X59639643Y-89125645D01*
X59504754Y-89069772D01*
X59360000Y-89050715D01*
X59351812Y-89051793D01*
X59223432Y-89068694D01*
X59223430Y-89068695D01*
X59215246Y-89069772D01*
X59175272Y-89086330D01*
X59087986Y-89122485D01*
X59087984Y-89122486D01*
X59080358Y-89125645D01*
X58964526Y-89214526D01*
X58875645Y-89330358D01*
X58872486Y-89337984D01*
X58872485Y-89337986D01*
X58856819Y-89375807D01*
X58819772Y-89465246D01*
X58818695Y-89473430D01*
X58818694Y-89473432D01*
X58816372Y-89491072D01*
X58800715Y-89610000D01*
X56896500Y-89610000D01*
X56896500Y-86999145D01*
X61851391Y-86999145D01*
X61881420Y-87148071D01*
X61885320Y-87155725D01*
X61946492Y-87275783D01*
X61946494Y-87275786D01*
X61950392Y-87283436D01*
X61956205Y-87289757D01*
X61956206Y-87289759D01*
X62042963Y-87384105D01*
X62053226Y-87395266D01*
X62060521Y-87399789D01*
X62060522Y-87399790D01*
X62175044Y-87470797D01*
X62182344Y-87475323D01*
X62328235Y-87517709D01*
X62339007Y-87518500D01*
X62448057Y-87518500D01*
X62452303Y-87517918D01*
X62452309Y-87517918D01*
X62531054Y-87507131D01*
X62560518Y-87503095D01*
X62595611Y-87487909D01*
X62692064Y-87446169D01*
X62692065Y-87446169D01*
X62699946Y-87442758D01*
X62750240Y-87402031D01*
X62811339Y-87352555D01*
X62811341Y-87352553D01*
X62818013Y-87347150D01*
X62824215Y-87338424D01*
X62901044Y-87230315D01*
X62901044Y-87230314D01*
X62906020Y-87223313D01*
X62957482Y-87080371D01*
X62958229Y-87070208D01*
X62964154Y-86989512D01*
X62968609Y-86928855D01*
X62938580Y-86779929D01*
X62904361Y-86712770D01*
X62873508Y-86652217D01*
X62873506Y-86652214D01*
X62869608Y-86644564D01*
X62817457Y-86587850D01*
X62772584Y-86539052D01*
X62772583Y-86539051D01*
X62766774Y-86532734D01*
X62698894Y-86490646D01*
X62644956Y-86457203D01*
X62644955Y-86457202D01*
X62637656Y-86452677D01*
X62491765Y-86410291D01*
X62480993Y-86409500D01*
X62371943Y-86409500D01*
X62367697Y-86410082D01*
X62367691Y-86410082D01*
X62288946Y-86420869D01*
X62259482Y-86424905D01*
X62251598Y-86428317D01*
X62251597Y-86428317D01*
X62195306Y-86452677D01*
X62120054Y-86485242D01*
X62113381Y-86490646D01*
X62008661Y-86575445D01*
X62008659Y-86575447D01*
X62001987Y-86580850D01*
X61997013Y-86587849D01*
X61997012Y-86587850D01*
X61981054Y-86610305D01*
X61913980Y-86704687D01*
X61862518Y-86847629D01*
X61851391Y-86999145D01*
X56896500Y-86999145D01*
X56896500Y-81219145D01*
X61851391Y-81219145D01*
X61881420Y-81368071D01*
X61885320Y-81375725D01*
X61946492Y-81495783D01*
X61946494Y-81495786D01*
X61950392Y-81503436D01*
X61956205Y-81509757D01*
X61956206Y-81509759D01*
X62031880Y-81592053D01*
X62053226Y-81615266D01*
X62060521Y-81619789D01*
X62060522Y-81619790D01*
X62155621Y-81678754D01*
X62182344Y-81695323D01*
X62328235Y-81737709D01*
X62339007Y-81738500D01*
X62448057Y-81738500D01*
X62452303Y-81737918D01*
X62452309Y-81737918D01*
X62531054Y-81727131D01*
X62560518Y-81723095D01*
X62596505Y-81707522D01*
X62692064Y-81666169D01*
X62692065Y-81666169D01*
X62699946Y-81662758D01*
X62747909Y-81623919D01*
X62811339Y-81572555D01*
X62811341Y-81572553D01*
X62818013Y-81567150D01*
X62838940Y-81537704D01*
X62901044Y-81450315D01*
X62901044Y-81450314D01*
X62906020Y-81443313D01*
X62957482Y-81300371D01*
X62960301Y-81261993D01*
X62967980Y-81157418D01*
X62968609Y-81148855D01*
X62938580Y-80999929D01*
X62913285Y-80950285D01*
X62873508Y-80872217D01*
X62873506Y-80872214D01*
X62869608Y-80864564D01*
X62817457Y-80807850D01*
X62772584Y-80759052D01*
X62772583Y-80759051D01*
X62766774Y-80752734D01*
X62698894Y-80710646D01*
X62644956Y-80677203D01*
X62644955Y-80677202D01*
X62637656Y-80672677D01*
X62491765Y-80630291D01*
X62480993Y-80629500D01*
X62371943Y-80629500D01*
X62367697Y-80630082D01*
X62367691Y-80630082D01*
X62288946Y-80640869D01*
X62259482Y-80644905D01*
X62251598Y-80648317D01*
X62251597Y-80648317D01*
X62200008Y-80670642D01*
X62120054Y-80705242D01*
X62113381Y-80710646D01*
X62008661Y-80795445D01*
X62008659Y-80795447D01*
X62001987Y-80800850D01*
X61997013Y-80807849D01*
X61997012Y-80807850D01*
X61946793Y-80878515D01*
X61913980Y-80924687D01*
X61862518Y-81067629D01*
X61851391Y-81219145D01*
X56896500Y-81219145D01*
X56896500Y-80391000D01*
X68782715Y-80391000D01*
X68783793Y-80399188D01*
X68792008Y-80461585D01*
X68801772Y-80535754D01*
X68817772Y-80574380D01*
X68852372Y-80657911D01*
X68857645Y-80670642D01*
X68946526Y-80786474D01*
X68953076Y-80791500D01*
X68953079Y-80791503D01*
X69048294Y-80864564D01*
X69062357Y-80875355D01*
X69197246Y-80931228D01*
X69205434Y-80932306D01*
X69269623Y-80940756D01*
X69342000Y-80950285D01*
X69350188Y-80949207D01*
X69478566Y-80932306D01*
X69486754Y-80931228D01*
X69621643Y-80875355D01*
X69635706Y-80864564D01*
X69730921Y-80791503D01*
X69730924Y-80791500D01*
X69737474Y-80786474D01*
X69826355Y-80670642D01*
X69831629Y-80657911D01*
X69866228Y-80574380D01*
X69882228Y-80535754D01*
X69891993Y-80461585D01*
X69900207Y-80399188D01*
X69901285Y-80391000D01*
X69882228Y-80246246D01*
X69826355Y-80111358D01*
X69776712Y-80046662D01*
X69742501Y-80002077D01*
X69742500Y-80002076D01*
X69737474Y-79995526D01*
X69730924Y-79990500D01*
X69730921Y-79990497D01*
X69628196Y-79911673D01*
X69628194Y-79911672D01*
X69621643Y-79906645D01*
X69486754Y-79850772D01*
X69342000Y-79831715D01*
X69333812Y-79832793D01*
X69205432Y-79849694D01*
X69205430Y-79849695D01*
X69197246Y-79850772D01*
X69184540Y-79856035D01*
X69069986Y-79903485D01*
X69069984Y-79903486D01*
X69062358Y-79906645D01*
X68946526Y-79995526D01*
X68941503Y-80002072D01*
X68922168Y-80027270D01*
X68857645Y-80111358D01*
X68801772Y-80246246D01*
X68782715Y-80391000D01*
X56896500Y-80391000D01*
X56896500Y-79438500D01*
X65099715Y-79438500D01*
X65100793Y-79446688D01*
X65117478Y-79573423D01*
X65118772Y-79583254D01*
X65174645Y-79718142D01*
X65263526Y-79833974D01*
X65270076Y-79839000D01*
X65270079Y-79839003D01*
X65364783Y-79911672D01*
X65379357Y-79922855D01*
X65514246Y-79978728D01*
X65659000Y-79997785D01*
X65667188Y-79996707D01*
X65714359Y-79990497D01*
X65803754Y-79978728D01*
X65938643Y-79922855D01*
X65953217Y-79911672D01*
X66047921Y-79839003D01*
X66047924Y-79839000D01*
X66054474Y-79833974D01*
X66143355Y-79718142D01*
X66172101Y-79648744D01*
X66216649Y-79593463D01*
X66284013Y-79571042D01*
X66352804Y-79588600D01*
X66365214Y-79597000D01*
X66391580Y-79617231D01*
X66458857Y-79668855D01*
X66593746Y-79724728D01*
X66738500Y-79743785D01*
X66746688Y-79742707D01*
X66875066Y-79725806D01*
X66883254Y-79724728D01*
X67018143Y-79668855D01*
X67044352Y-79648744D01*
X67127421Y-79585003D01*
X67127424Y-79585000D01*
X67133974Y-79579974D01*
X67162061Y-79543371D01*
X67217828Y-79470693D01*
X67222855Y-79464142D01*
X67233477Y-79438500D01*
X67275569Y-79336880D01*
X67278728Y-79329254D01*
X67289527Y-79247231D01*
X67296707Y-79192688D01*
X67297785Y-79184500D01*
X67280832Y-79055727D01*
X67279806Y-79047932D01*
X67279805Y-79047930D01*
X67278728Y-79039746D01*
X67247752Y-78964964D01*
X67226015Y-78912486D01*
X67226014Y-78912484D01*
X67222855Y-78904858D01*
X67133974Y-78789026D01*
X67127424Y-78784000D01*
X67127421Y-78783997D01*
X67024696Y-78705173D01*
X67024694Y-78705172D01*
X67018143Y-78700145D01*
X66883254Y-78644272D01*
X66738500Y-78625215D01*
X66730312Y-78626293D01*
X66601932Y-78643194D01*
X66601930Y-78643195D01*
X66593746Y-78644272D01*
X66545930Y-78664078D01*
X66466486Y-78696985D01*
X66466484Y-78696986D01*
X66458858Y-78700145D01*
X66343026Y-78789026D01*
X66254145Y-78904858D01*
X66250984Y-78912488D01*
X66250984Y-78912489D01*
X66225399Y-78974256D01*
X66180851Y-79029537D01*
X66113487Y-79051958D01*
X66044696Y-79034400D01*
X66032286Y-79026000D01*
X65995410Y-78997704D01*
X65938643Y-78954145D01*
X65803754Y-78898272D01*
X65751366Y-78891375D01*
X65731377Y-78888743D01*
X65659000Y-78879215D01*
X65650812Y-78880293D01*
X65522432Y-78897194D01*
X65522430Y-78897195D01*
X65514246Y-78898272D01*
X65466430Y-78918078D01*
X65386986Y-78950985D01*
X65386984Y-78950986D01*
X65379358Y-78954145D01*
X65263526Y-79043026D01*
X65174645Y-79158858D01*
X65171486Y-79166484D01*
X65171485Y-79166486D01*
X65160632Y-79192688D01*
X65118772Y-79293746D01*
X65117695Y-79301930D01*
X65117694Y-79301932D01*
X65108797Y-79369512D01*
X65099715Y-79438500D01*
X56896500Y-79438500D01*
X56896500Y-76326500D01*
X56916502Y-76258379D01*
X56970158Y-76211886D01*
X57022500Y-76200500D01*
X59617129Y-76200500D01*
X59685250Y-76220502D01*
G37*
%TD.AperFunction*%
%TA.AperFunction,Conductor*%
G36*
X77628737Y-82599502D02*
G01*
X77649711Y-82616405D01*
X78063522Y-83030216D01*
X78078664Y-83048964D01*
X78079779Y-83050189D01*
X78085429Y-83058940D01*
X78093607Y-83065387D01*
X78093609Y-83065389D01*
X78111800Y-83079729D01*
X78116244Y-83083678D01*
X78116306Y-83083604D01*
X78120263Y-83086957D01*
X78123944Y-83090638D01*
X78139654Y-83101865D01*
X78144380Y-83105413D01*
X78184647Y-83137156D01*
X78193284Y-83140189D01*
X78200734Y-83145513D01*
X78210710Y-83148497D01*
X78210711Y-83148497D01*
X78226046Y-83153083D01*
X78249849Y-83160202D01*
X78255486Y-83162034D01*
X78296367Y-83176390D01*
X78303851Y-83179018D01*
X78309416Y-83179500D01*
X78312124Y-83179500D01*
X78314758Y-83179614D01*
X78314856Y-83179643D01*
X78314849Y-83179807D01*
X78315553Y-83179851D01*
X78321778Y-83181713D01*
X78375635Y-83179597D01*
X78380582Y-83179500D01*
X81080853Y-83179500D01*
X81148974Y-83199502D01*
X81195467Y-83253158D01*
X81205571Y-83323432D01*
X81179803Y-83383506D01*
X81111720Y-83469869D01*
X81109031Y-83474980D01*
X81109029Y-83474983D01*
X81096073Y-83499609D01*
X81017203Y-83649515D01*
X80957007Y-83843378D01*
X80933148Y-84044964D01*
X80946424Y-84247522D01*
X80947845Y-84253118D01*
X80947846Y-84253123D01*
X80994068Y-84435117D01*
X80996392Y-84444269D01*
X80998809Y-84449512D01*
X81036010Y-84530208D01*
X81081377Y-84628616D01*
X81084710Y-84633332D01*
X81175487Y-84761780D01*
X81198468Y-84828955D01*
X81181483Y-84897890D01*
X81129926Y-84946699D01*
X81072590Y-84960500D01*
X76276759Y-84960500D01*
X76208638Y-84940498D01*
X76162145Y-84886842D01*
X76152041Y-84816568D01*
X76181535Y-84751988D01*
X76200048Y-84734543D01*
X76214474Y-84723474D01*
X76227332Y-84706718D01*
X76298328Y-84614193D01*
X76303355Y-84607642D01*
X76313977Y-84582000D01*
X76356069Y-84480380D01*
X76359228Y-84472754D01*
X76360523Y-84462923D01*
X76377207Y-84336188D01*
X76378285Y-84328000D01*
X76375159Y-84304255D01*
X76360306Y-84191432D01*
X76360305Y-84191430D01*
X76359228Y-84183246D01*
X76315511Y-84077704D01*
X76306515Y-84055986D01*
X76306514Y-84055984D01*
X76303355Y-84048358D01*
X76262443Y-83995040D01*
X76236843Y-83928819D01*
X76251108Y-83859270D01*
X76298044Y-83810629D01*
X76301843Y-83809055D01*
X76308396Y-83804027D01*
X76411121Y-83725203D01*
X76411124Y-83725200D01*
X76417674Y-83720174D01*
X76453389Y-83673630D01*
X76467658Y-83655033D01*
X76506555Y-83604342D01*
X76510561Y-83594672D01*
X76559269Y-83477080D01*
X76562428Y-83469454D01*
X76581485Y-83324700D01*
X76578359Y-83300955D01*
X76563506Y-83188132D01*
X76563505Y-83188130D01*
X76562428Y-83179946D01*
X76534923Y-83113544D01*
X76509715Y-83052686D01*
X76509714Y-83052684D01*
X76506555Y-83045058D01*
X76417674Y-82929226D01*
X76411124Y-82924200D01*
X76411121Y-82924197D01*
X76308396Y-82845373D01*
X76308394Y-82845372D01*
X76301843Y-82840345D01*
X76257333Y-82821908D01*
X76202054Y-82777360D01*
X76179633Y-82709997D01*
X76197191Y-82641206D01*
X76249154Y-82592827D01*
X76305553Y-82579500D01*
X77560616Y-82579500D01*
X77628737Y-82599502D01*
G37*
%TD.AperFunction*%
%TD*%
M02*
