%TF.GenerationSoftware,KiCad,Pcbnew,6.0.4-6f826c9f35~116~ubuntu21.10.1*%
%TF.CreationDate,2022-04-05T23:43:51+08:00*%
%TF.ProjectId,ST_Link_V2.1,53545f4c-696e-46b5-9f56-322e312e6b69,rev?*%
%TF.SameCoordinates,Original*%
%TF.FileFunction,Copper,L4,Bot*%
%TF.FilePolarity,Positive*%
%FSLAX46Y46*%
G04 Gerber Fmt 4.6, Leading zero omitted, Abs format (unit mm)*
G04 Created by KiCad (PCBNEW 6.0.4-6f826c9f35~116~ubuntu21.10.1) date 2022-04-05 23:43:51*
%MOMM*%
%LPD*%
G01*
G04 APERTURE LIST*
G04 Aperture macros list*
%AMRoundRect*
0 Rectangle with rounded corners*
0 $1 Rounding radius*
0 $2 $3 $4 $5 $6 $7 $8 $9 X,Y pos of 4 corners*
0 Add a 4 corners polygon primitive as box body*
4,1,4,$2,$3,$4,$5,$6,$7,$8,$9,$2,$3,0*
0 Add four circle primitives for the rounded corners*
1,1,$1+$1,$2,$3*
1,1,$1+$1,$4,$5*
1,1,$1+$1,$6,$7*
1,1,$1+$1,$8,$9*
0 Add four rect primitives between the rounded corners*
20,1,$1+$1,$2,$3,$4,$5,0*
20,1,$1+$1,$4,$5,$6,$7,0*
20,1,$1+$1,$6,$7,$8,$9,0*
20,1,$1+$1,$8,$9,$2,$3,0*%
G04 Aperture macros list end*
%TA.AperFunction,ComponentPad*%
%ADD10O,2.000000X0.900000*%
%TD*%
%TA.AperFunction,ComponentPad*%
%ADD11O,1.700000X0.900000*%
%TD*%
%TA.AperFunction,ComponentPad*%
%ADD12R,1.700000X1.700000*%
%TD*%
%TA.AperFunction,ComponentPad*%
%ADD13O,1.700000X1.700000*%
%TD*%
%TA.AperFunction,SMDPad,CuDef*%
%ADD14RoundRect,0.140000X-0.140000X-0.170000X0.140000X-0.170000X0.140000X0.170000X-0.140000X0.170000X0*%
%TD*%
%TA.AperFunction,SMDPad,CuDef*%
%ADD15RoundRect,0.243750X0.243750X0.456250X-0.243750X0.456250X-0.243750X-0.456250X0.243750X-0.456250X0*%
%TD*%
%TA.AperFunction,SMDPad,CuDef*%
%ADD16R,0.900000X0.800000*%
%TD*%
%TA.AperFunction,SMDPad,CuDef*%
%ADD17RoundRect,0.135000X-0.135000X-0.185000X0.135000X-0.185000X0.135000X0.185000X-0.135000X0.185000X0*%
%TD*%
%TA.AperFunction,SMDPad,CuDef*%
%ADD18RoundRect,0.135000X-0.185000X0.135000X-0.185000X-0.135000X0.185000X-0.135000X0.185000X0.135000X0*%
%TD*%
%TA.AperFunction,SMDPad,CuDef*%
%ADD19R,1.100000X0.600000*%
%TD*%
%TA.AperFunction,SMDPad,CuDef*%
%ADD20R,2.200000X1.000000*%
%TD*%
%TA.AperFunction,SMDPad,CuDef*%
%ADD21R,2.200000X3.500000*%
%TD*%
%TA.AperFunction,SMDPad,CuDef*%
%ADD22R,1.900000X2.400000*%
%TD*%
%TA.AperFunction,ViaPad*%
%ADD23C,0.600000*%
%TD*%
%TA.AperFunction,Conductor*%
%ADD24C,0.400000*%
%TD*%
%TA.AperFunction,Conductor*%
%ADD25C,0.250000*%
%TD*%
%TA.AperFunction,Conductor*%
%ADD26C,0.254000*%
%TD*%
G04 APERTURE END LIST*
D10*
%TO.P,J1,S1,SHIELD*%
%TO.N,GND*%
X62890000Y-79754000D03*
X62890000Y-88394000D03*
D11*
X58720000Y-79754000D03*
X58720000Y-88394000D03*
%TD*%
D12*
%TO.P,J3,1,Pin_1*%
%TO.N,+5V*%
X82042000Y-78994000D03*
D13*
%TO.P,J3,2,Pin_2*%
%TO.N,+3.3VA*%
X82042000Y-81534000D03*
%TO.P,J3,3,Pin_3*%
%TO.N,/TX*%
X82042000Y-84074000D03*
%TO.P,J3,4,Pin_4*%
%TO.N,/RX*%
X82042000Y-86614000D03*
%TO.P,J3,5,Pin_5*%
%TO.N,GND*%
X82042000Y-89154000D03*
%TO.P,J3,6,Pin_6*%
%TO.N,+5V*%
X84582000Y-78994000D03*
%TO.P,J3,7,Pin_7*%
%TO.N,+3.3VA*%
X84582000Y-81534000D03*
%TO.P,J3,8,Pin_8*%
%TO.N,/SWIN*%
X84582000Y-84074000D03*
%TO.P,J3,9,Pin_9*%
%TO.N,/RESET*%
X84582000Y-86614000D03*
%TO.P,J3,10,Pin_10*%
%TO.N,GND*%
X84582000Y-89154000D03*
%TO.P,J3,11,Pin_11*%
%TO.N,+5V*%
X87122000Y-78994000D03*
%TO.P,J3,12,Pin_12*%
%TO.N,+3.3VA*%
X87122000Y-81534000D03*
%TO.P,J3,13,Pin_13*%
%TO.N,/SWDIO*%
X87122000Y-84074000D03*
%TO.P,J3,14,Pin_14*%
%TO.N,/SWCLK*%
X87122000Y-86614000D03*
%TO.P,J3,15,Pin_15*%
%TO.N,GND*%
X87122000Y-89154000D03*
%TD*%
D12*
%TO.P,J2,1,Pin_1*%
%TO.N,/MCU_SWDIO*%
X89662000Y-81534000D03*
D13*
%TO.P,J2,2,Pin_2*%
%TO.N,/MCU_SWCLK*%
X89662000Y-84074000D03*
%TO.P,J2,3,Pin_3*%
%TO.N,GND*%
X89662000Y-86614000D03*
%TD*%
D14*
%TO.P,C9,1*%
%TO.N,+5V*%
X66322000Y-86360000D03*
%TO.P,C9,2*%
%TO.N,GND*%
X67282000Y-86360000D03*
%TD*%
D15*
%TO.P,F1,1*%
%TO.N,+5V*%
X60119500Y-90678000D03*
%TO.P,F1,2*%
%TO.N,Net-(F1-Pad2)*%
X58244500Y-90678000D03*
%TD*%
D16*
%TO.P,Q1,1,B*%
%TO.N,Net-(Q1-Pad1)*%
X66310000Y-90612000D03*
%TO.P,Q1,2,E*%
%TO.N,Net-(Q1-Pad2)*%
X66310000Y-88712000D03*
%TO.P,Q1,3,C*%
%TO.N,+3V3*%
X68310000Y-89662000D03*
%TD*%
D17*
%TO.P,R9,1*%
%TO.N,+5V*%
X63498000Y-90678000D03*
%TO.P,R9,2*%
%TO.N,Net-(Q1-Pad1)*%
X64518000Y-90678000D03*
%TD*%
D18*
%TO.P,R14,1*%
%TO.N,Net-(D1-Pad2)*%
X73660000Y-77468000D03*
%TO.P,R14,2*%
%TO.N,/LED_LINK*%
X73660000Y-78488000D03*
%TD*%
%TO.P,R16,1*%
%TO.N,Net-(D3-Pad2)*%
X72644000Y-77468000D03*
%TO.P,R16,2*%
%TO.N,+3V3*%
X72644000Y-78488000D03*
%TD*%
%TO.P,R17,1*%
%TO.N,Net-(D4-Pad1)*%
X76708000Y-77468000D03*
%TO.P,R17,2*%
%TO.N,/TX*%
X76708000Y-78488000D03*
%TD*%
%TO.P,R18,1*%
%TO.N,Net-(D5-Pad1)*%
X75692000Y-77468000D03*
%TO.P,R18,2*%
%TO.N,/RX*%
X75692000Y-78488000D03*
%TD*%
D19*
%TO.P,U2,1,IN*%
%TO.N,+5V*%
X68456000Y-77536000D03*
%TO.P,U2,2,GND*%
%TO.N,GND*%
X68456000Y-78486000D03*
%TO.P,U2,3,EN*%
%TO.N,+5V*%
X68456000Y-79436000D03*
%TO.P,U2,4,BP*%
%TO.N,Net-(C11-Pad1)*%
X65656000Y-79436000D03*
%TO.P,U2,5,OUT*%
%TO.N,+3V3*%
X65656000Y-77536000D03*
%TD*%
D20*
%TO.P,U3,1,GND*%
%TO.N,GND*%
X64214000Y-81774000D03*
%TO.P,U3,2,VO*%
%TO.N,+3.3VA*%
X64214000Y-84074000D03*
D21*
X58214000Y-84074000D03*
D20*
%TO.P,U3,3,VI*%
%TO.N,+5V*%
X64214000Y-86374000D03*
%TD*%
D22*
%TO.P,Y1,1,OSC1*%
%TO.N,/OSC_IN*%
X71102000Y-87376000D03*
%TO.P,Y1,2,OSC2*%
%TO.N,/OSC_OUT*%
X75202000Y-87376000D03*
%TD*%
D18*
%TO.P,R15,1*%
%TO.N,Net-(D2-Pad1)*%
X74676000Y-77468000D03*
%TO.P,R15,2*%
%TO.N,/LED_LINK*%
X74676000Y-78488000D03*
%TD*%
D23*
%TO.N,GND*%
X79850000Y-84190000D03*
X73660000Y-83058000D03*
X74041000Y-84709000D03*
X61976000Y-84963000D03*
X70866000Y-78232000D03*
X70866000Y-83439000D03*
X73533000Y-86487000D03*
%TO.N,/OSC_IN*%
X72136000Y-90198000D03*
%TO.N,/OSC_OUT*%
X73152000Y-90198000D03*
%TO.N,+3V3*%
X72644000Y-78486000D03*
X78994000Y-77343000D03*
X68326000Y-89662000D03*
X66738500Y-79184500D03*
X75690000Y-91188000D03*
%TO.N,+5V*%
X60119500Y-90678000D03*
%TO.N,Net-(C11-Pad1)*%
X65659000Y-79438500D03*
%TO.N,Net-(D1-Pad2)*%
X73660000Y-77470000D03*
%TO.N,Net-(D2-Pad1)*%
X74676000Y-77470000D03*
%TO.N,Net-(D3-Pad2)*%
X72644000Y-77470000D03*
%TO.N,Net-(D4-Pad1)*%
X76708000Y-77470000D03*
%TO.N,Net-(D5-Pad1)*%
X75692000Y-77470000D03*
%TO.N,Net-(F1-Pad2)*%
X59360000Y-89610000D03*
%TO.N,/MCU_SWCLK*%
X69342000Y-80391000D03*
%TO.N,/MCU_SWDIO*%
X71755000Y-78486000D03*
%TO.N,/RX*%
X79121000Y-86824820D03*
%TO.N,/RESET*%
X75819000Y-84328000D03*
%TO.N,/SWIN*%
X73914000Y-81788000D03*
%TO.N,/SWCLK*%
X75057000Y-81534000D03*
X75819000Y-85598000D03*
%TO.N,/SWDIO*%
X74422000Y-82677000D03*
%TO.N,Net-(Q1-Pad2)*%
X67056000Y-84074000D03*
%TO.N,Net-(Q1-Pad1)*%
X65020000Y-89880000D03*
%TO.N,/MCU_USB_D-*%
X67056000Y-83058000D03*
X73025000Y-82423000D03*
%TO.N,/MCU_USB_D+*%
X72390000Y-81788000D03*
X67056000Y-85090000D03*
%TO.N,/MCU_USB_RENUM*%
X67056000Y-89662000D03*
X67818000Y-81788000D03*
%TO.N,/LED_LINK*%
X73660000Y-78486000D03*
%TO.N,/BOOT0*%
X71374000Y-84074000D03*
X69850000Y-89154000D03*
%TO.N,/BOOT1*%
X78232000Y-90170000D03*
X76022200Y-83324700D03*
%TO.N,+3.3VA*%
X59436000Y-77470000D03*
%TD*%
D24*
%TO.N,+5V*%
X60119500Y-90678000D02*
X60119500Y-87708500D01*
X60119500Y-87708500D02*
X61728000Y-86100000D01*
X61728000Y-86100000D02*
X63940000Y-86100000D01*
X63940000Y-86100000D02*
X64214000Y-86374000D01*
D25*
%TO.N,Net-(Q1-Pad1)*%
X64518000Y-90678000D02*
X65068000Y-90678000D01*
X65068000Y-90678000D02*
X66244000Y-90678000D01*
X65020000Y-89880000D02*
X65020000Y-90630000D01*
X65020000Y-90630000D02*
X65068000Y-90678000D01*
X66244000Y-90678000D02*
X66310000Y-90612000D01*
D26*
%TO.N,/OSC_IN*%
X71102000Y-87376000D02*
X71102000Y-89164000D01*
X71102000Y-89164000D02*
X72136000Y-90198000D01*
%TO.N,/OSC_OUT*%
X75202000Y-87376000D02*
X73152000Y-89426000D01*
X73152000Y-89426000D02*
X73152000Y-90198000D01*
%TO.N,+3V3*%
X69852000Y-91188000D02*
X75690000Y-91188000D01*
D24*
X66738500Y-77914500D02*
X66360000Y-77536000D01*
X66738500Y-79184500D02*
X66738500Y-77914500D01*
D26*
X68326000Y-89662000D02*
X69852000Y-91188000D01*
D24*
X66360000Y-77536000D02*
X65656000Y-77536000D01*
%TO.N,+5V*%
X60119500Y-90678000D02*
X60119500Y-90678000D01*
X69784000Y-77536000D02*
X68456000Y-77536000D01*
X63498000Y-90678000D02*
X60119500Y-90678000D01*
X66322000Y-81570000D02*
X68456000Y-79436000D01*
X64228000Y-86360000D02*
X64214000Y-86374000D01*
X68456000Y-79436000D02*
X69344500Y-79436000D01*
X82042000Y-78994000D02*
X87122000Y-78994000D01*
X66322000Y-86360000D02*
X66322000Y-81570000D01*
X66322000Y-86360000D02*
X64228000Y-86360000D01*
X69659500Y-77787500D02*
X69408000Y-77536000D01*
X69408000Y-77536000D02*
X68456000Y-77536000D01*
X69659500Y-79121000D02*
X69659500Y-77787500D01*
X79502000Y-76454000D02*
X70866000Y-76454000D01*
X69344500Y-79436000D02*
X69659500Y-79121000D01*
X70866000Y-76454000D02*
X69784000Y-77536000D01*
X82042000Y-78994000D02*
X79502000Y-76454000D01*
%TO.N,Net-(F1-Pad2)*%
X59312500Y-89610000D02*
X58244500Y-90678000D01*
X59360000Y-89610000D02*
X59312500Y-89610000D01*
D26*
%TO.N,/RX*%
X79121000Y-83693000D02*
X79121000Y-86824820D01*
X75692000Y-78488000D02*
X75692000Y-80264000D01*
X79121000Y-86824820D02*
X81831180Y-86824820D01*
X81831180Y-86824820D02*
X82042000Y-86614000D01*
X75692000Y-80264000D02*
X79121000Y-83693000D01*
%TO.N,/TX*%
X76708000Y-78488000D02*
X76708000Y-80010000D01*
X76708000Y-80010000D02*
X80772000Y-84074000D01*
X80772000Y-84074000D02*
X82042000Y-84074000D01*
%TO.N,Net-(Q1-Pad2)*%
X66310000Y-88712000D02*
X67244000Y-88712000D01*
X68072000Y-85090000D02*
X67056000Y-84074000D01*
X67244000Y-88712000D02*
X68072000Y-87884000D01*
X68072000Y-87884000D02*
X68072000Y-85090000D01*
D24*
%TO.N,/LED_LINK*%
X73660000Y-78486000D02*
X74676000Y-78486000D01*
X73660000Y-78486000D02*
X73660000Y-78486000D01*
D26*
%TO.N,/BOOT1*%
X78232000Y-90170000D02*
X78232000Y-85534500D01*
X78232000Y-85534500D02*
X76022200Y-83324700D01*
D24*
%TO.N,+3.3VA*%
X59436000Y-77470000D02*
X60198000Y-77470000D01*
X64214000Y-84074000D02*
X60960000Y-84074000D01*
X60960000Y-78232000D02*
X60960000Y-84074000D01*
X60960000Y-84074000D02*
X58214000Y-84074000D01*
X60198000Y-77470000D02*
X60960000Y-78232000D01*
%TD*%
%TA.AperFunction,Conductor*%
%TO.N,GND*%
G36*
X70240671Y-76220502D02*
G01*
X70287164Y-76274158D01*
X70297268Y-76344432D01*
X70267774Y-76409012D01*
X70261645Y-76415595D01*
X69632645Y-77044595D01*
X69570333Y-77078621D01*
X69543550Y-77081500D01*
X69420062Y-77081500D01*
X69415116Y-77081403D01*
X69406690Y-77081072D01*
X69357563Y-77079142D01*
X69350408Y-77081039D01*
X69342033Y-77081500D01*
X69267235Y-77081500D01*
X69199114Y-77061498D01*
X69191252Y-77055162D01*
X69189484Y-77052516D01*
X69168935Y-77038785D01*
X69115620Y-77003161D01*
X69105301Y-76996266D01*
X69031067Y-76981500D01*
X68456093Y-76981500D01*
X67880934Y-76981501D01*
X67845182Y-76988612D01*
X67818874Y-76993844D01*
X67818872Y-76993845D01*
X67806699Y-76996266D01*
X67796379Y-77003161D01*
X67796378Y-77003162D01*
X67744061Y-77038120D01*
X67722516Y-77052516D01*
X67666266Y-77136699D01*
X67651500Y-77210933D01*
X67651501Y-77861066D01*
X67657409Y-77890768D01*
X67663733Y-77922564D01*
X67666266Y-77935301D01*
X67673161Y-77945621D01*
X67673162Y-77945622D01*
X67691888Y-77973647D01*
X67722516Y-78019484D01*
X67806699Y-78075734D01*
X67880933Y-78090500D01*
X68455907Y-78090500D01*
X69031066Y-78090499D01*
X69054424Y-78085853D01*
X69125136Y-78092183D01*
X69181202Y-78135739D01*
X69205000Y-78209433D01*
X69205000Y-78762566D01*
X69184998Y-78830687D01*
X69131342Y-78877180D01*
X69054419Y-78886145D01*
X69037135Y-78882707D01*
X69031067Y-78881500D01*
X68456093Y-78881500D01*
X67880934Y-78881501D01*
X67845363Y-78888576D01*
X67818874Y-78893844D01*
X67818872Y-78893845D01*
X67806699Y-78896266D01*
X67796379Y-78903161D01*
X67796378Y-78903162D01*
X67740885Y-78940242D01*
X67722516Y-78952516D01*
X67666266Y-79036699D01*
X67651500Y-79110933D01*
X67651501Y-79343658D01*
X67651501Y-79545549D01*
X67631499Y-79613669D01*
X67614596Y-79634644D01*
X66024989Y-81224251D01*
X66013900Y-81234106D01*
X65986941Y-81255359D01*
X65981587Y-81263106D01*
X65953258Y-81304094D01*
X65950976Y-81307287D01*
X65915791Y-81354924D01*
X65913377Y-81361797D01*
X65909236Y-81367789D01*
X65897892Y-81403659D01*
X65891374Y-81424270D01*
X65890129Y-81427999D01*
X65870507Y-81483874D01*
X65870224Y-81491078D01*
X65870191Y-81491249D01*
X65868025Y-81498097D01*
X65867500Y-81504768D01*
X65867500Y-81557938D01*
X65867403Y-81562884D01*
X65865142Y-81620437D01*
X65867039Y-81627592D01*
X65867500Y-81635967D01*
X65867500Y-85779500D01*
X65847498Y-85847621D01*
X65793842Y-85894114D01*
X65741500Y-85905500D01*
X65683157Y-85905500D01*
X65615036Y-85885498D01*
X65568543Y-85831842D01*
X65559578Y-85804081D01*
X65556155Y-85786873D01*
X65553734Y-85774699D01*
X65543208Y-85758945D01*
X65504377Y-85700832D01*
X65497484Y-85690516D01*
X65413301Y-85634266D01*
X65339067Y-85619500D01*
X64214182Y-85619500D01*
X63088934Y-85619501D01*
X63014699Y-85634266D01*
X63010197Y-85637274D01*
X62968843Y-85645500D01*
X61762464Y-85645500D01*
X61747654Y-85644627D01*
X61727858Y-85642284D01*
X61713563Y-85640592D01*
X61655275Y-85651237D01*
X61651424Y-85651878D01*
X61592849Y-85660685D01*
X61586282Y-85663838D01*
X61579117Y-85665147D01*
X61570762Y-85669487D01*
X61526564Y-85692446D01*
X61523023Y-85694215D01*
X61478140Y-85715767D01*
X61478137Y-85715769D01*
X61469647Y-85719846D01*
X61464357Y-85724736D01*
X61464202Y-85724841D01*
X61457835Y-85728148D01*
X61452746Y-85732494D01*
X61415164Y-85770076D01*
X61411599Y-85773506D01*
X61369288Y-85812617D01*
X61365570Y-85819017D01*
X61359963Y-85825277D01*
X59822489Y-87362751D01*
X59811400Y-87372606D01*
X59784441Y-87393859D01*
X59779087Y-87401606D01*
X59750758Y-87442594D01*
X59748476Y-87445787D01*
X59713291Y-87493424D01*
X59710877Y-87500297D01*
X59706736Y-87506289D01*
X59698930Y-87530972D01*
X59688874Y-87562770D01*
X59687629Y-87566499D01*
X59668007Y-87622374D01*
X59667724Y-87629578D01*
X59667691Y-87629749D01*
X59665525Y-87636597D01*
X59665000Y-87643268D01*
X59665000Y-87696438D01*
X59664903Y-87701384D01*
X59662642Y-87758937D01*
X59664539Y-87766092D01*
X59665000Y-87774467D01*
X59665000Y-88949619D01*
X59644998Y-89017740D01*
X59591342Y-89064233D01*
X59521068Y-89074337D01*
X59510583Y-89072187D01*
X59504754Y-89069772D01*
X59360000Y-89050715D01*
X59336255Y-89053841D01*
X59223432Y-89068694D01*
X59223430Y-89068695D01*
X59215246Y-89069772D01*
X59191923Y-89079433D01*
X59087986Y-89122485D01*
X59087984Y-89122486D01*
X59080358Y-89125645D01*
X58964526Y-89214526D01*
X58959503Y-89221072D01*
X58947332Y-89236934D01*
X58875645Y-89330358D01*
X58872486Y-89337984D01*
X58872485Y-89337986D01*
X58833094Y-89433084D01*
X58805780Y-89473960D01*
X58593145Y-89686595D01*
X58530833Y-89720621D01*
X58504050Y-89723500D01*
X58010760Y-89723501D01*
X57953586Y-89723501D01*
X57950192Y-89723870D01*
X57950186Y-89723870D01*
X57900517Y-89729265D01*
X57900514Y-89729266D01*
X57892658Y-89730119D01*
X57885256Y-89732894D01*
X57885255Y-89732894D01*
X57789999Y-89768603D01*
X57759018Y-89780217D01*
X57751835Y-89785601D01*
X57751834Y-89785601D01*
X57729251Y-89802526D01*
X57644811Y-89865811D01*
X57639429Y-89872992D01*
X57628040Y-89888189D01*
X57559217Y-89980018D01*
X57556065Y-89988426D01*
X57512901Y-90103570D01*
X57509119Y-90113658D01*
X57502500Y-90174585D01*
X57502501Y-91181414D01*
X57502870Y-91184808D01*
X57502870Y-91184814D01*
X57507708Y-91229350D01*
X57509119Y-91242342D01*
X57511894Y-91249744D01*
X57511894Y-91249745D01*
X57512927Y-91252500D01*
X57559217Y-91375982D01*
X57564601Y-91383165D01*
X57564601Y-91383166D01*
X57644811Y-91490189D01*
X57642292Y-91492077D01*
X57668852Y-91540717D01*
X57663787Y-91611532D01*
X57621240Y-91668368D01*
X57554720Y-91693179D01*
X57545731Y-91693500D01*
X57022500Y-91693500D01*
X56954379Y-91673498D01*
X56907886Y-91619842D01*
X56896500Y-91567500D01*
X56896500Y-86193754D01*
X56916502Y-86125633D01*
X56970158Y-86079140D01*
X57047081Y-86070175D01*
X57088933Y-86078500D01*
X58213818Y-86078500D01*
X59339066Y-86078499D01*
X59374818Y-86071388D01*
X59401126Y-86066156D01*
X59401128Y-86066155D01*
X59413301Y-86063734D01*
X59423621Y-86056839D01*
X59423622Y-86056838D01*
X59487168Y-86014377D01*
X59497484Y-86007484D01*
X59553734Y-85923301D01*
X59568500Y-85849067D01*
X59568500Y-84654500D01*
X59588502Y-84586379D01*
X59642158Y-84539886D01*
X59694500Y-84528500D01*
X60893490Y-84528500D01*
X60905331Y-84529855D01*
X60905371Y-84529351D01*
X60914762Y-84530090D01*
X60923938Y-84532217D01*
X60933334Y-84531552D01*
X60933337Y-84531552D01*
X60971990Y-84528815D01*
X60980888Y-84528500D01*
X62742059Y-84528500D01*
X62810180Y-84548502D01*
X62856673Y-84602158D01*
X62865638Y-84629921D01*
X62870527Y-84654500D01*
X62874266Y-84673301D01*
X62881161Y-84683620D01*
X62881162Y-84683622D01*
X62907791Y-84723474D01*
X62930516Y-84757484D01*
X63014699Y-84813734D01*
X63088933Y-84828500D01*
X64213818Y-84828500D01*
X65339066Y-84828499D01*
X65374818Y-84821388D01*
X65401126Y-84816156D01*
X65401128Y-84816155D01*
X65413301Y-84813734D01*
X65423621Y-84806839D01*
X65423622Y-84806838D01*
X65487168Y-84764377D01*
X65497484Y-84757484D01*
X65553734Y-84673301D01*
X65568500Y-84599067D01*
X65568499Y-83548934D01*
X65561388Y-83513182D01*
X65556156Y-83486874D01*
X65556155Y-83486871D01*
X65553734Y-83474699D01*
X65541202Y-83455943D01*
X65504377Y-83400832D01*
X65497484Y-83390516D01*
X65413301Y-83334266D01*
X65339067Y-83319500D01*
X64214182Y-83319500D01*
X63088934Y-83319501D01*
X63062795Y-83324700D01*
X63026874Y-83331844D01*
X63026872Y-83331845D01*
X63014699Y-83334266D01*
X63004379Y-83341161D01*
X63004378Y-83341162D01*
X63002880Y-83342163D01*
X62930516Y-83390516D01*
X62874266Y-83474699D01*
X62866307Y-83514715D01*
X62865637Y-83518081D01*
X62832730Y-83580991D01*
X62771035Y-83616123D01*
X62742058Y-83619500D01*
X61540500Y-83619500D01*
X61472379Y-83599498D01*
X61425886Y-83545842D01*
X61414500Y-83493500D01*
X61414500Y-81219145D01*
X61851391Y-81219145D01*
X61881420Y-81368071D01*
X61885320Y-81375725D01*
X61946492Y-81495783D01*
X61946494Y-81495786D01*
X61950392Y-81503436D01*
X61956205Y-81509757D01*
X61956206Y-81509759D01*
X62031880Y-81592053D01*
X62053226Y-81615266D01*
X62060521Y-81619789D01*
X62060522Y-81619790D01*
X62142418Y-81670568D01*
X62182344Y-81695323D01*
X62328235Y-81737709D01*
X62339007Y-81738500D01*
X62448057Y-81738500D01*
X62452303Y-81737918D01*
X62452309Y-81737918D01*
X62531054Y-81727131D01*
X62560518Y-81723095D01*
X62596505Y-81707522D01*
X62692064Y-81666169D01*
X62692065Y-81666169D01*
X62699946Y-81662758D01*
X62752209Y-81620437D01*
X62811339Y-81572555D01*
X62811341Y-81572553D01*
X62818013Y-81567150D01*
X62838940Y-81537704D01*
X62901044Y-81450315D01*
X62901044Y-81450314D01*
X62906020Y-81443313D01*
X62957482Y-81300371D01*
X62960301Y-81261993D01*
X62967980Y-81157418D01*
X62968609Y-81148855D01*
X62938580Y-80999929D01*
X62913285Y-80950285D01*
X62873508Y-80872217D01*
X62873506Y-80872214D01*
X62869608Y-80864564D01*
X62817457Y-80807850D01*
X62772584Y-80759052D01*
X62772583Y-80759051D01*
X62766774Y-80752734D01*
X62698894Y-80710646D01*
X62644956Y-80677203D01*
X62644955Y-80677202D01*
X62637656Y-80672677D01*
X62491765Y-80630291D01*
X62480993Y-80629500D01*
X62371943Y-80629500D01*
X62367697Y-80630082D01*
X62367691Y-80630082D01*
X62288946Y-80640869D01*
X62259482Y-80644905D01*
X62251598Y-80648317D01*
X62251597Y-80648317D01*
X62200008Y-80670642D01*
X62120054Y-80705242D01*
X62113381Y-80710646D01*
X62008661Y-80795445D01*
X62008659Y-80795447D01*
X62001987Y-80800850D01*
X61997013Y-80807849D01*
X61997012Y-80807850D01*
X61946793Y-80878515D01*
X61913980Y-80924687D01*
X61862518Y-81067629D01*
X61851391Y-81219145D01*
X61414500Y-81219145D01*
X61414500Y-79110933D01*
X64851500Y-79110933D01*
X64851501Y-79761066D01*
X64854938Y-79778345D01*
X64862458Y-79816154D01*
X64866266Y-79835301D01*
X64873161Y-79845620D01*
X64873162Y-79845622D01*
X64892884Y-79875137D01*
X64922516Y-79919484D01*
X65006699Y-79975734D01*
X65080933Y-79990500D01*
X65595405Y-79990500D01*
X65611850Y-79991578D01*
X65659000Y-79997785D01*
X65706152Y-79991577D01*
X65722599Y-79990499D01*
X66231066Y-79990499D01*
X66266818Y-79983388D01*
X66293126Y-79978156D01*
X66293128Y-79978155D01*
X66305301Y-79975734D01*
X66315621Y-79968839D01*
X66315622Y-79968838D01*
X66379168Y-79926377D01*
X66389484Y-79919484D01*
X66445734Y-79835301D01*
X66448156Y-79823126D01*
X66452904Y-79811664D01*
X66454044Y-79812136D01*
X66480974Y-79760648D01*
X66542668Y-79725514D01*
X66593543Y-79726269D01*
X66593746Y-79724728D01*
X66738500Y-79743785D01*
X66746688Y-79742707D01*
X66875066Y-79725806D01*
X66883254Y-79724728D01*
X67018143Y-79668855D01*
X67024696Y-79663827D01*
X67127421Y-79585003D01*
X67127424Y-79585000D01*
X67133974Y-79579974D01*
X67222855Y-79464142D01*
X67229335Y-79448500D01*
X67258922Y-79377070D01*
X67278728Y-79329254D01*
X67287449Y-79263015D01*
X67296707Y-79192688D01*
X67297785Y-79184500D01*
X67282561Y-79068861D01*
X67279806Y-79047932D01*
X67279805Y-79047930D01*
X67278728Y-79039746D01*
X67240121Y-78946542D01*
X67226015Y-78912486D01*
X67226014Y-78912484D01*
X67222855Y-78904858D01*
X67217829Y-78898308D01*
X67213699Y-78891155D01*
X67215304Y-78890228D01*
X67193437Y-78833658D01*
X67193000Y-78823178D01*
X67193000Y-77948956D01*
X67193873Y-77934147D01*
X67196800Y-77909415D01*
X67197907Y-77900062D01*
X67196199Y-77890707D01*
X67187271Y-77841820D01*
X67186622Y-77837918D01*
X67179216Y-77788664D01*
X67179215Y-77788661D01*
X67177815Y-77779349D01*
X67174662Y-77772782D01*
X67173353Y-77765617D01*
X67146038Y-77713033D01*
X67144288Y-77709530D01*
X67122732Y-77664640D01*
X67118654Y-77656147D01*
X67113759Y-77650852D01*
X67113666Y-77650713D01*
X67110352Y-77644334D01*
X67106006Y-77639246D01*
X67068424Y-77601664D01*
X67064994Y-77598098D01*
X67032274Y-77562702D01*
X67025883Y-77555788D01*
X67019483Y-77552070D01*
X67013223Y-77546463D01*
X66705749Y-77238989D01*
X66695894Y-77227900D01*
X66690398Y-77220929D01*
X66674641Y-77200941D01*
X66634198Y-77172989D01*
X66625906Y-77167258D01*
X66622713Y-77164976D01*
X66575076Y-77129791D01*
X66568203Y-77127377D01*
X66562211Y-77123236D01*
X66505722Y-77105371D01*
X66502001Y-77104129D01*
X66446126Y-77084507D01*
X66446125Y-77084507D01*
X66446219Y-77084240D01*
X66391224Y-77055121D01*
X66389484Y-77052516D01*
X66305301Y-76996266D01*
X66231067Y-76981500D01*
X65656093Y-76981500D01*
X65080934Y-76981501D01*
X65045182Y-76988612D01*
X65018874Y-76993844D01*
X65018872Y-76993845D01*
X65006699Y-76996266D01*
X64996379Y-77003161D01*
X64996378Y-77003162D01*
X64944061Y-77038120D01*
X64922516Y-77052516D01*
X64866266Y-77136699D01*
X64851500Y-77210933D01*
X64851501Y-77861066D01*
X64857409Y-77890768D01*
X64863733Y-77922564D01*
X64866266Y-77935301D01*
X64873161Y-77945621D01*
X64873162Y-77945622D01*
X64891888Y-77973647D01*
X64922516Y-78019484D01*
X65006699Y-78075734D01*
X65080933Y-78090500D01*
X65170720Y-78090500D01*
X66158000Y-78090499D01*
X66226121Y-78110501D01*
X66272614Y-78164157D01*
X66284000Y-78216499D01*
X66284000Y-78755500D01*
X66263998Y-78823621D01*
X66210342Y-78870114D01*
X66158000Y-78881500D01*
X65684621Y-78881500D01*
X65668179Y-78880423D01*
X65667186Y-78880292D01*
X65667182Y-78880292D01*
X65659000Y-78879215D01*
X65650814Y-78880293D01*
X65649825Y-78880423D01*
X65633376Y-78881501D01*
X65080934Y-78881501D01*
X65045363Y-78888576D01*
X65018874Y-78893844D01*
X65018872Y-78893845D01*
X65006699Y-78896266D01*
X64996379Y-78903161D01*
X64996378Y-78903162D01*
X64940885Y-78940242D01*
X64922516Y-78952516D01*
X64866266Y-79036699D01*
X64851500Y-79110933D01*
X61414500Y-79110933D01*
X61414500Y-78266456D01*
X61415373Y-78251647D01*
X61418300Y-78226915D01*
X61419407Y-78217562D01*
X61417361Y-78206358D01*
X61408771Y-78159320D01*
X61408122Y-78155418D01*
X61400716Y-78106164D01*
X61400715Y-78106161D01*
X61399315Y-78096849D01*
X61396162Y-78090282D01*
X61394853Y-78083117D01*
X61367538Y-78030533D01*
X61365788Y-78027030D01*
X61340154Y-77973647D01*
X61335259Y-77968352D01*
X61335166Y-77968213D01*
X61331852Y-77961834D01*
X61327506Y-77956746D01*
X61289924Y-77919164D01*
X61286494Y-77915598D01*
X61282392Y-77911161D01*
X61247383Y-77873288D01*
X61240983Y-77869570D01*
X61234723Y-77863963D01*
X60543749Y-77172989D01*
X60533894Y-77161900D01*
X60523623Y-77148872D01*
X60512641Y-77134941D01*
X60474474Y-77108562D01*
X60463906Y-77101258D01*
X60460713Y-77098976D01*
X60413076Y-77063791D01*
X60406203Y-77061377D01*
X60400211Y-77057236D01*
X60343722Y-77039371D01*
X60340001Y-77038129D01*
X60284126Y-77018507D01*
X60276922Y-77018224D01*
X60276751Y-77018191D01*
X60269903Y-77016025D01*
X60263232Y-77015500D01*
X60210062Y-77015500D01*
X60205116Y-77015403D01*
X60204224Y-77015368D01*
X60147563Y-77013142D01*
X60140408Y-77015039D01*
X60132033Y-77015500D01*
X59797322Y-77015500D01*
X59729201Y-76995498D01*
X59723000Y-76991137D01*
X59722193Y-76990671D01*
X59715643Y-76985645D01*
X59708017Y-76982486D01*
X59708015Y-76982485D01*
X59588383Y-76932932D01*
X59580754Y-76929772D01*
X59571108Y-76928502D01*
X59444188Y-76911793D01*
X59436000Y-76910715D01*
X59427812Y-76911793D01*
X59299432Y-76928694D01*
X59299430Y-76928695D01*
X59291246Y-76929772D01*
X59243430Y-76949578D01*
X59163986Y-76982485D01*
X59163984Y-76982486D01*
X59156358Y-76985645D01*
X59111028Y-77020428D01*
X59051136Y-77066385D01*
X59040526Y-77074526D01*
X59035503Y-77081072D01*
X59016786Y-77105464D01*
X58951645Y-77190358D01*
X58948486Y-77197984D01*
X58948485Y-77197986D01*
X58931501Y-77238989D01*
X58895772Y-77325246D01*
X58894695Y-77333430D01*
X58894694Y-77333432D01*
X58879841Y-77446255D01*
X58876715Y-77470000D01*
X58877793Y-77478188D01*
X58894049Y-77601664D01*
X58895772Y-77614754D01*
X58912372Y-77654829D01*
X58945042Y-77733700D01*
X58951645Y-77749642D01*
X58974440Y-77779349D01*
X59032395Y-77854877D01*
X59040526Y-77865474D01*
X59047076Y-77870500D01*
X59047079Y-77870503D01*
X59149321Y-77948956D01*
X59156357Y-77954355D01*
X59291246Y-78010228D01*
X59436000Y-78029285D01*
X59444188Y-78028207D01*
X59453129Y-78027030D01*
X59580754Y-78010228D01*
X59609104Y-77998485D01*
X59708015Y-77957515D01*
X59708017Y-77957514D01*
X59715643Y-77954355D01*
X59722192Y-77949330D01*
X59729348Y-77945198D01*
X59730276Y-77946805D01*
X59786833Y-77924937D01*
X59797322Y-77924500D01*
X59957550Y-77924500D01*
X60025671Y-77944502D01*
X60046645Y-77961405D01*
X60468595Y-78383355D01*
X60502621Y-78445667D01*
X60505500Y-78472450D01*
X60505500Y-83493500D01*
X60485498Y-83561621D01*
X60431842Y-83608114D01*
X60379500Y-83619500D01*
X59694499Y-83619500D01*
X59626378Y-83599498D01*
X59579885Y-83545842D01*
X59568499Y-83493500D01*
X59568499Y-82298934D01*
X59559639Y-82254389D01*
X59556156Y-82236874D01*
X59556155Y-82236872D01*
X59553734Y-82224699D01*
X59529549Y-82188503D01*
X59504377Y-82150832D01*
X59497484Y-82140516D01*
X59413301Y-82084266D01*
X59339067Y-82069500D01*
X58214182Y-82069500D01*
X57088934Y-82069501D01*
X57082866Y-82070708D01*
X57082865Y-82070708D01*
X57076348Y-82072004D01*
X57047079Y-82077826D01*
X56976366Y-82071497D01*
X56920299Y-82027942D01*
X56896500Y-81954247D01*
X56896500Y-76326500D01*
X56916502Y-76258379D01*
X56970158Y-76211886D01*
X57022500Y-76200500D01*
X70172550Y-76200500D01*
X70240671Y-76220502D01*
G37*
%TD.AperFunction*%
%TA.AperFunction,Conductor*%
G36*
X90873621Y-76220502D02*
G01*
X90920114Y-76274158D01*
X90931500Y-76326500D01*
X90931500Y-80438373D01*
X90911498Y-80506494D01*
X90857842Y-80552987D01*
X90787568Y-80563091D01*
X90722988Y-80533597D01*
X90706842Y-80515297D01*
X90702377Y-80510832D01*
X90695484Y-80500516D01*
X90611301Y-80444266D01*
X90537067Y-80429500D01*
X89662142Y-80429500D01*
X88786934Y-80429501D01*
X88751182Y-80436612D01*
X88724874Y-80441844D01*
X88724872Y-80441845D01*
X88712699Y-80444266D01*
X88702379Y-80451161D01*
X88702378Y-80451162D01*
X88660342Y-80479250D01*
X88628516Y-80500516D01*
X88572266Y-80584699D01*
X88557500Y-80658933D01*
X88557501Y-82409066D01*
X88572266Y-82483301D01*
X88579161Y-82493621D01*
X88579162Y-82493622D01*
X88616678Y-82549767D01*
X88628516Y-82567484D01*
X88712699Y-82623734D01*
X88786933Y-82638500D01*
X89661858Y-82638500D01*
X90537066Y-82638499D01*
X90572818Y-82631388D01*
X90599126Y-82626156D01*
X90599128Y-82626155D01*
X90611301Y-82623734D01*
X90621621Y-82616839D01*
X90621622Y-82616838D01*
X90685168Y-82574377D01*
X90695484Y-82567484D01*
X90702377Y-82557168D01*
X90711154Y-82548391D01*
X90712530Y-82549767D01*
X90755210Y-82514098D01*
X90825653Y-82505249D01*
X90889697Y-82535889D01*
X90927010Y-82596290D01*
X90931500Y-82629627D01*
X90931500Y-83610492D01*
X90911498Y-83678613D01*
X90857842Y-83725106D01*
X90787568Y-83735210D01*
X90722988Y-83705716D01*
X90692494Y-83666220D01*
X90610331Y-83499609D01*
X90607776Y-83494428D01*
X90486320Y-83331779D01*
X90337258Y-83193987D01*
X90332375Y-83190906D01*
X90332371Y-83190903D01*
X90170464Y-83088748D01*
X90165581Y-83085667D01*
X89977039Y-83010446D01*
X89971379Y-83009320D01*
X89971375Y-83009319D01*
X89783613Y-82971971D01*
X89783610Y-82971971D01*
X89777946Y-82970844D01*
X89772171Y-82970768D01*
X89772167Y-82970768D01*
X89670793Y-82969441D01*
X89574971Y-82968187D01*
X89569274Y-82969166D01*
X89569273Y-82969166D01*
X89492926Y-82982285D01*
X89374910Y-83002564D01*
X89184463Y-83072824D01*
X89010010Y-83176612D01*
X89005670Y-83180418D01*
X89005666Y-83180421D01*
X88941966Y-83236285D01*
X88857392Y-83310455D01*
X88853817Y-83314990D01*
X88853816Y-83314991D01*
X88832395Y-83342163D01*
X88731720Y-83469869D01*
X88729031Y-83474980D01*
X88729029Y-83474983D01*
X88698666Y-83532694D01*
X88637203Y-83649515D01*
X88577007Y-83843378D01*
X88553148Y-84044964D01*
X88566424Y-84247522D01*
X88567845Y-84253118D01*
X88567846Y-84253123D01*
X88611325Y-84424318D01*
X88616392Y-84444269D01*
X88618809Y-84449512D01*
X88687754Y-84599066D01*
X88701377Y-84628616D01*
X88704710Y-84633332D01*
X88768416Y-84723474D01*
X88818533Y-84794389D01*
X88822675Y-84798424D01*
X88876713Y-84851065D01*
X88963938Y-84936035D01*
X89132720Y-85048812D01*
X89138023Y-85051090D01*
X89138026Y-85051092D01*
X89226707Y-85089192D01*
X89319228Y-85128942D01*
X89386372Y-85144135D01*
X89511579Y-85172467D01*
X89511584Y-85172468D01*
X89517216Y-85173742D01*
X89522987Y-85173969D01*
X89522989Y-85173969D01*
X89582756Y-85176317D01*
X89720053Y-85181712D01*
X89820499Y-85167148D01*
X89915231Y-85153413D01*
X89915236Y-85153412D01*
X89920945Y-85152584D01*
X89926409Y-85150729D01*
X89926414Y-85150728D01*
X90107693Y-85089192D01*
X90107698Y-85089190D01*
X90113165Y-85087334D01*
X90148971Y-85067282D01*
X90187683Y-85045602D01*
X90290276Y-84988147D01*
X90296950Y-84982597D01*
X90441913Y-84862031D01*
X90446345Y-84858345D01*
X90472171Y-84827293D01*
X90572453Y-84706718D01*
X90572455Y-84706715D01*
X90576147Y-84702276D01*
X90637412Y-84592880D01*
X90672510Y-84530208D01*
X90672511Y-84530206D01*
X90675334Y-84525165D01*
X90677190Y-84519698D01*
X90677192Y-84519693D01*
X90686187Y-84493193D01*
X90727024Y-84435117D01*
X90792777Y-84408338D01*
X90862569Y-84421359D01*
X90914242Y-84470046D01*
X90931500Y-84533694D01*
X90931500Y-91567500D01*
X90911498Y-91635621D01*
X90857842Y-91682114D01*
X90805500Y-91693500D01*
X76256551Y-91693500D01*
X76188430Y-91673498D01*
X76141937Y-91619842D01*
X76131833Y-91549568D01*
X76156589Y-91490795D01*
X76169328Y-91474194D01*
X76169330Y-91474191D01*
X76174355Y-91467642D01*
X76179695Y-91454752D01*
X76227069Y-91340380D01*
X76230228Y-91332754D01*
X76238951Y-91266500D01*
X76248207Y-91196188D01*
X76249285Y-91188000D01*
X76244612Y-91152502D01*
X76231306Y-91051432D01*
X76231305Y-91051430D01*
X76230228Y-91043246D01*
X76174355Y-90908358D01*
X76096197Y-90806500D01*
X76090501Y-90799077D01*
X76090500Y-90799076D01*
X76085474Y-90792526D01*
X76078924Y-90787500D01*
X76078921Y-90787497D01*
X75976196Y-90708673D01*
X75976194Y-90708672D01*
X75969643Y-90703645D01*
X75834754Y-90647772D01*
X75690000Y-90628715D01*
X75681812Y-90629793D01*
X75553432Y-90646694D01*
X75553430Y-90646695D01*
X75545246Y-90647772D01*
X75521725Y-90657515D01*
X75417986Y-90700485D01*
X75417984Y-90700486D01*
X75410358Y-90703645D01*
X75403805Y-90708673D01*
X75403802Y-90708675D01*
X75310247Y-90780462D01*
X75244027Y-90806063D01*
X75233543Y-90806500D01*
X73637115Y-90806500D01*
X73568994Y-90786498D01*
X73522501Y-90732842D01*
X73512397Y-90662568D01*
X73541891Y-90597988D01*
X73542641Y-90597183D01*
X73547474Y-90593474D01*
X73636355Y-90477642D01*
X73692228Y-90342754D01*
X73694911Y-90322380D01*
X73710207Y-90206188D01*
X73711285Y-90198000D01*
X73701339Y-90122449D01*
X73693306Y-90061432D01*
X73693305Y-90061430D01*
X73692228Y-90053246D01*
X73661896Y-89980018D01*
X73639515Y-89925986D01*
X73639514Y-89925984D01*
X73636355Y-89918358D01*
X73631327Y-89911805D01*
X73631325Y-89911802D01*
X73559538Y-89818247D01*
X73533937Y-89752027D01*
X73533500Y-89741543D01*
X73533500Y-89636212D01*
X73553502Y-89568091D01*
X73570405Y-89547117D01*
X74250117Y-88867405D01*
X74312429Y-88833379D01*
X74339212Y-88830500D01*
X75976695Y-88830499D01*
X76177066Y-88830499D01*
X76212818Y-88823388D01*
X76239126Y-88818156D01*
X76239128Y-88818155D01*
X76251301Y-88815734D01*
X76261621Y-88808839D01*
X76261622Y-88808838D01*
X76325168Y-88766377D01*
X76335484Y-88759484D01*
X76391734Y-88675301D01*
X76406500Y-88601067D01*
X76406499Y-86150934D01*
X76391734Y-86076699D01*
X76384690Y-86066156D01*
X76342377Y-86002832D01*
X76335484Y-85992516D01*
X76334088Y-85991583D01*
X76303623Y-85935792D01*
X76310335Y-85860790D01*
X76312678Y-85855135D01*
X76359228Y-85742754D01*
X76369969Y-85661171D01*
X76375454Y-85619501D01*
X76378285Y-85598000D01*
X76372306Y-85552586D01*
X76360306Y-85461432D01*
X76360305Y-85461430D01*
X76359228Y-85453246D01*
X76303355Y-85318358D01*
X76249385Y-85248023D01*
X76219501Y-85209077D01*
X76219500Y-85209076D01*
X76214474Y-85202526D01*
X76207924Y-85197500D01*
X76207921Y-85197497D01*
X76105196Y-85118673D01*
X76105194Y-85118672D01*
X76098643Y-85113645D01*
X76015990Y-85079409D01*
X75960709Y-85034861D01*
X75938288Y-84967497D01*
X75955846Y-84898706D01*
X76007808Y-84850328D01*
X76015990Y-84846591D01*
X76017716Y-84845876D01*
X76098643Y-84812355D01*
X76105833Y-84806838D01*
X76207921Y-84728503D01*
X76207924Y-84728500D01*
X76214474Y-84723474D01*
X76227332Y-84706718D01*
X76283678Y-84633285D01*
X76303355Y-84607642D01*
X76306908Y-84599066D01*
X76356069Y-84480380D01*
X76359228Y-84472754D01*
X76359931Y-84467414D01*
X76396189Y-84407926D01*
X76460049Y-84376903D01*
X76530544Y-84385330D01*
X76570041Y-84412063D01*
X77192838Y-85034861D01*
X77813595Y-85655618D01*
X77847621Y-85717930D01*
X77850500Y-85744713D01*
X77850500Y-89713543D01*
X77830498Y-89781664D01*
X77824462Y-89790247D01*
X77752675Y-89883802D01*
X77752673Y-89883805D01*
X77747645Y-89890358D01*
X77744486Y-89897984D01*
X77744485Y-89897986D01*
X77736047Y-89918358D01*
X77691772Y-90025246D01*
X77690695Y-90033430D01*
X77690694Y-90033432D01*
X77681368Y-90104274D01*
X77672715Y-90170000D01*
X77673793Y-90178188D01*
X77690377Y-90304155D01*
X77691772Y-90314754D01*
X77703370Y-90342754D01*
X77733893Y-90416441D01*
X77747645Y-90449642D01*
X77836526Y-90565474D01*
X77843076Y-90570500D01*
X77843079Y-90570503D01*
X77945804Y-90649327D01*
X77952357Y-90654355D01*
X78087246Y-90710228D01*
X78232000Y-90729285D01*
X78240188Y-90728207D01*
X78368566Y-90711306D01*
X78376754Y-90710228D01*
X78511643Y-90654355D01*
X78518196Y-90649327D01*
X78620921Y-90570503D01*
X78620924Y-90570500D01*
X78627474Y-90565474D01*
X78716355Y-90449642D01*
X78730108Y-90416441D01*
X78760630Y-90342754D01*
X78772228Y-90314754D01*
X78773624Y-90304155D01*
X78790207Y-90178188D01*
X78791285Y-90170000D01*
X78782632Y-90104274D01*
X78773306Y-90033432D01*
X78773305Y-90033430D01*
X78772228Y-90025246D01*
X78727953Y-89918358D01*
X78719515Y-89897986D01*
X78719514Y-89897984D01*
X78716355Y-89890358D01*
X78711327Y-89883805D01*
X78711325Y-89883802D01*
X78639538Y-89790247D01*
X78613937Y-89724027D01*
X78613500Y-89713543D01*
X78613500Y-87389836D01*
X78633502Y-87321715D01*
X78687158Y-87275222D01*
X78757432Y-87265118D01*
X78816202Y-87289873D01*
X78841357Y-87309175D01*
X78976246Y-87365048D01*
X79121000Y-87384105D01*
X79129188Y-87383027D01*
X79257566Y-87366126D01*
X79265754Y-87365048D01*
X79400643Y-87309175D01*
X79425797Y-87289874D01*
X79500752Y-87232358D01*
X79566972Y-87206757D01*
X79577456Y-87206320D01*
X81042780Y-87206320D01*
X81110901Y-87226322D01*
X81145676Y-87259598D01*
X81198533Y-87334389D01*
X81343938Y-87476035D01*
X81512720Y-87588812D01*
X81518023Y-87591090D01*
X81518026Y-87591092D01*
X81639470Y-87643268D01*
X81699228Y-87668942D01*
X81772244Y-87685464D01*
X81891579Y-87712467D01*
X81891584Y-87712468D01*
X81897216Y-87713742D01*
X81902987Y-87713969D01*
X81902989Y-87713969D01*
X81962756Y-87716317D01*
X82100053Y-87721712D01*
X82200499Y-87707148D01*
X82295231Y-87693413D01*
X82295236Y-87693412D01*
X82300945Y-87692584D01*
X82306409Y-87690729D01*
X82306414Y-87690728D01*
X82487693Y-87629192D01*
X82487698Y-87629190D01*
X82493165Y-87627334D01*
X82506658Y-87619778D01*
X82567683Y-87585602D01*
X82670276Y-87528147D01*
X82681876Y-87518500D01*
X82821913Y-87402031D01*
X82826345Y-87398345D01*
X82897879Y-87312335D01*
X82952453Y-87246718D01*
X82952455Y-87246715D01*
X82956147Y-87242276D01*
X83046818Y-87080371D01*
X83052510Y-87070208D01*
X83052511Y-87070206D01*
X83055334Y-87065165D01*
X83057190Y-87059698D01*
X83057192Y-87059693D01*
X83118728Y-86878414D01*
X83118729Y-86878409D01*
X83120584Y-86872945D01*
X83121412Y-86867236D01*
X83121413Y-86867231D01*
X83149179Y-86675727D01*
X83149712Y-86672053D01*
X83151232Y-86614000D01*
X83148564Y-86584964D01*
X83473148Y-86584964D01*
X83486424Y-86787522D01*
X83487845Y-86793118D01*
X83487846Y-86793123D01*
X83521212Y-86924499D01*
X83536392Y-86984269D01*
X83538809Y-86989512D01*
X83576010Y-87070208D01*
X83621377Y-87168616D01*
X83624710Y-87173332D01*
X83720714Y-87309175D01*
X83738533Y-87334389D01*
X83883938Y-87476035D01*
X84052720Y-87588812D01*
X84058023Y-87591090D01*
X84058026Y-87591092D01*
X84179470Y-87643268D01*
X84239228Y-87668942D01*
X84312244Y-87685464D01*
X84431579Y-87712467D01*
X84431584Y-87712468D01*
X84437216Y-87713742D01*
X84442987Y-87713969D01*
X84442989Y-87713969D01*
X84502756Y-87716317D01*
X84640053Y-87721712D01*
X84740499Y-87707148D01*
X84835231Y-87693413D01*
X84835236Y-87693412D01*
X84840945Y-87692584D01*
X84846409Y-87690729D01*
X84846414Y-87690728D01*
X85027693Y-87629192D01*
X85027698Y-87629190D01*
X85033165Y-87627334D01*
X85046658Y-87619778D01*
X85107683Y-87585602D01*
X85210276Y-87528147D01*
X85221876Y-87518500D01*
X85361913Y-87402031D01*
X85366345Y-87398345D01*
X85437879Y-87312335D01*
X85492453Y-87246718D01*
X85492455Y-87246715D01*
X85496147Y-87242276D01*
X85586818Y-87080371D01*
X85592510Y-87070208D01*
X85592511Y-87070206D01*
X85595334Y-87065165D01*
X85597190Y-87059698D01*
X85597192Y-87059693D01*
X85658728Y-86878414D01*
X85658729Y-86878409D01*
X85660584Y-86872945D01*
X85661412Y-86867236D01*
X85661413Y-86867231D01*
X85689179Y-86675727D01*
X85689712Y-86672053D01*
X85691232Y-86614000D01*
X85688564Y-86584964D01*
X86013148Y-86584964D01*
X86026424Y-86787522D01*
X86027845Y-86793118D01*
X86027846Y-86793123D01*
X86061212Y-86924499D01*
X86076392Y-86984269D01*
X86078809Y-86989512D01*
X86116010Y-87070208D01*
X86161377Y-87168616D01*
X86164710Y-87173332D01*
X86260714Y-87309175D01*
X86278533Y-87334389D01*
X86423938Y-87476035D01*
X86592720Y-87588812D01*
X86598023Y-87591090D01*
X86598026Y-87591092D01*
X86719470Y-87643268D01*
X86779228Y-87668942D01*
X86852244Y-87685464D01*
X86971579Y-87712467D01*
X86971584Y-87712468D01*
X86977216Y-87713742D01*
X86982987Y-87713969D01*
X86982989Y-87713969D01*
X87042756Y-87716317D01*
X87180053Y-87721712D01*
X87280499Y-87707148D01*
X87375231Y-87693413D01*
X87375236Y-87693412D01*
X87380945Y-87692584D01*
X87386409Y-87690729D01*
X87386414Y-87690728D01*
X87567693Y-87629192D01*
X87567698Y-87629190D01*
X87573165Y-87627334D01*
X87586658Y-87619778D01*
X87647683Y-87585602D01*
X87750276Y-87528147D01*
X87761876Y-87518500D01*
X87901913Y-87402031D01*
X87906345Y-87398345D01*
X87977879Y-87312335D01*
X88032453Y-87246718D01*
X88032455Y-87246715D01*
X88036147Y-87242276D01*
X88126818Y-87080371D01*
X88132510Y-87070208D01*
X88132511Y-87070206D01*
X88135334Y-87065165D01*
X88137190Y-87059698D01*
X88137192Y-87059693D01*
X88198728Y-86878414D01*
X88198729Y-86878409D01*
X88200584Y-86872945D01*
X88201412Y-86867236D01*
X88201413Y-86867231D01*
X88229179Y-86675727D01*
X88229712Y-86672053D01*
X88231232Y-86614000D01*
X88212658Y-86411859D01*
X88211090Y-86406299D01*
X88159125Y-86222046D01*
X88159124Y-86222044D01*
X88157557Y-86216487D01*
X88146978Y-86195033D01*
X88070331Y-86039609D01*
X88067776Y-86034428D01*
X87946320Y-85871779D01*
X87797258Y-85733987D01*
X87792375Y-85730906D01*
X87792371Y-85730903D01*
X87639210Y-85634266D01*
X87625581Y-85625667D01*
X87437039Y-85550446D01*
X87431379Y-85549320D01*
X87431375Y-85549319D01*
X87243613Y-85511971D01*
X87243610Y-85511971D01*
X87237946Y-85510844D01*
X87232171Y-85510768D01*
X87232167Y-85510768D01*
X87130793Y-85509441D01*
X87034971Y-85508187D01*
X87029274Y-85509166D01*
X87029273Y-85509166D01*
X86840607Y-85541585D01*
X86834910Y-85542564D01*
X86644463Y-85612824D01*
X86470010Y-85716612D01*
X86465670Y-85720418D01*
X86465666Y-85720421D01*
X86346102Y-85825277D01*
X86317392Y-85850455D01*
X86313817Y-85854990D01*
X86313816Y-85854991D01*
X86303675Y-85867855D01*
X86191720Y-86009869D01*
X86189031Y-86014980D01*
X86189029Y-86014983D01*
X86150154Y-86088872D01*
X86097203Y-86189515D01*
X86037007Y-86383378D01*
X86013148Y-86584964D01*
X85688564Y-86584964D01*
X85672658Y-86411859D01*
X85671090Y-86406299D01*
X85619125Y-86222046D01*
X85619124Y-86222044D01*
X85617557Y-86216487D01*
X85606978Y-86195033D01*
X85530331Y-86039609D01*
X85527776Y-86034428D01*
X85406320Y-85871779D01*
X85257258Y-85733987D01*
X85252375Y-85730906D01*
X85252371Y-85730903D01*
X85099210Y-85634266D01*
X85085581Y-85625667D01*
X84897039Y-85550446D01*
X84891379Y-85549320D01*
X84891375Y-85549319D01*
X84703613Y-85511971D01*
X84703610Y-85511971D01*
X84697946Y-85510844D01*
X84692171Y-85510768D01*
X84692167Y-85510768D01*
X84590793Y-85509441D01*
X84494971Y-85508187D01*
X84489274Y-85509166D01*
X84489273Y-85509166D01*
X84300607Y-85541585D01*
X84294910Y-85542564D01*
X84104463Y-85612824D01*
X83930010Y-85716612D01*
X83925670Y-85720418D01*
X83925666Y-85720421D01*
X83806102Y-85825277D01*
X83777392Y-85850455D01*
X83773817Y-85854990D01*
X83773816Y-85854991D01*
X83763675Y-85867855D01*
X83651720Y-86009869D01*
X83649031Y-86014980D01*
X83649029Y-86014983D01*
X83610154Y-86088872D01*
X83557203Y-86189515D01*
X83497007Y-86383378D01*
X83473148Y-86584964D01*
X83148564Y-86584964D01*
X83132658Y-86411859D01*
X83131090Y-86406299D01*
X83079125Y-86222046D01*
X83079124Y-86222044D01*
X83077557Y-86216487D01*
X83066978Y-86195033D01*
X82990331Y-86039609D01*
X82987776Y-86034428D01*
X82866320Y-85871779D01*
X82717258Y-85733987D01*
X82712375Y-85730906D01*
X82712371Y-85730903D01*
X82559210Y-85634266D01*
X82545581Y-85625667D01*
X82357039Y-85550446D01*
X82351379Y-85549320D01*
X82351375Y-85549319D01*
X82163613Y-85511971D01*
X82163610Y-85511971D01*
X82157946Y-85510844D01*
X82152171Y-85510768D01*
X82152167Y-85510768D01*
X82050793Y-85509441D01*
X81954971Y-85508187D01*
X81949274Y-85509166D01*
X81949273Y-85509166D01*
X81760607Y-85541585D01*
X81754910Y-85542564D01*
X81564463Y-85612824D01*
X81390010Y-85716612D01*
X81385670Y-85720418D01*
X81385666Y-85720421D01*
X81266102Y-85825277D01*
X81237392Y-85850455D01*
X81233817Y-85854990D01*
X81233816Y-85854991D01*
X81223675Y-85867855D01*
X81111720Y-86009869D01*
X81109031Y-86014980D01*
X81109029Y-86014983D01*
X81070154Y-86088872D01*
X81017203Y-86189515D01*
X81008828Y-86216487D01*
X80965917Y-86354684D01*
X80926614Y-86413809D01*
X80861584Y-86442300D01*
X80845584Y-86443320D01*
X79628500Y-86443320D01*
X79560379Y-86423318D01*
X79513886Y-86369662D01*
X79502500Y-86317320D01*
X79502500Y-83747136D01*
X79505085Y-83722846D01*
X79505153Y-83721401D01*
X79507345Y-83711220D01*
X79503373Y-83677656D01*
X79503021Y-83671680D01*
X79502928Y-83671688D01*
X79502500Y-83666510D01*
X79502500Y-83661308D01*
X79501805Y-83657135D01*
X79516070Y-83587876D01*
X79565714Y-83537121D01*
X79634916Y-83521262D01*
X79701707Y-83545335D01*
X79716415Y-83557938D01*
X80463956Y-84305479D01*
X80479315Y-84324495D01*
X80480281Y-84325556D01*
X80485929Y-84334304D01*
X80494106Y-84340750D01*
X80512472Y-84355229D01*
X80516947Y-84359206D01*
X80517008Y-84359135D01*
X80520965Y-84362488D01*
X80524648Y-84366171D01*
X80528883Y-84369197D01*
X80528885Y-84369199D01*
X80540436Y-84377453D01*
X80545182Y-84381016D01*
X80585670Y-84412934D01*
X80594357Y-84415985D01*
X80601843Y-84421334D01*
X80611819Y-84424317D01*
X80611820Y-84424318D01*
X80651211Y-84436098D01*
X80656843Y-84437928D01*
X80705502Y-84455016D01*
X80711091Y-84455500D01*
X80713802Y-84455500D01*
X80716469Y-84455615D01*
X80716532Y-84455634D01*
X80716525Y-84455808D01*
X80717271Y-84455855D01*
X80723524Y-84457725D01*
X80773383Y-84455766D01*
X80777678Y-84455597D01*
X80782625Y-84455500D01*
X80920912Y-84455500D01*
X80989033Y-84475502D01*
X81035338Y-84528749D01*
X81081377Y-84628616D01*
X81084710Y-84633332D01*
X81148416Y-84723474D01*
X81198533Y-84794389D01*
X81202675Y-84798424D01*
X81256713Y-84851065D01*
X81343938Y-84936035D01*
X81512720Y-85048812D01*
X81518023Y-85051090D01*
X81518026Y-85051092D01*
X81606707Y-85089192D01*
X81699228Y-85128942D01*
X81766372Y-85144135D01*
X81891579Y-85172467D01*
X81891584Y-85172468D01*
X81897216Y-85173742D01*
X81902987Y-85173969D01*
X81902989Y-85173969D01*
X81962756Y-85176317D01*
X82100053Y-85181712D01*
X82200499Y-85167148D01*
X82295231Y-85153413D01*
X82295236Y-85153412D01*
X82300945Y-85152584D01*
X82306409Y-85150729D01*
X82306414Y-85150728D01*
X82487693Y-85089192D01*
X82487698Y-85089190D01*
X82493165Y-85087334D01*
X82528971Y-85067282D01*
X82567683Y-85045602D01*
X82670276Y-84988147D01*
X82676950Y-84982597D01*
X82821913Y-84862031D01*
X82826345Y-84858345D01*
X82852171Y-84827293D01*
X82952453Y-84706718D01*
X82952455Y-84706715D01*
X82956147Y-84702276D01*
X83017412Y-84592880D01*
X83052510Y-84530208D01*
X83052511Y-84530206D01*
X83055334Y-84525165D01*
X83057190Y-84519698D01*
X83057192Y-84519693D01*
X83118728Y-84338414D01*
X83118729Y-84338409D01*
X83120584Y-84332945D01*
X83121412Y-84327236D01*
X83121413Y-84327231D01*
X83149179Y-84135727D01*
X83149712Y-84132053D01*
X83151232Y-84074000D01*
X83148564Y-84044964D01*
X83473148Y-84044964D01*
X83486424Y-84247522D01*
X83487845Y-84253118D01*
X83487846Y-84253123D01*
X83531325Y-84424318D01*
X83536392Y-84444269D01*
X83538809Y-84449512D01*
X83607754Y-84599066D01*
X83621377Y-84628616D01*
X83624710Y-84633332D01*
X83688416Y-84723474D01*
X83738533Y-84794389D01*
X83742675Y-84798424D01*
X83796713Y-84851065D01*
X83883938Y-84936035D01*
X84052720Y-85048812D01*
X84058023Y-85051090D01*
X84058026Y-85051092D01*
X84146707Y-85089192D01*
X84239228Y-85128942D01*
X84306372Y-85144135D01*
X84431579Y-85172467D01*
X84431584Y-85172468D01*
X84437216Y-85173742D01*
X84442987Y-85173969D01*
X84442989Y-85173969D01*
X84502756Y-85176317D01*
X84640053Y-85181712D01*
X84740499Y-85167148D01*
X84835231Y-85153413D01*
X84835236Y-85153412D01*
X84840945Y-85152584D01*
X84846409Y-85150729D01*
X84846414Y-85150728D01*
X85027693Y-85089192D01*
X85027698Y-85089190D01*
X85033165Y-85087334D01*
X85068971Y-85067282D01*
X85107683Y-85045602D01*
X85210276Y-84988147D01*
X85216950Y-84982597D01*
X85361913Y-84862031D01*
X85366345Y-84858345D01*
X85392171Y-84827293D01*
X85492453Y-84706718D01*
X85492455Y-84706715D01*
X85496147Y-84702276D01*
X85557412Y-84592880D01*
X85592510Y-84530208D01*
X85592511Y-84530206D01*
X85595334Y-84525165D01*
X85597190Y-84519698D01*
X85597192Y-84519693D01*
X85658728Y-84338414D01*
X85658729Y-84338409D01*
X85660584Y-84332945D01*
X85661412Y-84327236D01*
X85661413Y-84327231D01*
X85689179Y-84135727D01*
X85689712Y-84132053D01*
X85691232Y-84074000D01*
X85688564Y-84044964D01*
X86013148Y-84044964D01*
X86026424Y-84247522D01*
X86027845Y-84253118D01*
X86027846Y-84253123D01*
X86071325Y-84424318D01*
X86076392Y-84444269D01*
X86078809Y-84449512D01*
X86147754Y-84599066D01*
X86161377Y-84628616D01*
X86164710Y-84633332D01*
X86228416Y-84723474D01*
X86278533Y-84794389D01*
X86282675Y-84798424D01*
X86336713Y-84851065D01*
X86423938Y-84936035D01*
X86592720Y-85048812D01*
X86598023Y-85051090D01*
X86598026Y-85051092D01*
X86686707Y-85089192D01*
X86779228Y-85128942D01*
X86846372Y-85144135D01*
X86971579Y-85172467D01*
X86971584Y-85172468D01*
X86977216Y-85173742D01*
X86982987Y-85173969D01*
X86982989Y-85173969D01*
X87042756Y-85176317D01*
X87180053Y-85181712D01*
X87280499Y-85167148D01*
X87375231Y-85153413D01*
X87375236Y-85153412D01*
X87380945Y-85152584D01*
X87386409Y-85150729D01*
X87386414Y-85150728D01*
X87567693Y-85089192D01*
X87567698Y-85089190D01*
X87573165Y-85087334D01*
X87608971Y-85067282D01*
X87647683Y-85045602D01*
X87750276Y-84988147D01*
X87756950Y-84982597D01*
X87901913Y-84862031D01*
X87906345Y-84858345D01*
X87932171Y-84827293D01*
X88032453Y-84706718D01*
X88032455Y-84706715D01*
X88036147Y-84702276D01*
X88097412Y-84592880D01*
X88132510Y-84530208D01*
X88132511Y-84530206D01*
X88135334Y-84525165D01*
X88137190Y-84519698D01*
X88137192Y-84519693D01*
X88198728Y-84338414D01*
X88198729Y-84338409D01*
X88200584Y-84332945D01*
X88201412Y-84327236D01*
X88201413Y-84327231D01*
X88229179Y-84135727D01*
X88229712Y-84132053D01*
X88231232Y-84074000D01*
X88218683Y-83937432D01*
X88213187Y-83877613D01*
X88213186Y-83877610D01*
X88212658Y-83871859D01*
X88206782Y-83851023D01*
X88159125Y-83682046D01*
X88159124Y-83682044D01*
X88157557Y-83676487D01*
X88152368Y-83665963D01*
X88070331Y-83499609D01*
X88067776Y-83494428D01*
X87946320Y-83331779D01*
X87797258Y-83193987D01*
X87792375Y-83190906D01*
X87792371Y-83190903D01*
X87630464Y-83088748D01*
X87625581Y-83085667D01*
X87437039Y-83010446D01*
X87431379Y-83009320D01*
X87431375Y-83009319D01*
X87243613Y-82971971D01*
X87243610Y-82971971D01*
X87237946Y-82970844D01*
X87232171Y-82970768D01*
X87232167Y-82970768D01*
X87130793Y-82969441D01*
X87034971Y-82968187D01*
X87029274Y-82969166D01*
X87029273Y-82969166D01*
X86952926Y-82982285D01*
X86834910Y-83002564D01*
X86644463Y-83072824D01*
X86470010Y-83176612D01*
X86465670Y-83180418D01*
X86465666Y-83180421D01*
X86401966Y-83236285D01*
X86317392Y-83310455D01*
X86313817Y-83314990D01*
X86313816Y-83314991D01*
X86292395Y-83342163D01*
X86191720Y-83469869D01*
X86189031Y-83474980D01*
X86189029Y-83474983D01*
X86158666Y-83532694D01*
X86097203Y-83649515D01*
X86037007Y-83843378D01*
X86013148Y-84044964D01*
X85688564Y-84044964D01*
X85678683Y-83937432D01*
X85673187Y-83877613D01*
X85673186Y-83877610D01*
X85672658Y-83871859D01*
X85666782Y-83851023D01*
X85619125Y-83682046D01*
X85619124Y-83682044D01*
X85617557Y-83676487D01*
X85612368Y-83665963D01*
X85530331Y-83499609D01*
X85527776Y-83494428D01*
X85406320Y-83331779D01*
X85257258Y-83193987D01*
X85252375Y-83190906D01*
X85252371Y-83190903D01*
X85090464Y-83088748D01*
X85085581Y-83085667D01*
X84897039Y-83010446D01*
X84891379Y-83009320D01*
X84891375Y-83009319D01*
X84703613Y-82971971D01*
X84703610Y-82971971D01*
X84697946Y-82970844D01*
X84692171Y-82970768D01*
X84692167Y-82970768D01*
X84590793Y-82969441D01*
X84494971Y-82968187D01*
X84489274Y-82969166D01*
X84489273Y-82969166D01*
X84412926Y-82982285D01*
X84294910Y-83002564D01*
X84104463Y-83072824D01*
X83930010Y-83176612D01*
X83925670Y-83180418D01*
X83925666Y-83180421D01*
X83861966Y-83236285D01*
X83777392Y-83310455D01*
X83773817Y-83314990D01*
X83773816Y-83314991D01*
X83752395Y-83342163D01*
X83651720Y-83469869D01*
X83649031Y-83474980D01*
X83649029Y-83474983D01*
X83618666Y-83532694D01*
X83557203Y-83649515D01*
X83497007Y-83843378D01*
X83473148Y-84044964D01*
X83148564Y-84044964D01*
X83138683Y-83937432D01*
X83133187Y-83877613D01*
X83133186Y-83877610D01*
X83132658Y-83871859D01*
X83126782Y-83851023D01*
X83079125Y-83682046D01*
X83079124Y-83682044D01*
X83077557Y-83676487D01*
X83072368Y-83665963D01*
X82990331Y-83499609D01*
X82987776Y-83494428D01*
X82866320Y-83331779D01*
X82717258Y-83193987D01*
X82712375Y-83190906D01*
X82712371Y-83190903D01*
X82550464Y-83088748D01*
X82545581Y-83085667D01*
X82357039Y-83010446D01*
X82351379Y-83009320D01*
X82351375Y-83009319D01*
X82163613Y-82971971D01*
X82163610Y-82971971D01*
X82157946Y-82970844D01*
X82152171Y-82970768D01*
X82152167Y-82970768D01*
X82050793Y-82969441D01*
X81954971Y-82968187D01*
X81949274Y-82969166D01*
X81949273Y-82969166D01*
X81872926Y-82982285D01*
X81754910Y-83002564D01*
X81564463Y-83072824D01*
X81390010Y-83176612D01*
X81385670Y-83180418D01*
X81385666Y-83180421D01*
X81321966Y-83236285D01*
X81237392Y-83310455D01*
X81233817Y-83314990D01*
X81233816Y-83314991D01*
X81212395Y-83342163D01*
X81111720Y-83469869D01*
X81051975Y-83583425D01*
X81002557Y-83634396D01*
X80933425Y-83650559D01*
X80866529Y-83626780D01*
X80851373Y-83613851D01*
X78996573Y-81759050D01*
X78742487Y-81504964D01*
X80933148Y-81504964D01*
X80946424Y-81707522D01*
X80947845Y-81713118D01*
X80947846Y-81713123D01*
X80983282Y-81852648D01*
X80996392Y-81904269D01*
X80998809Y-81909512D01*
X81036010Y-81990208D01*
X81081377Y-82088616D01*
X81092872Y-82104881D01*
X81186155Y-82236874D01*
X81198533Y-82254389D01*
X81343938Y-82396035D01*
X81512720Y-82508812D01*
X81518023Y-82511090D01*
X81518026Y-82511092D01*
X81675326Y-82578673D01*
X81699228Y-82588942D01*
X81731702Y-82596290D01*
X81891579Y-82632467D01*
X81891584Y-82632468D01*
X81897216Y-82633742D01*
X81902987Y-82633969D01*
X81902989Y-82633969D01*
X81962756Y-82636317D01*
X82100053Y-82641712D01*
X82207348Y-82626155D01*
X82295231Y-82613413D01*
X82295236Y-82613412D01*
X82300945Y-82612584D01*
X82306409Y-82610729D01*
X82306414Y-82610728D01*
X82487693Y-82549192D01*
X82487698Y-82549190D01*
X82493165Y-82547334D01*
X82505490Y-82540432D01*
X82569590Y-82504534D01*
X82670276Y-82448147D01*
X82690338Y-82431462D01*
X82814462Y-82328228D01*
X82826345Y-82318345D01*
X82864595Y-82272355D01*
X82952453Y-82166718D01*
X82952455Y-82166715D01*
X82956147Y-82162276D01*
X83055334Y-81985165D01*
X83057190Y-81979698D01*
X83057192Y-81979693D01*
X83118728Y-81798414D01*
X83118729Y-81798409D01*
X83120584Y-81792945D01*
X83121412Y-81787236D01*
X83121413Y-81787231D01*
X83143395Y-81635620D01*
X83149712Y-81592053D01*
X83151232Y-81534000D01*
X83148564Y-81504964D01*
X83473148Y-81504964D01*
X83486424Y-81707522D01*
X83487845Y-81713118D01*
X83487846Y-81713123D01*
X83523282Y-81852648D01*
X83536392Y-81904269D01*
X83538809Y-81909512D01*
X83576010Y-81990208D01*
X83621377Y-82088616D01*
X83632872Y-82104881D01*
X83726155Y-82236874D01*
X83738533Y-82254389D01*
X83883938Y-82396035D01*
X84052720Y-82508812D01*
X84058023Y-82511090D01*
X84058026Y-82511092D01*
X84215326Y-82578673D01*
X84239228Y-82588942D01*
X84271702Y-82596290D01*
X84431579Y-82632467D01*
X84431584Y-82632468D01*
X84437216Y-82633742D01*
X84442987Y-82633969D01*
X84442989Y-82633969D01*
X84502756Y-82636317D01*
X84640053Y-82641712D01*
X84747348Y-82626155D01*
X84835231Y-82613413D01*
X84835236Y-82613412D01*
X84840945Y-82612584D01*
X84846409Y-82610729D01*
X84846414Y-82610728D01*
X85027693Y-82549192D01*
X85027698Y-82549190D01*
X85033165Y-82547334D01*
X85045490Y-82540432D01*
X85109590Y-82504534D01*
X85210276Y-82448147D01*
X85230338Y-82431462D01*
X85354462Y-82328228D01*
X85366345Y-82318345D01*
X85404595Y-82272355D01*
X85492453Y-82166718D01*
X85492455Y-82166715D01*
X85496147Y-82162276D01*
X85595334Y-81985165D01*
X85597190Y-81979698D01*
X85597192Y-81979693D01*
X85658728Y-81798414D01*
X85658729Y-81798409D01*
X85660584Y-81792945D01*
X85661412Y-81787236D01*
X85661413Y-81787231D01*
X85683395Y-81635620D01*
X85689712Y-81592053D01*
X85691232Y-81534000D01*
X85688564Y-81504964D01*
X86013148Y-81504964D01*
X86026424Y-81707522D01*
X86027845Y-81713118D01*
X86027846Y-81713123D01*
X86063282Y-81852648D01*
X86076392Y-81904269D01*
X86078809Y-81909512D01*
X86116010Y-81990208D01*
X86161377Y-82088616D01*
X86172872Y-82104881D01*
X86266155Y-82236874D01*
X86278533Y-82254389D01*
X86423938Y-82396035D01*
X86592720Y-82508812D01*
X86598023Y-82511090D01*
X86598026Y-82511092D01*
X86755326Y-82578673D01*
X86779228Y-82588942D01*
X86811702Y-82596290D01*
X86971579Y-82632467D01*
X86971584Y-82632468D01*
X86977216Y-82633742D01*
X86982987Y-82633969D01*
X86982989Y-82633969D01*
X87042756Y-82636317D01*
X87180053Y-82641712D01*
X87287348Y-82626155D01*
X87375231Y-82613413D01*
X87375236Y-82613412D01*
X87380945Y-82612584D01*
X87386409Y-82610729D01*
X87386414Y-82610728D01*
X87567693Y-82549192D01*
X87567698Y-82549190D01*
X87573165Y-82547334D01*
X87585490Y-82540432D01*
X87649590Y-82504534D01*
X87750276Y-82448147D01*
X87770338Y-82431462D01*
X87894462Y-82328228D01*
X87906345Y-82318345D01*
X87944595Y-82272355D01*
X88032453Y-82166718D01*
X88032455Y-82166715D01*
X88036147Y-82162276D01*
X88135334Y-81985165D01*
X88137190Y-81979698D01*
X88137192Y-81979693D01*
X88198728Y-81798414D01*
X88198729Y-81798409D01*
X88200584Y-81792945D01*
X88201412Y-81787236D01*
X88201413Y-81787231D01*
X88223395Y-81635620D01*
X88229712Y-81592053D01*
X88231232Y-81534000D01*
X88218683Y-81397432D01*
X88213187Y-81337613D01*
X88213186Y-81337610D01*
X88212658Y-81331859D01*
X88211090Y-81326299D01*
X88159125Y-81142046D01*
X88159124Y-81142044D01*
X88157557Y-81136487D01*
X88150556Y-81122289D01*
X88070331Y-80959609D01*
X88067776Y-80954428D01*
X87946320Y-80791779D01*
X87797258Y-80653987D01*
X87792375Y-80650906D01*
X87792371Y-80650903D01*
X87646728Y-80559010D01*
X87625581Y-80545667D01*
X87437039Y-80470446D01*
X87431379Y-80469320D01*
X87431375Y-80469319D01*
X87243613Y-80431971D01*
X87243610Y-80431971D01*
X87237946Y-80430844D01*
X87232171Y-80430768D01*
X87232167Y-80430768D01*
X87130793Y-80429441D01*
X87034971Y-80428187D01*
X87029274Y-80429166D01*
X87029273Y-80429166D01*
X86941397Y-80444266D01*
X86834910Y-80462564D01*
X86644463Y-80532824D01*
X86470010Y-80636612D01*
X86465670Y-80640418D01*
X86465666Y-80640421D01*
X86321733Y-80766648D01*
X86317392Y-80770455D01*
X86191720Y-80929869D01*
X86189031Y-80934980D01*
X86189029Y-80934983D01*
X86176073Y-80959609D01*
X86097203Y-81109515D01*
X86037007Y-81303378D01*
X86013148Y-81504964D01*
X85688564Y-81504964D01*
X85678683Y-81397432D01*
X85673187Y-81337613D01*
X85673186Y-81337610D01*
X85672658Y-81331859D01*
X85671090Y-81326299D01*
X85619125Y-81142046D01*
X85619124Y-81142044D01*
X85617557Y-81136487D01*
X85610556Y-81122289D01*
X85530331Y-80959609D01*
X85527776Y-80954428D01*
X85406320Y-80791779D01*
X85257258Y-80653987D01*
X85252375Y-80650906D01*
X85252371Y-80650903D01*
X85106728Y-80559010D01*
X85085581Y-80545667D01*
X84897039Y-80470446D01*
X84891379Y-80469320D01*
X84891375Y-80469319D01*
X84703613Y-80431971D01*
X84703610Y-80431971D01*
X84697946Y-80430844D01*
X84692171Y-80430768D01*
X84692167Y-80430768D01*
X84590793Y-80429441D01*
X84494971Y-80428187D01*
X84489274Y-80429166D01*
X84489273Y-80429166D01*
X84401397Y-80444266D01*
X84294910Y-80462564D01*
X84104463Y-80532824D01*
X83930010Y-80636612D01*
X83925670Y-80640418D01*
X83925666Y-80640421D01*
X83781733Y-80766648D01*
X83777392Y-80770455D01*
X83651720Y-80929869D01*
X83649031Y-80934980D01*
X83649029Y-80934983D01*
X83636073Y-80959609D01*
X83557203Y-81109515D01*
X83497007Y-81303378D01*
X83473148Y-81504964D01*
X83148564Y-81504964D01*
X83138683Y-81397432D01*
X83133187Y-81337613D01*
X83133186Y-81337610D01*
X83132658Y-81331859D01*
X83131090Y-81326299D01*
X83079125Y-81142046D01*
X83079124Y-81142044D01*
X83077557Y-81136487D01*
X83070556Y-81122289D01*
X82990331Y-80959609D01*
X82987776Y-80954428D01*
X82866320Y-80791779D01*
X82717258Y-80653987D01*
X82712375Y-80650906D01*
X82712371Y-80650903D01*
X82566728Y-80559010D01*
X82545581Y-80545667D01*
X82357039Y-80470446D01*
X82351379Y-80469320D01*
X82351375Y-80469319D01*
X82163613Y-80431971D01*
X82163610Y-80431971D01*
X82157946Y-80430844D01*
X82152171Y-80430768D01*
X82152167Y-80430768D01*
X82050793Y-80429441D01*
X81954971Y-80428187D01*
X81949274Y-80429166D01*
X81949273Y-80429166D01*
X81861397Y-80444266D01*
X81754910Y-80462564D01*
X81564463Y-80532824D01*
X81390010Y-80636612D01*
X81385670Y-80640418D01*
X81385666Y-80640421D01*
X81241733Y-80766648D01*
X81237392Y-80770455D01*
X81111720Y-80929869D01*
X81109031Y-80934980D01*
X81109029Y-80934983D01*
X81096073Y-80959609D01*
X81017203Y-81109515D01*
X80957007Y-81303378D01*
X80933148Y-81504964D01*
X78742487Y-81504964D01*
X77126405Y-79888882D01*
X77092379Y-79826570D01*
X77089500Y-79799787D01*
X77089500Y-79029526D01*
X77109502Y-78961405D01*
X77126405Y-78940431D01*
X77212040Y-78854796D01*
X77268054Y-78744862D01*
X77282500Y-78653653D01*
X77282499Y-78322348D01*
X77281724Y-78317454D01*
X77269606Y-78240936D01*
X77269605Y-78240934D01*
X77268054Y-78231138D01*
X77212040Y-78121204D01*
X77157931Y-78067095D01*
X77123905Y-78004783D01*
X77128970Y-77933968D01*
X77157931Y-77888905D01*
X77212040Y-77834796D01*
X77268054Y-77724862D01*
X77269922Y-77713071D01*
X77281725Y-77638546D01*
X77282500Y-77633653D01*
X77282499Y-77302348D01*
X77268054Y-77211138D01*
X77263551Y-77202300D01*
X77216543Y-77110041D01*
X77216542Y-77110039D01*
X77212040Y-77101204D01*
X77212719Y-77100858D01*
X77191610Y-77041694D01*
X77207689Y-76972543D01*
X77258603Y-76923062D01*
X77317404Y-76908500D01*
X78385216Y-76908500D01*
X78453337Y-76928502D01*
X78499830Y-76982158D01*
X78509934Y-77052432D01*
X78501625Y-77082718D01*
X78468827Y-77161900D01*
X78453772Y-77198246D01*
X78452695Y-77206430D01*
X78452694Y-77206432D01*
X78450785Y-77220936D01*
X78434715Y-77343000D01*
X78435793Y-77351188D01*
X78452513Y-77478188D01*
X78453772Y-77487754D01*
X78456931Y-77495380D01*
X78506378Y-77614754D01*
X78509645Y-77622642D01*
X78541871Y-77664640D01*
X78579034Y-77713071D01*
X78598526Y-77738474D01*
X78605076Y-77743500D01*
X78605079Y-77743503D01*
X78707804Y-77822327D01*
X78714357Y-77827355D01*
X78849246Y-77883228D01*
X78857434Y-77884306D01*
X78894350Y-77889166D01*
X78994000Y-77902285D01*
X79002188Y-77901207D01*
X79010886Y-77900062D01*
X79093650Y-77889166D01*
X79130566Y-77884306D01*
X79138754Y-77883228D01*
X79273643Y-77827355D01*
X79280196Y-77822327D01*
X79382921Y-77743503D01*
X79382924Y-77743500D01*
X79389474Y-77738474D01*
X79408967Y-77713071D01*
X79446129Y-77664640D01*
X79478355Y-77622642D01*
X79481623Y-77614754D01*
X79531069Y-77495380D01*
X79534228Y-77487754D01*
X79542616Y-77424041D01*
X79571339Y-77359114D01*
X79630604Y-77320023D01*
X79701595Y-77319178D01*
X79756633Y-77351393D01*
X80900595Y-78495355D01*
X80934621Y-78557667D01*
X80937500Y-78584450D01*
X80937501Y-79247231D01*
X80937501Y-79869066D01*
X80952266Y-79943301D01*
X80959161Y-79953620D01*
X80959162Y-79953622D01*
X80997168Y-80010501D01*
X81008516Y-80027484D01*
X81092699Y-80083734D01*
X81166933Y-80098500D01*
X82041858Y-80098500D01*
X82917066Y-80098499D01*
X82952818Y-80091388D01*
X82979126Y-80086156D01*
X82979128Y-80086155D01*
X82991301Y-80083734D01*
X83001621Y-80076839D01*
X83001622Y-80076838D01*
X83065168Y-80034377D01*
X83075484Y-80027484D01*
X83131734Y-79943301D01*
X83146500Y-79869067D01*
X83146500Y-79574500D01*
X83166502Y-79506379D01*
X83220158Y-79459886D01*
X83272500Y-79448500D01*
X83494565Y-79448500D01*
X83562686Y-79468502D01*
X83608990Y-79521747D01*
X83621377Y-79548616D01*
X83647093Y-79585003D01*
X83706834Y-79669535D01*
X83738533Y-79714389D01*
X83742675Y-79718424D01*
X83768709Y-79743785D01*
X83883938Y-79856035D01*
X84052720Y-79968812D01*
X84058023Y-79971090D01*
X84058026Y-79971092D01*
X84205327Y-80034377D01*
X84239228Y-80048942D01*
X84304767Y-80063772D01*
X84431579Y-80092467D01*
X84431584Y-80092468D01*
X84437216Y-80093742D01*
X84442987Y-80093969D01*
X84442989Y-80093969D01*
X84502756Y-80096317D01*
X84640053Y-80101712D01*
X84747348Y-80086155D01*
X84835231Y-80073413D01*
X84835236Y-80073412D01*
X84840945Y-80072584D01*
X84846409Y-80070729D01*
X84846414Y-80070728D01*
X85027693Y-80009192D01*
X85027698Y-80009190D01*
X85033165Y-80007334D01*
X85057111Y-79993924D01*
X85125069Y-79955865D01*
X85210276Y-79908147D01*
X85249969Y-79875135D01*
X85361913Y-79782031D01*
X85366345Y-79778345D01*
X85496147Y-79622276D01*
X85557382Y-79512933D01*
X85608118Y-79463272D01*
X85667316Y-79448500D01*
X86034565Y-79448500D01*
X86102686Y-79468502D01*
X86148990Y-79521747D01*
X86161377Y-79548616D01*
X86187093Y-79585003D01*
X86246834Y-79669535D01*
X86278533Y-79714389D01*
X86282675Y-79718424D01*
X86308709Y-79743785D01*
X86423938Y-79856035D01*
X86592720Y-79968812D01*
X86598023Y-79971090D01*
X86598026Y-79971092D01*
X86745327Y-80034377D01*
X86779228Y-80048942D01*
X86844767Y-80063772D01*
X86971579Y-80092467D01*
X86971584Y-80092468D01*
X86977216Y-80093742D01*
X86982987Y-80093969D01*
X86982989Y-80093969D01*
X87042756Y-80096317D01*
X87180053Y-80101712D01*
X87287348Y-80086155D01*
X87375231Y-80073413D01*
X87375236Y-80073412D01*
X87380945Y-80072584D01*
X87386409Y-80070729D01*
X87386414Y-80070728D01*
X87567693Y-80009192D01*
X87567698Y-80009190D01*
X87573165Y-80007334D01*
X87597111Y-79993924D01*
X87665069Y-79955865D01*
X87750276Y-79908147D01*
X87789969Y-79875135D01*
X87901913Y-79782031D01*
X87906345Y-79778345D01*
X87949656Y-79726269D01*
X88032453Y-79626718D01*
X88032456Y-79626714D01*
X88036147Y-79622276D01*
X88097382Y-79512934D01*
X88132510Y-79450208D01*
X88132511Y-79450206D01*
X88135334Y-79445165D01*
X88137190Y-79439698D01*
X88137192Y-79439693D01*
X88198728Y-79258414D01*
X88198729Y-79258409D01*
X88200584Y-79252945D01*
X88201412Y-79247236D01*
X88201413Y-79247231D01*
X88227275Y-79068861D01*
X88229712Y-79052053D01*
X88231232Y-78994000D01*
X88216226Y-78830687D01*
X88213187Y-78797613D01*
X88213186Y-78797610D01*
X88212658Y-78791859D01*
X88205264Y-78765642D01*
X88159125Y-78602046D01*
X88159124Y-78602044D01*
X88157557Y-78596487D01*
X88151622Y-78584450D01*
X88070331Y-78419609D01*
X88070330Y-78419608D01*
X88067776Y-78414428D01*
X87946320Y-78251779D01*
X87797258Y-78113987D01*
X87792375Y-78110906D01*
X87792371Y-78110903D01*
X87630464Y-78008748D01*
X87625581Y-78005667D01*
X87437039Y-77930446D01*
X87431379Y-77929320D01*
X87431375Y-77929319D01*
X87243613Y-77891971D01*
X87243610Y-77891971D01*
X87237946Y-77890844D01*
X87232171Y-77890768D01*
X87232167Y-77890768D01*
X87130793Y-77889441D01*
X87034971Y-77888187D01*
X87029274Y-77889166D01*
X87029273Y-77889166D01*
X86840607Y-77921585D01*
X86834910Y-77922564D01*
X86644463Y-77992824D01*
X86639502Y-77995776D01*
X86639501Y-77995776D01*
X86634948Y-77998485D01*
X86470010Y-78096612D01*
X86465670Y-78100418D01*
X86465666Y-78100421D01*
X86341363Y-78209433D01*
X86317392Y-78230455D01*
X86191720Y-78389869D01*
X86189031Y-78394980D01*
X86189029Y-78394983D01*
X86148420Y-78472168D01*
X86099000Y-78523140D01*
X86036912Y-78539500D01*
X85667806Y-78539500D01*
X85599685Y-78519498D01*
X85554800Y-78469228D01*
X85530331Y-78419608D01*
X85530328Y-78419604D01*
X85527776Y-78414428D01*
X85406320Y-78251779D01*
X85257258Y-78113987D01*
X85252375Y-78110906D01*
X85252371Y-78110903D01*
X85090464Y-78008748D01*
X85085581Y-78005667D01*
X84897039Y-77930446D01*
X84891379Y-77929320D01*
X84891375Y-77929319D01*
X84703613Y-77891971D01*
X84703610Y-77891971D01*
X84697946Y-77890844D01*
X84692171Y-77890768D01*
X84692167Y-77890768D01*
X84590793Y-77889441D01*
X84494971Y-77888187D01*
X84489274Y-77889166D01*
X84489273Y-77889166D01*
X84300607Y-77921585D01*
X84294910Y-77922564D01*
X84104463Y-77992824D01*
X84099502Y-77995776D01*
X84099501Y-77995776D01*
X84094948Y-77998485D01*
X83930010Y-78096612D01*
X83925670Y-78100418D01*
X83925666Y-78100421D01*
X83801363Y-78209433D01*
X83777392Y-78230455D01*
X83651720Y-78389869D01*
X83649031Y-78394980D01*
X83649029Y-78394983D01*
X83608420Y-78472168D01*
X83559000Y-78523140D01*
X83496912Y-78539500D01*
X83272499Y-78539500D01*
X83204378Y-78519498D01*
X83157885Y-78465842D01*
X83146499Y-78413500D01*
X83146499Y-78118934D01*
X83137714Y-78074763D01*
X83134156Y-78056874D01*
X83134155Y-78056872D01*
X83131734Y-78044699D01*
X83124559Y-78033960D01*
X83082377Y-77970832D01*
X83075484Y-77960516D01*
X82991301Y-77904266D01*
X82917067Y-77889500D01*
X82775388Y-77889500D01*
X81632451Y-77889501D01*
X81564330Y-77869499D01*
X81543356Y-77852596D01*
X80106355Y-76415595D01*
X80072329Y-76353283D01*
X80077394Y-76282468D01*
X80119941Y-76225632D01*
X80186461Y-76200821D01*
X80195450Y-76200500D01*
X90805500Y-76200500D01*
X90873621Y-76220502D01*
G37*
%TD.AperFunction*%
%TA.AperFunction,Conductor*%
G36*
X72102717Y-76928502D02*
G01*
X72149210Y-76982158D01*
X72159314Y-77052432D01*
X72139594Y-77101018D01*
X72139960Y-77101204D01*
X72135458Y-77110039D01*
X72135457Y-77110041D01*
X72122770Y-77134941D01*
X72083946Y-77211138D01*
X72069500Y-77302347D01*
X72069501Y-77633652D01*
X72070276Y-77638543D01*
X72070276Y-77638546D01*
X72082079Y-77713071D01*
X72083946Y-77724862D01*
X72088447Y-77733695D01*
X72088449Y-77733700D01*
X72120834Y-77797259D01*
X72133938Y-77867036D01*
X72107238Y-77932821D01*
X72049210Y-77973727D01*
X71978279Y-77976767D01*
X71960349Y-77970871D01*
X71907384Y-77948932D01*
X71907381Y-77948931D01*
X71899754Y-77945772D01*
X71890108Y-77944502D01*
X71783340Y-77930446D01*
X71755000Y-77926715D01*
X71731255Y-77929841D01*
X71618432Y-77944694D01*
X71618430Y-77944695D01*
X71610246Y-77945772D01*
X71589525Y-77954355D01*
X71482986Y-77998485D01*
X71482984Y-77998486D01*
X71475358Y-78001645D01*
X71359526Y-78090526D01*
X71354503Y-78097072D01*
X71344199Y-78110501D01*
X71270645Y-78206358D01*
X71267486Y-78213984D01*
X71267485Y-78213986D01*
X71256322Y-78240936D01*
X71214772Y-78341246D01*
X71213695Y-78349430D01*
X71213694Y-78349432D01*
X71204455Y-78419609D01*
X71195715Y-78486000D01*
X71196793Y-78494188D01*
X71210993Y-78602046D01*
X71214772Y-78630754D01*
X71217931Y-78638380D01*
X71262038Y-78744862D01*
X71270645Y-78765642D01*
X71275672Y-78772193D01*
X71333092Y-78847024D01*
X71359526Y-78881474D01*
X71366076Y-78886500D01*
X71366079Y-78886503D01*
X71468803Y-78965326D01*
X71475357Y-78970355D01*
X71577104Y-79012500D01*
X71597555Y-79020971D01*
X71610246Y-79026228D01*
X71755000Y-79045285D01*
X71763188Y-79044207D01*
X71891566Y-79027306D01*
X71899754Y-79026228D01*
X71912446Y-79020971D01*
X71932896Y-79012500D01*
X72034643Y-78970355D01*
X72071544Y-78942040D01*
X72073887Y-78940242D01*
X72140107Y-78914641D01*
X72209656Y-78928906D01*
X72221405Y-78936241D01*
X72227204Y-78942040D01*
X72337138Y-78998054D01*
X72346927Y-78999604D01*
X72346929Y-78999605D01*
X72366743Y-79002743D01*
X72428347Y-79012500D01*
X72441039Y-79012500D01*
X72483625Y-79020970D01*
X72483636Y-79020930D01*
X72484250Y-79021095D01*
X72489255Y-79022090D01*
X72491617Y-79023068D01*
X72499246Y-79026228D01*
X72507430Y-79027305D01*
X72507432Y-79027306D01*
X72635812Y-79044207D01*
X72644000Y-79045285D01*
X72652188Y-79044207D01*
X72780566Y-79027306D01*
X72788754Y-79026228D01*
X72798744Y-79022090D01*
X72803739Y-79021096D01*
X72804360Y-79020930D01*
X72804371Y-79020971D01*
X72846960Y-79012499D01*
X72859652Y-79012499D01*
X72864546Y-79011724D01*
X72941064Y-78999606D01*
X72941066Y-78999605D01*
X72950862Y-78998054D01*
X72966071Y-78990305D01*
X73036866Y-78954233D01*
X73060796Y-78942040D01*
X73067808Y-78935028D01*
X73075828Y-78929201D01*
X73077739Y-78931831D01*
X73125217Y-78905905D01*
X73196032Y-78910970D01*
X73226971Y-78930854D01*
X73228172Y-78929201D01*
X73236192Y-78935028D01*
X73243204Y-78942040D01*
X73353138Y-78998054D01*
X73362927Y-78999604D01*
X73362929Y-78999605D01*
X73382743Y-79002743D01*
X73444347Y-79012500D01*
X73457039Y-79012500D01*
X73499625Y-79020970D01*
X73499636Y-79020930D01*
X73500250Y-79021095D01*
X73505255Y-79022090D01*
X73507617Y-79023068D01*
X73515246Y-79026228D01*
X73523430Y-79027305D01*
X73523432Y-79027306D01*
X73651812Y-79044207D01*
X73660000Y-79045285D01*
X73668188Y-79044207D01*
X73796566Y-79027306D01*
X73804754Y-79026228D01*
X73814744Y-79022090D01*
X73819739Y-79021096D01*
X73820360Y-79020930D01*
X73820371Y-79020971D01*
X73862960Y-79012499D01*
X73875652Y-79012499D01*
X73880546Y-79011724D01*
X73957064Y-78999606D01*
X73957066Y-78999605D01*
X73966862Y-78998054D01*
X73982071Y-78990305D01*
X74052866Y-78954233D01*
X74110069Y-78940500D01*
X74225931Y-78940500D01*
X74283134Y-78954233D01*
X74369138Y-78998054D01*
X74378927Y-78999604D01*
X74378929Y-78999605D01*
X74398743Y-79002743D01*
X74460347Y-79012500D01*
X74675956Y-79012500D01*
X74891652Y-79012499D01*
X74896546Y-79011724D01*
X74973064Y-78999606D01*
X74973066Y-78999605D01*
X74982862Y-78998054D01*
X74998071Y-78990305D01*
X75068866Y-78954233D01*
X75092796Y-78942040D01*
X75099808Y-78935028D01*
X75107828Y-78929201D01*
X75109739Y-78931831D01*
X75157217Y-78905905D01*
X75228032Y-78910970D01*
X75273095Y-78939931D01*
X75273595Y-78940431D01*
X75307621Y-79002743D01*
X75310500Y-79029526D01*
X75310500Y-80209865D01*
X75307914Y-80234164D01*
X75307846Y-80235602D01*
X75305655Y-80245780D01*
X75306879Y-80256120D01*
X75309627Y-80279342D01*
X75309979Y-80285320D01*
X75310072Y-80285312D01*
X75310500Y-80290490D01*
X75310500Y-80295692D01*
X75311354Y-80300822D01*
X75313686Y-80314832D01*
X75314522Y-80320704D01*
X75320582Y-80371907D01*
X75324567Y-80380206D01*
X75326078Y-80389283D01*
X75350558Y-80434651D01*
X75353239Y-80439914D01*
X75372127Y-80479250D01*
X75372130Y-80479254D01*
X75375560Y-80486398D01*
X75379170Y-80490692D01*
X75381102Y-80492624D01*
X75382889Y-80494573D01*
X75382918Y-80494626D01*
X75382788Y-80494745D01*
X75383289Y-80495313D01*
X75386388Y-80501057D01*
X75394033Y-80508124D01*
X75426208Y-80537866D01*
X75429774Y-80541296D01*
X78702595Y-83814118D01*
X78736621Y-83876430D01*
X78739500Y-83903213D01*
X78739500Y-85196006D01*
X78719498Y-85264127D01*
X78665842Y-85310620D01*
X78595568Y-85320724D01*
X78527971Y-85288531D01*
X78497792Y-85260634D01*
X78494226Y-85257204D01*
X76614726Y-83377703D01*
X76580700Y-83315391D01*
X76578899Y-83305055D01*
X76566920Y-83214068D01*
X76562428Y-83179946D01*
X76522490Y-83083527D01*
X76509715Y-83052686D01*
X76509714Y-83052684D01*
X76506555Y-83045058D01*
X76417674Y-82929226D01*
X76411124Y-82924200D01*
X76411121Y-82924197D01*
X76308396Y-82845373D01*
X76308394Y-82845372D01*
X76301843Y-82840345D01*
X76166954Y-82784472D01*
X76022200Y-82765415D01*
X76014012Y-82766493D01*
X75885632Y-82783394D01*
X75885630Y-82783395D01*
X75877446Y-82784472D01*
X75829630Y-82804278D01*
X75750186Y-82837185D01*
X75750184Y-82837186D01*
X75742558Y-82840345D01*
X75626726Y-82929226D01*
X75537845Y-83045058D01*
X75534686Y-83052684D01*
X75534685Y-83052686D01*
X75521910Y-83083527D01*
X75481972Y-83179946D01*
X75480895Y-83188130D01*
X75480894Y-83188132D01*
X75480123Y-83193987D01*
X75462915Y-83324700D01*
X75481972Y-83469454D01*
X75489188Y-83486874D01*
X75533840Y-83594672D01*
X75537845Y-83604342D01*
X75542873Y-83610895D01*
X75542875Y-83610898D01*
X75578756Y-83657659D01*
X75604357Y-83723879D01*
X75590093Y-83793428D01*
X75543157Y-83842071D01*
X75539358Y-83843645D01*
X75423526Y-83932526D01*
X75334645Y-84048358D01*
X75331486Y-84055984D01*
X75331485Y-84055986D01*
X75322489Y-84077704D01*
X75278772Y-84183246D01*
X75277695Y-84191430D01*
X75277694Y-84191432D01*
X75262841Y-84304255D01*
X75259715Y-84328000D01*
X75260793Y-84336188D01*
X75277478Y-84462923D01*
X75278772Y-84472754D01*
X75281931Y-84480380D01*
X75331093Y-84599066D01*
X75334645Y-84607642D01*
X75354322Y-84633285D01*
X75410669Y-84706718D01*
X75423526Y-84723474D01*
X75430076Y-84728500D01*
X75430079Y-84728503D01*
X75532167Y-84806838D01*
X75539357Y-84812355D01*
X75620284Y-84845876D01*
X75622010Y-84846591D01*
X75677290Y-84891140D01*
X75699711Y-84958503D01*
X75682153Y-85027294D01*
X75630190Y-85075673D01*
X75622010Y-85079409D01*
X75546986Y-85110485D01*
X75546984Y-85110486D01*
X75539358Y-85113645D01*
X75423526Y-85202526D01*
X75334645Y-85318358D01*
X75278772Y-85453246D01*
X75277695Y-85461430D01*
X75277694Y-85461432D01*
X75265694Y-85552586D01*
X75259715Y-85598000D01*
X75262546Y-85619501D01*
X75268032Y-85661171D01*
X75278772Y-85742754D01*
X75281931Y-85750379D01*
X75284070Y-85758364D01*
X75281901Y-85758945D01*
X75288235Y-85817875D01*
X75256454Y-85881361D01*
X75195395Y-85917587D01*
X75164238Y-85921500D01*
X74260532Y-85921501D01*
X74226934Y-85921501D01*
X74191182Y-85928612D01*
X74164874Y-85933844D01*
X74164872Y-85933845D01*
X74152699Y-85936266D01*
X74142379Y-85943161D01*
X74142378Y-85943162D01*
X74137242Y-85946594D01*
X74068516Y-85992516D01*
X74061623Y-86002832D01*
X74024938Y-86057735D01*
X74012266Y-86076699D01*
X73997500Y-86150933D01*
X73997501Y-87080371D01*
X73997501Y-87988786D01*
X73977499Y-88056907D01*
X73960596Y-88077881D01*
X72920521Y-89117956D01*
X72901505Y-89133315D01*
X72900444Y-89134281D01*
X72891696Y-89139929D01*
X72885250Y-89148106D01*
X72870771Y-89166472D01*
X72866794Y-89170947D01*
X72866865Y-89171008D01*
X72863512Y-89174965D01*
X72859829Y-89178648D01*
X72856803Y-89182883D01*
X72856801Y-89182885D01*
X72848547Y-89194436D01*
X72844982Y-89199185D01*
X72827728Y-89221072D01*
X72813066Y-89239670D01*
X72810015Y-89248357D01*
X72804666Y-89255843D01*
X72801683Y-89265819D01*
X72801682Y-89265820D01*
X72797380Y-89280206D01*
X72790750Y-89302377D01*
X72789902Y-89305211D01*
X72788072Y-89310843D01*
X72770984Y-89359502D01*
X72770500Y-89365091D01*
X72770500Y-89367802D01*
X72770385Y-89370469D01*
X72770366Y-89370532D01*
X72770192Y-89370525D01*
X72770145Y-89371271D01*
X72768275Y-89377524D01*
X72770180Y-89426014D01*
X72770403Y-89431678D01*
X72770500Y-89436625D01*
X72770500Y-89741543D01*
X72750498Y-89809664D01*
X72744428Y-89818292D01*
X72743928Y-89818943D01*
X72686571Y-89860785D01*
X72615698Y-89864974D01*
X72553811Y-89830182D01*
X72544038Y-89818899D01*
X72536502Y-89809079D01*
X72531474Y-89802526D01*
X72524924Y-89797500D01*
X72524921Y-89797497D01*
X72422196Y-89718673D01*
X72422194Y-89718672D01*
X72415643Y-89713645D01*
X72280754Y-89657772D01*
X72272566Y-89656694D01*
X72155645Y-89641301D01*
X72090718Y-89612578D01*
X72082997Y-89605474D01*
X71523117Y-89045594D01*
X71489091Y-88983282D01*
X71494156Y-88912467D01*
X71536703Y-88855631D01*
X71603223Y-88830820D01*
X71612212Y-88830499D01*
X72077066Y-88830499D01*
X72112818Y-88823388D01*
X72139126Y-88818156D01*
X72139128Y-88818155D01*
X72151301Y-88815734D01*
X72161621Y-88808839D01*
X72161622Y-88808838D01*
X72225168Y-88766377D01*
X72235484Y-88759484D01*
X72291734Y-88675301D01*
X72306500Y-88601067D01*
X72306499Y-86150934D01*
X72291734Y-86076699D01*
X72284690Y-86066156D01*
X72242377Y-86002832D01*
X72235484Y-85992516D01*
X72151301Y-85936266D01*
X72077067Y-85921500D01*
X71102158Y-85921500D01*
X70126934Y-85921501D01*
X70091182Y-85928612D01*
X70064874Y-85933844D01*
X70064872Y-85933845D01*
X70052699Y-85936266D01*
X70042379Y-85943161D01*
X70042378Y-85943162D01*
X70037242Y-85946594D01*
X69968516Y-85992516D01*
X69961623Y-86002832D01*
X69924938Y-86057735D01*
X69912266Y-86076699D01*
X69897500Y-86150933D01*
X69897501Y-87372606D01*
X69897501Y-88477962D01*
X69877499Y-88546083D01*
X69823843Y-88592576D01*
X69787948Y-88602884D01*
X69768123Y-88605494D01*
X69705246Y-88613772D01*
X69697619Y-88616931D01*
X69697620Y-88616931D01*
X69577986Y-88666485D01*
X69577984Y-88666486D01*
X69570358Y-88669645D01*
X69454526Y-88758526D01*
X69365645Y-88874358D01*
X69362486Y-88881984D01*
X69362485Y-88881986D01*
X69340888Y-88934125D01*
X69309772Y-89009246D01*
X69308695Y-89017430D01*
X69308694Y-89017432D01*
X69300532Y-89079433D01*
X69290715Y-89154000D01*
X69291793Y-89162188D01*
X69307697Y-89282989D01*
X69309772Y-89298754D01*
X69312931Y-89306380D01*
X69352926Y-89402935D01*
X69365645Y-89433642D01*
X69370672Y-89440193D01*
X69435829Y-89525107D01*
X69454526Y-89549474D01*
X69461076Y-89554500D01*
X69461079Y-89554503D01*
X69563804Y-89633327D01*
X69570357Y-89638355D01*
X69705246Y-89694228D01*
X69850000Y-89713285D01*
X69858188Y-89712207D01*
X69986566Y-89695306D01*
X69994754Y-89694228D01*
X70129643Y-89638355D01*
X70136196Y-89633327D01*
X70238921Y-89554503D01*
X70238924Y-89554500D01*
X70245474Y-89549474D01*
X70264172Y-89525107D01*
X70329328Y-89440193D01*
X70334355Y-89433642D01*
X70347075Y-89402935D01*
X70387069Y-89306380D01*
X70390228Y-89298754D01*
X70392304Y-89282989D01*
X70408207Y-89162188D01*
X70409285Y-89154000D01*
X70399468Y-89079433D01*
X70391306Y-89017432D01*
X70391305Y-89017430D01*
X70390228Y-89009246D01*
X70387069Y-89001620D01*
X70384930Y-88993636D01*
X70387099Y-88993055D01*
X70380765Y-88934125D01*
X70412546Y-88870639D01*
X70473605Y-88834413D01*
X70504762Y-88830500D01*
X70594500Y-88830500D01*
X70662621Y-88850502D01*
X70709114Y-88904158D01*
X70720500Y-88956500D01*
X70720500Y-89109865D01*
X70717914Y-89134164D01*
X70717846Y-89135602D01*
X70715655Y-89145780D01*
X70718104Y-89166472D01*
X70719627Y-89179342D01*
X70719979Y-89185320D01*
X70720072Y-89185312D01*
X70720500Y-89190490D01*
X70720500Y-89195692D01*
X70721354Y-89200822D01*
X70723686Y-89214832D01*
X70724523Y-89220711D01*
X70728330Y-89252875D01*
X70730582Y-89271907D01*
X70734567Y-89280206D01*
X70736078Y-89289283D01*
X70760558Y-89334651D01*
X70763239Y-89339914D01*
X70782127Y-89379250D01*
X70782130Y-89379254D01*
X70785560Y-89386398D01*
X70789170Y-89390692D01*
X70791102Y-89392624D01*
X70792889Y-89394573D01*
X70792918Y-89394626D01*
X70792788Y-89394745D01*
X70793289Y-89395313D01*
X70796388Y-89401057D01*
X70804033Y-89408124D01*
X70836209Y-89437867D01*
X70839775Y-89441297D01*
X71543474Y-90144996D01*
X71577500Y-90207308D01*
X71579301Y-90217645D01*
X71593090Y-90322380D01*
X71595772Y-90342754D01*
X71651645Y-90477642D01*
X71740526Y-90593474D01*
X71741531Y-90594245D01*
X71774006Y-90653717D01*
X71768941Y-90724532D01*
X71726394Y-90781368D01*
X71659874Y-90806179D01*
X71650885Y-90806500D01*
X70062212Y-90806500D01*
X69994091Y-90786498D01*
X69973121Y-90769599D01*
X69051403Y-89847880D01*
X69017379Y-89785570D01*
X69014500Y-89758787D01*
X69014499Y-89243123D01*
X69014499Y-89236934D01*
X69006046Y-89194436D01*
X69002156Y-89174874D01*
X69002155Y-89174872D01*
X68999734Y-89162699D01*
X68988451Y-89145812D01*
X68950377Y-89088832D01*
X68943484Y-89078516D01*
X68859301Y-89022266D01*
X68785067Y-89007500D01*
X68310077Y-89007500D01*
X67834934Y-89007501D01*
X67828866Y-89008708D01*
X67828865Y-89008708D01*
X67824687Y-89009539D01*
X67809263Y-89012607D01*
X67738550Y-89006278D01*
X67682483Y-88962723D01*
X67658865Y-88895771D01*
X67675193Y-88826677D01*
X67695589Y-88799933D01*
X68303476Y-88192046D01*
X68322499Y-88176682D01*
X68323558Y-88175718D01*
X68332304Y-88170071D01*
X68338752Y-88161892D01*
X68338754Y-88161890D01*
X68353234Y-88143523D01*
X68357209Y-88139050D01*
X68357137Y-88138989D01*
X68360490Y-88135032D01*
X68364171Y-88131351D01*
X68375455Y-88115560D01*
X68379019Y-88110814D01*
X68404487Y-88078508D01*
X68410934Y-88070330D01*
X68413984Y-88061645D01*
X68419335Y-88054157D01*
X68434115Y-88004734D01*
X68435927Y-87999160D01*
X68453016Y-87950498D01*
X68453500Y-87944909D01*
X68453500Y-87942198D01*
X68453615Y-87939531D01*
X68453634Y-87939468D01*
X68453808Y-87939475D01*
X68453855Y-87938729D01*
X68455725Y-87932476D01*
X68453597Y-87878312D01*
X68453500Y-87873366D01*
X68453500Y-85144135D01*
X68456086Y-85119836D01*
X68456154Y-85118398D01*
X68458345Y-85108220D01*
X68454373Y-85074658D01*
X68454021Y-85068680D01*
X68453928Y-85068688D01*
X68453500Y-85063510D01*
X68453500Y-85058308D01*
X68450312Y-85039154D01*
X68449477Y-85033289D01*
X68444642Y-84992433D01*
X68444642Y-84992432D01*
X68443418Y-84982093D01*
X68439433Y-84973794D01*
X68437922Y-84964717D01*
X68413442Y-84919349D01*
X68410761Y-84914086D01*
X68391873Y-84874750D01*
X68391870Y-84874746D01*
X68388440Y-84867602D01*
X68384830Y-84863308D01*
X68382898Y-84861376D01*
X68381111Y-84859427D01*
X68381082Y-84859374D01*
X68381212Y-84859255D01*
X68380711Y-84858687D01*
X68377612Y-84852943D01*
X68351169Y-84828499D01*
X68337805Y-84816146D01*
X68334238Y-84812716D01*
X67648524Y-84127001D01*
X67619583Y-84074000D01*
X70814715Y-84074000D01*
X70833772Y-84218754D01*
X70845688Y-84247522D01*
X70879024Y-84328000D01*
X70889645Y-84353642D01*
X70907494Y-84376903D01*
X70969511Y-84457725D01*
X70978526Y-84469474D01*
X70985076Y-84474500D01*
X70985079Y-84474503D01*
X71081516Y-84548502D01*
X71094357Y-84558355D01*
X71229246Y-84614228D01*
X71374000Y-84633285D01*
X71382188Y-84632207D01*
X71510566Y-84615306D01*
X71518754Y-84614228D01*
X71653643Y-84558355D01*
X71666484Y-84548502D01*
X71762921Y-84474503D01*
X71762924Y-84474500D01*
X71769474Y-84469474D01*
X71778490Y-84457725D01*
X71840506Y-84376903D01*
X71858355Y-84353642D01*
X71868977Y-84328000D01*
X71902312Y-84247522D01*
X71914228Y-84218754D01*
X71933285Y-84074000D01*
X71914228Y-83929246D01*
X71858355Y-83794358D01*
X71769474Y-83678526D01*
X71762923Y-83673499D01*
X71762921Y-83673497D01*
X71660196Y-83594673D01*
X71660194Y-83594672D01*
X71653643Y-83589645D01*
X71518754Y-83533772D01*
X71374000Y-83514715D01*
X71365812Y-83515793D01*
X71237432Y-83532694D01*
X71237430Y-83532695D01*
X71229246Y-83533772D01*
X71192642Y-83548934D01*
X71101986Y-83586485D01*
X71101984Y-83586486D01*
X71094358Y-83589645D01*
X70978526Y-83678526D01*
X70889645Y-83794358D01*
X70833772Y-83929246D01*
X70814715Y-84074000D01*
X67619583Y-84074000D01*
X67614499Y-84064689D01*
X67612698Y-84054352D01*
X67597306Y-83937432D01*
X67597305Y-83937430D01*
X67596228Y-83929246D01*
X67540355Y-83794358D01*
X67451474Y-83678526D01*
X67435100Y-83665962D01*
X67393233Y-83608626D01*
X67389011Y-83537755D01*
X67423774Y-83475851D01*
X67435095Y-83466042D01*
X67451474Y-83453474D01*
X67540355Y-83337642D01*
X67547870Y-83319501D01*
X67589786Y-83218306D01*
X67596228Y-83202754D01*
X67615285Y-83058000D01*
X67609306Y-83012586D01*
X67597306Y-82921432D01*
X67597305Y-82921430D01*
X67596228Y-82913246D01*
X67559055Y-82823503D01*
X67543515Y-82785986D01*
X67543514Y-82785984D01*
X67540355Y-82778358D01*
X67451474Y-82662526D01*
X67444924Y-82657500D01*
X67444921Y-82657497D01*
X67342196Y-82578673D01*
X67342194Y-82578672D01*
X67335643Y-82573645D01*
X67218779Y-82525238D01*
X67208383Y-82520932D01*
X67200754Y-82517772D01*
X67056000Y-82498715D01*
X67047812Y-82499793D01*
X66918946Y-82516758D01*
X66848797Y-82505818D01*
X66795699Y-82458690D01*
X66776500Y-82391836D01*
X66776500Y-81810450D01*
X66796502Y-81742329D01*
X66813405Y-81721355D01*
X67102985Y-81431775D01*
X67165297Y-81397749D01*
X67236112Y-81402814D01*
X67292948Y-81445361D01*
X67317759Y-81511881D01*
X67308489Y-81569088D01*
X67307053Y-81572555D01*
X67277772Y-81643246D01*
X67276695Y-81651430D01*
X67276694Y-81651432D01*
X67267709Y-81719683D01*
X67258715Y-81788000D01*
X67259793Y-81796188D01*
X67276651Y-81924237D01*
X67277772Y-81932754D01*
X67280931Y-81940380D01*
X67324521Y-82045614D01*
X67333645Y-82067642D01*
X67366376Y-82110298D01*
X67409669Y-82166718D01*
X67422526Y-82183474D01*
X67429076Y-82188500D01*
X67429079Y-82188503D01*
X67531804Y-82267327D01*
X67538357Y-82272355D01*
X67673246Y-82328228D01*
X67818000Y-82347285D01*
X67826188Y-82346207D01*
X67954566Y-82329306D01*
X67962754Y-82328228D01*
X68097643Y-82272355D01*
X68104196Y-82267327D01*
X68206921Y-82188503D01*
X68206924Y-82188500D01*
X68213474Y-82183474D01*
X68226332Y-82166718D01*
X68269624Y-82110298D01*
X68302355Y-82067642D01*
X68311480Y-82045614D01*
X68355069Y-81940380D01*
X68358228Y-81932754D01*
X68359350Y-81924237D01*
X68376207Y-81796188D01*
X68377285Y-81788000D01*
X71830715Y-81788000D01*
X71831793Y-81796188D01*
X71848651Y-81924237D01*
X71849772Y-81932754D01*
X71852931Y-81940380D01*
X71896521Y-82045614D01*
X71905645Y-82067642D01*
X71938376Y-82110298D01*
X71981669Y-82166718D01*
X71994526Y-82183474D01*
X72001076Y-82188500D01*
X72001079Y-82188503D01*
X72103804Y-82267327D01*
X72110357Y-82272355D01*
X72245246Y-82328228D01*
X72269287Y-82331393D01*
X72361050Y-82343474D01*
X72425978Y-82372197D01*
X72465069Y-82431462D01*
X72469526Y-82451950D01*
X72482084Y-82547334D01*
X72484772Y-82567754D01*
X72494077Y-82590217D01*
X72530024Y-82677000D01*
X72540645Y-82702642D01*
X72629526Y-82818474D01*
X72636076Y-82823500D01*
X72636079Y-82823503D01*
X72738804Y-82902327D01*
X72745357Y-82907355D01*
X72880246Y-82963228D01*
X73025000Y-82982285D01*
X73033188Y-82981207D01*
X73161566Y-82964306D01*
X73169754Y-82963228D01*
X73304643Y-82907355D01*
X73311196Y-82902327D01*
X73413921Y-82823503D01*
X73413924Y-82823500D01*
X73420474Y-82818474D01*
X73509355Y-82702642D01*
X73519977Y-82677000D01*
X73555923Y-82590217D01*
X73565228Y-82567754D01*
X73567917Y-82547334D01*
X73584248Y-82423279D01*
X73612970Y-82358352D01*
X73672235Y-82319260D01*
X73743227Y-82318415D01*
X73757390Y-82323317D01*
X73761616Y-82325068D01*
X73761619Y-82325069D01*
X73769246Y-82328228D01*
X73793287Y-82331393D01*
X73858215Y-82360115D01*
X73897307Y-82419380D01*
X73898152Y-82490371D01*
X73893250Y-82504534D01*
X73884933Y-82524613D01*
X73884932Y-82524618D01*
X73881772Y-82532246D01*
X73880695Y-82540430D01*
X73880694Y-82540432D01*
X73869409Y-82626155D01*
X73862715Y-82677000D01*
X73863793Y-82685188D01*
X73880478Y-82811923D01*
X73881772Y-82821754D01*
X73901578Y-82869570D01*
X73924206Y-82924197D01*
X73937645Y-82956642D01*
X74026526Y-83072474D01*
X74033076Y-83077500D01*
X74033079Y-83077503D01*
X74135804Y-83156327D01*
X74142357Y-83161355D01*
X74222540Y-83194568D01*
X74260714Y-83210380D01*
X74277246Y-83217228D01*
X74422000Y-83236285D01*
X74430188Y-83235207D01*
X74558566Y-83218306D01*
X74566754Y-83217228D01*
X74583287Y-83210380D01*
X74621460Y-83194568D01*
X74701643Y-83161355D01*
X74708196Y-83156327D01*
X74810921Y-83077503D01*
X74810924Y-83077500D01*
X74817474Y-83072474D01*
X74906355Y-82956642D01*
X74919795Y-82924197D01*
X74942422Y-82869570D01*
X74962228Y-82821754D01*
X74963523Y-82811923D01*
X74980207Y-82685188D01*
X74981285Y-82677000D01*
X74974591Y-82626155D01*
X74963306Y-82540432D01*
X74963305Y-82540430D01*
X74962228Y-82532246D01*
X74925863Y-82444453D01*
X74909515Y-82404986D01*
X74909514Y-82404984D01*
X74906355Y-82397358D01*
X74817474Y-82281526D01*
X74819324Y-82280106D01*
X74791064Y-82228353D01*
X74796129Y-82157538D01*
X74838676Y-82100702D01*
X74905196Y-82075891D01*
X74930627Y-82076648D01*
X75057000Y-82093285D01*
X75065188Y-82092207D01*
X75073134Y-82091161D01*
X75132305Y-82083371D01*
X75193566Y-82075306D01*
X75201754Y-82074228D01*
X75210255Y-82070707D01*
X75219779Y-82066762D01*
X75336643Y-82018355D01*
X75379897Y-81985165D01*
X75445921Y-81934503D01*
X75445924Y-81934500D01*
X75452474Y-81929474D01*
X75467792Y-81909512D01*
X75536328Y-81820193D01*
X75541355Y-81813642D01*
X75551977Y-81788000D01*
X75585312Y-81707522D01*
X75597228Y-81678754D01*
X75600046Y-81657354D01*
X75615207Y-81542188D01*
X75616285Y-81534000D01*
X75604346Y-81443313D01*
X75598306Y-81397432D01*
X75598305Y-81397430D01*
X75597228Y-81389246D01*
X75560462Y-81300485D01*
X75544515Y-81261986D01*
X75544514Y-81261984D01*
X75541355Y-81254358D01*
X75494458Y-81193241D01*
X75457501Y-81145077D01*
X75457500Y-81145076D01*
X75452474Y-81138526D01*
X75445924Y-81133500D01*
X75445921Y-81133497D01*
X75343196Y-81054673D01*
X75343194Y-81054672D01*
X75336643Y-81049645D01*
X75201754Y-80993772D01*
X75057000Y-80974715D01*
X75048812Y-80975793D01*
X74920432Y-80992694D01*
X74920430Y-80992695D01*
X74912246Y-80993772D01*
X74897382Y-80999929D01*
X74784986Y-81046485D01*
X74784984Y-81046486D01*
X74777358Y-81049645D01*
X74661526Y-81138526D01*
X74572645Y-81254358D01*
X74569484Y-81261990D01*
X74569482Y-81261993D01*
X74526732Y-81365197D01*
X74482184Y-81420478D01*
X74414820Y-81442898D01*
X74346029Y-81425339D01*
X74321603Y-81403659D01*
X74320343Y-81404919D01*
X74314500Y-81399076D01*
X74309474Y-81392526D01*
X74302924Y-81387500D01*
X74302921Y-81387497D01*
X74200196Y-81308673D01*
X74200194Y-81308672D01*
X74193643Y-81303645D01*
X74058754Y-81247772D01*
X73914000Y-81228715D01*
X73905812Y-81229793D01*
X73777432Y-81246694D01*
X73777430Y-81246695D01*
X73769246Y-81247772D01*
X73753489Y-81254299D01*
X73641986Y-81300485D01*
X73641984Y-81300486D01*
X73634358Y-81303645D01*
X73518526Y-81392526D01*
X73513503Y-81399072D01*
X73497078Y-81420478D01*
X73429645Y-81508358D01*
X73426486Y-81515984D01*
X73426485Y-81515986D01*
X73403053Y-81572555D01*
X73373772Y-81643246D01*
X73372695Y-81651430D01*
X73372694Y-81651432D01*
X73366069Y-81701755D01*
X73354817Y-81787231D01*
X73354752Y-81787721D01*
X73326030Y-81852648D01*
X73266765Y-81891740D01*
X73195773Y-81892585D01*
X73181610Y-81887683D01*
X73177384Y-81885932D01*
X73177381Y-81885931D01*
X73169754Y-81882772D01*
X73112193Y-81875194D01*
X73053950Y-81867526D01*
X72989022Y-81838803D01*
X72949931Y-81779538D01*
X72945474Y-81759050D01*
X72931306Y-81651432D01*
X72931305Y-81651430D01*
X72930228Y-81643246D01*
X72900947Y-81572555D01*
X72877515Y-81515986D01*
X72877514Y-81515984D01*
X72874355Y-81508358D01*
X72806922Y-81420478D01*
X72790501Y-81399077D01*
X72790500Y-81399076D01*
X72785474Y-81392526D01*
X72778924Y-81387500D01*
X72778921Y-81387497D01*
X72676196Y-81308673D01*
X72676194Y-81308672D01*
X72669643Y-81303645D01*
X72534754Y-81247772D01*
X72390000Y-81228715D01*
X72381812Y-81229793D01*
X72253432Y-81246694D01*
X72253430Y-81246695D01*
X72245246Y-81247772D01*
X72229489Y-81254299D01*
X72117986Y-81300485D01*
X72117984Y-81300486D01*
X72110358Y-81303645D01*
X71994526Y-81392526D01*
X71989503Y-81399072D01*
X71973078Y-81420478D01*
X71905645Y-81508358D01*
X71902486Y-81515984D01*
X71902485Y-81515986D01*
X71879053Y-81572555D01*
X71849772Y-81643246D01*
X71848695Y-81651430D01*
X71848694Y-81651432D01*
X71839709Y-81719683D01*
X71830715Y-81788000D01*
X68377285Y-81788000D01*
X68368291Y-81719683D01*
X68359306Y-81651432D01*
X68359305Y-81651430D01*
X68358228Y-81643246D01*
X68328947Y-81572555D01*
X68305515Y-81515986D01*
X68305514Y-81515984D01*
X68302355Y-81508358D01*
X68234922Y-81420478D01*
X68218501Y-81399077D01*
X68218500Y-81399076D01*
X68213474Y-81392526D01*
X68206924Y-81387500D01*
X68206921Y-81387497D01*
X68104196Y-81308673D01*
X68104194Y-81308672D01*
X68097643Y-81303645D01*
X67962754Y-81247772D01*
X67818000Y-81228715D01*
X67809812Y-81229793D01*
X67681432Y-81246694D01*
X67681430Y-81246695D01*
X67673246Y-81247772D01*
X67665617Y-81250932D01*
X67599088Y-81278489D01*
X67528499Y-81286078D01*
X67465012Y-81254299D01*
X67428784Y-81193241D01*
X67431318Y-81122289D01*
X67461775Y-81072985D01*
X68507356Y-80027404D01*
X68569668Y-79993378D01*
X68596451Y-79990499D01*
X68719133Y-79990499D01*
X68787254Y-80010501D01*
X68833747Y-80064157D01*
X68843851Y-80134431D01*
X68835542Y-80164717D01*
X68805729Y-80236692D01*
X68801772Y-80246246D01*
X68800695Y-80254430D01*
X68800694Y-80254432D01*
X68786590Y-80361567D01*
X68782715Y-80391000D01*
X68783793Y-80399188D01*
X68795840Y-80490692D01*
X68801772Y-80535754D01*
X68817772Y-80574380D01*
X68852372Y-80657911D01*
X68857645Y-80670642D01*
X68946526Y-80786474D01*
X68953076Y-80791500D01*
X68953079Y-80791503D01*
X69048294Y-80864564D01*
X69062357Y-80875355D01*
X69197246Y-80931228D01*
X69205434Y-80932306D01*
X69225768Y-80934983D01*
X69342000Y-80950285D01*
X69350188Y-80949207D01*
X69478566Y-80932306D01*
X69486754Y-80931228D01*
X69621643Y-80875355D01*
X69635706Y-80864564D01*
X69730921Y-80791503D01*
X69730924Y-80791500D01*
X69737474Y-80786474D01*
X69826355Y-80670642D01*
X69831629Y-80657911D01*
X69866228Y-80574380D01*
X69882228Y-80535754D01*
X69888161Y-80490692D01*
X69900207Y-80399188D01*
X69901285Y-80391000D01*
X69897410Y-80361567D01*
X69883306Y-80254432D01*
X69883305Y-80254430D01*
X69882228Y-80246246D01*
X69836265Y-80135283D01*
X69829515Y-80118986D01*
X69829514Y-80118984D01*
X69826355Y-80111358D01*
X69772898Y-80041692D01*
X69742501Y-80002077D01*
X69742500Y-80002076D01*
X69737474Y-79995526D01*
X69676487Y-79948729D01*
X69634621Y-79891392D01*
X69630400Y-79820521D01*
X69667664Y-79756243D01*
X69696298Y-79729774D01*
X69703212Y-79723383D01*
X69706930Y-79716983D01*
X69712537Y-79710723D01*
X69956511Y-79466749D01*
X69967600Y-79456894D01*
X69976081Y-79450208D01*
X69994559Y-79435641D01*
X69999913Y-79427894D01*
X69999917Y-79427890D01*
X70028228Y-79386928D01*
X70030529Y-79383708D01*
X70060110Y-79343658D01*
X70060111Y-79343656D01*
X70065709Y-79336077D01*
X70068123Y-79329202D01*
X70072264Y-79323211D01*
X70090136Y-79266699D01*
X70091366Y-79263015D01*
X70107871Y-79216016D01*
X70107872Y-79216012D01*
X70110992Y-79207127D01*
X70111275Y-79199927D01*
X70111309Y-79199751D01*
X70113475Y-79192903D01*
X70114000Y-79186232D01*
X70114000Y-79133052D01*
X70114097Y-79128105D01*
X70115988Y-79079975D01*
X70116358Y-79070563D01*
X70114461Y-79063408D01*
X70114000Y-79055033D01*
X70114000Y-77901231D01*
X70134002Y-77833110D01*
X70137594Y-77828114D01*
X70142712Y-77823383D01*
X70146429Y-77816984D01*
X70152037Y-77810723D01*
X71017355Y-76945405D01*
X71079667Y-76911379D01*
X71106450Y-76908500D01*
X72034596Y-76908500D01*
X72102717Y-76928502D01*
G37*
%TD.AperFunction*%
%TA.AperFunction,Conductor*%
G36*
X67654649Y-85457125D02*
G01*
X67687931Y-85519838D01*
X67690500Y-85545154D01*
X67690500Y-87673787D01*
X67670498Y-87741908D01*
X67653595Y-87762882D01*
X67190026Y-88226451D01*
X67127714Y-88260477D01*
X67056899Y-88255412D01*
X66996167Y-88207359D01*
X66950378Y-88138833D01*
X66950377Y-88138832D01*
X66943484Y-88128516D01*
X66859301Y-88072266D01*
X66785067Y-88057500D01*
X66310077Y-88057500D01*
X65834934Y-88057501D01*
X65801127Y-88064225D01*
X65772874Y-88069844D01*
X65772872Y-88069845D01*
X65760699Y-88072266D01*
X65750379Y-88079161D01*
X65750378Y-88079162D01*
X65699523Y-88113143D01*
X65676516Y-88128516D01*
X65620266Y-88212699D01*
X65605500Y-88286933D01*
X65605501Y-89137066D01*
X65608869Y-89154000D01*
X65616912Y-89194436D01*
X65620266Y-89211301D01*
X65627161Y-89221621D01*
X65627162Y-89221622D01*
X65653853Y-89261567D01*
X65676516Y-89295484D01*
X65686832Y-89302377D01*
X65741184Y-89338694D01*
X65760699Y-89351734D01*
X65834933Y-89366500D01*
X65858461Y-89366500D01*
X66393075Y-89366499D01*
X66461195Y-89386501D01*
X66507688Y-89440157D01*
X66517792Y-89510430D01*
X66517004Y-89514271D01*
X66515772Y-89517246D01*
X66496715Y-89662000D01*
X66514774Y-89799174D01*
X66514774Y-89799175D01*
X66515772Y-89806754D01*
X66514590Y-89806910D01*
X66513091Y-89869865D01*
X66473297Y-89928661D01*
X66408033Y-89956609D01*
X66393074Y-89957500D01*
X65858470Y-89957501D01*
X65834934Y-89957501D01*
X65760699Y-89972266D01*
X65751385Y-89978489D01*
X65681626Y-89985987D01*
X65618140Y-89954206D01*
X65581914Y-89893147D01*
X65579079Y-89878436D01*
X65561306Y-89743432D01*
X65561305Y-89743430D01*
X65560228Y-89735246D01*
X65528137Y-89657772D01*
X65507515Y-89607986D01*
X65507514Y-89607984D01*
X65504355Y-89600358D01*
X65415474Y-89484526D01*
X65408924Y-89479500D01*
X65408921Y-89479497D01*
X65306196Y-89400673D01*
X65306194Y-89400672D01*
X65299643Y-89395645D01*
X65164754Y-89339772D01*
X65125636Y-89334622D01*
X65028188Y-89321793D01*
X65020000Y-89320715D01*
X65011812Y-89321793D01*
X64883432Y-89338694D01*
X64883430Y-89338695D01*
X64875246Y-89339772D01*
X64845663Y-89352026D01*
X64747986Y-89392485D01*
X64747984Y-89392486D01*
X64740358Y-89395645D01*
X64624526Y-89484526D01*
X64535645Y-89600358D01*
X64532486Y-89607984D01*
X64532485Y-89607986D01*
X64511863Y-89657772D01*
X64479772Y-89735246D01*
X64478695Y-89743430D01*
X64478694Y-89743432D01*
X64470358Y-89806754D01*
X64460715Y-89880000D01*
X64461793Y-89888188D01*
X64461793Y-89888189D01*
X64471446Y-89961513D01*
X64460506Y-90031662D01*
X64413378Y-90084760D01*
X64356621Y-90103501D01*
X64352348Y-90103501D01*
X64347469Y-90104274D01*
X64347465Y-90104274D01*
X64270936Y-90116394D01*
X64270934Y-90116395D01*
X64261138Y-90117946D01*
X64151204Y-90173960D01*
X64097095Y-90228069D01*
X64034783Y-90262095D01*
X63963968Y-90257030D01*
X63918905Y-90228069D01*
X63864796Y-90173960D01*
X63754862Y-90117946D01*
X63745073Y-90116396D01*
X63745071Y-90116395D01*
X63718579Y-90112199D01*
X63663653Y-90103500D01*
X63498034Y-90103500D01*
X63332348Y-90103501D01*
X63327455Y-90104276D01*
X63327454Y-90104276D01*
X63250936Y-90116394D01*
X63250934Y-90116395D01*
X63241138Y-90117946D01*
X63131204Y-90173960D01*
X63118569Y-90186595D01*
X63056257Y-90220621D01*
X63029474Y-90223500D01*
X60979537Y-90223500D01*
X60911416Y-90203498D01*
X60864923Y-90149842D01*
X60856954Y-90126646D01*
X60855735Y-90121518D01*
X60854881Y-90113658D01*
X60851074Y-90103501D01*
X60807935Y-89988426D01*
X60804783Y-89980018D01*
X60735961Y-89888189D01*
X60724571Y-89872992D01*
X60719189Y-89865811D01*
X60624433Y-89794795D01*
X60581920Y-89737936D01*
X60574000Y-89693970D01*
X60574000Y-87948950D01*
X60594002Y-87880829D01*
X60610905Y-87859855D01*
X61641920Y-86828840D01*
X61704232Y-86794814D01*
X61775047Y-86799879D01*
X61831883Y-86842426D01*
X61856694Y-86908946D01*
X61856677Y-86927163D01*
X61851391Y-86999145D01*
X61881420Y-87148071D01*
X61885320Y-87155725D01*
X61946492Y-87275783D01*
X61946494Y-87275786D01*
X61950392Y-87283436D01*
X61956205Y-87289757D01*
X61956206Y-87289759D01*
X62042963Y-87384105D01*
X62053226Y-87395266D01*
X62060521Y-87399789D01*
X62060522Y-87399790D01*
X62175044Y-87470797D01*
X62182344Y-87475323D01*
X62328235Y-87517709D01*
X62339007Y-87518500D01*
X62448057Y-87518500D01*
X62452303Y-87517918D01*
X62452309Y-87517918D01*
X62537420Y-87506259D01*
X62560518Y-87503095D01*
X62600364Y-87485852D01*
X62692064Y-87446169D01*
X62692065Y-87446169D01*
X62699946Y-87442758D01*
X62750765Y-87401606D01*
X62811339Y-87352555D01*
X62811341Y-87352553D01*
X62818013Y-87347150D01*
X62824215Y-87338424D01*
X62901044Y-87230315D01*
X62901044Y-87230314D01*
X62906020Y-87223313D01*
X62913353Y-87202945D01*
X62955246Y-87145627D01*
X63021479Y-87120057D01*
X63056484Y-87122046D01*
X63082862Y-87127293D01*
X63082868Y-87127294D01*
X63088933Y-87128500D01*
X64213818Y-87128500D01*
X65339066Y-87128499D01*
X65374818Y-87121388D01*
X65401126Y-87116156D01*
X65401128Y-87116155D01*
X65413301Y-87113734D01*
X65423621Y-87106839D01*
X65423622Y-87106838D01*
X65487168Y-87064377D01*
X65497484Y-87057484D01*
X65553734Y-86973301D01*
X65565148Y-86915919D01*
X65598055Y-86853009D01*
X65659750Y-86817877D01*
X65688727Y-86814500D01*
X65856404Y-86814500D01*
X65924525Y-86834502D01*
X65932019Y-86840541D01*
X65932197Y-86840296D01*
X65940217Y-86846123D01*
X65947229Y-86853135D01*
X66058573Y-86909868D01*
X66068363Y-86911419D01*
X66068364Y-86911419D01*
X66094101Y-86915495D01*
X66150955Y-86924500D01*
X66321965Y-86924500D01*
X66493044Y-86924499D01*
X66516208Y-86920830D01*
X66575629Y-86911420D01*
X66575631Y-86911419D01*
X66585427Y-86909868D01*
X66696771Y-86853135D01*
X66785135Y-86764771D01*
X66841868Y-86653427D01*
X66856500Y-86561045D01*
X66856499Y-86158956D01*
X66845400Y-86088872D01*
X66843420Y-86076371D01*
X66843419Y-86076369D01*
X66841868Y-86066573D01*
X66815582Y-86014983D01*
X66790233Y-85965234D01*
X66776500Y-85908031D01*
X66776500Y-85756164D01*
X66796502Y-85688043D01*
X66850158Y-85641550D01*
X66918946Y-85631242D01*
X67047812Y-85648207D01*
X67056000Y-85649285D01*
X67064188Y-85648207D01*
X67109179Y-85642284D01*
X67200754Y-85630228D01*
X67335643Y-85574355D01*
X67342196Y-85569327D01*
X67444921Y-85490503D01*
X67444924Y-85490500D01*
X67451474Y-85485474D01*
X67456500Y-85478924D01*
X67456505Y-85478919D01*
X67464538Y-85468450D01*
X67521876Y-85426583D01*
X67592747Y-85422361D01*
X67654649Y-85457125D01*
G37*
%TD.AperFunction*%
%TD*%
M02*
