%TF.GenerationSoftware,KiCad,Pcbnew,6.0.4-6f826c9f35~116~ubuntu21.10.1*%
%TF.CreationDate,2022-04-05T23:43:51+08:00*%
%TF.ProjectId,ST_Link_V2.1,53545f4c-696e-46b5-9f56-322e312e6b69,rev?*%
%TF.SameCoordinates,Original*%
%TF.FileFunction,Copper,L3,Inr*%
%TF.FilePolarity,Positive*%
%FSLAX46Y46*%
G04 Gerber Fmt 4.6, Leading zero omitted, Abs format (unit mm)*
G04 Created by KiCad (PCBNEW 6.0.4-6f826c9f35~116~ubuntu21.10.1) date 2022-04-05 23:43:51*
%MOMM*%
%LPD*%
G01*
G04 APERTURE LIST*
%TA.AperFunction,ComponentPad*%
%ADD10O,2.000000X0.900000*%
%TD*%
%TA.AperFunction,ComponentPad*%
%ADD11O,1.700000X0.900000*%
%TD*%
%TA.AperFunction,ComponentPad*%
%ADD12R,1.700000X1.700000*%
%TD*%
%TA.AperFunction,ComponentPad*%
%ADD13O,1.700000X1.700000*%
%TD*%
%TA.AperFunction,ViaPad*%
%ADD14C,0.600000*%
%TD*%
%TA.AperFunction,Conductor*%
%ADD15C,0.254000*%
%TD*%
G04 APERTURE END LIST*
D10*
%TO.N,GND*%
%TO.C,J1*%
X62890000Y-79754000D03*
X62890000Y-88394000D03*
D11*
X58720000Y-79754000D03*
X58720000Y-88394000D03*
%TD*%
D12*
%TO.N,+5V*%
%TO.C,J3*%
X82042000Y-78994000D03*
D13*
%TO.N,+3.3VA*%
X82042000Y-81534000D03*
%TO.N,/TX*%
X82042000Y-84074000D03*
%TO.N,/RX*%
X82042000Y-86614000D03*
%TO.N,GND*%
X82042000Y-89154000D03*
%TO.N,+5V*%
X84582000Y-78994000D03*
%TO.N,+3.3VA*%
X84582000Y-81534000D03*
%TO.N,/SWIN*%
X84582000Y-84074000D03*
%TO.N,/RESET*%
X84582000Y-86614000D03*
%TO.N,GND*%
X84582000Y-89154000D03*
%TO.N,+5V*%
X87122000Y-78994000D03*
%TO.N,+3.3VA*%
X87122000Y-81534000D03*
%TO.N,/SWDIO*%
X87122000Y-84074000D03*
%TO.N,/SWCLK*%
X87122000Y-86614000D03*
%TO.N,GND*%
X87122000Y-89154000D03*
%TD*%
D12*
%TO.N,/MCU_SWDIO*%
%TO.C,J2*%
X89662000Y-81534000D03*
D13*
%TO.N,/MCU_SWCLK*%
X89662000Y-84074000D03*
%TO.N,GND*%
X89662000Y-86614000D03*
%TD*%
D14*
%TO.N,GND*%
X79850000Y-84190000D03*
X73660000Y-83058000D03*
X74041000Y-84709000D03*
X61976000Y-84963000D03*
X70866000Y-78232000D03*
X70866000Y-83439000D03*
X73533000Y-86487000D03*
%TO.N,/OSC_IN*%
X72136000Y-90198000D03*
%TO.N,/OSC_OUT*%
X73152000Y-90198000D03*
%TO.N,+3V3*%
X72644000Y-78486000D03*
X78994000Y-77343000D03*
X68326000Y-89662000D03*
X66738500Y-79184500D03*
X75690000Y-91188000D03*
%TO.N,+5V*%
X60119500Y-90678000D03*
%TO.N,Net-(C11-Pad1)*%
X65659000Y-79438500D03*
%TO.N,Net-(D1-Pad2)*%
X73660000Y-77470000D03*
%TO.N,Net-(D2-Pad1)*%
X74676000Y-77470000D03*
%TO.N,Net-(D3-Pad2)*%
X72644000Y-77470000D03*
%TO.N,Net-(D4-Pad1)*%
X76708000Y-77470000D03*
%TO.N,Net-(D5-Pad1)*%
X75692000Y-77470000D03*
%TO.N,Net-(F1-Pad2)*%
X59360000Y-89610000D03*
%TO.N,/MCU_SWCLK*%
X69342000Y-80391000D03*
%TO.N,/MCU_SWDIO*%
X71755000Y-78486000D03*
%TO.N,/RX*%
X79121000Y-86824820D03*
%TO.N,/RESET*%
X75819000Y-84328000D03*
%TO.N,/SWIN*%
X73914000Y-81788000D03*
%TO.N,/SWCLK*%
X75057000Y-81534000D03*
X75819000Y-85598000D03*
%TO.N,/SWDIO*%
X74422000Y-82677000D03*
%TO.N,Net-(Q1-Pad2)*%
X67056000Y-84074000D03*
%TO.N,Net-(Q1-Pad1)*%
X65020000Y-89880000D03*
%TO.N,/MCU_USB_D-*%
X67056000Y-83058000D03*
X73025000Y-82423000D03*
%TO.N,/MCU_USB_D+*%
X72390000Y-81788000D03*
X67056000Y-85090000D03*
%TO.N,/MCU_USB_RENUM*%
X67056000Y-89662000D03*
X67818000Y-81788000D03*
%TO.N,/LED_LINK*%
X73660000Y-78486000D03*
%TO.N,/BOOT0*%
X71374000Y-84074000D03*
X69850000Y-89154000D03*
%TO.N,/BOOT1*%
X78232000Y-90170000D03*
X76022200Y-83324700D03*
%TO.N,+3.3VA*%
X59436000Y-77470000D03*
%TD*%
D15*
%TO.N,/MCU_SWDIO*%
X71755000Y-78486000D02*
X71755000Y-79005000D01*
X80384626Y-77216000D02*
X89027000Y-77216000D01*
X71755000Y-79005000D02*
X71998000Y-79248000D01*
X71998000Y-79248000D02*
X78352626Y-79248000D01*
X78352626Y-79248000D02*
X80384626Y-77216000D01*
X89027000Y-77216000D02*
X89662000Y-77851000D01*
X89662000Y-77851000D02*
X89662000Y-81534000D01*
%TO.N,/MCU_SWCLK*%
X69342000Y-80391000D02*
X69823000Y-79910000D01*
X78332000Y-79910000D02*
X80518000Y-77724000D01*
X69823000Y-79910000D02*
X78332000Y-79910000D01*
X80518000Y-77724000D02*
X88138000Y-77724000D01*
X88370000Y-77956000D02*
X88370000Y-82782000D01*
X88138000Y-77724000D02*
X88370000Y-77956000D01*
X88370000Y-82782000D02*
X89662000Y-84074000D01*
%TO.N,/SWIN*%
X73914000Y-81788000D02*
X73914000Y-81186000D01*
X73914000Y-81186000D02*
X74580000Y-80520000D01*
X74580000Y-80520000D02*
X79100040Y-80520000D01*
X79100040Y-80520000D02*
X81390040Y-82810000D01*
X81390040Y-82810000D02*
X83318000Y-82810000D01*
X83318000Y-82810000D02*
X84582000Y-84074000D01*
%TO.N,/RESET*%
X75819000Y-84328000D02*
X76831000Y-85340000D01*
X76831000Y-85340000D02*
X83308000Y-85340000D01*
X83308000Y-85340000D02*
X84582000Y-86614000D01*
%TO.N,+3V3*%
X78493999Y-76842999D02*
X78676500Y-77025500D01*
X72644000Y-78486000D02*
X72016999Y-77858999D01*
X72016999Y-77858999D02*
X72016999Y-77096999D01*
X78676500Y-77025500D02*
X78994000Y-77343000D01*
X72270999Y-76842999D02*
X78493999Y-76842999D01*
X72270999Y-76842999D02*
X72016999Y-77096999D01*
%TO.N,/SWCLK*%
X75819000Y-85598000D02*
X75191999Y-84970999D01*
X75191999Y-81668999D02*
X75057000Y-81534000D01*
X75191999Y-84970999D02*
X75191999Y-81668999D01*
%TO.N,/MCU_USB_D-*%
X67056000Y-83058000D02*
X69342000Y-83058000D01*
X69342000Y-83058000D02*
X71374000Y-81026000D01*
X71374000Y-81026000D02*
X72814264Y-81026000D01*
X73152000Y-81363736D02*
X73152000Y-82296000D01*
X73152000Y-82296000D02*
X73025000Y-82423000D01*
X72814264Y-81026000D02*
X73152000Y-81363736D01*
%TO.N,/MCU_USB_D+*%
X68326000Y-85090000D02*
X67056000Y-85090000D01*
X71628000Y-81788000D02*
X68326000Y-85090000D01*
X72390000Y-81788000D02*
X71628000Y-81788000D01*
%TD*%
%TA.AperFunction,Conductor*%
%TO.N,GND*%
G36*
X90873621Y-76220502D02*
G01*
X90920114Y-76274158D01*
X90931500Y-76326500D01*
X90931500Y-80438373D01*
X90911498Y-80506494D01*
X90857842Y-80552987D01*
X90787568Y-80563091D01*
X90722988Y-80533597D01*
X90706842Y-80515297D01*
X90702377Y-80510832D01*
X90695484Y-80500516D01*
X90611301Y-80444266D01*
X90537067Y-80429500D01*
X90169500Y-80429500D01*
X90101379Y-80409498D01*
X90054886Y-80355842D01*
X90043500Y-80303500D01*
X90043500Y-77905140D01*
X90046087Y-77880824D01*
X90046154Y-77879401D01*
X90048346Y-77869220D01*
X90044373Y-77835652D01*
X90044021Y-77829678D01*
X90043928Y-77829686D01*
X90043500Y-77824508D01*
X90043500Y-77819308D01*
X90042646Y-77814176D01*
X90040314Y-77800165D01*
X90039477Y-77794286D01*
X90034642Y-77753433D01*
X90034642Y-77753432D01*
X90033418Y-77743093D01*
X90029433Y-77734794D01*
X90027922Y-77725717D01*
X90003442Y-77680349D01*
X90000761Y-77675086D01*
X89981869Y-77635743D01*
X89978440Y-77628602D01*
X89974831Y-77624308D01*
X89972903Y-77622380D01*
X89971109Y-77620424D01*
X89971079Y-77620367D01*
X89971208Y-77620249D01*
X89970710Y-77619684D01*
X89967612Y-77613943D01*
X89927804Y-77577145D01*
X89924239Y-77573716D01*
X89335044Y-76984521D01*
X89319685Y-76965505D01*
X89318719Y-76964444D01*
X89313071Y-76955696D01*
X89286528Y-76934771D01*
X89282053Y-76930794D01*
X89281992Y-76930865D01*
X89278035Y-76927512D01*
X89274352Y-76923829D01*
X89258561Y-76912545D01*
X89253815Y-76908982D01*
X89221507Y-76883512D01*
X89221506Y-76883511D01*
X89213330Y-76877066D01*
X89204643Y-76874015D01*
X89197157Y-76868666D01*
X89187181Y-76865683D01*
X89187180Y-76865682D01*
X89153082Y-76855485D01*
X89147786Y-76853901D01*
X89142157Y-76852072D01*
X89093498Y-76834984D01*
X89087909Y-76834500D01*
X89085198Y-76834500D01*
X89082531Y-76834385D01*
X89082468Y-76834366D01*
X89082475Y-76834192D01*
X89081729Y-76834145D01*
X89075476Y-76832275D01*
X89029746Y-76834072D01*
X89021322Y-76834403D01*
X89016375Y-76834500D01*
X80438761Y-76834500D01*
X80414462Y-76831914D01*
X80413024Y-76831846D01*
X80402846Y-76829655D01*
X80373142Y-76833170D01*
X80369284Y-76833627D01*
X80363306Y-76833979D01*
X80363314Y-76834072D01*
X80358136Y-76834500D01*
X80352934Y-76834500D01*
X80333780Y-76837688D01*
X80327922Y-76838522D01*
X80311308Y-76840488D01*
X80287059Y-76843358D01*
X80287058Y-76843358D01*
X80276719Y-76844582D01*
X80268420Y-76848567D01*
X80259343Y-76850078D01*
X80213975Y-76874558D01*
X80208712Y-76877239D01*
X80169376Y-76896127D01*
X80169372Y-76896130D01*
X80162228Y-76899560D01*
X80157934Y-76903170D01*
X80156002Y-76905102D01*
X80154053Y-76906889D01*
X80154000Y-76906918D01*
X80153881Y-76906788D01*
X80153313Y-76907289D01*
X80147569Y-76910388D01*
X80140502Y-76918033D01*
X80110772Y-76950195D01*
X80107342Y-76953761D01*
X79753127Y-77307976D01*
X79690815Y-77342002D01*
X79620000Y-77336937D01*
X79563164Y-77294390D01*
X79539110Y-77235328D01*
X79535306Y-77206431D01*
X79535305Y-77206428D01*
X79534228Y-77198246D01*
X79485695Y-77081077D01*
X79481515Y-77070986D01*
X79481514Y-77070984D01*
X79478355Y-77063358D01*
X79411484Y-76976210D01*
X79394501Y-76954077D01*
X79394500Y-76954076D01*
X79389474Y-76947526D01*
X79382924Y-76942500D01*
X79382921Y-76942497D01*
X79280196Y-76863673D01*
X79280194Y-76863672D01*
X79273643Y-76858645D01*
X79138754Y-76802772D01*
X79130566Y-76801694D01*
X79013645Y-76786301D01*
X78948718Y-76757578D01*
X78940997Y-76750474D01*
X78802039Y-76611516D01*
X78786685Y-76592505D01*
X78785719Y-76591443D01*
X78780070Y-76582695D01*
X78771895Y-76576251D01*
X78771893Y-76576248D01*
X78753527Y-76561770D01*
X78749052Y-76557793D01*
X78748991Y-76557864D01*
X78745034Y-76554511D01*
X78741351Y-76550828D01*
X78725560Y-76539544D01*
X78720814Y-76535981D01*
X78688506Y-76510511D01*
X78688505Y-76510510D01*
X78680329Y-76504065D01*
X78671642Y-76501014D01*
X78664156Y-76495665D01*
X78654180Y-76492682D01*
X78654179Y-76492681D01*
X78622797Y-76483296D01*
X78614785Y-76480900D01*
X78609156Y-76479071D01*
X78560497Y-76461983D01*
X78554908Y-76461499D01*
X78552197Y-76461499D01*
X78549530Y-76461384D01*
X78549467Y-76461365D01*
X78549474Y-76461191D01*
X78548728Y-76461144D01*
X78542475Y-76459274D01*
X78496745Y-76461071D01*
X78488321Y-76461402D01*
X78483374Y-76461499D01*
X72325134Y-76461499D01*
X72300835Y-76458913D01*
X72299397Y-76458845D01*
X72289219Y-76456654D01*
X72259515Y-76460169D01*
X72255657Y-76460626D01*
X72249679Y-76460978D01*
X72249687Y-76461071D01*
X72244509Y-76461499D01*
X72239307Y-76461499D01*
X72220153Y-76464687D01*
X72214295Y-76465521D01*
X72197681Y-76467487D01*
X72173432Y-76470357D01*
X72173431Y-76470357D01*
X72163092Y-76471581D01*
X72154793Y-76475566D01*
X72145716Y-76477077D01*
X72100348Y-76501557D01*
X72095085Y-76504238D01*
X72055749Y-76523126D01*
X72055745Y-76523129D01*
X72048601Y-76526559D01*
X72044307Y-76530169D01*
X72042375Y-76532101D01*
X72040426Y-76533888D01*
X72040373Y-76533917D01*
X72040254Y-76533787D01*
X72039686Y-76534288D01*
X72033942Y-76537387D01*
X72011403Y-76561770D01*
X71997146Y-76577193D01*
X71993716Y-76580760D01*
X71785516Y-76788959D01*
X71766505Y-76804313D01*
X71765443Y-76805279D01*
X71756695Y-76810928D01*
X71750251Y-76819103D01*
X71750248Y-76819105D01*
X71735770Y-76837471D01*
X71731793Y-76841946D01*
X71731864Y-76842007D01*
X71728511Y-76845964D01*
X71724828Y-76849647D01*
X71721802Y-76853882D01*
X71721800Y-76853884D01*
X71713546Y-76865435D01*
X71709981Y-76870184D01*
X71686823Y-76899560D01*
X71678065Y-76910669D01*
X71675014Y-76919356D01*
X71669665Y-76926842D01*
X71666682Y-76936818D01*
X71666681Y-76936819D01*
X71654901Y-76976210D01*
X71653071Y-76981842D01*
X71635983Y-77030501D01*
X71635499Y-77036090D01*
X71635499Y-77038801D01*
X71635384Y-77041468D01*
X71635365Y-77041531D01*
X71635191Y-77041524D01*
X71635144Y-77042270D01*
X71633274Y-77048523D01*
X71634157Y-77070986D01*
X71635402Y-77102677D01*
X71635499Y-77107624D01*
X71635499Y-77804864D01*
X71632913Y-77829162D01*
X71632845Y-77830601D01*
X71630654Y-77840779D01*
X71631878Y-77851120D01*
X71631523Y-77858645D01*
X71608335Y-77925748D01*
X71553881Y-77969119D01*
X71487226Y-77996729D01*
X71475358Y-78001645D01*
X71359526Y-78090526D01*
X71270645Y-78206358D01*
X71267486Y-78213984D01*
X71267485Y-78213986D01*
X71256569Y-78240339D01*
X71214772Y-78341246D01*
X71213695Y-78349430D01*
X71213694Y-78349432D01*
X71204455Y-78419609D01*
X71195715Y-78486000D01*
X71196793Y-78494188D01*
X71210993Y-78602046D01*
X71214772Y-78630754D01*
X71270645Y-78765642D01*
X71275673Y-78772195D01*
X71275675Y-78772198D01*
X71347462Y-78865753D01*
X71373063Y-78931973D01*
X71373500Y-78942457D01*
X71373500Y-78950865D01*
X71370914Y-78975164D01*
X71370846Y-78976602D01*
X71368655Y-78986780D01*
X71369879Y-78997120D01*
X71372627Y-79020342D01*
X71372979Y-79026320D01*
X71373072Y-79026312D01*
X71373500Y-79031490D01*
X71373500Y-79036692D01*
X71376669Y-79055727D01*
X71376686Y-79055832D01*
X71377522Y-79061704D01*
X71383582Y-79112907D01*
X71387567Y-79121206D01*
X71389078Y-79130283D01*
X71413558Y-79175651D01*
X71416239Y-79180914D01*
X71435127Y-79220250D01*
X71435130Y-79220254D01*
X71438560Y-79227398D01*
X71442170Y-79231692D01*
X71444102Y-79233624D01*
X71445889Y-79235573D01*
X71445918Y-79235626D01*
X71445788Y-79235745D01*
X71446289Y-79236313D01*
X71449388Y-79242057D01*
X71483748Y-79273819D01*
X71489194Y-79278853D01*
X71492760Y-79282283D01*
X71523882Y-79313405D01*
X71557908Y-79375717D01*
X71552843Y-79446532D01*
X71510296Y-79503368D01*
X71443776Y-79528179D01*
X71434787Y-79528500D01*
X69877140Y-79528500D01*
X69852824Y-79525913D01*
X69851401Y-79525846D01*
X69841220Y-79523654D01*
X69807681Y-79527624D01*
X69807652Y-79527627D01*
X69801678Y-79527979D01*
X69801686Y-79528072D01*
X69796508Y-79528500D01*
X69791308Y-79528500D01*
X69786179Y-79529354D01*
X69786176Y-79529354D01*
X69772165Y-79531686D01*
X69766286Y-79532523D01*
X69725433Y-79537358D01*
X69725432Y-79537358D01*
X69715093Y-79538582D01*
X69706794Y-79542567D01*
X69697717Y-79544078D01*
X69652349Y-79568558D01*
X69647086Y-79571239D01*
X69600602Y-79593560D01*
X69596308Y-79597169D01*
X69594382Y-79599095D01*
X69592424Y-79600891D01*
X69592367Y-79600921D01*
X69592249Y-79600792D01*
X69591684Y-79601290D01*
X69585943Y-79604388D01*
X69578874Y-79612035D01*
X69578873Y-79612036D01*
X69549146Y-79644195D01*
X69545716Y-79647761D01*
X69395003Y-79798474D01*
X69332691Y-79832500D01*
X69322355Y-79834301D01*
X69286641Y-79839003D01*
X69197246Y-79850772D01*
X69189619Y-79853931D01*
X69189620Y-79853931D01*
X69069986Y-79903485D01*
X69069984Y-79903486D01*
X69062358Y-79906645D01*
X68946526Y-79995526D01*
X68941503Y-80002072D01*
X68922168Y-80027270D01*
X68857645Y-80111358D01*
X68854486Y-80118984D01*
X68854485Y-80118986D01*
X68830970Y-80175757D01*
X68801772Y-80246246D01*
X68800695Y-80254430D01*
X68800694Y-80254432D01*
X68787344Y-80355842D01*
X68782715Y-80391000D01*
X68783793Y-80399188D01*
X68797067Y-80500012D01*
X68801772Y-80535754D01*
X68821578Y-80583570D01*
X68853561Y-80660782D01*
X68857645Y-80670642D01*
X68871403Y-80688572D01*
X68911475Y-80740794D01*
X68946526Y-80786474D01*
X68953076Y-80791500D01*
X68953079Y-80791503D01*
X69048294Y-80864564D01*
X69062357Y-80875355D01*
X69197246Y-80931228D01*
X69205434Y-80932306D01*
X69225768Y-80934983D01*
X69342000Y-80950285D01*
X69350188Y-80949207D01*
X69478566Y-80932306D01*
X69486754Y-80931228D01*
X69621643Y-80875355D01*
X69635706Y-80864564D01*
X69730921Y-80791503D01*
X69730924Y-80791500D01*
X69737474Y-80786474D01*
X69772526Y-80740794D01*
X69812597Y-80688572D01*
X69826355Y-80670642D01*
X69830440Y-80660782D01*
X69862422Y-80583570D01*
X69882228Y-80535754D01*
X69886934Y-80500012D01*
X69898699Y-80410645D01*
X69927421Y-80345717D01*
X69934526Y-80337996D01*
X69944117Y-80328405D01*
X70006429Y-80294379D01*
X70033212Y-80291500D01*
X73964787Y-80291500D01*
X74032908Y-80311502D01*
X74079401Y-80365158D01*
X74089505Y-80435432D01*
X74060011Y-80500012D01*
X74053887Y-80506591D01*
X73866965Y-80693512D01*
X73682517Y-80877960D01*
X73663506Y-80893314D01*
X73662444Y-80894280D01*
X73653696Y-80899929D01*
X73647252Y-80908104D01*
X73647249Y-80908106D01*
X73632771Y-80926472D01*
X73628794Y-80930947D01*
X73628865Y-80931008D01*
X73625512Y-80934965D01*
X73621829Y-80938648D01*
X73618803Y-80942883D01*
X73618801Y-80942885D01*
X73610547Y-80954436D01*
X73606984Y-80959182D01*
X73575066Y-80999670D01*
X73572015Y-81008357D01*
X73566666Y-81015843D01*
X73566474Y-81016485D01*
X73518998Y-81063698D01*
X73449582Y-81078596D01*
X73383131Y-81053601D01*
X73369825Y-81042038D01*
X73122308Y-80794521D01*
X73106949Y-80775505D01*
X73105983Y-80774444D01*
X73100335Y-80765696D01*
X73073792Y-80744771D01*
X73069317Y-80740794D01*
X73069256Y-80740865D01*
X73065299Y-80737512D01*
X73061616Y-80733829D01*
X73045825Y-80722545D01*
X73041079Y-80718982D01*
X73008771Y-80693512D01*
X73008770Y-80693511D01*
X73000594Y-80687066D01*
X72991907Y-80684015D01*
X72984421Y-80678666D01*
X72974445Y-80675683D01*
X72974444Y-80675682D01*
X72943062Y-80666297D01*
X72935050Y-80663901D01*
X72929421Y-80662072D01*
X72880762Y-80644984D01*
X72875173Y-80644500D01*
X72872462Y-80644500D01*
X72869795Y-80644385D01*
X72869732Y-80644366D01*
X72869739Y-80644192D01*
X72868993Y-80644145D01*
X72862740Y-80642275D01*
X72817010Y-80644072D01*
X72808586Y-80644403D01*
X72803639Y-80644500D01*
X71428135Y-80644500D01*
X71403836Y-80641914D01*
X71402398Y-80641846D01*
X71392220Y-80639655D01*
X71362516Y-80643170D01*
X71358658Y-80643627D01*
X71352680Y-80643979D01*
X71352688Y-80644072D01*
X71347510Y-80644500D01*
X71342308Y-80644500D01*
X71323154Y-80647688D01*
X71317296Y-80648522D01*
X71300682Y-80650488D01*
X71276433Y-80653358D01*
X71276432Y-80653358D01*
X71266093Y-80654582D01*
X71257794Y-80658567D01*
X71248717Y-80660078D01*
X71203349Y-80684558D01*
X71198086Y-80687239D01*
X71158750Y-80706127D01*
X71158746Y-80706130D01*
X71151602Y-80709560D01*
X71147308Y-80713170D01*
X71145376Y-80715102D01*
X71143427Y-80716889D01*
X71143374Y-80716918D01*
X71143255Y-80716788D01*
X71142687Y-80717289D01*
X71136943Y-80720388D01*
X71129876Y-80728033D01*
X71100134Y-80760208D01*
X71096704Y-80763774D01*
X69220882Y-82639595D01*
X69158570Y-82673621D01*
X69131787Y-82676500D01*
X67512456Y-82676500D01*
X67444335Y-82656498D01*
X67435752Y-82650462D01*
X67342196Y-82578673D01*
X67342194Y-82578672D01*
X67335643Y-82573645D01*
X67200754Y-82517772D01*
X67056000Y-82498715D01*
X67047812Y-82499793D01*
X66919432Y-82516694D01*
X66919430Y-82516695D01*
X66911246Y-82517772D01*
X66876303Y-82532246D01*
X66783986Y-82570485D01*
X66783984Y-82570486D01*
X66776358Y-82573645D01*
X66660526Y-82662526D01*
X66655503Y-82669072D01*
X66649803Y-82676500D01*
X66571645Y-82778358D01*
X66568486Y-82785984D01*
X66568485Y-82785986D01*
X66535578Y-82865430D01*
X66515772Y-82913246D01*
X66514695Y-82921430D01*
X66514694Y-82921432D01*
X66499841Y-83034255D01*
X66496715Y-83058000D01*
X66497793Y-83066188D01*
X66514427Y-83192535D01*
X66515772Y-83202754D01*
X66522214Y-83218306D01*
X66562893Y-83316512D01*
X66571645Y-83337642D01*
X66660526Y-83453474D01*
X66675980Y-83465332D01*
X66676901Y-83466039D01*
X66718767Y-83523378D01*
X66722987Y-83594249D01*
X66688222Y-83656151D01*
X66676898Y-83665963D01*
X66660526Y-83678526D01*
X66571645Y-83794358D01*
X66515772Y-83929246D01*
X66496715Y-84074000D01*
X66515772Y-84218754D01*
X66527688Y-84247522D01*
X66561024Y-84328000D01*
X66571645Y-84353642D01*
X66576672Y-84360193D01*
X66645209Y-84449512D01*
X66660526Y-84469474D01*
X66676898Y-84482037D01*
X66676901Y-84482039D01*
X66718767Y-84539378D01*
X66722987Y-84610249D01*
X66688222Y-84672151D01*
X66676897Y-84681964D01*
X66668382Y-84688498D01*
X66660526Y-84694526D01*
X66655503Y-84701072D01*
X66651171Y-84706718D01*
X66571645Y-84810358D01*
X66568486Y-84817984D01*
X66568485Y-84817986D01*
X66553604Y-84853913D01*
X66515772Y-84945246D01*
X66514695Y-84953430D01*
X66514694Y-84953432D01*
X66504221Y-85032982D01*
X66496715Y-85090000D01*
X66497793Y-85098188D01*
X66513188Y-85215123D01*
X66515772Y-85234754D01*
X66571645Y-85369642D01*
X66596504Y-85402039D01*
X66651788Y-85474086D01*
X66660526Y-85485474D01*
X66667076Y-85490500D01*
X66667079Y-85490503D01*
X66745198Y-85550446D01*
X66776357Y-85574355D01*
X66911246Y-85630228D01*
X66919434Y-85631306D01*
X66983623Y-85639756D01*
X67056000Y-85649285D01*
X67064188Y-85648207D01*
X67192566Y-85631306D01*
X67200754Y-85630228D01*
X67335643Y-85574355D01*
X67368271Y-85549319D01*
X67435752Y-85497538D01*
X67501972Y-85471937D01*
X67512456Y-85471500D01*
X68271865Y-85471500D01*
X68296164Y-85474086D01*
X68297602Y-85474154D01*
X68307780Y-85476345D01*
X68341341Y-85472373D01*
X68347320Y-85472021D01*
X68347312Y-85471928D01*
X68352490Y-85471500D01*
X68357692Y-85471500D01*
X68376846Y-85468312D01*
X68382704Y-85467478D01*
X68399318Y-85465512D01*
X68423567Y-85462642D01*
X68423568Y-85462642D01*
X68433907Y-85461418D01*
X68442206Y-85457433D01*
X68451283Y-85455922D01*
X68496651Y-85431442D01*
X68501914Y-85428761D01*
X68541250Y-85409873D01*
X68541254Y-85409870D01*
X68548398Y-85406440D01*
X68552692Y-85402830D01*
X68554624Y-85400898D01*
X68556573Y-85399111D01*
X68556626Y-85399082D01*
X68556745Y-85399212D01*
X68557313Y-85398711D01*
X68563057Y-85395612D01*
X68599867Y-85355791D01*
X68603296Y-85352226D01*
X69881522Y-84074000D01*
X70814715Y-84074000D01*
X70833772Y-84218754D01*
X70845688Y-84247522D01*
X70879024Y-84328000D01*
X70889645Y-84353642D01*
X70894672Y-84360193D01*
X70963209Y-84449512D01*
X70978526Y-84469474D01*
X70985076Y-84474500D01*
X70985079Y-84474503D01*
X71087804Y-84553327D01*
X71094357Y-84558355D01*
X71229246Y-84614228D01*
X71374000Y-84633285D01*
X71382188Y-84632207D01*
X71510566Y-84615306D01*
X71518754Y-84614228D01*
X71653643Y-84558355D01*
X71660196Y-84553327D01*
X71762921Y-84474503D01*
X71762924Y-84474500D01*
X71769474Y-84469474D01*
X71784792Y-84449512D01*
X71853328Y-84360193D01*
X71858355Y-84353642D01*
X71868977Y-84328000D01*
X71902312Y-84247522D01*
X71914228Y-84218754D01*
X71933285Y-84074000D01*
X71914228Y-83929246D01*
X71858355Y-83794358D01*
X71769474Y-83678526D01*
X71762923Y-83673499D01*
X71762921Y-83673497D01*
X71660196Y-83594673D01*
X71660194Y-83594672D01*
X71653643Y-83589645D01*
X71518754Y-83533772D01*
X71374000Y-83514715D01*
X71365812Y-83515793D01*
X71237432Y-83532694D01*
X71237430Y-83532695D01*
X71229246Y-83533772D01*
X71181430Y-83553578D01*
X71101986Y-83586485D01*
X71101984Y-83586486D01*
X71094358Y-83589645D01*
X70978526Y-83678526D01*
X70889645Y-83794358D01*
X70833772Y-83929246D01*
X70814715Y-84074000D01*
X69881522Y-84074000D01*
X71749118Y-82206405D01*
X71811430Y-82172379D01*
X71838213Y-82169500D01*
X71933544Y-82169500D01*
X72001665Y-82189502D01*
X72010248Y-82195538D01*
X72110357Y-82272355D01*
X72245246Y-82328228D01*
X72269287Y-82331393D01*
X72361050Y-82343474D01*
X72425978Y-82372197D01*
X72465069Y-82431462D01*
X72469526Y-82451950D01*
X72482395Y-82549696D01*
X72484772Y-82567754D01*
X72494077Y-82590217D01*
X72530024Y-82677000D01*
X72540645Y-82702642D01*
X72555345Y-82721799D01*
X72618971Y-82804718D01*
X72629526Y-82818474D01*
X72636076Y-82823500D01*
X72636079Y-82823503D01*
X72738804Y-82902327D01*
X72745357Y-82907355D01*
X72880246Y-82963228D01*
X73025000Y-82982285D01*
X73033188Y-82981207D01*
X73161566Y-82964306D01*
X73169754Y-82963228D01*
X73304643Y-82907355D01*
X73311196Y-82902327D01*
X73413921Y-82823503D01*
X73413924Y-82823500D01*
X73420474Y-82818474D01*
X73431030Y-82804718D01*
X73494655Y-82721799D01*
X73509355Y-82702642D01*
X73519977Y-82677000D01*
X73555923Y-82590217D01*
X73565228Y-82567754D01*
X73567606Y-82549696D01*
X73580974Y-82448147D01*
X73584248Y-82423278D01*
X73612970Y-82358352D01*
X73672235Y-82319260D01*
X73743227Y-82318415D01*
X73757390Y-82323317D01*
X73761616Y-82325068D01*
X73761619Y-82325069D01*
X73769246Y-82328228D01*
X73793287Y-82331393D01*
X73858215Y-82360115D01*
X73897307Y-82419380D01*
X73898152Y-82490371D01*
X73893250Y-82504534D01*
X73884933Y-82524613D01*
X73884932Y-82524618D01*
X73881772Y-82532246D01*
X73880695Y-82540430D01*
X73880694Y-82540432D01*
X73869409Y-82626156D01*
X73862715Y-82677000D01*
X73863793Y-82685188D01*
X73880478Y-82811923D01*
X73881772Y-82821754D01*
X73891731Y-82845797D01*
X73924206Y-82924197D01*
X73937645Y-82956642D01*
X73974418Y-83004565D01*
X74010022Y-83050965D01*
X74026526Y-83072474D01*
X74033076Y-83077500D01*
X74033079Y-83077503D01*
X74130362Y-83152151D01*
X74142357Y-83161355D01*
X74222540Y-83194568D01*
X74260714Y-83210380D01*
X74277246Y-83217228D01*
X74422000Y-83236285D01*
X74430188Y-83235207D01*
X74558566Y-83218306D01*
X74566754Y-83217228D01*
X74580578Y-83211502D01*
X74636281Y-83188429D01*
X74706871Y-83180840D01*
X74770358Y-83212619D01*
X74806585Y-83273677D01*
X74810499Y-83304838D01*
X74810499Y-84916864D01*
X74807913Y-84941163D01*
X74807845Y-84942601D01*
X74805654Y-84952779D01*
X74806878Y-84963119D01*
X74809626Y-84986341D01*
X74809978Y-84992319D01*
X74810071Y-84992311D01*
X74810499Y-84997489D01*
X74810499Y-85002691D01*
X74811353Y-85007821D01*
X74813685Y-85021831D01*
X74814521Y-85027703D01*
X74820581Y-85078906D01*
X74824566Y-85087205D01*
X74826077Y-85096282D01*
X74850557Y-85141650D01*
X74853238Y-85146913D01*
X74872126Y-85186249D01*
X74872129Y-85186253D01*
X74875559Y-85193397D01*
X74879169Y-85197691D01*
X74881101Y-85199623D01*
X74882888Y-85201572D01*
X74882917Y-85201625D01*
X74882787Y-85201744D01*
X74883288Y-85202312D01*
X74886387Y-85208056D01*
X74894032Y-85215123D01*
X74926194Y-85244853D01*
X74929761Y-85248283D01*
X75226476Y-85544999D01*
X75260501Y-85607311D01*
X75262301Y-85617640D01*
X75266170Y-85647032D01*
X75275987Y-85721597D01*
X75278772Y-85742754D01*
X75281931Y-85750380D01*
X75325263Y-85854991D01*
X75334645Y-85877642D01*
X75423526Y-85993474D01*
X75430076Y-85998500D01*
X75430079Y-85998503D01*
X75532804Y-86077327D01*
X75539357Y-86082355D01*
X75674246Y-86138228D01*
X75819000Y-86157285D01*
X75827188Y-86156207D01*
X75955566Y-86139306D01*
X75963754Y-86138228D01*
X76098643Y-86082355D01*
X76105196Y-86077327D01*
X76207921Y-85998503D01*
X76207924Y-85998500D01*
X76214474Y-85993474D01*
X76303355Y-85877642D01*
X76312738Y-85854991D01*
X76356069Y-85750380D01*
X76359228Y-85742754D01*
X76364758Y-85700748D01*
X76393480Y-85635821D01*
X76452745Y-85596729D01*
X76523737Y-85595884D01*
X76567692Y-85618249D01*
X76571478Y-85621234D01*
X76575950Y-85625208D01*
X76576010Y-85625137D01*
X76579967Y-85628490D01*
X76583648Y-85632171D01*
X76587880Y-85635195D01*
X76587882Y-85635197D01*
X76599457Y-85643469D01*
X76604202Y-85647032D01*
X76644670Y-85678934D01*
X76653355Y-85681984D01*
X76660842Y-85687334D01*
X76710247Y-85702109D01*
X76715842Y-85703927D01*
X76764502Y-85721016D01*
X76770091Y-85721500D01*
X76772804Y-85721500D01*
X76775469Y-85721615D01*
X76775532Y-85721634D01*
X76775525Y-85721808D01*
X76776271Y-85721855D01*
X76782524Y-85723725D01*
X76832383Y-85721766D01*
X76836678Y-85721597D01*
X76841625Y-85721500D01*
X81079276Y-85721500D01*
X81147397Y-85741502D01*
X81193890Y-85795158D01*
X81203994Y-85865432D01*
X81178226Y-85925506D01*
X81111720Y-86009869D01*
X81109031Y-86014980D01*
X81109029Y-86014983D01*
X81096073Y-86039609D01*
X81017203Y-86189515D01*
X80957007Y-86383378D01*
X80933148Y-86584964D01*
X80946424Y-86787522D01*
X80947845Y-86793118D01*
X80947846Y-86793123D01*
X80968119Y-86872945D01*
X80996392Y-86984269D01*
X80998809Y-86989512D01*
X81036010Y-87070208D01*
X81081377Y-87168616D01*
X81084710Y-87173332D01*
X81180714Y-87309175D01*
X81198533Y-87334389D01*
X81343938Y-87476035D01*
X81512720Y-87588812D01*
X81518023Y-87591090D01*
X81518026Y-87591092D01*
X81606707Y-87629192D01*
X81699228Y-87668942D01*
X81772244Y-87685464D01*
X81891579Y-87712467D01*
X81891584Y-87712468D01*
X81897216Y-87713742D01*
X81902987Y-87713969D01*
X81902989Y-87713969D01*
X81962756Y-87716317D01*
X82100053Y-87721712D01*
X82200499Y-87707148D01*
X82295231Y-87693413D01*
X82295236Y-87693412D01*
X82300945Y-87692584D01*
X82306409Y-87690729D01*
X82306414Y-87690728D01*
X82487693Y-87629192D01*
X82487698Y-87629190D01*
X82493165Y-87627334D01*
X82670276Y-87528147D01*
X82681876Y-87518500D01*
X82821913Y-87402031D01*
X82826345Y-87398345D01*
X82897879Y-87312335D01*
X82952453Y-87246718D01*
X82952455Y-87246715D01*
X82956147Y-87242276D01*
X83033327Y-87104462D01*
X83052510Y-87070208D01*
X83052511Y-87070206D01*
X83055334Y-87065165D01*
X83057190Y-87059698D01*
X83057192Y-87059693D01*
X83118728Y-86878414D01*
X83118729Y-86878409D01*
X83120584Y-86872945D01*
X83121412Y-86867236D01*
X83121413Y-86867231D01*
X83144980Y-86704687D01*
X83149712Y-86672053D01*
X83151232Y-86614000D01*
X83139401Y-86485242D01*
X83133187Y-86417613D01*
X83133186Y-86417610D01*
X83132658Y-86411859D01*
X83131090Y-86406299D01*
X83079125Y-86222046D01*
X83079124Y-86222044D01*
X83077557Y-86216487D01*
X83066978Y-86195033D01*
X82990331Y-86039609D01*
X82987776Y-86034428D01*
X82966049Y-86005332D01*
X82904486Y-85922889D01*
X82879754Y-85856339D01*
X82894928Y-85786983D01*
X82945190Y-85736841D01*
X83005444Y-85721500D01*
X83097788Y-85721500D01*
X83165909Y-85741502D01*
X83186883Y-85758405D01*
X83517807Y-86089329D01*
X83551833Y-86151641D01*
X83549045Y-86215788D01*
X83497007Y-86383378D01*
X83473148Y-86584964D01*
X83486424Y-86787522D01*
X83487845Y-86793118D01*
X83487846Y-86793123D01*
X83508119Y-86872945D01*
X83536392Y-86984269D01*
X83538809Y-86989512D01*
X83576010Y-87070208D01*
X83621377Y-87168616D01*
X83624710Y-87173332D01*
X83720714Y-87309175D01*
X83738533Y-87334389D01*
X83883938Y-87476035D01*
X84052720Y-87588812D01*
X84058023Y-87591090D01*
X84058026Y-87591092D01*
X84146707Y-87629192D01*
X84239228Y-87668942D01*
X84312244Y-87685464D01*
X84431579Y-87712467D01*
X84431584Y-87712468D01*
X84437216Y-87713742D01*
X84442987Y-87713969D01*
X84442989Y-87713969D01*
X84502756Y-87716317D01*
X84640053Y-87721712D01*
X84740499Y-87707148D01*
X84835231Y-87693413D01*
X84835236Y-87693412D01*
X84840945Y-87692584D01*
X84846409Y-87690729D01*
X84846414Y-87690728D01*
X85027693Y-87629192D01*
X85027698Y-87629190D01*
X85033165Y-87627334D01*
X85210276Y-87528147D01*
X85221876Y-87518500D01*
X85361913Y-87402031D01*
X85366345Y-87398345D01*
X85437879Y-87312335D01*
X85492453Y-87246718D01*
X85492455Y-87246715D01*
X85496147Y-87242276D01*
X85573327Y-87104462D01*
X85592510Y-87070208D01*
X85592511Y-87070206D01*
X85595334Y-87065165D01*
X85597190Y-87059698D01*
X85597192Y-87059693D01*
X85658728Y-86878414D01*
X85658729Y-86878409D01*
X85660584Y-86872945D01*
X85661412Y-86867236D01*
X85661413Y-86867231D01*
X85684980Y-86704687D01*
X85689712Y-86672053D01*
X85691232Y-86614000D01*
X85688564Y-86584964D01*
X86013148Y-86584964D01*
X86026424Y-86787522D01*
X86027845Y-86793118D01*
X86027846Y-86793123D01*
X86048119Y-86872945D01*
X86076392Y-86984269D01*
X86078809Y-86989512D01*
X86116010Y-87070208D01*
X86161377Y-87168616D01*
X86164710Y-87173332D01*
X86260714Y-87309175D01*
X86278533Y-87334389D01*
X86423938Y-87476035D01*
X86592720Y-87588812D01*
X86598023Y-87591090D01*
X86598026Y-87591092D01*
X86686707Y-87629192D01*
X86779228Y-87668942D01*
X86852244Y-87685464D01*
X86971579Y-87712467D01*
X86971584Y-87712468D01*
X86977216Y-87713742D01*
X86982987Y-87713969D01*
X86982989Y-87713969D01*
X87042756Y-87716317D01*
X87180053Y-87721712D01*
X87280499Y-87707148D01*
X87375231Y-87693413D01*
X87375236Y-87693412D01*
X87380945Y-87692584D01*
X87386409Y-87690729D01*
X87386414Y-87690728D01*
X87567693Y-87629192D01*
X87567698Y-87629190D01*
X87573165Y-87627334D01*
X87750276Y-87528147D01*
X87761876Y-87518500D01*
X87901913Y-87402031D01*
X87906345Y-87398345D01*
X87977879Y-87312335D01*
X88032453Y-87246718D01*
X88032455Y-87246715D01*
X88036147Y-87242276D01*
X88113327Y-87104462D01*
X88132510Y-87070208D01*
X88132511Y-87070206D01*
X88135334Y-87065165D01*
X88137190Y-87059698D01*
X88137192Y-87059693D01*
X88198728Y-86878414D01*
X88198729Y-86878409D01*
X88200584Y-86872945D01*
X88201412Y-86867236D01*
X88201413Y-86867231D01*
X88224980Y-86704687D01*
X88229712Y-86672053D01*
X88231232Y-86614000D01*
X88219401Y-86485242D01*
X88213187Y-86417613D01*
X88213186Y-86417610D01*
X88212658Y-86411859D01*
X88211090Y-86406299D01*
X88159125Y-86222046D01*
X88159124Y-86222044D01*
X88157557Y-86216487D01*
X88146978Y-86195033D01*
X88070331Y-86039609D01*
X88067776Y-86034428D01*
X88040950Y-85998503D01*
X87986440Y-85925506D01*
X87946320Y-85871779D01*
X87797258Y-85733987D01*
X87792375Y-85730906D01*
X87792371Y-85730903D01*
X87630464Y-85628748D01*
X87625581Y-85625667D01*
X87437039Y-85550446D01*
X87431379Y-85549320D01*
X87431375Y-85549319D01*
X87243613Y-85511971D01*
X87243610Y-85511971D01*
X87237946Y-85510844D01*
X87232171Y-85510768D01*
X87232167Y-85510768D01*
X87130793Y-85509441D01*
X87034971Y-85508187D01*
X87029274Y-85509166D01*
X87029273Y-85509166D01*
X86840607Y-85541585D01*
X86834910Y-85542564D01*
X86644463Y-85612824D01*
X86639502Y-85615776D01*
X86639501Y-85615776D01*
X86635344Y-85618249D01*
X86470010Y-85716612D01*
X86465670Y-85720418D01*
X86465666Y-85720421D01*
X86380446Y-85795158D01*
X86317392Y-85850455D01*
X86191720Y-86009869D01*
X86189031Y-86014980D01*
X86189029Y-86014983D01*
X86176073Y-86039609D01*
X86097203Y-86189515D01*
X86037007Y-86383378D01*
X86013148Y-86584964D01*
X85688564Y-86584964D01*
X85679401Y-86485242D01*
X85673187Y-86417613D01*
X85673186Y-86417610D01*
X85672658Y-86411859D01*
X85671090Y-86406299D01*
X85619125Y-86222046D01*
X85619124Y-86222044D01*
X85617557Y-86216487D01*
X85606978Y-86195033D01*
X85530331Y-86039609D01*
X85527776Y-86034428D01*
X85500950Y-85998503D01*
X85446440Y-85925506D01*
X85406320Y-85871779D01*
X85257258Y-85733987D01*
X85252375Y-85730906D01*
X85252371Y-85730903D01*
X85090464Y-85628748D01*
X85085581Y-85625667D01*
X84897039Y-85550446D01*
X84891379Y-85549320D01*
X84891375Y-85549319D01*
X84703613Y-85511971D01*
X84703610Y-85511971D01*
X84697946Y-85510844D01*
X84692171Y-85510768D01*
X84692167Y-85510768D01*
X84590793Y-85509441D01*
X84494971Y-85508187D01*
X84489274Y-85509166D01*
X84489273Y-85509166D01*
X84300607Y-85541585D01*
X84294910Y-85542564D01*
X84191738Y-85580626D01*
X84120906Y-85585438D01*
X84059033Y-85551510D01*
X83616040Y-85108518D01*
X83600699Y-85089522D01*
X83599722Y-85088448D01*
X83594071Y-85079696D01*
X83567528Y-85058771D01*
X83563053Y-85054794D01*
X83562992Y-85054865D01*
X83559035Y-85051512D01*
X83555352Y-85047829D01*
X83539561Y-85036545D01*
X83534815Y-85032982D01*
X83502507Y-85007512D01*
X83502506Y-85007511D01*
X83494330Y-85001066D01*
X83485643Y-84998015D01*
X83478157Y-84992666D01*
X83468181Y-84989683D01*
X83468180Y-84989682D01*
X83428789Y-84977902D01*
X83423157Y-84976072D01*
X83374498Y-84958984D01*
X83368909Y-84958500D01*
X83366198Y-84958500D01*
X83363531Y-84958385D01*
X83363468Y-84958366D01*
X83363475Y-84958192D01*
X83362729Y-84958145D01*
X83356476Y-84956275D01*
X83307692Y-84958192D01*
X83302322Y-84958403D01*
X83297375Y-84958500D01*
X83011724Y-84958500D01*
X82943603Y-84938498D01*
X82897110Y-84884842D01*
X82887006Y-84814568D01*
X82914850Y-84751930D01*
X82952453Y-84706718D01*
X82952455Y-84706715D01*
X82956147Y-84702276D01*
X83039563Y-84553327D01*
X83052510Y-84530208D01*
X83052511Y-84530206D01*
X83055334Y-84525165D01*
X83057190Y-84519698D01*
X83057192Y-84519693D01*
X83118728Y-84338414D01*
X83118729Y-84338409D01*
X83120584Y-84332945D01*
X83121412Y-84327236D01*
X83121413Y-84327231D01*
X83149179Y-84135727D01*
X83149712Y-84132053D01*
X83151232Y-84074000D01*
X83138683Y-83937432D01*
X83133187Y-83877613D01*
X83133186Y-83877610D01*
X83132658Y-83871859D01*
X83129108Y-83859270D01*
X83079125Y-83682046D01*
X83079124Y-83682044D01*
X83077557Y-83676487D01*
X83072368Y-83665963D01*
X82990331Y-83499609D01*
X82987776Y-83494428D01*
X82961696Y-83459502D01*
X82911953Y-83392889D01*
X82887221Y-83326339D01*
X82902395Y-83256983D01*
X82952657Y-83206841D01*
X83012911Y-83191500D01*
X83107788Y-83191500D01*
X83175909Y-83211502D01*
X83196883Y-83228405D01*
X83517807Y-83549329D01*
X83551833Y-83611641D01*
X83549045Y-83675788D01*
X83509860Y-83801986D01*
X83497007Y-83843378D01*
X83473148Y-84044964D01*
X83486424Y-84247522D01*
X83487845Y-84253118D01*
X83487846Y-84253123D01*
X83534068Y-84435117D01*
X83536392Y-84444269D01*
X83538809Y-84449512D01*
X83576010Y-84530208D01*
X83621377Y-84628616D01*
X83624710Y-84633332D01*
X83672584Y-84701072D01*
X83738533Y-84794389D01*
X83742675Y-84798424D01*
X83762756Y-84817986D01*
X83883938Y-84936035D01*
X83888742Y-84939245D01*
X83924472Y-84963119D01*
X84052720Y-85048812D01*
X84058023Y-85051090D01*
X84058026Y-85051092D01*
X84233921Y-85126662D01*
X84239228Y-85128942D01*
X84306858Y-85144245D01*
X84431579Y-85172467D01*
X84431584Y-85172468D01*
X84437216Y-85173742D01*
X84442987Y-85173969D01*
X84442989Y-85173969D01*
X84502756Y-85176317D01*
X84640053Y-85181712D01*
X84740499Y-85167148D01*
X84835231Y-85153413D01*
X84835236Y-85153412D01*
X84840945Y-85152584D01*
X84846409Y-85150729D01*
X84846414Y-85150728D01*
X85027693Y-85089192D01*
X85027698Y-85089190D01*
X85033165Y-85087334D01*
X85038553Y-85084317D01*
X85150129Y-85021831D01*
X85210276Y-84988147D01*
X85222595Y-84977902D01*
X85361913Y-84862031D01*
X85366345Y-84858345D01*
X85496147Y-84702276D01*
X85579563Y-84553327D01*
X85592510Y-84530208D01*
X85592511Y-84530206D01*
X85595334Y-84525165D01*
X85597190Y-84519698D01*
X85597192Y-84519693D01*
X85658728Y-84338414D01*
X85658729Y-84338409D01*
X85660584Y-84332945D01*
X85661412Y-84327236D01*
X85661413Y-84327231D01*
X85689179Y-84135727D01*
X85689712Y-84132053D01*
X85691232Y-84074000D01*
X85688564Y-84044964D01*
X86013148Y-84044964D01*
X86026424Y-84247522D01*
X86027845Y-84253118D01*
X86027846Y-84253123D01*
X86074068Y-84435117D01*
X86076392Y-84444269D01*
X86078809Y-84449512D01*
X86116010Y-84530208D01*
X86161377Y-84628616D01*
X86164710Y-84633332D01*
X86212584Y-84701072D01*
X86278533Y-84794389D01*
X86282675Y-84798424D01*
X86302756Y-84817986D01*
X86423938Y-84936035D01*
X86428742Y-84939245D01*
X86464472Y-84963119D01*
X86592720Y-85048812D01*
X86598023Y-85051090D01*
X86598026Y-85051092D01*
X86773921Y-85126662D01*
X86779228Y-85128942D01*
X86846858Y-85144245D01*
X86971579Y-85172467D01*
X86971584Y-85172468D01*
X86977216Y-85173742D01*
X86982987Y-85173969D01*
X86982989Y-85173969D01*
X87042756Y-85176317D01*
X87180053Y-85181712D01*
X87280499Y-85167148D01*
X87375231Y-85153413D01*
X87375236Y-85153412D01*
X87380945Y-85152584D01*
X87386409Y-85150729D01*
X87386414Y-85150728D01*
X87567693Y-85089192D01*
X87567698Y-85089190D01*
X87573165Y-85087334D01*
X87578553Y-85084317D01*
X87690129Y-85021831D01*
X87750276Y-84988147D01*
X87762595Y-84977902D01*
X87901913Y-84862031D01*
X87906345Y-84858345D01*
X88036147Y-84702276D01*
X88119563Y-84553327D01*
X88132510Y-84530208D01*
X88132511Y-84530206D01*
X88135334Y-84525165D01*
X88137190Y-84519698D01*
X88137192Y-84519693D01*
X88198728Y-84338414D01*
X88198729Y-84338409D01*
X88200584Y-84332945D01*
X88201412Y-84327236D01*
X88201413Y-84327231D01*
X88229179Y-84135727D01*
X88229712Y-84132053D01*
X88231232Y-84074000D01*
X88218683Y-83937432D01*
X88213187Y-83877613D01*
X88213186Y-83877610D01*
X88212658Y-83871859D01*
X88209108Y-83859270D01*
X88159125Y-83682046D01*
X88159124Y-83682044D01*
X88157557Y-83676487D01*
X88152368Y-83665963D01*
X88070331Y-83499609D01*
X88067776Y-83494428D01*
X88041696Y-83459502D01*
X87949777Y-83336409D01*
X87946320Y-83331779D01*
X87797258Y-83193987D01*
X87792375Y-83190906D01*
X87792371Y-83190903D01*
X87630464Y-83088748D01*
X87625581Y-83085667D01*
X87437039Y-83010446D01*
X87431379Y-83009320D01*
X87431375Y-83009319D01*
X87243613Y-82971971D01*
X87243610Y-82971971D01*
X87237946Y-82970844D01*
X87232171Y-82970768D01*
X87232167Y-82970768D01*
X87130793Y-82969441D01*
X87034971Y-82968187D01*
X87029274Y-82969166D01*
X87029273Y-82969166D01*
X86840607Y-83001585D01*
X86834910Y-83002564D01*
X86644463Y-83072824D01*
X86470010Y-83176612D01*
X86465670Y-83180418D01*
X86465666Y-83180421D01*
X86401966Y-83236285D01*
X86317392Y-83310455D01*
X86191720Y-83469869D01*
X86189031Y-83474980D01*
X86189029Y-83474983D01*
X86176073Y-83499609D01*
X86097203Y-83649515D01*
X86037007Y-83843378D01*
X86013148Y-84044964D01*
X85688564Y-84044964D01*
X85678683Y-83937432D01*
X85673187Y-83877613D01*
X85673186Y-83877610D01*
X85672658Y-83871859D01*
X85669108Y-83859270D01*
X85619125Y-83682046D01*
X85619124Y-83682044D01*
X85617557Y-83676487D01*
X85612368Y-83665963D01*
X85530331Y-83499609D01*
X85527776Y-83494428D01*
X85501696Y-83459502D01*
X85409777Y-83336409D01*
X85406320Y-83331779D01*
X85257258Y-83193987D01*
X85252375Y-83190906D01*
X85252371Y-83190903D01*
X85090464Y-83088748D01*
X85085581Y-83085667D01*
X84897039Y-83010446D01*
X84891379Y-83009320D01*
X84891375Y-83009319D01*
X84703613Y-82971971D01*
X84703610Y-82971971D01*
X84697946Y-82970844D01*
X84692171Y-82970768D01*
X84692167Y-82970768D01*
X84590793Y-82969441D01*
X84494971Y-82968187D01*
X84489274Y-82969166D01*
X84489273Y-82969166D01*
X84300607Y-83001585D01*
X84294910Y-83002564D01*
X84191738Y-83040626D01*
X84120906Y-83045438D01*
X84059033Y-83011510D01*
X83626040Y-82578518D01*
X83610699Y-82559522D01*
X83609722Y-82558448D01*
X83604071Y-82549696D01*
X83577528Y-82528771D01*
X83573053Y-82524794D01*
X83572992Y-82524865D01*
X83569035Y-82521512D01*
X83565352Y-82517829D01*
X83549561Y-82506545D01*
X83544815Y-82502982D01*
X83512507Y-82477512D01*
X83512506Y-82477511D01*
X83504330Y-82471066D01*
X83495643Y-82468015D01*
X83488157Y-82462666D01*
X83478181Y-82459683D01*
X83478180Y-82459682D01*
X83438789Y-82447902D01*
X83433157Y-82446072D01*
X83384498Y-82428984D01*
X83378909Y-82428500D01*
X83376198Y-82428500D01*
X83373531Y-82428385D01*
X83373468Y-82428366D01*
X83373475Y-82428192D01*
X83372729Y-82428145D01*
X83366476Y-82426275D01*
X83317692Y-82428192D01*
X83312322Y-82428403D01*
X83307375Y-82428500D01*
X83003407Y-82428500D01*
X82935286Y-82408498D01*
X82888793Y-82354842D01*
X82878689Y-82284568D01*
X82906533Y-82221930D01*
X82952453Y-82166718D01*
X82952455Y-82166715D01*
X82956147Y-82162276D01*
X83055334Y-81985165D01*
X83057190Y-81979698D01*
X83057192Y-81979693D01*
X83118728Y-81798414D01*
X83118729Y-81798409D01*
X83120584Y-81792945D01*
X83121412Y-81787236D01*
X83121413Y-81787231D01*
X83149179Y-81595727D01*
X83149712Y-81592053D01*
X83151232Y-81534000D01*
X83148564Y-81504964D01*
X83473148Y-81504964D01*
X83486424Y-81707522D01*
X83487845Y-81713118D01*
X83487846Y-81713123D01*
X83509508Y-81798414D01*
X83536392Y-81904269D01*
X83538809Y-81909512D01*
X83576010Y-81990208D01*
X83621377Y-82088616D01*
X83624710Y-82093332D01*
X83688416Y-82183474D01*
X83738533Y-82254389D01*
X83883938Y-82396035D01*
X83888742Y-82399245D01*
X83956393Y-82444448D01*
X84052720Y-82508812D01*
X84058023Y-82511090D01*
X84058026Y-82511092D01*
X84214965Y-82578518D01*
X84239228Y-82588942D01*
X84271702Y-82596290D01*
X84431579Y-82632467D01*
X84431584Y-82632468D01*
X84437216Y-82633742D01*
X84442987Y-82633969D01*
X84442989Y-82633969D01*
X84502756Y-82636317D01*
X84640053Y-82641712D01*
X84747341Y-82626156D01*
X84835231Y-82613413D01*
X84835236Y-82613412D01*
X84840945Y-82612584D01*
X84846409Y-82610729D01*
X84846414Y-82610728D01*
X85027693Y-82549192D01*
X85027698Y-82549190D01*
X85033165Y-82547334D01*
X85045490Y-82540432D01*
X85112361Y-82502982D01*
X85210276Y-82448147D01*
X85230160Y-82431610D01*
X85354462Y-82328228D01*
X85366345Y-82318345D01*
X85399695Y-82278246D01*
X85492453Y-82166718D01*
X85492455Y-82166715D01*
X85496147Y-82162276D01*
X85595334Y-81985165D01*
X85597190Y-81979698D01*
X85597192Y-81979693D01*
X85658728Y-81798414D01*
X85658729Y-81798409D01*
X85660584Y-81792945D01*
X85661412Y-81787236D01*
X85661413Y-81787231D01*
X85689179Y-81595727D01*
X85689712Y-81592053D01*
X85691232Y-81534000D01*
X85678683Y-81397432D01*
X85673187Y-81337613D01*
X85673186Y-81337610D01*
X85672658Y-81331859D01*
X85671016Y-81326036D01*
X85619125Y-81142046D01*
X85619124Y-81142044D01*
X85617557Y-81136487D01*
X85614400Y-81130084D01*
X85530331Y-80959609D01*
X85527776Y-80954428D01*
X85519157Y-80942885D01*
X85471089Y-80878515D01*
X85406320Y-80791779D01*
X85285600Y-80680186D01*
X85261503Y-80657911D01*
X85257258Y-80653987D01*
X85252375Y-80650906D01*
X85252371Y-80650903D01*
X85106728Y-80559010D01*
X85085581Y-80545667D01*
X84897039Y-80470446D01*
X84891379Y-80469320D01*
X84891375Y-80469319D01*
X84703613Y-80431971D01*
X84703610Y-80431971D01*
X84697946Y-80430844D01*
X84692171Y-80430768D01*
X84692167Y-80430768D01*
X84590793Y-80429441D01*
X84494971Y-80428187D01*
X84489274Y-80429166D01*
X84489273Y-80429166D01*
X84401397Y-80444266D01*
X84294910Y-80462564D01*
X84104463Y-80532824D01*
X83930010Y-80636612D01*
X83925670Y-80640418D01*
X83925666Y-80640421D01*
X83790169Y-80759250D01*
X83777392Y-80770455D01*
X83651720Y-80929869D01*
X83649031Y-80934980D01*
X83649029Y-80934983D01*
X83614996Y-80999670D01*
X83557203Y-81109515D01*
X83497007Y-81303378D01*
X83473148Y-81504964D01*
X83148564Y-81504964D01*
X83138683Y-81397432D01*
X83133187Y-81337613D01*
X83133186Y-81337610D01*
X83132658Y-81331859D01*
X83131016Y-81326036D01*
X83079125Y-81142046D01*
X83079124Y-81142044D01*
X83077557Y-81136487D01*
X83074400Y-81130084D01*
X82990331Y-80959609D01*
X82987776Y-80954428D01*
X82979157Y-80942885D01*
X82931089Y-80878515D01*
X82866320Y-80791779D01*
X82745600Y-80680186D01*
X82721503Y-80657911D01*
X82717258Y-80653987D01*
X82712375Y-80650906D01*
X82712371Y-80650903D01*
X82566728Y-80559010D01*
X82545581Y-80545667D01*
X82357039Y-80470446D01*
X82351379Y-80469320D01*
X82351375Y-80469319D01*
X82163613Y-80431971D01*
X82163610Y-80431971D01*
X82157946Y-80430844D01*
X82152171Y-80430768D01*
X82152167Y-80430768D01*
X82050793Y-80429441D01*
X81954971Y-80428187D01*
X81949274Y-80429166D01*
X81949273Y-80429166D01*
X81861397Y-80444266D01*
X81754910Y-80462564D01*
X81564463Y-80532824D01*
X81390010Y-80636612D01*
X81385670Y-80640418D01*
X81385666Y-80640421D01*
X81250169Y-80759250D01*
X81237392Y-80770455D01*
X81111720Y-80929869D01*
X81109031Y-80934980D01*
X81109029Y-80934983D01*
X81074996Y-80999670D01*
X81017203Y-81109515D01*
X80957007Y-81303378D01*
X80933148Y-81504964D01*
X80933526Y-81510729D01*
X80933465Y-81513052D01*
X80911688Y-81580627D01*
X80856834Y-81625700D01*
X80786320Y-81633962D01*
X80718413Y-81598851D01*
X80189688Y-81070125D01*
X79408084Y-80288521D01*
X79392725Y-80269505D01*
X79391759Y-80268444D01*
X79386111Y-80259696D01*
X79359568Y-80238771D01*
X79355093Y-80234794D01*
X79355032Y-80234865D01*
X79351075Y-80231512D01*
X79347392Y-80227829D01*
X79331601Y-80216545D01*
X79326855Y-80212982D01*
X79294547Y-80187512D01*
X79294546Y-80187511D01*
X79286370Y-80181066D01*
X79277683Y-80178015D01*
X79270197Y-80172666D01*
X79260221Y-80169683D01*
X79260220Y-80169682D01*
X79220829Y-80157902D01*
X79215197Y-80156072D01*
X79166538Y-80138984D01*
X79160949Y-80138500D01*
X79158238Y-80138500D01*
X79155571Y-80138385D01*
X79155508Y-80138366D01*
X79155515Y-80138192D01*
X79154769Y-80138145D01*
X79148516Y-80136275D01*
X79099732Y-80138192D01*
X79094362Y-80138403D01*
X79089415Y-80138500D01*
X78947212Y-80138500D01*
X78879091Y-80118498D01*
X78832598Y-80064842D01*
X78822494Y-79994568D01*
X78851988Y-79929988D01*
X78858117Y-79923405D01*
X79660317Y-79121206D01*
X80639118Y-78142405D01*
X80701430Y-78108379D01*
X80728213Y-78105500D01*
X80811500Y-78105500D01*
X80879621Y-78125502D01*
X80926114Y-78179158D01*
X80937500Y-78231500D01*
X80937501Y-79047932D01*
X80937501Y-79869066D01*
X80940038Y-79881821D01*
X80948309Y-79923405D01*
X80952266Y-79943301D01*
X80959161Y-79953620D01*
X80959162Y-79953622D01*
X80999516Y-80014015D01*
X81008516Y-80027484D01*
X81092699Y-80083734D01*
X81166933Y-80098500D01*
X82041858Y-80098500D01*
X82917066Y-80098499D01*
X82952818Y-80091388D01*
X82979126Y-80086156D01*
X82979128Y-80086155D01*
X82991301Y-80083734D01*
X83001621Y-80076839D01*
X83001622Y-80076838D01*
X83065168Y-80034377D01*
X83075484Y-80027484D01*
X83131734Y-79943301D01*
X83146500Y-79869067D01*
X83146499Y-78231500D01*
X83166501Y-78163379D01*
X83220157Y-78116886D01*
X83272499Y-78105500D01*
X83616123Y-78105500D01*
X83684244Y-78125502D01*
X83730737Y-78179158D01*
X83740841Y-78249432D01*
X83715073Y-78309506D01*
X83651720Y-78389869D01*
X83649031Y-78394980D01*
X83649029Y-78394983D01*
X83636073Y-78419609D01*
X83557203Y-78569515D01*
X83497007Y-78763378D01*
X83473148Y-78964964D01*
X83486424Y-79167522D01*
X83487845Y-79173118D01*
X83487846Y-79173123D01*
X83507148Y-79249123D01*
X83536392Y-79364269D01*
X83538809Y-79369512D01*
X83574316Y-79446532D01*
X83621377Y-79548616D01*
X83645857Y-79583254D01*
X83702800Y-79663827D01*
X83738533Y-79714389D01*
X83742675Y-79718424D01*
X83768709Y-79743785D01*
X83883938Y-79856035D01*
X84052720Y-79968812D01*
X84058023Y-79971090D01*
X84058026Y-79971092D01*
X84189283Y-80027484D01*
X84239228Y-80048942D01*
X84309496Y-80064842D01*
X84431579Y-80092467D01*
X84431584Y-80092468D01*
X84437216Y-80093742D01*
X84442987Y-80093969D01*
X84442989Y-80093969D01*
X84502756Y-80096317D01*
X84640053Y-80101712D01*
X84747348Y-80086155D01*
X84835231Y-80073413D01*
X84835236Y-80073412D01*
X84840945Y-80072584D01*
X84846409Y-80070729D01*
X84846414Y-80070728D01*
X85027693Y-80009192D01*
X85027698Y-80009190D01*
X85033165Y-80007334D01*
X85055961Y-79994568D01*
X85107683Y-79965602D01*
X85210276Y-79908147D01*
X85215882Y-79903485D01*
X85361913Y-79782031D01*
X85366345Y-79778345D01*
X85395985Y-79742707D01*
X85492453Y-79626718D01*
X85492455Y-79626715D01*
X85496147Y-79622276D01*
X85581038Y-79470693D01*
X85592510Y-79450208D01*
X85592511Y-79450206D01*
X85595334Y-79445165D01*
X85597190Y-79439698D01*
X85597192Y-79439693D01*
X85658728Y-79258414D01*
X85658729Y-79258409D01*
X85660584Y-79252945D01*
X85661412Y-79247236D01*
X85661413Y-79247231D01*
X85682388Y-79102567D01*
X85689712Y-79052053D01*
X85691232Y-78994000D01*
X85679797Y-78869551D01*
X85673187Y-78797613D01*
X85673186Y-78797610D01*
X85672658Y-78791859D01*
X85667113Y-78772198D01*
X85619125Y-78602046D01*
X85619124Y-78602044D01*
X85617557Y-78596487D01*
X85606978Y-78575033D01*
X85530331Y-78419609D01*
X85527776Y-78414428D01*
X85479241Y-78349432D01*
X85447473Y-78306889D01*
X85422741Y-78240339D01*
X85437915Y-78170983D01*
X85488177Y-78120841D01*
X85548431Y-78105500D01*
X86156123Y-78105500D01*
X86224244Y-78125502D01*
X86270737Y-78179158D01*
X86280841Y-78249432D01*
X86255073Y-78309506D01*
X86191720Y-78389869D01*
X86189031Y-78394980D01*
X86189029Y-78394983D01*
X86176073Y-78419609D01*
X86097203Y-78569515D01*
X86037007Y-78763378D01*
X86013148Y-78964964D01*
X86026424Y-79167522D01*
X86027845Y-79173118D01*
X86027846Y-79173123D01*
X86047148Y-79249123D01*
X86076392Y-79364269D01*
X86078809Y-79369512D01*
X86114316Y-79446532D01*
X86161377Y-79548616D01*
X86185857Y-79583254D01*
X86242800Y-79663827D01*
X86278533Y-79714389D01*
X86282675Y-79718424D01*
X86308709Y-79743785D01*
X86423938Y-79856035D01*
X86592720Y-79968812D01*
X86598023Y-79971090D01*
X86598026Y-79971092D01*
X86729283Y-80027484D01*
X86779228Y-80048942D01*
X86849496Y-80064842D01*
X86971579Y-80092467D01*
X86971584Y-80092468D01*
X86977216Y-80093742D01*
X86982987Y-80093969D01*
X86982989Y-80093969D01*
X87042756Y-80096317D01*
X87180053Y-80101712D01*
X87287348Y-80086155D01*
X87375231Y-80073413D01*
X87375236Y-80073412D01*
X87380945Y-80072584D01*
X87386409Y-80070729D01*
X87386414Y-80070728D01*
X87567693Y-80009192D01*
X87567698Y-80009190D01*
X87573165Y-80007334D01*
X87595961Y-79994568D01*
X87647683Y-79965602D01*
X87750276Y-79908147D01*
X87754724Y-79904448D01*
X87781930Y-79881821D01*
X87847093Y-79853639D01*
X87917149Y-79865162D01*
X87969853Y-79912730D01*
X87988500Y-79978694D01*
X87988500Y-80546168D01*
X87968498Y-80614289D01*
X87914842Y-80660782D01*
X87844568Y-80670886D01*
X87795268Y-80652732D01*
X87625581Y-80545667D01*
X87437039Y-80470446D01*
X87431379Y-80469320D01*
X87431375Y-80469319D01*
X87243613Y-80431971D01*
X87243610Y-80431971D01*
X87237946Y-80430844D01*
X87232171Y-80430768D01*
X87232167Y-80430768D01*
X87130793Y-80429441D01*
X87034971Y-80428187D01*
X87029274Y-80429166D01*
X87029273Y-80429166D01*
X86941397Y-80444266D01*
X86834910Y-80462564D01*
X86644463Y-80532824D01*
X86470010Y-80636612D01*
X86465670Y-80640418D01*
X86465666Y-80640421D01*
X86330169Y-80759250D01*
X86317392Y-80770455D01*
X86191720Y-80929869D01*
X86189031Y-80934980D01*
X86189029Y-80934983D01*
X86154996Y-80999670D01*
X86097203Y-81109515D01*
X86037007Y-81303378D01*
X86013148Y-81504964D01*
X86026424Y-81707522D01*
X86027845Y-81713118D01*
X86027846Y-81713123D01*
X86049508Y-81798414D01*
X86076392Y-81904269D01*
X86078809Y-81909512D01*
X86116010Y-81990208D01*
X86161377Y-82088616D01*
X86164710Y-82093332D01*
X86228416Y-82183474D01*
X86278533Y-82254389D01*
X86423938Y-82396035D01*
X86428742Y-82399245D01*
X86496393Y-82444448D01*
X86592720Y-82508812D01*
X86598023Y-82511090D01*
X86598026Y-82511092D01*
X86754965Y-82578518D01*
X86779228Y-82588942D01*
X86811702Y-82596290D01*
X86971579Y-82632467D01*
X86971584Y-82632468D01*
X86977216Y-82633742D01*
X86982987Y-82633969D01*
X86982989Y-82633969D01*
X87042756Y-82636317D01*
X87180053Y-82641712D01*
X87287341Y-82626156D01*
X87375231Y-82613413D01*
X87375236Y-82613412D01*
X87380945Y-82612584D01*
X87386409Y-82610729D01*
X87386414Y-82610728D01*
X87567693Y-82549192D01*
X87567698Y-82549190D01*
X87573165Y-82547334D01*
X87585490Y-82540432D01*
X87652361Y-82502982D01*
X87750276Y-82448147D01*
X87754724Y-82444448D01*
X87781930Y-82421821D01*
X87847093Y-82393639D01*
X87917149Y-82405162D01*
X87969853Y-82452730D01*
X87988500Y-82518694D01*
X87988500Y-82727865D01*
X87985914Y-82752164D01*
X87985846Y-82753602D01*
X87983655Y-82763780D01*
X87985976Y-82783394D01*
X87987627Y-82797342D01*
X87987979Y-82803320D01*
X87988072Y-82803312D01*
X87988500Y-82808490D01*
X87988500Y-82813692D01*
X87989354Y-82818822D01*
X87991686Y-82832832D01*
X87992522Y-82838704D01*
X87998582Y-82889907D01*
X88002567Y-82898206D01*
X88004078Y-82907283D01*
X88028558Y-82952651D01*
X88031239Y-82957914D01*
X88050127Y-82997250D01*
X88050130Y-82997254D01*
X88053560Y-83004398D01*
X88057170Y-83008692D01*
X88059102Y-83010624D01*
X88060889Y-83012573D01*
X88060918Y-83012626D01*
X88060788Y-83012745D01*
X88061289Y-83013313D01*
X88064388Y-83019057D01*
X88072033Y-83026124D01*
X88104208Y-83055866D01*
X88107774Y-83059296D01*
X88597807Y-83549329D01*
X88631833Y-83611641D01*
X88629045Y-83675788D01*
X88589860Y-83801986D01*
X88577007Y-83843378D01*
X88553148Y-84044964D01*
X88566424Y-84247522D01*
X88567845Y-84253118D01*
X88567846Y-84253123D01*
X88614068Y-84435117D01*
X88616392Y-84444269D01*
X88618809Y-84449512D01*
X88656010Y-84530208D01*
X88701377Y-84628616D01*
X88704710Y-84633332D01*
X88752584Y-84701072D01*
X88818533Y-84794389D01*
X88822675Y-84798424D01*
X88842756Y-84817986D01*
X88963938Y-84936035D01*
X88968742Y-84939245D01*
X89004472Y-84963119D01*
X89132720Y-85048812D01*
X89138023Y-85051090D01*
X89138026Y-85051092D01*
X89313921Y-85126662D01*
X89319228Y-85128942D01*
X89386858Y-85144245D01*
X89511579Y-85172467D01*
X89511584Y-85172468D01*
X89517216Y-85173742D01*
X89522987Y-85173969D01*
X89522989Y-85173969D01*
X89582756Y-85176317D01*
X89720053Y-85181712D01*
X89820499Y-85167148D01*
X89915231Y-85153413D01*
X89915236Y-85153412D01*
X89920945Y-85152584D01*
X89926409Y-85150729D01*
X89926414Y-85150728D01*
X90107693Y-85089192D01*
X90107698Y-85089190D01*
X90113165Y-85087334D01*
X90118553Y-85084317D01*
X90230129Y-85021831D01*
X90290276Y-84988147D01*
X90302595Y-84977902D01*
X90441913Y-84862031D01*
X90446345Y-84858345D01*
X90576147Y-84702276D01*
X90659563Y-84553327D01*
X90672510Y-84530208D01*
X90672511Y-84530206D01*
X90675334Y-84525165D01*
X90677190Y-84519698D01*
X90677192Y-84519693D01*
X90686187Y-84493193D01*
X90727024Y-84435117D01*
X90792777Y-84408338D01*
X90862569Y-84421359D01*
X90914242Y-84470046D01*
X90931500Y-84533694D01*
X90931500Y-91567500D01*
X90911498Y-91635621D01*
X90857842Y-91682114D01*
X90805500Y-91693500D01*
X76256551Y-91693500D01*
X76188430Y-91673498D01*
X76141937Y-91619842D01*
X76131833Y-91549568D01*
X76156589Y-91490795D01*
X76169328Y-91474194D01*
X76169330Y-91474191D01*
X76174355Y-91467642D01*
X76230228Y-91332754D01*
X76249285Y-91188000D01*
X76230228Y-91043246D01*
X76174355Y-90908358D01*
X76108669Y-90822754D01*
X76090501Y-90799077D01*
X76090500Y-90799076D01*
X76085474Y-90792526D01*
X76078924Y-90787500D01*
X76078921Y-90787497D01*
X75976196Y-90708673D01*
X75976194Y-90708672D01*
X75969643Y-90703645D01*
X75834754Y-90647772D01*
X75690000Y-90628715D01*
X75681812Y-90629793D01*
X75553432Y-90646694D01*
X75553430Y-90646695D01*
X75545246Y-90647772D01*
X75521725Y-90657515D01*
X75417986Y-90700485D01*
X75417984Y-90700486D01*
X75410358Y-90703645D01*
X75294526Y-90792526D01*
X75205645Y-90908358D01*
X75149772Y-91043246D01*
X75130715Y-91188000D01*
X75149772Y-91332754D01*
X75205645Y-91467642D01*
X75210670Y-91474191D01*
X75210672Y-91474194D01*
X75223411Y-91490795D01*
X75249012Y-91557015D01*
X75234748Y-91626564D01*
X75185147Y-91677361D01*
X75123449Y-91693500D01*
X57022500Y-91693500D01*
X56954379Y-91673498D01*
X56907886Y-91619842D01*
X56896500Y-91567500D01*
X56896500Y-89610000D01*
X58800715Y-89610000D01*
X58801793Y-89618188D01*
X58817204Y-89735246D01*
X58819772Y-89754754D01*
X58875645Y-89889642D01*
X58880672Y-89896193D01*
X58957566Y-89996403D01*
X58964526Y-90005474D01*
X58971076Y-90010500D01*
X58971079Y-90010503D01*
X59045170Y-90067355D01*
X59080357Y-90094355D01*
X59215246Y-90150228D01*
X59360000Y-90169285D01*
X59368188Y-90168207D01*
X59496566Y-90151306D01*
X59504754Y-90150228D01*
X59540562Y-90135396D01*
X59611150Y-90127807D01*
X59674637Y-90159586D01*
X59710865Y-90220644D01*
X59708331Y-90291595D01*
X59688742Y-90328509D01*
X59635145Y-90398358D01*
X59631986Y-90405984D01*
X59631985Y-90405986D01*
X59618639Y-90438207D01*
X59579272Y-90533246D01*
X59578195Y-90541430D01*
X59578194Y-90541432D01*
X59572205Y-90586923D01*
X59560215Y-90678000D01*
X59579272Y-90822754D01*
X59635145Y-90957642D01*
X59640172Y-90964193D01*
X59707113Y-91051432D01*
X59724026Y-91073474D01*
X59730576Y-91078500D01*
X59730579Y-91078503D01*
X59833304Y-91157327D01*
X59839857Y-91162355D01*
X59974746Y-91218228D01*
X60119500Y-91237285D01*
X60127688Y-91236207D01*
X60256066Y-91219306D01*
X60264254Y-91218228D01*
X60399143Y-91162355D01*
X60405696Y-91157327D01*
X60508421Y-91078503D01*
X60508424Y-91078500D01*
X60514974Y-91073474D01*
X60531888Y-91051432D01*
X60598828Y-90964193D01*
X60603855Y-90957642D01*
X60659728Y-90822754D01*
X60678785Y-90678000D01*
X60666795Y-90586923D01*
X60660806Y-90541432D01*
X60660805Y-90541430D01*
X60659728Y-90533246D01*
X60620361Y-90438207D01*
X60607015Y-90405986D01*
X60607014Y-90405984D01*
X60603855Y-90398358D01*
X60545555Y-90322380D01*
X60520001Y-90289077D01*
X60520000Y-90289076D01*
X60514974Y-90282526D01*
X60508424Y-90277500D01*
X60508421Y-90277497D01*
X60405696Y-90198673D01*
X60405694Y-90198672D01*
X60399143Y-90193645D01*
X60264254Y-90137772D01*
X60246207Y-90135396D01*
X60127688Y-90119793D01*
X60119500Y-90118715D01*
X60111312Y-90119793D01*
X59982932Y-90136694D01*
X59982930Y-90136695D01*
X59974746Y-90137772D01*
X59967117Y-90140932D01*
X59938940Y-90152603D01*
X59868351Y-90160192D01*
X59804864Y-90128413D01*
X59768636Y-90067355D01*
X59771170Y-89996403D01*
X59790759Y-89959490D01*
X59839328Y-89896193D01*
X59844355Y-89889642D01*
X59848349Y-89880000D01*
X64460715Y-89880000D01*
X64461793Y-89888188D01*
X64477234Y-90005474D01*
X64479772Y-90024754D01*
X64482931Y-90032380D01*
X64531746Y-90150228D01*
X64535645Y-90159642D01*
X64624526Y-90275474D01*
X64631076Y-90280500D01*
X64631079Y-90280503D01*
X64733804Y-90359327D01*
X64740357Y-90364355D01*
X64875246Y-90420228D01*
X65020000Y-90439285D01*
X65028188Y-90438207D01*
X65156566Y-90421306D01*
X65164754Y-90420228D01*
X65299643Y-90364355D01*
X65306196Y-90359327D01*
X65408921Y-90280503D01*
X65408924Y-90280500D01*
X65415474Y-90275474D01*
X65504355Y-90159642D01*
X65508255Y-90150228D01*
X65557069Y-90032380D01*
X65560228Y-90024754D01*
X65562767Y-90005474D01*
X65578207Y-89888188D01*
X65579285Y-89880000D01*
X65569948Y-89809077D01*
X65561306Y-89743432D01*
X65561305Y-89743430D01*
X65560228Y-89735246D01*
X65529888Y-89662000D01*
X66496715Y-89662000D01*
X66497793Y-89670188D01*
X66512420Y-89781289D01*
X66515772Y-89806754D01*
X66571645Y-89941642D01*
X66576672Y-89948193D01*
X66635797Y-90025246D01*
X66660526Y-90057474D01*
X66667076Y-90062500D01*
X66667079Y-90062503D01*
X66769804Y-90141327D01*
X66776357Y-90146355D01*
X66911246Y-90202228D01*
X66919434Y-90203306D01*
X66983623Y-90211757D01*
X67056000Y-90221285D01*
X67064188Y-90220207D01*
X67192566Y-90203306D01*
X67200754Y-90202228D01*
X67335643Y-90146355D01*
X67342196Y-90141327D01*
X67444921Y-90062503D01*
X67444924Y-90062500D01*
X67451474Y-90057474D01*
X67476204Y-90025246D01*
X67535328Y-89948193D01*
X67540355Y-89941642D01*
X67561895Y-89889642D01*
X67574591Y-89858990D01*
X67619140Y-89803710D01*
X67686503Y-89781289D01*
X67755294Y-89798847D01*
X67803673Y-89850810D01*
X67807409Y-89858990D01*
X67820106Y-89889642D01*
X67841645Y-89941642D01*
X67846672Y-89948193D01*
X67905797Y-90025246D01*
X67930526Y-90057474D01*
X67937076Y-90062500D01*
X67937079Y-90062503D01*
X68039804Y-90141327D01*
X68046357Y-90146355D01*
X68181246Y-90202228D01*
X68189434Y-90203306D01*
X68253623Y-90211757D01*
X68326000Y-90221285D01*
X68334188Y-90220207D01*
X68462566Y-90203306D01*
X68470754Y-90202228D01*
X68480961Y-90198000D01*
X71576715Y-90198000D01*
X71577793Y-90206188D01*
X71593897Y-90328509D01*
X71595772Y-90342754D01*
X71615578Y-90390570D01*
X71628310Y-90421306D01*
X71651645Y-90477642D01*
X71656672Y-90484193D01*
X71735498Y-90586921D01*
X71740526Y-90593474D01*
X71747076Y-90598500D01*
X71747079Y-90598503D01*
X71849804Y-90677327D01*
X71856357Y-90682355D01*
X71991246Y-90738228D01*
X72136000Y-90757285D01*
X72144188Y-90756207D01*
X72272566Y-90739306D01*
X72280754Y-90738228D01*
X72415643Y-90682355D01*
X72422196Y-90677327D01*
X72524921Y-90598503D01*
X72524924Y-90598500D01*
X72531474Y-90593474D01*
X72539095Y-90583543D01*
X72544038Y-90577101D01*
X72601377Y-90535234D01*
X72672248Y-90531013D01*
X72734150Y-90565778D01*
X72743962Y-90577101D01*
X72748905Y-90583543D01*
X72756526Y-90593474D01*
X72763076Y-90598500D01*
X72763079Y-90598503D01*
X72865804Y-90677327D01*
X72872357Y-90682355D01*
X73007246Y-90738228D01*
X73152000Y-90757285D01*
X73160188Y-90756207D01*
X73288566Y-90739306D01*
X73296754Y-90738228D01*
X73431643Y-90682355D01*
X73438196Y-90677327D01*
X73540921Y-90598503D01*
X73540924Y-90598500D01*
X73547474Y-90593474D01*
X73552503Y-90586921D01*
X73631328Y-90484193D01*
X73636355Y-90477642D01*
X73659691Y-90421306D01*
X73672422Y-90390570D01*
X73692228Y-90342754D01*
X73694104Y-90328509D01*
X73710207Y-90206188D01*
X73711285Y-90198000D01*
X73707599Y-90170000D01*
X77672715Y-90170000D01*
X77673793Y-90178188D01*
X77688392Y-90289077D01*
X77691772Y-90314754D01*
X77694931Y-90322380D01*
X77735908Y-90421306D01*
X77747645Y-90449642D01*
X77752672Y-90456193D01*
X77811797Y-90533246D01*
X77836526Y-90565474D01*
X77843076Y-90570500D01*
X77843079Y-90570503D01*
X77945804Y-90649327D01*
X77952357Y-90654355D01*
X78087246Y-90710228D01*
X78232000Y-90729285D01*
X78240188Y-90728207D01*
X78368566Y-90711306D01*
X78376754Y-90710228D01*
X78511643Y-90654355D01*
X78518196Y-90649327D01*
X78620921Y-90570503D01*
X78620924Y-90570500D01*
X78627474Y-90565474D01*
X78652204Y-90533246D01*
X78711328Y-90456193D01*
X78716355Y-90449642D01*
X78728093Y-90421306D01*
X78769069Y-90322380D01*
X78772228Y-90314754D01*
X78775609Y-90289077D01*
X78790207Y-90178188D01*
X78791285Y-90170000D01*
X78775914Y-90053246D01*
X78773306Y-90033432D01*
X78773305Y-90033430D01*
X78772228Y-90025246D01*
X78716355Y-89890358D01*
X78658055Y-89814380D01*
X78632501Y-89781077D01*
X78632500Y-89781076D01*
X78627474Y-89774526D01*
X78620924Y-89769500D01*
X78620921Y-89769497D01*
X78518196Y-89690673D01*
X78518194Y-89690672D01*
X78511643Y-89685645D01*
X78376754Y-89629772D01*
X78232000Y-89610715D01*
X78223812Y-89611793D01*
X78095432Y-89628694D01*
X78095430Y-89628695D01*
X78087246Y-89629772D01*
X78058896Y-89641515D01*
X77959986Y-89682485D01*
X77959984Y-89682486D01*
X77952358Y-89685645D01*
X77836526Y-89774526D01*
X77831503Y-89781072D01*
X77818900Y-89797497D01*
X77747645Y-89890358D01*
X77691772Y-90025246D01*
X77690695Y-90033430D01*
X77690694Y-90033432D01*
X77688086Y-90053246D01*
X77672715Y-90170000D01*
X73707599Y-90170000D01*
X73706228Y-90159586D01*
X73693306Y-90061432D01*
X73693305Y-90061430D01*
X73692228Y-90053246D01*
X73636355Y-89918358D01*
X73568726Y-89830222D01*
X73552501Y-89809077D01*
X73552500Y-89809076D01*
X73547474Y-89802526D01*
X73540924Y-89797500D01*
X73540921Y-89797497D01*
X73438196Y-89718673D01*
X73438194Y-89718672D01*
X73431643Y-89713645D01*
X73296754Y-89657772D01*
X73266675Y-89653812D01*
X73160188Y-89639793D01*
X73152000Y-89638715D01*
X73143812Y-89639793D01*
X73015432Y-89656694D01*
X73015430Y-89656695D01*
X73007246Y-89657772D01*
X72959430Y-89677578D01*
X72879986Y-89710485D01*
X72879984Y-89710486D01*
X72872358Y-89713645D01*
X72756526Y-89802526D01*
X72751503Y-89809072D01*
X72751502Y-89809073D01*
X72743962Y-89818899D01*
X72686623Y-89860766D01*
X72615752Y-89864987D01*
X72553850Y-89830222D01*
X72544038Y-89818899D01*
X72536502Y-89809079D01*
X72531474Y-89802526D01*
X72524924Y-89797500D01*
X72524921Y-89797497D01*
X72422196Y-89718673D01*
X72422194Y-89718672D01*
X72415643Y-89713645D01*
X72280754Y-89657772D01*
X72250675Y-89653812D01*
X72144188Y-89639793D01*
X72136000Y-89638715D01*
X72127812Y-89639793D01*
X71999432Y-89656694D01*
X71999430Y-89656695D01*
X71991246Y-89657772D01*
X71943430Y-89677578D01*
X71863986Y-89710485D01*
X71863984Y-89710486D01*
X71856358Y-89713645D01*
X71740526Y-89802526D01*
X71651645Y-89918358D01*
X71595772Y-90053246D01*
X71594695Y-90061430D01*
X71594694Y-90061432D01*
X71581772Y-90159586D01*
X71576715Y-90198000D01*
X68480961Y-90198000D01*
X68605643Y-90146355D01*
X68612196Y-90141327D01*
X68714921Y-90062503D01*
X68714924Y-90062500D01*
X68721474Y-90057474D01*
X68746204Y-90025246D01*
X68805328Y-89948193D01*
X68810355Y-89941642D01*
X68866228Y-89806754D01*
X68869581Y-89781289D01*
X68884207Y-89670188D01*
X68885285Y-89662000D01*
X68870471Y-89549474D01*
X68867306Y-89525432D01*
X68867305Y-89525430D01*
X68866228Y-89517246D01*
X68828438Y-89426014D01*
X68813515Y-89389986D01*
X68813514Y-89389984D01*
X68810355Y-89382358D01*
X68752055Y-89306380D01*
X68726501Y-89273077D01*
X68726500Y-89273076D01*
X68721474Y-89266526D01*
X68714924Y-89261500D01*
X68714921Y-89261497D01*
X68612196Y-89182673D01*
X68612194Y-89182672D01*
X68605643Y-89177645D01*
X68548559Y-89154000D01*
X69290715Y-89154000D01*
X69291793Y-89162188D01*
X69306392Y-89273077D01*
X69309772Y-89298754D01*
X69312931Y-89306380D01*
X69351989Y-89400673D01*
X69365645Y-89433642D01*
X69370672Y-89440193D01*
X69449337Y-89542711D01*
X69454526Y-89549474D01*
X69461076Y-89554500D01*
X69461079Y-89554503D01*
X69563804Y-89633327D01*
X69570357Y-89638355D01*
X69705246Y-89694228D01*
X69850000Y-89713285D01*
X69858188Y-89712207D01*
X69986566Y-89695306D01*
X69994754Y-89694228D01*
X70129643Y-89638355D01*
X70136196Y-89633327D01*
X70238921Y-89554503D01*
X70238924Y-89554500D01*
X70245474Y-89549474D01*
X70250664Y-89542711D01*
X70329328Y-89440193D01*
X70334355Y-89433642D01*
X70348012Y-89400673D01*
X70387069Y-89306380D01*
X70390228Y-89298754D01*
X70393609Y-89273077D01*
X70408207Y-89162188D01*
X70409285Y-89154000D01*
X70398196Y-89069772D01*
X70391306Y-89017432D01*
X70391305Y-89017430D01*
X70390228Y-89009246D01*
X70334355Y-88874358D01*
X70245474Y-88758526D01*
X70238924Y-88753500D01*
X70238921Y-88753497D01*
X70136196Y-88674673D01*
X70136194Y-88674672D01*
X70129643Y-88669645D01*
X69994754Y-88613772D01*
X69850000Y-88594715D01*
X69841812Y-88595793D01*
X69713432Y-88612694D01*
X69713430Y-88612695D01*
X69705246Y-88613772D01*
X69657430Y-88633578D01*
X69577986Y-88666485D01*
X69577984Y-88666486D01*
X69570358Y-88669645D01*
X69454526Y-88758526D01*
X69365645Y-88874358D01*
X69309772Y-89009246D01*
X69308695Y-89017430D01*
X69308694Y-89017432D01*
X69301804Y-89069772D01*
X69290715Y-89154000D01*
X68548559Y-89154000D01*
X68470754Y-89121772D01*
X68326000Y-89102715D01*
X68317812Y-89103793D01*
X68189432Y-89120694D01*
X68189430Y-89120695D01*
X68181246Y-89121772D01*
X68133430Y-89141578D01*
X68053986Y-89174485D01*
X68053984Y-89174486D01*
X68046358Y-89177645D01*
X67930526Y-89266526D01*
X67841645Y-89382358D01*
X67838486Y-89389984D01*
X67838485Y-89389986D01*
X67807409Y-89465010D01*
X67762860Y-89520290D01*
X67695497Y-89542711D01*
X67626706Y-89525153D01*
X67578327Y-89473190D01*
X67574591Y-89465010D01*
X67543515Y-89389986D01*
X67543514Y-89389984D01*
X67540355Y-89382358D01*
X67482055Y-89306380D01*
X67456501Y-89273077D01*
X67456500Y-89273076D01*
X67451474Y-89266526D01*
X67444924Y-89261500D01*
X67444921Y-89261497D01*
X67342196Y-89182673D01*
X67342194Y-89182672D01*
X67335643Y-89177645D01*
X67200754Y-89121772D01*
X67056000Y-89102715D01*
X67047812Y-89103793D01*
X66919432Y-89120694D01*
X66919430Y-89120695D01*
X66911246Y-89121772D01*
X66863430Y-89141578D01*
X66783986Y-89174485D01*
X66783984Y-89174486D01*
X66776358Y-89177645D01*
X66660526Y-89266526D01*
X66571645Y-89382358D01*
X66568486Y-89389984D01*
X66568485Y-89389986D01*
X66553562Y-89426014D01*
X66515772Y-89517246D01*
X66514695Y-89525430D01*
X66514694Y-89525432D01*
X66511529Y-89549474D01*
X66496715Y-89662000D01*
X65529888Y-89662000D01*
X65529446Y-89660932D01*
X65507515Y-89607986D01*
X65507514Y-89607984D01*
X65504355Y-89600358D01*
X65415474Y-89484526D01*
X65408924Y-89479500D01*
X65408921Y-89479497D01*
X65306196Y-89400673D01*
X65306194Y-89400672D01*
X65299643Y-89395645D01*
X65164754Y-89339772D01*
X65020000Y-89320715D01*
X65011812Y-89321793D01*
X64883432Y-89338694D01*
X64883430Y-89338695D01*
X64875246Y-89339772D01*
X64827430Y-89359578D01*
X64747986Y-89392485D01*
X64747984Y-89392486D01*
X64740358Y-89395645D01*
X64624526Y-89484526D01*
X64535645Y-89600358D01*
X64532486Y-89607984D01*
X64532485Y-89607986D01*
X64510554Y-89660932D01*
X64479772Y-89735246D01*
X64478695Y-89743430D01*
X64478694Y-89743432D01*
X64470052Y-89809077D01*
X64460715Y-89880000D01*
X59848349Y-89880000D01*
X59900228Y-89754754D01*
X59902797Y-89735246D01*
X59918207Y-89618188D01*
X59919285Y-89610000D01*
X59903628Y-89491072D01*
X59901306Y-89473432D01*
X59901305Y-89473430D01*
X59900228Y-89465246D01*
X59863181Y-89375807D01*
X59847515Y-89337986D01*
X59847514Y-89337984D01*
X59844355Y-89330358D01*
X59755474Y-89214526D01*
X59748924Y-89209500D01*
X59748921Y-89209497D01*
X59646196Y-89130673D01*
X59646194Y-89130672D01*
X59639643Y-89125645D01*
X59504754Y-89069772D01*
X59360000Y-89050715D01*
X59351812Y-89051793D01*
X59223432Y-89068694D01*
X59223430Y-89068695D01*
X59215246Y-89069772D01*
X59167430Y-89089578D01*
X59087986Y-89122485D01*
X59087984Y-89122486D01*
X59080358Y-89125645D01*
X58964526Y-89214526D01*
X58875645Y-89330358D01*
X58872486Y-89337984D01*
X58872485Y-89337986D01*
X58856819Y-89375807D01*
X58819772Y-89465246D01*
X58818695Y-89473430D01*
X58818694Y-89473432D01*
X58816372Y-89491072D01*
X58800715Y-89610000D01*
X56896500Y-89610000D01*
X56896500Y-86999145D01*
X61851391Y-86999145D01*
X61881420Y-87148071D01*
X61885320Y-87155725D01*
X61946492Y-87275783D01*
X61946494Y-87275786D01*
X61950392Y-87283436D01*
X61956205Y-87289757D01*
X61956206Y-87289759D01*
X62042963Y-87384105D01*
X62053226Y-87395266D01*
X62060521Y-87399789D01*
X62060522Y-87399790D01*
X62175044Y-87470797D01*
X62182344Y-87475323D01*
X62328235Y-87517709D01*
X62339007Y-87518500D01*
X62448057Y-87518500D01*
X62452303Y-87517918D01*
X62452309Y-87517918D01*
X62531054Y-87507131D01*
X62560518Y-87503095D01*
X62619158Y-87477719D01*
X62692064Y-87446169D01*
X62692065Y-87446169D01*
X62699946Y-87442758D01*
X62750240Y-87402031D01*
X62811339Y-87352555D01*
X62811341Y-87352553D01*
X62818013Y-87347150D01*
X62824215Y-87338424D01*
X62901044Y-87230315D01*
X62901044Y-87230314D01*
X62906020Y-87223313D01*
X62957482Y-87080371D01*
X62958229Y-87070208D01*
X62964154Y-86989512D01*
X62968609Y-86928855D01*
X62947632Y-86824820D01*
X78561715Y-86824820D01*
X78562793Y-86833008D01*
X78576539Y-86937418D01*
X78580772Y-86969574D01*
X78586859Y-86984269D01*
X78630013Y-87088450D01*
X78636645Y-87104462D01*
X78725526Y-87220294D01*
X78732076Y-87225320D01*
X78732079Y-87225323D01*
X78834804Y-87304147D01*
X78841357Y-87309175D01*
X78976246Y-87365048D01*
X79121000Y-87384105D01*
X79129188Y-87383027D01*
X79257566Y-87366126D01*
X79265754Y-87365048D01*
X79400643Y-87309175D01*
X79407196Y-87304147D01*
X79509921Y-87225323D01*
X79509924Y-87225320D01*
X79516474Y-87220294D01*
X79605355Y-87104462D01*
X79611988Y-87088450D01*
X79655141Y-86984269D01*
X79661228Y-86969574D01*
X79665462Y-86937418D01*
X79679207Y-86833008D01*
X79680285Y-86824820D01*
X79675375Y-86787522D01*
X79662306Y-86688252D01*
X79662305Y-86688250D01*
X79661228Y-86680066D01*
X79632332Y-86610305D01*
X79608515Y-86552806D01*
X79608514Y-86552804D01*
X79605355Y-86545178D01*
X79560914Y-86487262D01*
X79521501Y-86435897D01*
X79521500Y-86435896D01*
X79516474Y-86429346D01*
X79509924Y-86424320D01*
X79509921Y-86424317D01*
X79407196Y-86345493D01*
X79407194Y-86345492D01*
X79400643Y-86340465D01*
X79265754Y-86284592D01*
X79121000Y-86265535D01*
X79112812Y-86266613D01*
X78984432Y-86283514D01*
X78984430Y-86283515D01*
X78976246Y-86284592D01*
X78928430Y-86304398D01*
X78848986Y-86337305D01*
X78848984Y-86337306D01*
X78841358Y-86340465D01*
X78792623Y-86377861D01*
X78748316Y-86411859D01*
X78725526Y-86429346D01*
X78636645Y-86545178D01*
X78633486Y-86552804D01*
X78633485Y-86552806D01*
X78609668Y-86610305D01*
X78580772Y-86680066D01*
X78579695Y-86688250D01*
X78579694Y-86688252D01*
X78566625Y-86787522D01*
X78561715Y-86824820D01*
X62947632Y-86824820D01*
X62938580Y-86779929D01*
X62904361Y-86712770D01*
X62873508Y-86652217D01*
X62873506Y-86652214D01*
X62869608Y-86644564D01*
X62817457Y-86587850D01*
X62772584Y-86539052D01*
X62772583Y-86539051D01*
X62766774Y-86532734D01*
X62698894Y-86490646D01*
X62644956Y-86457203D01*
X62644955Y-86457202D01*
X62637656Y-86452677D01*
X62491765Y-86410291D01*
X62480993Y-86409500D01*
X62371943Y-86409500D01*
X62367697Y-86410082D01*
X62367691Y-86410082D01*
X62288946Y-86420869D01*
X62259482Y-86424905D01*
X62251598Y-86428317D01*
X62251597Y-86428317D01*
X62195306Y-86452677D01*
X62120054Y-86485242D01*
X62113381Y-86490646D01*
X62008661Y-86575445D01*
X62008659Y-86575447D01*
X62001987Y-86580850D01*
X61997013Y-86587849D01*
X61997012Y-86587850D01*
X61981054Y-86610305D01*
X61913980Y-86704687D01*
X61862518Y-86847629D01*
X61851391Y-86999145D01*
X56896500Y-86999145D01*
X56896500Y-81788000D01*
X67258715Y-81788000D01*
X67259793Y-81796188D01*
X67276651Y-81924237D01*
X67277772Y-81932754D01*
X67280931Y-81940380D01*
X67324521Y-82045614D01*
X67333645Y-82067642D01*
X67366376Y-82110298D01*
X67414013Y-82172379D01*
X67422526Y-82183474D01*
X67429076Y-82188500D01*
X67429079Y-82188503D01*
X67531804Y-82267327D01*
X67538357Y-82272355D01*
X67673246Y-82328228D01*
X67818000Y-82347285D01*
X67826188Y-82346207D01*
X67954566Y-82329306D01*
X67962754Y-82328228D01*
X68097643Y-82272355D01*
X68104196Y-82267327D01*
X68206921Y-82188503D01*
X68206924Y-82188500D01*
X68213474Y-82183474D01*
X68221988Y-82172379D01*
X68269624Y-82110298D01*
X68302355Y-82067642D01*
X68311480Y-82045614D01*
X68355069Y-81940380D01*
X68358228Y-81932754D01*
X68359350Y-81924237D01*
X68376207Y-81796188D01*
X68377285Y-81788000D01*
X68368291Y-81719683D01*
X68359306Y-81651432D01*
X68359305Y-81651430D01*
X68358228Y-81643246D01*
X68314511Y-81537704D01*
X68305515Y-81515986D01*
X68305514Y-81515984D01*
X68302355Y-81508358D01*
X68213474Y-81392526D01*
X68206924Y-81387500D01*
X68206921Y-81387497D01*
X68104196Y-81308673D01*
X68104194Y-81308672D01*
X68097643Y-81303645D01*
X67962754Y-81247772D01*
X67818000Y-81228715D01*
X67809812Y-81229793D01*
X67681432Y-81246694D01*
X67681430Y-81246695D01*
X67673246Y-81247772D01*
X67657346Y-81254358D01*
X67545986Y-81300485D01*
X67545984Y-81300486D01*
X67538358Y-81303645D01*
X67422526Y-81392526D01*
X67333645Y-81508358D01*
X67330486Y-81515984D01*
X67330485Y-81515986D01*
X67321489Y-81537704D01*
X67277772Y-81643246D01*
X67276695Y-81651430D01*
X67276694Y-81651432D01*
X67267709Y-81719683D01*
X67258715Y-81788000D01*
X56896500Y-81788000D01*
X56896500Y-81219145D01*
X61851391Y-81219145D01*
X61881420Y-81368071D01*
X61885320Y-81375725D01*
X61946492Y-81495783D01*
X61946494Y-81495786D01*
X61950392Y-81503436D01*
X61956205Y-81509757D01*
X61956206Y-81509759D01*
X62031880Y-81592053D01*
X62053226Y-81615266D01*
X62060521Y-81619789D01*
X62060522Y-81619790D01*
X62142418Y-81670568D01*
X62182344Y-81695323D01*
X62328235Y-81737709D01*
X62339007Y-81738500D01*
X62448057Y-81738500D01*
X62452303Y-81737918D01*
X62452309Y-81737918D01*
X62531054Y-81727131D01*
X62560518Y-81723095D01*
X62596505Y-81707522D01*
X62692064Y-81666169D01*
X62692065Y-81666169D01*
X62699946Y-81662758D01*
X62747909Y-81623919D01*
X62811339Y-81572555D01*
X62811341Y-81572553D01*
X62818013Y-81567150D01*
X62838940Y-81537704D01*
X62901044Y-81450315D01*
X62901044Y-81450314D01*
X62906020Y-81443313D01*
X62957482Y-81300371D01*
X62968609Y-81148855D01*
X62938580Y-80999929D01*
X62913285Y-80950285D01*
X62873508Y-80872217D01*
X62873506Y-80872214D01*
X62869608Y-80864564D01*
X62817457Y-80807850D01*
X62772584Y-80759052D01*
X62772583Y-80759051D01*
X62766774Y-80752734D01*
X62747632Y-80740865D01*
X62644956Y-80677203D01*
X62644955Y-80677202D01*
X62637656Y-80672677D01*
X62491765Y-80630291D01*
X62480993Y-80629500D01*
X62371943Y-80629500D01*
X62367697Y-80630082D01*
X62367691Y-80630082D01*
X62288946Y-80640869D01*
X62259482Y-80644905D01*
X62251598Y-80648317D01*
X62251597Y-80648317D01*
X62158575Y-80688572D01*
X62120054Y-80705242D01*
X62101350Y-80720388D01*
X62008661Y-80795445D01*
X62008659Y-80795447D01*
X62001987Y-80800850D01*
X61997013Y-80807849D01*
X61997012Y-80807850D01*
X61918956Y-80917685D01*
X61913980Y-80924687D01*
X61862518Y-81067629D01*
X61861889Y-81076189D01*
X61861889Y-81076191D01*
X61858298Y-81125091D01*
X61851391Y-81219145D01*
X56896500Y-81219145D01*
X56896500Y-79438500D01*
X65099715Y-79438500D01*
X65100793Y-79446688D01*
X65117478Y-79573423D01*
X65118772Y-79583254D01*
X65174645Y-79718142D01*
X65263526Y-79833974D01*
X65270076Y-79839000D01*
X65270079Y-79839003D01*
X65372804Y-79917827D01*
X65379357Y-79922855D01*
X65514246Y-79978728D01*
X65659000Y-79997785D01*
X65667188Y-79996707D01*
X65795566Y-79979806D01*
X65803754Y-79978728D01*
X65938643Y-79922855D01*
X65945196Y-79917827D01*
X66047921Y-79839003D01*
X66047924Y-79839000D01*
X66054474Y-79833974D01*
X66143355Y-79718142D01*
X66172101Y-79648744D01*
X66216649Y-79593463D01*
X66284013Y-79571042D01*
X66352804Y-79588600D01*
X66365214Y-79597000D01*
X66391580Y-79617231D01*
X66458857Y-79668855D01*
X66593746Y-79724728D01*
X66738500Y-79743785D01*
X66746688Y-79742707D01*
X66875066Y-79725806D01*
X66883254Y-79724728D01*
X67018143Y-79668855D01*
X67044352Y-79648744D01*
X67127421Y-79585003D01*
X67127424Y-79585000D01*
X67133974Y-79579974D01*
X67142746Y-79568543D01*
X67217828Y-79470693D01*
X67222855Y-79464142D01*
X67230150Y-79446532D01*
X67275569Y-79336880D01*
X67278728Y-79329254D01*
X67285364Y-79278853D01*
X67296707Y-79192688D01*
X67297785Y-79184500D01*
X67290579Y-79129761D01*
X67279806Y-79047932D01*
X67279805Y-79047930D01*
X67278728Y-79039746D01*
X67247467Y-78964275D01*
X67226015Y-78912486D01*
X67226014Y-78912484D01*
X67222855Y-78904858D01*
X67178074Y-78846498D01*
X67139001Y-78795577D01*
X67139000Y-78795576D01*
X67133974Y-78789026D01*
X67127424Y-78784000D01*
X67127421Y-78783997D01*
X67024696Y-78705173D01*
X67024694Y-78705172D01*
X67018143Y-78700145D01*
X66883254Y-78644272D01*
X66838553Y-78638387D01*
X66746688Y-78626293D01*
X66738500Y-78625215D01*
X66730312Y-78626293D01*
X66601932Y-78643194D01*
X66601930Y-78643195D01*
X66593746Y-78644272D01*
X66545930Y-78664078D01*
X66466486Y-78696985D01*
X66466484Y-78696986D01*
X66458858Y-78700145D01*
X66343026Y-78789026D01*
X66254145Y-78904858D01*
X66250984Y-78912488D01*
X66250984Y-78912489D01*
X66225399Y-78974256D01*
X66180851Y-79029537D01*
X66113487Y-79051958D01*
X66044696Y-79034400D01*
X66032286Y-79026000D01*
X65994649Y-78997120D01*
X65938643Y-78954145D01*
X65803754Y-78898272D01*
X65659000Y-78879215D01*
X65650812Y-78880293D01*
X65522432Y-78897194D01*
X65522430Y-78897195D01*
X65514246Y-78898272D01*
X65466430Y-78918078D01*
X65386986Y-78950985D01*
X65386984Y-78950986D01*
X65379358Y-78954145D01*
X65263526Y-79043026D01*
X65174645Y-79158858D01*
X65171486Y-79166484D01*
X65171485Y-79166486D01*
X65144476Y-79231692D01*
X65118772Y-79293746D01*
X65117695Y-79301930D01*
X65117694Y-79301932D01*
X65108797Y-79369512D01*
X65099715Y-79438500D01*
X56896500Y-79438500D01*
X56896500Y-77470000D01*
X58876715Y-77470000D01*
X58877793Y-77478188D01*
X58887845Y-77554539D01*
X58895772Y-77614754D01*
X58901508Y-77628602D01*
X58947508Y-77739654D01*
X58951645Y-77749642D01*
X58956672Y-77756193D01*
X59035498Y-77858921D01*
X59040526Y-77865474D01*
X59047076Y-77870500D01*
X59047079Y-77870503D01*
X59149804Y-77949327D01*
X59156357Y-77954355D01*
X59291246Y-78010228D01*
X59436000Y-78029285D01*
X59444188Y-78028207D01*
X59572566Y-78011306D01*
X59580754Y-78010228D01*
X59715643Y-77954355D01*
X59722196Y-77949327D01*
X59824921Y-77870503D01*
X59824924Y-77870500D01*
X59831474Y-77865474D01*
X59836503Y-77858921D01*
X59915328Y-77756193D01*
X59920355Y-77749642D01*
X59924493Y-77739654D01*
X59970492Y-77628602D01*
X59976228Y-77614754D01*
X59984156Y-77554539D01*
X59994207Y-77478188D01*
X59995285Y-77470000D01*
X59979791Y-77352309D01*
X59977306Y-77333432D01*
X59977305Y-77333430D01*
X59976228Y-77325246D01*
X59942782Y-77244501D01*
X59923515Y-77197986D01*
X59923514Y-77197984D01*
X59920355Y-77190358D01*
X59831474Y-77074526D01*
X59824924Y-77069500D01*
X59824921Y-77069497D01*
X59722196Y-76990673D01*
X59722194Y-76990672D01*
X59715643Y-76985645D01*
X59580754Y-76929772D01*
X59436000Y-76910715D01*
X59412255Y-76913841D01*
X59299432Y-76928694D01*
X59299430Y-76928695D01*
X59291246Y-76929772D01*
X59244222Y-76949250D01*
X59163986Y-76982485D01*
X59163984Y-76982486D01*
X59156358Y-76985645D01*
X59040526Y-77074526D01*
X58951645Y-77190358D01*
X58948486Y-77197984D01*
X58948485Y-77197986D01*
X58929218Y-77244501D01*
X58895772Y-77325246D01*
X58894695Y-77333430D01*
X58894694Y-77333432D01*
X58892209Y-77352309D01*
X58876715Y-77470000D01*
X56896500Y-77470000D01*
X56896500Y-76326500D01*
X56916502Y-76258379D01*
X56970158Y-76211886D01*
X57022500Y-76200500D01*
X90805500Y-76200500D01*
X90873621Y-76220502D01*
G37*
%TD.AperFunction*%
%TA.AperFunction,Conductor*%
G36*
X78957949Y-80921502D02*
G01*
X78978923Y-80938405D01*
X80030725Y-81990208D01*
X81081996Y-83041479D01*
X81097355Y-83060495D01*
X81098321Y-83061556D01*
X81103969Y-83070304D01*
X81112146Y-83076750D01*
X81130512Y-83091229D01*
X81134990Y-83095208D01*
X81135050Y-83095137D01*
X81139007Y-83098490D01*
X81142688Y-83102171D01*
X81146920Y-83105195D01*
X81146922Y-83105197D01*
X81158497Y-83113469D01*
X81163242Y-83117032D01*
X81203710Y-83148934D01*
X81201174Y-83152151D01*
X81236832Y-83187979D01*
X81251759Y-83257388D01*
X81225052Y-83326108D01*
X81111720Y-83469869D01*
X81109031Y-83474980D01*
X81109029Y-83474983D01*
X81096073Y-83499609D01*
X81017203Y-83649515D01*
X80957007Y-83843378D01*
X80933148Y-84044964D01*
X80946424Y-84247522D01*
X80947845Y-84253118D01*
X80947846Y-84253123D01*
X80994068Y-84435117D01*
X80996392Y-84444269D01*
X80998809Y-84449512D01*
X81036010Y-84530208D01*
X81081377Y-84628616D01*
X81084710Y-84633332D01*
X81174074Y-84759780D01*
X81197055Y-84826954D01*
X81180070Y-84895889D01*
X81128513Y-84944699D01*
X81071177Y-84958500D01*
X77041213Y-84958500D01*
X76973092Y-84938498D01*
X76952117Y-84921595D01*
X76411524Y-84381001D01*
X76377499Y-84318689D01*
X76375698Y-84308352D01*
X76360306Y-84191432D01*
X76360305Y-84191430D01*
X76359228Y-84183246D01*
X76315511Y-84077704D01*
X76306515Y-84055986D01*
X76306514Y-84055984D01*
X76303355Y-84048358D01*
X76262443Y-83995040D01*
X76236843Y-83928819D01*
X76251108Y-83859270D01*
X76298044Y-83810629D01*
X76301843Y-83809055D01*
X76308396Y-83804027D01*
X76411121Y-83725203D01*
X76411124Y-83725200D01*
X76417674Y-83720174D01*
X76506555Y-83604342D01*
X76510561Y-83594672D01*
X76559269Y-83477080D01*
X76562428Y-83469454D01*
X76566315Y-83439934D01*
X76580407Y-83332888D01*
X76581485Y-83324700D01*
X76566920Y-83214068D01*
X76563506Y-83188132D01*
X76563505Y-83188130D01*
X76562428Y-83179946D01*
X76520128Y-83077826D01*
X76509715Y-83052686D01*
X76509714Y-83052684D01*
X76506555Y-83045058D01*
X76437640Y-82955246D01*
X76422701Y-82935777D01*
X76422700Y-82935776D01*
X76417674Y-82929226D01*
X76411124Y-82924200D01*
X76411121Y-82924197D01*
X76308396Y-82845373D01*
X76308394Y-82845372D01*
X76301843Y-82840345D01*
X76166954Y-82784472D01*
X76022200Y-82765415D01*
X76014012Y-82766493D01*
X75885632Y-82783394D01*
X75885630Y-82783395D01*
X75877446Y-82784472D01*
X75747717Y-82838208D01*
X75677128Y-82845797D01*
X75613641Y-82814018D01*
X75577413Y-82752960D01*
X75573499Y-82721799D01*
X75573499Y-81761105D01*
X75583090Y-81712887D01*
X75594068Y-81686383D01*
X75594068Y-81686382D01*
X75597228Y-81678754D01*
X75600046Y-81657354D01*
X75615207Y-81542188D01*
X75616285Y-81534000D01*
X75600777Y-81416200D01*
X75598306Y-81397432D01*
X75598305Y-81397430D01*
X75597228Y-81389246D01*
X75560462Y-81300485D01*
X75544515Y-81261986D01*
X75544514Y-81261984D01*
X75541355Y-81254358D01*
X75492347Y-81190490D01*
X75457501Y-81145077D01*
X75457500Y-81145076D01*
X75452474Y-81138526D01*
X75438053Y-81127460D01*
X75396188Y-81070125D01*
X75391966Y-80999254D01*
X75426730Y-80937351D01*
X75489442Y-80904070D01*
X75514759Y-80901500D01*
X78889828Y-80901500D01*
X78957949Y-80921502D01*
G37*
%TD.AperFunction*%
%TD*%
M02*
