%TF.GenerationSoftware,KiCad,Pcbnew,5.1.10-88a1d61d58~89~ubuntu21.04.1*%
%TF.CreationDate,2021-07-10T21:48:55+08:00*%
%TF.ProjectId,ST_Link_V2.1,53545f4c-696e-46b5-9f56-322e312e6b69,rev?*%
%TF.SameCoordinates,Original*%
%TF.FileFunction,Copper,L2,Inr*%
%TF.FilePolarity,Positive*%
%FSLAX46Y46*%
G04 Gerber Fmt 4.6, Leading zero omitted, Abs format (unit mm)*
G04 Created by KiCad (PCBNEW 5.1.10-88a1d61d58~89~ubuntu21.04.1) date 2021-07-10 21:48:55*
%MOMM*%
%LPD*%
G01*
G04 APERTURE LIST*
%TA.AperFunction,ComponentPad*%
%ADD10O,1.700000X1.700000*%
%TD*%
%TA.AperFunction,ComponentPad*%
%ADD11R,1.700000X1.700000*%
%TD*%
%TA.AperFunction,ComponentPad*%
%ADD12O,1.700000X0.900000*%
%TD*%
%TA.AperFunction,ComponentPad*%
%ADD13O,2.000000X0.900000*%
%TD*%
%TA.AperFunction,ViaPad*%
%ADD14C,0.600000*%
%TD*%
%TA.AperFunction,Conductor*%
%ADD15C,0.254000*%
%TD*%
%TA.AperFunction,Conductor*%
%ADD16C,0.600000*%
%TD*%
%TA.AperFunction,Conductor*%
%ADD17C,0.100000*%
%TD*%
G04 APERTURE END LIST*
D10*
%TO.N,GND*%
%TO.C,J2*%
X89662000Y-86614000D03*
%TO.N,/MCU_SWCLK*%
X89662000Y-84074000D03*
D11*
%TO.N,/MCU_SWDIO*%
X89662000Y-81534000D03*
%TD*%
D10*
%TO.N,+3.3VA*%
%TO.C,J3*%
X87122000Y-81534000D03*
%TO.N,+5V*%
X87122000Y-78994000D03*
%TO.N,/SWDIO*%
X87122000Y-84074000D03*
%TO.N,GND*%
X87122000Y-89154000D03*
%TO.N,/SWCLK*%
X87122000Y-86614000D03*
D11*
%TO.N,+5V*%
X82042000Y-78994000D03*
D10*
%TO.N,+3.3VA*%
X82042000Y-81534000D03*
%TO.N,/TX*%
X82042000Y-84074000D03*
%TO.N,/RX*%
X82042000Y-86614000D03*
%TO.N,GND*%
X82042000Y-89154000D03*
%TO.N,+5V*%
X84582000Y-78994000D03*
%TO.N,+3.3VA*%
X84582000Y-81534000D03*
%TO.N,/SWIN*%
X84582000Y-84074000D03*
%TO.N,/RESET*%
X84582000Y-86614000D03*
%TO.N,GND*%
X84582000Y-89154000D03*
%TD*%
D12*
%TO.N,GND*%
%TO.C,J1*%
X58720000Y-88394000D03*
X58720000Y-79754000D03*
D13*
X62890000Y-88394000D03*
X62890000Y-79754000D03*
%TD*%
D14*
%TO.N,GND*%
X73533000Y-86487000D03*
X74041000Y-84709000D03*
X73660000Y-83058000D03*
X70866000Y-83439000D03*
X70866000Y-78232000D03*
X61976000Y-84963000D03*
%TO.N,/OSC_IN*%
X72136000Y-90198000D03*
%TO.N,/OSC_OUT*%
X73152000Y-90198000D03*
%TO.N,+3V3*%
X68326000Y-89662000D03*
X72644000Y-78486000D03*
X78994000Y-77343000D03*
X66738500Y-79184500D03*
X75690000Y-91188000D03*
%TO.N,+5V*%
X60119500Y-90678000D03*
%TO.N,Net-(C11-Pad1)*%
X65659000Y-79438500D03*
%TO.N,Net-(D1-Pad2)*%
X73660000Y-77470000D03*
%TO.N,Net-(D2-Pad1)*%
X74676000Y-77470000D03*
%TO.N,Net-(D3-Pad2)*%
X72644000Y-77470000D03*
%TO.N,Net-(D4-Pad1)*%
X76708000Y-77470000D03*
%TO.N,Net-(D5-Pad1)*%
X75692000Y-77470000D03*
%TO.N,Net-(F1-Pad2)*%
X58293000Y-90678000D03*
%TO.N,/MCU_SWCLK*%
X69342000Y-80391000D03*
%TO.N,/MCU_SWDIO*%
X71755000Y-78486000D03*
%TO.N,/RX*%
X79121000Y-86824820D03*
%TO.N,/RESET*%
X75819000Y-84328000D03*
%TO.N,/SWIN*%
X73914000Y-81788000D03*
%TO.N,/SWCLK*%
X75819000Y-85598000D03*
X75057000Y-81534000D03*
%TO.N,/SWDIO*%
X74422000Y-82677000D03*
%TO.N,Net-(Q1-Pad2)*%
X67056000Y-84074000D03*
%TO.N,Net-(Q1-Pad1)*%
X65278000Y-90678000D03*
%TO.N,/MCU_USB_D-*%
X73025000Y-82423000D03*
X67056000Y-83058000D03*
%TO.N,/MCU_USB_D+*%
X72390000Y-81788000D03*
X67056000Y-85090000D03*
%TO.N,/MCU_USB_RENUM*%
X67056000Y-89662000D03*
X67818000Y-81788000D03*
%TO.N,/LED_LINK*%
X73660000Y-78486000D03*
%TO.N,/BOOT0*%
X71374000Y-84074000D03*
X69850000Y-89154000D03*
%TO.N,/BOOT1*%
X78232000Y-90170000D03*
X76022200Y-83324700D03*
%TO.N,+3.3VA*%
X59436000Y-77470000D03*
%TD*%
D15*
%TO.N,/SWCLK*%
X85806001Y-85298001D02*
X87122000Y-86614000D01*
X76118999Y-85298001D02*
X85806001Y-85298001D01*
X75819000Y-85598000D02*
X76118999Y-85298001D01*
%TO.N,/SWDIO*%
X76302462Y-82677000D02*
X74422000Y-82677000D01*
X76522461Y-82896999D02*
X76302462Y-82677000D01*
X85944999Y-82896999D02*
X76522461Y-82896999D01*
X87122000Y-84074000D02*
X85944999Y-82896999D01*
%TO.N,/MCU_USB_RENUM*%
X67818000Y-88900000D02*
X67056000Y-89662000D01*
X67818000Y-81788000D02*
X67818000Y-88900000D01*
%TO.N,/BOOT0*%
X71374000Y-87630000D02*
X69850000Y-89154000D01*
X71374000Y-84074000D02*
X71374000Y-87630000D01*
D16*
%TO.N,+3.3VA*%
X87122000Y-81534000D02*
X82042000Y-81534000D01*
X60236001Y-76669999D02*
X59436000Y-77470000D01*
X77177999Y-76669999D02*
X60236001Y-76669999D01*
X82042000Y-81534000D02*
X77177999Y-76669999D01*
%TD*%
D15*
%TO.N,GND*%
X59001891Y-76941031D02*
X59001888Y-76941033D01*
X58907033Y-77035888D01*
X58888349Y-77063850D01*
X58867031Y-77089827D01*
X58851190Y-77119464D01*
X58832506Y-77147426D01*
X58819638Y-77178492D01*
X58803795Y-77208132D01*
X58794038Y-77240296D01*
X58781171Y-77271360D01*
X58774611Y-77304337D01*
X58764854Y-77336502D01*
X58761559Y-77369952D01*
X58755000Y-77402927D01*
X58755000Y-77436547D01*
X58751705Y-77470000D01*
X58755000Y-77503453D01*
X58755000Y-77537073D01*
X58761559Y-77570048D01*
X58764854Y-77603498D01*
X58774611Y-77635663D01*
X58781171Y-77668640D01*
X58794038Y-77699704D01*
X58803795Y-77731868D01*
X58819638Y-77761508D01*
X58832506Y-77792574D01*
X58851190Y-77820536D01*
X58867031Y-77850173D01*
X58888349Y-77876150D01*
X58907033Y-77904112D01*
X58930810Y-77927889D01*
X58952131Y-77953869D01*
X58978111Y-77975190D01*
X59001888Y-77998967D01*
X59029850Y-78017651D01*
X59055827Y-78038969D01*
X59085464Y-78054810D01*
X59113426Y-78073494D01*
X59144492Y-78086362D01*
X59174132Y-78102205D01*
X59206296Y-78111962D01*
X59237360Y-78124829D01*
X59270337Y-78131389D01*
X59302502Y-78141146D01*
X59335952Y-78144441D01*
X59368927Y-78151000D01*
X59402547Y-78151000D01*
X59436000Y-78154295D01*
X59469453Y-78151000D01*
X59503073Y-78151000D01*
X59536048Y-78144441D01*
X59569498Y-78141146D01*
X59601663Y-78131389D01*
X59634640Y-78124829D01*
X59665704Y-78111962D01*
X59697868Y-78102205D01*
X59727508Y-78086362D01*
X59758574Y-78073494D01*
X59786536Y-78054810D01*
X59816173Y-78038969D01*
X59842150Y-78017651D01*
X59870112Y-77998967D01*
X59964967Y-77904112D01*
X59964969Y-77904109D01*
X60518080Y-77350999D01*
X71973329Y-77350999D01*
X71963000Y-77402927D01*
X71963000Y-77537073D01*
X71989171Y-77668640D01*
X72040506Y-77792574D01*
X72115033Y-77904112D01*
X72125349Y-77914428D01*
X72077574Y-77882506D01*
X71953640Y-77831171D01*
X71822073Y-77805000D01*
X71687927Y-77805000D01*
X71556360Y-77831171D01*
X71432426Y-77882506D01*
X71320888Y-77957033D01*
X71226033Y-78051888D01*
X71151506Y-78163426D01*
X71100171Y-78287360D01*
X71074000Y-78418927D01*
X71074000Y-78553073D01*
X71100171Y-78684640D01*
X71151506Y-78808574D01*
X71226033Y-78920112D01*
X71320888Y-79014967D01*
X71432426Y-79089494D01*
X71556360Y-79140829D01*
X71687927Y-79167000D01*
X71822073Y-79167000D01*
X71953640Y-79140829D01*
X72077574Y-79089494D01*
X72189112Y-79014967D01*
X72199500Y-79004579D01*
X72209888Y-79014967D01*
X72321426Y-79089494D01*
X72445360Y-79140829D01*
X72576927Y-79167000D01*
X72711073Y-79167000D01*
X72842640Y-79140829D01*
X72966574Y-79089494D01*
X73078112Y-79014967D01*
X73152000Y-78941079D01*
X73225888Y-79014967D01*
X73337426Y-79089494D01*
X73461360Y-79140829D01*
X73592927Y-79167000D01*
X73727073Y-79167000D01*
X73858640Y-79140829D01*
X73982574Y-79089494D01*
X74094112Y-79014967D01*
X74188967Y-78920112D01*
X74263494Y-78808574D01*
X74314829Y-78684640D01*
X74341000Y-78553073D01*
X74341000Y-78418927D01*
X74314829Y-78287360D01*
X74263494Y-78163426D01*
X74188967Y-78051888D01*
X74115079Y-77978000D01*
X74168000Y-77925079D01*
X74241888Y-77998967D01*
X74353426Y-78073494D01*
X74477360Y-78124829D01*
X74608927Y-78151000D01*
X74743073Y-78151000D01*
X74874640Y-78124829D01*
X74998574Y-78073494D01*
X75110112Y-77998967D01*
X75184000Y-77925079D01*
X75257888Y-77998967D01*
X75369426Y-78073494D01*
X75493360Y-78124829D01*
X75624927Y-78151000D01*
X75759073Y-78151000D01*
X75890640Y-78124829D01*
X76014574Y-78073494D01*
X76126112Y-77998967D01*
X76200000Y-77925079D01*
X76273888Y-77998967D01*
X76385426Y-78073494D01*
X76509360Y-78124829D01*
X76640927Y-78151000D01*
X76775073Y-78151000D01*
X76906640Y-78124829D01*
X77030574Y-78073494D01*
X77142112Y-77998967D01*
X77236967Y-77904112D01*
X77311494Y-77792574D01*
X77319110Y-77774188D01*
X80835336Y-81290415D01*
X80811000Y-81412757D01*
X80811000Y-81655243D01*
X80858307Y-81893069D01*
X80951102Y-82117097D01*
X81085820Y-82318717D01*
X81156102Y-82388999D01*
X76732881Y-82388999D01*
X76679317Y-82335436D01*
X76663410Y-82316052D01*
X76586057Y-82252571D01*
X76497805Y-82205399D01*
X76402047Y-82176351D01*
X76327409Y-82169000D01*
X76327406Y-82169000D01*
X76302462Y-82166543D01*
X76277518Y-82169000D01*
X75303512Y-82169000D01*
X75379574Y-82137494D01*
X75491112Y-82062967D01*
X75585967Y-81968112D01*
X75660494Y-81856574D01*
X75711829Y-81732640D01*
X75738000Y-81601073D01*
X75738000Y-81466927D01*
X75711829Y-81335360D01*
X75660494Y-81211426D01*
X75585967Y-81099888D01*
X75491112Y-81005033D01*
X75379574Y-80930506D01*
X75255640Y-80879171D01*
X75124073Y-80853000D01*
X74989927Y-80853000D01*
X74858360Y-80879171D01*
X74734426Y-80930506D01*
X74622888Y-81005033D01*
X74528033Y-81099888D01*
X74453506Y-81211426D01*
X74408693Y-81319614D01*
X74348112Y-81259033D01*
X74236574Y-81184506D01*
X74112640Y-81133171D01*
X73981073Y-81107000D01*
X73846927Y-81107000D01*
X73715360Y-81133171D01*
X73591426Y-81184506D01*
X73479888Y-81259033D01*
X73385033Y-81353888D01*
X73310506Y-81465426D01*
X73259171Y-81589360D01*
X73233000Y-81720927D01*
X73233000Y-81772048D01*
X73223640Y-81768171D01*
X73092073Y-81742000D01*
X73071000Y-81742000D01*
X73071000Y-81720927D01*
X73044829Y-81589360D01*
X72993494Y-81465426D01*
X72918967Y-81353888D01*
X72824112Y-81259033D01*
X72712574Y-81184506D01*
X72588640Y-81133171D01*
X72457073Y-81107000D01*
X72322927Y-81107000D01*
X72191360Y-81133171D01*
X72067426Y-81184506D01*
X71955888Y-81259033D01*
X71861033Y-81353888D01*
X71786506Y-81465426D01*
X71735171Y-81589360D01*
X71709000Y-81720927D01*
X71709000Y-81855073D01*
X71735171Y-81986640D01*
X71786506Y-82110574D01*
X71861033Y-82222112D01*
X71955888Y-82316967D01*
X72067426Y-82391494D01*
X72191360Y-82442829D01*
X72322927Y-82469000D01*
X72344000Y-82469000D01*
X72344000Y-82490073D01*
X72370171Y-82621640D01*
X72421506Y-82745574D01*
X72496033Y-82857112D01*
X72590888Y-82951967D01*
X72702426Y-83026494D01*
X72826360Y-83077829D01*
X72957927Y-83104000D01*
X73092073Y-83104000D01*
X73223640Y-83077829D01*
X73347574Y-83026494D01*
X73459112Y-82951967D01*
X73553967Y-82857112D01*
X73628494Y-82745574D01*
X73679829Y-82621640D01*
X73706000Y-82490073D01*
X73706000Y-82438952D01*
X73715360Y-82442829D01*
X73776824Y-82455055D01*
X73767171Y-82478360D01*
X73741000Y-82609927D01*
X73741000Y-82744073D01*
X73767171Y-82875640D01*
X73818506Y-82999574D01*
X73893033Y-83111112D01*
X73987888Y-83205967D01*
X74099426Y-83280494D01*
X74223360Y-83331829D01*
X74354927Y-83358000D01*
X74489073Y-83358000D01*
X74620640Y-83331829D01*
X74744574Y-83280494D01*
X74856112Y-83205967D01*
X74877079Y-83185000D01*
X75355647Y-83185000D01*
X75341200Y-83257627D01*
X75341200Y-83391773D01*
X75367371Y-83523340D01*
X75418706Y-83647274D01*
X75478371Y-83736570D01*
X75384888Y-83799033D01*
X75290033Y-83893888D01*
X75215506Y-84005426D01*
X75164171Y-84129360D01*
X75138000Y-84260927D01*
X75138000Y-84395073D01*
X75164171Y-84526640D01*
X75215506Y-84650574D01*
X75290033Y-84762112D01*
X75384888Y-84856967D01*
X75496426Y-84931494D01*
X75572488Y-84963000D01*
X75496426Y-84994506D01*
X75384888Y-85069033D01*
X75290033Y-85163888D01*
X75215506Y-85275426D01*
X75164171Y-85399360D01*
X75138000Y-85530927D01*
X75138000Y-85665073D01*
X75164171Y-85796640D01*
X75215506Y-85920574D01*
X75290033Y-86032112D01*
X75384888Y-86126967D01*
X75496426Y-86201494D01*
X75620360Y-86252829D01*
X75751927Y-86279000D01*
X75886073Y-86279000D01*
X76017640Y-86252829D01*
X76141574Y-86201494D01*
X76253112Y-86126967D01*
X76347967Y-86032112D01*
X76422494Y-85920574D01*
X76469952Y-85806001D01*
X81109102Y-85806001D01*
X81085820Y-85829283D01*
X80951102Y-86030903D01*
X80858307Y-86254931D01*
X80811000Y-86492757D01*
X80811000Y-86735243D01*
X80858307Y-86973069D01*
X80951102Y-87197097D01*
X81085820Y-87398717D01*
X81257283Y-87570180D01*
X81458903Y-87704898D01*
X81682931Y-87797693D01*
X81920757Y-87845000D01*
X82163243Y-87845000D01*
X82401069Y-87797693D01*
X82625097Y-87704898D01*
X82826717Y-87570180D01*
X82998180Y-87398717D01*
X83132898Y-87197097D01*
X83225693Y-86973069D01*
X83273000Y-86735243D01*
X83273000Y-86492757D01*
X83225693Y-86254931D01*
X83132898Y-86030903D01*
X82998180Y-85829283D01*
X82974898Y-85806001D01*
X83649102Y-85806001D01*
X83625820Y-85829283D01*
X83491102Y-86030903D01*
X83398307Y-86254931D01*
X83351000Y-86492757D01*
X83351000Y-86735243D01*
X83398307Y-86973069D01*
X83491102Y-87197097D01*
X83625820Y-87398717D01*
X83797283Y-87570180D01*
X83998903Y-87704898D01*
X84222931Y-87797693D01*
X84460757Y-87845000D01*
X84703243Y-87845000D01*
X84941069Y-87797693D01*
X85165097Y-87704898D01*
X85366717Y-87570180D01*
X85538180Y-87398717D01*
X85672898Y-87197097D01*
X85765693Y-86973069D01*
X85813000Y-86735243D01*
X85813000Y-86492757D01*
X85765693Y-86254931D01*
X85672898Y-86030903D01*
X85538180Y-85829283D01*
X85514898Y-85806001D01*
X85595581Y-85806001D01*
X85969413Y-86179833D01*
X85938307Y-86254931D01*
X85891000Y-86492757D01*
X85891000Y-86735243D01*
X85938307Y-86973069D01*
X86031102Y-87197097D01*
X86165820Y-87398717D01*
X86337283Y-87570180D01*
X86538903Y-87704898D01*
X86762931Y-87797693D01*
X87000757Y-87845000D01*
X87243243Y-87845000D01*
X87481069Y-87797693D01*
X87705097Y-87704898D01*
X87906717Y-87570180D01*
X88078180Y-87398717D01*
X88212898Y-87197097D01*
X88305693Y-86973069D01*
X88353000Y-86735243D01*
X88353000Y-86492757D01*
X88305693Y-86254931D01*
X88212898Y-86030903D01*
X88078180Y-85829283D01*
X87906717Y-85657820D01*
X87705097Y-85523102D01*
X87481069Y-85430307D01*
X87243243Y-85383000D01*
X87000757Y-85383000D01*
X86762931Y-85430307D01*
X86687833Y-85461413D01*
X86182856Y-84956436D01*
X86166949Y-84937053D01*
X86089596Y-84873572D01*
X86001344Y-84826400D01*
X85905586Y-84797352D01*
X85830948Y-84790001D01*
X85830945Y-84790001D01*
X85806001Y-84787544D01*
X85781057Y-84790001D01*
X85584095Y-84790001D01*
X85672898Y-84657097D01*
X85765693Y-84433069D01*
X85813000Y-84195243D01*
X85813000Y-83952757D01*
X85765693Y-83714931D01*
X85672898Y-83490903D01*
X85615499Y-83404999D01*
X85734579Y-83404999D01*
X85969413Y-83639833D01*
X85938307Y-83714931D01*
X85891000Y-83952757D01*
X85891000Y-84195243D01*
X85938307Y-84433069D01*
X86031102Y-84657097D01*
X86165820Y-84858717D01*
X86337283Y-85030180D01*
X86538903Y-85164898D01*
X86762931Y-85257693D01*
X87000757Y-85305000D01*
X87243243Y-85305000D01*
X87481069Y-85257693D01*
X87705097Y-85164898D01*
X87906717Y-85030180D01*
X88078180Y-84858717D01*
X88212898Y-84657097D01*
X88305693Y-84433069D01*
X88353000Y-84195243D01*
X88353000Y-83952757D01*
X88305693Y-83714931D01*
X88212898Y-83490903D01*
X88078180Y-83289283D01*
X87906717Y-83117820D01*
X87705097Y-82983102D01*
X87481069Y-82890307D01*
X87243243Y-82843000D01*
X87000757Y-82843000D01*
X86762931Y-82890307D01*
X86687833Y-82921413D01*
X86321854Y-82555434D01*
X86305947Y-82536051D01*
X86228594Y-82472570D01*
X86140342Y-82425398D01*
X86044584Y-82396350D01*
X85969946Y-82388999D01*
X85969943Y-82388999D01*
X85944999Y-82386542D01*
X85920055Y-82388999D01*
X85467898Y-82388999D01*
X85538180Y-82318717D01*
X85607481Y-82215000D01*
X86096519Y-82215000D01*
X86165820Y-82318717D01*
X86337283Y-82490180D01*
X86538903Y-82624898D01*
X86762931Y-82717693D01*
X87000757Y-82765000D01*
X87243243Y-82765000D01*
X87481069Y-82717693D01*
X87705097Y-82624898D01*
X87906717Y-82490180D01*
X88078180Y-82318717D01*
X88212898Y-82117097D01*
X88305693Y-81893069D01*
X88353000Y-81655243D01*
X88353000Y-81412757D01*
X88305693Y-81174931D01*
X88212898Y-80950903D01*
X88078180Y-80749283D01*
X87906717Y-80577820D01*
X87705097Y-80443102D01*
X87481069Y-80350307D01*
X87243243Y-80303000D01*
X87000757Y-80303000D01*
X86762931Y-80350307D01*
X86538903Y-80443102D01*
X86337283Y-80577820D01*
X86165820Y-80749283D01*
X86096519Y-80853000D01*
X85607481Y-80853000D01*
X85538180Y-80749283D01*
X85366717Y-80577820D01*
X85165097Y-80443102D01*
X84941069Y-80350307D01*
X84703243Y-80303000D01*
X84460757Y-80303000D01*
X84222931Y-80350307D01*
X83998903Y-80443102D01*
X83797283Y-80577820D01*
X83625820Y-80749283D01*
X83556519Y-80853000D01*
X83067481Y-80853000D01*
X82998180Y-80749283D01*
X82826717Y-80577820D01*
X82625097Y-80443102D01*
X82401069Y-80350307D01*
X82163243Y-80303000D01*
X81920757Y-80303000D01*
X81798415Y-80327336D01*
X81697923Y-80226843D01*
X82892000Y-80226843D01*
X82966689Y-80219487D01*
X83038508Y-80197701D01*
X83104696Y-80162322D01*
X83162711Y-80114711D01*
X83210322Y-80056696D01*
X83245701Y-79990508D01*
X83267487Y-79918689D01*
X83274843Y-79844000D01*
X83274843Y-78872757D01*
X83351000Y-78872757D01*
X83351000Y-79115243D01*
X83398307Y-79353069D01*
X83491102Y-79577097D01*
X83625820Y-79778717D01*
X83797283Y-79950180D01*
X83998903Y-80084898D01*
X84222931Y-80177693D01*
X84460757Y-80225000D01*
X84703243Y-80225000D01*
X84941069Y-80177693D01*
X85165097Y-80084898D01*
X85366717Y-79950180D01*
X85538180Y-79778717D01*
X85672898Y-79577097D01*
X85765693Y-79353069D01*
X85813000Y-79115243D01*
X85813000Y-78872757D01*
X85891000Y-78872757D01*
X85891000Y-79115243D01*
X85938307Y-79353069D01*
X86031102Y-79577097D01*
X86165820Y-79778717D01*
X86337283Y-79950180D01*
X86538903Y-80084898D01*
X86762931Y-80177693D01*
X87000757Y-80225000D01*
X87243243Y-80225000D01*
X87481069Y-80177693D01*
X87705097Y-80084898D01*
X87906717Y-79950180D01*
X88078180Y-79778717D01*
X88212898Y-79577097D01*
X88305693Y-79353069D01*
X88353000Y-79115243D01*
X88353000Y-78872757D01*
X88305693Y-78634931D01*
X88212898Y-78410903D01*
X88078180Y-78209283D01*
X87906717Y-78037820D01*
X87705097Y-77903102D01*
X87481069Y-77810307D01*
X87243243Y-77763000D01*
X87000757Y-77763000D01*
X86762931Y-77810307D01*
X86538903Y-77903102D01*
X86337283Y-78037820D01*
X86165820Y-78209283D01*
X86031102Y-78410903D01*
X85938307Y-78634931D01*
X85891000Y-78872757D01*
X85813000Y-78872757D01*
X85765693Y-78634931D01*
X85672898Y-78410903D01*
X85538180Y-78209283D01*
X85366717Y-78037820D01*
X85165097Y-77903102D01*
X84941069Y-77810307D01*
X84703243Y-77763000D01*
X84460757Y-77763000D01*
X84222931Y-77810307D01*
X83998903Y-77903102D01*
X83797283Y-78037820D01*
X83625820Y-78209283D01*
X83491102Y-78410903D01*
X83398307Y-78634931D01*
X83351000Y-78872757D01*
X83274843Y-78872757D01*
X83274843Y-78144000D01*
X83267487Y-78069311D01*
X83245701Y-77997492D01*
X83210322Y-77931304D01*
X83162711Y-77873289D01*
X83104696Y-77825678D01*
X83038508Y-77790299D01*
X82966689Y-77768513D01*
X82892000Y-77761157D01*
X81192000Y-77761157D01*
X81117311Y-77768513D01*
X81045492Y-77790299D01*
X80979304Y-77825678D01*
X80921289Y-77873289D01*
X80873678Y-77931304D01*
X80838299Y-77997492D01*
X80816513Y-78069311D01*
X80809157Y-78144000D01*
X80809157Y-79338078D01*
X79377118Y-77906040D01*
X79428112Y-77871967D01*
X79522967Y-77777112D01*
X79597494Y-77665574D01*
X79648829Y-77541640D01*
X79675000Y-77410073D01*
X79675000Y-77275927D01*
X79648829Y-77144360D01*
X79597494Y-77020426D01*
X79522967Y-76908888D01*
X79428112Y-76814033D01*
X79316574Y-76739506D01*
X79192640Y-76688171D01*
X79061073Y-76662000D01*
X78926927Y-76662000D01*
X78795360Y-76688171D01*
X78671426Y-76739506D01*
X78559888Y-76814033D01*
X78465033Y-76908888D01*
X78430960Y-76959882D01*
X77823078Y-76352000D01*
X90780000Y-76352000D01*
X90780000Y-80411064D01*
X90724696Y-80365678D01*
X90658508Y-80330299D01*
X90586689Y-80308513D01*
X90512000Y-80301157D01*
X88812000Y-80301157D01*
X88737311Y-80308513D01*
X88665492Y-80330299D01*
X88599304Y-80365678D01*
X88541289Y-80413289D01*
X88493678Y-80471304D01*
X88458299Y-80537492D01*
X88436513Y-80609311D01*
X88429157Y-80684000D01*
X88429157Y-82384000D01*
X88436513Y-82458689D01*
X88458299Y-82530508D01*
X88493678Y-82596696D01*
X88541289Y-82654711D01*
X88599304Y-82702322D01*
X88665492Y-82737701D01*
X88737311Y-82759487D01*
X88812000Y-82766843D01*
X90512000Y-82766843D01*
X90586689Y-82759487D01*
X90658508Y-82737701D01*
X90724696Y-82702322D01*
X90780000Y-82656935D01*
X90780000Y-83556334D01*
X90752898Y-83490903D01*
X90618180Y-83289283D01*
X90446717Y-83117820D01*
X90245097Y-82983102D01*
X90021069Y-82890307D01*
X89783243Y-82843000D01*
X89540757Y-82843000D01*
X89302931Y-82890307D01*
X89078903Y-82983102D01*
X88877283Y-83117820D01*
X88705820Y-83289283D01*
X88571102Y-83490903D01*
X88478307Y-83714931D01*
X88431000Y-83952757D01*
X88431000Y-84195243D01*
X88478307Y-84433069D01*
X88571102Y-84657097D01*
X88705820Y-84858717D01*
X88877283Y-85030180D01*
X89078903Y-85164898D01*
X89302931Y-85257693D01*
X89540757Y-85305000D01*
X89783243Y-85305000D01*
X90021069Y-85257693D01*
X90245097Y-85164898D01*
X90446717Y-85030180D01*
X90618180Y-84858717D01*
X90752898Y-84657097D01*
X90780001Y-84591665D01*
X90780001Y-91542000D01*
X76272496Y-91542000D01*
X76293494Y-91510574D01*
X76344829Y-91386640D01*
X76371000Y-91255073D01*
X76371000Y-91120927D01*
X76344829Y-90989360D01*
X76293494Y-90865426D01*
X76218967Y-90753888D01*
X76124112Y-90659033D01*
X76012574Y-90584506D01*
X75888640Y-90533171D01*
X75757073Y-90507000D01*
X75622927Y-90507000D01*
X75491360Y-90533171D01*
X75367426Y-90584506D01*
X75255888Y-90659033D01*
X75161033Y-90753888D01*
X75086506Y-90865426D01*
X75035171Y-90989360D01*
X75009000Y-91120927D01*
X75009000Y-91255073D01*
X75035171Y-91386640D01*
X75086506Y-91510574D01*
X75107504Y-91542000D01*
X57048000Y-91542000D01*
X57048000Y-90610927D01*
X57612000Y-90610927D01*
X57612000Y-90745073D01*
X57638171Y-90876640D01*
X57689506Y-91000574D01*
X57764033Y-91112112D01*
X57858888Y-91206967D01*
X57970426Y-91281494D01*
X58094360Y-91332829D01*
X58225927Y-91359000D01*
X58360073Y-91359000D01*
X58491640Y-91332829D01*
X58615574Y-91281494D01*
X58727112Y-91206967D01*
X58821967Y-91112112D01*
X58896494Y-91000574D01*
X58947829Y-90876640D01*
X58974000Y-90745073D01*
X58974000Y-90610927D01*
X59438500Y-90610927D01*
X59438500Y-90745073D01*
X59464671Y-90876640D01*
X59516006Y-91000574D01*
X59590533Y-91112112D01*
X59685388Y-91206967D01*
X59796926Y-91281494D01*
X59920860Y-91332829D01*
X60052427Y-91359000D01*
X60186573Y-91359000D01*
X60318140Y-91332829D01*
X60442074Y-91281494D01*
X60553612Y-91206967D01*
X60648467Y-91112112D01*
X60722994Y-91000574D01*
X60774329Y-90876640D01*
X60800500Y-90745073D01*
X60800500Y-90610927D01*
X64597000Y-90610927D01*
X64597000Y-90745073D01*
X64623171Y-90876640D01*
X64674506Y-91000574D01*
X64749033Y-91112112D01*
X64843888Y-91206967D01*
X64955426Y-91281494D01*
X65079360Y-91332829D01*
X65210927Y-91359000D01*
X65345073Y-91359000D01*
X65476640Y-91332829D01*
X65600574Y-91281494D01*
X65712112Y-91206967D01*
X65806967Y-91112112D01*
X65881494Y-91000574D01*
X65932829Y-90876640D01*
X65959000Y-90745073D01*
X65959000Y-90610927D01*
X65932829Y-90479360D01*
X65881494Y-90355426D01*
X65806967Y-90243888D01*
X65712112Y-90149033D01*
X65600574Y-90074506D01*
X65476640Y-90023171D01*
X65345073Y-89997000D01*
X65210927Y-89997000D01*
X65079360Y-90023171D01*
X64955426Y-90074506D01*
X64843888Y-90149033D01*
X64749033Y-90243888D01*
X64674506Y-90355426D01*
X64623171Y-90479360D01*
X64597000Y-90610927D01*
X60800500Y-90610927D01*
X60774329Y-90479360D01*
X60722994Y-90355426D01*
X60648467Y-90243888D01*
X60553612Y-90149033D01*
X60442074Y-90074506D01*
X60318140Y-90023171D01*
X60186573Y-89997000D01*
X60052427Y-89997000D01*
X59920860Y-90023171D01*
X59796926Y-90074506D01*
X59685388Y-90149033D01*
X59590533Y-90243888D01*
X59516006Y-90355426D01*
X59464671Y-90479360D01*
X59438500Y-90610927D01*
X58974000Y-90610927D01*
X58947829Y-90479360D01*
X58896494Y-90355426D01*
X58821967Y-90243888D01*
X58727112Y-90149033D01*
X58615574Y-90074506D01*
X58491640Y-90023171D01*
X58360073Y-89997000D01*
X58225927Y-89997000D01*
X58094360Y-90023171D01*
X57970426Y-90074506D01*
X57858888Y-90149033D01*
X57764033Y-90243888D01*
X57689506Y-90355426D01*
X57638171Y-90479360D01*
X57612000Y-90610927D01*
X57048000Y-90610927D01*
X57048000Y-86896927D01*
X61729000Y-86896927D01*
X61729000Y-87031073D01*
X61755171Y-87162640D01*
X61806506Y-87286574D01*
X61881033Y-87398112D01*
X61975888Y-87492967D01*
X62087426Y-87567494D01*
X62211360Y-87618829D01*
X62342927Y-87645000D01*
X62477073Y-87645000D01*
X62608640Y-87618829D01*
X62732574Y-87567494D01*
X62844112Y-87492967D01*
X62938967Y-87398112D01*
X63013494Y-87286574D01*
X63064829Y-87162640D01*
X63091000Y-87031073D01*
X63091000Y-86896927D01*
X63064829Y-86765360D01*
X63013494Y-86641426D01*
X62938967Y-86529888D01*
X62844112Y-86435033D01*
X62732574Y-86360506D01*
X62608640Y-86309171D01*
X62477073Y-86283000D01*
X62342927Y-86283000D01*
X62211360Y-86309171D01*
X62087426Y-86360506D01*
X61975888Y-86435033D01*
X61881033Y-86529888D01*
X61806506Y-86641426D01*
X61755171Y-86765360D01*
X61729000Y-86896927D01*
X57048000Y-86896927D01*
X57048000Y-82990927D01*
X66375000Y-82990927D01*
X66375000Y-83125073D01*
X66401171Y-83256640D01*
X66452506Y-83380574D01*
X66527033Y-83492112D01*
X66600921Y-83566000D01*
X66527033Y-83639888D01*
X66452506Y-83751426D01*
X66401171Y-83875360D01*
X66375000Y-84006927D01*
X66375000Y-84141073D01*
X66401171Y-84272640D01*
X66452506Y-84396574D01*
X66527033Y-84508112D01*
X66600921Y-84582000D01*
X66527033Y-84655888D01*
X66452506Y-84767426D01*
X66401171Y-84891360D01*
X66375000Y-85022927D01*
X66375000Y-85157073D01*
X66401171Y-85288640D01*
X66452506Y-85412574D01*
X66527033Y-85524112D01*
X66621888Y-85618967D01*
X66733426Y-85693494D01*
X66857360Y-85744829D01*
X66988927Y-85771000D01*
X67123073Y-85771000D01*
X67254640Y-85744829D01*
X67310001Y-85721898D01*
X67310001Y-88689579D01*
X67018580Y-88981000D01*
X66988927Y-88981000D01*
X66857360Y-89007171D01*
X66733426Y-89058506D01*
X66621888Y-89133033D01*
X66527033Y-89227888D01*
X66452506Y-89339426D01*
X66401171Y-89463360D01*
X66375000Y-89594927D01*
X66375000Y-89729073D01*
X66401171Y-89860640D01*
X66452506Y-89984574D01*
X66527033Y-90096112D01*
X66621888Y-90190967D01*
X66733426Y-90265494D01*
X66857360Y-90316829D01*
X66988927Y-90343000D01*
X67123073Y-90343000D01*
X67254640Y-90316829D01*
X67378574Y-90265494D01*
X67490112Y-90190967D01*
X67584967Y-90096112D01*
X67659494Y-89984574D01*
X67691000Y-89908512D01*
X67722506Y-89984574D01*
X67797033Y-90096112D01*
X67891888Y-90190967D01*
X68003426Y-90265494D01*
X68127360Y-90316829D01*
X68258927Y-90343000D01*
X68393073Y-90343000D01*
X68524640Y-90316829D01*
X68648574Y-90265494D01*
X68760112Y-90190967D01*
X68820152Y-90130927D01*
X71455000Y-90130927D01*
X71455000Y-90265073D01*
X71481171Y-90396640D01*
X71532506Y-90520574D01*
X71607033Y-90632112D01*
X71701888Y-90726967D01*
X71813426Y-90801494D01*
X71937360Y-90852829D01*
X72068927Y-90879000D01*
X72203073Y-90879000D01*
X72334640Y-90852829D01*
X72458574Y-90801494D01*
X72570112Y-90726967D01*
X72644000Y-90653079D01*
X72717888Y-90726967D01*
X72829426Y-90801494D01*
X72953360Y-90852829D01*
X73084927Y-90879000D01*
X73219073Y-90879000D01*
X73350640Y-90852829D01*
X73474574Y-90801494D01*
X73586112Y-90726967D01*
X73680967Y-90632112D01*
X73755494Y-90520574D01*
X73806829Y-90396640D01*
X73833000Y-90265073D01*
X73833000Y-90130927D01*
X73827431Y-90102927D01*
X77551000Y-90102927D01*
X77551000Y-90237073D01*
X77577171Y-90368640D01*
X77628506Y-90492574D01*
X77703033Y-90604112D01*
X77797888Y-90698967D01*
X77909426Y-90773494D01*
X78033360Y-90824829D01*
X78164927Y-90851000D01*
X78299073Y-90851000D01*
X78430640Y-90824829D01*
X78554574Y-90773494D01*
X78666112Y-90698967D01*
X78760967Y-90604112D01*
X78835494Y-90492574D01*
X78886829Y-90368640D01*
X78913000Y-90237073D01*
X78913000Y-90102927D01*
X78886829Y-89971360D01*
X78835494Y-89847426D01*
X78760967Y-89735888D01*
X78666112Y-89641033D01*
X78554574Y-89566506D01*
X78430640Y-89515171D01*
X78299073Y-89489000D01*
X78164927Y-89489000D01*
X78033360Y-89515171D01*
X77909426Y-89566506D01*
X77797888Y-89641033D01*
X77703033Y-89735888D01*
X77628506Y-89847426D01*
X77577171Y-89971360D01*
X77551000Y-90102927D01*
X73827431Y-90102927D01*
X73806829Y-89999360D01*
X73755494Y-89875426D01*
X73680967Y-89763888D01*
X73586112Y-89669033D01*
X73474574Y-89594506D01*
X73350640Y-89543171D01*
X73219073Y-89517000D01*
X73084927Y-89517000D01*
X72953360Y-89543171D01*
X72829426Y-89594506D01*
X72717888Y-89669033D01*
X72644000Y-89742921D01*
X72570112Y-89669033D01*
X72458574Y-89594506D01*
X72334640Y-89543171D01*
X72203073Y-89517000D01*
X72068927Y-89517000D01*
X71937360Y-89543171D01*
X71813426Y-89594506D01*
X71701888Y-89669033D01*
X71607033Y-89763888D01*
X71532506Y-89875426D01*
X71481171Y-89999360D01*
X71455000Y-90130927D01*
X68820152Y-90130927D01*
X68854967Y-90096112D01*
X68929494Y-89984574D01*
X68980829Y-89860640D01*
X69007000Y-89729073D01*
X69007000Y-89594927D01*
X68980829Y-89463360D01*
X68929494Y-89339426D01*
X68854967Y-89227888D01*
X68760112Y-89133033D01*
X68691110Y-89086927D01*
X69169000Y-89086927D01*
X69169000Y-89221073D01*
X69195171Y-89352640D01*
X69246506Y-89476574D01*
X69321033Y-89588112D01*
X69415888Y-89682967D01*
X69527426Y-89757494D01*
X69651360Y-89808829D01*
X69782927Y-89835000D01*
X69917073Y-89835000D01*
X70048640Y-89808829D01*
X70172574Y-89757494D01*
X70284112Y-89682967D01*
X70378967Y-89588112D01*
X70453494Y-89476574D01*
X70504829Y-89352640D01*
X70531000Y-89221073D01*
X70531000Y-89191420D01*
X71715571Y-88006850D01*
X71734948Y-87990948D01*
X71753624Y-87968190D01*
X71798429Y-87913596D01*
X71845600Y-87825345D01*
X71845601Y-87825343D01*
X71874649Y-87729585D01*
X71882000Y-87654947D01*
X71882000Y-87654945D01*
X71884457Y-87630001D01*
X71882000Y-87605057D01*
X71882000Y-86757747D01*
X78440000Y-86757747D01*
X78440000Y-86891893D01*
X78466171Y-87023460D01*
X78517506Y-87147394D01*
X78592033Y-87258932D01*
X78686888Y-87353787D01*
X78798426Y-87428314D01*
X78922360Y-87479649D01*
X79053927Y-87505820D01*
X79188073Y-87505820D01*
X79319640Y-87479649D01*
X79443574Y-87428314D01*
X79555112Y-87353787D01*
X79649967Y-87258932D01*
X79724494Y-87147394D01*
X79775829Y-87023460D01*
X79802000Y-86891893D01*
X79802000Y-86757747D01*
X79775829Y-86626180D01*
X79724494Y-86502246D01*
X79649967Y-86390708D01*
X79555112Y-86295853D01*
X79443574Y-86221326D01*
X79319640Y-86169991D01*
X79188073Y-86143820D01*
X79053927Y-86143820D01*
X78922360Y-86169991D01*
X78798426Y-86221326D01*
X78686888Y-86295853D01*
X78592033Y-86390708D01*
X78517506Y-86502246D01*
X78466171Y-86626180D01*
X78440000Y-86757747D01*
X71882000Y-86757747D01*
X71882000Y-84529079D01*
X71902967Y-84508112D01*
X71977494Y-84396574D01*
X72028829Y-84272640D01*
X72055000Y-84141073D01*
X72055000Y-84006927D01*
X72028829Y-83875360D01*
X71977494Y-83751426D01*
X71902967Y-83639888D01*
X71808112Y-83545033D01*
X71696574Y-83470506D01*
X71572640Y-83419171D01*
X71441073Y-83393000D01*
X71306927Y-83393000D01*
X71175360Y-83419171D01*
X71051426Y-83470506D01*
X70939888Y-83545033D01*
X70845033Y-83639888D01*
X70770506Y-83751426D01*
X70719171Y-83875360D01*
X70693000Y-84006927D01*
X70693000Y-84141073D01*
X70719171Y-84272640D01*
X70770506Y-84396574D01*
X70845033Y-84508112D01*
X70866000Y-84529079D01*
X70866001Y-87419578D01*
X69812580Y-88473000D01*
X69782927Y-88473000D01*
X69651360Y-88499171D01*
X69527426Y-88550506D01*
X69415888Y-88625033D01*
X69321033Y-88719888D01*
X69246506Y-88831426D01*
X69195171Y-88955360D01*
X69169000Y-89086927D01*
X68691110Y-89086927D01*
X68648574Y-89058506D01*
X68524640Y-89007171D01*
X68393073Y-88981000D01*
X68320479Y-88981000D01*
X68326000Y-88924947D01*
X68326000Y-88924944D01*
X68328457Y-88900000D01*
X68326000Y-88875056D01*
X68326000Y-82243079D01*
X68346967Y-82222112D01*
X68421494Y-82110574D01*
X68472829Y-81986640D01*
X68499000Y-81855073D01*
X68499000Y-81720927D01*
X68472829Y-81589360D01*
X68421494Y-81465426D01*
X68346967Y-81353888D01*
X68252112Y-81259033D01*
X68140574Y-81184506D01*
X68016640Y-81133171D01*
X67885073Y-81107000D01*
X67750927Y-81107000D01*
X67619360Y-81133171D01*
X67495426Y-81184506D01*
X67383888Y-81259033D01*
X67289033Y-81353888D01*
X67214506Y-81465426D01*
X67163171Y-81589360D01*
X67137000Y-81720927D01*
X67137000Y-81855073D01*
X67163171Y-81986640D01*
X67214506Y-82110574D01*
X67289033Y-82222112D01*
X67310000Y-82243079D01*
X67310000Y-82426102D01*
X67254640Y-82403171D01*
X67123073Y-82377000D01*
X66988927Y-82377000D01*
X66857360Y-82403171D01*
X66733426Y-82454506D01*
X66621888Y-82529033D01*
X66527033Y-82623888D01*
X66452506Y-82735426D01*
X66401171Y-82859360D01*
X66375000Y-82990927D01*
X57048000Y-82990927D01*
X57048000Y-81116927D01*
X61729000Y-81116927D01*
X61729000Y-81251073D01*
X61755171Y-81382640D01*
X61806506Y-81506574D01*
X61881033Y-81618112D01*
X61975888Y-81712967D01*
X62087426Y-81787494D01*
X62211360Y-81838829D01*
X62342927Y-81865000D01*
X62477073Y-81865000D01*
X62608640Y-81838829D01*
X62732574Y-81787494D01*
X62844112Y-81712967D01*
X62938967Y-81618112D01*
X63013494Y-81506574D01*
X63064829Y-81382640D01*
X63091000Y-81251073D01*
X63091000Y-81116927D01*
X63064829Y-80985360D01*
X63013494Y-80861426D01*
X62938967Y-80749888D01*
X62844112Y-80655033D01*
X62732574Y-80580506D01*
X62608640Y-80529171D01*
X62477073Y-80503000D01*
X62342927Y-80503000D01*
X62211360Y-80529171D01*
X62087426Y-80580506D01*
X61975888Y-80655033D01*
X61881033Y-80749888D01*
X61806506Y-80861426D01*
X61755171Y-80985360D01*
X61729000Y-81116927D01*
X57048000Y-81116927D01*
X57048000Y-80323927D01*
X68661000Y-80323927D01*
X68661000Y-80458073D01*
X68687171Y-80589640D01*
X68738506Y-80713574D01*
X68813033Y-80825112D01*
X68907888Y-80919967D01*
X69019426Y-80994494D01*
X69143360Y-81045829D01*
X69274927Y-81072000D01*
X69409073Y-81072000D01*
X69540640Y-81045829D01*
X69664574Y-80994494D01*
X69776112Y-80919967D01*
X69870967Y-80825112D01*
X69945494Y-80713574D01*
X69996829Y-80589640D01*
X70023000Y-80458073D01*
X70023000Y-80323927D01*
X69996829Y-80192360D01*
X69945494Y-80068426D01*
X69870967Y-79956888D01*
X69776112Y-79862033D01*
X69664574Y-79787506D01*
X69540640Y-79736171D01*
X69409073Y-79710000D01*
X69274927Y-79710000D01*
X69143360Y-79736171D01*
X69019426Y-79787506D01*
X68907888Y-79862033D01*
X68813033Y-79956888D01*
X68738506Y-80068426D01*
X68687171Y-80192360D01*
X68661000Y-80323927D01*
X57048000Y-80323927D01*
X57048000Y-79371427D01*
X64978000Y-79371427D01*
X64978000Y-79505573D01*
X65004171Y-79637140D01*
X65055506Y-79761074D01*
X65130033Y-79872612D01*
X65224888Y-79967467D01*
X65336426Y-80041994D01*
X65460360Y-80093329D01*
X65591927Y-80119500D01*
X65726073Y-80119500D01*
X65857640Y-80093329D01*
X65981574Y-80041994D01*
X66093112Y-79967467D01*
X66187967Y-79872612D01*
X66262494Y-79761074D01*
X66288708Y-79697787D01*
X66304388Y-79713467D01*
X66415926Y-79787994D01*
X66539860Y-79839329D01*
X66671427Y-79865500D01*
X66805573Y-79865500D01*
X66937140Y-79839329D01*
X67061074Y-79787994D01*
X67172612Y-79713467D01*
X67267467Y-79618612D01*
X67341994Y-79507074D01*
X67393329Y-79383140D01*
X67419500Y-79251573D01*
X67419500Y-79117427D01*
X67393329Y-78985860D01*
X67341994Y-78861926D01*
X67267467Y-78750388D01*
X67172612Y-78655533D01*
X67061074Y-78581006D01*
X66937140Y-78529671D01*
X66805573Y-78503500D01*
X66671427Y-78503500D01*
X66539860Y-78529671D01*
X66415926Y-78581006D01*
X66304388Y-78655533D01*
X66209533Y-78750388D01*
X66135006Y-78861926D01*
X66108792Y-78925213D01*
X66093112Y-78909533D01*
X65981574Y-78835006D01*
X65857640Y-78783671D01*
X65726073Y-78757500D01*
X65591927Y-78757500D01*
X65460360Y-78783671D01*
X65336426Y-78835006D01*
X65224888Y-78909533D01*
X65130033Y-79004388D01*
X65055506Y-79115926D01*
X65004171Y-79239860D01*
X64978000Y-79371427D01*
X57048000Y-79371427D01*
X57048000Y-76352000D01*
X59590920Y-76352000D01*
X59001891Y-76941031D01*
%TA.AperFunction,Conductor*%
D17*
G36*
X59001891Y-76941031D02*
G01*
X59001888Y-76941033D01*
X58907033Y-77035888D01*
X58888349Y-77063850D01*
X58867031Y-77089827D01*
X58851190Y-77119464D01*
X58832506Y-77147426D01*
X58819638Y-77178492D01*
X58803795Y-77208132D01*
X58794038Y-77240296D01*
X58781171Y-77271360D01*
X58774611Y-77304337D01*
X58764854Y-77336502D01*
X58761559Y-77369952D01*
X58755000Y-77402927D01*
X58755000Y-77436547D01*
X58751705Y-77470000D01*
X58755000Y-77503453D01*
X58755000Y-77537073D01*
X58761559Y-77570048D01*
X58764854Y-77603498D01*
X58774611Y-77635663D01*
X58781171Y-77668640D01*
X58794038Y-77699704D01*
X58803795Y-77731868D01*
X58819638Y-77761508D01*
X58832506Y-77792574D01*
X58851190Y-77820536D01*
X58867031Y-77850173D01*
X58888349Y-77876150D01*
X58907033Y-77904112D01*
X58930810Y-77927889D01*
X58952131Y-77953869D01*
X58978111Y-77975190D01*
X59001888Y-77998967D01*
X59029850Y-78017651D01*
X59055827Y-78038969D01*
X59085464Y-78054810D01*
X59113426Y-78073494D01*
X59144492Y-78086362D01*
X59174132Y-78102205D01*
X59206296Y-78111962D01*
X59237360Y-78124829D01*
X59270337Y-78131389D01*
X59302502Y-78141146D01*
X59335952Y-78144441D01*
X59368927Y-78151000D01*
X59402547Y-78151000D01*
X59436000Y-78154295D01*
X59469453Y-78151000D01*
X59503073Y-78151000D01*
X59536048Y-78144441D01*
X59569498Y-78141146D01*
X59601663Y-78131389D01*
X59634640Y-78124829D01*
X59665704Y-78111962D01*
X59697868Y-78102205D01*
X59727508Y-78086362D01*
X59758574Y-78073494D01*
X59786536Y-78054810D01*
X59816173Y-78038969D01*
X59842150Y-78017651D01*
X59870112Y-77998967D01*
X59964967Y-77904112D01*
X59964969Y-77904109D01*
X60518080Y-77350999D01*
X71973329Y-77350999D01*
X71963000Y-77402927D01*
X71963000Y-77537073D01*
X71989171Y-77668640D01*
X72040506Y-77792574D01*
X72115033Y-77904112D01*
X72125349Y-77914428D01*
X72077574Y-77882506D01*
X71953640Y-77831171D01*
X71822073Y-77805000D01*
X71687927Y-77805000D01*
X71556360Y-77831171D01*
X71432426Y-77882506D01*
X71320888Y-77957033D01*
X71226033Y-78051888D01*
X71151506Y-78163426D01*
X71100171Y-78287360D01*
X71074000Y-78418927D01*
X71074000Y-78553073D01*
X71100171Y-78684640D01*
X71151506Y-78808574D01*
X71226033Y-78920112D01*
X71320888Y-79014967D01*
X71432426Y-79089494D01*
X71556360Y-79140829D01*
X71687927Y-79167000D01*
X71822073Y-79167000D01*
X71953640Y-79140829D01*
X72077574Y-79089494D01*
X72189112Y-79014967D01*
X72199500Y-79004579D01*
X72209888Y-79014967D01*
X72321426Y-79089494D01*
X72445360Y-79140829D01*
X72576927Y-79167000D01*
X72711073Y-79167000D01*
X72842640Y-79140829D01*
X72966574Y-79089494D01*
X73078112Y-79014967D01*
X73152000Y-78941079D01*
X73225888Y-79014967D01*
X73337426Y-79089494D01*
X73461360Y-79140829D01*
X73592927Y-79167000D01*
X73727073Y-79167000D01*
X73858640Y-79140829D01*
X73982574Y-79089494D01*
X74094112Y-79014967D01*
X74188967Y-78920112D01*
X74263494Y-78808574D01*
X74314829Y-78684640D01*
X74341000Y-78553073D01*
X74341000Y-78418927D01*
X74314829Y-78287360D01*
X74263494Y-78163426D01*
X74188967Y-78051888D01*
X74115079Y-77978000D01*
X74168000Y-77925079D01*
X74241888Y-77998967D01*
X74353426Y-78073494D01*
X74477360Y-78124829D01*
X74608927Y-78151000D01*
X74743073Y-78151000D01*
X74874640Y-78124829D01*
X74998574Y-78073494D01*
X75110112Y-77998967D01*
X75184000Y-77925079D01*
X75257888Y-77998967D01*
X75369426Y-78073494D01*
X75493360Y-78124829D01*
X75624927Y-78151000D01*
X75759073Y-78151000D01*
X75890640Y-78124829D01*
X76014574Y-78073494D01*
X76126112Y-77998967D01*
X76200000Y-77925079D01*
X76273888Y-77998967D01*
X76385426Y-78073494D01*
X76509360Y-78124829D01*
X76640927Y-78151000D01*
X76775073Y-78151000D01*
X76906640Y-78124829D01*
X77030574Y-78073494D01*
X77142112Y-77998967D01*
X77236967Y-77904112D01*
X77311494Y-77792574D01*
X77319110Y-77774188D01*
X80835336Y-81290415D01*
X80811000Y-81412757D01*
X80811000Y-81655243D01*
X80858307Y-81893069D01*
X80951102Y-82117097D01*
X81085820Y-82318717D01*
X81156102Y-82388999D01*
X76732881Y-82388999D01*
X76679317Y-82335436D01*
X76663410Y-82316052D01*
X76586057Y-82252571D01*
X76497805Y-82205399D01*
X76402047Y-82176351D01*
X76327409Y-82169000D01*
X76327406Y-82169000D01*
X76302462Y-82166543D01*
X76277518Y-82169000D01*
X75303512Y-82169000D01*
X75379574Y-82137494D01*
X75491112Y-82062967D01*
X75585967Y-81968112D01*
X75660494Y-81856574D01*
X75711829Y-81732640D01*
X75738000Y-81601073D01*
X75738000Y-81466927D01*
X75711829Y-81335360D01*
X75660494Y-81211426D01*
X75585967Y-81099888D01*
X75491112Y-81005033D01*
X75379574Y-80930506D01*
X75255640Y-80879171D01*
X75124073Y-80853000D01*
X74989927Y-80853000D01*
X74858360Y-80879171D01*
X74734426Y-80930506D01*
X74622888Y-81005033D01*
X74528033Y-81099888D01*
X74453506Y-81211426D01*
X74408693Y-81319614D01*
X74348112Y-81259033D01*
X74236574Y-81184506D01*
X74112640Y-81133171D01*
X73981073Y-81107000D01*
X73846927Y-81107000D01*
X73715360Y-81133171D01*
X73591426Y-81184506D01*
X73479888Y-81259033D01*
X73385033Y-81353888D01*
X73310506Y-81465426D01*
X73259171Y-81589360D01*
X73233000Y-81720927D01*
X73233000Y-81772048D01*
X73223640Y-81768171D01*
X73092073Y-81742000D01*
X73071000Y-81742000D01*
X73071000Y-81720927D01*
X73044829Y-81589360D01*
X72993494Y-81465426D01*
X72918967Y-81353888D01*
X72824112Y-81259033D01*
X72712574Y-81184506D01*
X72588640Y-81133171D01*
X72457073Y-81107000D01*
X72322927Y-81107000D01*
X72191360Y-81133171D01*
X72067426Y-81184506D01*
X71955888Y-81259033D01*
X71861033Y-81353888D01*
X71786506Y-81465426D01*
X71735171Y-81589360D01*
X71709000Y-81720927D01*
X71709000Y-81855073D01*
X71735171Y-81986640D01*
X71786506Y-82110574D01*
X71861033Y-82222112D01*
X71955888Y-82316967D01*
X72067426Y-82391494D01*
X72191360Y-82442829D01*
X72322927Y-82469000D01*
X72344000Y-82469000D01*
X72344000Y-82490073D01*
X72370171Y-82621640D01*
X72421506Y-82745574D01*
X72496033Y-82857112D01*
X72590888Y-82951967D01*
X72702426Y-83026494D01*
X72826360Y-83077829D01*
X72957927Y-83104000D01*
X73092073Y-83104000D01*
X73223640Y-83077829D01*
X73347574Y-83026494D01*
X73459112Y-82951967D01*
X73553967Y-82857112D01*
X73628494Y-82745574D01*
X73679829Y-82621640D01*
X73706000Y-82490073D01*
X73706000Y-82438952D01*
X73715360Y-82442829D01*
X73776824Y-82455055D01*
X73767171Y-82478360D01*
X73741000Y-82609927D01*
X73741000Y-82744073D01*
X73767171Y-82875640D01*
X73818506Y-82999574D01*
X73893033Y-83111112D01*
X73987888Y-83205967D01*
X74099426Y-83280494D01*
X74223360Y-83331829D01*
X74354927Y-83358000D01*
X74489073Y-83358000D01*
X74620640Y-83331829D01*
X74744574Y-83280494D01*
X74856112Y-83205967D01*
X74877079Y-83185000D01*
X75355647Y-83185000D01*
X75341200Y-83257627D01*
X75341200Y-83391773D01*
X75367371Y-83523340D01*
X75418706Y-83647274D01*
X75478371Y-83736570D01*
X75384888Y-83799033D01*
X75290033Y-83893888D01*
X75215506Y-84005426D01*
X75164171Y-84129360D01*
X75138000Y-84260927D01*
X75138000Y-84395073D01*
X75164171Y-84526640D01*
X75215506Y-84650574D01*
X75290033Y-84762112D01*
X75384888Y-84856967D01*
X75496426Y-84931494D01*
X75572488Y-84963000D01*
X75496426Y-84994506D01*
X75384888Y-85069033D01*
X75290033Y-85163888D01*
X75215506Y-85275426D01*
X75164171Y-85399360D01*
X75138000Y-85530927D01*
X75138000Y-85665073D01*
X75164171Y-85796640D01*
X75215506Y-85920574D01*
X75290033Y-86032112D01*
X75384888Y-86126967D01*
X75496426Y-86201494D01*
X75620360Y-86252829D01*
X75751927Y-86279000D01*
X75886073Y-86279000D01*
X76017640Y-86252829D01*
X76141574Y-86201494D01*
X76253112Y-86126967D01*
X76347967Y-86032112D01*
X76422494Y-85920574D01*
X76469952Y-85806001D01*
X81109102Y-85806001D01*
X81085820Y-85829283D01*
X80951102Y-86030903D01*
X80858307Y-86254931D01*
X80811000Y-86492757D01*
X80811000Y-86735243D01*
X80858307Y-86973069D01*
X80951102Y-87197097D01*
X81085820Y-87398717D01*
X81257283Y-87570180D01*
X81458903Y-87704898D01*
X81682931Y-87797693D01*
X81920757Y-87845000D01*
X82163243Y-87845000D01*
X82401069Y-87797693D01*
X82625097Y-87704898D01*
X82826717Y-87570180D01*
X82998180Y-87398717D01*
X83132898Y-87197097D01*
X83225693Y-86973069D01*
X83273000Y-86735243D01*
X83273000Y-86492757D01*
X83225693Y-86254931D01*
X83132898Y-86030903D01*
X82998180Y-85829283D01*
X82974898Y-85806001D01*
X83649102Y-85806001D01*
X83625820Y-85829283D01*
X83491102Y-86030903D01*
X83398307Y-86254931D01*
X83351000Y-86492757D01*
X83351000Y-86735243D01*
X83398307Y-86973069D01*
X83491102Y-87197097D01*
X83625820Y-87398717D01*
X83797283Y-87570180D01*
X83998903Y-87704898D01*
X84222931Y-87797693D01*
X84460757Y-87845000D01*
X84703243Y-87845000D01*
X84941069Y-87797693D01*
X85165097Y-87704898D01*
X85366717Y-87570180D01*
X85538180Y-87398717D01*
X85672898Y-87197097D01*
X85765693Y-86973069D01*
X85813000Y-86735243D01*
X85813000Y-86492757D01*
X85765693Y-86254931D01*
X85672898Y-86030903D01*
X85538180Y-85829283D01*
X85514898Y-85806001D01*
X85595581Y-85806001D01*
X85969413Y-86179833D01*
X85938307Y-86254931D01*
X85891000Y-86492757D01*
X85891000Y-86735243D01*
X85938307Y-86973069D01*
X86031102Y-87197097D01*
X86165820Y-87398717D01*
X86337283Y-87570180D01*
X86538903Y-87704898D01*
X86762931Y-87797693D01*
X87000757Y-87845000D01*
X87243243Y-87845000D01*
X87481069Y-87797693D01*
X87705097Y-87704898D01*
X87906717Y-87570180D01*
X88078180Y-87398717D01*
X88212898Y-87197097D01*
X88305693Y-86973069D01*
X88353000Y-86735243D01*
X88353000Y-86492757D01*
X88305693Y-86254931D01*
X88212898Y-86030903D01*
X88078180Y-85829283D01*
X87906717Y-85657820D01*
X87705097Y-85523102D01*
X87481069Y-85430307D01*
X87243243Y-85383000D01*
X87000757Y-85383000D01*
X86762931Y-85430307D01*
X86687833Y-85461413D01*
X86182856Y-84956436D01*
X86166949Y-84937053D01*
X86089596Y-84873572D01*
X86001344Y-84826400D01*
X85905586Y-84797352D01*
X85830948Y-84790001D01*
X85830945Y-84790001D01*
X85806001Y-84787544D01*
X85781057Y-84790001D01*
X85584095Y-84790001D01*
X85672898Y-84657097D01*
X85765693Y-84433069D01*
X85813000Y-84195243D01*
X85813000Y-83952757D01*
X85765693Y-83714931D01*
X85672898Y-83490903D01*
X85615499Y-83404999D01*
X85734579Y-83404999D01*
X85969413Y-83639833D01*
X85938307Y-83714931D01*
X85891000Y-83952757D01*
X85891000Y-84195243D01*
X85938307Y-84433069D01*
X86031102Y-84657097D01*
X86165820Y-84858717D01*
X86337283Y-85030180D01*
X86538903Y-85164898D01*
X86762931Y-85257693D01*
X87000757Y-85305000D01*
X87243243Y-85305000D01*
X87481069Y-85257693D01*
X87705097Y-85164898D01*
X87906717Y-85030180D01*
X88078180Y-84858717D01*
X88212898Y-84657097D01*
X88305693Y-84433069D01*
X88353000Y-84195243D01*
X88353000Y-83952757D01*
X88305693Y-83714931D01*
X88212898Y-83490903D01*
X88078180Y-83289283D01*
X87906717Y-83117820D01*
X87705097Y-82983102D01*
X87481069Y-82890307D01*
X87243243Y-82843000D01*
X87000757Y-82843000D01*
X86762931Y-82890307D01*
X86687833Y-82921413D01*
X86321854Y-82555434D01*
X86305947Y-82536051D01*
X86228594Y-82472570D01*
X86140342Y-82425398D01*
X86044584Y-82396350D01*
X85969946Y-82388999D01*
X85969943Y-82388999D01*
X85944999Y-82386542D01*
X85920055Y-82388999D01*
X85467898Y-82388999D01*
X85538180Y-82318717D01*
X85607481Y-82215000D01*
X86096519Y-82215000D01*
X86165820Y-82318717D01*
X86337283Y-82490180D01*
X86538903Y-82624898D01*
X86762931Y-82717693D01*
X87000757Y-82765000D01*
X87243243Y-82765000D01*
X87481069Y-82717693D01*
X87705097Y-82624898D01*
X87906717Y-82490180D01*
X88078180Y-82318717D01*
X88212898Y-82117097D01*
X88305693Y-81893069D01*
X88353000Y-81655243D01*
X88353000Y-81412757D01*
X88305693Y-81174931D01*
X88212898Y-80950903D01*
X88078180Y-80749283D01*
X87906717Y-80577820D01*
X87705097Y-80443102D01*
X87481069Y-80350307D01*
X87243243Y-80303000D01*
X87000757Y-80303000D01*
X86762931Y-80350307D01*
X86538903Y-80443102D01*
X86337283Y-80577820D01*
X86165820Y-80749283D01*
X86096519Y-80853000D01*
X85607481Y-80853000D01*
X85538180Y-80749283D01*
X85366717Y-80577820D01*
X85165097Y-80443102D01*
X84941069Y-80350307D01*
X84703243Y-80303000D01*
X84460757Y-80303000D01*
X84222931Y-80350307D01*
X83998903Y-80443102D01*
X83797283Y-80577820D01*
X83625820Y-80749283D01*
X83556519Y-80853000D01*
X83067481Y-80853000D01*
X82998180Y-80749283D01*
X82826717Y-80577820D01*
X82625097Y-80443102D01*
X82401069Y-80350307D01*
X82163243Y-80303000D01*
X81920757Y-80303000D01*
X81798415Y-80327336D01*
X81697923Y-80226843D01*
X82892000Y-80226843D01*
X82966689Y-80219487D01*
X83038508Y-80197701D01*
X83104696Y-80162322D01*
X83162711Y-80114711D01*
X83210322Y-80056696D01*
X83245701Y-79990508D01*
X83267487Y-79918689D01*
X83274843Y-79844000D01*
X83274843Y-78872757D01*
X83351000Y-78872757D01*
X83351000Y-79115243D01*
X83398307Y-79353069D01*
X83491102Y-79577097D01*
X83625820Y-79778717D01*
X83797283Y-79950180D01*
X83998903Y-80084898D01*
X84222931Y-80177693D01*
X84460757Y-80225000D01*
X84703243Y-80225000D01*
X84941069Y-80177693D01*
X85165097Y-80084898D01*
X85366717Y-79950180D01*
X85538180Y-79778717D01*
X85672898Y-79577097D01*
X85765693Y-79353069D01*
X85813000Y-79115243D01*
X85813000Y-78872757D01*
X85891000Y-78872757D01*
X85891000Y-79115243D01*
X85938307Y-79353069D01*
X86031102Y-79577097D01*
X86165820Y-79778717D01*
X86337283Y-79950180D01*
X86538903Y-80084898D01*
X86762931Y-80177693D01*
X87000757Y-80225000D01*
X87243243Y-80225000D01*
X87481069Y-80177693D01*
X87705097Y-80084898D01*
X87906717Y-79950180D01*
X88078180Y-79778717D01*
X88212898Y-79577097D01*
X88305693Y-79353069D01*
X88353000Y-79115243D01*
X88353000Y-78872757D01*
X88305693Y-78634931D01*
X88212898Y-78410903D01*
X88078180Y-78209283D01*
X87906717Y-78037820D01*
X87705097Y-77903102D01*
X87481069Y-77810307D01*
X87243243Y-77763000D01*
X87000757Y-77763000D01*
X86762931Y-77810307D01*
X86538903Y-77903102D01*
X86337283Y-78037820D01*
X86165820Y-78209283D01*
X86031102Y-78410903D01*
X85938307Y-78634931D01*
X85891000Y-78872757D01*
X85813000Y-78872757D01*
X85765693Y-78634931D01*
X85672898Y-78410903D01*
X85538180Y-78209283D01*
X85366717Y-78037820D01*
X85165097Y-77903102D01*
X84941069Y-77810307D01*
X84703243Y-77763000D01*
X84460757Y-77763000D01*
X84222931Y-77810307D01*
X83998903Y-77903102D01*
X83797283Y-78037820D01*
X83625820Y-78209283D01*
X83491102Y-78410903D01*
X83398307Y-78634931D01*
X83351000Y-78872757D01*
X83274843Y-78872757D01*
X83274843Y-78144000D01*
X83267487Y-78069311D01*
X83245701Y-77997492D01*
X83210322Y-77931304D01*
X83162711Y-77873289D01*
X83104696Y-77825678D01*
X83038508Y-77790299D01*
X82966689Y-77768513D01*
X82892000Y-77761157D01*
X81192000Y-77761157D01*
X81117311Y-77768513D01*
X81045492Y-77790299D01*
X80979304Y-77825678D01*
X80921289Y-77873289D01*
X80873678Y-77931304D01*
X80838299Y-77997492D01*
X80816513Y-78069311D01*
X80809157Y-78144000D01*
X80809157Y-79338078D01*
X79377118Y-77906040D01*
X79428112Y-77871967D01*
X79522967Y-77777112D01*
X79597494Y-77665574D01*
X79648829Y-77541640D01*
X79675000Y-77410073D01*
X79675000Y-77275927D01*
X79648829Y-77144360D01*
X79597494Y-77020426D01*
X79522967Y-76908888D01*
X79428112Y-76814033D01*
X79316574Y-76739506D01*
X79192640Y-76688171D01*
X79061073Y-76662000D01*
X78926927Y-76662000D01*
X78795360Y-76688171D01*
X78671426Y-76739506D01*
X78559888Y-76814033D01*
X78465033Y-76908888D01*
X78430960Y-76959882D01*
X77823078Y-76352000D01*
X90780000Y-76352000D01*
X90780000Y-80411064D01*
X90724696Y-80365678D01*
X90658508Y-80330299D01*
X90586689Y-80308513D01*
X90512000Y-80301157D01*
X88812000Y-80301157D01*
X88737311Y-80308513D01*
X88665492Y-80330299D01*
X88599304Y-80365678D01*
X88541289Y-80413289D01*
X88493678Y-80471304D01*
X88458299Y-80537492D01*
X88436513Y-80609311D01*
X88429157Y-80684000D01*
X88429157Y-82384000D01*
X88436513Y-82458689D01*
X88458299Y-82530508D01*
X88493678Y-82596696D01*
X88541289Y-82654711D01*
X88599304Y-82702322D01*
X88665492Y-82737701D01*
X88737311Y-82759487D01*
X88812000Y-82766843D01*
X90512000Y-82766843D01*
X90586689Y-82759487D01*
X90658508Y-82737701D01*
X90724696Y-82702322D01*
X90780000Y-82656935D01*
X90780000Y-83556334D01*
X90752898Y-83490903D01*
X90618180Y-83289283D01*
X90446717Y-83117820D01*
X90245097Y-82983102D01*
X90021069Y-82890307D01*
X89783243Y-82843000D01*
X89540757Y-82843000D01*
X89302931Y-82890307D01*
X89078903Y-82983102D01*
X88877283Y-83117820D01*
X88705820Y-83289283D01*
X88571102Y-83490903D01*
X88478307Y-83714931D01*
X88431000Y-83952757D01*
X88431000Y-84195243D01*
X88478307Y-84433069D01*
X88571102Y-84657097D01*
X88705820Y-84858717D01*
X88877283Y-85030180D01*
X89078903Y-85164898D01*
X89302931Y-85257693D01*
X89540757Y-85305000D01*
X89783243Y-85305000D01*
X90021069Y-85257693D01*
X90245097Y-85164898D01*
X90446717Y-85030180D01*
X90618180Y-84858717D01*
X90752898Y-84657097D01*
X90780001Y-84591665D01*
X90780001Y-91542000D01*
X76272496Y-91542000D01*
X76293494Y-91510574D01*
X76344829Y-91386640D01*
X76371000Y-91255073D01*
X76371000Y-91120927D01*
X76344829Y-90989360D01*
X76293494Y-90865426D01*
X76218967Y-90753888D01*
X76124112Y-90659033D01*
X76012574Y-90584506D01*
X75888640Y-90533171D01*
X75757073Y-90507000D01*
X75622927Y-90507000D01*
X75491360Y-90533171D01*
X75367426Y-90584506D01*
X75255888Y-90659033D01*
X75161033Y-90753888D01*
X75086506Y-90865426D01*
X75035171Y-90989360D01*
X75009000Y-91120927D01*
X75009000Y-91255073D01*
X75035171Y-91386640D01*
X75086506Y-91510574D01*
X75107504Y-91542000D01*
X57048000Y-91542000D01*
X57048000Y-90610927D01*
X57612000Y-90610927D01*
X57612000Y-90745073D01*
X57638171Y-90876640D01*
X57689506Y-91000574D01*
X57764033Y-91112112D01*
X57858888Y-91206967D01*
X57970426Y-91281494D01*
X58094360Y-91332829D01*
X58225927Y-91359000D01*
X58360073Y-91359000D01*
X58491640Y-91332829D01*
X58615574Y-91281494D01*
X58727112Y-91206967D01*
X58821967Y-91112112D01*
X58896494Y-91000574D01*
X58947829Y-90876640D01*
X58974000Y-90745073D01*
X58974000Y-90610927D01*
X59438500Y-90610927D01*
X59438500Y-90745073D01*
X59464671Y-90876640D01*
X59516006Y-91000574D01*
X59590533Y-91112112D01*
X59685388Y-91206967D01*
X59796926Y-91281494D01*
X59920860Y-91332829D01*
X60052427Y-91359000D01*
X60186573Y-91359000D01*
X60318140Y-91332829D01*
X60442074Y-91281494D01*
X60553612Y-91206967D01*
X60648467Y-91112112D01*
X60722994Y-91000574D01*
X60774329Y-90876640D01*
X60800500Y-90745073D01*
X60800500Y-90610927D01*
X64597000Y-90610927D01*
X64597000Y-90745073D01*
X64623171Y-90876640D01*
X64674506Y-91000574D01*
X64749033Y-91112112D01*
X64843888Y-91206967D01*
X64955426Y-91281494D01*
X65079360Y-91332829D01*
X65210927Y-91359000D01*
X65345073Y-91359000D01*
X65476640Y-91332829D01*
X65600574Y-91281494D01*
X65712112Y-91206967D01*
X65806967Y-91112112D01*
X65881494Y-91000574D01*
X65932829Y-90876640D01*
X65959000Y-90745073D01*
X65959000Y-90610927D01*
X65932829Y-90479360D01*
X65881494Y-90355426D01*
X65806967Y-90243888D01*
X65712112Y-90149033D01*
X65600574Y-90074506D01*
X65476640Y-90023171D01*
X65345073Y-89997000D01*
X65210927Y-89997000D01*
X65079360Y-90023171D01*
X64955426Y-90074506D01*
X64843888Y-90149033D01*
X64749033Y-90243888D01*
X64674506Y-90355426D01*
X64623171Y-90479360D01*
X64597000Y-90610927D01*
X60800500Y-90610927D01*
X60774329Y-90479360D01*
X60722994Y-90355426D01*
X60648467Y-90243888D01*
X60553612Y-90149033D01*
X60442074Y-90074506D01*
X60318140Y-90023171D01*
X60186573Y-89997000D01*
X60052427Y-89997000D01*
X59920860Y-90023171D01*
X59796926Y-90074506D01*
X59685388Y-90149033D01*
X59590533Y-90243888D01*
X59516006Y-90355426D01*
X59464671Y-90479360D01*
X59438500Y-90610927D01*
X58974000Y-90610927D01*
X58947829Y-90479360D01*
X58896494Y-90355426D01*
X58821967Y-90243888D01*
X58727112Y-90149033D01*
X58615574Y-90074506D01*
X58491640Y-90023171D01*
X58360073Y-89997000D01*
X58225927Y-89997000D01*
X58094360Y-90023171D01*
X57970426Y-90074506D01*
X57858888Y-90149033D01*
X57764033Y-90243888D01*
X57689506Y-90355426D01*
X57638171Y-90479360D01*
X57612000Y-90610927D01*
X57048000Y-90610927D01*
X57048000Y-86896927D01*
X61729000Y-86896927D01*
X61729000Y-87031073D01*
X61755171Y-87162640D01*
X61806506Y-87286574D01*
X61881033Y-87398112D01*
X61975888Y-87492967D01*
X62087426Y-87567494D01*
X62211360Y-87618829D01*
X62342927Y-87645000D01*
X62477073Y-87645000D01*
X62608640Y-87618829D01*
X62732574Y-87567494D01*
X62844112Y-87492967D01*
X62938967Y-87398112D01*
X63013494Y-87286574D01*
X63064829Y-87162640D01*
X63091000Y-87031073D01*
X63091000Y-86896927D01*
X63064829Y-86765360D01*
X63013494Y-86641426D01*
X62938967Y-86529888D01*
X62844112Y-86435033D01*
X62732574Y-86360506D01*
X62608640Y-86309171D01*
X62477073Y-86283000D01*
X62342927Y-86283000D01*
X62211360Y-86309171D01*
X62087426Y-86360506D01*
X61975888Y-86435033D01*
X61881033Y-86529888D01*
X61806506Y-86641426D01*
X61755171Y-86765360D01*
X61729000Y-86896927D01*
X57048000Y-86896927D01*
X57048000Y-82990927D01*
X66375000Y-82990927D01*
X66375000Y-83125073D01*
X66401171Y-83256640D01*
X66452506Y-83380574D01*
X66527033Y-83492112D01*
X66600921Y-83566000D01*
X66527033Y-83639888D01*
X66452506Y-83751426D01*
X66401171Y-83875360D01*
X66375000Y-84006927D01*
X66375000Y-84141073D01*
X66401171Y-84272640D01*
X66452506Y-84396574D01*
X66527033Y-84508112D01*
X66600921Y-84582000D01*
X66527033Y-84655888D01*
X66452506Y-84767426D01*
X66401171Y-84891360D01*
X66375000Y-85022927D01*
X66375000Y-85157073D01*
X66401171Y-85288640D01*
X66452506Y-85412574D01*
X66527033Y-85524112D01*
X66621888Y-85618967D01*
X66733426Y-85693494D01*
X66857360Y-85744829D01*
X66988927Y-85771000D01*
X67123073Y-85771000D01*
X67254640Y-85744829D01*
X67310001Y-85721898D01*
X67310001Y-88689579D01*
X67018580Y-88981000D01*
X66988927Y-88981000D01*
X66857360Y-89007171D01*
X66733426Y-89058506D01*
X66621888Y-89133033D01*
X66527033Y-89227888D01*
X66452506Y-89339426D01*
X66401171Y-89463360D01*
X66375000Y-89594927D01*
X66375000Y-89729073D01*
X66401171Y-89860640D01*
X66452506Y-89984574D01*
X66527033Y-90096112D01*
X66621888Y-90190967D01*
X66733426Y-90265494D01*
X66857360Y-90316829D01*
X66988927Y-90343000D01*
X67123073Y-90343000D01*
X67254640Y-90316829D01*
X67378574Y-90265494D01*
X67490112Y-90190967D01*
X67584967Y-90096112D01*
X67659494Y-89984574D01*
X67691000Y-89908512D01*
X67722506Y-89984574D01*
X67797033Y-90096112D01*
X67891888Y-90190967D01*
X68003426Y-90265494D01*
X68127360Y-90316829D01*
X68258927Y-90343000D01*
X68393073Y-90343000D01*
X68524640Y-90316829D01*
X68648574Y-90265494D01*
X68760112Y-90190967D01*
X68820152Y-90130927D01*
X71455000Y-90130927D01*
X71455000Y-90265073D01*
X71481171Y-90396640D01*
X71532506Y-90520574D01*
X71607033Y-90632112D01*
X71701888Y-90726967D01*
X71813426Y-90801494D01*
X71937360Y-90852829D01*
X72068927Y-90879000D01*
X72203073Y-90879000D01*
X72334640Y-90852829D01*
X72458574Y-90801494D01*
X72570112Y-90726967D01*
X72644000Y-90653079D01*
X72717888Y-90726967D01*
X72829426Y-90801494D01*
X72953360Y-90852829D01*
X73084927Y-90879000D01*
X73219073Y-90879000D01*
X73350640Y-90852829D01*
X73474574Y-90801494D01*
X73586112Y-90726967D01*
X73680967Y-90632112D01*
X73755494Y-90520574D01*
X73806829Y-90396640D01*
X73833000Y-90265073D01*
X73833000Y-90130927D01*
X73827431Y-90102927D01*
X77551000Y-90102927D01*
X77551000Y-90237073D01*
X77577171Y-90368640D01*
X77628506Y-90492574D01*
X77703033Y-90604112D01*
X77797888Y-90698967D01*
X77909426Y-90773494D01*
X78033360Y-90824829D01*
X78164927Y-90851000D01*
X78299073Y-90851000D01*
X78430640Y-90824829D01*
X78554574Y-90773494D01*
X78666112Y-90698967D01*
X78760967Y-90604112D01*
X78835494Y-90492574D01*
X78886829Y-90368640D01*
X78913000Y-90237073D01*
X78913000Y-90102927D01*
X78886829Y-89971360D01*
X78835494Y-89847426D01*
X78760967Y-89735888D01*
X78666112Y-89641033D01*
X78554574Y-89566506D01*
X78430640Y-89515171D01*
X78299073Y-89489000D01*
X78164927Y-89489000D01*
X78033360Y-89515171D01*
X77909426Y-89566506D01*
X77797888Y-89641033D01*
X77703033Y-89735888D01*
X77628506Y-89847426D01*
X77577171Y-89971360D01*
X77551000Y-90102927D01*
X73827431Y-90102927D01*
X73806829Y-89999360D01*
X73755494Y-89875426D01*
X73680967Y-89763888D01*
X73586112Y-89669033D01*
X73474574Y-89594506D01*
X73350640Y-89543171D01*
X73219073Y-89517000D01*
X73084927Y-89517000D01*
X72953360Y-89543171D01*
X72829426Y-89594506D01*
X72717888Y-89669033D01*
X72644000Y-89742921D01*
X72570112Y-89669033D01*
X72458574Y-89594506D01*
X72334640Y-89543171D01*
X72203073Y-89517000D01*
X72068927Y-89517000D01*
X71937360Y-89543171D01*
X71813426Y-89594506D01*
X71701888Y-89669033D01*
X71607033Y-89763888D01*
X71532506Y-89875426D01*
X71481171Y-89999360D01*
X71455000Y-90130927D01*
X68820152Y-90130927D01*
X68854967Y-90096112D01*
X68929494Y-89984574D01*
X68980829Y-89860640D01*
X69007000Y-89729073D01*
X69007000Y-89594927D01*
X68980829Y-89463360D01*
X68929494Y-89339426D01*
X68854967Y-89227888D01*
X68760112Y-89133033D01*
X68691110Y-89086927D01*
X69169000Y-89086927D01*
X69169000Y-89221073D01*
X69195171Y-89352640D01*
X69246506Y-89476574D01*
X69321033Y-89588112D01*
X69415888Y-89682967D01*
X69527426Y-89757494D01*
X69651360Y-89808829D01*
X69782927Y-89835000D01*
X69917073Y-89835000D01*
X70048640Y-89808829D01*
X70172574Y-89757494D01*
X70284112Y-89682967D01*
X70378967Y-89588112D01*
X70453494Y-89476574D01*
X70504829Y-89352640D01*
X70531000Y-89221073D01*
X70531000Y-89191420D01*
X71715571Y-88006850D01*
X71734948Y-87990948D01*
X71753624Y-87968190D01*
X71798429Y-87913596D01*
X71845600Y-87825345D01*
X71845601Y-87825343D01*
X71874649Y-87729585D01*
X71882000Y-87654947D01*
X71882000Y-87654945D01*
X71884457Y-87630001D01*
X71882000Y-87605057D01*
X71882000Y-86757747D01*
X78440000Y-86757747D01*
X78440000Y-86891893D01*
X78466171Y-87023460D01*
X78517506Y-87147394D01*
X78592033Y-87258932D01*
X78686888Y-87353787D01*
X78798426Y-87428314D01*
X78922360Y-87479649D01*
X79053927Y-87505820D01*
X79188073Y-87505820D01*
X79319640Y-87479649D01*
X79443574Y-87428314D01*
X79555112Y-87353787D01*
X79649967Y-87258932D01*
X79724494Y-87147394D01*
X79775829Y-87023460D01*
X79802000Y-86891893D01*
X79802000Y-86757747D01*
X79775829Y-86626180D01*
X79724494Y-86502246D01*
X79649967Y-86390708D01*
X79555112Y-86295853D01*
X79443574Y-86221326D01*
X79319640Y-86169991D01*
X79188073Y-86143820D01*
X79053927Y-86143820D01*
X78922360Y-86169991D01*
X78798426Y-86221326D01*
X78686888Y-86295853D01*
X78592033Y-86390708D01*
X78517506Y-86502246D01*
X78466171Y-86626180D01*
X78440000Y-86757747D01*
X71882000Y-86757747D01*
X71882000Y-84529079D01*
X71902967Y-84508112D01*
X71977494Y-84396574D01*
X72028829Y-84272640D01*
X72055000Y-84141073D01*
X72055000Y-84006927D01*
X72028829Y-83875360D01*
X71977494Y-83751426D01*
X71902967Y-83639888D01*
X71808112Y-83545033D01*
X71696574Y-83470506D01*
X71572640Y-83419171D01*
X71441073Y-83393000D01*
X71306927Y-83393000D01*
X71175360Y-83419171D01*
X71051426Y-83470506D01*
X70939888Y-83545033D01*
X70845033Y-83639888D01*
X70770506Y-83751426D01*
X70719171Y-83875360D01*
X70693000Y-84006927D01*
X70693000Y-84141073D01*
X70719171Y-84272640D01*
X70770506Y-84396574D01*
X70845033Y-84508112D01*
X70866000Y-84529079D01*
X70866001Y-87419578D01*
X69812580Y-88473000D01*
X69782927Y-88473000D01*
X69651360Y-88499171D01*
X69527426Y-88550506D01*
X69415888Y-88625033D01*
X69321033Y-88719888D01*
X69246506Y-88831426D01*
X69195171Y-88955360D01*
X69169000Y-89086927D01*
X68691110Y-89086927D01*
X68648574Y-89058506D01*
X68524640Y-89007171D01*
X68393073Y-88981000D01*
X68320479Y-88981000D01*
X68326000Y-88924947D01*
X68326000Y-88924944D01*
X68328457Y-88900000D01*
X68326000Y-88875056D01*
X68326000Y-82243079D01*
X68346967Y-82222112D01*
X68421494Y-82110574D01*
X68472829Y-81986640D01*
X68499000Y-81855073D01*
X68499000Y-81720927D01*
X68472829Y-81589360D01*
X68421494Y-81465426D01*
X68346967Y-81353888D01*
X68252112Y-81259033D01*
X68140574Y-81184506D01*
X68016640Y-81133171D01*
X67885073Y-81107000D01*
X67750927Y-81107000D01*
X67619360Y-81133171D01*
X67495426Y-81184506D01*
X67383888Y-81259033D01*
X67289033Y-81353888D01*
X67214506Y-81465426D01*
X67163171Y-81589360D01*
X67137000Y-81720927D01*
X67137000Y-81855073D01*
X67163171Y-81986640D01*
X67214506Y-82110574D01*
X67289033Y-82222112D01*
X67310000Y-82243079D01*
X67310000Y-82426102D01*
X67254640Y-82403171D01*
X67123073Y-82377000D01*
X66988927Y-82377000D01*
X66857360Y-82403171D01*
X66733426Y-82454506D01*
X66621888Y-82529033D01*
X66527033Y-82623888D01*
X66452506Y-82735426D01*
X66401171Y-82859360D01*
X66375000Y-82990927D01*
X57048000Y-82990927D01*
X57048000Y-81116927D01*
X61729000Y-81116927D01*
X61729000Y-81251073D01*
X61755171Y-81382640D01*
X61806506Y-81506574D01*
X61881033Y-81618112D01*
X61975888Y-81712967D01*
X62087426Y-81787494D01*
X62211360Y-81838829D01*
X62342927Y-81865000D01*
X62477073Y-81865000D01*
X62608640Y-81838829D01*
X62732574Y-81787494D01*
X62844112Y-81712967D01*
X62938967Y-81618112D01*
X63013494Y-81506574D01*
X63064829Y-81382640D01*
X63091000Y-81251073D01*
X63091000Y-81116927D01*
X63064829Y-80985360D01*
X63013494Y-80861426D01*
X62938967Y-80749888D01*
X62844112Y-80655033D01*
X62732574Y-80580506D01*
X62608640Y-80529171D01*
X62477073Y-80503000D01*
X62342927Y-80503000D01*
X62211360Y-80529171D01*
X62087426Y-80580506D01*
X61975888Y-80655033D01*
X61881033Y-80749888D01*
X61806506Y-80861426D01*
X61755171Y-80985360D01*
X61729000Y-81116927D01*
X57048000Y-81116927D01*
X57048000Y-80323927D01*
X68661000Y-80323927D01*
X68661000Y-80458073D01*
X68687171Y-80589640D01*
X68738506Y-80713574D01*
X68813033Y-80825112D01*
X68907888Y-80919967D01*
X69019426Y-80994494D01*
X69143360Y-81045829D01*
X69274927Y-81072000D01*
X69409073Y-81072000D01*
X69540640Y-81045829D01*
X69664574Y-80994494D01*
X69776112Y-80919967D01*
X69870967Y-80825112D01*
X69945494Y-80713574D01*
X69996829Y-80589640D01*
X70023000Y-80458073D01*
X70023000Y-80323927D01*
X69996829Y-80192360D01*
X69945494Y-80068426D01*
X69870967Y-79956888D01*
X69776112Y-79862033D01*
X69664574Y-79787506D01*
X69540640Y-79736171D01*
X69409073Y-79710000D01*
X69274927Y-79710000D01*
X69143360Y-79736171D01*
X69019426Y-79787506D01*
X68907888Y-79862033D01*
X68813033Y-79956888D01*
X68738506Y-80068426D01*
X68687171Y-80192360D01*
X68661000Y-80323927D01*
X57048000Y-80323927D01*
X57048000Y-79371427D01*
X64978000Y-79371427D01*
X64978000Y-79505573D01*
X65004171Y-79637140D01*
X65055506Y-79761074D01*
X65130033Y-79872612D01*
X65224888Y-79967467D01*
X65336426Y-80041994D01*
X65460360Y-80093329D01*
X65591927Y-80119500D01*
X65726073Y-80119500D01*
X65857640Y-80093329D01*
X65981574Y-80041994D01*
X66093112Y-79967467D01*
X66187967Y-79872612D01*
X66262494Y-79761074D01*
X66288708Y-79697787D01*
X66304388Y-79713467D01*
X66415926Y-79787994D01*
X66539860Y-79839329D01*
X66671427Y-79865500D01*
X66805573Y-79865500D01*
X66937140Y-79839329D01*
X67061074Y-79787994D01*
X67172612Y-79713467D01*
X67267467Y-79618612D01*
X67341994Y-79507074D01*
X67393329Y-79383140D01*
X67419500Y-79251573D01*
X67419500Y-79117427D01*
X67393329Y-78985860D01*
X67341994Y-78861926D01*
X67267467Y-78750388D01*
X67172612Y-78655533D01*
X67061074Y-78581006D01*
X66937140Y-78529671D01*
X66805573Y-78503500D01*
X66671427Y-78503500D01*
X66539860Y-78529671D01*
X66415926Y-78581006D01*
X66304388Y-78655533D01*
X66209533Y-78750388D01*
X66135006Y-78861926D01*
X66108792Y-78925213D01*
X66093112Y-78909533D01*
X65981574Y-78835006D01*
X65857640Y-78783671D01*
X65726073Y-78757500D01*
X65591927Y-78757500D01*
X65460360Y-78783671D01*
X65336426Y-78835006D01*
X65224888Y-78909533D01*
X65130033Y-79004388D01*
X65055506Y-79115926D01*
X65004171Y-79239860D01*
X64978000Y-79371427D01*
X57048000Y-79371427D01*
X57048000Y-76352000D01*
X59590920Y-76352000D01*
X59001891Y-76941031D01*
G37*
%TD.AperFunction*%
%TD*%
M02*
