M48
; DRILL file {KiCad 6.0.4-6f826c9f35~116~ubuntu21.10.1} date 2022年04月05日 星期二 23时43分54秒
; FORMAT={-:-/ absolute / metric / decimal}
; #@! TF.CreationDate,2022-04-05T23:43:54+08:00
; #@! TF.GenerationSoftware,Kicad,Pcbnew,6.0.4-6f826c9f35~116~ubuntu21.10.1
; #@! TF.FileFunction,Plated,1,4,PTH
FMAT,2
METRIC
; #@! TA.AperFunction,Plated,PTH,ViaDrill
T1C0.300
; #@! TA.AperFunction,Plated,PTH,ComponentDrill
T2C0.600
; #@! TA.AperFunction,Plated,PTH,ComponentDrill
T3C1.000
%
G90
G05
T1
X59.36Y-89.61
X59.436Y-77.47
X60.119Y-90.678
X61.976Y-84.963
X65.02Y-89.88
X65.659Y-79.438
X66.739Y-79.184
X67.056Y-83.058
X67.056Y-84.074
X67.056Y-85.09
X67.056Y-89.662
X67.818Y-81.788
X68.326Y-89.662
X69.342Y-80.391
X69.85Y-89.154
X70.866Y-78.232
X70.866Y-83.439
X71.374Y-84.074
X71.755Y-78.486
X72.136Y-90.198
X72.39Y-81.788
X72.644Y-77.47
X72.644Y-78.486
X73.025Y-82.423
X73.152Y-90.198
X73.533Y-86.487
X73.66Y-77.47
X73.66Y-78.486
X73.66Y-83.058
X73.914Y-81.788
X74.041Y-84.709
X74.422Y-82.677
X74.676Y-77.47
X75.057Y-81.534
X75.69Y-91.188
X75.692Y-77.47
X75.819Y-84.328
X75.819Y-85.598
X76.022Y-83.325
X76.708Y-77.47
X78.232Y-90.17
X78.994Y-77.343
X79.121Y-86.825
X79.85Y-84.19
T3
X82.042Y-78.994
X82.042Y-81.534
X82.042Y-84.074
X82.042Y-86.614
X82.042Y-89.154
X84.582Y-78.994
X84.582Y-81.534
X84.582Y-84.074
X84.582Y-86.614
X84.582Y-89.154
X87.122Y-78.994
X87.122Y-81.534
X87.122Y-84.074
X87.122Y-86.614
X87.122Y-89.154
X89.662Y-81.534
X89.662Y-84.074
X89.662Y-86.614
T2
G00X58.32Y-79.754
M15
G01X59.12Y-79.754
M16
G05
G00X58.32Y-88.394
M15
G01X59.12Y-88.394
M16
G05
G00X62.34Y-79.754
M15
G01X63.44Y-79.754
M16
G05
G00X62.34Y-88.394
M15
G01X63.44Y-88.394
M16
G05
T0
M30
