%TF.GenerationSoftware,KiCad,Pcbnew,6.0.4-6f826c9f35~116~ubuntu21.10.1*%
%TF.CreationDate,2022-04-05T23:43:51+08:00*%
%TF.ProjectId,ST_Link_V2.1,53545f4c-696e-46b5-9f56-322e312e6b69,rev?*%
%TF.SameCoordinates,Original*%
%TF.FileFunction,Paste,Top*%
%TF.FilePolarity,Positive*%
%FSLAX46Y46*%
G04 Gerber Fmt 4.6, Leading zero omitted, Abs format (unit mm)*
G04 Created by KiCad (PCBNEW 6.0.4-6f826c9f35~116~ubuntu21.10.1) date 2022-04-05 23:43:51*
%MOMM*%
%LPD*%
G01*
G04 APERTURE LIST*
G04 Aperture macros list*
%AMRoundRect*
0 Rectangle with rounded corners*
0 $1 Rounding radius*
0 $2 $3 $4 $5 $6 $7 $8 $9 X,Y pos of 4 corners*
0 Add a 4 corners polygon primitive as box body*
4,1,4,$2,$3,$4,$5,$6,$7,$8,$9,$2,$3,0*
0 Add four circle primitives for the rounded corners*
1,1,$1+$1,$2,$3*
1,1,$1+$1,$4,$5*
1,1,$1+$1,$6,$7*
1,1,$1+$1,$8,$9*
0 Add four rect primitives between the rounded corners*
20,1,$1+$1,$2,$3,$4,$5,0*
20,1,$1+$1,$4,$5,$6,$7,0*
20,1,$1+$1,$6,$7,$8,$9,0*
20,1,$1+$1,$8,$9,$2,$3,0*%
G04 Aperture macros list end*
%ADD10RoundRect,0.140000X-0.170000X0.140000X-0.170000X-0.140000X0.170000X-0.140000X0.170000X0.140000X0*%
%ADD11RoundRect,0.140000X0.170000X-0.140000X0.170000X0.140000X-0.170000X0.140000X-0.170000X-0.140000X0*%
%ADD12RoundRect,0.140000X0.140000X0.170000X-0.140000X0.170000X-0.140000X-0.170000X0.140000X-0.170000X0*%
%ADD13RoundRect,0.250000X0.250000X0.475000X-0.250000X0.475000X-0.250000X-0.475000X0.250000X-0.475000X0*%
%ADD14RoundRect,0.249999X-0.325001X-0.650001X0.325001X-0.650001X0.325001X0.650001X-0.325001X0.650001X0*%
%ADD15RoundRect,0.147500X-0.172500X0.147500X-0.172500X-0.147500X0.172500X-0.147500X0.172500X0.147500X0*%
%ADD16RoundRect,0.147500X0.172500X-0.147500X0.172500X0.147500X-0.172500X0.147500X-0.172500X-0.147500X0*%
%ADD17R,1.160000X0.600000*%
%ADD18R,1.160000X0.300000*%
%ADD19RoundRect,0.135000X-0.185000X0.135000X-0.185000X-0.135000X0.185000X-0.135000X0.185000X0.135000X0*%
%ADD20RoundRect,0.135000X0.135000X0.185000X-0.135000X0.185000X-0.135000X-0.185000X0.135000X-0.185000X0*%
%ADD21RoundRect,0.135000X-0.135000X-0.185000X0.135000X-0.185000X0.135000X0.185000X-0.135000X0.185000X0*%
%ADD22RoundRect,0.135000X0.185000X-0.135000X0.185000X0.135000X-0.185000X0.135000X-0.185000X-0.135000X0*%
%ADD23O,0.280000X1.800000*%
%ADD24O,1.800000X0.280000*%
G04 APERTURE END LIST*
D10*
%TO.C,C1*%
X72136000Y-90198000D03*
X72136000Y-91158000D03*
%TD*%
%TO.C,C2*%
X73152000Y-90198000D03*
X73152000Y-91158000D03*
%TD*%
D11*
%TO.C,C3*%
X69088000Y-78204000D03*
X69088000Y-77244000D03*
%TD*%
D12*
%TO.C,C4*%
X66012000Y-87122000D03*
X65052000Y-87122000D03*
%TD*%
D10*
%TO.C,C5*%
X68072000Y-90198000D03*
X68072000Y-91158000D03*
%TD*%
D13*
%TO.C,C6*%
X60132000Y-90678000D03*
X58232000Y-90678000D03*
%TD*%
D11*
%TO.C,C7*%
X77470000Y-79982000D03*
X77470000Y-79022000D03*
%TD*%
%TO.C,C8*%
X61722000Y-91158000D03*
X61722000Y-90198000D03*
%TD*%
D10*
%TO.C,C10*%
X74168000Y-90198000D03*
X74168000Y-91158000D03*
%TD*%
D11*
%TO.C,C11*%
X66040000Y-78204000D03*
X66040000Y-77244000D03*
%TD*%
D14*
%TO.C,C12*%
X60247000Y-77470000D03*
X63197000Y-77470000D03*
%TD*%
D11*
%TO.C,C13*%
X68072000Y-78204000D03*
X68072000Y-77244000D03*
%TD*%
D12*
%TO.C,C14*%
X58646000Y-77470000D03*
X57686000Y-77470000D03*
%TD*%
D11*
%TO.C,C15*%
X67056000Y-78204000D03*
X67056000Y-77244000D03*
%TD*%
D15*
%TO.C,D1*%
X73660000Y-76477000D03*
X73660000Y-77447000D03*
%TD*%
D16*
%TO.C,D2*%
X74676000Y-77447000D03*
X74676000Y-76477000D03*
%TD*%
D15*
%TO.C,D3*%
X72644000Y-76477000D03*
X72644000Y-77447000D03*
%TD*%
D16*
%TO.C,D4*%
X76708000Y-77447000D03*
X76708000Y-76477000D03*
%TD*%
%TO.C,D5*%
X75692000Y-77447000D03*
X75692000Y-76477000D03*
%TD*%
D17*
%TO.C,J1*%
X63470000Y-80874000D03*
X63470000Y-81674000D03*
D18*
X63470000Y-82824000D03*
X63470000Y-83824000D03*
X63470000Y-84324000D03*
X63470000Y-85324000D03*
D17*
X63470000Y-86474000D03*
X63470000Y-87274000D03*
X63470000Y-87274000D03*
X63470000Y-86474000D03*
D18*
X63470000Y-85824000D03*
X63470000Y-84824000D03*
X63470000Y-83324000D03*
X63470000Y-82324000D03*
D17*
X63470000Y-81674000D03*
X63470000Y-80874000D03*
%TD*%
D19*
%TO.C,R1*%
X70104000Y-90168000D03*
X70104000Y-91188000D03*
%TD*%
%TO.C,R2*%
X71120000Y-90168000D03*
X71120000Y-91188000D03*
%TD*%
D20*
%TO.C,R3*%
X66042000Y-82042000D03*
X65022000Y-82042000D03*
%TD*%
%TO.C,R4*%
X66042000Y-86106000D03*
X65022000Y-86106000D03*
%TD*%
%TO.C,R5*%
X66042000Y-83058000D03*
X65022000Y-83058000D03*
%TD*%
%TO.C,R6*%
X66042000Y-85090000D03*
X65022000Y-85090000D03*
%TD*%
%TO.C,R7*%
X76202000Y-78486000D03*
X75182000Y-78486000D03*
%TD*%
D21*
%TO.C,R8*%
X65530000Y-90678000D03*
X66550000Y-90678000D03*
%TD*%
D20*
%TO.C,R10*%
X64518000Y-90678000D03*
X63498000Y-90678000D03*
%TD*%
%TO.C,R11*%
X66042000Y-84074000D03*
X65022000Y-84074000D03*
%TD*%
D22*
%TO.C,R12*%
X76200000Y-91188000D03*
X76200000Y-90168000D03*
%TD*%
D19*
%TO.C,R13*%
X77216000Y-90168000D03*
X77216000Y-91188000D03*
%TD*%
%TO.C,R19*%
X75184000Y-90168000D03*
X75184000Y-91188000D03*
%TD*%
D22*
%TO.C,R20*%
X69087001Y-91188000D03*
X69087001Y-90168000D03*
%TD*%
%TO.C,R21*%
X78232000Y-91188000D03*
X78232000Y-90168000D03*
%TD*%
D23*
%TO.C,U1*%
X70656000Y-88124000D03*
X71156000Y-88124000D03*
X71656000Y-88124000D03*
X72156000Y-88124000D03*
X72656000Y-88124000D03*
X73156000Y-88124000D03*
X73656000Y-88124000D03*
X74156000Y-88124000D03*
X74656000Y-88124000D03*
X75156000Y-88124000D03*
X75656000Y-88124000D03*
X76156000Y-88124000D03*
D24*
X77456000Y-86824000D03*
X77456000Y-86324000D03*
X77456000Y-85824000D03*
X77456000Y-85324000D03*
X77456000Y-84824000D03*
X77456000Y-84324000D03*
X77456000Y-83824000D03*
X77456000Y-83324000D03*
X77456000Y-82824000D03*
X77456000Y-82324000D03*
X77456000Y-81824000D03*
X77456000Y-81324000D03*
D23*
X76156000Y-80024000D03*
X75656000Y-80024000D03*
X75156000Y-80024000D03*
X74656000Y-80024000D03*
X74156000Y-80024000D03*
X73656000Y-80024000D03*
X73156000Y-80024000D03*
X72656000Y-80024000D03*
X72156000Y-80024000D03*
X71656000Y-80024000D03*
X71156000Y-80024000D03*
X70656000Y-80024000D03*
D24*
X69356000Y-81324000D03*
X69356000Y-81824000D03*
X69356000Y-82324000D03*
X69356000Y-82824000D03*
X69356000Y-83324000D03*
X69356000Y-83824000D03*
X69356000Y-84324000D03*
X69356000Y-84824000D03*
X69356000Y-85324000D03*
X69356000Y-85824000D03*
X69356000Y-86324000D03*
X69356000Y-86824000D03*
%TD*%
M02*
