%TF.GenerationSoftware,KiCad,Pcbnew,5.1.10-88a1d61d58~89~ubuntu21.04.1*%
%TF.CreationDate,2021-07-10T21:48:55+08:00*%
%TF.ProjectId,ST_Link_V2.1,53545f4c-696e-46b5-9f56-322e312e6b69,rev?*%
%TF.SameCoordinates,Original*%
%TF.FileFunction,Soldermask,Top*%
%TF.FilePolarity,Negative*%
%FSLAX46Y46*%
G04 Gerber Fmt 4.6, Leading zero omitted, Abs format (unit mm)*
G04 Created by KiCad (PCBNEW 5.1.10-88a1d61d58~89~ubuntu21.04.1) date 2021-07-10 21:48:55*
%MOMM*%
%LPD*%
G01*
G04 APERTURE LIST*
%ADD10O,1.700000X1.700000*%
%ADD11R,1.700000X1.700000*%
%ADD12O,1.800000X0.280000*%
%ADD13O,0.280000X1.800000*%
%ADD14R,1.500000X1.000000*%
%ADD15R,1.160000X0.600000*%
%ADD16C,0.600000*%
%ADD17R,1.160000X0.300000*%
%ADD18O,1.700000X0.900000*%
%ADD19O,2.000000X0.900000*%
G04 APERTURE END LIST*
D10*
%TO.C,J2*%
X89662000Y-86614000D03*
X89662000Y-84074000D03*
D11*
X89662000Y-81534000D03*
%TD*%
%TO.C,R7*%
G36*
G01*
X75452000Y-78301000D02*
X75452000Y-78671000D01*
G75*
G02*
X75317000Y-78806000I-135000J0D01*
G01*
X75047000Y-78806000D01*
G75*
G02*
X74912000Y-78671000I0J135000D01*
G01*
X74912000Y-78301000D01*
G75*
G02*
X75047000Y-78166000I135000J0D01*
G01*
X75317000Y-78166000D01*
G75*
G02*
X75452000Y-78301000I0J-135000D01*
G01*
G37*
G36*
G01*
X76472000Y-78301000D02*
X76472000Y-78671000D01*
G75*
G02*
X76337000Y-78806000I-135000J0D01*
G01*
X76067000Y-78806000D01*
G75*
G02*
X75932000Y-78671000I0J135000D01*
G01*
X75932000Y-78301000D01*
G75*
G02*
X76067000Y-78166000I135000J0D01*
G01*
X76337000Y-78166000D01*
G75*
G02*
X76472000Y-78301000I0J-135000D01*
G01*
G37*
%TD*%
D10*
%TO.C,J3*%
X87122000Y-81534000D03*
X87122000Y-78994000D03*
X87122000Y-84074000D03*
X87122000Y-89154000D03*
X87122000Y-86614000D03*
D11*
X82042000Y-78994000D03*
D10*
X82042000Y-81534000D03*
X82042000Y-84074000D03*
X82042000Y-86614000D03*
X82042000Y-89154000D03*
X84582000Y-78994000D03*
X84582000Y-81534000D03*
X84582000Y-84074000D03*
X84582000Y-86614000D03*
X84582000Y-89154000D03*
%TD*%
D12*
%TO.C,U1*%
X69356000Y-86824000D03*
X69356000Y-86324000D03*
X69356000Y-85824000D03*
X69356000Y-85324000D03*
X69356000Y-84824000D03*
X69356000Y-84324000D03*
X69356000Y-83824000D03*
X69356000Y-83324000D03*
X69356000Y-82824000D03*
X69356000Y-82324000D03*
X69356000Y-81824000D03*
X69356000Y-81324000D03*
D13*
X70656000Y-80024000D03*
X71156000Y-80024000D03*
X71656000Y-80024000D03*
X72156000Y-80024000D03*
X72656000Y-80024000D03*
X73156000Y-80024000D03*
X73656000Y-80024000D03*
X74156000Y-80024000D03*
X74656000Y-80024000D03*
X75156000Y-80024000D03*
X75656000Y-80024000D03*
X76156000Y-80024000D03*
D12*
X77456000Y-81324000D03*
X77456000Y-81824000D03*
X77456000Y-82324000D03*
X77456000Y-82824000D03*
X77456000Y-83324000D03*
X77456000Y-83824000D03*
X77456000Y-84324000D03*
X77456000Y-84824000D03*
X77456000Y-85324000D03*
X77456000Y-85824000D03*
X77456000Y-86324000D03*
X77456000Y-86824000D03*
D13*
X76156000Y-88124000D03*
X75656000Y-88124000D03*
X75156000Y-88124000D03*
X74656000Y-88124000D03*
X74156000Y-88124000D03*
X73656000Y-88124000D03*
X73156000Y-88124000D03*
X72656000Y-88124000D03*
X72156000Y-88124000D03*
X71656000Y-88124000D03*
X71156000Y-88124000D03*
X70656000Y-88124000D03*
%TD*%
%TO.C,R21*%
G36*
G01*
X78417000Y-90438000D02*
X78047000Y-90438000D01*
G75*
G02*
X77912000Y-90303000I0J135000D01*
G01*
X77912000Y-90033000D01*
G75*
G02*
X78047000Y-89898000I135000J0D01*
G01*
X78417000Y-89898000D01*
G75*
G02*
X78552000Y-90033000I0J-135000D01*
G01*
X78552000Y-90303000D01*
G75*
G02*
X78417000Y-90438000I-135000J0D01*
G01*
G37*
G36*
G01*
X78417000Y-91458000D02*
X78047000Y-91458000D01*
G75*
G02*
X77912000Y-91323000I0J135000D01*
G01*
X77912000Y-91053000D01*
G75*
G02*
X78047000Y-90918000I135000J0D01*
G01*
X78417000Y-90918000D01*
G75*
G02*
X78552000Y-91053000I0J-135000D01*
G01*
X78552000Y-91323000D01*
G75*
G02*
X78417000Y-91458000I-135000J0D01*
G01*
G37*
%TD*%
%TO.C,R20*%
G36*
G01*
X69272001Y-90438000D02*
X68902001Y-90438000D01*
G75*
G02*
X68767001Y-90303000I0J135000D01*
G01*
X68767001Y-90033000D01*
G75*
G02*
X68902001Y-89898000I135000J0D01*
G01*
X69272001Y-89898000D01*
G75*
G02*
X69407001Y-90033000I0J-135000D01*
G01*
X69407001Y-90303000D01*
G75*
G02*
X69272001Y-90438000I-135000J0D01*
G01*
G37*
G36*
G01*
X69272001Y-91458000D02*
X68902001Y-91458000D01*
G75*
G02*
X68767001Y-91323000I0J135000D01*
G01*
X68767001Y-91053000D01*
G75*
G02*
X68902001Y-90918000I135000J0D01*
G01*
X69272001Y-90918000D01*
G75*
G02*
X69407001Y-91053000I0J-135000D01*
G01*
X69407001Y-91323000D01*
G75*
G02*
X69272001Y-91458000I-135000J0D01*
G01*
G37*
%TD*%
%TO.C,R19*%
G36*
G01*
X74999000Y-90918000D02*
X75369000Y-90918000D01*
G75*
G02*
X75504000Y-91053000I0J-135000D01*
G01*
X75504000Y-91323000D01*
G75*
G02*
X75369000Y-91458000I-135000J0D01*
G01*
X74999000Y-91458000D01*
G75*
G02*
X74864000Y-91323000I0J135000D01*
G01*
X74864000Y-91053000D01*
G75*
G02*
X74999000Y-90918000I135000J0D01*
G01*
G37*
G36*
G01*
X74999000Y-89898000D02*
X75369000Y-89898000D01*
G75*
G02*
X75504000Y-90033000I0J-135000D01*
G01*
X75504000Y-90303000D01*
G75*
G02*
X75369000Y-90438000I-135000J0D01*
G01*
X74999000Y-90438000D01*
G75*
G02*
X74864000Y-90303000I0J135000D01*
G01*
X74864000Y-90033000D01*
G75*
G02*
X74999000Y-89898000I135000J0D01*
G01*
G37*
%TD*%
%TO.C,R13*%
G36*
G01*
X77031000Y-90918000D02*
X77401000Y-90918000D01*
G75*
G02*
X77536000Y-91053000I0J-135000D01*
G01*
X77536000Y-91323000D01*
G75*
G02*
X77401000Y-91458000I-135000J0D01*
G01*
X77031000Y-91458000D01*
G75*
G02*
X76896000Y-91323000I0J135000D01*
G01*
X76896000Y-91053000D01*
G75*
G02*
X77031000Y-90918000I135000J0D01*
G01*
G37*
G36*
G01*
X77031000Y-89898000D02*
X77401000Y-89898000D01*
G75*
G02*
X77536000Y-90033000I0J-135000D01*
G01*
X77536000Y-90303000D01*
G75*
G02*
X77401000Y-90438000I-135000J0D01*
G01*
X77031000Y-90438000D01*
G75*
G02*
X76896000Y-90303000I0J135000D01*
G01*
X76896000Y-90033000D01*
G75*
G02*
X77031000Y-89898000I135000J0D01*
G01*
G37*
%TD*%
%TO.C,R12*%
G36*
G01*
X76385000Y-90438000D02*
X76015000Y-90438000D01*
G75*
G02*
X75880000Y-90303000I0J135000D01*
G01*
X75880000Y-90033000D01*
G75*
G02*
X76015000Y-89898000I135000J0D01*
G01*
X76385000Y-89898000D01*
G75*
G02*
X76520000Y-90033000I0J-135000D01*
G01*
X76520000Y-90303000D01*
G75*
G02*
X76385000Y-90438000I-135000J0D01*
G01*
G37*
G36*
G01*
X76385000Y-91458000D02*
X76015000Y-91458000D01*
G75*
G02*
X75880000Y-91323000I0J135000D01*
G01*
X75880000Y-91053000D01*
G75*
G02*
X76015000Y-90918000I135000J0D01*
G01*
X76385000Y-90918000D01*
G75*
G02*
X76520000Y-91053000I0J-135000D01*
G01*
X76520000Y-91323000D01*
G75*
G02*
X76385000Y-91458000I-135000J0D01*
G01*
G37*
%TD*%
%TO.C,R11*%
G36*
G01*
X66312000Y-83889000D02*
X66312000Y-84259000D01*
G75*
G02*
X66177000Y-84394000I-135000J0D01*
G01*
X65907000Y-84394000D01*
G75*
G02*
X65772000Y-84259000I0J135000D01*
G01*
X65772000Y-83889000D01*
G75*
G02*
X65907000Y-83754000I135000J0D01*
G01*
X66177000Y-83754000D01*
G75*
G02*
X66312000Y-83889000I0J-135000D01*
G01*
G37*
G36*
G01*
X65292000Y-83889000D02*
X65292000Y-84259000D01*
G75*
G02*
X65157000Y-84394000I-135000J0D01*
G01*
X64887000Y-84394000D01*
G75*
G02*
X64752000Y-84259000I0J135000D01*
G01*
X64752000Y-83889000D01*
G75*
G02*
X64887000Y-83754000I135000J0D01*
G01*
X65157000Y-83754000D01*
G75*
G02*
X65292000Y-83889000I0J-135000D01*
G01*
G37*
%TD*%
%TO.C,R10*%
G36*
G01*
X63768000Y-90493000D02*
X63768000Y-90863000D01*
G75*
G02*
X63633000Y-90998000I-135000J0D01*
G01*
X63363000Y-90998000D01*
G75*
G02*
X63228000Y-90863000I0J135000D01*
G01*
X63228000Y-90493000D01*
G75*
G02*
X63363000Y-90358000I135000J0D01*
G01*
X63633000Y-90358000D01*
G75*
G02*
X63768000Y-90493000I0J-135000D01*
G01*
G37*
G36*
G01*
X64788000Y-90493000D02*
X64788000Y-90863000D01*
G75*
G02*
X64653000Y-90998000I-135000J0D01*
G01*
X64383000Y-90998000D01*
G75*
G02*
X64248000Y-90863000I0J135000D01*
G01*
X64248000Y-90493000D01*
G75*
G02*
X64383000Y-90358000I135000J0D01*
G01*
X64653000Y-90358000D01*
G75*
G02*
X64788000Y-90493000I0J-135000D01*
G01*
G37*
%TD*%
%TO.C,R8*%
G36*
G01*
X66280000Y-90863000D02*
X66280000Y-90493000D01*
G75*
G02*
X66415000Y-90358000I135000J0D01*
G01*
X66685000Y-90358000D01*
G75*
G02*
X66820000Y-90493000I0J-135000D01*
G01*
X66820000Y-90863000D01*
G75*
G02*
X66685000Y-90998000I-135000J0D01*
G01*
X66415000Y-90998000D01*
G75*
G02*
X66280000Y-90863000I0J135000D01*
G01*
G37*
G36*
G01*
X65260000Y-90863000D02*
X65260000Y-90493000D01*
G75*
G02*
X65395000Y-90358000I135000J0D01*
G01*
X65665000Y-90358000D01*
G75*
G02*
X65800000Y-90493000I0J-135000D01*
G01*
X65800000Y-90863000D01*
G75*
G02*
X65665000Y-90998000I-135000J0D01*
G01*
X65395000Y-90998000D01*
G75*
G02*
X65260000Y-90863000I0J135000D01*
G01*
G37*
%TD*%
%TO.C,R6*%
G36*
G01*
X65292000Y-84905000D02*
X65292000Y-85275000D01*
G75*
G02*
X65157000Y-85410000I-135000J0D01*
G01*
X64887000Y-85410000D01*
G75*
G02*
X64752000Y-85275000I0J135000D01*
G01*
X64752000Y-84905000D01*
G75*
G02*
X64887000Y-84770000I135000J0D01*
G01*
X65157000Y-84770000D01*
G75*
G02*
X65292000Y-84905000I0J-135000D01*
G01*
G37*
G36*
G01*
X66312000Y-84905000D02*
X66312000Y-85275000D01*
G75*
G02*
X66177000Y-85410000I-135000J0D01*
G01*
X65907000Y-85410000D01*
G75*
G02*
X65772000Y-85275000I0J135000D01*
G01*
X65772000Y-84905000D01*
G75*
G02*
X65907000Y-84770000I135000J0D01*
G01*
X66177000Y-84770000D01*
G75*
G02*
X66312000Y-84905000I0J-135000D01*
G01*
G37*
%TD*%
%TO.C,R5*%
G36*
G01*
X65292000Y-82873000D02*
X65292000Y-83243000D01*
G75*
G02*
X65157000Y-83378000I-135000J0D01*
G01*
X64887000Y-83378000D01*
G75*
G02*
X64752000Y-83243000I0J135000D01*
G01*
X64752000Y-82873000D01*
G75*
G02*
X64887000Y-82738000I135000J0D01*
G01*
X65157000Y-82738000D01*
G75*
G02*
X65292000Y-82873000I0J-135000D01*
G01*
G37*
G36*
G01*
X66312000Y-82873000D02*
X66312000Y-83243000D01*
G75*
G02*
X66177000Y-83378000I-135000J0D01*
G01*
X65907000Y-83378000D01*
G75*
G02*
X65772000Y-83243000I0J135000D01*
G01*
X65772000Y-82873000D01*
G75*
G02*
X65907000Y-82738000I135000J0D01*
G01*
X66177000Y-82738000D01*
G75*
G02*
X66312000Y-82873000I0J-135000D01*
G01*
G37*
%TD*%
%TO.C,R4*%
G36*
G01*
X65292000Y-85921000D02*
X65292000Y-86291000D01*
G75*
G02*
X65157000Y-86426000I-135000J0D01*
G01*
X64887000Y-86426000D01*
G75*
G02*
X64752000Y-86291000I0J135000D01*
G01*
X64752000Y-85921000D01*
G75*
G02*
X64887000Y-85786000I135000J0D01*
G01*
X65157000Y-85786000D01*
G75*
G02*
X65292000Y-85921000I0J-135000D01*
G01*
G37*
G36*
G01*
X66312000Y-85921000D02*
X66312000Y-86291000D01*
G75*
G02*
X66177000Y-86426000I-135000J0D01*
G01*
X65907000Y-86426000D01*
G75*
G02*
X65772000Y-86291000I0J135000D01*
G01*
X65772000Y-85921000D01*
G75*
G02*
X65907000Y-85786000I135000J0D01*
G01*
X66177000Y-85786000D01*
G75*
G02*
X66312000Y-85921000I0J-135000D01*
G01*
G37*
%TD*%
%TO.C,R3*%
G36*
G01*
X65292000Y-81857000D02*
X65292000Y-82227000D01*
G75*
G02*
X65157000Y-82362000I-135000J0D01*
G01*
X64887000Y-82362000D01*
G75*
G02*
X64752000Y-82227000I0J135000D01*
G01*
X64752000Y-81857000D01*
G75*
G02*
X64887000Y-81722000I135000J0D01*
G01*
X65157000Y-81722000D01*
G75*
G02*
X65292000Y-81857000I0J-135000D01*
G01*
G37*
G36*
G01*
X66312000Y-81857000D02*
X66312000Y-82227000D01*
G75*
G02*
X66177000Y-82362000I-135000J0D01*
G01*
X65907000Y-82362000D01*
G75*
G02*
X65772000Y-82227000I0J135000D01*
G01*
X65772000Y-81857000D01*
G75*
G02*
X65907000Y-81722000I135000J0D01*
G01*
X66177000Y-81722000D01*
G75*
G02*
X66312000Y-81857000I0J-135000D01*
G01*
G37*
%TD*%
%TO.C,R2*%
G36*
G01*
X70935000Y-90918000D02*
X71305000Y-90918000D01*
G75*
G02*
X71440000Y-91053000I0J-135000D01*
G01*
X71440000Y-91323000D01*
G75*
G02*
X71305000Y-91458000I-135000J0D01*
G01*
X70935000Y-91458000D01*
G75*
G02*
X70800000Y-91323000I0J135000D01*
G01*
X70800000Y-91053000D01*
G75*
G02*
X70935000Y-90918000I135000J0D01*
G01*
G37*
G36*
G01*
X70935000Y-89898000D02*
X71305000Y-89898000D01*
G75*
G02*
X71440000Y-90033000I0J-135000D01*
G01*
X71440000Y-90303000D01*
G75*
G02*
X71305000Y-90438000I-135000J0D01*
G01*
X70935000Y-90438000D01*
G75*
G02*
X70800000Y-90303000I0J135000D01*
G01*
X70800000Y-90033000D01*
G75*
G02*
X70935000Y-89898000I135000J0D01*
G01*
G37*
%TD*%
%TO.C,R1*%
G36*
G01*
X69919000Y-90918000D02*
X70289000Y-90918000D01*
G75*
G02*
X70424000Y-91053000I0J-135000D01*
G01*
X70424000Y-91323000D01*
G75*
G02*
X70289000Y-91458000I-135000J0D01*
G01*
X69919000Y-91458000D01*
G75*
G02*
X69784000Y-91323000I0J135000D01*
G01*
X69784000Y-91053000D01*
G75*
G02*
X69919000Y-90918000I135000J0D01*
G01*
G37*
G36*
G01*
X69919000Y-89898000D02*
X70289000Y-89898000D01*
G75*
G02*
X70424000Y-90033000I0J-135000D01*
G01*
X70424000Y-90303000D01*
G75*
G02*
X70289000Y-90438000I-135000J0D01*
G01*
X69919000Y-90438000D01*
G75*
G02*
X69784000Y-90303000I0J135000D01*
G01*
X69784000Y-90033000D01*
G75*
G02*
X69919000Y-89898000I135000J0D01*
G01*
G37*
%TD*%
D14*
%TO.C,JP1*%
X79502000Y-78471000D03*
X79502000Y-79771000D03*
%TD*%
D15*
%TO.C,J1*%
X63470000Y-87274000D03*
X63470000Y-86474000D03*
X63470000Y-87274000D03*
X63470000Y-86474000D03*
X63470000Y-80874000D03*
X63470000Y-80874000D03*
X63470000Y-81674000D03*
X63470000Y-81674000D03*
D16*
X62410000Y-81184000D03*
X62410000Y-86964000D03*
D17*
X63470000Y-85824000D03*
X63470000Y-84824000D03*
X63470000Y-85324000D03*
X63470000Y-82824000D03*
X63470000Y-82324000D03*
X63470000Y-84324000D03*
X63470000Y-83824000D03*
X63470000Y-83324000D03*
D18*
X58720000Y-88394000D03*
X58720000Y-79754000D03*
D19*
X62890000Y-88394000D03*
X62890000Y-79754000D03*
%TD*%
%TO.C,D5*%
G36*
G01*
X75792000Y-76872000D02*
X75592000Y-76872000D01*
G75*
G02*
X75492000Y-76772000I0J100000D01*
G01*
X75492000Y-76512000D01*
G75*
G02*
X75592000Y-76412000I100000J0D01*
G01*
X75792000Y-76412000D01*
G75*
G02*
X75892000Y-76512000I0J-100000D01*
G01*
X75892000Y-76772000D01*
G75*
G02*
X75792000Y-76872000I-100000J0D01*
G01*
G37*
G36*
G01*
X75792000Y-77512000D02*
X75592000Y-77512000D01*
G75*
G02*
X75492000Y-77412000I0J100000D01*
G01*
X75492000Y-77152000D01*
G75*
G02*
X75592000Y-77052000I100000J0D01*
G01*
X75792000Y-77052000D01*
G75*
G02*
X75892000Y-77152000I0J-100000D01*
G01*
X75892000Y-77412000D01*
G75*
G02*
X75792000Y-77512000I-100000J0D01*
G01*
G37*
%TD*%
%TO.C,D4*%
G36*
G01*
X76808000Y-76872000D02*
X76608000Y-76872000D01*
G75*
G02*
X76508000Y-76772000I0J100000D01*
G01*
X76508000Y-76512000D01*
G75*
G02*
X76608000Y-76412000I100000J0D01*
G01*
X76808000Y-76412000D01*
G75*
G02*
X76908000Y-76512000I0J-100000D01*
G01*
X76908000Y-76772000D01*
G75*
G02*
X76808000Y-76872000I-100000J0D01*
G01*
G37*
G36*
G01*
X76808000Y-77512000D02*
X76608000Y-77512000D01*
G75*
G02*
X76508000Y-77412000I0J100000D01*
G01*
X76508000Y-77152000D01*
G75*
G02*
X76608000Y-77052000I100000J0D01*
G01*
X76808000Y-77052000D01*
G75*
G02*
X76908000Y-77152000I0J-100000D01*
G01*
X76908000Y-77412000D01*
G75*
G02*
X76808000Y-77512000I-100000J0D01*
G01*
G37*
%TD*%
%TO.C,D3*%
G36*
G01*
X72544000Y-77052000D02*
X72744000Y-77052000D01*
G75*
G02*
X72844000Y-77152000I0J-100000D01*
G01*
X72844000Y-77412000D01*
G75*
G02*
X72744000Y-77512000I-100000J0D01*
G01*
X72544000Y-77512000D01*
G75*
G02*
X72444000Y-77412000I0J100000D01*
G01*
X72444000Y-77152000D01*
G75*
G02*
X72544000Y-77052000I100000J0D01*
G01*
G37*
G36*
G01*
X72544000Y-76412000D02*
X72744000Y-76412000D01*
G75*
G02*
X72844000Y-76512000I0J-100000D01*
G01*
X72844000Y-76772000D01*
G75*
G02*
X72744000Y-76872000I-100000J0D01*
G01*
X72544000Y-76872000D01*
G75*
G02*
X72444000Y-76772000I0J100000D01*
G01*
X72444000Y-76512000D01*
G75*
G02*
X72544000Y-76412000I100000J0D01*
G01*
G37*
%TD*%
%TO.C,D2*%
G36*
G01*
X74776000Y-76872000D02*
X74576000Y-76872000D01*
G75*
G02*
X74476000Y-76772000I0J100000D01*
G01*
X74476000Y-76512000D01*
G75*
G02*
X74576000Y-76412000I100000J0D01*
G01*
X74776000Y-76412000D01*
G75*
G02*
X74876000Y-76512000I0J-100000D01*
G01*
X74876000Y-76772000D01*
G75*
G02*
X74776000Y-76872000I-100000J0D01*
G01*
G37*
G36*
G01*
X74776000Y-77512000D02*
X74576000Y-77512000D01*
G75*
G02*
X74476000Y-77412000I0J100000D01*
G01*
X74476000Y-77152000D01*
G75*
G02*
X74576000Y-77052000I100000J0D01*
G01*
X74776000Y-77052000D01*
G75*
G02*
X74876000Y-77152000I0J-100000D01*
G01*
X74876000Y-77412000D01*
G75*
G02*
X74776000Y-77512000I-100000J0D01*
G01*
G37*
%TD*%
%TO.C,D1*%
G36*
G01*
X73560000Y-77052000D02*
X73760000Y-77052000D01*
G75*
G02*
X73860000Y-77152000I0J-100000D01*
G01*
X73860000Y-77412000D01*
G75*
G02*
X73760000Y-77512000I-100000J0D01*
G01*
X73560000Y-77512000D01*
G75*
G02*
X73460000Y-77412000I0J100000D01*
G01*
X73460000Y-77152000D01*
G75*
G02*
X73560000Y-77052000I100000J0D01*
G01*
G37*
G36*
G01*
X73560000Y-76412000D02*
X73760000Y-76412000D01*
G75*
G02*
X73860000Y-76512000I0J-100000D01*
G01*
X73860000Y-76772000D01*
G75*
G02*
X73760000Y-76872000I-100000J0D01*
G01*
X73560000Y-76872000D01*
G75*
G02*
X73460000Y-76772000I0J100000D01*
G01*
X73460000Y-76512000D01*
G75*
G02*
X73560000Y-76412000I100000J0D01*
G01*
G37*
%TD*%
%TO.C,C15*%
G36*
G01*
X67226000Y-77524000D02*
X66886000Y-77524000D01*
G75*
G02*
X66746000Y-77384000I0J140000D01*
G01*
X66746000Y-77104000D01*
G75*
G02*
X66886000Y-76964000I140000J0D01*
G01*
X67226000Y-76964000D01*
G75*
G02*
X67366000Y-77104000I0J-140000D01*
G01*
X67366000Y-77384000D01*
G75*
G02*
X67226000Y-77524000I-140000J0D01*
G01*
G37*
G36*
G01*
X67226000Y-78484000D02*
X66886000Y-78484000D01*
G75*
G02*
X66746000Y-78344000I0J140000D01*
G01*
X66746000Y-78064000D01*
G75*
G02*
X66886000Y-77924000I140000J0D01*
G01*
X67226000Y-77924000D01*
G75*
G02*
X67366000Y-78064000I0J-140000D01*
G01*
X67366000Y-78344000D01*
G75*
G02*
X67226000Y-78484000I-140000J0D01*
G01*
G37*
%TD*%
%TO.C,C14*%
G36*
G01*
X57966000Y-77300000D02*
X57966000Y-77640000D01*
G75*
G02*
X57826000Y-77780000I-140000J0D01*
G01*
X57546000Y-77780000D01*
G75*
G02*
X57406000Y-77640000I0J140000D01*
G01*
X57406000Y-77300000D01*
G75*
G02*
X57546000Y-77160000I140000J0D01*
G01*
X57826000Y-77160000D01*
G75*
G02*
X57966000Y-77300000I0J-140000D01*
G01*
G37*
G36*
G01*
X58926000Y-77300000D02*
X58926000Y-77640000D01*
G75*
G02*
X58786000Y-77780000I-140000J0D01*
G01*
X58506000Y-77780000D01*
G75*
G02*
X58366000Y-77640000I0J140000D01*
G01*
X58366000Y-77300000D01*
G75*
G02*
X58506000Y-77160000I140000J0D01*
G01*
X58786000Y-77160000D01*
G75*
G02*
X58926000Y-77300000I0J-140000D01*
G01*
G37*
%TD*%
%TO.C,C13*%
G36*
G01*
X68242000Y-77524000D02*
X67902000Y-77524000D01*
G75*
G02*
X67762000Y-77384000I0J140000D01*
G01*
X67762000Y-77104000D01*
G75*
G02*
X67902000Y-76964000I140000J0D01*
G01*
X68242000Y-76964000D01*
G75*
G02*
X68382000Y-77104000I0J-140000D01*
G01*
X68382000Y-77384000D01*
G75*
G02*
X68242000Y-77524000I-140000J0D01*
G01*
G37*
G36*
G01*
X68242000Y-78484000D02*
X67902000Y-78484000D01*
G75*
G02*
X67762000Y-78344000I0J140000D01*
G01*
X67762000Y-78064000D01*
G75*
G02*
X67902000Y-77924000I140000J0D01*
G01*
X68242000Y-77924000D01*
G75*
G02*
X68382000Y-78064000I0J-140000D01*
G01*
X68382000Y-78344000D01*
G75*
G02*
X68242000Y-78484000I-140000J0D01*
G01*
G37*
%TD*%
%TO.C,C12*%
G36*
G01*
X62622000Y-78120001D02*
X62622000Y-76819999D01*
G75*
G02*
X62871999Y-76570000I249999J0D01*
G01*
X63522001Y-76570000D01*
G75*
G02*
X63772000Y-76819999I0J-249999D01*
G01*
X63772000Y-78120001D01*
G75*
G02*
X63522001Y-78370000I-249999J0D01*
G01*
X62871999Y-78370000D01*
G75*
G02*
X62622000Y-78120001I0J249999D01*
G01*
G37*
G36*
G01*
X59672000Y-78120001D02*
X59672000Y-76819999D01*
G75*
G02*
X59921999Y-76570000I249999J0D01*
G01*
X60572001Y-76570000D01*
G75*
G02*
X60822000Y-76819999I0J-249999D01*
G01*
X60822000Y-78120001D01*
G75*
G02*
X60572001Y-78370000I-249999J0D01*
G01*
X59921999Y-78370000D01*
G75*
G02*
X59672000Y-78120001I0J249999D01*
G01*
G37*
%TD*%
%TO.C,C11*%
G36*
G01*
X66210000Y-77524000D02*
X65870000Y-77524000D01*
G75*
G02*
X65730000Y-77384000I0J140000D01*
G01*
X65730000Y-77104000D01*
G75*
G02*
X65870000Y-76964000I140000J0D01*
G01*
X66210000Y-76964000D01*
G75*
G02*
X66350000Y-77104000I0J-140000D01*
G01*
X66350000Y-77384000D01*
G75*
G02*
X66210000Y-77524000I-140000J0D01*
G01*
G37*
G36*
G01*
X66210000Y-78484000D02*
X65870000Y-78484000D01*
G75*
G02*
X65730000Y-78344000I0J140000D01*
G01*
X65730000Y-78064000D01*
G75*
G02*
X65870000Y-77924000I140000J0D01*
G01*
X66210000Y-77924000D01*
G75*
G02*
X66350000Y-78064000I0J-140000D01*
G01*
X66350000Y-78344000D01*
G75*
G02*
X66210000Y-78484000I-140000J0D01*
G01*
G37*
%TD*%
%TO.C,C10*%
G36*
G01*
X73998000Y-90878000D02*
X74338000Y-90878000D01*
G75*
G02*
X74478000Y-91018000I0J-140000D01*
G01*
X74478000Y-91298000D01*
G75*
G02*
X74338000Y-91438000I-140000J0D01*
G01*
X73998000Y-91438000D01*
G75*
G02*
X73858000Y-91298000I0J140000D01*
G01*
X73858000Y-91018000D01*
G75*
G02*
X73998000Y-90878000I140000J0D01*
G01*
G37*
G36*
G01*
X73998000Y-89918000D02*
X74338000Y-89918000D01*
G75*
G02*
X74478000Y-90058000I0J-140000D01*
G01*
X74478000Y-90338000D01*
G75*
G02*
X74338000Y-90478000I-140000J0D01*
G01*
X73998000Y-90478000D01*
G75*
G02*
X73858000Y-90338000I0J140000D01*
G01*
X73858000Y-90058000D01*
G75*
G02*
X73998000Y-89918000I140000J0D01*
G01*
G37*
%TD*%
%TO.C,C8*%
G36*
G01*
X61892000Y-90478000D02*
X61552000Y-90478000D01*
G75*
G02*
X61412000Y-90338000I0J140000D01*
G01*
X61412000Y-90058000D01*
G75*
G02*
X61552000Y-89918000I140000J0D01*
G01*
X61892000Y-89918000D01*
G75*
G02*
X62032000Y-90058000I0J-140000D01*
G01*
X62032000Y-90338000D01*
G75*
G02*
X61892000Y-90478000I-140000J0D01*
G01*
G37*
G36*
G01*
X61892000Y-91438000D02*
X61552000Y-91438000D01*
G75*
G02*
X61412000Y-91298000I0J140000D01*
G01*
X61412000Y-91018000D01*
G75*
G02*
X61552000Y-90878000I140000J0D01*
G01*
X61892000Y-90878000D01*
G75*
G02*
X62032000Y-91018000I0J-140000D01*
G01*
X62032000Y-91298000D01*
G75*
G02*
X61892000Y-91438000I-140000J0D01*
G01*
G37*
%TD*%
%TO.C,C7*%
G36*
G01*
X77640000Y-79302000D02*
X77300000Y-79302000D01*
G75*
G02*
X77160000Y-79162000I0J140000D01*
G01*
X77160000Y-78882000D01*
G75*
G02*
X77300000Y-78742000I140000J0D01*
G01*
X77640000Y-78742000D01*
G75*
G02*
X77780000Y-78882000I0J-140000D01*
G01*
X77780000Y-79162000D01*
G75*
G02*
X77640000Y-79302000I-140000J0D01*
G01*
G37*
G36*
G01*
X77640000Y-80262000D02*
X77300000Y-80262000D01*
G75*
G02*
X77160000Y-80122000I0J140000D01*
G01*
X77160000Y-79842000D01*
G75*
G02*
X77300000Y-79702000I140000J0D01*
G01*
X77640000Y-79702000D01*
G75*
G02*
X77780000Y-79842000I0J-140000D01*
G01*
X77780000Y-80122000D01*
G75*
G02*
X77640000Y-80262000I-140000J0D01*
G01*
G37*
%TD*%
%TO.C,C6*%
G36*
G01*
X58732000Y-90203000D02*
X58732000Y-91153000D01*
G75*
G02*
X58482000Y-91403000I-250000J0D01*
G01*
X57982000Y-91403000D01*
G75*
G02*
X57732000Y-91153000I0J250000D01*
G01*
X57732000Y-90203000D01*
G75*
G02*
X57982000Y-89953000I250000J0D01*
G01*
X58482000Y-89953000D01*
G75*
G02*
X58732000Y-90203000I0J-250000D01*
G01*
G37*
G36*
G01*
X60632000Y-90203000D02*
X60632000Y-91153000D01*
G75*
G02*
X60382000Y-91403000I-250000J0D01*
G01*
X59882000Y-91403000D01*
G75*
G02*
X59632000Y-91153000I0J250000D01*
G01*
X59632000Y-90203000D01*
G75*
G02*
X59882000Y-89953000I250000J0D01*
G01*
X60382000Y-89953000D01*
G75*
G02*
X60632000Y-90203000I0J-250000D01*
G01*
G37*
%TD*%
%TO.C,C5*%
G36*
G01*
X67902000Y-90878000D02*
X68242000Y-90878000D01*
G75*
G02*
X68382000Y-91018000I0J-140000D01*
G01*
X68382000Y-91298000D01*
G75*
G02*
X68242000Y-91438000I-140000J0D01*
G01*
X67902000Y-91438000D01*
G75*
G02*
X67762000Y-91298000I0J140000D01*
G01*
X67762000Y-91018000D01*
G75*
G02*
X67902000Y-90878000I140000J0D01*
G01*
G37*
G36*
G01*
X67902000Y-89918000D02*
X68242000Y-89918000D01*
G75*
G02*
X68382000Y-90058000I0J-140000D01*
G01*
X68382000Y-90338000D01*
G75*
G02*
X68242000Y-90478000I-140000J0D01*
G01*
X67902000Y-90478000D01*
G75*
G02*
X67762000Y-90338000I0J140000D01*
G01*
X67762000Y-90058000D01*
G75*
G02*
X67902000Y-89918000I140000J0D01*
G01*
G37*
%TD*%
%TO.C,C4*%
G36*
G01*
X65332000Y-86952000D02*
X65332000Y-87292000D01*
G75*
G02*
X65192000Y-87432000I-140000J0D01*
G01*
X64912000Y-87432000D01*
G75*
G02*
X64772000Y-87292000I0J140000D01*
G01*
X64772000Y-86952000D01*
G75*
G02*
X64912000Y-86812000I140000J0D01*
G01*
X65192000Y-86812000D01*
G75*
G02*
X65332000Y-86952000I0J-140000D01*
G01*
G37*
G36*
G01*
X66292000Y-86952000D02*
X66292000Y-87292000D01*
G75*
G02*
X66152000Y-87432000I-140000J0D01*
G01*
X65872000Y-87432000D01*
G75*
G02*
X65732000Y-87292000I0J140000D01*
G01*
X65732000Y-86952000D01*
G75*
G02*
X65872000Y-86812000I140000J0D01*
G01*
X66152000Y-86812000D01*
G75*
G02*
X66292000Y-86952000I0J-140000D01*
G01*
G37*
%TD*%
%TO.C,C3*%
G36*
G01*
X69258000Y-77524000D02*
X68918000Y-77524000D01*
G75*
G02*
X68778000Y-77384000I0J140000D01*
G01*
X68778000Y-77104000D01*
G75*
G02*
X68918000Y-76964000I140000J0D01*
G01*
X69258000Y-76964000D01*
G75*
G02*
X69398000Y-77104000I0J-140000D01*
G01*
X69398000Y-77384000D01*
G75*
G02*
X69258000Y-77524000I-140000J0D01*
G01*
G37*
G36*
G01*
X69258000Y-78484000D02*
X68918000Y-78484000D01*
G75*
G02*
X68778000Y-78344000I0J140000D01*
G01*
X68778000Y-78064000D01*
G75*
G02*
X68918000Y-77924000I140000J0D01*
G01*
X69258000Y-77924000D01*
G75*
G02*
X69398000Y-78064000I0J-140000D01*
G01*
X69398000Y-78344000D01*
G75*
G02*
X69258000Y-78484000I-140000J0D01*
G01*
G37*
%TD*%
%TO.C,C2*%
G36*
G01*
X72982000Y-90878000D02*
X73322000Y-90878000D01*
G75*
G02*
X73462000Y-91018000I0J-140000D01*
G01*
X73462000Y-91298000D01*
G75*
G02*
X73322000Y-91438000I-140000J0D01*
G01*
X72982000Y-91438000D01*
G75*
G02*
X72842000Y-91298000I0J140000D01*
G01*
X72842000Y-91018000D01*
G75*
G02*
X72982000Y-90878000I140000J0D01*
G01*
G37*
G36*
G01*
X72982000Y-89918000D02*
X73322000Y-89918000D01*
G75*
G02*
X73462000Y-90058000I0J-140000D01*
G01*
X73462000Y-90338000D01*
G75*
G02*
X73322000Y-90478000I-140000J0D01*
G01*
X72982000Y-90478000D01*
G75*
G02*
X72842000Y-90338000I0J140000D01*
G01*
X72842000Y-90058000D01*
G75*
G02*
X72982000Y-89918000I140000J0D01*
G01*
G37*
%TD*%
%TO.C,C1*%
G36*
G01*
X71966000Y-90878000D02*
X72306000Y-90878000D01*
G75*
G02*
X72446000Y-91018000I0J-140000D01*
G01*
X72446000Y-91298000D01*
G75*
G02*
X72306000Y-91438000I-140000J0D01*
G01*
X71966000Y-91438000D01*
G75*
G02*
X71826000Y-91298000I0J140000D01*
G01*
X71826000Y-91018000D01*
G75*
G02*
X71966000Y-90878000I140000J0D01*
G01*
G37*
G36*
G01*
X71966000Y-89918000D02*
X72306000Y-89918000D01*
G75*
G02*
X72446000Y-90058000I0J-140000D01*
G01*
X72446000Y-90338000D01*
G75*
G02*
X72306000Y-90478000I-140000J0D01*
G01*
X71966000Y-90478000D01*
G75*
G02*
X71826000Y-90338000I0J140000D01*
G01*
X71826000Y-90058000D01*
G75*
G02*
X71966000Y-89918000I140000J0D01*
G01*
G37*
%TD*%
M02*
