M48
; DRILL file {KiCad 5.1.10-88a1d61d58~89~ubuntu21.04.1} date Sat Jul 10 21:49:04 2021
; FORMAT={-:-/ absolute / inch / decimal}
; #@! TF.CreationDate,2021-07-10T21:49:04+08:00
; #@! TF.GenerationSoftware,Kicad,Pcbnew,5.1.10-88a1d61d58~89~ubuntu21.04.1
; #@! TF.FileFunction,Plated,1,4,PTH
FMAT,2
INCH
T1C0.0118
T2C0.0236
T3C0.0394
%
G90
G05
T1
X2.295Y-3.57
X2.34Y-3.05
X2.3669Y-3.57
X2.44Y-3.345
X2.57Y-3.57
X2.585Y-3.1275
X2.6275Y-3.1175
X2.64Y-3.27
X2.64Y-3.31
X2.64Y-3.35
X2.64Y-3.53
X2.67Y-3.22
X2.69Y-3.53
X2.73Y-3.165
X2.75Y-3.51
X2.79Y-3.08
X2.79Y-3.285
X2.81Y-3.31
X2.825Y-3.09
X2.84Y-3.5511
X2.85Y-3.22
X2.86Y-3.05
X2.86Y-3.09
X2.875Y-3.245
X2.88Y-3.5511
X2.895Y-3.405
X2.9Y-3.05
X2.9Y-3.09
X2.9Y-3.27
X2.91Y-3.22
X2.915Y-3.335
X2.93Y-3.255
X2.94Y-3.05
X2.955Y-3.21
X2.9799Y-3.5901
X2.98Y-3.05
X2.985Y-3.32
X2.985Y-3.37
X2.993Y-3.2805
X3.02Y-3.05
X3.08Y-3.55
X3.11Y-3.045
X3.115Y-3.4183
T3
X3.23Y-3.11
X3.23Y-3.21
X3.23Y-3.31
X3.23Y-3.41
X3.23Y-3.51
X3.33Y-3.11
X3.33Y-3.21
X3.33Y-3.31
X3.33Y-3.41
X3.33Y-3.51
X3.43Y-3.11
X3.43Y-3.21
X3.43Y-3.31
X3.43Y-3.41
X3.43Y-3.51
X3.53Y-3.21
X3.53Y-3.31
X3.53Y-3.41
T2
G00X2.2961Y-3.1399
M15
G01X2.3276Y-3.1399
M16
G05
G00X2.2961Y-3.4801
M15
G01X2.3276Y-3.4801
M16
G05
G00X2.4543Y-3.1399
M15
G01X2.4976Y-3.1399
M16
G05
G00X2.4543Y-3.4801
M15
G01X2.4976Y-3.4801
M16
G05
T0
M30
