%TF.GenerationSoftware,KiCad,Pcbnew,6.0.4-6f826c9f35~116~ubuntu21.10.1*%
%TF.CreationDate,2022-04-05T23:43:52+08:00*%
%TF.ProjectId,ST_Link_V2.1,53545f4c-696e-46b5-9f56-322e312e6b69,rev?*%
%TF.SameCoordinates,Original*%
%TF.FileFunction,AssemblyDrawing,Top*%
%FSLAX46Y46*%
G04 Gerber Fmt 4.6, Leading zero omitted, Abs format (unit mm)*
G04 Created by KiCad (PCBNEW 6.0.4-6f826c9f35~116~ubuntu21.10.1) date 2022-04-05 23:43:52*
%MOMM*%
%LPD*%
G01*
G04 APERTURE LIST*
%ADD10C,0.100000*%
%ADD11C,0.040000*%
G04 APERTURE END LIST*
D10*
%TO.C,C1*%
X71909809Y-89777000D02*
X71886000Y-89753190D01*
X71862190Y-89705571D01*
X71862190Y-89586523D01*
X71886000Y-89538904D01*
X71909809Y-89515095D01*
X71957428Y-89491285D01*
X72005047Y-89491285D01*
X72076476Y-89515095D01*
X72362190Y-89800809D01*
X72362190Y-89491285D01*
X71909809Y-89300809D02*
X71886000Y-89277000D01*
X71862190Y-89229380D01*
X71862190Y-89110333D01*
X71886000Y-89062714D01*
X71909809Y-89038904D01*
X71957428Y-89015095D01*
X72005047Y-89015095D01*
X72076476Y-89038904D01*
X72362190Y-89324619D01*
X72362190Y-89015095D01*
X72028857Y-88800809D02*
X72528857Y-88800809D01*
X72052666Y-88800809D02*
X72028857Y-88753190D01*
X72028857Y-88657952D01*
X72052666Y-88610333D01*
X72076476Y-88586523D01*
X72124095Y-88562714D01*
X72266952Y-88562714D01*
X72314571Y-88586523D01*
X72338380Y-88610333D01*
X72362190Y-88657952D01*
X72362190Y-88753190D01*
X72338380Y-88800809D01*
X72028857Y-88419857D02*
X72028857Y-88229380D01*
X72362190Y-88348428D02*
X71933619Y-88348428D01*
X71886000Y-88324619D01*
X71862190Y-88277000D01*
X71862190Y-88229380D01*
X72314571Y-92539333D02*
X72338380Y-92563142D01*
X72362190Y-92634571D01*
X72362190Y-92682190D01*
X72338380Y-92753619D01*
X72290761Y-92801238D01*
X72243142Y-92825047D01*
X72147904Y-92848857D01*
X72076476Y-92848857D01*
X71981238Y-92825047D01*
X71933619Y-92801238D01*
X71886000Y-92753619D01*
X71862190Y-92682190D01*
X71862190Y-92634571D01*
X71886000Y-92563142D01*
X71909809Y-92539333D01*
X72362190Y-92063142D02*
X72362190Y-92348857D01*
X72362190Y-92206000D02*
X71862190Y-92206000D01*
X71933619Y-92253619D01*
X71981238Y-92301238D01*
X72005047Y-92348857D01*
%TO.C,C2*%
X72925809Y-89777000D02*
X72902000Y-89753190D01*
X72878190Y-89705571D01*
X72878190Y-89586523D01*
X72902000Y-89538904D01*
X72925809Y-89515095D01*
X72973428Y-89491285D01*
X73021047Y-89491285D01*
X73092476Y-89515095D01*
X73378190Y-89800809D01*
X73378190Y-89491285D01*
X72925809Y-89300809D02*
X72902000Y-89277000D01*
X72878190Y-89229380D01*
X72878190Y-89110333D01*
X72902000Y-89062714D01*
X72925809Y-89038904D01*
X72973428Y-89015095D01*
X73021047Y-89015095D01*
X73092476Y-89038904D01*
X73378190Y-89324619D01*
X73378190Y-89015095D01*
X73044857Y-88800809D02*
X73544857Y-88800809D01*
X73068666Y-88800809D02*
X73044857Y-88753190D01*
X73044857Y-88657952D01*
X73068666Y-88610333D01*
X73092476Y-88586523D01*
X73140095Y-88562714D01*
X73282952Y-88562714D01*
X73330571Y-88586523D01*
X73354380Y-88610333D01*
X73378190Y-88657952D01*
X73378190Y-88753190D01*
X73354380Y-88800809D01*
X73044857Y-88419857D02*
X73044857Y-88229380D01*
X73378190Y-88348428D02*
X72949619Y-88348428D01*
X72902000Y-88324619D01*
X72878190Y-88277000D01*
X72878190Y-88229380D01*
X73330571Y-92539333D02*
X73354380Y-92563142D01*
X73378190Y-92634571D01*
X73378190Y-92682190D01*
X73354380Y-92753619D01*
X73306761Y-92801238D01*
X73259142Y-92825047D01*
X73163904Y-92848857D01*
X73092476Y-92848857D01*
X72997238Y-92825047D01*
X72949619Y-92801238D01*
X72902000Y-92753619D01*
X72878190Y-92682190D01*
X72878190Y-92634571D01*
X72902000Y-92563142D01*
X72925809Y-92539333D01*
X72925809Y-92348857D02*
X72902000Y-92325047D01*
X72878190Y-92277428D01*
X72878190Y-92158380D01*
X72902000Y-92110761D01*
X72925809Y-92086952D01*
X72973428Y-92063142D01*
X73021047Y-92063142D01*
X73092476Y-92086952D01*
X73378190Y-92372666D01*
X73378190Y-92063142D01*
%TO.C,C3*%
X69314190Y-74616380D02*
X69314190Y-74902095D01*
X69314190Y-74759238D02*
X68814190Y-74759238D01*
X68885619Y-74806857D01*
X68933238Y-74854476D01*
X68957047Y-74902095D01*
X68814190Y-74306857D02*
X68814190Y-74259238D01*
X68838000Y-74211619D01*
X68861809Y-74187809D01*
X68909428Y-74164000D01*
X69004666Y-74140190D01*
X69123714Y-74140190D01*
X69218952Y-74164000D01*
X69266571Y-74187809D01*
X69290380Y-74211619D01*
X69314190Y-74259238D01*
X69314190Y-74306857D01*
X69290380Y-74354476D01*
X69266571Y-74378285D01*
X69218952Y-74402095D01*
X69123714Y-74425904D01*
X69004666Y-74425904D01*
X68909428Y-74402095D01*
X68861809Y-74378285D01*
X68838000Y-74354476D01*
X68814190Y-74306857D01*
X68814190Y-73830666D02*
X68814190Y-73783047D01*
X68838000Y-73735428D01*
X68861809Y-73711619D01*
X68909428Y-73687809D01*
X69004666Y-73664000D01*
X69123714Y-73664000D01*
X69218952Y-73687809D01*
X69266571Y-73711619D01*
X69290380Y-73735428D01*
X69314190Y-73783047D01*
X69314190Y-73830666D01*
X69290380Y-73878285D01*
X69266571Y-73902095D01*
X69218952Y-73925904D01*
X69123714Y-73949714D01*
X69004666Y-73949714D01*
X68909428Y-73925904D01*
X68861809Y-73902095D01*
X68838000Y-73878285D01*
X68814190Y-73830666D01*
X68980857Y-73449714D02*
X69314190Y-73449714D01*
X69028476Y-73449714D02*
X69004666Y-73425904D01*
X68980857Y-73378285D01*
X68980857Y-73306857D01*
X69004666Y-73259238D01*
X69052285Y-73235428D01*
X69314190Y-73235428D01*
X68980857Y-73068761D02*
X68980857Y-72878285D01*
X69314190Y-72997333D02*
X68885619Y-72997333D01*
X68838000Y-72973523D01*
X68814190Y-72925904D01*
X68814190Y-72878285D01*
X69266571Y-76283333D02*
X69290380Y-76307142D01*
X69314190Y-76378571D01*
X69314190Y-76426190D01*
X69290380Y-76497619D01*
X69242761Y-76545238D01*
X69195142Y-76569047D01*
X69099904Y-76592857D01*
X69028476Y-76592857D01*
X68933238Y-76569047D01*
X68885619Y-76545238D01*
X68838000Y-76497619D01*
X68814190Y-76426190D01*
X68814190Y-76378571D01*
X68838000Y-76307142D01*
X68861809Y-76283333D01*
X68814190Y-76116666D02*
X68814190Y-75807142D01*
X69004666Y-75973809D01*
X69004666Y-75902380D01*
X69028476Y-75854761D01*
X69052285Y-75830952D01*
X69099904Y-75807142D01*
X69218952Y-75807142D01*
X69266571Y-75830952D01*
X69290380Y-75854761D01*
X69314190Y-75902380D01*
X69314190Y-76045238D01*
X69290380Y-76092857D01*
X69266571Y-76116666D01*
%TO.C,C4*%
X66607619Y-87348190D02*
X66321904Y-87348190D01*
X66464761Y-87348190D02*
X66464761Y-86848190D01*
X66417142Y-86919619D01*
X66369523Y-86967238D01*
X66321904Y-86991047D01*
X66917142Y-86848190D02*
X66964761Y-86848190D01*
X67012380Y-86872000D01*
X67036190Y-86895809D01*
X67060000Y-86943428D01*
X67083809Y-87038666D01*
X67083809Y-87157714D01*
X67060000Y-87252952D01*
X67036190Y-87300571D01*
X67012380Y-87324380D01*
X66964761Y-87348190D01*
X66917142Y-87348190D01*
X66869523Y-87324380D01*
X66845714Y-87300571D01*
X66821904Y-87252952D01*
X66798095Y-87157714D01*
X66798095Y-87038666D01*
X66821904Y-86943428D01*
X66845714Y-86895809D01*
X66869523Y-86872000D01*
X66917142Y-86848190D01*
X67393333Y-86848190D02*
X67440952Y-86848190D01*
X67488571Y-86872000D01*
X67512380Y-86895809D01*
X67536190Y-86943428D01*
X67560000Y-87038666D01*
X67560000Y-87157714D01*
X67536190Y-87252952D01*
X67512380Y-87300571D01*
X67488571Y-87324380D01*
X67440952Y-87348190D01*
X67393333Y-87348190D01*
X67345714Y-87324380D01*
X67321904Y-87300571D01*
X67298095Y-87252952D01*
X67274285Y-87157714D01*
X67274285Y-87038666D01*
X67298095Y-86943428D01*
X67321904Y-86895809D01*
X67345714Y-86872000D01*
X67393333Y-86848190D01*
X67774285Y-87014857D02*
X67774285Y-87348190D01*
X67774285Y-87062476D02*
X67798095Y-87038666D01*
X67845714Y-87014857D01*
X67917142Y-87014857D01*
X67964761Y-87038666D01*
X67988571Y-87086285D01*
X67988571Y-87348190D01*
X68155238Y-87014857D02*
X68345714Y-87014857D01*
X68226666Y-87348190D02*
X68226666Y-86919619D01*
X68250476Y-86872000D01*
X68298095Y-86848190D01*
X68345714Y-86848190D01*
X63924666Y-87300571D02*
X63900857Y-87324380D01*
X63829428Y-87348190D01*
X63781809Y-87348190D01*
X63710380Y-87324380D01*
X63662761Y-87276761D01*
X63638952Y-87229142D01*
X63615142Y-87133904D01*
X63615142Y-87062476D01*
X63638952Y-86967238D01*
X63662761Y-86919619D01*
X63710380Y-86872000D01*
X63781809Y-86848190D01*
X63829428Y-86848190D01*
X63900857Y-86872000D01*
X63924666Y-86895809D01*
X64353238Y-87014857D02*
X64353238Y-87348190D01*
X64234190Y-86824380D02*
X64115142Y-87181523D01*
X64424666Y-87181523D01*
%TO.C,C5*%
X68298190Y-89475380D02*
X68298190Y-89761095D01*
X68298190Y-89618238D02*
X67798190Y-89618238D01*
X67869619Y-89665857D01*
X67917238Y-89713476D01*
X67941047Y-89761095D01*
X67798190Y-89165857D02*
X67798190Y-89118238D01*
X67822000Y-89070619D01*
X67845809Y-89046809D01*
X67893428Y-89023000D01*
X67988666Y-88999190D01*
X68107714Y-88999190D01*
X68202952Y-89023000D01*
X68250571Y-89046809D01*
X68274380Y-89070619D01*
X68298190Y-89118238D01*
X68298190Y-89165857D01*
X68274380Y-89213476D01*
X68250571Y-89237285D01*
X68202952Y-89261095D01*
X68107714Y-89284904D01*
X67988666Y-89284904D01*
X67893428Y-89261095D01*
X67845809Y-89237285D01*
X67822000Y-89213476D01*
X67798190Y-89165857D01*
X67798190Y-88689666D02*
X67798190Y-88642047D01*
X67822000Y-88594428D01*
X67845809Y-88570619D01*
X67893428Y-88546809D01*
X67988666Y-88523000D01*
X68107714Y-88523000D01*
X68202952Y-88546809D01*
X68250571Y-88570619D01*
X68274380Y-88594428D01*
X68298190Y-88642047D01*
X68298190Y-88689666D01*
X68274380Y-88737285D01*
X68250571Y-88761095D01*
X68202952Y-88784904D01*
X68107714Y-88808714D01*
X67988666Y-88808714D01*
X67893428Y-88784904D01*
X67845809Y-88761095D01*
X67822000Y-88737285D01*
X67798190Y-88689666D01*
X67964857Y-88308714D02*
X68298190Y-88308714D01*
X68012476Y-88308714D02*
X67988666Y-88284904D01*
X67964857Y-88237285D01*
X67964857Y-88165857D01*
X67988666Y-88118238D01*
X68036285Y-88094428D01*
X68298190Y-88094428D01*
X67964857Y-87927761D02*
X67964857Y-87737285D01*
X68298190Y-87856333D02*
X67869619Y-87856333D01*
X67822000Y-87832523D01*
X67798190Y-87784904D01*
X67798190Y-87737285D01*
X68250571Y-92539333D02*
X68274380Y-92563142D01*
X68298190Y-92634571D01*
X68298190Y-92682190D01*
X68274380Y-92753619D01*
X68226761Y-92801238D01*
X68179142Y-92825047D01*
X68083904Y-92848857D01*
X68012476Y-92848857D01*
X67917238Y-92825047D01*
X67869619Y-92801238D01*
X67822000Y-92753619D01*
X67798190Y-92682190D01*
X67798190Y-92634571D01*
X67822000Y-92563142D01*
X67845809Y-92539333D01*
X67798190Y-92086952D02*
X67798190Y-92325047D01*
X68036285Y-92348857D01*
X68012476Y-92325047D01*
X67988666Y-92277428D01*
X67988666Y-92158380D01*
X68012476Y-92110761D01*
X68036285Y-92086952D01*
X68083904Y-92063142D01*
X68202952Y-92063142D01*
X68250571Y-92086952D01*
X68274380Y-92110761D01*
X68298190Y-92158380D01*
X68298190Y-92277428D01*
X68274380Y-92325047D01*
X68250571Y-92348857D01*
%TO.C,C6*%
X58955809Y-89634190D02*
X58670095Y-89634190D01*
X58812952Y-89634190D02*
X58812952Y-89134190D01*
X58765333Y-89205619D01*
X58717714Y-89253238D01*
X58670095Y-89277047D01*
X59384380Y-89300857D02*
X59384380Y-89634190D01*
X59170095Y-89300857D02*
X59170095Y-89562761D01*
X59193904Y-89610380D01*
X59241523Y-89634190D01*
X59312952Y-89634190D01*
X59360571Y-89610380D01*
X59384380Y-89586571D01*
X59551047Y-89300857D02*
X59741523Y-89300857D01*
X59622476Y-89634190D02*
X59622476Y-89205619D01*
X59646285Y-89158000D01*
X59693904Y-89134190D01*
X59741523Y-89134190D01*
X59098666Y-90856571D02*
X59074857Y-90880380D01*
X59003428Y-90904190D01*
X58955809Y-90904190D01*
X58884380Y-90880380D01*
X58836761Y-90832761D01*
X58812952Y-90785142D01*
X58789142Y-90689904D01*
X58789142Y-90618476D01*
X58812952Y-90523238D01*
X58836761Y-90475619D01*
X58884380Y-90428000D01*
X58955809Y-90404190D01*
X59003428Y-90404190D01*
X59074857Y-90428000D01*
X59098666Y-90451809D01*
X59527238Y-90404190D02*
X59432000Y-90404190D01*
X59384380Y-90428000D01*
X59360571Y-90451809D01*
X59312952Y-90523238D01*
X59289142Y-90618476D01*
X59289142Y-90808952D01*
X59312952Y-90856571D01*
X59336761Y-90880380D01*
X59384380Y-90904190D01*
X59479619Y-90904190D01*
X59527238Y-90880380D01*
X59551047Y-90856571D01*
X59574857Y-90808952D01*
X59574857Y-90689904D01*
X59551047Y-90642285D01*
X59527238Y-90618476D01*
X59479619Y-90594666D01*
X59384380Y-90594666D01*
X59336761Y-90618476D01*
X59312952Y-90642285D01*
X59289142Y-90689904D01*
%TO.C,C7*%
X78367619Y-80106190D02*
X78081904Y-80106190D01*
X78224761Y-80106190D02*
X78224761Y-79606190D01*
X78177142Y-79677619D01*
X78129523Y-79725238D01*
X78081904Y-79749047D01*
X78677142Y-79606190D02*
X78724761Y-79606190D01*
X78772380Y-79630000D01*
X78796190Y-79653809D01*
X78820000Y-79701428D01*
X78843809Y-79796666D01*
X78843809Y-79915714D01*
X78820000Y-80010952D01*
X78796190Y-80058571D01*
X78772380Y-80082380D01*
X78724761Y-80106190D01*
X78677142Y-80106190D01*
X78629523Y-80082380D01*
X78605714Y-80058571D01*
X78581904Y-80010952D01*
X78558095Y-79915714D01*
X78558095Y-79796666D01*
X78581904Y-79701428D01*
X78605714Y-79653809D01*
X78629523Y-79630000D01*
X78677142Y-79606190D01*
X79153333Y-79606190D02*
X79200952Y-79606190D01*
X79248571Y-79630000D01*
X79272380Y-79653809D01*
X79296190Y-79701428D01*
X79320000Y-79796666D01*
X79320000Y-79915714D01*
X79296190Y-80010952D01*
X79272380Y-80058571D01*
X79248571Y-80082380D01*
X79200952Y-80106190D01*
X79153333Y-80106190D01*
X79105714Y-80082380D01*
X79081904Y-80058571D01*
X79058095Y-80010952D01*
X79034285Y-79915714D01*
X79034285Y-79796666D01*
X79058095Y-79701428D01*
X79081904Y-79653809D01*
X79105714Y-79630000D01*
X79153333Y-79606190D01*
X79534285Y-79772857D02*
X79534285Y-80106190D01*
X79534285Y-79820476D02*
X79558095Y-79796666D01*
X79605714Y-79772857D01*
X79677142Y-79772857D01*
X79724761Y-79796666D01*
X79748571Y-79844285D01*
X79748571Y-80106190D01*
X79915238Y-79772857D02*
X80105714Y-79772857D01*
X79986666Y-80106190D02*
X79986666Y-79677619D01*
X80010476Y-79630000D01*
X80058095Y-79606190D01*
X80105714Y-79606190D01*
X78426666Y-79238571D02*
X78402857Y-79262380D01*
X78331428Y-79286190D01*
X78283809Y-79286190D01*
X78212380Y-79262380D01*
X78164761Y-79214761D01*
X78140952Y-79167142D01*
X78117142Y-79071904D01*
X78117142Y-79000476D01*
X78140952Y-78905238D01*
X78164761Y-78857619D01*
X78212380Y-78810000D01*
X78283809Y-78786190D01*
X78331428Y-78786190D01*
X78402857Y-78810000D01*
X78426666Y-78833809D01*
X78593333Y-78786190D02*
X78926666Y-78786190D01*
X78712380Y-79286190D01*
%TO.C,C8*%
X61019619Y-89888190D02*
X60733904Y-89888190D01*
X60876761Y-89888190D02*
X60876761Y-89388190D01*
X60829142Y-89459619D01*
X60781523Y-89507238D01*
X60733904Y-89531047D01*
X61329142Y-89388190D02*
X61376761Y-89388190D01*
X61424380Y-89412000D01*
X61448190Y-89435809D01*
X61472000Y-89483428D01*
X61495809Y-89578666D01*
X61495809Y-89697714D01*
X61472000Y-89792952D01*
X61448190Y-89840571D01*
X61424380Y-89864380D01*
X61376761Y-89888190D01*
X61329142Y-89888190D01*
X61281523Y-89864380D01*
X61257714Y-89840571D01*
X61233904Y-89792952D01*
X61210095Y-89697714D01*
X61210095Y-89578666D01*
X61233904Y-89483428D01*
X61257714Y-89435809D01*
X61281523Y-89412000D01*
X61329142Y-89388190D01*
X61805333Y-89388190D02*
X61852952Y-89388190D01*
X61900571Y-89412000D01*
X61924380Y-89435809D01*
X61948190Y-89483428D01*
X61972000Y-89578666D01*
X61972000Y-89697714D01*
X61948190Y-89792952D01*
X61924380Y-89840571D01*
X61900571Y-89864380D01*
X61852952Y-89888190D01*
X61805333Y-89888190D01*
X61757714Y-89864380D01*
X61733904Y-89840571D01*
X61710095Y-89792952D01*
X61686285Y-89697714D01*
X61686285Y-89578666D01*
X61710095Y-89483428D01*
X61733904Y-89435809D01*
X61757714Y-89412000D01*
X61805333Y-89388190D01*
X62186285Y-89554857D02*
X62186285Y-89888190D01*
X62186285Y-89602476D02*
X62210095Y-89578666D01*
X62257714Y-89554857D01*
X62329142Y-89554857D01*
X62376761Y-89578666D01*
X62400571Y-89626285D01*
X62400571Y-89888190D01*
X62567238Y-89554857D02*
X62757714Y-89554857D01*
X62638666Y-89888190D02*
X62638666Y-89459619D01*
X62662476Y-89412000D01*
X62710095Y-89388190D01*
X62757714Y-89388190D01*
X61638666Y-91872571D02*
X61614857Y-91896380D01*
X61543428Y-91920190D01*
X61495809Y-91920190D01*
X61424380Y-91896380D01*
X61376761Y-91848761D01*
X61352952Y-91801142D01*
X61329142Y-91705904D01*
X61329142Y-91634476D01*
X61352952Y-91539238D01*
X61376761Y-91491619D01*
X61424380Y-91444000D01*
X61495809Y-91420190D01*
X61543428Y-91420190D01*
X61614857Y-91444000D01*
X61638666Y-91467809D01*
X61924380Y-91634476D02*
X61876761Y-91610666D01*
X61852952Y-91586857D01*
X61829142Y-91539238D01*
X61829142Y-91515428D01*
X61852952Y-91467809D01*
X61876761Y-91444000D01*
X61924380Y-91420190D01*
X62019619Y-91420190D01*
X62067238Y-91444000D01*
X62091047Y-91467809D01*
X62114857Y-91515428D01*
X62114857Y-91539238D01*
X62091047Y-91586857D01*
X62067238Y-91610666D01*
X62019619Y-91634476D01*
X61924380Y-91634476D01*
X61876761Y-91658285D01*
X61852952Y-91682095D01*
X61829142Y-91729714D01*
X61829142Y-91824952D01*
X61852952Y-91872571D01*
X61876761Y-91896380D01*
X61924380Y-91920190D01*
X62019619Y-91920190D01*
X62067238Y-91896380D01*
X62091047Y-91872571D01*
X62114857Y-91824952D01*
X62114857Y-91729714D01*
X62091047Y-91682095D01*
X62067238Y-91658285D01*
X62019619Y-91634476D01*
%TO.C,C10*%
X74394190Y-89475380D02*
X74394190Y-89761095D01*
X74394190Y-89618238D02*
X73894190Y-89618238D01*
X73965619Y-89665857D01*
X74013238Y-89713476D01*
X74037047Y-89761095D01*
X73894190Y-89165857D02*
X73894190Y-89118238D01*
X73918000Y-89070619D01*
X73941809Y-89046809D01*
X73989428Y-89023000D01*
X74084666Y-88999190D01*
X74203714Y-88999190D01*
X74298952Y-89023000D01*
X74346571Y-89046809D01*
X74370380Y-89070619D01*
X74394190Y-89118238D01*
X74394190Y-89165857D01*
X74370380Y-89213476D01*
X74346571Y-89237285D01*
X74298952Y-89261095D01*
X74203714Y-89284904D01*
X74084666Y-89284904D01*
X73989428Y-89261095D01*
X73941809Y-89237285D01*
X73918000Y-89213476D01*
X73894190Y-89165857D01*
X73894190Y-88689666D02*
X73894190Y-88642047D01*
X73918000Y-88594428D01*
X73941809Y-88570619D01*
X73989428Y-88546809D01*
X74084666Y-88523000D01*
X74203714Y-88523000D01*
X74298952Y-88546809D01*
X74346571Y-88570619D01*
X74370380Y-88594428D01*
X74394190Y-88642047D01*
X74394190Y-88689666D01*
X74370380Y-88737285D01*
X74346571Y-88761095D01*
X74298952Y-88784904D01*
X74203714Y-88808714D01*
X74084666Y-88808714D01*
X73989428Y-88784904D01*
X73941809Y-88761095D01*
X73918000Y-88737285D01*
X73894190Y-88689666D01*
X74060857Y-88308714D02*
X74394190Y-88308714D01*
X74108476Y-88308714D02*
X74084666Y-88284904D01*
X74060857Y-88237285D01*
X74060857Y-88165857D01*
X74084666Y-88118238D01*
X74132285Y-88094428D01*
X74394190Y-88094428D01*
X74060857Y-87927761D02*
X74060857Y-87737285D01*
X74394190Y-87856333D02*
X73965619Y-87856333D01*
X73918000Y-87832523D01*
X73894190Y-87784904D01*
X73894190Y-87737285D01*
X74346571Y-93031428D02*
X74370380Y-93055238D01*
X74394190Y-93126666D01*
X74394190Y-93174285D01*
X74370380Y-93245714D01*
X74322761Y-93293333D01*
X74275142Y-93317142D01*
X74179904Y-93340952D01*
X74108476Y-93340952D01*
X74013238Y-93317142D01*
X73965619Y-93293333D01*
X73918000Y-93245714D01*
X73894190Y-93174285D01*
X73894190Y-93126666D01*
X73918000Y-93055238D01*
X73941809Y-93031428D01*
X74394190Y-92555238D02*
X74394190Y-92840952D01*
X74394190Y-92698095D02*
X73894190Y-92698095D01*
X73965619Y-92745714D01*
X74013238Y-92793333D01*
X74037047Y-92840952D01*
X73894190Y-92245714D02*
X73894190Y-92198095D01*
X73918000Y-92150476D01*
X73941809Y-92126666D01*
X73989428Y-92102857D01*
X74084666Y-92079047D01*
X74203714Y-92079047D01*
X74298952Y-92102857D01*
X74346571Y-92126666D01*
X74370380Y-92150476D01*
X74394190Y-92198095D01*
X74394190Y-92245714D01*
X74370380Y-92293333D01*
X74346571Y-92317142D01*
X74298952Y-92340952D01*
X74203714Y-92364761D01*
X74084666Y-92364761D01*
X73989428Y-92340952D01*
X73941809Y-92317142D01*
X73918000Y-92293333D01*
X73894190Y-92245714D01*
%TO.C,C11*%
X65813809Y-74791000D02*
X65790000Y-74767190D01*
X65766190Y-74719571D01*
X65766190Y-74600523D01*
X65790000Y-74552904D01*
X65813809Y-74529095D01*
X65861428Y-74505285D01*
X65909047Y-74505285D01*
X65980476Y-74529095D01*
X66266190Y-74814809D01*
X66266190Y-74505285D01*
X65813809Y-74314809D02*
X65790000Y-74291000D01*
X65766190Y-74243380D01*
X65766190Y-74124333D01*
X65790000Y-74076714D01*
X65813809Y-74052904D01*
X65861428Y-74029095D01*
X65909047Y-74029095D01*
X65980476Y-74052904D01*
X66266190Y-74338619D01*
X66266190Y-74029095D01*
X65932857Y-73814809D02*
X66266190Y-73814809D01*
X65980476Y-73814809D02*
X65956666Y-73791000D01*
X65932857Y-73743380D01*
X65932857Y-73671952D01*
X65956666Y-73624333D01*
X66004285Y-73600523D01*
X66266190Y-73600523D01*
X65932857Y-73433857D02*
X65932857Y-73243380D01*
X66266190Y-73362428D02*
X65837619Y-73362428D01*
X65790000Y-73338619D01*
X65766190Y-73291000D01*
X65766190Y-73243380D01*
X66218571Y-76267428D02*
X66242380Y-76291238D01*
X66266190Y-76362666D01*
X66266190Y-76410285D01*
X66242380Y-76481714D01*
X66194761Y-76529333D01*
X66147142Y-76553142D01*
X66051904Y-76576952D01*
X65980476Y-76576952D01*
X65885238Y-76553142D01*
X65837619Y-76529333D01*
X65790000Y-76481714D01*
X65766190Y-76410285D01*
X65766190Y-76362666D01*
X65790000Y-76291238D01*
X65813809Y-76267428D01*
X66266190Y-75791238D02*
X66266190Y-76076952D01*
X66266190Y-75934095D02*
X65766190Y-75934095D01*
X65837619Y-75981714D01*
X65885238Y-76029333D01*
X65909047Y-76076952D01*
X66266190Y-75315047D02*
X66266190Y-75600761D01*
X66266190Y-75457904D02*
X65766190Y-75457904D01*
X65837619Y-75505523D01*
X65885238Y-75553142D01*
X65909047Y-75600761D01*
%TO.C,C12*%
X61019619Y-78966190D02*
X60733904Y-78966190D01*
X60876761Y-78966190D02*
X60876761Y-78466190D01*
X60829142Y-78537619D01*
X60781523Y-78585238D01*
X60733904Y-78609047D01*
X61329142Y-78466190D02*
X61376761Y-78466190D01*
X61424380Y-78490000D01*
X61448190Y-78513809D01*
X61472000Y-78561428D01*
X61495809Y-78656666D01*
X61495809Y-78775714D01*
X61472000Y-78870952D01*
X61448190Y-78918571D01*
X61424380Y-78942380D01*
X61376761Y-78966190D01*
X61329142Y-78966190D01*
X61281523Y-78942380D01*
X61257714Y-78918571D01*
X61233904Y-78870952D01*
X61210095Y-78775714D01*
X61210095Y-78656666D01*
X61233904Y-78561428D01*
X61257714Y-78513809D01*
X61281523Y-78490000D01*
X61329142Y-78466190D01*
X61805333Y-78466190D02*
X61852952Y-78466190D01*
X61900571Y-78490000D01*
X61924380Y-78513809D01*
X61948190Y-78561428D01*
X61972000Y-78656666D01*
X61972000Y-78775714D01*
X61948190Y-78870952D01*
X61924380Y-78918571D01*
X61900571Y-78942380D01*
X61852952Y-78966190D01*
X61805333Y-78966190D01*
X61757714Y-78942380D01*
X61733904Y-78918571D01*
X61710095Y-78870952D01*
X61686285Y-78775714D01*
X61686285Y-78656666D01*
X61710095Y-78561428D01*
X61733904Y-78513809D01*
X61757714Y-78490000D01*
X61805333Y-78466190D01*
X62400571Y-78632857D02*
X62400571Y-78966190D01*
X62186285Y-78632857D02*
X62186285Y-78894761D01*
X62210095Y-78942380D01*
X62257714Y-78966190D01*
X62329142Y-78966190D01*
X62376761Y-78942380D01*
X62400571Y-78918571D01*
X62567238Y-78632857D02*
X62757714Y-78632857D01*
X62638666Y-78966190D02*
X62638666Y-78537619D01*
X62662476Y-78490000D01*
X62710095Y-78466190D01*
X62757714Y-78466190D01*
X61400571Y-77648571D02*
X61376761Y-77672380D01*
X61305333Y-77696190D01*
X61257714Y-77696190D01*
X61186285Y-77672380D01*
X61138666Y-77624761D01*
X61114857Y-77577142D01*
X61091047Y-77481904D01*
X61091047Y-77410476D01*
X61114857Y-77315238D01*
X61138666Y-77267619D01*
X61186285Y-77220000D01*
X61257714Y-77196190D01*
X61305333Y-77196190D01*
X61376761Y-77220000D01*
X61400571Y-77243809D01*
X61876761Y-77696190D02*
X61591047Y-77696190D01*
X61733904Y-77696190D02*
X61733904Y-77196190D01*
X61686285Y-77267619D01*
X61638666Y-77315238D01*
X61591047Y-77339047D01*
X62067238Y-77243809D02*
X62091047Y-77220000D01*
X62138666Y-77196190D01*
X62257714Y-77196190D01*
X62305333Y-77220000D01*
X62329142Y-77243809D01*
X62352952Y-77291428D01*
X62352952Y-77339047D01*
X62329142Y-77410476D01*
X62043428Y-77696190D01*
X62352952Y-77696190D01*
%TO.C,C13*%
X68298190Y-74505285D02*
X68298190Y-74791000D01*
X68298190Y-74648142D02*
X67798190Y-74648142D01*
X67869619Y-74695761D01*
X67917238Y-74743380D01*
X67941047Y-74791000D01*
X67798190Y-74195761D02*
X67798190Y-74148142D01*
X67822000Y-74100523D01*
X67845809Y-74076714D01*
X67893428Y-74052904D01*
X67988666Y-74029095D01*
X68107714Y-74029095D01*
X68202952Y-74052904D01*
X68250571Y-74076714D01*
X68274380Y-74100523D01*
X68298190Y-74148142D01*
X68298190Y-74195761D01*
X68274380Y-74243380D01*
X68250571Y-74267190D01*
X68202952Y-74291000D01*
X68107714Y-74314809D01*
X67988666Y-74314809D01*
X67893428Y-74291000D01*
X67845809Y-74267190D01*
X67822000Y-74243380D01*
X67798190Y-74195761D01*
X67964857Y-73600523D02*
X68298190Y-73600523D01*
X67964857Y-73814809D02*
X68226761Y-73814809D01*
X68274380Y-73791000D01*
X68298190Y-73743380D01*
X68298190Y-73671952D01*
X68274380Y-73624333D01*
X68250571Y-73600523D01*
X67964857Y-73433857D02*
X67964857Y-73243380D01*
X68298190Y-73362428D02*
X67869619Y-73362428D01*
X67822000Y-73338619D01*
X67798190Y-73291000D01*
X67798190Y-73243380D01*
X68250571Y-76267428D02*
X68274380Y-76291238D01*
X68298190Y-76362666D01*
X68298190Y-76410285D01*
X68274380Y-76481714D01*
X68226761Y-76529333D01*
X68179142Y-76553142D01*
X68083904Y-76576952D01*
X68012476Y-76576952D01*
X67917238Y-76553142D01*
X67869619Y-76529333D01*
X67822000Y-76481714D01*
X67798190Y-76410285D01*
X67798190Y-76362666D01*
X67822000Y-76291238D01*
X67845809Y-76267428D01*
X68298190Y-75791238D02*
X68298190Y-76076952D01*
X68298190Y-75934095D02*
X67798190Y-75934095D01*
X67869619Y-75981714D01*
X67917238Y-76029333D01*
X67941047Y-76076952D01*
X67798190Y-75624571D02*
X67798190Y-75315047D01*
X67988666Y-75481714D01*
X67988666Y-75410285D01*
X68012476Y-75362666D01*
X68036285Y-75338857D01*
X68083904Y-75315047D01*
X68202952Y-75315047D01*
X68250571Y-75338857D01*
X68274380Y-75362666D01*
X68298190Y-75410285D01*
X68298190Y-75553142D01*
X68274380Y-75600761D01*
X68250571Y-75624571D01*
%TO.C,C14*%
X57701714Y-78458190D02*
X57416000Y-78458190D01*
X57558857Y-78458190D02*
X57558857Y-77958190D01*
X57511238Y-78029619D01*
X57463619Y-78077238D01*
X57416000Y-78101047D01*
X58011238Y-77958190D02*
X58058857Y-77958190D01*
X58106476Y-77982000D01*
X58130285Y-78005809D01*
X58154095Y-78053428D01*
X58177904Y-78148666D01*
X58177904Y-78267714D01*
X58154095Y-78362952D01*
X58130285Y-78410571D01*
X58106476Y-78434380D01*
X58058857Y-78458190D01*
X58011238Y-78458190D01*
X57963619Y-78434380D01*
X57939809Y-78410571D01*
X57916000Y-78362952D01*
X57892190Y-78267714D01*
X57892190Y-78148666D01*
X57916000Y-78053428D01*
X57939809Y-78005809D01*
X57963619Y-77982000D01*
X58011238Y-77958190D01*
X58606476Y-78124857D02*
X58606476Y-78458190D01*
X58392190Y-78124857D02*
X58392190Y-78386761D01*
X58416000Y-78434380D01*
X58463619Y-78458190D01*
X58535047Y-78458190D01*
X58582666Y-78434380D01*
X58606476Y-78410571D01*
X58773142Y-78124857D02*
X58963619Y-78124857D01*
X58844571Y-78458190D02*
X58844571Y-78029619D01*
X58868380Y-77982000D01*
X58916000Y-77958190D01*
X58963619Y-77958190D01*
X57844571Y-76632571D02*
X57820761Y-76656380D01*
X57749333Y-76680190D01*
X57701714Y-76680190D01*
X57630285Y-76656380D01*
X57582666Y-76608761D01*
X57558857Y-76561142D01*
X57535047Y-76465904D01*
X57535047Y-76394476D01*
X57558857Y-76299238D01*
X57582666Y-76251619D01*
X57630285Y-76204000D01*
X57701714Y-76180190D01*
X57749333Y-76180190D01*
X57820761Y-76204000D01*
X57844571Y-76227809D01*
X58320761Y-76680190D02*
X58035047Y-76680190D01*
X58177904Y-76680190D02*
X58177904Y-76180190D01*
X58130285Y-76251619D01*
X58082666Y-76299238D01*
X58035047Y-76323047D01*
X58749333Y-76346857D02*
X58749333Y-76680190D01*
X58630285Y-76156380D02*
X58511238Y-76513523D01*
X58820761Y-76513523D01*
%TO.C,C15*%
X67282190Y-74489380D02*
X67282190Y-74775095D01*
X67282190Y-74632238D02*
X66782190Y-74632238D01*
X66853619Y-74679857D01*
X66901238Y-74727476D01*
X66925047Y-74775095D01*
X66782190Y-74179857D02*
X66782190Y-74132238D01*
X66806000Y-74084619D01*
X66829809Y-74060809D01*
X66877428Y-74037000D01*
X66972666Y-74013190D01*
X67091714Y-74013190D01*
X67186952Y-74037000D01*
X67234571Y-74060809D01*
X67258380Y-74084619D01*
X67282190Y-74132238D01*
X67282190Y-74179857D01*
X67258380Y-74227476D01*
X67234571Y-74251285D01*
X67186952Y-74275095D01*
X67091714Y-74298904D01*
X66972666Y-74298904D01*
X66877428Y-74275095D01*
X66829809Y-74251285D01*
X66806000Y-74227476D01*
X66782190Y-74179857D01*
X66782190Y-73703666D02*
X66782190Y-73656047D01*
X66806000Y-73608428D01*
X66829809Y-73584619D01*
X66877428Y-73560809D01*
X66972666Y-73537000D01*
X67091714Y-73537000D01*
X67186952Y-73560809D01*
X67234571Y-73584619D01*
X67258380Y-73608428D01*
X67282190Y-73656047D01*
X67282190Y-73703666D01*
X67258380Y-73751285D01*
X67234571Y-73775095D01*
X67186952Y-73798904D01*
X67091714Y-73822714D01*
X66972666Y-73822714D01*
X66877428Y-73798904D01*
X66829809Y-73775095D01*
X66806000Y-73751285D01*
X66782190Y-73703666D01*
X66948857Y-73322714D02*
X67282190Y-73322714D01*
X66996476Y-73322714D02*
X66972666Y-73298904D01*
X66948857Y-73251285D01*
X66948857Y-73179857D01*
X66972666Y-73132238D01*
X67020285Y-73108428D01*
X67282190Y-73108428D01*
X66948857Y-72941761D02*
X66948857Y-72751285D01*
X67282190Y-72870333D02*
X66853619Y-72870333D01*
X66806000Y-72846523D01*
X66782190Y-72798904D01*
X66782190Y-72751285D01*
X67234571Y-76267428D02*
X67258380Y-76291238D01*
X67282190Y-76362666D01*
X67282190Y-76410285D01*
X67258380Y-76481714D01*
X67210761Y-76529333D01*
X67163142Y-76553142D01*
X67067904Y-76576952D01*
X66996476Y-76576952D01*
X66901238Y-76553142D01*
X66853619Y-76529333D01*
X66806000Y-76481714D01*
X66782190Y-76410285D01*
X66782190Y-76362666D01*
X66806000Y-76291238D01*
X66829809Y-76267428D01*
X67282190Y-75791238D02*
X67282190Y-76076952D01*
X67282190Y-75934095D02*
X66782190Y-75934095D01*
X66853619Y-75981714D01*
X66901238Y-76029333D01*
X66925047Y-76076952D01*
X66782190Y-75338857D02*
X66782190Y-75576952D01*
X67020285Y-75600761D01*
X66996476Y-75576952D01*
X66972666Y-75529333D01*
X66972666Y-75410285D01*
X66996476Y-75362666D01*
X67020285Y-75338857D01*
X67067904Y-75315047D01*
X67186952Y-75315047D01*
X67234571Y-75338857D01*
X67258380Y-75362666D01*
X67282190Y-75410285D01*
X67282190Y-75529333D01*
X67258380Y-75576952D01*
X67234571Y-75600761D01*
%TO.C,D1*%
X73926190Y-75561904D02*
X73926190Y-75800000D01*
X73426190Y-75800000D01*
X73664285Y-75395238D02*
X73664285Y-75228571D01*
X73926190Y-75157142D02*
X73926190Y-75395238D01*
X73426190Y-75395238D01*
X73426190Y-75157142D01*
X73926190Y-74942857D02*
X73426190Y-74942857D01*
X73426190Y-74823809D01*
X73450000Y-74752380D01*
X73497619Y-74704761D01*
X73545238Y-74680952D01*
X73640476Y-74657142D01*
X73711904Y-74657142D01*
X73807142Y-74680952D01*
X73854761Y-74704761D01*
X73902380Y-74752380D01*
X73926190Y-74823809D01*
X73926190Y-74942857D01*
X73973809Y-74561904D02*
X73973809Y-74180952D01*
X73926190Y-73776190D02*
X73688095Y-73942857D01*
X73926190Y-74061904D02*
X73426190Y-74061904D01*
X73426190Y-73871428D01*
X73450000Y-73823809D01*
X73473809Y-73800000D01*
X73521428Y-73776190D01*
X73592857Y-73776190D01*
X73640476Y-73800000D01*
X73664285Y-73823809D01*
X73688095Y-73871428D01*
X73688095Y-74061904D01*
D11*
X73773095Y-77146523D02*
X73523095Y-77146523D01*
X73523095Y-77087000D01*
X73535000Y-77051285D01*
X73558809Y-77027476D01*
X73582619Y-77015571D01*
X73630238Y-77003666D01*
X73665952Y-77003666D01*
X73713571Y-77015571D01*
X73737380Y-77027476D01*
X73761190Y-77051285D01*
X73773095Y-77087000D01*
X73773095Y-77146523D01*
X73773095Y-76765571D02*
X73773095Y-76908428D01*
X73773095Y-76837000D02*
X73523095Y-76837000D01*
X73558809Y-76860809D01*
X73582619Y-76884619D01*
X73594523Y-76908428D01*
D10*
%TO.C,D2*%
X74926190Y-75561904D02*
X74926190Y-75800000D01*
X74426190Y-75800000D01*
X74664285Y-75395238D02*
X74664285Y-75228571D01*
X74926190Y-75157142D02*
X74926190Y-75395238D01*
X74426190Y-75395238D01*
X74426190Y-75157142D01*
X74926190Y-74942857D02*
X74426190Y-74942857D01*
X74426190Y-74823809D01*
X74450000Y-74752380D01*
X74497619Y-74704761D01*
X74545238Y-74680952D01*
X74640476Y-74657142D01*
X74711904Y-74657142D01*
X74807142Y-74680952D01*
X74854761Y-74704761D01*
X74902380Y-74752380D01*
X74926190Y-74823809D01*
X74926190Y-74942857D01*
X74973809Y-74561904D02*
X74973809Y-74180952D01*
X74450000Y-73800000D02*
X74426190Y-73847619D01*
X74426190Y-73919047D01*
X74450000Y-73990476D01*
X74497619Y-74038095D01*
X74545238Y-74061904D01*
X74640476Y-74085714D01*
X74711904Y-74085714D01*
X74807142Y-74061904D01*
X74854761Y-74038095D01*
X74902380Y-73990476D01*
X74926190Y-73919047D01*
X74926190Y-73871428D01*
X74902380Y-73800000D01*
X74878571Y-73776190D01*
X74711904Y-73776190D01*
X74711904Y-73871428D01*
D11*
X74789095Y-77146523D02*
X74539095Y-77146523D01*
X74539095Y-77087000D01*
X74551000Y-77051285D01*
X74574809Y-77027476D01*
X74598619Y-77015571D01*
X74646238Y-77003666D01*
X74681952Y-77003666D01*
X74729571Y-77015571D01*
X74753380Y-77027476D01*
X74777190Y-77051285D01*
X74789095Y-77087000D01*
X74789095Y-77146523D01*
X74562904Y-76908428D02*
X74551000Y-76896523D01*
X74539095Y-76872714D01*
X74539095Y-76813190D01*
X74551000Y-76789380D01*
X74562904Y-76777476D01*
X74586714Y-76765571D01*
X74610523Y-76765571D01*
X74646238Y-76777476D01*
X74789095Y-76920333D01*
X74789095Y-76765571D01*
D10*
%TO.C,D3*%
X72876190Y-75561904D02*
X72876190Y-75800000D01*
X72376190Y-75800000D01*
X72614285Y-75395238D02*
X72614285Y-75228571D01*
X72876190Y-75157142D02*
X72876190Y-75395238D01*
X72376190Y-75395238D01*
X72376190Y-75157142D01*
X72876190Y-74942857D02*
X72376190Y-74942857D01*
X72376190Y-74823809D01*
X72400000Y-74752380D01*
X72447619Y-74704761D01*
X72495238Y-74680952D01*
X72590476Y-74657142D01*
X72661904Y-74657142D01*
X72757142Y-74680952D01*
X72804761Y-74704761D01*
X72852380Y-74752380D01*
X72876190Y-74823809D01*
X72876190Y-74942857D01*
X72923809Y-74561904D02*
X72923809Y-74180952D01*
X72614285Y-73895238D02*
X72638095Y-73823809D01*
X72661904Y-73800000D01*
X72709523Y-73776190D01*
X72780952Y-73776190D01*
X72828571Y-73800000D01*
X72852380Y-73823809D01*
X72876190Y-73871428D01*
X72876190Y-74061904D01*
X72376190Y-74061904D01*
X72376190Y-73895238D01*
X72400000Y-73847619D01*
X72423809Y-73823809D01*
X72471428Y-73800000D01*
X72519047Y-73800000D01*
X72566666Y-73823809D01*
X72590476Y-73847619D01*
X72614285Y-73895238D01*
X72614285Y-74061904D01*
D11*
X72757095Y-77146523D02*
X72507095Y-77146523D01*
X72507095Y-77087000D01*
X72519000Y-77051285D01*
X72542809Y-77027476D01*
X72566619Y-77015571D01*
X72614238Y-77003666D01*
X72649952Y-77003666D01*
X72697571Y-77015571D01*
X72721380Y-77027476D01*
X72745190Y-77051285D01*
X72757095Y-77087000D01*
X72757095Y-77146523D01*
X72507095Y-76920333D02*
X72507095Y-76765571D01*
X72602333Y-76848904D01*
X72602333Y-76813190D01*
X72614238Y-76789380D01*
X72626142Y-76777476D01*
X72649952Y-76765571D01*
X72709476Y-76765571D01*
X72733285Y-76777476D01*
X72745190Y-76789380D01*
X72757095Y-76813190D01*
X72757095Y-76884619D01*
X72745190Y-76908428D01*
X72733285Y-76920333D01*
D10*
%TO.C,D4*%
X76926190Y-75561904D02*
X76926190Y-75800000D01*
X76426190Y-75800000D01*
X76664285Y-75395238D02*
X76664285Y-75228571D01*
X76926190Y-75157142D02*
X76926190Y-75395238D01*
X76426190Y-75395238D01*
X76426190Y-75157142D01*
X76926190Y-74942857D02*
X76426190Y-74942857D01*
X76426190Y-74823809D01*
X76450000Y-74752380D01*
X76497619Y-74704761D01*
X76545238Y-74680952D01*
X76640476Y-74657142D01*
X76711904Y-74657142D01*
X76807142Y-74680952D01*
X76854761Y-74704761D01*
X76902380Y-74752380D01*
X76926190Y-74823809D01*
X76926190Y-74942857D01*
X76973809Y-74561904D02*
X76973809Y-74180952D01*
X76664285Y-73895238D02*
X76688095Y-73823809D01*
X76711904Y-73800000D01*
X76759523Y-73776190D01*
X76830952Y-73776190D01*
X76878571Y-73800000D01*
X76902380Y-73823809D01*
X76926190Y-73871428D01*
X76926190Y-74061904D01*
X76426190Y-74061904D01*
X76426190Y-73895238D01*
X76450000Y-73847619D01*
X76473809Y-73823809D01*
X76521428Y-73800000D01*
X76569047Y-73800000D01*
X76616666Y-73823809D01*
X76640476Y-73847619D01*
X76664285Y-73895238D01*
X76664285Y-74061904D01*
D11*
X76821095Y-77146523D02*
X76571095Y-77146523D01*
X76571095Y-77087000D01*
X76583000Y-77051285D01*
X76606809Y-77027476D01*
X76630619Y-77015571D01*
X76678238Y-77003666D01*
X76713952Y-77003666D01*
X76761571Y-77015571D01*
X76785380Y-77027476D01*
X76809190Y-77051285D01*
X76821095Y-77087000D01*
X76821095Y-77146523D01*
X76654428Y-76789380D02*
X76821095Y-76789380D01*
X76559190Y-76848904D02*
X76737761Y-76908428D01*
X76737761Y-76753666D01*
D10*
%TO.C,D5*%
X75926190Y-75561904D02*
X75926190Y-75800000D01*
X75426190Y-75800000D01*
X75664285Y-75395238D02*
X75664285Y-75228571D01*
X75926190Y-75157142D02*
X75926190Y-75395238D01*
X75426190Y-75395238D01*
X75426190Y-75157142D01*
X75926190Y-74942857D02*
X75426190Y-74942857D01*
X75426190Y-74823809D01*
X75450000Y-74752380D01*
X75497619Y-74704761D01*
X75545238Y-74680952D01*
X75640476Y-74657142D01*
X75711904Y-74657142D01*
X75807142Y-74680952D01*
X75854761Y-74704761D01*
X75902380Y-74752380D01*
X75926190Y-74823809D01*
X75926190Y-74942857D01*
X75973809Y-74561904D02*
X75973809Y-74180952D01*
X75450000Y-73800000D02*
X75426190Y-73847619D01*
X75426190Y-73919047D01*
X75450000Y-73990476D01*
X75497619Y-74038095D01*
X75545238Y-74061904D01*
X75640476Y-74085714D01*
X75711904Y-74085714D01*
X75807142Y-74061904D01*
X75854761Y-74038095D01*
X75902380Y-73990476D01*
X75926190Y-73919047D01*
X75926190Y-73871428D01*
X75902380Y-73800000D01*
X75878571Y-73776190D01*
X75711904Y-73776190D01*
X75711904Y-73871428D01*
D11*
X75805095Y-77146523D02*
X75555095Y-77146523D01*
X75555095Y-77087000D01*
X75567000Y-77051285D01*
X75590809Y-77027476D01*
X75614619Y-77015571D01*
X75662238Y-77003666D01*
X75697952Y-77003666D01*
X75745571Y-77015571D01*
X75769380Y-77027476D01*
X75793190Y-77051285D01*
X75805095Y-77087000D01*
X75805095Y-77146523D01*
X75555095Y-76777476D02*
X75555095Y-76896523D01*
X75674142Y-76908428D01*
X75662238Y-76896523D01*
X75650333Y-76872714D01*
X75650333Y-76813190D01*
X75662238Y-76789380D01*
X75674142Y-76777476D01*
X75697952Y-76765571D01*
X75757476Y-76765571D01*
X75781285Y-76777476D01*
X75793190Y-76789380D01*
X75805095Y-76813190D01*
X75805095Y-76872714D01*
X75793190Y-76896523D01*
X75781285Y-76908428D01*
D10*
%TO.C,J1*%
X54446190Y-88919238D02*
X54850952Y-88919238D01*
X54898571Y-88895428D01*
X54922380Y-88871619D01*
X54946190Y-88824000D01*
X54946190Y-88728761D01*
X54922380Y-88681142D01*
X54898571Y-88657333D01*
X54850952Y-88633523D01*
X54446190Y-88633523D01*
X54922380Y-88419238D02*
X54946190Y-88347809D01*
X54946190Y-88228761D01*
X54922380Y-88181142D01*
X54898571Y-88157333D01*
X54850952Y-88133523D01*
X54803333Y-88133523D01*
X54755714Y-88157333D01*
X54731904Y-88181142D01*
X54708095Y-88228761D01*
X54684285Y-88324000D01*
X54660476Y-88371619D01*
X54636666Y-88395428D01*
X54589047Y-88419238D01*
X54541428Y-88419238D01*
X54493809Y-88395428D01*
X54470000Y-88371619D01*
X54446190Y-88324000D01*
X54446190Y-88204952D01*
X54470000Y-88133523D01*
X54684285Y-87752571D02*
X54708095Y-87681142D01*
X54731904Y-87657333D01*
X54779523Y-87633523D01*
X54850952Y-87633523D01*
X54898571Y-87657333D01*
X54922380Y-87681142D01*
X54946190Y-87728761D01*
X54946190Y-87919238D01*
X54446190Y-87919238D01*
X54446190Y-87752571D01*
X54470000Y-87704952D01*
X54493809Y-87681142D01*
X54541428Y-87657333D01*
X54589047Y-87657333D01*
X54636666Y-87681142D01*
X54660476Y-87704952D01*
X54684285Y-87752571D01*
X54684285Y-87919238D01*
X54993809Y-87538285D02*
X54993809Y-87157333D01*
X54898571Y-86752571D02*
X54922380Y-86776380D01*
X54946190Y-86847809D01*
X54946190Y-86895428D01*
X54922380Y-86966857D01*
X54874761Y-87014476D01*
X54827142Y-87038285D01*
X54731904Y-87062095D01*
X54660476Y-87062095D01*
X54565238Y-87038285D01*
X54517619Y-87014476D01*
X54470000Y-86966857D01*
X54446190Y-86895428D01*
X54446190Y-86847809D01*
X54470000Y-86776380D01*
X54493809Y-86752571D01*
X54993809Y-86657333D02*
X54993809Y-86276380D01*
X54946190Y-85871619D02*
X54708095Y-86038285D01*
X54946190Y-86157333D02*
X54446190Y-86157333D01*
X54446190Y-85966857D01*
X54470000Y-85919238D01*
X54493809Y-85895428D01*
X54541428Y-85871619D01*
X54612857Y-85871619D01*
X54660476Y-85895428D01*
X54684285Y-85919238D01*
X54708095Y-85966857D01*
X54708095Y-86157333D01*
X54922380Y-85466857D02*
X54946190Y-85514476D01*
X54946190Y-85609714D01*
X54922380Y-85657333D01*
X54874761Y-85681142D01*
X54684285Y-85681142D01*
X54636666Y-85657333D01*
X54612857Y-85609714D01*
X54612857Y-85514476D01*
X54636666Y-85466857D01*
X54684285Y-85443047D01*
X54731904Y-85443047D01*
X54779523Y-85681142D01*
X54922380Y-85014476D02*
X54946190Y-85062095D01*
X54946190Y-85157333D01*
X54922380Y-85204952D01*
X54898571Y-85228761D01*
X54850952Y-85252571D01*
X54708095Y-85252571D01*
X54660476Y-85228761D01*
X54636666Y-85204952D01*
X54612857Y-85157333D01*
X54612857Y-85062095D01*
X54636666Y-85014476D01*
X54922380Y-84609714D02*
X54946190Y-84657333D01*
X54946190Y-84752571D01*
X54922380Y-84800190D01*
X54874761Y-84824000D01*
X54684285Y-84824000D01*
X54636666Y-84800190D01*
X54612857Y-84752571D01*
X54612857Y-84657333D01*
X54636666Y-84609714D01*
X54684285Y-84585904D01*
X54731904Y-84585904D01*
X54779523Y-84824000D01*
X54612857Y-84371619D02*
X55112857Y-84371619D01*
X54636666Y-84371619D02*
X54612857Y-84324000D01*
X54612857Y-84228761D01*
X54636666Y-84181142D01*
X54660476Y-84157333D01*
X54708095Y-84133523D01*
X54850952Y-84133523D01*
X54898571Y-84157333D01*
X54922380Y-84181142D01*
X54946190Y-84228761D01*
X54946190Y-84324000D01*
X54922380Y-84371619D01*
X54612857Y-83990666D02*
X54612857Y-83800190D01*
X54446190Y-83919238D02*
X54874761Y-83919238D01*
X54922380Y-83895428D01*
X54946190Y-83847809D01*
X54946190Y-83800190D01*
X54946190Y-83419238D02*
X54684285Y-83419238D01*
X54636666Y-83443047D01*
X54612857Y-83490666D01*
X54612857Y-83585904D01*
X54636666Y-83633523D01*
X54922380Y-83419238D02*
X54946190Y-83466857D01*
X54946190Y-83585904D01*
X54922380Y-83633523D01*
X54874761Y-83657333D01*
X54827142Y-83657333D01*
X54779523Y-83633523D01*
X54755714Y-83585904D01*
X54755714Y-83466857D01*
X54731904Y-83419238D01*
X54922380Y-82966857D02*
X54946190Y-83014476D01*
X54946190Y-83109714D01*
X54922380Y-83157333D01*
X54898571Y-83181142D01*
X54850952Y-83204952D01*
X54708095Y-83204952D01*
X54660476Y-83181142D01*
X54636666Y-83157333D01*
X54612857Y-83109714D01*
X54612857Y-83014476D01*
X54636666Y-82966857D01*
X54946190Y-82681142D02*
X54922380Y-82728761D01*
X54874761Y-82752571D01*
X54446190Y-82752571D01*
X54922380Y-82300190D02*
X54946190Y-82347809D01*
X54946190Y-82443047D01*
X54922380Y-82490666D01*
X54874761Y-82514476D01*
X54684285Y-82514476D01*
X54636666Y-82490666D01*
X54612857Y-82443047D01*
X54612857Y-82347809D01*
X54636666Y-82300190D01*
X54684285Y-82276380D01*
X54731904Y-82276380D01*
X54779523Y-82514476D01*
X54993809Y-82181142D02*
X54993809Y-81800190D01*
X54446190Y-81681142D02*
X54850952Y-81681142D01*
X54898571Y-81657333D01*
X54922380Y-81633523D01*
X54946190Y-81585904D01*
X54946190Y-81490666D01*
X54922380Y-81443047D01*
X54898571Y-81419238D01*
X54850952Y-81395428D01*
X54446190Y-81395428D01*
X54922380Y-81181142D02*
X54946190Y-81109714D01*
X54946190Y-80990666D01*
X54922380Y-80943047D01*
X54898571Y-80919238D01*
X54850952Y-80895428D01*
X54803333Y-80895428D01*
X54755714Y-80919238D01*
X54731904Y-80943047D01*
X54708095Y-80990666D01*
X54684285Y-81085904D01*
X54660476Y-81133523D01*
X54636666Y-81157333D01*
X54589047Y-81181142D01*
X54541428Y-81181142D01*
X54493809Y-81157333D01*
X54470000Y-81133523D01*
X54446190Y-81085904D01*
X54446190Y-80966857D01*
X54470000Y-80895428D01*
X54684285Y-80514476D02*
X54708095Y-80443047D01*
X54731904Y-80419238D01*
X54779523Y-80395428D01*
X54850952Y-80395428D01*
X54898571Y-80419238D01*
X54922380Y-80443047D01*
X54946190Y-80490666D01*
X54946190Y-80681142D01*
X54446190Y-80681142D01*
X54446190Y-80514476D01*
X54470000Y-80466857D01*
X54493809Y-80443047D01*
X54541428Y-80419238D01*
X54589047Y-80419238D01*
X54636666Y-80443047D01*
X54660476Y-80466857D01*
X54684285Y-80514476D01*
X54684285Y-80681142D01*
X54493809Y-80204952D02*
X54470000Y-80181142D01*
X54446190Y-80133523D01*
X54446190Y-80014476D01*
X54470000Y-79966857D01*
X54493809Y-79943047D01*
X54541428Y-79919238D01*
X54589047Y-79919238D01*
X54660476Y-79943047D01*
X54946190Y-80228761D01*
X54946190Y-79919238D01*
X54898571Y-79704952D02*
X54922380Y-79681142D01*
X54946190Y-79704952D01*
X54922380Y-79728761D01*
X54898571Y-79704952D01*
X54946190Y-79704952D01*
X54446190Y-79371619D02*
X54446190Y-79324000D01*
X54470000Y-79276380D01*
X54493809Y-79252571D01*
X54541428Y-79228761D01*
X54636666Y-79204952D01*
X54755714Y-79204952D01*
X54850952Y-79228761D01*
X54898571Y-79252571D01*
X54922380Y-79276380D01*
X54946190Y-79324000D01*
X54946190Y-79371619D01*
X54922380Y-79419238D01*
X54898571Y-79443047D01*
X54850952Y-79466857D01*
X54755714Y-79490666D01*
X54636666Y-79490666D01*
X54541428Y-79466857D01*
X54493809Y-79443047D01*
X54470000Y-79419238D01*
X54446190Y-79371619D01*
X59506190Y-84240666D02*
X59863333Y-84240666D01*
X59934761Y-84264476D01*
X59982380Y-84312095D01*
X60006190Y-84383523D01*
X60006190Y-84431142D01*
X60006190Y-83740666D02*
X60006190Y-84026380D01*
X60006190Y-83883523D02*
X59506190Y-83883523D01*
X59577619Y-83931142D01*
X59625238Y-83978761D01*
X59649047Y-84026380D01*
%TO.C,R1*%
X70330190Y-89487333D02*
X70330190Y-89773047D01*
X70330190Y-89630190D02*
X69830190Y-89630190D01*
X69901619Y-89677809D01*
X69949238Y-89725428D01*
X69973047Y-89773047D01*
X69830190Y-89177809D02*
X69830190Y-89130190D01*
X69854000Y-89082571D01*
X69877809Y-89058761D01*
X69925428Y-89034952D01*
X70020666Y-89011142D01*
X70139714Y-89011142D01*
X70234952Y-89034952D01*
X70282571Y-89058761D01*
X70306380Y-89082571D01*
X70330190Y-89130190D01*
X70330190Y-89177809D01*
X70306380Y-89225428D01*
X70282571Y-89249238D01*
X70234952Y-89273047D01*
X70139714Y-89296857D01*
X70020666Y-89296857D01*
X69925428Y-89273047D01*
X69877809Y-89249238D01*
X69854000Y-89225428D01*
X69830190Y-89177809D01*
X69830190Y-88701619D02*
X69830190Y-88654000D01*
X69854000Y-88606380D01*
X69877809Y-88582571D01*
X69925428Y-88558761D01*
X70020666Y-88534952D01*
X70139714Y-88534952D01*
X70234952Y-88558761D01*
X70282571Y-88582571D01*
X70306380Y-88606380D01*
X70330190Y-88654000D01*
X70330190Y-88701619D01*
X70306380Y-88749238D01*
X70282571Y-88773047D01*
X70234952Y-88796857D01*
X70139714Y-88820666D01*
X70020666Y-88820666D01*
X69925428Y-88796857D01*
X69877809Y-88773047D01*
X69854000Y-88749238D01*
X69830190Y-88701619D01*
X70330190Y-92539333D02*
X70092095Y-92706000D01*
X70330190Y-92825047D02*
X69830190Y-92825047D01*
X69830190Y-92634571D01*
X69854000Y-92586952D01*
X69877809Y-92563142D01*
X69925428Y-92539333D01*
X69996857Y-92539333D01*
X70044476Y-92563142D01*
X70068285Y-92586952D01*
X70092095Y-92634571D01*
X70092095Y-92825047D01*
X70330190Y-92063142D02*
X70330190Y-92348857D01*
X70330190Y-92206000D02*
X69830190Y-92206000D01*
X69901619Y-92253619D01*
X69949238Y-92301238D01*
X69973047Y-92348857D01*
%TO.C,R2*%
X71346190Y-89487333D02*
X71346190Y-89773047D01*
X71346190Y-89630190D02*
X70846190Y-89630190D01*
X70917619Y-89677809D01*
X70965238Y-89725428D01*
X70989047Y-89773047D01*
X70846190Y-89177809D02*
X70846190Y-89130190D01*
X70870000Y-89082571D01*
X70893809Y-89058761D01*
X70941428Y-89034952D01*
X71036666Y-89011142D01*
X71155714Y-89011142D01*
X71250952Y-89034952D01*
X71298571Y-89058761D01*
X71322380Y-89082571D01*
X71346190Y-89130190D01*
X71346190Y-89177809D01*
X71322380Y-89225428D01*
X71298571Y-89249238D01*
X71250952Y-89273047D01*
X71155714Y-89296857D01*
X71036666Y-89296857D01*
X70941428Y-89273047D01*
X70893809Y-89249238D01*
X70870000Y-89225428D01*
X70846190Y-89177809D01*
X70846190Y-88701619D02*
X70846190Y-88654000D01*
X70870000Y-88606380D01*
X70893809Y-88582571D01*
X70941428Y-88558761D01*
X71036666Y-88534952D01*
X71155714Y-88534952D01*
X71250952Y-88558761D01*
X71298571Y-88582571D01*
X71322380Y-88606380D01*
X71346190Y-88654000D01*
X71346190Y-88701619D01*
X71322380Y-88749238D01*
X71298571Y-88773047D01*
X71250952Y-88796857D01*
X71155714Y-88820666D01*
X71036666Y-88820666D01*
X70941428Y-88796857D01*
X70893809Y-88773047D01*
X70870000Y-88749238D01*
X70846190Y-88701619D01*
X71346190Y-92539333D02*
X71108095Y-92706000D01*
X71346190Y-92825047D02*
X70846190Y-92825047D01*
X70846190Y-92634571D01*
X70870000Y-92586952D01*
X70893809Y-92563142D01*
X70941428Y-92539333D01*
X71012857Y-92539333D01*
X71060476Y-92563142D01*
X71084285Y-92586952D01*
X71108095Y-92634571D01*
X71108095Y-92825047D01*
X70893809Y-92348857D02*
X70870000Y-92325047D01*
X70846190Y-92277428D01*
X70846190Y-92158380D01*
X70870000Y-92110761D01*
X70893809Y-92086952D01*
X70941428Y-92063142D01*
X70989047Y-92063142D01*
X71060476Y-92086952D01*
X71346190Y-92372666D01*
X71346190Y-92063142D01*
%TO.C,R3*%
X66567904Y-81768190D02*
X66329809Y-81768190D01*
X66306000Y-82006285D01*
X66329809Y-81982476D01*
X66377428Y-81958666D01*
X66496476Y-81958666D01*
X66544095Y-81982476D01*
X66567904Y-82006285D01*
X66591714Y-82053904D01*
X66591714Y-82172952D01*
X66567904Y-82220571D01*
X66544095Y-82244380D01*
X66496476Y-82268190D01*
X66377428Y-82268190D01*
X66329809Y-82244380D01*
X66306000Y-82220571D01*
X66806000Y-82220571D02*
X66829809Y-82244380D01*
X66806000Y-82268190D01*
X66782190Y-82244380D01*
X66806000Y-82220571D01*
X66806000Y-82268190D01*
X67306000Y-82268190D02*
X67020285Y-82268190D01*
X67163142Y-82268190D02*
X67163142Y-81768190D01*
X67115523Y-81839619D01*
X67067904Y-81887238D01*
X67020285Y-81911047D01*
X67520285Y-82268190D02*
X67520285Y-81768190D01*
X67806000Y-82268190D02*
X67591714Y-81982476D01*
X67806000Y-81768190D02*
X67520285Y-82053904D01*
X63924666Y-82268190D02*
X63758000Y-82030095D01*
X63638952Y-82268190D02*
X63638952Y-81768190D01*
X63829428Y-81768190D01*
X63877047Y-81792000D01*
X63900857Y-81815809D01*
X63924666Y-81863428D01*
X63924666Y-81934857D01*
X63900857Y-81982476D01*
X63877047Y-82006285D01*
X63829428Y-82030095D01*
X63638952Y-82030095D01*
X64091333Y-81768190D02*
X64400857Y-81768190D01*
X64234190Y-81958666D01*
X64305619Y-81958666D01*
X64353238Y-81982476D01*
X64377047Y-82006285D01*
X64400857Y-82053904D01*
X64400857Y-82172952D01*
X64377047Y-82220571D01*
X64353238Y-82244380D01*
X64305619Y-82268190D01*
X64162761Y-82268190D01*
X64115142Y-82244380D01*
X64091333Y-82220571D01*
%TO.C,R4*%
X66567904Y-85832190D02*
X66329809Y-85832190D01*
X66306000Y-86070285D01*
X66329809Y-86046476D01*
X66377428Y-86022666D01*
X66496476Y-86022666D01*
X66544095Y-86046476D01*
X66567904Y-86070285D01*
X66591714Y-86117904D01*
X66591714Y-86236952D01*
X66567904Y-86284571D01*
X66544095Y-86308380D01*
X66496476Y-86332190D01*
X66377428Y-86332190D01*
X66329809Y-86308380D01*
X66306000Y-86284571D01*
X66806000Y-86284571D02*
X66829809Y-86308380D01*
X66806000Y-86332190D01*
X66782190Y-86308380D01*
X66806000Y-86284571D01*
X66806000Y-86332190D01*
X67306000Y-86332190D02*
X67020285Y-86332190D01*
X67163142Y-86332190D02*
X67163142Y-85832190D01*
X67115523Y-85903619D01*
X67067904Y-85951238D01*
X67020285Y-85975047D01*
X67520285Y-86332190D02*
X67520285Y-85832190D01*
X67806000Y-86332190D02*
X67591714Y-86046476D01*
X67806000Y-85832190D02*
X67520285Y-86117904D01*
X63924666Y-86332190D02*
X63758000Y-86094095D01*
X63638952Y-86332190D02*
X63638952Y-85832190D01*
X63829428Y-85832190D01*
X63877047Y-85856000D01*
X63900857Y-85879809D01*
X63924666Y-85927428D01*
X63924666Y-85998857D01*
X63900857Y-86046476D01*
X63877047Y-86070285D01*
X63829428Y-86094095D01*
X63638952Y-86094095D01*
X64353238Y-85998857D02*
X64353238Y-86332190D01*
X64234190Y-85808380D02*
X64115142Y-86165523D01*
X64424666Y-86165523D01*
%TO.C,R5*%
X66294047Y-82831809D02*
X66317857Y-82808000D01*
X66365476Y-82784190D01*
X66484523Y-82784190D01*
X66532142Y-82808000D01*
X66555952Y-82831809D01*
X66579761Y-82879428D01*
X66579761Y-82927047D01*
X66555952Y-82998476D01*
X66270238Y-83284190D01*
X66579761Y-83284190D01*
X66770238Y-82831809D02*
X66794047Y-82808000D01*
X66841666Y-82784190D01*
X66960714Y-82784190D01*
X67008333Y-82808000D01*
X67032142Y-82831809D01*
X67055952Y-82879428D01*
X67055952Y-82927047D01*
X67032142Y-82998476D01*
X66746428Y-83284190D01*
X67055952Y-83284190D01*
X63924666Y-83284190D02*
X63758000Y-83046095D01*
X63638952Y-83284190D02*
X63638952Y-82784190D01*
X63829428Y-82784190D01*
X63877047Y-82808000D01*
X63900857Y-82831809D01*
X63924666Y-82879428D01*
X63924666Y-82950857D01*
X63900857Y-82998476D01*
X63877047Y-83022285D01*
X63829428Y-83046095D01*
X63638952Y-83046095D01*
X64377047Y-82784190D02*
X64138952Y-82784190D01*
X64115142Y-83022285D01*
X64138952Y-82998476D01*
X64186571Y-82974666D01*
X64305619Y-82974666D01*
X64353238Y-82998476D01*
X64377047Y-83022285D01*
X64400857Y-83069904D01*
X64400857Y-83188952D01*
X64377047Y-83236571D01*
X64353238Y-83260380D01*
X64305619Y-83284190D01*
X64186571Y-83284190D01*
X64138952Y-83260380D01*
X64115142Y-83236571D01*
%TO.C,R6*%
X66294047Y-84863809D02*
X66317857Y-84840000D01*
X66365476Y-84816190D01*
X66484523Y-84816190D01*
X66532142Y-84840000D01*
X66555952Y-84863809D01*
X66579761Y-84911428D01*
X66579761Y-84959047D01*
X66555952Y-85030476D01*
X66270238Y-85316190D01*
X66579761Y-85316190D01*
X66770238Y-84863809D02*
X66794047Y-84840000D01*
X66841666Y-84816190D01*
X66960714Y-84816190D01*
X67008333Y-84840000D01*
X67032142Y-84863809D01*
X67055952Y-84911428D01*
X67055952Y-84959047D01*
X67032142Y-85030476D01*
X66746428Y-85316190D01*
X67055952Y-85316190D01*
X63924666Y-85316190D02*
X63758000Y-85078095D01*
X63638952Y-85316190D02*
X63638952Y-84816190D01*
X63829428Y-84816190D01*
X63877047Y-84840000D01*
X63900857Y-84863809D01*
X63924666Y-84911428D01*
X63924666Y-84982857D01*
X63900857Y-85030476D01*
X63877047Y-85054285D01*
X63829428Y-85078095D01*
X63638952Y-85078095D01*
X64353238Y-84816190D02*
X64258000Y-84816190D01*
X64210380Y-84840000D01*
X64186571Y-84863809D01*
X64138952Y-84935238D01*
X64115142Y-85030476D01*
X64115142Y-85220952D01*
X64138952Y-85268571D01*
X64162761Y-85292380D01*
X64210380Y-85316190D01*
X64305619Y-85316190D01*
X64353238Y-85292380D01*
X64377047Y-85268571D01*
X64400857Y-85220952D01*
X64400857Y-85101904D01*
X64377047Y-85054285D01*
X64353238Y-85030476D01*
X64305619Y-85006666D01*
X64210380Y-85006666D01*
X64162761Y-85030476D01*
X64138952Y-85054285D01*
X64115142Y-85101904D01*
%TO.C,R7*%
X75316666Y-79496190D02*
X75030952Y-79496190D01*
X75173809Y-79496190D02*
X75173809Y-78996190D01*
X75126190Y-79067619D01*
X75078571Y-79115238D01*
X75030952Y-79139047D01*
X75626190Y-78996190D02*
X75673809Y-78996190D01*
X75721428Y-79020000D01*
X75745238Y-79043809D01*
X75769047Y-79091428D01*
X75792857Y-79186666D01*
X75792857Y-79305714D01*
X75769047Y-79400952D01*
X75745238Y-79448571D01*
X75721428Y-79472380D01*
X75673809Y-79496190D01*
X75626190Y-79496190D01*
X75578571Y-79472380D01*
X75554761Y-79448571D01*
X75530952Y-79400952D01*
X75507142Y-79305714D01*
X75507142Y-79186666D01*
X75530952Y-79091428D01*
X75554761Y-79043809D01*
X75578571Y-79020000D01*
X75626190Y-78996190D01*
X76102380Y-78996190D02*
X76150000Y-78996190D01*
X76197619Y-79020000D01*
X76221428Y-79043809D01*
X76245238Y-79091428D01*
X76269047Y-79186666D01*
X76269047Y-79305714D01*
X76245238Y-79400952D01*
X76221428Y-79448571D01*
X76197619Y-79472380D01*
X76150000Y-79496190D01*
X76102380Y-79496190D01*
X76054761Y-79472380D01*
X76030952Y-79448571D01*
X76007142Y-79400952D01*
X75983333Y-79305714D01*
X75983333Y-79186666D01*
X76007142Y-79091428D01*
X76030952Y-79043809D01*
X76054761Y-79020000D01*
X76102380Y-78996190D01*
X74116666Y-78826190D02*
X73950000Y-78588095D01*
X73830952Y-78826190D02*
X73830952Y-78326190D01*
X74021428Y-78326190D01*
X74069047Y-78350000D01*
X74092857Y-78373809D01*
X74116666Y-78421428D01*
X74116666Y-78492857D01*
X74092857Y-78540476D01*
X74069047Y-78564285D01*
X74021428Y-78588095D01*
X73830952Y-78588095D01*
X74283333Y-78326190D02*
X74616666Y-78326190D01*
X74402380Y-78826190D01*
%TO.C,R8*%
X65686666Y-90026190D02*
X65400952Y-90026190D01*
X65543809Y-90026190D02*
X65543809Y-89526190D01*
X65496190Y-89597619D01*
X65448571Y-89645238D01*
X65400952Y-89669047D01*
X65996190Y-89526190D02*
X66043809Y-89526190D01*
X66091428Y-89550000D01*
X66115238Y-89573809D01*
X66139047Y-89621428D01*
X66162857Y-89716666D01*
X66162857Y-89835714D01*
X66139047Y-89930952D01*
X66115238Y-89978571D01*
X66091428Y-90002380D01*
X66043809Y-90026190D01*
X65996190Y-90026190D01*
X65948571Y-90002380D01*
X65924761Y-89978571D01*
X65900952Y-89930952D01*
X65877142Y-89835714D01*
X65877142Y-89716666D01*
X65900952Y-89621428D01*
X65924761Y-89573809D01*
X65948571Y-89550000D01*
X65996190Y-89526190D01*
X66472380Y-89526190D02*
X66520000Y-89526190D01*
X66567619Y-89550000D01*
X66591428Y-89573809D01*
X66615238Y-89621428D01*
X66639047Y-89716666D01*
X66639047Y-89835714D01*
X66615238Y-89930952D01*
X66591428Y-89978571D01*
X66567619Y-90002380D01*
X66520000Y-90026190D01*
X66472380Y-90026190D01*
X66424761Y-90002380D01*
X66400952Y-89978571D01*
X66377142Y-89930952D01*
X66353333Y-89835714D01*
X66353333Y-89716666D01*
X66377142Y-89621428D01*
X66400952Y-89573809D01*
X66424761Y-89550000D01*
X66472380Y-89526190D01*
X65936666Y-91806190D02*
X65770000Y-91568095D01*
X65650952Y-91806190D02*
X65650952Y-91306190D01*
X65841428Y-91306190D01*
X65889047Y-91330000D01*
X65912857Y-91353809D01*
X65936666Y-91401428D01*
X65936666Y-91472857D01*
X65912857Y-91520476D01*
X65889047Y-91544285D01*
X65841428Y-91568095D01*
X65650952Y-91568095D01*
X66222380Y-91520476D02*
X66174761Y-91496666D01*
X66150952Y-91472857D01*
X66127142Y-91425238D01*
X66127142Y-91401428D01*
X66150952Y-91353809D01*
X66174761Y-91330000D01*
X66222380Y-91306190D01*
X66317619Y-91306190D01*
X66365238Y-91330000D01*
X66389047Y-91353809D01*
X66412857Y-91401428D01*
X66412857Y-91425238D01*
X66389047Y-91472857D01*
X66365238Y-91496666D01*
X66317619Y-91520476D01*
X66222380Y-91520476D01*
X66174761Y-91544285D01*
X66150952Y-91568095D01*
X66127142Y-91615714D01*
X66127142Y-91710952D01*
X66150952Y-91758571D01*
X66174761Y-91782380D01*
X66222380Y-91806190D01*
X66317619Y-91806190D01*
X66365238Y-91782380D01*
X66389047Y-91758571D01*
X66412857Y-91710952D01*
X66412857Y-91615714D01*
X66389047Y-91568095D01*
X66365238Y-91544285D01*
X66317619Y-91520476D01*
%TO.C,R10*%
X63353238Y-89642190D02*
X63662761Y-89642190D01*
X63496095Y-89832666D01*
X63567523Y-89832666D01*
X63615142Y-89856476D01*
X63638952Y-89880285D01*
X63662761Y-89927904D01*
X63662761Y-90046952D01*
X63638952Y-90094571D01*
X63615142Y-90118380D01*
X63567523Y-90142190D01*
X63424666Y-90142190D01*
X63377047Y-90118380D01*
X63353238Y-90094571D01*
X64091333Y-89642190D02*
X63996095Y-89642190D01*
X63948476Y-89666000D01*
X63924666Y-89689809D01*
X63877047Y-89761238D01*
X63853238Y-89856476D01*
X63853238Y-90046952D01*
X63877047Y-90094571D01*
X63900857Y-90118380D01*
X63948476Y-90142190D01*
X64043714Y-90142190D01*
X64091333Y-90118380D01*
X64115142Y-90094571D01*
X64138952Y-90046952D01*
X64138952Y-89927904D01*
X64115142Y-89880285D01*
X64091333Y-89856476D01*
X64043714Y-89832666D01*
X63948476Y-89832666D01*
X63900857Y-89856476D01*
X63877047Y-89880285D01*
X63853238Y-89927904D01*
X64353238Y-90142190D02*
X64353238Y-89642190D01*
X64638952Y-90142190D02*
X64424666Y-89856476D01*
X64638952Y-89642190D02*
X64353238Y-89927904D01*
X63686571Y-91793190D02*
X63519904Y-91555095D01*
X63400857Y-91793190D02*
X63400857Y-91293190D01*
X63591333Y-91293190D01*
X63638952Y-91317000D01*
X63662761Y-91340809D01*
X63686571Y-91388428D01*
X63686571Y-91459857D01*
X63662761Y-91507476D01*
X63638952Y-91531285D01*
X63591333Y-91555095D01*
X63400857Y-91555095D01*
X64162761Y-91793190D02*
X63877047Y-91793190D01*
X64019904Y-91793190D02*
X64019904Y-91293190D01*
X63972285Y-91364619D01*
X63924666Y-91412238D01*
X63877047Y-91436047D01*
X64472285Y-91293190D02*
X64519904Y-91293190D01*
X64567523Y-91317000D01*
X64591333Y-91340809D01*
X64615142Y-91388428D01*
X64638952Y-91483666D01*
X64638952Y-91602714D01*
X64615142Y-91697952D01*
X64591333Y-91745571D01*
X64567523Y-91769380D01*
X64519904Y-91793190D01*
X64472285Y-91793190D01*
X64424666Y-91769380D01*
X64400857Y-91745571D01*
X64377047Y-91697952D01*
X64353238Y-91602714D01*
X64353238Y-91483666D01*
X64377047Y-91388428D01*
X64400857Y-91340809D01*
X64424666Y-91317000D01*
X64472285Y-91293190D01*
%TO.C,R11*%
X66591714Y-84300190D02*
X66306000Y-84300190D01*
X66448857Y-84300190D02*
X66448857Y-83800190D01*
X66401238Y-83871619D01*
X66353619Y-83919238D01*
X66306000Y-83943047D01*
X66806000Y-84252571D02*
X66829809Y-84276380D01*
X66806000Y-84300190D01*
X66782190Y-84276380D01*
X66806000Y-84252571D01*
X66806000Y-84300190D01*
X67282190Y-83800190D02*
X67044095Y-83800190D01*
X67020285Y-84038285D01*
X67044095Y-84014476D01*
X67091714Y-83990666D01*
X67210761Y-83990666D01*
X67258380Y-84014476D01*
X67282190Y-84038285D01*
X67306000Y-84085904D01*
X67306000Y-84204952D01*
X67282190Y-84252571D01*
X67258380Y-84276380D01*
X67210761Y-84300190D01*
X67091714Y-84300190D01*
X67044095Y-84276380D01*
X67020285Y-84252571D01*
X67520285Y-84300190D02*
X67520285Y-83800190D01*
X67806000Y-84300190D02*
X67591714Y-84014476D01*
X67806000Y-83800190D02*
X67520285Y-84085904D01*
X63940571Y-84300190D02*
X63773904Y-84062095D01*
X63654857Y-84300190D02*
X63654857Y-83800190D01*
X63845333Y-83800190D01*
X63892952Y-83824000D01*
X63916761Y-83847809D01*
X63940571Y-83895428D01*
X63940571Y-83966857D01*
X63916761Y-84014476D01*
X63892952Y-84038285D01*
X63845333Y-84062095D01*
X63654857Y-84062095D01*
X64416761Y-84300190D02*
X64131047Y-84300190D01*
X64273904Y-84300190D02*
X64273904Y-83800190D01*
X64226285Y-83871619D01*
X64178666Y-83919238D01*
X64131047Y-83943047D01*
X64892952Y-84300190D02*
X64607238Y-84300190D01*
X64750095Y-84300190D02*
X64750095Y-83800190D01*
X64702476Y-83871619D01*
X64654857Y-83919238D01*
X64607238Y-83943047D01*
%TO.C,R12*%
X76092857Y-89538904D02*
X76426190Y-89538904D01*
X75902380Y-89657952D02*
X76259523Y-89777000D01*
X76259523Y-89467476D01*
X76378571Y-89277000D02*
X76402380Y-89253190D01*
X76426190Y-89277000D01*
X76402380Y-89300809D01*
X76378571Y-89277000D01*
X76426190Y-89277000D01*
X75926190Y-89086523D02*
X75926190Y-88753190D01*
X76426190Y-88967476D01*
X76426190Y-88562714D02*
X75926190Y-88562714D01*
X76426190Y-88277000D02*
X76140476Y-88491285D01*
X75926190Y-88277000D02*
X76211904Y-88562714D01*
X76426190Y-93031428D02*
X76188095Y-93198095D01*
X76426190Y-93317142D02*
X75926190Y-93317142D01*
X75926190Y-93126666D01*
X75950000Y-93079047D01*
X75973809Y-93055238D01*
X76021428Y-93031428D01*
X76092857Y-93031428D01*
X76140476Y-93055238D01*
X76164285Y-93079047D01*
X76188095Y-93126666D01*
X76188095Y-93317142D01*
X76426190Y-92555238D02*
X76426190Y-92840952D01*
X76426190Y-92698095D02*
X75926190Y-92698095D01*
X75997619Y-92745714D01*
X76045238Y-92793333D01*
X76069047Y-92840952D01*
X75973809Y-92364761D02*
X75950000Y-92340952D01*
X75926190Y-92293333D01*
X75926190Y-92174285D01*
X75950000Y-92126666D01*
X75973809Y-92102857D01*
X76021428Y-92079047D01*
X76069047Y-92079047D01*
X76140476Y-92102857D01*
X76426190Y-92388571D01*
X76426190Y-92079047D01*
%TO.C,R13*%
X77108857Y-89538904D02*
X77442190Y-89538904D01*
X76918380Y-89657952D02*
X77275523Y-89777000D01*
X77275523Y-89467476D01*
X77394571Y-89277000D02*
X77418380Y-89253190D01*
X77442190Y-89277000D01*
X77418380Y-89300809D01*
X77394571Y-89277000D01*
X77442190Y-89277000D01*
X76942190Y-89086523D02*
X76942190Y-88753190D01*
X77442190Y-88967476D01*
X77442190Y-88562714D02*
X76942190Y-88562714D01*
X77442190Y-88277000D02*
X77156476Y-88491285D01*
X76942190Y-88277000D02*
X77227904Y-88562714D01*
X77442190Y-93031428D02*
X77204095Y-93198095D01*
X77442190Y-93317142D02*
X76942190Y-93317142D01*
X76942190Y-93126666D01*
X76966000Y-93079047D01*
X76989809Y-93055238D01*
X77037428Y-93031428D01*
X77108857Y-93031428D01*
X77156476Y-93055238D01*
X77180285Y-93079047D01*
X77204095Y-93126666D01*
X77204095Y-93317142D01*
X77442190Y-92555238D02*
X77442190Y-92840952D01*
X77442190Y-92698095D02*
X76942190Y-92698095D01*
X77013619Y-92745714D01*
X77061238Y-92793333D01*
X77085047Y-92840952D01*
X76942190Y-92388571D02*
X76942190Y-92079047D01*
X77132666Y-92245714D01*
X77132666Y-92174285D01*
X77156476Y-92126666D01*
X77180285Y-92102857D01*
X77227904Y-92079047D01*
X77346952Y-92079047D01*
X77394571Y-92102857D01*
X77418380Y-92126666D01*
X77442190Y-92174285D01*
X77442190Y-92317142D01*
X77418380Y-92364761D01*
X77394571Y-92388571D01*
%TO.C,R19*%
X75410190Y-89451619D02*
X75410190Y-89737333D01*
X75410190Y-89594476D02*
X74910190Y-89594476D01*
X74981619Y-89642095D01*
X75029238Y-89689714D01*
X75053047Y-89737333D01*
X74910190Y-89142095D02*
X74910190Y-89094476D01*
X74934000Y-89046857D01*
X74957809Y-89023047D01*
X75005428Y-88999238D01*
X75100666Y-88975428D01*
X75219714Y-88975428D01*
X75314952Y-88999238D01*
X75362571Y-89023047D01*
X75386380Y-89046857D01*
X75410190Y-89094476D01*
X75410190Y-89142095D01*
X75386380Y-89189714D01*
X75362571Y-89213523D01*
X75314952Y-89237333D01*
X75219714Y-89261142D01*
X75100666Y-89261142D01*
X75005428Y-89237333D01*
X74957809Y-89213523D01*
X74934000Y-89189714D01*
X74910190Y-89142095D01*
X75410190Y-88761142D02*
X74910190Y-88761142D01*
X75219714Y-88713523D02*
X75410190Y-88570666D01*
X75076857Y-88570666D02*
X75267333Y-88761142D01*
X75410190Y-93031428D02*
X75172095Y-93198095D01*
X75410190Y-93317142D02*
X74910190Y-93317142D01*
X74910190Y-93126666D01*
X74934000Y-93079047D01*
X74957809Y-93055238D01*
X75005428Y-93031428D01*
X75076857Y-93031428D01*
X75124476Y-93055238D01*
X75148285Y-93079047D01*
X75172095Y-93126666D01*
X75172095Y-93317142D01*
X75410190Y-92555238D02*
X75410190Y-92840952D01*
X75410190Y-92698095D02*
X74910190Y-92698095D01*
X74981619Y-92745714D01*
X75029238Y-92793333D01*
X75053047Y-92840952D01*
X75410190Y-92317142D02*
X75410190Y-92221904D01*
X75386380Y-92174285D01*
X75362571Y-92150476D01*
X75291142Y-92102857D01*
X75195904Y-92079047D01*
X75005428Y-92079047D01*
X74957809Y-92102857D01*
X74934000Y-92126666D01*
X74910190Y-92174285D01*
X74910190Y-92269523D01*
X74934000Y-92317142D01*
X74957809Y-92340952D01*
X75005428Y-92364761D01*
X75124476Y-92364761D01*
X75172095Y-92340952D01*
X75195904Y-92317142D01*
X75219714Y-92269523D01*
X75219714Y-92174285D01*
X75195904Y-92126666D01*
X75172095Y-92102857D01*
X75124476Y-92079047D01*
%TO.C,R20*%
X69314190Y-89451619D02*
X69314190Y-89737333D01*
X69314190Y-89594476D02*
X68814190Y-89594476D01*
X68885619Y-89642095D01*
X68933238Y-89689714D01*
X68957047Y-89737333D01*
X68814190Y-89142095D02*
X68814190Y-89094476D01*
X68838000Y-89046857D01*
X68861809Y-89023047D01*
X68909428Y-88999238D01*
X69004666Y-88975428D01*
X69123714Y-88975428D01*
X69218952Y-88999238D01*
X69266571Y-89023047D01*
X69290380Y-89046857D01*
X69314190Y-89094476D01*
X69314190Y-89142095D01*
X69290380Y-89189714D01*
X69266571Y-89213523D01*
X69218952Y-89237333D01*
X69123714Y-89261142D01*
X69004666Y-89261142D01*
X68909428Y-89237333D01*
X68861809Y-89213523D01*
X68838000Y-89189714D01*
X68814190Y-89142095D01*
X69314190Y-88761142D02*
X68814190Y-88761142D01*
X69123714Y-88713523D02*
X69314190Y-88570666D01*
X68980857Y-88570666D02*
X69171333Y-88761142D01*
X69314190Y-93031428D02*
X69076095Y-93198095D01*
X69314190Y-93317142D02*
X68814190Y-93317142D01*
X68814190Y-93126666D01*
X68838000Y-93079047D01*
X68861809Y-93055238D01*
X68909428Y-93031428D01*
X68980857Y-93031428D01*
X69028476Y-93055238D01*
X69052285Y-93079047D01*
X69076095Y-93126666D01*
X69076095Y-93317142D01*
X68861809Y-92840952D02*
X68838000Y-92817142D01*
X68814190Y-92769523D01*
X68814190Y-92650476D01*
X68838000Y-92602857D01*
X68861809Y-92579047D01*
X68909428Y-92555238D01*
X68957047Y-92555238D01*
X69028476Y-92579047D01*
X69314190Y-92864761D01*
X69314190Y-92555238D01*
X68814190Y-92245714D02*
X68814190Y-92198095D01*
X68838000Y-92150476D01*
X68861809Y-92126666D01*
X68909428Y-92102857D01*
X69004666Y-92079047D01*
X69123714Y-92079047D01*
X69218952Y-92102857D01*
X69266571Y-92126666D01*
X69290380Y-92150476D01*
X69314190Y-92198095D01*
X69314190Y-92245714D01*
X69290380Y-92293333D01*
X69266571Y-92317142D01*
X69218952Y-92340952D01*
X69123714Y-92364761D01*
X69004666Y-92364761D01*
X68909428Y-92340952D01*
X68861809Y-92317142D01*
X68838000Y-92293333D01*
X68814190Y-92245714D01*
%TO.C,R21*%
X78458190Y-89451619D02*
X78458190Y-89737333D01*
X78458190Y-89594476D02*
X77958190Y-89594476D01*
X78029619Y-89642095D01*
X78077238Y-89689714D01*
X78101047Y-89737333D01*
X77958190Y-89142095D02*
X77958190Y-89094476D01*
X77982000Y-89046857D01*
X78005809Y-89023047D01*
X78053428Y-88999238D01*
X78148666Y-88975428D01*
X78267714Y-88975428D01*
X78362952Y-88999238D01*
X78410571Y-89023047D01*
X78434380Y-89046857D01*
X78458190Y-89094476D01*
X78458190Y-89142095D01*
X78434380Y-89189714D01*
X78410571Y-89213523D01*
X78362952Y-89237333D01*
X78267714Y-89261142D01*
X78148666Y-89261142D01*
X78053428Y-89237333D01*
X78005809Y-89213523D01*
X77982000Y-89189714D01*
X77958190Y-89142095D01*
X78458190Y-88761142D02*
X77958190Y-88761142D01*
X78267714Y-88713523D02*
X78458190Y-88570666D01*
X78124857Y-88570666D02*
X78315333Y-88761142D01*
X78458190Y-93031428D02*
X78220095Y-93198095D01*
X78458190Y-93317142D02*
X77958190Y-93317142D01*
X77958190Y-93126666D01*
X77982000Y-93079047D01*
X78005809Y-93055238D01*
X78053428Y-93031428D01*
X78124857Y-93031428D01*
X78172476Y-93055238D01*
X78196285Y-93079047D01*
X78220095Y-93126666D01*
X78220095Y-93317142D01*
X78005809Y-92840952D02*
X77982000Y-92817142D01*
X77958190Y-92769523D01*
X77958190Y-92650476D01*
X77982000Y-92602857D01*
X78005809Y-92579047D01*
X78053428Y-92555238D01*
X78101047Y-92555238D01*
X78172476Y-92579047D01*
X78458190Y-92864761D01*
X78458190Y-92555238D01*
X78458190Y-92079047D02*
X78458190Y-92364761D01*
X78458190Y-92221904D02*
X77958190Y-92221904D01*
X78029619Y-92269523D01*
X78077238Y-92317142D01*
X78101047Y-92364761D01*
%TO.C,U1*%
X70338523Y-84403380D02*
X70409952Y-84427190D01*
X70529000Y-84427190D01*
X70576619Y-84403380D01*
X70600428Y-84379571D01*
X70624238Y-84331952D01*
X70624238Y-84284333D01*
X70600428Y-84236714D01*
X70576619Y-84212904D01*
X70529000Y-84189095D01*
X70433761Y-84165285D01*
X70386142Y-84141476D01*
X70362333Y-84117666D01*
X70338523Y-84070047D01*
X70338523Y-84022428D01*
X70362333Y-83974809D01*
X70386142Y-83951000D01*
X70433761Y-83927190D01*
X70552809Y-83927190D01*
X70624238Y-83951000D01*
X70767095Y-83927190D02*
X71052809Y-83927190D01*
X70909952Y-84427190D02*
X70909952Y-83927190D01*
X71219476Y-84427190D02*
X71219476Y-83927190D01*
X71386142Y-84284333D01*
X71552809Y-83927190D01*
X71552809Y-84427190D01*
X71743285Y-83927190D02*
X72052809Y-83927190D01*
X71886142Y-84117666D01*
X71957571Y-84117666D01*
X72005190Y-84141476D01*
X72029000Y-84165285D01*
X72052809Y-84212904D01*
X72052809Y-84331952D01*
X72029000Y-84379571D01*
X72005190Y-84403380D01*
X71957571Y-84427190D01*
X71814714Y-84427190D01*
X71767095Y-84403380D01*
X71743285Y-84379571D01*
X72243285Y-83974809D02*
X72267095Y-83951000D01*
X72314714Y-83927190D01*
X72433761Y-83927190D01*
X72481380Y-83951000D01*
X72505190Y-83974809D01*
X72529000Y-84022428D01*
X72529000Y-84070047D01*
X72505190Y-84141476D01*
X72219476Y-84427190D01*
X72529000Y-84427190D01*
X72909952Y-84165285D02*
X72743285Y-84165285D01*
X72743285Y-84427190D02*
X72743285Y-83927190D01*
X72981380Y-83927190D01*
X73433761Y-84427190D02*
X73148047Y-84427190D01*
X73290904Y-84427190D02*
X73290904Y-83927190D01*
X73243285Y-83998619D01*
X73195666Y-84046238D01*
X73148047Y-84070047D01*
X73743285Y-83927190D02*
X73790904Y-83927190D01*
X73838523Y-83951000D01*
X73862333Y-83974809D01*
X73886142Y-84022428D01*
X73909952Y-84117666D01*
X73909952Y-84236714D01*
X73886142Y-84331952D01*
X73862333Y-84379571D01*
X73838523Y-84403380D01*
X73790904Y-84427190D01*
X73743285Y-84427190D01*
X73695666Y-84403380D01*
X73671857Y-84379571D01*
X73648047Y-84331952D01*
X73624238Y-84236714D01*
X73624238Y-84117666D01*
X73648047Y-84022428D01*
X73671857Y-83974809D01*
X73695666Y-83951000D01*
X73743285Y-83927190D01*
X74076619Y-83927190D02*
X74386142Y-83927190D01*
X74219476Y-84117666D01*
X74290904Y-84117666D01*
X74338523Y-84141476D01*
X74362333Y-84165285D01*
X74386142Y-84212904D01*
X74386142Y-84331952D01*
X74362333Y-84379571D01*
X74338523Y-84403380D01*
X74290904Y-84427190D01*
X74148047Y-84427190D01*
X74100428Y-84403380D01*
X74076619Y-84379571D01*
X74886142Y-84379571D02*
X74862333Y-84403380D01*
X74790904Y-84427190D01*
X74743285Y-84427190D01*
X74671857Y-84403380D01*
X74624238Y-84355761D01*
X74600428Y-84308142D01*
X74576619Y-84212904D01*
X74576619Y-84141476D01*
X74600428Y-84046238D01*
X74624238Y-83998619D01*
X74671857Y-83951000D01*
X74743285Y-83927190D01*
X74790904Y-83927190D01*
X74862333Y-83951000D01*
X74886142Y-83974809D01*
X75171857Y-84141476D02*
X75124238Y-84117666D01*
X75100428Y-84093857D01*
X75076619Y-84046238D01*
X75076619Y-84022428D01*
X75100428Y-83974809D01*
X75124238Y-83951000D01*
X75171857Y-83927190D01*
X75267095Y-83927190D01*
X75314714Y-83951000D01*
X75338523Y-83974809D01*
X75362333Y-84022428D01*
X75362333Y-84046238D01*
X75338523Y-84093857D01*
X75314714Y-84117666D01*
X75267095Y-84141476D01*
X75171857Y-84141476D01*
X75124238Y-84165285D01*
X75100428Y-84189095D01*
X75076619Y-84236714D01*
X75076619Y-84331952D01*
X75100428Y-84379571D01*
X75124238Y-84403380D01*
X75171857Y-84427190D01*
X75267095Y-84427190D01*
X75314714Y-84403380D01*
X75338523Y-84379571D01*
X75362333Y-84331952D01*
X75362333Y-84236714D01*
X75338523Y-84189095D01*
X75314714Y-84165285D01*
X75267095Y-84141476D01*
X75505190Y-83927190D02*
X75790904Y-83927190D01*
X75648047Y-84427190D02*
X75648047Y-83927190D01*
X76171857Y-83927190D02*
X76076619Y-83927190D01*
X76029000Y-83951000D01*
X76005190Y-83974809D01*
X75957571Y-84046238D01*
X75933761Y-84141476D01*
X75933761Y-84331952D01*
X75957571Y-84379571D01*
X75981380Y-84403380D01*
X76029000Y-84427190D01*
X76124238Y-84427190D01*
X76171857Y-84403380D01*
X76195666Y-84379571D01*
X76219476Y-84331952D01*
X76219476Y-84212904D01*
X76195666Y-84165285D01*
X76171857Y-84141476D01*
X76124238Y-84117666D01*
X76029000Y-84117666D01*
X75981380Y-84141476D01*
X75957571Y-84165285D01*
X75933761Y-84212904D01*
%TO.C,J3*%
X83780952Y-90788571D02*
X83757142Y-90812380D01*
X83685714Y-90836190D01*
X83638095Y-90836190D01*
X83566666Y-90812380D01*
X83519047Y-90764761D01*
X83495238Y-90717142D01*
X83471428Y-90621904D01*
X83471428Y-90550476D01*
X83495238Y-90455238D01*
X83519047Y-90407619D01*
X83566666Y-90360000D01*
X83638095Y-90336190D01*
X83685714Y-90336190D01*
X83757142Y-90360000D01*
X83780952Y-90383809D01*
X84066666Y-90836190D02*
X84019047Y-90812380D01*
X83995238Y-90788571D01*
X83971428Y-90740952D01*
X83971428Y-90598095D01*
X83995238Y-90550476D01*
X84019047Y-90526666D01*
X84066666Y-90502857D01*
X84138095Y-90502857D01*
X84185714Y-90526666D01*
X84209523Y-90550476D01*
X84233333Y-90598095D01*
X84233333Y-90740952D01*
X84209523Y-90788571D01*
X84185714Y-90812380D01*
X84138095Y-90836190D01*
X84066666Y-90836190D01*
X84447619Y-90502857D02*
X84447619Y-90836190D01*
X84447619Y-90550476D02*
X84471428Y-90526666D01*
X84519047Y-90502857D01*
X84590476Y-90502857D01*
X84638095Y-90526666D01*
X84661904Y-90574285D01*
X84661904Y-90836190D01*
X84900000Y-90502857D02*
X84900000Y-90836190D01*
X84900000Y-90550476D02*
X84923809Y-90526666D01*
X84971428Y-90502857D01*
X85042857Y-90502857D01*
X85090476Y-90526666D01*
X85114285Y-90574285D01*
X85114285Y-90836190D01*
X85233333Y-90883809D02*
X85614285Y-90883809D01*
X85828571Y-90336190D02*
X85876190Y-90336190D01*
X85923809Y-90360000D01*
X85947619Y-90383809D01*
X85971428Y-90431428D01*
X85995238Y-90526666D01*
X85995238Y-90645714D01*
X85971428Y-90740952D01*
X85947619Y-90788571D01*
X85923809Y-90812380D01*
X85876190Y-90836190D01*
X85828571Y-90836190D01*
X85780952Y-90812380D01*
X85757142Y-90788571D01*
X85733333Y-90740952D01*
X85709523Y-90645714D01*
X85709523Y-90526666D01*
X85733333Y-90431428D01*
X85757142Y-90383809D01*
X85780952Y-90360000D01*
X85828571Y-90336190D01*
X86161904Y-90336190D02*
X86471428Y-90336190D01*
X86304761Y-90526666D01*
X86376190Y-90526666D01*
X86423809Y-90550476D01*
X86447619Y-90574285D01*
X86471428Y-90621904D01*
X86471428Y-90740952D01*
X86447619Y-90788571D01*
X86423809Y-90812380D01*
X86376190Y-90836190D01*
X86233333Y-90836190D01*
X86185714Y-90812380D01*
X86161904Y-90788571D01*
X86638095Y-90836190D02*
X86900000Y-90502857D01*
X86638095Y-90502857D02*
X86900000Y-90836190D01*
X87185714Y-90336190D02*
X87233333Y-90336190D01*
X87280952Y-90360000D01*
X87304761Y-90383809D01*
X87328571Y-90431428D01*
X87352380Y-90526666D01*
X87352380Y-90645714D01*
X87328571Y-90740952D01*
X87304761Y-90788571D01*
X87280952Y-90812380D01*
X87233333Y-90836190D01*
X87185714Y-90836190D01*
X87138095Y-90812380D01*
X87114285Y-90788571D01*
X87090476Y-90740952D01*
X87066666Y-90645714D01*
X87066666Y-90526666D01*
X87090476Y-90431428D01*
X87114285Y-90383809D01*
X87138095Y-90360000D01*
X87185714Y-90336190D01*
X87804761Y-90336190D02*
X87566666Y-90336190D01*
X87542857Y-90574285D01*
X87566666Y-90550476D01*
X87614285Y-90526666D01*
X87733333Y-90526666D01*
X87780952Y-90550476D01*
X87804761Y-90574285D01*
X87828571Y-90621904D01*
X87828571Y-90740952D01*
X87804761Y-90788571D01*
X87780952Y-90812380D01*
X87733333Y-90836190D01*
X87614285Y-90836190D01*
X87566666Y-90812380D01*
X87542857Y-90788571D01*
X89618190Y-84240666D02*
X89975333Y-84240666D01*
X90046761Y-84264476D01*
X90094380Y-84312095D01*
X90118190Y-84383523D01*
X90118190Y-84431142D01*
X89618190Y-84050190D02*
X89618190Y-83740666D01*
X89808666Y-83907333D01*
X89808666Y-83835904D01*
X89832476Y-83788285D01*
X89856285Y-83764476D01*
X89903904Y-83740666D01*
X90022952Y-83740666D01*
X90070571Y-83764476D01*
X90094380Y-83788285D01*
X90118190Y-83835904D01*
X90118190Y-83978761D01*
X90094380Y-84026380D01*
X90070571Y-84050190D01*
%TO.C,C1*%
X72386000Y-90178000D02*
X72386000Y-91178000D01*
X71886000Y-90178000D02*
X72386000Y-90178000D01*
X72386000Y-91178000D02*
X71886000Y-91178000D01*
X71886000Y-91178000D02*
X71886000Y-90178000D01*
%TO.C,C2*%
X72902000Y-91178000D02*
X72902000Y-90178000D01*
X72902000Y-90178000D02*
X73402000Y-90178000D01*
X73402000Y-91178000D02*
X72902000Y-91178000D01*
X73402000Y-90178000D02*
X73402000Y-91178000D01*
%TO.C,C3*%
X68838000Y-77224000D02*
X69338000Y-77224000D01*
X68838000Y-78224000D02*
X68838000Y-77224000D01*
X69338000Y-78224000D02*
X68838000Y-78224000D01*
X69338000Y-77224000D02*
X69338000Y-78224000D01*
%TO.C,C4*%
X65032000Y-86872000D02*
X66032000Y-86872000D01*
X66032000Y-87372000D02*
X65032000Y-87372000D01*
X66032000Y-86872000D02*
X66032000Y-87372000D01*
X65032000Y-87372000D02*
X65032000Y-86872000D01*
%TO.C,C5*%
X68322000Y-90178000D02*
X68322000Y-91178000D01*
X67822000Y-90178000D02*
X68322000Y-90178000D01*
X67822000Y-91178000D02*
X67822000Y-90178000D01*
X68322000Y-91178000D02*
X67822000Y-91178000D01*
%TO.C,C6*%
X60182000Y-90053000D02*
X60182000Y-91303000D01*
X58182000Y-90053000D02*
X60182000Y-90053000D01*
X60182000Y-91303000D02*
X58182000Y-91303000D01*
X58182000Y-91303000D02*
X58182000Y-90053000D01*
%TO.C,C7*%
X77220000Y-79002000D02*
X77720000Y-79002000D01*
X77720000Y-80002000D02*
X77220000Y-80002000D01*
X77720000Y-79002000D02*
X77720000Y-80002000D01*
X77220000Y-80002000D02*
X77220000Y-79002000D01*
%TO.C,C8*%
X61472000Y-90178000D02*
X61972000Y-90178000D01*
X61972000Y-91178000D02*
X61472000Y-91178000D01*
X61472000Y-91178000D02*
X61472000Y-90178000D01*
X61972000Y-90178000D02*
X61972000Y-91178000D01*
%TO.C,C10*%
X73918000Y-90178000D02*
X74418000Y-90178000D01*
X74418000Y-91178000D02*
X73918000Y-91178000D01*
X73918000Y-91178000D02*
X73918000Y-90178000D01*
X74418000Y-90178000D02*
X74418000Y-91178000D01*
%TO.C,C11*%
X65790000Y-77224000D02*
X66290000Y-77224000D01*
X66290000Y-78224000D02*
X65790000Y-78224000D01*
X66290000Y-77224000D02*
X66290000Y-78224000D01*
X65790000Y-78224000D02*
X65790000Y-77224000D01*
%TO.C,C12*%
X63322000Y-78270000D02*
X60122000Y-78270000D01*
X63322000Y-76670000D02*
X63322000Y-78270000D01*
X60122000Y-78270000D02*
X60122000Y-76670000D01*
X60122000Y-76670000D02*
X63322000Y-76670000D01*
%TO.C,C13*%
X68322000Y-77224000D02*
X68322000Y-78224000D01*
X67822000Y-77224000D02*
X68322000Y-77224000D01*
X68322000Y-78224000D02*
X67822000Y-78224000D01*
X67822000Y-78224000D02*
X67822000Y-77224000D01*
%TO.C,C14*%
X58666000Y-77220000D02*
X58666000Y-77720000D01*
X58666000Y-77720000D02*
X57666000Y-77720000D01*
X57666000Y-77220000D02*
X58666000Y-77220000D01*
X57666000Y-77720000D02*
X57666000Y-77220000D01*
%TO.C,C15*%
X67306000Y-77224000D02*
X67306000Y-78224000D01*
X67306000Y-78224000D02*
X66806000Y-78224000D01*
X66806000Y-77224000D02*
X67306000Y-77224000D01*
X66806000Y-78224000D02*
X66806000Y-77224000D01*
%TO.C,D1*%
X73410000Y-76462000D02*
X73910000Y-76462000D01*
X73910000Y-77462000D02*
X73410000Y-77462000D01*
X73410000Y-76662000D02*
X73910000Y-76662000D01*
X73410000Y-77462000D02*
X73410000Y-76462000D01*
X73910000Y-76462000D02*
X73910000Y-77462000D01*
X73410000Y-76562000D02*
X73910000Y-76562000D01*
%TO.C,D2*%
X74926000Y-76462000D02*
X74926000Y-77462000D01*
X74926000Y-77462000D02*
X74426000Y-77462000D01*
X74426000Y-77462000D02*
X74426000Y-76462000D01*
X74926000Y-77362000D02*
X74426000Y-77362000D01*
X74926000Y-77262000D02*
X74426000Y-77262000D01*
X74426000Y-76462000D02*
X74926000Y-76462000D01*
%TO.C,D3*%
X72394000Y-76662000D02*
X72894000Y-76662000D01*
X72894000Y-77462000D02*
X72394000Y-77462000D01*
X72394000Y-77462000D02*
X72394000Y-76462000D01*
X72894000Y-76462000D02*
X72894000Y-77462000D01*
X72394000Y-76462000D02*
X72894000Y-76462000D01*
X72394000Y-76562000D02*
X72894000Y-76562000D01*
%TO.C,D4*%
X76958000Y-77362000D02*
X76458000Y-77362000D01*
X76958000Y-76462000D02*
X76958000Y-77462000D01*
X76458000Y-77462000D02*
X76458000Y-76462000D01*
X76958000Y-77262000D02*
X76458000Y-77262000D01*
X76458000Y-76462000D02*
X76958000Y-76462000D01*
X76958000Y-77462000D02*
X76458000Y-77462000D01*
%TO.C,D5*%
X75942000Y-76462000D02*
X75942000Y-77462000D01*
X75442000Y-76462000D02*
X75942000Y-76462000D01*
X75942000Y-77362000D02*
X75442000Y-77362000D01*
X75942000Y-77462000D02*
X75442000Y-77462000D01*
X75942000Y-77262000D02*
X75442000Y-77262000D01*
X75442000Y-77462000D02*
X75442000Y-76462000D01*
%TO.C,J1*%
X63440000Y-79604000D02*
X63440000Y-88544000D01*
X63440000Y-79604000D02*
X56120000Y-79604000D01*
X56120000Y-88544000D02*
X56120000Y-79604000D01*
X63440000Y-88544000D02*
X56120000Y-88544000D01*
%TO.C,R1*%
X69834000Y-91203000D02*
X69834000Y-90153000D01*
X70374000Y-90153000D02*
X70374000Y-91203000D01*
X70374000Y-91203000D02*
X69834000Y-91203000D01*
X69834000Y-90153000D02*
X70374000Y-90153000D01*
%TO.C,R2*%
X71390000Y-91203000D02*
X70850000Y-91203000D01*
X70850000Y-91203000D02*
X70850000Y-90153000D01*
X70850000Y-90153000D02*
X71390000Y-90153000D01*
X71390000Y-90153000D02*
X71390000Y-91203000D01*
%TO.C,R3*%
X66057000Y-82312000D02*
X65007000Y-82312000D01*
X65007000Y-82312000D02*
X65007000Y-81772000D01*
X65007000Y-81772000D02*
X66057000Y-81772000D01*
X66057000Y-81772000D02*
X66057000Y-82312000D01*
%TO.C,R4*%
X66057000Y-86376000D02*
X65007000Y-86376000D01*
X65007000Y-85836000D02*
X66057000Y-85836000D01*
X66057000Y-85836000D02*
X66057000Y-86376000D01*
X65007000Y-86376000D02*
X65007000Y-85836000D01*
%TO.C,R5*%
X66057000Y-82788000D02*
X66057000Y-83328000D01*
X65007000Y-83328000D02*
X65007000Y-82788000D01*
X65007000Y-82788000D02*
X66057000Y-82788000D01*
X66057000Y-83328000D02*
X65007000Y-83328000D01*
%TO.C,R6*%
X65007000Y-85360000D02*
X65007000Y-84820000D01*
X65007000Y-84820000D02*
X66057000Y-84820000D01*
X66057000Y-85360000D02*
X65007000Y-85360000D01*
X66057000Y-84820000D02*
X66057000Y-85360000D01*
%TO.C,R7*%
X75167000Y-78756000D02*
X75167000Y-78216000D01*
X76217000Y-78756000D02*
X75167000Y-78756000D01*
X76217000Y-78216000D02*
X76217000Y-78756000D01*
X75167000Y-78216000D02*
X76217000Y-78216000D01*
%TO.C,R8*%
X65515000Y-90408000D02*
X66565000Y-90408000D01*
X65515000Y-90948000D02*
X65515000Y-90408000D01*
X66565000Y-90408000D02*
X66565000Y-90948000D01*
X66565000Y-90948000D02*
X65515000Y-90948000D01*
%TO.C,R10*%
X64533000Y-90408000D02*
X64533000Y-90948000D01*
X64533000Y-90948000D02*
X63483000Y-90948000D01*
X63483000Y-90408000D02*
X64533000Y-90408000D01*
X63483000Y-90948000D02*
X63483000Y-90408000D01*
%TO.C,R11*%
X66057000Y-83804000D02*
X66057000Y-84344000D01*
X65007000Y-83804000D02*
X66057000Y-83804000D01*
X66057000Y-84344000D02*
X65007000Y-84344000D01*
X65007000Y-84344000D02*
X65007000Y-83804000D01*
%TO.C,R12*%
X76470000Y-90153000D02*
X76470000Y-91203000D01*
X76470000Y-91203000D02*
X75930000Y-91203000D01*
X75930000Y-91203000D02*
X75930000Y-90153000D01*
X75930000Y-90153000D02*
X76470000Y-90153000D01*
%TO.C,R13*%
X76946000Y-91203000D02*
X76946000Y-90153000D01*
X76946000Y-90153000D02*
X77486000Y-90153000D01*
X77486000Y-90153000D02*
X77486000Y-91203000D01*
X77486000Y-91203000D02*
X76946000Y-91203000D01*
%TO.C,R19*%
X75454000Y-91203000D02*
X74914000Y-91203000D01*
X75454000Y-90153000D02*
X75454000Y-91203000D01*
X74914000Y-91203000D02*
X74914000Y-90153000D01*
X74914000Y-90153000D02*
X75454000Y-90153000D01*
%TO.C,R20*%
X69357001Y-91203000D02*
X68817001Y-91203000D01*
X69357001Y-90153000D02*
X69357001Y-91203000D01*
X68817001Y-90153000D02*
X69357001Y-90153000D01*
X68817001Y-91203000D02*
X68817001Y-90153000D01*
%TO.C,R21*%
X78502000Y-90153000D02*
X78502000Y-91203000D01*
X77962000Y-90153000D02*
X78502000Y-90153000D01*
X78502000Y-91203000D02*
X77962000Y-91203000D01*
X77962000Y-91203000D02*
X77962000Y-90153000D01*
%TO.C,U1*%
X69906000Y-87574000D02*
X69906000Y-80574000D01*
X69906000Y-80574000D02*
X76906000Y-80574000D01*
X69906000Y-87574000D02*
X76906000Y-87574000D01*
X76906000Y-87574000D02*
X76906000Y-80574000D01*
X71306000Y-86674000D02*
G75*
G03*
X71306000Y-86674000I-500000J0D01*
G01*
%TO.C,J3*%
X91162000Y-81854000D02*
X97162000Y-81854000D01*
X91162000Y-84394000D02*
X97162000Y-84394000D01*
X91162000Y-89474000D02*
X97162000Y-89474000D01*
X97162000Y-86294000D02*
X97162000Y-86934000D01*
X81722000Y-86294000D02*
X81722000Y-86934000D01*
X97162000Y-88834000D02*
X97162000Y-89474000D01*
X91162000Y-86934000D02*
X97162000Y-86934000D01*
X91162000Y-81214000D02*
X97162000Y-81214000D01*
X88622000Y-90424000D02*
X88622000Y-78359000D01*
X81722000Y-78674000D02*
X81722000Y-79314000D01*
X81722000Y-83754000D02*
X88622000Y-83754000D01*
X97162000Y-83754000D02*
X97162000Y-84394000D01*
X97162000Y-78674000D02*
X97162000Y-79314000D01*
X81722000Y-78674000D02*
X88622000Y-78674000D01*
X81722000Y-84394000D02*
X88622000Y-84394000D01*
X81722000Y-81214000D02*
X88622000Y-81214000D01*
X89257000Y-77724000D02*
X91162000Y-77724000D01*
X91162000Y-77724000D02*
X91162000Y-90424000D01*
X81722000Y-79314000D02*
X88622000Y-79314000D01*
X81722000Y-86934000D02*
X88622000Y-86934000D01*
X81722000Y-81854000D02*
X88622000Y-81854000D01*
X81722000Y-88834000D02*
X81722000Y-89474000D01*
X81722000Y-88834000D02*
X88622000Y-88834000D01*
X91162000Y-79314000D02*
X97162000Y-79314000D01*
X88622000Y-78359000D02*
X89257000Y-77724000D01*
X97162000Y-81214000D02*
X97162000Y-81854000D01*
X91162000Y-78674000D02*
X97162000Y-78674000D01*
X81722000Y-81214000D02*
X81722000Y-81854000D01*
X81722000Y-83754000D02*
X81722000Y-84394000D01*
X81722000Y-89474000D02*
X88622000Y-89474000D01*
X91162000Y-88834000D02*
X97162000Y-88834000D01*
X81722000Y-86294000D02*
X88622000Y-86294000D01*
X91162000Y-83754000D02*
X97162000Y-83754000D01*
X91162000Y-90424000D02*
X88622000Y-90424000D01*
X91162000Y-86294000D02*
X97162000Y-86294000D01*
%TD*%
M02*
