%TF.GenerationSoftware,KiCad,Pcbnew,6.0.4-6f826c9f35~116~ubuntu21.10.1*%
%TF.CreationDate,2022-04-05T23:43:51+08:00*%
%TF.ProjectId,ST_Link_V2.1,53545f4c-696e-46b5-9f56-322e312e6b69,rev?*%
%TF.SameCoordinates,Original*%
%TF.FileFunction,OtherDrawing,Comment*%
%FSLAX46Y46*%
G04 Gerber Fmt 4.6, Leading zero omitted, Abs format (unit mm)*
G04 Created by KiCad (PCBNEW 6.0.4-6f826c9f35~116~ubuntu21.10.1) date 2022-04-05 23:43:51*
%MOMM*%
%LPD*%
G01*
G04 APERTURE LIST*
%ADD10C,0.150000*%
%ADD11C,0.100000*%
G04 APERTURE END LIST*
D10*
%TO.C,J1*%
X61285380Y-87502571D02*
X60285380Y-87502571D01*
X60285380Y-87121619D01*
X60333000Y-87026380D01*
X60380619Y-86978761D01*
X60475857Y-86931142D01*
X60618714Y-86931142D01*
X60713952Y-86978761D01*
X60761571Y-87026380D01*
X60809190Y-87121619D01*
X60809190Y-87502571D01*
X61190142Y-85931142D02*
X61237761Y-85978761D01*
X61285380Y-86121619D01*
X61285380Y-86216857D01*
X61237761Y-86359714D01*
X61142523Y-86454952D01*
X61047285Y-86502571D01*
X60856809Y-86550190D01*
X60713952Y-86550190D01*
X60523476Y-86502571D01*
X60428238Y-86454952D01*
X60333000Y-86359714D01*
X60285380Y-86216857D01*
X60285380Y-86121619D01*
X60333000Y-85978761D01*
X60380619Y-85931142D01*
X60761571Y-85169238D02*
X60809190Y-85026380D01*
X60856809Y-84978761D01*
X60952047Y-84931142D01*
X61094904Y-84931142D01*
X61190142Y-84978761D01*
X61237761Y-85026380D01*
X61285380Y-85121619D01*
X61285380Y-85502571D01*
X60285380Y-85502571D01*
X60285380Y-85169238D01*
X60333000Y-85074000D01*
X60380619Y-85026380D01*
X60475857Y-84978761D01*
X60571095Y-84978761D01*
X60666333Y-85026380D01*
X60713952Y-85074000D01*
X60761571Y-85169238D01*
X60761571Y-85502571D01*
X60761571Y-83740666D02*
X60761571Y-83407333D01*
X61285380Y-83264476D02*
X61285380Y-83740666D01*
X60285380Y-83740666D01*
X60285380Y-83264476D01*
X61285380Y-82407333D02*
X60285380Y-82407333D01*
X61237761Y-82407333D02*
X61285380Y-82502571D01*
X61285380Y-82693047D01*
X61237761Y-82788285D01*
X61190142Y-82835904D01*
X61094904Y-82883523D01*
X60809190Y-82883523D01*
X60713952Y-82835904D01*
X60666333Y-82788285D01*
X60618714Y-82693047D01*
X60618714Y-82502571D01*
X60666333Y-82407333D01*
X60618714Y-81502571D02*
X61428238Y-81502571D01*
X61523476Y-81550190D01*
X61571095Y-81597809D01*
X61618714Y-81693047D01*
X61618714Y-81835904D01*
X61571095Y-81931142D01*
X61237761Y-81502571D02*
X61285380Y-81597809D01*
X61285380Y-81788285D01*
X61237761Y-81883523D01*
X61190142Y-81931142D01*
X61094904Y-81978761D01*
X60809190Y-81978761D01*
X60713952Y-81931142D01*
X60666333Y-81883523D01*
X60618714Y-81788285D01*
X60618714Y-81597809D01*
X60666333Y-81502571D01*
X61237761Y-80645428D02*
X61285380Y-80740666D01*
X61285380Y-80931142D01*
X61237761Y-81026380D01*
X61142523Y-81074000D01*
X60761571Y-81074000D01*
X60666333Y-81026380D01*
X60618714Y-80931142D01*
X60618714Y-80740666D01*
X60666333Y-80645428D01*
X60761571Y-80597809D01*
X60856809Y-80597809D01*
X60952047Y-81074000D01*
D11*
X56620000Y-79604000D02*
X56620000Y-88544000D01*
%TD*%
M02*
