%TF.GenerationSoftware,KiCad,Pcbnew,6.0.4-6f826c9f35~116~ubuntu21.10.1*%
%TF.CreationDate,2022-04-05T23:43:51+08:00*%
%TF.ProjectId,ST_Link_V2.1,53545f4c-696e-46b5-9f56-322e312e6b69,rev?*%
%TF.SameCoordinates,Original*%
%TF.FileFunction,Other,User*%
%FSLAX46Y46*%
G04 Gerber Fmt 4.6, Leading zero omitted, Abs format (unit mm)*
G04 Created by KiCad (PCBNEW 6.0.4-6f826c9f35~116~ubuntu21.10.1) date 2022-04-05 23:43:51*
%MOMM*%
%LPD*%
G01*
G04 APERTURE LIST*
%ADD10C,0.050000*%
G04 APERTURE END LIST*
D10*
%TO.C,C1*%
X72596000Y-91588000D02*
X71676000Y-91588000D01*
X71676000Y-91588000D02*
X71676000Y-89768000D01*
X72596000Y-89768000D02*
X72596000Y-91588000D01*
X71676000Y-89768000D02*
X72596000Y-89768000D01*
%TO.C,C2*%
X73612000Y-91588000D02*
X72692000Y-91588000D01*
X72692000Y-91588000D02*
X72692000Y-89768000D01*
X72692000Y-89768000D02*
X73612000Y-89768000D01*
X73612000Y-89768000D02*
X73612000Y-91588000D01*
%TO.C,C3*%
X69548000Y-76814000D02*
X69548000Y-78634000D01*
X68628000Y-78634000D02*
X68628000Y-76814000D01*
X68628000Y-76814000D02*
X69548000Y-76814000D01*
X69548000Y-78634000D02*
X68628000Y-78634000D01*
%TO.C,C4*%
X64622000Y-87582000D02*
X64622000Y-86662000D01*
X66442000Y-87582000D02*
X64622000Y-87582000D01*
X64622000Y-86662000D02*
X66442000Y-86662000D01*
X66442000Y-86662000D02*
X66442000Y-87582000D01*
%TO.C,C5*%
X67612000Y-89768000D02*
X68532000Y-89768000D01*
X68532000Y-91588000D02*
X67612000Y-91588000D01*
X67612000Y-91588000D02*
X67612000Y-89768000D01*
X68532000Y-89768000D02*
X68532000Y-91588000D01*
%TO.C,C6*%
X57482000Y-91658000D02*
X57482000Y-89698000D01*
X57482000Y-89698000D02*
X60882000Y-89698000D01*
X60882000Y-91658000D02*
X57482000Y-91658000D01*
X60882000Y-89698000D02*
X60882000Y-91658000D01*
%TO.C,C7*%
X77930000Y-78592000D02*
X77930000Y-80412000D01*
X77010000Y-80412000D02*
X77010000Y-78592000D01*
X77010000Y-78592000D02*
X77930000Y-78592000D01*
X77930000Y-80412000D02*
X77010000Y-80412000D01*
%TO.C,C8*%
X62182000Y-89768000D02*
X62182000Y-91588000D01*
X61262000Y-89768000D02*
X62182000Y-89768000D01*
X62182000Y-91588000D02*
X61262000Y-91588000D01*
X61262000Y-91588000D02*
X61262000Y-89768000D01*
%TO.C,C10*%
X74628000Y-89768000D02*
X74628000Y-91588000D01*
X73708000Y-89768000D02*
X74628000Y-89768000D01*
X74628000Y-91588000D02*
X73708000Y-91588000D01*
X73708000Y-91588000D02*
X73708000Y-89768000D01*
%TO.C,C11*%
X65580000Y-76814000D02*
X66500000Y-76814000D01*
X66500000Y-78634000D02*
X65580000Y-78634000D01*
X66500000Y-76814000D02*
X66500000Y-78634000D01*
X65580000Y-78634000D02*
X65580000Y-76814000D01*
%TO.C,C12*%
X64022000Y-76320000D02*
X64022000Y-78620000D01*
X59422000Y-78620000D02*
X59422000Y-76320000D01*
X64022000Y-78620000D02*
X59422000Y-78620000D01*
X59422000Y-76320000D02*
X64022000Y-76320000D01*
%TO.C,C13*%
X68532000Y-76814000D02*
X68532000Y-78634000D01*
X68532000Y-78634000D02*
X67612000Y-78634000D01*
X67612000Y-78634000D02*
X67612000Y-76814000D01*
X67612000Y-76814000D02*
X68532000Y-76814000D01*
%TO.C,C14*%
X57256000Y-77930000D02*
X57256000Y-77010000D01*
X59076000Y-77010000D02*
X59076000Y-77930000D01*
X59076000Y-77930000D02*
X57256000Y-77930000D01*
X57256000Y-77010000D02*
X59076000Y-77010000D01*
%TO.C,C15*%
X66596000Y-78634000D02*
X66596000Y-76814000D01*
X67516000Y-78634000D02*
X66596000Y-78634000D01*
X67516000Y-76814000D02*
X67516000Y-78634000D01*
X66596000Y-76814000D02*
X67516000Y-76814000D01*
%TO.C,D1*%
X74130000Y-76032000D02*
X74130000Y-77892000D01*
X73190000Y-77892000D02*
X73190000Y-76032000D01*
X73190000Y-76032000D02*
X74130000Y-76032000D01*
X74130000Y-77892000D02*
X73190000Y-77892000D01*
%TO.C,D2*%
X75146000Y-77892000D02*
X74206000Y-77892000D01*
X74206000Y-76032000D02*
X75146000Y-76032000D01*
X75146000Y-76032000D02*
X75146000Y-77892000D01*
X74206000Y-77892000D02*
X74206000Y-76032000D01*
%TO.C,D3*%
X73114000Y-77892000D02*
X72174000Y-77892000D01*
X73114000Y-76032000D02*
X73114000Y-77892000D01*
X72174000Y-76032000D02*
X73114000Y-76032000D01*
X72174000Y-77892000D02*
X72174000Y-76032000D01*
%TO.C,D4*%
X77178000Y-76032000D02*
X77178000Y-77892000D01*
X77178000Y-77892000D02*
X76238000Y-77892000D01*
X76238000Y-76032000D02*
X77178000Y-76032000D01*
X76238000Y-77892000D02*
X76238000Y-76032000D01*
%TO.C,D5*%
X76162000Y-77892000D02*
X75222000Y-77892000D01*
X75222000Y-77892000D02*
X75222000Y-76032000D01*
X76162000Y-76032000D02*
X76162000Y-77892000D01*
X75222000Y-76032000D02*
X76162000Y-76032000D01*
%TO.C,J1*%
X64550000Y-78804000D02*
X55620000Y-78804000D01*
X64550000Y-89344000D02*
X64550000Y-78804000D01*
X55620000Y-78804000D02*
X55620000Y-89344000D01*
X55620000Y-89344000D02*
X64550000Y-89344000D01*
%TO.C,R1*%
X70574000Y-91608000D02*
X69634000Y-91608000D01*
X69634000Y-91608000D02*
X69634000Y-89748000D01*
X70574000Y-89748000D02*
X70574000Y-91608000D01*
X69634000Y-89748000D02*
X70574000Y-89748000D01*
%TO.C,R2*%
X70650000Y-91608000D02*
X70650000Y-89748000D01*
X71590000Y-89748000D02*
X71590000Y-91608000D01*
X70650000Y-89748000D02*
X71590000Y-89748000D01*
X71590000Y-91608000D02*
X70650000Y-91608000D01*
%TO.C,R3*%
X66462000Y-81572000D02*
X66462000Y-82512000D01*
X64602000Y-81572000D02*
X66462000Y-81572000D01*
X64602000Y-82512000D02*
X64602000Y-81572000D01*
X66462000Y-82512000D02*
X64602000Y-82512000D01*
%TO.C,R4*%
X64602000Y-86576000D02*
X64602000Y-85636000D01*
X66462000Y-86576000D02*
X64602000Y-86576000D01*
X64602000Y-85636000D02*
X66462000Y-85636000D01*
X66462000Y-85636000D02*
X66462000Y-86576000D01*
%TO.C,R5*%
X66462000Y-83528000D02*
X64602000Y-83528000D01*
X64602000Y-83528000D02*
X64602000Y-82588000D01*
X64602000Y-82588000D02*
X66462000Y-82588000D01*
X66462000Y-82588000D02*
X66462000Y-83528000D01*
%TO.C,R6*%
X64602000Y-85560000D02*
X64602000Y-84620000D01*
X66462000Y-84620000D02*
X66462000Y-85560000D01*
X64602000Y-84620000D02*
X66462000Y-84620000D01*
X66462000Y-85560000D02*
X64602000Y-85560000D01*
%TO.C,R7*%
X74762000Y-78956000D02*
X74762000Y-78016000D01*
X74762000Y-78016000D02*
X76622000Y-78016000D01*
X76622000Y-78016000D02*
X76622000Y-78956000D01*
X76622000Y-78956000D02*
X74762000Y-78956000D01*
%TO.C,R8*%
X65110000Y-91148000D02*
X65110000Y-90208000D01*
X66970000Y-91148000D02*
X65110000Y-91148000D01*
X65110000Y-90208000D02*
X66970000Y-90208000D01*
X66970000Y-90208000D02*
X66970000Y-91148000D01*
%TO.C,R10*%
X64938000Y-90208000D02*
X64938000Y-91148000D01*
X63078000Y-91148000D02*
X63078000Y-90208000D01*
X64938000Y-91148000D02*
X63078000Y-91148000D01*
X63078000Y-90208000D02*
X64938000Y-90208000D01*
%TO.C,R11*%
X64602000Y-83604000D02*
X66462000Y-83604000D01*
X66462000Y-83604000D02*
X66462000Y-84544000D01*
X66462000Y-84544000D02*
X64602000Y-84544000D01*
X64602000Y-84544000D02*
X64602000Y-83604000D01*
%TO.C,R12*%
X76670000Y-89748000D02*
X76670000Y-91608000D01*
X75730000Y-89748000D02*
X76670000Y-89748000D01*
X75730000Y-91608000D02*
X75730000Y-89748000D01*
X76670000Y-91608000D02*
X75730000Y-91608000D01*
%TO.C,R13*%
X76746000Y-91608000D02*
X76746000Y-89748000D01*
X77686000Y-91608000D02*
X76746000Y-91608000D01*
X76746000Y-89748000D02*
X77686000Y-89748000D01*
X77686000Y-89748000D02*
X77686000Y-91608000D01*
%TO.C,R19*%
X75654000Y-89748000D02*
X75654000Y-91608000D01*
X74714000Y-91608000D02*
X74714000Y-89748000D01*
X75654000Y-91608000D02*
X74714000Y-91608000D01*
X74714000Y-89748000D02*
X75654000Y-89748000D01*
%TO.C,R20*%
X68617001Y-89748000D02*
X69557001Y-89748000D01*
X68617001Y-91608000D02*
X68617001Y-89748000D01*
X69557001Y-89748000D02*
X69557001Y-91608000D01*
X69557001Y-91608000D02*
X68617001Y-91608000D01*
%TO.C,R21*%
X77762000Y-91608000D02*
X77762000Y-89748000D01*
X77762000Y-89748000D02*
X78702000Y-89748000D01*
X78702000Y-91608000D02*
X77762000Y-91608000D01*
X78702000Y-89748000D02*
X78702000Y-91608000D01*
%TO.C,U1*%
X68406000Y-79074000D02*
X78406000Y-79074000D01*
X78406000Y-89074000D02*
X68406000Y-89074000D01*
X78406000Y-79074000D02*
X78406000Y-89074000D01*
X68406000Y-89074000D02*
X68406000Y-79074000D01*
%TO.C,J3*%
X97682000Y-90944000D02*
X97682000Y-77194000D01*
X97682000Y-77194000D02*
X80772000Y-77194000D01*
X80772000Y-90944000D02*
X97682000Y-90944000D01*
X80772000Y-77194000D02*
X80772000Y-90944000D01*
%TD*%
M02*
